<svg xmlns="http://www.w3.org/2000/svg" width="214" height="48" viewBox="0 0 214 48" shape-rendering="geometricPrecision"><path fill="#000008" fill-opacity="0.063" d="M201 34H202V35H201ZM202 35H203V36H202Z"/><path fill="#000808" fill-opacity="0.063" d="M203 34H204V35H203ZM13 36H14V37H13ZM126 42H127V43H126Z"/><path fill="#000810" fill-opacity="0.063" d="M18 9H19V10H18ZM101 9H102V10H101ZM105 9H106V10H105ZM126 9H127V10H126ZM199 9H200V10H199ZM17 10H18V11H17ZM128 10H129V11H128ZM179 10H180V11H179ZM129 11H130V12H129ZM129 12H130V13H129ZM11 18H12V19H11ZM11 33H12V34H11ZM202 33H203V34H202ZM15 38H16V39H15ZM18 41H19V42H18ZM194 41H195V42H194ZM187 42H188V43H187ZM189 42H190V43H189ZM125 43H126V44H125ZM188 43H189V44H188ZM130 44H131V45H130ZM174 44H175V45H174ZM127 45H128V46H127Z"/><path fill="#001010" fill-opacity="0.063" d="M129 1H130V2H129ZM180 2H181V3H180ZM140 3H141V4H140ZM174 3H175V4H174ZM201 11H202V12H201ZM201 13H202V14H201ZM12 16H13V17H12ZM14 37H15V38H14ZM196 39H197V40H196ZM176 43H177V44H176Z"/><path fill="#001018" fill-opacity="0.063" d="M128 0H129V1H128ZM182 0H183V1H182ZM133 2H134V3H133Z"/><path fill="#080810" fill-opacity="0.063" d="M128 44H129V45H128Z"/><path fill="#081018" fill-opacity="0.063" d="M104 10H105V11H104Z"/><path fill="#000008" fill-opacity="0.125" d="M106 9H107V10H106ZM201 31H202V32H201ZM125 41H126V42H125ZM127 43H128V44H127Z"/><path fill="#000808" fill-opacity="0.125" d="M200 10H201V11H200ZM189 41H190V42H189Z"/><path fill="#000810" fill-opacity="0.125" d="M19 9H100V10H19ZM124 9H125V10H124ZM180 10H192V11H180ZM196 10H198V11H196ZM129 13H131V14H129ZM132 13H172V14H132ZM173 13H174V14H173ZM175 13H176V14H175ZM201 14H202V15H201ZM201 15H202V16H201ZM201 16H202V17H201ZM201 17H202V18H201ZM201 18H202V19H201ZM11 19H12V20H11ZM201 19H202V20H201ZM11 20H12V21H11ZM201 20H202V21H201ZM11 21H12V22H11ZM201 21H202V22H201ZM11 22H12V23H11ZM201 22H202V23H201ZM11 23H12V24H11ZM201 23H202V24H201ZM11 24H12V25H11ZM201 24H202V25H201ZM11 25H12V26H11ZM201 25H202V26H201ZM11 26H12V27H11ZM201 26H202V27H201ZM11 27H12V28H11ZM201 27H202V28H201ZM11 28H12V29H11ZM201 28H202V29H201ZM11 29H12V30H11ZM201 29H202V30H201ZM11 30H12V31H11ZM201 30H202V31H201ZM11 31H12V32H11ZM11 32H12V33H11ZM201 32H202V33H201ZM19 41H124V42H19ZM180 41H188V42H180ZM190 41H191V42H190ZM128 43H129V44H128ZM126 44H127V45H126ZM132 44H172V45H132Z"/><path fill="#001010" fill-opacity="0.125" d="M179 2H180V3H179ZM141 3H174V4H141ZM100 9H101V10H100ZM107 9H124V10H107ZM125 9H126V10H125ZM192 10H196V11H192ZM131 13H132V14H131ZM174 13H175V14H174ZM201 33H202V34H201ZM191 41H192V42H191ZM193 41H194V42H193ZM131 44H132V45H131ZM172 44H173V45H172Z"/><path fill="#001018" fill-opacity="0.125" d="M130 1H132V2H130ZM134 2H139V3H134ZM176 2H179V3H176ZM124 41H125V42H124ZM179 41H180V42H179ZM173 44H174V45H173Z"/><path fill="#081010" fill-opacity="0.125" d="M172 13H173V14H172ZM192 41H193V42H192Z"/><path fill="#000808" fill-opacity="0.188" d="M176 13H177V14H176Z"/><path fill="#000810" fill-opacity="0.188" d="M102 10H103V11H102ZM103 11H104V12H103ZM178 11H179V12H178ZM177 12H178V13H177ZM106 13H107V14H106ZM108 13H124V14H108ZM127 13H128V14H127ZM12 34H13V35H12ZM200 34H201V35H200ZM16 39H17V40H16ZM17 40H18V41H17ZM195 40H196V41H195ZM178 41H179V42H178ZM188 41H189V42H188Z"/><path fill="#001010" fill-opacity="0.188" d="M198 10H199V11H198ZM104 11H105V12H104ZM15 13H16V14H15ZM105 13H106V14H105ZM107 13H108V14H107ZM124 13H127V14H124ZM128 13H129V14H128ZM13 15H14V16H13ZM13 35H14V36H13ZM199 35H200V36H199ZM198 36H199V37H198ZM15 37H16V38H15ZM197 37H198V38H197ZM196 38H197V39H196ZM126 41H127V42H126ZM127 42H128V43H127ZM177 42H178V43H177ZM175 43H176V44H175Z"/><path fill="#001018" fill-opacity="0.188" d="M132 1H133V2H132ZM181 1H182V2H181ZM139 2H140V3H139ZM175 2H176V3H175ZM127 10H128V11H127ZM14 14H15V15H14ZM12 17H13V18H12Z"/><path fill="#081018" fill-opacity="0.188" d="M17 11H18V12H17ZM16 12H17V13H16ZM129 43H130V44H129Z"/><path fill="#001010" fill-opacity="0.251" d="M104 13H105V14H104Z"/><path fill="#001018" fill-opacity="0.251" d="M200 12H201V13H200Z"/><path fill="#000810" fill-opacity="1.000" d="M19 13H20V14H19ZM18 14H19V15H18ZM17 16H18V17H17ZM18 17H19V18H18ZM14 20H15V21H14ZM18 31H19V32H18ZM17 32H18V33H17ZM18 33H19V34H18ZM18 37H19V38H18ZM131 41H132V42H131Z"/><path fill="#001010" fill-opacity="1.000" d="M101 13H102V14H101ZM197 13H198V14H197ZM16 15H17V16H16ZM19 15H20V16H19ZM179 15H180V16H179ZM175 16H177V17H175ZM15 17H16V18H15ZM107 18H108V19H107ZM17 19H18V20H17ZM19 19H20V20H19ZM18 20H19V21H18ZM107 20H108V21H107ZM14 21H15V22H14ZM198 31H199V32H198ZM15 32H16V33H15ZM15 33H16V34H15ZM197 33H198V34H197ZM17 35H18V36H17ZM19 35H20V36H19ZM196 36H197V37H196ZM175 38H176V39H175ZM192 38H194V39H192ZM131 39H132V40H131ZM173 39H174V40H173ZM130 40H131V41H130ZM173 42H174V43H173Z"/><path fill="#001018" fill-opacity="1.000" d="M129 0H135V1H129ZM177 0H178V1H177ZM179 0H182V1H179ZM133 1H140V2H133ZM155 1H181V2H155ZM140 2H175V3H140ZM20 12H101V13H20ZM104 12H106V13H104ZM20 13H101V14H20ZM180 13H196V14H180ZM20 14H102V15H20ZM180 14H199V15H180ZM17 15H18V16H17ZM20 15H104V16H20ZM105 15H175V16H105ZM178 15H179V16H178ZM180 15H199V16H180ZM19 16H107V17H19ZM114 16H116V17H114ZM122 16H124V17H122ZM129 16H132V17H129ZM172 16H175V17H172ZM177 16H179V17H177ZM180 16H199V17H180ZM20 17H100V18H20ZM103 17H107V18H103ZM108 17H172V18H108ZM176 17H179V18H176ZM180 17H199V18H180ZM14 18H17V19H14ZM18 18H107V19H18ZM108 18H199V19H108ZM15 19H16V20H15ZM20 19H104V20H20ZM107 19H199V20H107ZM16 20H17V21H16ZM20 20H100V21H20ZM102 20H107V21H102ZM108 20H172V21H108ZM173 20H199V21H173ZM15 21H18V22H15ZM19 21H106V22H19ZM107 21H199V22H107ZM14 22H199V23H14ZM14 23H199V24H14ZM14 24H199V25H14ZM14 25H199V26H14ZM14 26H199V27H14ZM14 27H199V28H14ZM14 28H199V29H14ZM14 29H199V30H14ZM14 30H16V31H14ZM17 30H18V31H17ZM19 30H199V31H19ZM14 31H17V32H14ZM20 31H197V32H20ZM14 32H15V33H14ZM19 32H197V33H19ZM16 33H17V34H16ZM20 33H196V34H20ZM15 34H16V35H15ZM17 34H18V35H17ZM19 34H199V35H19ZM20 35H196V36H20ZM197 35H198V36H197ZM17 36H18V37H17ZM19 36H196V37H19ZM20 37H196V38H20ZM19 38H124V39H19ZM125 38H131V39H125ZM132 38H173V39H132ZM174 38H175V39H174ZM176 38H177V39H176ZM178 38H191V39H178ZM127 39H128V40H127ZM129 39H130V40H129ZM132 39H173V40H132ZM177 39H178V40H177ZM188 39H189V40H188ZM132 40H173V41H132ZM174 40H175V41H174ZM172 41H175V42H172ZM132 42H172V43H132Z"/><path fill="#001818" fill-opacity="1.000" d="M108 16H114V17H108ZM116 16H122V17H116ZM124 16H129V17H124ZM132 16H172V17H132ZM197 31H198V32H197ZM196 33H197V34H196ZM196 35H197V36H196ZM131 38H132V39H131ZM130 39H131V40H130ZM133 41H134V42H133ZM135 41H142V42H135ZM143 41H144V42H143ZM145 41H146V42H145ZM147 41H148V42H147ZM149 41H150V42H149ZM151 41H152V42H151ZM153 41H154V42H153ZM155 41H156V42H155ZM157 41H158V42H157ZM159 41H160V42H159ZM161 41H162V42H161ZM163 41H164V42H163ZM165 41H166V42H165ZM167 41H168V42H167ZM169 41H170V42H169Z"/><path fill="#001820" fill-opacity="1.000" d="M135 0H137V1H135ZM172 0H174V1H172ZM176 0H177V1H176Z"/><path fill="#081018" fill-opacity="1.000" d="M178 0H179V1H178ZM140 1H155V2H140ZM18 10H19V11H18ZM20 10H102V11H20ZM199 10H200V11H199ZM128 11H129V12H128ZM200 11H201V12H200ZM101 12H102V13H101ZM103 12H104V13H103ZM128 12H129V13H128ZM197 12H198V13H197ZM196 13H197V14H196ZM198 13H199V14H198ZM200 13H201V14H200ZM17 14H18V15H17ZM19 14H20V15H19ZM102 14H103V15H102ZM179 14H180V15H179ZM200 14H201V15H200ZM104 15H105V16H104ZM175 15H176V16H175ZM200 15H201V16H200ZM107 16H108V17H107ZM179 16H180V17H179ZM200 16H201V17H200ZM100 17H103V18H100ZM107 17H108V18H107ZM175 17H176V18H175ZM179 17H180V18H179ZM200 17H201V18H200ZM200 18H201V19H200ZM14 19H15V20H14ZM104 19H105V20H104ZM200 19H201V20H200ZM12 20H13V21H12ZM19 20H20V21H19ZM100 20H102V21H100ZM172 20H173V21H172ZM200 20H201V21H200ZM18 21H19V22H18ZM106 21H107V22H106ZM200 21H201V22H200ZM200 22H201V23H200ZM200 23H201V24H200ZM200 24H201V25H200ZM200 25H201V26H200ZM200 26H201V27H200ZM200 27H201V28H200ZM200 28H201V29H200ZM200 29H201V30H200ZM18 30H19V31H18ZM200 30H201V31H200ZM12 31H13V32H12ZM19 31H20V32H19ZM200 31H201V32H200ZM198 32H199V33H198ZM200 32H201V33H200ZM16 34H17V35H16ZM18 34H19V35H18ZM16 35H17V36H16ZM14 36H15V37H14ZM191 38H192V39H191ZM124 39H125V40H124ZM175 39H176V40H175ZM18 40H19V41H18ZM173 40H174V41H173ZM176 40H177V41H176ZM130 41H131V42H130ZM132 41H133V42H132ZM134 41H135V42H134ZM142 41H143V42H142ZM144 41H145V42H144ZM146 41H147V42H146ZM148 41H149V42H148ZM150 41H151V42H150ZM152 41H153V42H152ZM154 41H155V42H154ZM156 41H157V42H156ZM158 41H159V42H158ZM160 41H161V42H160ZM162 41H163V42H162ZM164 41H165V42H164ZM166 41H167V42H166ZM168 41H169V42H168ZM170 41H172V42H170ZM128 42H129V43H128ZM131 42H132V43H131ZM176 42H177V43H176ZM188 42H189V43H188ZM126 43H127V44H126ZM127 44H128V45H127Z"/><path fill="#081818" fill-opacity="1.000" d="M180 12H182V13H180ZM188 12H190V13H188ZM176 15H178V16H176ZM16 16H17V17H16ZM18 16H19V17H18ZM16 17H18V18H16ZM172 17H175V18H172ZM17 18H18V19H17ZM16 19H17V20H16ZM105 19H107V20H105ZM17 20H18V21H17ZM197 32H198V33H197ZM17 33H18V34H17ZM19 37H20V38H19ZM16 38H17V39H16ZM124 38H125V39H124ZM173 38H174V39H173ZM177 38H178V39H177ZM20 39H124V40H20ZM128 39H129V40H128ZM174 39H175V40H174ZM176 39H177V40H176ZM180 39H188V40H180ZM189 39H190V40H189ZM191 39H192V40H191ZM129 40H130V41H129ZM175 40H176V41H175ZM175 41H176V42H175Z"/><path fill="#081820" fill-opacity="1.000" d="M137 0H172V1H137ZM174 0H176V1H174ZM19 10H20V11H19ZM124 12H125V13H124ZM182 12H188V13H182ZM190 12H197V13H190ZM198 12H199V13H198ZM14 15H15V16H14ZM18 15H19V16H18ZM15 16H16V17H15ZM14 17H15V18H14ZM19 17H20V18H19ZM12 18H13V19H12ZM18 19H19V20H18ZM15 20H16V21H15ZM12 22H13V23H12ZM12 23H13V24H12ZM12 24H13V25H12ZM12 25H13V26H12ZM12 26H13V27H12ZM12 27H13V28H12ZM12 28H13V29H12ZM12 29H13V30H12ZM16 30H17V31H16ZM12 32H13V33H12ZM16 32H17V33H16ZM18 32H19V33H18ZM14 33H15V34H14ZM19 33H20V34H19ZM18 35H19V36H18ZM16 36H17V37H16ZM18 36H19V37H18ZM125 39H127V40H125ZM178 39H180V40H178ZM190 39H191V40H190ZM192 39H193V40H192ZM127 41H128V42H127ZM177 41H178V42H177Z"/><path fill="#101018" fill-opacity="1.000" d="M202 34H203V35H202Z"/><path fill="#101820" fill-opacity="1.000" d="M17 12H18V13H17ZM178 12H179V13H178ZM177 13H178V14H177ZM179 13H180V14H179ZM15 14H16V15H15ZM12 19H13V20H12ZM12 21H13V22H12ZM12 30H13V31H12ZM17 31H18V32H17ZM198 33H199V34H198ZM200 33H201V34H200ZM14 34H15V35H14ZM15 35H16V36H15ZM17 39H18V40H17ZM195 39H196V40H195ZM128 40H129V41H128ZM129 41H130V42H129ZM172 42H173V43H172ZM174 42H175V43H174Z"/><path fill="#102020" fill-opacity="1.000" d="M126 10H127V11H126ZM18 11H19V12H18ZM19 12H20V13H19ZM107 12H108V13H107ZM127 12H128V13H127ZM16 13H17V14H16ZM18 13H19V14H18ZM102 13H103V14H102ZM103 14H104V15H103ZM178 14H179V15H178ZM13 16H14V17H13ZM12 33H13V34H12ZM17 37H18V38H17ZM194 38H195V39H194ZM193 39H194V40H193ZM131 40H132V41H131ZM194 40H195V41H194Z"/><path fill="#102028" fill-opacity="1.000" d="M108 12H124V13H108ZM125 12H126V13H125ZM13 19H14V20H13ZM13 33H14V34H13ZM194 39H195V40H194ZM130 42H131V43H130Z"/><path fill="#182028" fill-opacity="1.000" d="M102 11H103V12H102ZM127 11H128V12H127ZM179 11H180V12H179ZM18 12H19V13H18ZM126 12H127V13H126ZM13 30H14V31H13ZM199 32H200V33H199ZM199 33H200V34H199ZM18 38H19V39H18ZM18 39H19V40H18ZM19 40H20V41H19Z"/><path fill="#182828" fill-opacity="1.000" d="M13 22H14V23H13ZM13 23H14V24H13ZM13 24H14V25H13ZM13 25H14V26H13ZM13 26H14V27H13ZM13 27H14V28H13ZM13 28H14V29H13ZM13 29H14V30H13ZM13 32H14V33H13ZM17 38H18V39H17ZM179 40H180V41H179Z"/><path fill="#182830" fill-opacity="1.000" d="M108 10H124V11H108ZM125 10H126V11H125ZM19 11H20V12H19ZM21 11H100V12H21ZM106 12H107V13H106ZM199 12H200V13H199ZM199 13H200V14H199ZM199 14H200V15H199ZM199 15H200V16H199ZM14 16H15V17H14ZM199 16H200V17H199ZM199 17H200V18H199ZM199 18H200V19H199ZM199 19H200V20H199ZM199 20H200V21H199ZM13 21H14V22H13ZM199 21H200V22H199ZM199 22H200V23H199ZM199 23H200V24H199ZM199 24H200V25H199ZM199 25H200V26H199ZM199 26H200V27H199ZM199 27H200V28H199ZM199 28H200V29H199ZM199 29H200V30H199ZM199 30H200V31H199ZM13 31H14V32H13ZM19 39H20V40H19ZM126 40H127V41H126ZM191 40H192V41H191ZM172 43H173V44H172Z"/><path fill="#202828" fill-opacity="1.000" d="M192 40H193V41H192Z"/><path fill="#202830" fill-opacity="1.000" d="M106 10H108V11H106ZM124 10H125V11H124ZM20 11H21V12H20ZM100 11H102V12H100ZM105 11H106V12H105ZM180 11H196V12H180ZM198 11H199V12H198ZM179 12H180V13H179ZM17 13H18V14H17ZM178 13H179V14H178ZM16 14H17V15H16ZM104 14H105V15H104ZM177 14H178V15H177ZM13 18H14V19H13ZM13 20H14V21H13ZM20 40H125V41H20ZM180 40H188V41H180ZM193 40H194V41H193ZM128 41H129V42H128ZM129 42H130V43H129ZM130 43H131V44H130Z"/><path fill="#203030" fill-opacity="1.000" d="M197 11H198V12H197ZM199 11H200V12H199ZM102 12H103V13H102ZM103 13H104V14H103ZM107 14H108V15H107ZM135 14H136V15H135ZM137 14H138V15H137ZM172 14H175V15H172ZM15 15H16V16H15ZM199 31H200V32H199ZM15 36H16V37H15ZM125 40H126V41H125ZM127 40H128V41H127ZM188 40H189V41H188ZM190 40H191V41H190ZM132 43H172V44H132ZM174 43H175V44H174Z"/><path fill="#203038" fill-opacity="1.000" d="M105 10H106V11H105ZM107 11H108V12H107ZM196 11H197V12H196ZM105 14H107V15H105ZM108 14H135V15H108ZM136 14H137V15H136ZM138 14H172V15H138ZM175 14H177V15H175ZM13 17H14V18H13ZM13 34H14V35H13ZM14 35H15V36H14ZM195 38H196V39H195ZM177 40H179V41H177ZM189 40H190V41H189ZM173 43H174V44H173Z"/><path fill="#283038" fill-opacity="1.000" d="M16 37H17V38H16ZM176 41H177V42H176ZM175 42H176V43H175ZM131 43H132V44H131Z"/><path fill="#283838" fill-opacity="1.000" d="M126 11H127V12H126ZM198 35H199V36H198ZM197 36H198V37H197ZM196 37H197V38H196Z"/><path fill="#283840" fill-opacity="1.000" d="M108 11H125V12H108Z"/><path fill="#303840" fill-opacity="1.000" d="M106 11H107V12H106ZM125 11H126V12H125ZM199 34H200V35H199Z"/></svg>