<svg xmlns="http://www.w3.org/2000/svg" width="236" height="48" viewBox="0 0 236 48" shape-rendering="geometricPrecision"><path fill="#000008" fill-opacity="0.063" d="M23 41H24V42H23Z"/><path fill="#000010" fill-opacity="0.063" d="M26 6H27V7H26ZM20 7H21V8H20Z"/><path fill="#000808" fill-opacity="0.063" d="M118 7H119V8H118Z"/><path fill="#000810" fill-opacity="0.063" d="M24 6H25V7H24ZM144 6H145V7H144ZM23 7H24V8H23ZM226 7H227V8H226ZM19 8H20V9H19ZM21 8H22V9H21ZM20 9H21V10H20ZM22 9H23V10H22ZM228 9H229V10H228ZM147 10H148V11H147ZM227 34H228V35H227ZM17 35H18V36H17ZM18 36H19V37H18ZM227 37H228V38H227ZM21 39H22V40H21ZM21 40H22V41H21ZM20 41H21V42H20ZM22 41H23V42H22ZM21 42H22V43H21ZM24 42H25V43H24ZM220 42H221V43H220ZM226 43H227V44H226ZM225 44H226V45H225ZM227 44H228V45H227ZM199 45H200V46H199ZM226 45H227V46H226ZM149 46H151V47H149ZM152 46H153V47H152ZM154 46H155V47H154ZM156 46H157V47H156ZM197 46H198V47H197Z"/><path fill="#001010" fill-opacity="0.063" d="M219 1H220V2H219ZM144 2H145V3H144ZM205 3H206V4H205ZM150 4H151V5H150ZM156 5H157V6H156ZM195 5H196V6H195ZM120 6H121V7H120ZM203 8H204V9H203ZM147 9H148V10H147ZM17 15H18V16H17Z"/><path fill="#001018" fill-opacity="0.063" d="M23 0H24V1H23ZM220 0H221V1H220ZM24 1H25V2H24ZM208 2H209V3H208ZM148 3H149V4H148ZM202 4H203V5H202Z"/><path fill="#081018" fill-opacity="0.063" d="M226 38H227V39H226Z"/><path fill="#000008" fill-opacity="0.125" d="M227 8H228V9H227Z"/><path fill="#000808" fill-opacity="0.125" d="M121 6H122V7H121ZM22 40H23V41H22Z"/><path fill="#000810" fill-opacity="0.125" d="M123 6H140V7H123ZM142 6H143V7H142ZM28 7H116V8H28ZM119 7H120V8H119ZM23 8H24V9H23ZM208 8H209V9H208ZM210 8H211V9H210ZM220 8H222V9H220ZM119 9H120V10H119ZM143 11H145V12H143ZM148 11H196V12H148ZM199 11H200V12H199ZM227 11H228V12H227ZM227 13H228V14H227ZM227 14H228V15H227ZM227 15H228V16H227ZM17 16H18V17H17ZM227 16H228V17H227ZM17 17H18V18H17ZM227 17H228V18H227ZM17 18H18V19H17ZM227 18H228V19H227ZM227 19H228V20H227ZM17 20H18V21H17ZM227 20H228V21H227ZM17 21H18V22H17ZM227 21H228V22H227ZM17 22H18V23H17ZM227 22H228V23H227ZM17 23H18V24H17ZM227 23H228V24H227ZM17 24H18V25H17ZM227 24H228V25H227ZM17 25H18V26H17ZM227 25H228V26H227ZM17 26H18V27H17ZM227 26H228V27H227ZM17 27H18V28H17ZM227 27H228V28H227ZM17 28H18V29H17ZM227 28H228V29H227ZM17 29H18V30H17ZM227 29H228V30H227ZM17 30H18V31H17ZM227 30H228V31H227ZM17 31H18V32H17ZM227 31H228V32H227ZM25 42H26V43H25ZM28 42H143V43H28ZM144 42H145V43H144ZM203 42H220V43H203ZM153 46H154V47H153ZM157 46H197V47H157Z"/><path fill="#001010" fill-opacity="0.125" d="M151 4H153V5H151ZM157 5H195V6H157ZM140 6H142V7H140ZM143 6H144V7H143ZM116 7H117V8H116ZM204 8H208V9H204ZM209 8H210V9H209ZM211 8H220V9H211ZM222 8H223V9H222ZM224 8H225V9H224ZM147 11H148V12H147ZM196 11H199V12H196ZM227 12H228V13H227ZM17 19H18V20H17ZM17 32H18V33H17ZM227 32H228V33H227ZM17 33H18V34H17ZM227 33H228V34H227ZM17 34H18V35H17ZM26 42H28V43H26ZM143 42H144V43H143Z"/><path fill="#001018" fill-opacity="0.125" d="M25 1H124V2H25ZM140 1H143V2H140ZM210 1H211V2H210ZM212 1H215V2H212ZM145 2H147V3H145ZM207 2H208V3H207ZM204 3H205V4H204ZM153 4H155V5H153ZM197 4H202V5H197ZM117 7H118V8H117ZM223 8H224V9H223ZM120 10H121V11H120ZM140 11H141V12H140Z"/><path fill="#081010" fill-opacity="0.125" d="M122 6H123V7H122Z"/><path fill="#081018" fill-opacity="0.125" d="M124 1H140V2H124ZM211 1H212V2H211ZM215 1H219V2H215Z"/><path fill="#000808" fill-opacity="0.188" d="M147 44H148V45H147Z"/><path fill="#000810" fill-opacity="0.188" d="M27 7H28V8H27ZM145 7H146V8H145ZM119 8H120V9H119ZM120 9H121V10H120ZM202 9H203V10H202ZM201 10H202V11H201ZM227 10H228V11H227ZM142 11H143V12H142ZM145 11H147V12H145ZM200 11H201V12H200ZM20 12H21V13H20ZM19 13H20V14H19ZM226 36H227V37H226ZM224 38H225V39H224ZM223 39H224V40H223ZM221 41H222V42H221ZM145 42H146V43H145ZM202 42H203V43H202ZM201 43H202V44H201ZM200 44H201V45H200ZM148 45H149V46H148Z"/><path fill="#001010" fill-opacity="0.188" d="M225 8H226V9H225ZM22 10H23V11H22ZM119 10H120V11H119ZM144 10H145V11H144ZM21 11H22V12H21ZM133 11H140V12H133ZM141 11H142V12H141ZM19 36H20V37H19ZM222 40H223V41H222ZM146 43H147V44H146ZM198 45H199V46H198Z"/><path fill="#001018" fill-opacity="0.188" d="M143 1H144V2H143ZM209 1H210V2H209ZM147 2H148V3H147ZM206 2H207V3H206ZM149 3H150V4H149ZM203 3H204V4H203ZM155 4H156V5H155ZM196 4H197V5H196ZM143 10H144V11H143ZM18 14H19V15H18ZM226 35H227V36H226ZM20 37H21V38H20ZM21 38H22V39H21Z"/><path fill="#081018" fill-opacity="0.188" d="M146 8H147V9H146ZM23 40H24V41H23Z"/><path fill="#000008" fill-opacity="0.251" d="M25 7H26V8H25Z"/><path fill="#000808" fill-opacity="0.251" d="M225 37H226V38H225Z"/><path fill="#000810" fill-opacity="0.251" d="M24 8H25V9H24ZM121 10H122V11H121Z"/><path fill="#001010" fill-opacity="0.251" d="M140 10H141V11H140ZM132 11H133V12H132ZM155 45H156V46H155Z"/><path fill="#001018" fill-opacity="0.251" d="M151 45H152V46H151Z"/><path fill="#000810" fill-opacity="1.000" d="M121 13H122V14H121ZM19 17H20V18H19ZM19 32H20V33H19ZM222 35H223V36H222ZM223 36H224V37H223ZM199 38H200V39H199ZM220 38H221V39H220ZM200 39H201V40H200ZM147 40H148V41H147ZM199 40H200V41H199ZM148 41H149V42H148ZM198 41H199V42H198ZM197 43H198V44H197Z"/><path fill="#001010" fill-opacity="1.000" d="M27 9H28V10H27ZM116 10H117V11H116ZM210 10H212V11H210ZM221 10H223V11H221ZM24 11H26V12H24ZM27 11H28V12H27ZM224 11H225V12H224ZM118 12H119V13H118ZM220 12H221V13H220ZM154 13H156V14H154ZM222 13H223V14H222ZM225 13H226V14H225ZM23 30H24V31H23ZM20 31H21V32H20ZM221 31H222V32H221ZM224 31H225V32H224ZM24 33H25V34H24ZM222 33H223V34H222ZM225 33H226V34H225ZM21 34H22V35H21ZM24 34H25V35H24ZM221 34H222V35H221ZM22 35H23V36H22ZM23 36H24V37H23ZM24 37H25V38H24ZM25 38H26V39H25ZM147 38H148V39H147ZM202 38H203V39H202ZM26 39H27V40H26ZM148 39H149V40H148ZM196 39H198V40H196ZM203 39H204V40H203ZM151 40H153V41H151ZM155 40H156V41H155ZM197 40H198V41H197ZM149 41H150V42H149ZM150 42H151V43H150ZM196 42H197V43H196ZM150 43H152V44H150Z"/><path fill="#001018" fill-opacity="1.000" d="M24 0H124V1H24ZM140 0H146V1H140ZM209 0H218V1H209ZM219 0H220V1H219ZM144 1H148V2H144ZM206 1H209V2H206ZM148 2H150V3H148ZM151 2H152V3H151ZM201 2H206V3H201ZM150 3H154V4H150ZM155 3H159V4H155ZM196 3H203V4H196ZM157 4H196V5H157ZM26 9H27V10H26ZM28 9H116V10H28ZM203 9H204V10H203ZM26 10H27V11H26ZM28 10H116V11H28ZM123 10H140V11H123ZM146 10H147V11H146ZM205 10H210V11H205ZM220 10H221V11H220ZM223 10H224V11H223ZM26 11H27V12H26ZM28 11H118V12H28ZM122 11H124V12H122ZM205 11H220V12H205ZM222 11H224V12H222ZM225 11H226V12H225ZM23 12H27V13H23ZM28 12H116V13H28ZM117 12H118V13H117ZM203 12H212V13H203ZM219 12H220V13H219ZM221 12H223V13H221ZM224 12H226V13H224ZM24 13H26V14H24ZM27 13H120V14H27ZM123 13H142V14H123ZM143 13H154V14H143ZM156 13H196V14H156ZM197 13H205V14H197ZM206 13H221V14H206ZM223 13H225V14H223ZM22 14H221V15H22ZM222 14H226V15H222ZM21 15H221V16H21ZM222 15H226V16H222ZM20 16H221V17H20ZM222 16H226V17H222ZM20 17H221V18H20ZM222 17H226V18H222ZM19 18H221V19H19ZM222 18H226V19H222ZM20 19H26V20H20ZM28 19H221V20H28ZM222 19H226V20H222ZM20 20H25V21H20ZM27 20H221V21H27ZM222 20H226V21H222ZM19 21H25V22H19ZM27 21H221V22H27ZM222 21H226V22H222ZM19 22H221V23H19ZM222 22H226V23H222ZM19 23H221V24H19ZM222 23H226V24H222ZM19 24H221V25H19ZM222 24H226V25H222ZM19 25H221V26H19ZM222 25H226V26H222ZM19 26H221V27H19ZM222 26H226V27H222ZM19 27H221V28H19ZM222 27H226V28H222ZM19 28H221V29H19ZM222 28H226V29H222ZM19 29H221V30H19ZM222 29H226V30H222ZM19 30H21V31H19ZM22 30H23V31H22ZM24 30H25V31H24ZM26 30H222V31H26ZM223 30H226V31H223ZM19 31H20V32H19ZM21 31H23V32H21ZM25 31H27V32H25ZM28 31H220V32H28ZM222 31H223V32H222ZM21 32H23V33H21ZM24 32H226V33H24ZM20 33H22V34H20ZM23 33H24V34H23ZM25 33H26V34H25ZM27 33H221V34H27ZM224 33H225V34H224ZM20 34H21V35H20ZM25 34H26V35H25ZM27 34H220V35H27ZM222 34H224V35H222ZM23 35H221V36H23ZM24 36H25V37H24ZM26 36H222V37H26ZM25 37H223V38H25ZM27 38H147V39H27ZM148 38H197V39H148ZM198 38H199V39H198ZM203 38H220V39H203ZM28 39H143V40H28ZM145 39H147V40H145ZM149 39H150V40H149ZM151 39H154V40H151ZM156 39H196V40H156ZM201 39H202V40H201ZM204 39H220V40H204ZM150 40H151V41H150ZM153 40H155V41H153ZM156 40H196V41H156ZM198 40H199V41H198ZM201 40H202V41H201ZM153 41H155V42H153ZM156 41H197V42H156ZM151 42H196V43H151ZM152 43H155V44H152ZM156 43H196V44H156ZM152 45H153V46H152Z"/><path fill="#001818" fill-opacity="1.000" d="M207 0H209V1H207ZM204 1H205V2H204ZM27 12H28V13H27ZM22 13H24V14H22ZM26 13H27V14H26ZM221 13H222V14H221ZM222 30H223V31H222ZM220 31H221V32H220ZM220 34H221V35H220ZM201 38H202V39H201ZM155 43H156V44H155Z"/><path fill="#001820" fill-opacity="1.000" d="M146 0H148V1H146ZM151 0H152V1H151ZM202 0H204V1H202ZM148 1H151V2H148ZM200 1H204V2H200ZM152 2H153V3H152ZM156 2H201V3H156ZM142 13H143V14H142Z"/><path fill="#002020" fill-opacity="1.000" d="M201 0H202V1H201Z"/><path fill="#081018" fill-opacity="1.000" d="M124 0H140V1H124ZM218 0H219V1H218ZM205 1H206V2H205ZM150 2H151V3H150ZM154 3H155V4H154ZM159 3H196V4H159ZM156 4H157V5H156ZM24 7H25V8H24ZM26 7H27V8H26ZM120 7H121V8H120ZM141 7H142V8H141ZM20 8H21V9H20ZM118 8H119V9H118ZM226 8H227V9H226ZM23 9H24V10H23ZM227 9H228V10H227ZM141 10H142V11H141ZM145 10H146V11H145ZM204 10H205V11H204ZM212 10H220V11H212ZM224 10H225V11H224ZM124 11H132V12H124ZM204 11H205V12H204ZM212 12H219V13H212ZM196 13H197V14H196ZM205 13H206V14H205ZM221 14H222V15H221ZM221 15H222V16H221ZM19 16H20V17H19ZM221 16H222V17H221ZM221 17H222V18H221ZM221 18H222V19H221ZM26 19H28V20H26ZM221 19H222V20H221ZM19 20H20V21H19ZM25 20H27V21H25ZM221 20H222V21H221ZM25 21H27V22H25ZM221 21H222V22H221ZM221 22H222V23H221ZM221 23H222V24H221ZM221 24H222V25H221ZM221 25H222V26H221ZM221 26H222V27H221ZM221 27H222V28H221ZM221 28H222V29H221ZM221 29H222V30H221ZM25 30H26V31H25ZM24 31H25V32H24ZM27 31H28V32H27ZM20 32H21V33H20ZM23 32H24V33H23ZM19 33H20V34H19ZM22 33H23V34H22ZM223 33H224V34H223ZM22 34H24V35H22ZM26 34H27V35H26ZM224 34H225V35H224ZM18 35H19V36H18ZM226 37H227V38H226ZM24 38H25V39H24ZM22 39H23V40H22ZM154 39H156V40H154ZM149 40H150V41H149ZM21 41H22V42H21ZM24 41H25V42H24ZM155 41H156V42H155ZM197 41H198V42H197ZM199 41H200V42H199ZM149 42H150V43H149ZM197 42H198V43H197ZM200 43H201V44H200ZM199 44H200V45H199ZM226 44H227V45H226ZM149 45H151V46H149ZM156 45H198V46H156Z"/><path fill="#081818" fill-opacity="1.000" d="M206 0H207V1H206ZM122 7H140V8H122ZM142 7H143V8H142ZM144 7H145V8H144ZM117 10H118V11H117ZM120 11H121V12H120ZM201 11H202V12H201ZM220 11H222V12H220ZM223 12H224V13H223ZM21 30H22V31H21ZM21 35H22V36H21ZM223 35H224V36H223ZM22 36H23V37H22ZM25 36H26V37H25ZM225 36H226V37H225ZM23 37H24V38H23ZM26 38H27V39H26ZM27 39H28V40H27ZM143 39H145V40H143ZM150 39H151V40H150ZM198 39H199V40H198ZM148 40H149V41H148ZM200 40H201V41H200ZM150 41H151V42H150ZM152 41H153V42H152ZM198 42H199V43H198ZM154 45H155V46H154Z"/><path fill="#081820" fill-opacity="1.000" d="M148 0H151V1H148ZM204 0H206V1H204ZM151 1H156V2H151ZM196 1H200V2H196ZM153 2H156V3H153ZM121 7H122V8H121ZM116 9H117V10H116ZM25 10H26V11H25ZM27 10H28V11H27ZM142 10H143V11H142ZM116 12H117V13H116ZM21 13H22V14H21ZM120 13H121V14H120ZM122 13H123V14H122ZM21 14H22V15H21ZM20 15H21V16H20ZM19 19H20V20H19ZM23 31H24V32H23ZM223 31H224V32H223ZM225 31H226V32H225ZM26 33H27V34H26ZM221 33H222V34H221ZM221 35H222V36H221ZM224 37H225V38H224ZM197 38H198V39H197ZM200 38H201V39H200ZM25 39H26V40H25ZM147 39H148V40H147ZM202 39H203V40H202ZM146 40H147V41H146ZM196 40H197V41H196ZM151 41H152V42H151ZM200 41H201V42H200ZM199 42H200V43H199ZM196 43H197V44H196ZM198 43H199V44H198ZM153 45H154V46H153Z"/><path fill="#082020" fill-opacity="1.000" d="M152 0H155V1H152ZM199 0H201V1H199ZM156 1H196V2H156Z"/><path fill="#082028" fill-opacity="1.000" d="M155 0H199V1H155Z"/><path fill="#101818" fill-opacity="1.000" d="M140 7H141V8H140Z"/><path fill="#101820" fill-opacity="1.000" d="M143 7H144V8H143ZM118 9H119V10H118ZM225 10H226V11H225ZM225 34H226V35H225ZM224 35H225V36H224ZM199 39H200V40H199ZM222 39H223V40H222ZM143 40H144V41H143ZM202 40H203V41H202ZM221 40H222V41H221ZM146 42H147V43H146ZM201 42H202V43H201ZM147 43H148V44H147ZM148 44H149V45H148Z"/><path fill="#102020" fill-opacity="1.000" d="M25 9H26V10H25ZM122 10H123V11H122ZM202 10H203V11H202ZM118 11H119V12H118ZM121 11H122V12H121ZM202 11H203V12H202ZM20 14H21V15H20ZM222 36H223V37H222ZM223 38H224V39H223ZM220 39H221V40H220ZM26 40H27V41H26ZM28 40H140V41H28ZM144 40H146V41H144ZM204 40H220V41H204ZM220 41H221V42H220ZM149 43H150V44H149Z"/><path fill="#102028" fill-opacity="1.000" d="M120 8H121V9H120ZM23 11H24V12H23ZM22 12H23V13H22ZM221 38H222V39H221ZM27 40H28V41H27ZM140 40H141V41H140ZM142 40H143V41H142ZM203 40H204V41H203ZM27 41H28V42H27ZM143 41H144V42H143ZM147 41H148V42H147ZM203 41H204V42H203ZM148 42H149V43H148Z"/><path fill="#182028" fill-opacity="1.000" d="M145 8H146V9H145ZM146 9H147V10H146ZM24 10H25V11H24ZM203 11H204V12H203ZM19 15H20V16H19ZM20 35H21V36H20ZM21 36H22V37H21ZM141 40H142V41H141ZM25 41H27V42H25ZM28 41H141V42H28ZM142 41H143V42H142ZM144 41H145V42H144ZM204 41H220V42H204Z"/><path fill="#182828" fill-opacity="1.000" d="M202 12H203V13H202ZM19 35H20V36H19ZM141 41H142V42H141Z"/><path fill="#182830" fill-opacity="1.000" d="M116 8H118V9H116ZM117 9H118V10H117ZM119 12H121V13H119ZM18 15H19V16H18ZM18 34H19V35H18ZM21 37H23V38H21ZM22 38H23V39H22ZM23 39H25V40H23ZM221 39H222V40H221ZM25 40H26V41H25ZM149 44H150V45H149ZM153 44H154V45H153ZM196 44H197V45H196Z"/><path fill="#183030" fill-opacity="1.000" d="M154 44H155V45H154ZM188 44H192V45H188Z"/><path fill="#202830" fill-opacity="1.000" d="M19 34H20V35H19ZM20 36H21V37H20ZM23 38H24V39H23ZM24 40H25V41H24ZM145 41H147V42H145ZM202 41H203V42H202ZM156 44H188V45H156ZM192 44H196V45H192Z"/><path fill="#203030" fill-opacity="1.000" d="M25 8H26V9H25ZM23 10H24V11H23ZM119 11H120V12H119ZM123 12H132V13H123ZM142 12H143V13H142ZM196 12H197V13H196ZM226 32H227V33H226ZM18 33H19V34H18ZM222 38H223V39H222ZM220 40H221V41H220ZM147 42H148V43H147ZM152 44H153V45H152Z"/><path fill="#203038" fill-opacity="1.000" d="M29 8H30V9H29ZM31 8H32V9H31ZM33 8H34V9H33ZM35 8H36V9H35ZM37 8H38V9H37ZM39 8H40V9H39ZM41 8H42V9H41ZM43 8H44V9H43ZM45 8H46V9H45ZM47 8H48V9H47ZM49 8H50V9H49ZM51 8H52V9H51ZM53 8H54V9H53ZM55 8H56V9H55ZM57 8H58V9H57ZM59 8H60V9H59ZM61 8H62V9H61ZM63 8H64V9H63ZM65 8H66V9H65ZM67 8H68V9H67ZM69 8H70V9H69ZM71 8H72V9H71ZM73 8H74V9H73ZM75 8H76V9H75ZM77 8H78V9H77ZM79 8H80V9H79ZM81 8H82V9H81ZM83 8H84V9H83ZM85 8H86V9H85ZM87 8H88V9H87ZM89 8H90V9H89ZM91 8H92V9H91ZM93 8H94V9H93ZM95 8H96V9H95ZM97 8H98V9H97ZM99 8H100V9H99ZM101 8H102V9H101ZM103 8H104V9H103ZM105 8H106V9H105ZM107 8H108V9H107ZM109 8H110V9H109ZM111 8H112V9H111ZM113 8H114V9H113ZM115 8H116V9H115ZM121 9H123V10H121ZM212 9H220V10H212ZM121 12H123V13H121ZM132 12H142V13H132ZM143 12H144V13H143ZM146 12H188V13H146ZM193 12H194V13H193ZM195 12H196V13H195ZM197 12H200V13H197ZM19 14H20V15H19ZM18 19H19V20H18ZM18 20H19V21H18ZM18 29H19V30H18ZM18 30H19V31H18ZM201 41H202V42H201ZM148 43H149V44H148ZM150 44H152V45H150ZM155 44H156V45H155Z"/><path fill="#203838" fill-opacity="1.000" d="M124 8H139V9H124ZM201 12H202V13H201Z"/><path fill="#203840" fill-opacity="1.000" d="M133 9H134V10H133ZM135 9H136V10H135ZM137 9H138V10H137Z"/><path fill="#283038" fill-opacity="1.000" d="M26 8H27V9H26ZM28 8H29V9H28ZM30 8H31V9H30ZM32 8H33V9H32ZM34 8H35V9H34ZM36 8H37V9H36ZM38 8H39V9H38ZM40 8H41V9H40ZM42 8H43V9H42ZM44 8H45V9H44ZM46 8H47V9H46ZM48 8H49V9H48ZM50 8H51V9H50ZM52 8H53V9H52ZM54 8H55V9H54ZM56 8H57V9H56ZM58 8H59V9H58ZM60 8H61V9H60ZM62 8H63V9H62ZM64 8H65V9H64ZM66 8H67V9H66ZM68 8H69V9H68ZM70 8H71V9H70ZM72 8H73V9H72ZM74 8H75V9H74ZM76 8H77V9H76ZM78 8H79V9H78ZM80 8H81V9H80ZM82 8H83V9H82ZM84 8H85V9H84ZM86 8H87V9H86ZM88 8H89V9H88ZM90 8H91V9H90ZM92 8H93V9H92ZM94 8H95V9H94ZM96 8H97V9H96ZM98 8H99V9H98ZM100 8H101V9H100ZM102 8H103V9H102ZM104 8H105V9H104ZM106 8H107V9H106ZM108 8H109V9H108ZM110 8H111V9H110ZM112 8H113V9H112ZM114 8H115V9H114ZM141 8H143V9H141ZM144 8H145V9H144ZM24 9H25V10H24ZM209 9H212V10H209ZM221 9H223V10H221ZM224 9H226V10H224ZM203 10H204V11H203ZM226 10H227V11H226ZM22 11H23V12H22ZM226 11H227V12H226ZM188 12H193V13H188ZM194 12H195V13H194ZM226 13H227V14H226ZM226 14H227V15H226ZM226 15H227V16H226ZM226 16H227V17H226ZM226 17H227V18H226ZM18 18H19V19H18ZM226 18H227V19H226ZM226 19H227V20H226ZM226 20H227V21H226ZM226 21H227V22H226ZM18 22H19V23H18ZM226 22H227V23H226ZM18 23H19V24H18ZM226 23H227V24H226ZM18 24H19V25H18ZM226 24H227V25H226ZM18 25H19V26H18ZM226 25H227V26H226ZM18 26H19V27H18ZM226 26H227V27H226ZM18 27H19V28H18ZM226 27H227V28H226ZM18 28H19V29H18ZM226 28H227V29H226ZM226 29H227V30H226ZM226 30H227V31H226ZM226 31H227V32H226ZM18 32H19V33H18ZM225 35H226V36H225ZM200 42H201V43H200ZM199 43H200V44H199ZM197 44H199V45H197Z"/><path fill="#283838" fill-opacity="1.000" d="M27 8H28V9H27ZM122 8H123V9H122ZM139 8H140V9H139ZM140 9H141V10H140ZM207 9H209V10H207ZM220 9H221V10H220ZM200 12H201V13H200ZM20 13H21V14H20ZM226 34H227V35H226Z"/><path fill="#283840" fill-opacity="1.000" d="M121 8H122V9H121ZM123 8H124V9H123ZM140 8H141V9H140ZM143 8H144V9H143ZM123 9H133V10H123ZM134 9H135V10H134ZM136 9H137V10H136ZM138 9H140V10H138ZM141 9H144V10H141ZM145 9H146V10H145ZM204 9H207V10H204ZM223 9H224V10H223ZM118 10H119V11H118ZM21 12H22V13H21ZM144 12H146V13H144ZM226 12H227V13H226ZM18 16H19V17H18ZM18 21H19V22H18ZM18 31H19V32H18ZM226 33H227V34H226ZM224 36H225V37H224Z"/><path fill="#303840" fill-opacity="1.000" d="M144 9H145V10H144ZM226 9H227V10H226ZM18 17H19V18H18ZM223 37H224V38H223Z"/></svg>