<svg xmlns="http://www.w3.org/2000/svg" width="214" height="54" viewBox="0 0 214 54" shape-rendering="geometricPrecision"><path fill="#001010" fill-opacity="0.063" d="M130 0H131V1H130ZM137 1H138V2H137Z"/><path fill="#001018" fill-opacity="0.063" d="M184 1H185V2H184ZM201 1H202V2H201ZM139 2H140V3H139ZM204 2H205V3H204ZM10 3H11V4H10ZM173 3H174V4H173ZM175 3H176V4H175ZM206 3H207V4H206ZM210 7H211V8H210ZM3 10H4V11H3ZM211 10H212V11H211ZM1 14H2V15H1ZM212 14H213V15H212ZM212 15H213V16H212ZM0 19H1V20H0ZM212 25H213V26H212ZM212 27H213V28H212ZM211 31H212V32H211ZM1 32H2V33H1ZM210 35H211V36H210ZM4 37H5V38H4ZM208 38H209V39H208ZM5 39H6V40H5ZM6 40H7V41H6ZM205 41H206V42H205ZM202 43H203V44H202ZM13 45H14V46H13ZM18 46H19V47H18ZM197 46H198V47H197ZM185 47H186V48H185ZM130 48H131V49H130ZM181 48H182V49H181ZM135 49H136V50H135ZM176 49H177V50H176Z"/><path fill="#081018" fill-opacity="0.063" d="M19 0H20V1H19ZM91 0H92V1H91ZM94 0H95V1H94ZM14 1H15V2H14ZM180 2H181V3H180ZM2 12H3V13H2ZM0 26H1V27H0ZM3 35H4V36H3ZM10 43H11V44H10ZM12 44H13V45H12ZM200 44H201V45H200ZM16 46H17V47H16ZM20 46H21V47H20ZM126 47H127V48H126Z"/><path fill="#001010" fill-opacity="0.125" d="M128 0H130V1H128ZM136 1H137V2H136Z"/><path fill="#001018" fill-opacity="0.125" d="M20 0H28V1H20ZM97 0H100V1H97ZM106 0H107V1H106ZM185 1H186V2H185ZM199 1H200V2H199ZM11 3H12V4H11ZM141 3H173V4H141ZM176 3H177V4H176ZM210 8H211V9H210ZM211 11H212V12H211ZM211 12H212V13H211ZM1 15H2V16H1ZM1 17H2V18H1ZM0 20H1V21H0ZM0 21H1V22H0ZM0 22H1V23H0ZM211 22H212V23H211ZM0 23H1V24H0ZM0 24H1V25H0ZM212 26H213V27H212ZM1 30H2V31H1ZM1 31H2V32H1ZM210 33H211V34H210ZM210 34H211V35H210ZM14 45H15V46H14ZM17 46H18V47H17ZM23 46H124V47H23ZM188 46H197V47H188ZM127 47H129V48H127ZM183 47H185V48H183ZM131 48H134V49H131ZM179 48H181V49H179ZM136 49H140V50H136ZM155 49H176V50H155Z"/><path fill="#081010" fill-opacity="0.125" d="M135 1H136V2H135Z"/><path fill="#081018" fill-opacity="0.125" d="M28 0H91V1H28ZM95 0H97V1H95ZM100 0H106V1H100ZM125 0H127V1H125ZM15 1H18V2H15ZM132 1H135V2H132ZM186 1H199V2H186ZM200 1H201V2H200ZM181 2H183V3H181ZM203 2H204V3H203ZM177 3H179V4H177ZM1 16H2V17H1ZM211 17H212V18H211ZM211 18H212V19H211ZM211 19H212V20H211ZM211 20H212V21H211ZM211 21H212V22H211ZM211 23H212V24H211ZM0 25H1V26H0ZM1 29H2V30H1ZM211 29H212V30H211ZM211 30H212V31H211ZM11 43H12V44H11ZM21 46H23V47H21ZM124 46H125V47H124ZM187 46H188V47H187ZM178 48H179V49H178ZM140 49H155V50H140Z"/><path fill="#081020" fill-opacity="0.125" d="M1 28H2V29H1Z"/><path fill="#081818" fill-opacity="0.125" d="M127 0H128V1H127Z"/><path fill="#001018" fill-opacity="0.188" d="M107 0H108V1H107ZM13 2H14V3H13ZM140 3H141V4H140ZM205 3H206V4H205ZM207 4H208V5H207ZM208 5H209V6H208ZM7 6H8V7H7ZM209 6H210V7H209ZM6 7H7V8H6ZM5 8H6V9H5ZM4 9H5V10H4ZM210 9H211V10H210ZM210 32H211V33H210ZM209 36H210V37H209ZM208 37H209V38H208ZM207 39H208V40H207ZM206 40H207V41H206ZM9 42H10V43H9ZM203 42H204V43H203ZM12 43H13V44H12ZM198 45H199V46H198ZM134 48H135V49H134ZM177 48H178V49H177Z"/><path fill="#001020" fill-opacity="0.188" d="M138 2H139V3H138Z"/><path fill="#001818" fill-opacity="0.188" d="M131 1H132V2H131ZM12 3H13V4H12ZM7 40H8V41H7ZM8 41H9V42H8ZM204 41H205V42H204ZM129 47H130V48H129Z"/><path fill="#081018" fill-opacity="0.188" d="M124 0H125V1H124ZM18 1H19V2H18ZM92 1H94V2H92ZM183 2H184V3H183ZM202 2H203V3H202ZM179 3H180V4H179ZM9 4H10V5H9ZM8 5H9V6H8ZM3 11H4V12H3ZM2 13H3V14H2ZM211 13H212V14H211ZM211 16H212V17H211ZM211 24H212V25H211ZM211 28H212V29H211ZM2 33H3V34H2ZM3 34H4V35H3ZM4 36H5V37H4ZM5 38H6V39H5ZM201 43H202V44H201ZM199 44H200V45H199ZM15 45H16V46H15ZM125 46H126V47H125ZM186 46H187V47H186ZM182 47H183V48H182Z"/><path fill="#081020" fill-opacity="0.188" d="M1 18H2V19H1ZM1 27H2V28H1Z"/><path fill="#081018" fill-opacity="0.251" d="M174 4H175V5H174ZM19 45H20V46H19Z"/><path fill="#001020" fill-opacity="1.000" d="M135 2H138V3H135ZM138 3H140V4H138ZM125 45H126V46H125Z"/><path fill="#001818" fill-opacity="1.000" d="M21 1H28V2H21ZM96 1H100V2H96ZM128 1H131V2H128ZM13 3H14V4H13ZM7 7H8V8H7ZM207 38H208V39H207ZM6 39H7V40H6ZM205 40H206V41H205ZM9 41H10V42H9ZM10 42H11V43H10ZM130 47H132V48H130Z"/><path fill="#001820" fill-opacity="1.000" d="M108 0H123V1H108ZM17 2H18V3H17ZM131 2H135V3H131ZM188 2H189V3H188ZM199 2H200V3H199ZM201 2H202V3H201ZM135 3H138V4H135ZM182 3H183V4H182ZM11 4H12V5H11ZM139 4H140V5H139ZM206 4H207V5H206ZM207 5H208V6H207ZM10 6H11V7H10ZM207 6H209V7H207ZM208 7H210V8H208ZM209 8H210V9H209ZM5 9H6V10H5ZM4 10H5V11H4ZM210 10H211V11H210ZM210 11H211V12H210ZM4 12H5V13H4ZM210 12H211V13H210ZM4 14H5V15H4ZM1 19H2V20H1ZM1 20H2V21H1ZM1 21H2V22H1ZM1 22H2V23H1ZM1 23H2V24H1ZM1 24H2V25H1ZM209 31H211V32H209ZM209 33H210V34H209ZM209 34H210V35H209ZM208 35H210V36H208ZM207 36H209V37H207ZM6 37H7V38H6ZM207 37H208V38H207ZM206 38H207V39H206ZM206 39H207V40H206ZM8 40H9V41H8ZM204 40H205V41H204ZM203 41H204V42H203ZM13 43H14V44H13ZM16 44H18V45H16ZM29 44H109V45H29ZM192 44H198V45H192ZM26 45H124V46H26ZM185 45H187V46H185ZM192 45H196V46H192ZM133 47H134V48H133ZM181 47H182V48H181ZM135 48H137V49H135ZM172 48H174V49H172ZM176 48H177V49H176Z"/><path fill="#002020" fill-opacity="1.000" d="M19 2H28V3H19ZM94 2H103V3H94ZM105 2H107V3H105ZM125 2H131V3H125ZM15 3H20V4H15ZM21 3H22V4H21ZM23 3H25V4H23ZM94 3H98V4H94ZM99 3H100V4H99ZM198 3H199V4H198ZM12 4H14V5H12ZM183 4H184V5H183ZM139 6H140V7H139ZM172 6H175V7H172ZM207 7H208V8H207ZM7 10H8V11H7ZM4 16H5V17H4ZM4 19H5V20H4ZM4 21H5V22H4ZM208 33H209V34H208ZM208 34H209V35H208ZM207 35H208V36H207ZM202 40H204V41H202ZM12 41H13V42H12ZM201 41H203V42H201ZM12 42H13V43H12ZM15 42H16V43H15ZM15 43H18V44H15ZM124 43H125V44H124ZM186 43H187V44H186ZM25 44H29V45H25ZM109 44H124V45H109Z"/><path fill="#002028" fill-opacity="1.000" d="M20 3H21V4H20ZM22 3H23V4H22ZM98 3H99V4H98ZM128 3H133V4H128ZM184 4H186V5H184ZM200 41H201V42H200ZM19 42H20V43H19ZM127 43H128V44H127ZM124 44H126V45H124Z"/><path fill="#002828" fill-opacity="1.000" d="M127 3H128V4H127ZM17 4H18V5H17ZM186 4H187V5H186ZM173 7H174V8H173ZM5 21H6V22H5ZM201 40H202V41H201ZM16 41H17V42H16ZM16 42H17V43H16ZM124 42H125V43H124ZM126 43H127V44H126ZM134 44H135V45H134ZM137 44H138V45H137ZM174 44H175V45H174ZM177 44H178V45H177Z"/><path fill="#003030" fill-opacity="1.000" d="M10 11H11V12H10ZM19 41H20V42H19Z"/><path fill="#003038" fill-opacity="1.000" d="M16 7H17V8H16ZM108 7H109V8H108ZM180 41H181V42H180ZM134 42H135V43H134Z"/><path fill="#003040" fill-opacity="1.000" d="M8 19H9V20H8Z"/><path fill="#003838" fill-opacity="1.000" d="M7 30H8V31H7ZM7 31H8V32H7ZM11 35H12V36H11Z"/><path fill="#003840" fill-opacity="1.000" d="M18 7H19V8H18ZM100 7H102V8H100ZM110 7H111V8H110ZM128 7H130V8H128ZM13 9H14V10H13ZM10 34H11V35H10ZM200 36H201V37H200ZM130 39H131V40H130ZM131 40H132V41H131ZM179 41H180V42H179ZM138 42H139V43H138ZM172 42H173V43H172ZM174 42H175V43H174Z"/><path fill="#004040" fill-opacity="1.000" d="M111 7H112V8H111ZM106 8H107V9H106ZM107 9H108V10H107ZM204 22H205V23H204ZM32 23H33V24H32ZM204 23H205V24H204ZM204 24H205V25H204ZM204 25H205V26H204ZM204 26H205V27H204ZM204 27H205V28H204ZM204 28H205V29H204ZM204 29H205V30H204ZM8 31H9V32H8ZM8 32H9V33H8ZM9 33H10V34H9ZM13 37H14V38H13ZM182 39H183V40H182ZM181 40H182V41H181Z"/><path fill="#004048" fill-opacity="1.000" d="M113 7H124V8H113ZM125 7H128V8H125ZM132 8H133V9H132ZM12 10H13V11H12ZM108 10H109V11H108ZM8 30H9V31H8ZM203 33H204V34H203ZM12 36H13V37H12ZM199 37H200V38H199ZM132 40H133V41H132Z"/><path fill="#004848" fill-opacity="1.000" d="M131 8H132V9H131ZM132 9H133V10H132ZM181 10H182V11H181Z"/><path fill="#004850" fill-opacity="1.000" d="M33 23H34V24H33Z"/><path fill="#005050" fill-opacity="1.000" d="M108 9H109V10H108ZM131 39H132V40H131Z"/><path fill="#005058" fill-opacity="1.000" d="M31 22H32V23H31ZM34 25H35V26H34Z"/><path fill="#006060" fill-opacity="1.000" d="M30 21H31V22H30Z"/><path fill="#081020" fill-opacity="1.000" d="M2 14H3V15H2ZM1 25H2V26H1ZM1 26H2V27H1ZM18 45H19V46H18ZM188 45H191V46H188Z"/><path fill="#081818" fill-opacity="1.000" d="M19 1H21V2H19ZM28 1H92V2H28ZM94 1H96V2H94ZM100 1H105V2H100ZM124 1H128V2H124ZM14 2H16V3H14ZM141 4H172V5H141ZM176 4H178V5H176ZM2 32H3V33H2ZM3 33H4V34H3ZM6 38H7V39H6ZM198 44H199V45H198ZM126 46H128V47H126Z"/><path fill="#081820" fill-opacity="1.000" d="M123 0H124V1H123ZM105 1H124V2H105ZM16 2H17V3H16ZM18 2H19V3H18ZM28 2H94V3H28ZM184 2H188V3H184ZM189 2H199V3H189ZM200 2H201V3H200ZM14 3H15V4H14ZM134 3H135V4H134ZM180 3H182V4H180ZM183 3H186V4H183ZM200 3H205V4H200ZM10 4H11V5H10ZM136 4H139V5H136ZM140 4H141V5H140ZM172 4H174V5H172ZM175 4H176V5H175ZM178 4H180V5H178ZM204 4H206V5H204ZM9 5H12V6H9ZM139 5H177V6H139ZM206 5H207V6H206ZM8 6H10V7H8ZM8 7H9V8H8ZM6 8H8V9H6ZM209 9H210V10H209ZM5 10H6V11H5ZM209 10H210V11H209ZM4 11H6V12H4ZM3 12H4V13H3ZM3 13H5V14H3ZM210 13H211V14H210ZM3 14H4V15H3ZM210 14H212V15H210ZM2 15H4V16H2ZM210 15H212V16H210ZM2 16H4V17H2ZM210 16H211V17H210ZM2 17H4V18H2ZM210 17H211V18H210ZM2 18H3V19H2ZM210 18H211V19H210ZM2 19H3V20H2ZM210 19H211V20H210ZM2 20H3V21H2ZM210 20H211V21H210ZM2 21H3V22H2ZM210 21H211V22H210ZM2 22H3V23H2ZM210 22H211V23H210ZM2 23H3V24H2ZM210 23H211V24H210ZM2 24H3V25H2ZM210 24H211V25H210ZM2 25H3V26H2ZM210 25H212V26H210ZM2 26H3V27H2ZM210 26H212V27H210ZM2 27H3V28H2ZM210 27H212V28H210ZM2 28H3V29H2ZM209 28H211V29H209ZM2 29H4V30H2ZM209 29H211V30H209ZM2 30H4V31H2ZM210 30H211V31H210ZM2 31H4V32H2ZM3 32H4V33H3ZM209 32H210V33H209ZM4 33H5V34H4ZM4 34H5V35H4ZM5 35H6V36H5ZM5 36H6V37H5ZM7 36H8V37H7ZM7 38H8V39H7ZM7 39H8V40H7ZM205 39H206V40H205ZM10 41H11V42H10ZM11 42H12V43H11ZM198 42H200V43H198ZM202 42H203V43H202ZM200 43H201V44H200ZM13 44H16V45H13ZM18 44H25V45H18ZM188 44H192V45H188ZM16 45H18V46H16ZM20 45H26V46H20ZM124 45H125V46H124ZM126 45H129V46H126ZM181 45H183V46H181ZM184 45H185V46H184ZM187 45H188V46H187ZM191 45H192V46H191ZM196 45H198V46H196ZM128 46H132V47H128ZM180 46H186V47H180ZM132 47H133V48H132ZM134 47H139V48H134ZM175 47H181V48H175ZM137 48H172V49H137ZM174 48H176V49H174Z"/><path fill="#081828" fill-opacity="1.000" d="M133 3H134V4H133Z"/><path fill="#082020" fill-opacity="1.000" d="M103 2H105V3H103ZM107 2H125V3H107ZM25 3H94V4H25ZM105 3H107V4H105ZM186 3H198V4H186ZM199 3H200V4H199ZM14 4H15V5H14ZM135 4H136V5H135ZM180 4H183V5H180ZM203 4H204V5H203ZM136 5H139V6H136ZM177 5H180V6H177ZM204 5H206V6H204ZM138 6H139V7H138ZM140 6H172V7H140ZM176 6H177V7H176ZM206 6H207V7H206ZM208 8H209V9H208ZM7 9H8V10H7ZM208 9H209V10H208ZM209 11H210V12H209ZM5 12H6V13H5ZM209 12H210V13H209ZM209 13H210V14H209ZM209 14H210V15H209ZM209 15H210V16H209ZM209 16H210V17H209ZM209 17H210V18H209ZM3 18H5V19H3ZM209 18H210V19H209ZM3 19H4V20H3ZM209 19H210V20H209ZM3 20H4V21H3ZM209 20H210V21H209ZM3 21H4V22H3ZM209 21H210V22H209ZM3 22H4V23H3ZM209 22H210V23H209ZM3 23H4V24H3ZM209 23H210V24H209ZM3 24H4V25H3ZM209 24H210V25H209ZM3 25H4V26H3ZM209 25H210V26H209ZM3 26H4V27H3ZM209 26H210V27H209ZM3 27H4V28H3ZM209 27H210V28H209ZM3 28H4V29H3ZM209 30H210V31H209ZM4 31H5V32H4ZM208 32H209V33H208ZM206 36H207V37H206ZM7 37H8V38H7ZM206 37H207V38H206ZM8 38H9V39H8ZM205 38H206V39H205ZM8 39H10V40H8ZM204 39H205V40H204ZM9 40H12V41H9ZM11 41H12V42H11ZM13 41H14V42H13ZM13 42H15V43H13ZM197 42H198V43H197ZM200 42H202V43H200ZM14 43H15V44H14ZM26 43H27V44H26ZM195 43H197V44H195ZM187 44H188V45H187ZM131 45H132V46H131ZM175 45H176V46H175ZM178 45H179V46H178ZM132 46H136V47H132ZM179 46H180V47H179ZM139 47H175V48H139Z"/><path fill="#082028" fill-opacity="1.000" d="M100 3H105V4H100ZM107 3H108V4H107ZM15 4H16V5H15ZM132 4H135V5H132ZM187 4H203V5H187ZM12 5H14V6H12ZM135 5H136V6H135ZM180 5H183V6H180ZM203 5H204V6H203ZM11 6H12V7H11ZM13 6H14V7H13ZM137 6H138V7H137ZM175 6H176V7H175ZM177 6H179V7H177ZM205 6H206V7H205ZM9 7H11V8H9ZM206 7H207V8H206ZM8 8H9V9H8ZM207 8H208V9H207ZM6 9H7V10H6ZM8 9H9V10H8ZM207 9H208V10H207ZM6 10H7V11H6ZM208 10H209V11H208ZM6 11H7V12H6ZM208 11H209V12H208ZM6 12H7V13H6ZM208 12H209V13H208ZM5 13H6V14H5ZM208 13H209V14H208ZM208 14H209V15H208ZM208 15H209V16H208ZM208 16H209V17H208ZM4 17H5V18H4ZM208 17H209V18H208ZM208 18H209V19H208ZM208 19H209V20H208ZM208 20H209V21H208ZM208 21H209V22H208ZM208 22H209V23H208ZM208 23H209V24H208ZM208 24H209V25H208ZM208 25H209V26H208ZM208 26H209V27H208ZM208 27H209V28H208ZM208 28H209V29H208ZM4 29H5V30H4ZM208 29H209V30H208ZM5 30H6V31H5ZM208 30H209V31H208ZM208 31H209V32H208ZM5 32H6V33H5ZM207 32H208V33H207ZM207 33H208V34H207ZM6 34H7V35H6ZM207 34H208V35H207ZM206 35H207V36H206ZM8 36H9V37H8ZM9 37H10V38H9ZM205 37H206V38H205ZM9 38H10V39H9ZM203 38H205V39H203ZM10 39H11V40H10ZM203 39H204V40H203ZM198 41H200V42H198ZM195 42H197V43H195ZM18 43H26V44H18ZM27 43H124V44H27ZM185 43H186V44H185ZM188 43H195V44H188ZM126 44H131V45H126ZM132 44H133V45H132ZM183 44H187V45H183ZM130 45H131V46H130ZM132 45H134V46H132ZM176 45H177V46H176ZM180 45H181V46H180ZM183 45H184V46H183ZM136 46H179V47H136Z"/><path fill="#082828" fill-opacity="1.000" d="M121 3H122V4H121ZM123 3H127V4H123ZM16 4H17V5H16ZM18 4H20V5H18ZM21 4H22V5H21ZM23 4H25V5H23ZM28 4H98V5H28ZM99 4H100V5H99ZM103 4H104V5H103ZM130 4H132V5H130ZM14 5H16V6H14ZM132 5H133V6H132ZM183 5H185V6H183ZM201 5H202V6H201ZM179 6H181V7H179ZM182 6H183V7H182ZM204 6H205V7H204ZM138 7H173V8H138ZM174 7H178V8H174ZM205 7H206V8H205ZM9 8H11V9H9ZM206 8H207V9H206ZM207 10H208V11H207ZM7 11H8V12H7ZM4 15H6V16H4ZM5 16H6V17H5ZM4 22H5V23H4ZM4 23H5V24H4ZM4 24H5V25H4ZM4 25H5V26H4ZM4 26H5V27H4ZM4 27H5V28H4ZM4 28H5V29H4ZM206 34H207V35H206ZM205 36H206V37H205ZM14 41H16V42H14ZM17 42H19V43H17ZM20 42H28V43H20ZM116 42H122V43H116ZM185 42H187V43H185ZM188 42H195V43H188ZM182 43H184V44H182ZM187 43H188V44H187ZM179 44H181V45H179ZM134 45H139V46H134Z"/><path fill="#082830" fill-opacity="1.000" d="M20 4H21V5H20ZM22 4H23V5H22ZM98 4H99V5H98ZM100 4H103V5H100ZM104 4H105V5H104ZM129 4H130V5H129ZM16 5H17V6H16ZM185 5H192V6H185ZM195 5H196V6H195ZM198 5H201V6H198ZM184 6H185V7H184ZM203 6H204V7H203ZM204 7H205V8H204ZM146 8H147V9H146ZM206 9H207V10H206ZM8 10H9V11H8ZM207 11H208V12H207ZM207 12H208V13H207ZM6 13H7V14H6ZM207 13H208V14H207ZM7 14H8V15H7ZM207 14H208V15H207ZM207 15H208V16H207ZM207 16H208V17H207ZM6 17H7V18H6ZM207 17H208V18H207ZM207 18H208V19H207ZM207 19H208V20H207ZM207 20H208V21H207ZM207 21H208V22H207ZM207 22H208V23H207ZM207 23H208V24H207ZM207 24H208V25H207ZM207 25H208V26H207ZM207 26H208V27H207ZM207 27H208V28H207ZM207 28H208V29H207ZM207 29H208V30H207ZM207 30H208V31H207ZM6 31H7V32H6ZM207 31H208V32H207ZM206 32H207V33H206ZM7 33H8V34H7ZM206 33H207V34H206ZM205 35H206V36H205ZM10 36H11V37H10ZM204 36H205V37H204ZM202 39H203V40H202ZM200 40H201V41H200ZM28 42H29V43H28ZM123 42H124V43H123ZM125 43H126V44H125ZM184 43H185V44H184ZM140 45H172V46H140Z"/><path fill="#083028" fill-opacity="1.000" d="M125 41H126V42H125Z"/><path fill="#083030" fill-opacity="1.000" d="M110 4H116V5H110ZM117 4H118V5H117ZM119 4H129V5H119ZM17 5H21V6H17ZM91 5H104V6H91ZM128 5H131V6H128ZM196 5H198V6H196ZM102 6H103V7H102ZM185 6H186V7H185ZM187 6H196V7H187ZM197 6H202V7H197ZM183 7H184V8H183ZM11 8H12V9H11ZM141 8H146V9H141ZM147 8H175V9H147ZM9 9H10V10H9ZM206 10H207V11H206ZM9 11H10V12H9ZM206 11H207V12H206ZM7 12H8V13H7ZM9 12H10V13H9ZM7 13H8V14H7ZM6 14H7V15H6ZM5 17H6V18H5ZM5 18H7V19H5ZM5 19H6V20H5ZM5 20H7V21H5ZM5 22H6V23H5ZM5 23H6V24H5ZM5 24H6V25H5ZM5 25H6V26H5ZM5 26H6V27H5ZM5 27H7V28H5ZM5 28H6V29H5ZM5 29H6V30H5ZM206 30H207V31H206ZM206 31H207V32H206ZM205 34H206V35H205ZM9 35H10V36H9ZM11 37H12V38H11ZM202 37H203V38H202ZM16 40H18V41H16ZM125 40H126V41H125ZM196 40H197V41H196ZM17 41H19V42H17ZM20 41H28V42H20ZM129 41H130V42H129ZM187 41H188V42H187ZM189 41H194V42H189ZM125 42H129V43H125ZM131 42H132V43H131ZM176 43H177V44H176ZM179 43H180V44H179ZM135 44H136V45H135ZM139 44H171V45H139ZM172 44H173V45H172ZM139 45H140V46H139Z"/><path fill="#083038" fill-opacity="1.000" d="M109 5H125V6H109ZM17 6H18V7H17ZM19 6H20V7H19ZM100 6H101V7H100ZM111 6H112V7H111ZM113 6H114V7H113ZM196 6H197V7H196ZM107 7H108V8H107ZM133 7H134V8H133ZM185 7H188V8H185ZM203 7H204V8H203ZM12 8H13V9H12ZM182 8H183V9H182ZM203 8H204V9H203ZM11 9H12V10H11ZM140 9H172V10H140ZM8 13H9V14H8ZM7 15H8V16H7ZM206 17H207V18H206ZM206 18H207V19H206ZM206 19H207V20H206ZM206 20H207V21H206ZM206 21H207V22H206ZM206 22H207V23H206ZM206 23H207V24H206ZM206 24H207V25H206ZM206 25H207V26H206ZM206 26H207V27H206ZM206 27H207V28H206ZM206 28H207V29H206ZM206 29H207V30H206ZM6 30H7V31H6ZM7 32H8V33H7ZM203 34H204V35H203ZM201 37H202V38H201ZM200 38H201V39H200ZM198 39H200V40H198ZM133 42H134V43H133ZM135 43H139V44H135ZM175 43H176V44H175Z"/><path fill="#083838" fill-opacity="1.000" d="M131 7H133V8H131ZM189 7H194V8H189ZM197 7H198V8H197ZM200 7H201V8H200ZM180 9H181V10H180ZM7 20H8V21H7ZM7 22H8V23H7ZM7 23H8V24H7ZM7 24H8V25H7ZM7 25H8V26H7ZM7 26H8V27H7ZM7 27H8V28H7ZM7 28H8V29H7ZM7 29H8V30H7ZM204 33H205V34H204ZM199 38H200V39H199ZM127 39H128V40H127ZM18 40H19V41H18ZM20 40H22V41H20Z"/><path fill="#083840" fill-opacity="1.000" d="M115 6H120V7H115ZM121 6H123V7H121ZM17 7H18V8H17ZM20 7H100V8H20ZM103 7H105V8H103ZM188 7H189V8H188ZM195 7H197V8H195ZM198 7H200V8H198ZM14 8H15V9H14ZM134 8H135V9H134ZM183 8H184V9H183ZM185 8H186V9H185ZM190 8H195V9H190ZM12 9H13V10H12ZM181 9H182V10H181ZM11 10H12V11H11ZM143 10H144V11H143ZM145 10H146V11H145ZM147 10H148V11H147ZM204 10H205V11H204ZM9 13H10V14H9ZM8 16H9V17H8ZM8 18H9V19H8ZM8 21H9V22H8ZM204 32H205V33H204ZM8 33H9V34H8ZM9 34H10V35H9ZM201 35H202V36H201ZM200 37H201V38H200ZM18 39H23V40H18ZM29 39H30V40H29ZM31 39H32V40H31ZM33 39H34V40H33ZM35 39H36V40H35ZM37 39H38V40H37ZM39 39H40V40H39ZM41 39H42V40H41ZM43 39H44V40H43ZM45 39H46V40H45ZM47 39H48V40H47ZM49 39H50V40H49ZM51 39H52V40H51ZM53 39H54V40H53ZM55 39H56V40H55ZM57 39H58V40H57ZM59 39H60V40H59ZM61 39H62V40H61ZM63 39H64V40H63ZM65 39H66V40H65ZM67 39H68V40H67ZM69 39H70V40H69ZM71 39H72V40H71ZM73 39H74V40H73ZM75 39H76V40H75ZM77 39H78V40H77ZM79 39H80V40H79ZM81 39H82V40H81ZM83 39H84V40H83ZM85 39H86V40H85ZM87 39H88V40H87ZM89 39H90V40H89ZM91 39H92V40H91ZM93 39H94V40H93ZM95 39H96V40H95ZM97 39H98V40H97ZM99 39H100V40H99ZM101 39H102V40H101ZM103 39H104V40H103ZM105 39H106V40H105ZM107 39H108V40H107ZM109 39H110V40H109ZM111 39H112V40H111ZM113 39H114V40H113ZM115 39H116V40H115ZM117 39H118V40H117ZM119 39H120V40H119ZM121 39H122V40H121ZM185 39H186V40H185ZM182 40H183V41H182ZM135 42H136V43H135ZM177 42H179V43H177Z"/><path fill="#084040" fill-opacity="1.000" d="M19 7H20V8H19ZM130 7H131V8H130ZM133 8H134V9H133ZM188 8H190V9H188ZM195 8H199V9H195ZM200 8H201V9H200ZM134 9H135V10H134ZM11 11H12V12H11ZM204 11H205V12H204ZM204 17H205V18H204ZM204 18H205V19H204ZM204 19H205V20H204ZM204 20H205V21H204ZM204 21H205V22H204ZM204 30H205V31H204ZM204 31H205V32H204ZM12 37H13V38H12ZM128 39H129V40H128ZM130 40H131V41H130ZM132 41H133V42H132ZM140 42H172V43H140ZM175 42H176V43H175Z"/><path fill="#084048" fill-opacity="1.000" d="M102 7H103V8H102ZM109 7H110V8H109ZM112 7H113V8H112ZM187 8H188V9H187ZM199 8H200V9H199ZM133 9H134V10H133ZM179 10H181V11H179ZM204 12H205V13H204ZM204 13H205V14H204ZM204 14H205V15H204ZM204 15H205V16H204ZM204 16H205V17H204ZM8 22H9V23H8ZM8 23H9V24H8ZM8 24H9V25H8ZM8 25H9V26H8ZM8 26H9V27H8ZM8 27H9V28H8ZM8 28H9V29H8ZM8 29H9V30H8ZM202 34H203V35H202ZM133 41H134V42H133ZM139 42H140V43H139ZM173 42H174V43H173ZM176 42H177V43H176Z"/><path fill="#084848" fill-opacity="1.000" d="M107 8H108V9H107ZM182 9H183V10H182ZM129 39H130V40H129ZM183 39H184V40H183Z"/><path fill="#084850" fill-opacity="1.000" d="M124 7H125V8H124ZM180 40H181V41H180Z"/><path fill="#085058" fill-opacity="1.000" d="M125 10H127V11H125ZM33 24H34V25H33Z"/><path fill="#085858" fill-opacity="1.000" d="M107 10H108V11H107Z"/><path fill="#101820" fill-opacity="1.000" d="M4 35H5V36H4ZM5 37H6V38H5ZM199 43H200V44H199Z"/><path fill="#102020" fill-opacity="1.000" d="M197 43H199V44H197Z"/><path fill="#102028" fill-opacity="1.000" d="M108 3H115V4H108ZM134 5H135V6H134ZM4 30H5V31H4ZM4 32H5V33H4ZM5 33H6V34H5ZM5 34H6V35H5ZM6 35H7V36H6ZM6 36H7V37H6ZM182 44H183V45H182ZM129 45H130V46H129Z"/><path fill="#102828" fill-opacity="1.000" d="M115 3H121V4H115ZM122 3H123V4H122ZM25 4H28V5H25ZM133 5H134V6H133ZM202 5H203V6H202ZM135 6H137V7H135ZM181 6H182V7H181ZM8 37H9V38H8ZM204 37H205V38H204ZM10 38H11V39H10ZM11 39H12V40H11ZM12 40H13V41H12ZM181 44H182V45H181ZM173 45H174V46H173ZM179 45H180V46H179Z"/><path fill="#102830" fill-opacity="1.000" d="M105 4H110V5H105ZM25 5H27V6H25ZM131 5H132V6H131ZM192 5H195V6H192ZM12 6H13V7H12ZM106 6H107V7H106ZM134 6H135V7H134ZM11 7H13V8H11ZM137 7H138V8H137ZM178 7H181V8H178ZM205 8H206V9H205ZM5 14H6V15H5ZM5 31H6V32H5ZM6 33H7V34H6ZM7 35H8V36H7ZM203 37H204V38H203ZM202 38H203V39H202ZM12 39H15V40H12ZM201 39H202V40H201ZM194 41H196V42H194ZM197 41H198V42H197ZM29 42H116V43H29ZM122 42H123V43H122ZM128 43H129V44H128ZM131 43H132V44H131ZM181 43H182V44H181ZM131 44H132V45H131ZM172 45H173V46H172ZM177 45H178V46H177Z"/><path fill="#103030" fill-opacity="1.000" d="M116 4H117V5H116ZM118 4H119V5H118ZM21 5H25V6H21ZM27 5H91V6H27ZM104 5H109V6H104ZM14 6H16V7H14ZM132 6H134V7H132ZM183 6H184V7H183ZM202 6H203V7H202ZM134 7H137V8H134ZM181 7H182V8H181ZM139 8H141V9H139ZM175 8H180V9H175ZM10 9H11V10H10ZM205 9H206V10H205ZM8 11H9V12H8ZM206 12H207V13H206ZM6 15H7V16H6ZM6 16H7V17H6ZM4 20H5V21H4ZM6 22H7V23H6ZM6 23H7V24H6ZM6 24H7V25H6ZM6 25H7V26H6ZM6 26H7V27H6ZM6 28H7V29H6ZM205 33H206V34H205ZM7 34H8V35H7ZM204 35H205V36H204ZM10 37H11V38H10ZM11 38H12V39H11ZM200 39H201V40H200ZM13 40H16V41H13ZM124 40H125V41H124ZM187 40H188V41H187ZM199 40H200V41H199ZM28 41H125V42H28ZM126 41H127V42H126ZM128 41H129V42H128ZM184 41H185V42H184ZM186 41H187V42H186ZM188 41H189V42H188ZM196 41H197V42H196ZM129 42H130V43H129ZM182 42H185V43H182ZM187 42H188V43H187ZM129 43H131V44H129ZM132 43H133V44H132ZM180 43H181V44H180ZM136 44H137V45H136ZM171 44H172V45H171ZM175 44H177V45H175ZM178 44H179V45H178ZM174 45H175V46H174Z"/><path fill="#103038" fill-opacity="1.000" d="M125 5H128V6H125ZM16 6H17V7H16ZM20 6H100V7H20ZM103 6H104V7H103ZM105 6H106V7H105ZM109 6H110V7H109ZM127 6H128V7H127ZM130 6H132V7H130ZM186 6H187V7H186ZM13 7H14V8H13ZM15 7H16V8H15ZM182 7H183V8H182ZM135 8H139V9H135ZM181 8H182V9H181ZM204 8H205V9H204ZM137 9H140V10H137ZM172 9H178V10H172ZM9 10H11V11H9ZM205 10H206V11H205ZM8 12H9V13H8ZM206 13H207V14H206ZM206 14H207V15H206ZM206 15H207V16H206ZM206 16H207V17H206ZM6 19H7V20H6ZM6 29H7V30H6ZM205 31H206V32H205ZM6 32H7V33H6ZM205 32H206V33H205ZM8 34H9V35H8ZM204 34H205V35H204ZM8 35H9V36H8ZM9 36H10V37H9ZM202 36H204V37H202ZM12 38H14V39H12ZM201 38H202V39H201ZM15 39H16V40H15ZM24 40H28V41H24ZM30 40H31V41H30ZM32 40H33V41H32ZM34 40H35V41H34ZM36 40H37V41H36ZM38 40H39V41H38ZM40 40H41V41H40ZM42 40H43V41H42ZM44 40H45V41H44ZM46 40H47V41H46ZM48 40H49V41H48ZM50 40H51V41H50ZM52 40H53V41H52ZM54 40H55V41H54ZM56 40H57V41H56ZM58 40H59V41H58ZM60 40H61V41H60ZM62 40H63V41H62ZM64 40H65V41H64ZM66 40H67V41H66ZM68 40H69V41H68ZM70 40H71V41H70ZM72 40H73V41H72ZM74 40H75V41H74ZM76 40H77V41H76ZM78 40H79V41H78ZM80 40H81V41H80ZM82 40H83V41H82ZM84 40H85V41H84ZM86 40H87V41H86ZM88 40H89V41H88ZM90 40H91V41H90ZM92 40H93V41H92ZM94 40H95V41H94ZM96 40H97V41H96ZM98 40H99V41H98ZM100 40H101V41H100ZM102 40H103V41H102ZM104 40H105V41H104ZM106 40H107V41H106ZM108 40H121V41H108ZM122 40H123V41H122ZM192 40H196V41H192ZM197 40H199V41H197ZM183 41H184V42H183ZM185 41H186V42H185ZM130 42H131V43H130ZM181 42H182V43H181ZM133 43H135V44H133ZM178 43H179V44H178ZM173 44H174V45H173Z"/><path fill="#103040" fill-opacity="1.000" d="M124 6H125V7H124ZM126 6H127V7H126ZM14 7H15V8H14ZM136 9H137V10H136ZM202 35H204V36H202ZM197 39H198V40H197Z"/><path fill="#103838" fill-opacity="1.000" d="M129 6H130V7H129ZM201 7H203V8H201ZM178 9H180V10H178ZM204 9H205V10H204ZM205 11H206V12H205ZM205 12H206V13H205ZM205 13H206V14H205ZM7 16H8V17H7ZM6 21H7V22H6ZM205 29H206V30H205ZM205 30H206V31H205ZM22 40H24V41H22ZM28 40H30V41H28ZM31 40H32V41H31ZM33 40H34V41H33ZM35 40H36V41H35ZM37 40H38V41H37ZM39 40H40V41H39ZM41 40H42V41H41ZM43 40H44V41H43ZM45 40H46V41H45ZM47 40H48V41H47ZM49 40H50V41H49ZM51 40H52V41H51ZM53 40H54V41H53ZM55 40H56V41H55ZM57 40H58V41H57ZM59 40H60V41H59ZM61 40H62V41H61ZM63 40H64V41H63ZM65 40H66V41H65ZM67 40H68V41H67ZM69 40H70V41H69ZM71 40H72V41H71ZM73 40H74V41H73ZM75 40H76V41H75ZM77 40H78V41H77ZM79 40H80V41H79ZM81 40H82V41H81ZM83 40H84V41H83ZM85 40H86V41H85ZM87 40H88V41H87ZM89 40H90V41H89ZM91 40H92V41H91ZM93 40H94V41H93ZM95 40H96V41H95ZM97 40H98V41H97ZM99 40H100V41H99ZM101 40H102V41H101ZM103 40H104V41H103ZM105 40H106V41H105ZM107 40H108V41H107ZM121 40H122V41H121ZM123 40H124V41H123ZM126 40H129V41H126ZM184 40H187V41H184ZM188 40H192V41H188ZM127 41H128V42H127ZM132 42H133V43H132ZM180 42H181V43H180ZM177 43H178V44H177ZM138 44H139V45H138Z"/><path fill="#103840" fill-opacity="1.000" d="M18 6H19V7H18ZM101 6H102V7H101ZM104 6H105V7H104ZM108 6H109V7H108ZM110 6H111V7H110ZM112 6H113V7H112ZM114 6H115V7H114ZM120 6H121V7H120ZM123 6H124V7H123ZM125 6H126V7H125ZM128 6H129V7H128ZM105 7H106V8H105ZM184 7H185V8H184ZM194 7H195V8H194ZM13 8H14V9H13ZM184 8H185V9H184ZM202 8H203V9H202ZM135 9H136V10H135ZM137 10H143V11H137ZM144 10H145V11H144ZM146 10H147V11H146ZM148 10H178V11H148ZM8 14H9V15H8ZM205 14H206V15H205ZM205 15H206V16H205ZM205 16H206V17H205ZM7 17H8V18H7ZM205 17H206V18H205ZM7 18H8V19H7ZM205 18H206V19H205ZM7 19H8V20H7ZM205 19H206V20H205ZM205 20H206V21H205ZM7 21H8V22H7ZM205 21H206V22H205ZM205 22H206V23H205ZM205 23H206V24H205ZM205 24H206V25H205ZM205 25H206V26H205ZM205 26H206V27H205ZM205 27H206V28H205ZM205 28H206V29H205ZM14 38H15V39H14ZM16 39H18V40H16ZM23 39H29V40H23ZM30 39H31V40H30ZM32 39H33V40H32ZM34 39H35V40H34ZM36 39H37V40H36ZM38 39H39V40H38ZM40 39H41V40H40ZM42 39H43V40H42ZM44 39H45V40H44ZM46 39H47V40H46ZM48 39H49V40H48ZM50 39H51V40H50ZM52 39H53V40H52ZM54 39H55V40H54ZM56 39H57V40H56ZM58 39H59V40H58ZM60 39H61V40H60ZM62 39H63V40H62ZM64 39H65V40H64ZM66 39H67V40H66ZM68 39H69V40H68ZM70 39H71V40H70ZM72 39H73V40H72ZM74 39H75V40H74ZM76 39H77V40H76ZM78 39H79V40H78ZM80 39H81V40H80ZM82 39H83V40H82ZM84 39H85V40H84ZM86 39H87V40H86ZM88 39H89V40H88ZM90 39H91V40H90ZM92 39H93V40H92ZM94 39H95V40H94ZM96 39H97V40H96ZM98 39H99V40H98ZM100 39H101V40H100ZM102 39H103V40H102ZM104 39H105V40H104ZM106 39H107V40H106ZM108 39H109V40H108ZM110 39H111V40H110ZM112 39H113V40H112ZM114 39H115V40H114ZM116 39H117V40H116ZM118 39H119V40H118ZM120 39H121V40H120ZM122 39H124V40H122ZM188 39H197V40H188ZM19 40H20V41H19ZM183 40H184V41H183ZM130 41H131V42H130ZM181 41H183V42H181ZM139 43H175V44H139Z"/><path fill="#103848" fill-opacity="1.000" d="M8 15H9V16H8Z"/><path fill="#104040" fill-opacity="1.000" d="M201 8H202V9H201ZM134 10H137V11H134ZM178 10H179V11H178ZM11 36H12V37H11ZM124 39H126V40H124ZM186 39H188V40H186ZM129 40H130V41H129ZM131 41H132V42H131ZM179 42H180V43H179Z"/><path fill="#104048" fill-opacity="1.000" d="M186 8H187V9H186ZM133 10H134V11H133ZM8 17H9V18H8ZM8 20H9V21H8ZM10 35H11V36H10ZM201 36H202V37H201ZM184 39H185V40H184ZM136 42H137V43H136Z"/><path fill="#104050" fill-opacity="1.000" d="M137 42H138V43H137Z"/><path fill="#104848" fill-opacity="1.000" d="M132 10H133V11H132Z"/><path fill="#104850" fill-opacity="1.000" d="M198 38H199V39H198Z"/><path fill="#105050" fill-opacity="1.000" d="M109 10H111V11H109ZM112 10H113V11H112ZM115 10H116V11H115ZM118 10H123V11H118Z"/><path fill="#105058" fill-opacity="1.000" d="M113 10H114V11H113ZM116 10H118V11H116ZM123 10H124V11H123ZM127 11H129V12H127Z"/><path fill="#105858" fill-opacity="1.000" d="M129 11H130V12H129ZM181 39H182V40H181Z"/><path fill="#105860" fill-opacity="1.000" d="M124 10H125V11H124Z"/><path fill="#106060" fill-opacity="1.000" d="M127 10H128V11H127ZM179 11H181V12H179Z"/><path fill="#106068" fill-opacity="1.000" d="M35 21H36V22H35Z"/><path fill="#107070" fill-opacity="1.000" d="M31 25H32V26H31Z"/><path fill="#183038" fill-opacity="1.000" d="M133 44H134V45H133Z"/><path fill="#183840" fill-opacity="1.000" d="M107 6H108V7H107ZM180 8H181V9H180Z"/><path fill="#184040" fill-opacity="1.000" d="M106 7H107V8H106Z"/><path fill="#184048" fill-opacity="1.000" d="M126 39H127V40H126Z"/><path fill="#184848" fill-opacity="1.000" d="M10 12H11V13H10Z"/><path fill="#185858" fill-opacity="1.000" d="M111 10H112V11H111ZM114 10H115V11H114ZM138 11H139V12H138Z"/><path fill="#185860" fill-opacity="1.000" d="M130 10H132V11H130ZM124 11H125V12H124ZM130 11H131V12H130ZM139 11H171V12H139ZM177 11H179V12H177Z"/><path fill="#186060" fill-opacity="1.000" d="M128 10H130V11H128ZM131 11H132V12H131Z"/><path fill="#187070" fill-opacity="1.000" d="M35 26H36V27H35ZM13 36H14V37H13Z"/><path fill="#205060" fill-opacity="1.000" d="M173 11H174V12H173Z"/><path fill="#205858" fill-opacity="1.000" d="M136 11H138V12H136Z"/><path fill="#205860" fill-opacity="1.000" d="M132 11H136V12H132ZM171 11H173V12H171ZM174 11H177V12H174Z"/><path fill="#206060" fill-opacity="1.000" d="M123 11H124V12H123Z"/><path fill="#206068" fill-opacity="1.000" d="M126 11H127V12H126Z"/><path fill="#206870" fill-opacity="1.000" d="M34 22H35V23H34Z"/><path fill="#207078" fill-opacity="1.000" d="M32 24H33V25H32Z"/><path fill="#207878" fill-opacity="1.000" d="M30 26H31V27H30Z"/><path fill="#285058" fill-opacity="1.000" d="M15 38H16V39H15Z"/><path fill="#286060" fill-opacity="1.000" d="M119 11H123V12H119Z"/><path fill="#286068" fill-opacity="1.000" d="M197 38H198V39H197Z"/><path fill="#286868" fill-opacity="1.000" d="M111 11H112V12H111ZM118 11H119V12H118Z"/><path fill="#286870" fill-opacity="1.000" d="M125 11H126V12H125Z"/><path fill="#287070" fill-opacity="1.000" d="M178 41H179V42H178Z"/><path fill="#287078" fill-opacity="1.000" d="M129 38H130V39H129Z"/><path fill="#287880" fill-opacity="1.000" d="M12 35H13V36H12ZM182 38H183V39H182Z"/><path fill="#288080" fill-opacity="1.000" d="M31 24H32V25H31ZM30 25H31V26H30Z"/><path fill="#288888" fill-opacity="1.000" d="M29 19H30V20H29ZM28 20H29V21H28Z"/><path fill="#288890" fill-opacity="1.000" d="M31 18H32V19H31Z"/><path fill="#306868" fill-opacity="1.000" d="M114 11H115V12H114ZM116 11H118V12H116Z"/><path fill="#306870" fill-opacity="1.000" d="M112 11H114V12H112Z"/><path fill="#307070" fill-opacity="1.000" d="M115 11H116V12H115ZM125 38H126V39H125Z"/><path fill="#307078" fill-opacity="1.000" d="M19 38H22V39H19ZM28 38H124V39H28ZM127 38H128V39H127ZM184 38H186V39H184ZM187 38H196V39H187Z"/><path fill="#307878" fill-opacity="1.000" d="M108 11H109V12H108ZM14 37H15V38H14ZM186 38H187V39H186Z"/><path fill="#307880" fill-opacity="1.000" d="M183 38H184V39H183Z"/><path fill="#308080" fill-opacity="1.000" d="M130 38H131V39H130Z"/><path fill="#308888" fill-opacity="1.000" d="M34 21H35V22H34Z"/><path fill="#308890" fill-opacity="1.000" d="M37 20H38V21H37Z"/><path fill="#309090" fill-opacity="1.000" d="M27 23H28V24H27ZM28 26H29V27H28Z"/><path fill="#309098" fill-opacity="1.000" d="M27 24H28V25H27ZM37 26H38V27H37ZM36 27H37V28H36Z"/><path fill="#309898" fill-opacity="1.000" d="M35 28H36V29H35Z"/><path fill="#3098a0" fill-opacity="1.000" d="M34 18H35V19H34Z"/><path fill="#387070" fill-opacity="1.000" d="M16 38H17V39H16Z"/><path fill="#387078" fill-opacity="1.000" d="M17 38H19V39H17ZM22 38H28V39H22ZM124 38H125V39H124ZM126 38H127V39H126Z"/><path fill="#387880" fill-opacity="1.000" d="M128 38H129V39H128ZM196 38H197V39H196Z"/><path fill="#388080" fill-opacity="1.000" d="M10 33H11V34H10ZM11 34H12V35H11Z"/><path fill="#388088" fill-opacity="1.000" d="M33 22H34V23H33ZM179 40H180V41H179Z"/><path fill="#389098" fill-opacity="1.000" d="M36 19H37V20H36Z"/><path fill="#389898" fill-opacity="1.000" d="M33 18H34V19H33ZM29 27H30V28H29Z"/><path fill="#3898a0" fill-opacity="1.000" d="M32 18H33V19H32ZM38 23H39V24H38ZM30 28H31V29H30Z"/><path fill="#38a0a0" fill-opacity="1.000" d="M27 22H28V23H27Z"/><path fill="#407880" fill-opacity="1.000" d="M9 14H10V15H9Z"/><path fill="#408080" fill-opacity="1.000" d="M109 11H111V12H109ZM10 13H11V14H10ZM9 32H10V33H9Z"/><path fill="#408890" fill-opacity="1.000" d="M180 39H181V40H180Z"/><path fill="#409098" fill-opacity="1.000" d="M12 11H13V12H12Z"/><path fill="#409898" fill-opacity="1.000" d="M13 10H14V11H13Z"/><path fill="#40a0a0" fill-opacity="1.000" d="M181 11H182V12H181ZM34 28H35V29H34Z"/><path fill="#488088" fill-opacity="1.000" d="M11 12H12V13H11Z"/><path fill="#489898" fill-opacity="1.000" d="M106 9H107V10H106Z"/><path fill="#48a0a0" fill-opacity="1.000" d="M31 21H32V22H31ZM35 25H36V26H35Z"/><path fill="#48b0b0" fill-opacity="1.000" d="M38 22H39V23H38Z"/><path fill="#508088" fill-opacity="1.000" d="M15 8H16V9H15Z"/><path fill="#50a0a0" fill-opacity="1.000" d="M203 32H204V33H203Z"/><path fill="#50a0a8" fill-opacity="1.000" d="M34 24H35V25H34Z"/><path fill="#50a8a8" fill-opacity="1.000" d="M181 38H182V39H181Z"/><path fill="#50a8b0" fill-opacity="1.000" d="M37 21H38V22H37Z"/><path fill="#50b0b0" fill-opacity="1.000" d="M38 24H39V25H38ZM31 28H32V29H31Z"/><path fill="#50b8b8" fill-opacity="1.000" d="M30 18H31V19H30ZM35 18H36V19H35ZM27 25H28V26H27Z"/><path fill="#589898" fill-opacity="1.000" d="M105 8H106V9H105Z"/><path fill="#58a0a0" fill-opacity="1.000" d="M14 9H15V10H14Z"/><path fill="#58a0a8" fill-opacity="1.000" d="M103 8H104V9H103ZM32 22H33V23H32Z"/><path fill="#58a8a8" fill-opacity="1.000" d="M24 8H28V9H24ZM102 8H103V9H102Z"/><path fill="#58a8b0" fill-opacity="1.000" d="M28 8H29V9H28ZM35 20H36V21H35Z"/><path fill="#58b0b8" fill-opacity="1.000" d="M30 20H31V21H30Z"/><path fill="#58b8b8" fill-opacity="1.000" d="M32 28H33V29H32Z"/><path fill="#58c0c0" fill-opacity="1.000" d="M38 25H39V26H38Z"/><path fill="#60a0a8" fill-opacity="1.000" d="M134 41H135V42H134Z"/><path fill="#60a8a8" fill-opacity="1.000" d="M17 8H18V9H17ZM91 8H96V9H91ZM104 8H105V9H104Z"/><path fill="#60a8b0" fill-opacity="1.000" d="M18 8H24V9H18ZM29 8H91V9H29ZM96 8H100V9H96ZM202 33H203V34H202Z"/><path fill="#60b0b0" fill-opacity="1.000" d="M100 8H102V9H100ZM130 8H131V9H130ZM199 36H200V37H199ZM198 37H199V38H198Z"/><path fill="#60b8b8" fill-opacity="1.000" d="M108 8H109V9H108Z"/><path fill="#60b8c0" fill-opacity="1.000" d="M35 19H36V20H35Z"/><path fill="#60c0c0" fill-opacity="1.000" d="M27 21H29V22H27ZM37 25H38V26H37ZM33 28H34V29H33ZM33 29H34V30H33Z"/><path fill="#68a8b0" fill-opacity="1.000" d="M201 34H202V35H201Z"/><path fill="#68b0b0" fill-opacity="1.000" d="M200 35H201V36H200Z"/><path fill="#68b8b8" fill-opacity="1.000" d="M131 9H132V10H131Z"/><path fill="#68b8c0" fill-opacity="1.000" d="M182 10H183V11H182ZM175 41H176V42H175Z"/><path fill="#68c0c8" fill-opacity="1.000" d="M32 29H33V30H32Z"/><path fill="#68c8d0" fill-opacity="1.000" d="M30 19H31V20H30ZM28 27H29V28H28Z"/><path fill="#68d0d0" fill-opacity="1.000" d="M37 22H38V23H37ZM37 24H38V25H37ZM29 28H30V29H29Z"/><path fill="#70b0b0" fill-opacity="1.000" d="M16 8H17V9H16Z"/><path fill="#70b8c0" fill-opacity="1.000" d="M133 40H134V41H133ZM136 41H137V42H136Z"/><path fill="#70c0c8" fill-opacity="1.000" d="M172 41H173V42H172Z"/><path fill="#70c8c8" fill-opacity="1.000" d="M132 39H133V40H132Z"/><path fill="#70d0d0" fill-opacity="1.000" d="M28 25H29V26H28ZM37 27H38V28H37ZM31 29H32V30H31Z"/><path fill="#70d0d8" fill-opacity="1.000" d="M38 21H39V22H38Z"/><path fill="#70e8e8" fill-opacity="1.000" d="M16 34H17V35H16Z"/><path fill="#70f0f0" fill-opacity="1.000" d="M103 11H104V12H103ZM16 12H17V13H16ZM11 15H12V16H11ZM14 31H15V32H14ZM198 31H200V32H198ZM18 32H19V33H18ZM138 39H139V40H138Z"/><path fill="#70f8f0" fill-opacity="1.000" d="M101 11H102V12H101Z"/><path fill="#70f8f8" fill-opacity="1.000" d="M17 12H19V13H17ZM101 12H102V13H101Z"/><path fill="#78c0c8" fill-opacity="1.000" d="M138 41H139V42H138ZM177 41H178V42H177Z"/><path fill="#78c8c8" fill-opacity="1.000" d="M141 41H142V42H141ZM143 41H144V42H143ZM145 41H146V42H145ZM147 41H148V42H147ZM149 41H150V42H149ZM151 41H152V42H151ZM153 41H154V42H153ZM155 41H156V42H155ZM157 41H158V42H157ZM159 41H160V42H159ZM161 41H162V42H161ZM163 41H164V42H163ZM165 41H166V42H165ZM167 41H168V42H167ZM169 41H170V42H169Z"/><path fill="#78c8d0" fill-opacity="1.000" d="M36 20H37V21H36ZM140 41H141V42H140ZM142 41H143V42H142ZM144 41H145V42H144ZM146 41H147V42H146ZM148 41H149V42H148ZM150 41H151V42H150ZM152 41H153V42H152ZM154 41H155V42H154ZM156 41H157V42H156ZM158 41H159V42H158ZM160 41H161V42H160ZM162 41H163V42H162ZM164 41H165V42H164ZM166 41H167V42H166ZM168 41H169V42H168ZM170 41H172V42H170ZM173 41H174V42H173Z"/><path fill="#78d0d0" fill-opacity="1.000" d="M107 11H108V12H107ZM131 38H132V39H131Z"/><path fill="#78d0d8" fill-opacity="1.000" d="M29 26H30V27H29ZM36 26H37V27H36Z"/><path fill="#78e0e0" fill-opacity="1.000" d="M27 26H28V27H27ZM36 28H37V29H36ZM34 29H35V30H34Z"/><path fill="#78e8e8" fill-opacity="1.000" d="M15 11H16V12H15ZM37 18H38V19H37Z"/><path fill="#78e8f0" fill-opacity="1.000" d="M39 17H40V18H39ZM12 32H13V33H12Z"/><path fill="#78f0e8" fill-opacity="1.000" d="M196 36H197V37H196Z"/><path fill="#78f0f0" fill-opacity="1.000" d="M18 10H19V11H18ZM104 12H105V13H104ZM183 12H184V13H183ZM185 12H186V13H185ZM15 13H16V14H15ZM29 15H30V16H29ZM31 15H32V16H31ZM38 16H39V17H38ZM12 30H14V31H12ZM200 30H201V31H200ZM14 32H15V33H14ZM199 32H200V33H199ZM15 33H16V34H15ZM197 34H198V35H197ZM18 35H19V36H18ZM175 38H177V39H175ZM137 39H138V40H137Z"/><path fill="#78f0f8" fill-opacity="1.000" d="M186 12H187V13H186ZM199 12H201V13H199ZM102 13H103V14H102ZM185 13H186V14H185ZM200 13H201V14H200ZM39 14H40V15H39ZM198 14H199V15H198ZM198 18H199V19H198ZM198 19H199V20H198ZM197 30H198V31H197ZM17 31H18V32H17ZM196 31H197V32H196ZM17 33H18V34H17ZM196 33H197V34H196ZM19 34H20V35H19ZM193 35H194V36H193ZM135 38H136V39H135ZM173 39H174V40H173Z"/><path fill="#78f0ff" fill-opacity="1.000" d="M194 33H195V34H194Z"/><path fill="#78f8f0" fill-opacity="1.000" d="M25 10H28V11H25ZM102 11H103V12H102ZM187 11H188V12H187ZM196 11H198V12H196ZM199 11H201V12H199ZM201 15H202V16H201ZM201 16H202V17H201ZM11 18H12V19H11ZM11 20H14V21H11ZM12 21H13V22H12ZM12 22H14V23H12ZM12 23H14V24H12ZM12 24H14V25H12ZM12 25H14V26H12ZM11 29H12V30H11ZM24 35H27V36H24ZM189 36H195V37H189Z"/><path fill="#78f8f8" fill-opacity="1.000" d="M17 11H22V12H17ZM25 11H30V12H25ZM31 11H32V12H31ZM33 11H34V12H33ZM35 11H36V12H35ZM37 11H38V12H37ZM39 11H40V12H39ZM41 11H42V12H41ZM43 11H44V12H43ZM45 11H46V12H45ZM47 11H48V12H47ZM49 11H50V12H49ZM51 11H52V12H51ZM53 11H54V12H53ZM55 11H56V12H55ZM57 11H58V12H57ZM59 11H60V12H59ZM61 11H62V12H61ZM63 11H64V12H63ZM65 11H66V12H65ZM67 11H68V12H67ZM69 11H70V12H69ZM71 11H72V12H71ZM73 11H74V12H73ZM75 11H76V12H75ZM77 11H78V12H77ZM79 11H80V12H79ZM81 11H82V12H81ZM83 11H84V12H83ZM85 11H86V12H85ZM87 11H88V12H87ZM89 11H90V12H89ZM91 11H95V12H91ZM99 11H101V12H99ZM188 11H196V12H188ZM198 11H199V12H198ZM20 12H21V13H20ZM29 12H30V13H29ZM31 12H32V13H31ZM33 12H34V13H33ZM35 12H36V13H35ZM37 12H38V13H37ZM39 12H40V13H39ZM41 12H42V13H41ZM43 12H44V13H43ZM45 12H46V13H45ZM47 12H48V13H47ZM49 12H50V13H49ZM51 12H52V13H51ZM53 12H54V13H53ZM55 12H56V13H55ZM57 12H58V13H57ZM59 12H60V13H59ZM61 12H62V13H61ZM63 12H64V13H63ZM65 12H66V13H65ZM67 12H68V13H67ZM69 12H70V13H69ZM71 12H72V13H71ZM73 12H74V13H73ZM75 12H76V13H75ZM77 12H78V13H77ZM79 12H80V13H79ZM81 12H82V13H81ZM83 12H84V13H83ZM85 12H86V13H85ZM87 12H88V13H87ZM89 12H90V13H89ZM91 12H96V13H91ZM98 12H100V13H98ZM103 12H104V13H103ZM187 12H199V13H187ZM16 13H20V14H16ZM93 13H94V14H93ZM99 13H101V14H99ZM186 13H188V14H186ZM193 13H198V14H193ZM199 13H200V14H199ZM13 14H18V15H13ZM32 14H34V15H32ZM173 14H174V15H173ZM199 14H202V15H199ZM12 15H16V16H12ZM38 15H39V16H38ZM137 15H181V16H137ZM198 15H201V16H198ZM11 16H16V17H11ZM37 16H38V17H37ZM198 16H201V17H198ZM11 17H16V18H11ZM198 17H201V18H198ZM12 18H15V19H12ZM199 18H201V19H199ZM11 19H14V20H11ZM199 19H201V20H199ZM198 20H201V21H198ZM11 21H12V22H11ZM13 21H14V22H13ZM198 21H201V22H198ZM11 22H12V23H11ZM199 22H201V23H199ZM11 23H12V24H11ZM199 23H201V24H199ZM11 24H12V25H11ZM199 24H201V25H199ZM11 25H12V26H11ZM198 25H201V26H198ZM11 26H14V27H11ZM198 26H201V27H198ZM11 27H14V28H11ZM198 27H201V28H198ZM11 28H14V29H11ZM198 28H201V29H198ZM12 29H14V30H12ZM198 29H201V30H198ZM198 30H199V31H198ZM15 31H16V32H15ZM16 32H17V33H16ZM196 32H198V33H196ZM18 33H19V34H18ZM20 33H29V34H20ZM124 33H126V34H124ZM195 33H196V34H195ZM20 34H28V35H20ZM123 34H126V35H123ZM127 34H128V35H127ZM194 34H196V35H194ZM20 35H24V36H20ZM27 35H28V36H27ZM123 35H129V36H123ZM186 35H189V36H186ZM191 35H193V36H191ZM194 35H196V36H194ZM134 36H137V37H134ZM135 37H171V38H135ZM136 38H174V39H136Z"/><path fill="#78f8ff" fill-opacity="1.000" d="M19 12H20V13H19ZM20 13H21V14H20ZM198 13H199V14H198ZM195 32H196V33H195ZM126 34H127V35H126Z"/><path fill="#78ffff" fill-opacity="1.000" d="M100 12H101V13H100Z"/><path fill="#80c8d0" fill-opacity="1.000" d="M137 41H138V42H137ZM139 41H140V42H139ZM176 41H177V42H176Z"/><path fill="#80d0d8" fill-opacity="1.000" d="M174 41H175V42H174Z"/><path fill="#80d8d8" fill-opacity="1.000" d="M29 20H30V21H29Z"/><path fill="#80d8e0" fill-opacity="1.000" d="M35 27H36V28H35Z"/><path fill="#80e0e0" fill-opacity="1.000" d="M28 19H29V20H28ZM28 22H29V23H28Z"/><path fill="#80e0e8" fill-opacity="1.000" d="M109 9H110V10H109ZM203 11H204V12H203ZM203 12H204V13H203ZM203 13H204V14H203Z"/><path fill="#80e8e0" fill-opacity="1.000" d="M33 20H34V21H33Z"/><path fill="#80e8e8" fill-opacity="1.000" d="M128 9H129V10H128ZM14 11H15V12H14ZM106 12H107V13H106ZM29 18H30V19H29ZM27 20H28V21H27ZM38 26H39V27H38ZM135 39H136V40H135ZM177 39H178V40H177Z"/><path fill="#80e8f0" fill-opacity="1.000" d="M124 8H126V9H124ZM111 9H112V10H111ZM26 21H27V22H26ZM40 24H41V25H40ZM39 25H40V26H39ZM30 29H31V30H30ZM13 34H14V35H13ZM173 40H175V41H173Z"/><path fill="#80f0e8" fill-opacity="1.000" d="M197 10H198V11H197Z"/><path fill="#80f0f0" fill-opacity="1.000" d="M125 9H126V10H125ZM127 9H128V10H127ZM16 10H18V11H16ZM19 10H25V11H19ZM28 10H100V11H28ZM186 10H187V11H186ZM190 10H192V11H190ZM193 10H197V11H193ZM198 10H200V11H198ZM183 11H185V12H183ZM202 11H203V12H202ZM13 12H15V13H13ZM13 13H14V14H13ZM105 13H106V14H105ZM107 13H108V14H107ZM109 13H110V14H109ZM111 13H113V14H111ZM115 13H118V14H115ZM122 13H123V14H122ZM138 13H144V14H138ZM171 13H177V14H171ZM180 13H182V14H180ZM12 14H13V15H12ZM35 14H36V15H35ZM132 14H139V15H132ZM177 14H178V15H177ZM202 14H203V15H202ZM41 15H42V16H41ZM34 16H35V17H34ZM42 16H43V17H42ZM23 17H24V18H23ZM29 17H31V18H29ZM34 17H35V18H34ZM25 18H27V19H25ZM36 18H37V19H36ZM38 18H39V19H38ZM10 19H11V20H10ZM24 19H26V20H24ZM40 19H42V20H40ZM21 20H22V21H21ZM24 20H25V21H24ZM39 20H40V21H39ZM10 21H11V22H10ZM21 21H22V22H21ZM10 22H11V23H10ZM40 22H41V23H40ZM10 23H11V24H10ZM21 23H22V24H21ZM10 24H11V25H10ZM21 24H22V25H21ZM10 25H11V26H10ZM21 25H22V26H21ZM41 25H42V26H41ZM10 26H11V27H10ZM23 26H24V27H23ZM42 26H43V27H42ZM10 27H11V28H10ZM20 27H21V28H20ZM23 27H24V28H23ZM26 27H27V28H26ZM39 27H41V28H39ZM43 27H44V28H43ZM10 28H11V29H10ZM20 28H21V29H20ZM26 28H27V29H26ZM37 28H38V29H37ZM21 29H22V30H21ZM24 29H25V30H24ZM26 29H27V30H26ZM38 29H39V30H38ZM41 29H42V30H41ZM11 30H12V31H11ZM11 31H12V32H11ZM13 33H14V34H13ZM15 34H16V35H15ZM17 35H18V36H17ZM109 35H123V36H109ZM180 35H181V36H180ZM19 36H131V37H19ZM178 36H188V37H178ZM195 36H196V37H195ZM132 37H134V38H132ZM176 37H180V38H176ZM134 38H135V39H134ZM141 39H148V40H141ZM164 39H172V40H164Z"/><path fill="#80f0f8" fill-opacity="1.000" d="M22 12H26V13H22ZM28 12H29V13H28ZM30 12H31V13H30ZM32 12H33V13H32ZM34 12H35V13H34ZM36 12H37V13H36ZM38 12H39V13H38ZM40 12H41V13H40ZM42 12H43V13H42ZM44 12H45V13H44ZM46 12H47V13H46ZM48 12H49V13H48ZM50 12H51V13H50ZM52 12H53V13H52ZM54 12H55V13H54ZM56 12H57V13H56ZM58 12H59V13H58ZM60 12H61V13H60ZM62 12H63V13H62ZM64 12H65V13H64ZM66 12H67V13H66ZM68 12H69V13H68ZM70 12H71V13H70ZM72 12H73V13H72ZM74 12H75V13H74ZM76 12H77V13H76ZM78 12H79V13H78ZM80 12H81V13H80ZM82 12H83V13H82ZM84 12H85V13H84ZM86 12H87V13H86ZM88 12H89V13H88ZM90 12H91V13H90ZM96 12H98V13H96ZM202 12H203V13H202ZM22 13H30V14H22ZM36 13H37V14H36ZM41 13H44V14H41ZM96 13H98V14H96ZM110 13H111V14H110ZM183 13H185V14H183ZM202 13H203V14H202ZM21 14H23V15H21ZM24 14H26V15H24ZM28 14H30V15H28ZM36 14H37V15H36ZM41 14H93V15H41ZM94 14H99V15H94ZM104 14H106V15H104ZM108 14H109V15H108ZM116 14H124V15H116ZM127 14H132V15H127ZM139 14H172V15H139ZM178 14H185V15H178ZM196 14H197V15H196ZM16 15H17V16H16ZM20 15H21V16H20ZM25 15H28V16H25ZM43 15H44V16H43ZM124 15H125V16H124ZM129 15H131V16H129ZM132 15H134V16H132ZM181 15H182V16H181ZM190 15H191V16H190ZM196 15H197V16H196ZM18 16H19V17H18ZM20 16H21V17H20ZM31 16H32V17H31ZM40 16H41V17H40ZM44 16H45V17H44ZM108 16H123V17H108ZM124 16H132V17H124ZM196 16H198V17H196ZM22 17H23V18H22ZM26 17H28V18H26ZM41 17H43V18H41ZM44 17H45V18H44ZM108 17H132V18H108ZM186 17H187V18H186ZM190 17H191V18H190ZM196 17H197V18H196ZM17 18H19V19H17ZM21 18H23V19H21ZM40 18H41V19H40ZM43 18H133V19H43ZM186 18H187V19H186ZM190 18H192V19H190ZM196 18H198V19H196ZM16 19H18V20H16ZM21 19H22V20H21ZM44 19H135V20H44ZM142 19H143V20H142ZM144 19H145V20H144ZM146 19H147V20H146ZM148 19H149V20H148ZM150 19H151V20H150ZM152 19H153V20H152ZM154 19H155V20H154ZM156 19H157V20H156ZM158 19H159V20H158ZM160 19H161V20H160ZM162 19H163V20H162ZM164 19H165V20H164ZM166 19H167V20H166ZM168 19H169V20H168ZM170 19H171V20H170ZM182 19H190V20H182ZM191 19H192V20H191ZM196 19H198V20H196ZM18 20H20V21H18ZM42 20H45V21H42ZM129 20H135V21H129ZM142 20H143V21H142ZM144 20H145V21H144ZM146 20H147V21H146ZM148 20H149V21H148ZM150 20H151V21H150ZM152 20H153V21H152ZM154 20H155V21H154ZM156 20H157V21H156ZM158 20H159V21H158ZM160 20H161V21H160ZM162 20H163V21H162ZM164 20H165V21H164ZM166 20H167V21H166ZM168 20H169V21H168ZM170 20H171V21H170ZM178 20H182V21H178ZM187 20H190V21H187ZM192 20H193V21H192ZM196 20H198V21H196ZM17 21H18V22H17ZM130 21H137V22H130ZM140 21H180V22H140ZM188 21H190V22H188ZM192 21H193V22H192ZM17 22H18V23H17ZM137 22H140V23H137ZM192 22H193V23H192ZM17 23H18V24H17ZM138 23H140V24H138ZM192 23H193V24H192ZM17 24H18V25H17ZM192 24H193V25H192ZM17 25H18V26H17ZM192 25H193V26H192ZM18 26H21V27H18ZM22 26H23V27H22ZM188 26H189V27H188ZM192 26H193V27H192ZM18 27H20V28H18ZM22 27H23V28H22ZM44 27H108V28H44ZM188 27H190V28H188ZM192 27H193V28H192ZM196 27H197V28H196ZM17 28H20V29H17ZM23 28H24V29H23ZM40 28H43V29H40ZM45 28H124V29H45ZM180 28H190V29H180ZM192 28H193V29H192ZM196 28H197V29H196ZM18 29H20V30H18ZM23 29H24V30H23ZM43 29H124V30H43ZM141 29H142V30H141ZM143 29H144V30H143ZM145 29H146V30H145ZM147 29H148V30H147ZM149 29H150V30H149ZM151 29H152V30H151ZM153 29H154V30H153ZM155 29H156V30H155ZM157 29H158V30H157ZM159 29H160V30H159ZM161 29H162V30H161ZM163 29H164V30H163ZM165 29H166V30H165ZM167 29H168V30H167ZM169 29H170V30H169ZM179 29H185V30H179ZM190 29H192V30H190ZM196 29H197V30H196ZM16 30H17V31H16ZM18 30H20V31H18ZM28 30H30V31H28ZM35 30H36V31H35ZM38 30H40V31H38ZM42 30H44V31H42ZM123 30H124V31H123ZM133 30H137V31H133ZM177 30H184V31H177ZM193 30H194V31H193ZM20 31H22V32H20ZM25 31H27V32H25ZM124 31H125V32H124ZM131 31H133V32H131ZM137 31H138V32H137ZM175 31H176V32H175ZM181 31H185V32H181ZM192 31H193V32H192ZM127 32H131V33H127ZM138 32H142V33H138ZM143 32H144V33H143ZM145 32H146V33H145ZM147 32H148V33H147ZM149 32H150V33H149ZM151 32H152V33H151ZM153 32H154V33H153ZM155 32H156V33H155ZM157 32H158V33H157ZM159 32H160V33H159ZM161 32H162V33H161ZM163 32H164V33H163ZM165 32H166V33H165ZM167 32H168V33H167ZM169 32H170V33H169ZM171 32H172V33H171ZM180 32H188V33H180ZM190 32H195V33H190ZM29 33H100V34H29ZM138 33H171V34H138ZM181 33H185V34H181ZM188 33H194V34H188ZM138 34H172V35H138ZM189 34H191V35H189ZM28 35H109V36H28ZM129 35H132V36H129ZM138 35H172V36H138ZM181 35H184V36H181ZM189 35H191V36H189ZM131 36H134V37H131ZM172 36H173V37H172ZM172 39H173V40H172Z"/><path fill="#80f0ff" fill-opacity="1.000" d="M191 34H192V35H191Z"/><path fill="#80f8f0" fill-opacity="1.000" d="M101 10H102V11H101ZM103 10H104V11H103ZM187 10H188V11H187ZM192 15H194V16H192ZM201 17H202V18H201ZM201 18H202V19H201ZM201 19H202V20H201ZM201 20H202V21H201ZM201 21H202V22H201ZM201 22H202V23H201ZM201 23H202V24H201ZM201 24H202V25H201ZM201 25H202V26H201ZM201 26H202V27H201ZM201 27H202V28H201ZM201 28H202V29H201ZM201 29H202V30H201ZM189 30H191V31H189ZM201 30H202V31H201ZM189 31H190V32H189ZM196 35H197V36H196ZM18 36H19V37H18ZM188 36H189V37H188ZM140 39H141V40H140Z"/><path fill="#80f8f8" fill-opacity="1.000" d="M100 10H101V11H100ZM102 10H103V11H102ZM22 11H25V12H22ZM30 11H31V12H30ZM32 11H33V12H32ZM34 11H35V12H34ZM36 11H37V12H36ZM38 11H39V12H38ZM40 11H41V12H40ZM42 11H43V12H42ZM44 11H45V12H44ZM46 11H47V12H46ZM48 11H49V12H48ZM50 11H51V12H50ZM52 11H53V12H52ZM54 11H55V12H54ZM56 11H57V12H56ZM58 11H59V12H58ZM60 11H61V12H60ZM62 11H63V12H62ZM64 11H65V12H64ZM66 11H67V12H66ZM68 11H69V12H68ZM70 11H71V12H70ZM72 11H73V12H72ZM74 11H75V12H74ZM76 11H77V12H76ZM78 11H79V12H78ZM80 11H81V12H80ZM82 11H83V12H82ZM84 11H85V12H84ZM86 11H87V12H86ZM88 11H89V12H88ZM90 11H91V12H90ZM95 11H99V12H95ZM185 11H186V12H185ZM201 11H202V12H201ZM15 12H16V13H15ZM21 12H22V13H21ZM26 12H28V13H26ZM201 12H202V13H201ZM14 13H15V14H14ZM21 13H22V14H21ZM30 13H36V14H30ZM37 13H41V14H37ZM44 13H93V14H44ZM94 13H96V14H94ZM98 13H99V14H98ZM103 13H104V14H103ZM18 14H20V15H18ZM23 14H24V15H23ZM26 14H28V15H26ZM34 14H35V15H34ZM38 14H39V15H38ZM93 14H94V15H93ZM99 14H104V15H99ZM109 14H116V15H109ZM172 14H173V15H172ZM174 14H177V15H174ZM185 14H196V15H185ZM197 14H198V15H197ZM17 15H20V16H17ZM21 15H25V16H21ZM28 15H29V16H28ZM33 15H35V16H33ZM36 15H38V16H36ZM40 15H41V16H40ZM44 15H124V16H44ZM125 15H129V16H125ZM131 15H132V16H131ZM134 15H137V16H134ZM182 15H190V16H182ZM191 15H192V16H191ZM194 15H196V16H194ZM197 15H198V16H197ZM16 16H18V17H16ZM19 16H20V17H19ZM21 16H25V17H21ZM26 16H29V17H26ZM30 16H31V17H30ZM35 16H37V17H35ZM45 16H108V17H45ZM123 16H124V17H123ZM132 16H196V17H132ZM16 17H22V18H16ZM28 17H29V18H28ZM35 17H38V18H35ZM45 17H108V18H45ZM132 17H186V18H132ZM187 17H190V18H187ZM191 17H196V18H191ZM197 17H198V18H197ZM15 18H17V19H15ZM19 18H21V19H19ZM133 18H186V19H133ZM187 18H190V19H187ZM192 18H196V19H192ZM14 19H16V20H14ZM18 19H20V20H18ZM135 19H142V20H135ZM143 19H144V20H143ZM145 19H146V20H145ZM147 19H148V20H147ZM149 19H150V20H149ZM151 19H152V20H151ZM153 19H154V20H153ZM155 19H156V20H155ZM157 19H158V20H157ZM159 19H160V20H159ZM161 19H162V20H161ZM163 19H164V20H163ZM165 19H166V20H165ZM167 19H168V20H167ZM169 19H170V20H169ZM171 19H182V20H171ZM192 19H196V20H192ZM14 20H18V21H14ZM135 20H142V21H135ZM143 20H144V21H143ZM145 20H146V21H145ZM147 20H148V21H147ZM149 20H150V21H149ZM151 20H152V21H151ZM153 20H154V21H153ZM155 20H156V21H155ZM157 20H158V21H157ZM159 20H160V21H159ZM161 20H162V21H161ZM163 20H164V21H163ZM165 20H166V21H165ZM167 20H168V21H167ZM169 20H170V21H169ZM171 20H178V21H171ZM193 20H196V21H193ZM14 21H17V22H14ZM137 21H140V22H137ZM193 21H196V22H193ZM197 21H198V22H197ZM14 22H17V23H14ZM193 22H196V23H193ZM198 22H199V23H198ZM14 23H17V24H14ZM193 23H196V24H193ZM198 23H199V24H198ZM14 24H17V25H14ZM193 24H196V25H193ZM198 24H199V25H198ZM14 25H17V26H14ZM193 25H196V26H193ZM197 25H198V26H197ZM14 26H18V27H14ZM193 26H196V27H193ZM197 26H198V27H197ZM14 27H18V28H14ZM193 27H196V28H193ZM197 27H198V28H197ZM14 28H17V29H14ZM21 28H22V29H21ZM193 28H196V29H193ZM197 28H198V29H197ZM14 29H18V30H14ZM36 29H37V30H36ZM185 29H190V30H185ZM192 29H196V30H192ZM197 29H198V30H197ZM15 30H16V31H15ZM17 30H18V31H17ZM36 30H38V31H36ZM40 30H42V31H40ZM44 30H123V31H44ZM184 30H189V31H184ZM191 30H193V31H191ZM194 30H196V31H194ZM12 31H14V32H12ZM16 31H17V32H16ZM18 31H20V32H18ZM27 31H124V32H27ZM133 31H137V32H133ZM176 31H181V32H176ZM185 31H189V32H185ZM190 31H192V32H190ZM193 31H194V32H193ZM200 31H201V32H200ZM13 32H14V33H13ZM15 32H16V33H15ZM17 32H18V33H17ZM20 32H127V33H20ZM131 32H138V33H131ZM172 32H180V33H172ZM188 32H190V33H188ZM198 32H199V33H198ZM100 33H124V34H100ZM126 33H138V34H126ZM171 33H181V34H171ZM185 33H188V34H185ZM197 33H199V34H197ZM17 34H19V35H17ZM28 34H123V35H28ZM129 34H138V35H129ZM172 34H186V35H172ZM188 34H189V35H188ZM19 35H20V36H19ZM132 35H138V36H132ZM172 35H180V36H172ZM184 35H186V36H184ZM137 36H172V37H137ZM173 36H178V37H173ZM134 37H135V38H134ZM171 37H176V38H171ZM174 38H175V39H174ZM148 39H164V40H148ZM174 39H175V40H174Z"/><path fill="#80f8ff" fill-opacity="1.000" d="M101 13H102V14H101ZM188 13H193V14H188ZM201 13H202V14H201ZM20 14H21V15H20ZM30 14H32V15H30ZM37 14H38V15H37ZM40 14H41V15H40ZM30 15H31V16H30ZM32 15H33V16H32ZM14 30H15V31H14ZM196 30H197V31H196ZM194 31H196V32H194ZM19 32H20V33H19ZM19 33H20V34H19ZM128 34H129V35H128ZM186 34H188V35H186ZM192 34H194V35H192Z"/><path fill="#80fff8" fill-opacity="1.000" d="M16 11H17V12H16ZM186 11H187V12H186Z"/><path fill="#80ffff" fill-opacity="1.000" d="M102 12H103V13H102ZM39 15H40V16H39ZM199 30H200V31H199ZM197 31H198V32H197ZM16 33H17V34H16ZM196 34H197V35H196ZM139 39H140V40H139Z"/><path fill="#88c8d0" fill-opacity="1.000" d="M135 41H136V42H135Z"/><path fill="#88d0d0" fill-opacity="1.000" d="M184 9H185V10H184Z"/><path fill="#88d0d8" fill-opacity="1.000" d="M9 17H10V18H9Z"/><path fill="#88e0e0" fill-opacity="1.000" d="M203 14H204V15H203ZM203 15H204V16H203ZM203 16H204V17H203ZM203 17H204V18H203ZM203 18H204V19H203ZM203 19H204V20H203ZM203 20H204V21H203ZM29 21H30V22H29ZM203 21H204V22H203ZM30 22H31V23H30ZM203 22H204V23H203ZM203 23H204V24H203ZM203 24H204V25H203ZM32 25H33V26H32ZM203 25H204V26H203ZM203 26H204V27H203ZM203 27H204V28H203ZM203 28H204V29H203ZM203 29H204V30H203ZM203 30H204V31H203Z"/><path fill="#88e0e8" fill-opacity="1.000" d="M32 17H33V18H32ZM34 26H35V27H34ZM30 27H31V28H30ZM178 39H179V40H178Z"/><path fill="#88e8e0" fill-opacity="1.000" d="M31 20H32V21H31Z"/><path fill="#88e8e8" fill-opacity="1.000" d="M182 11H183V12H182ZM37 23H38V24H37ZM28 24H29V25H28ZM10 31H11V32H10ZM200 33H201V34H200ZM199 34H200V35H199ZM15 36H16V37H15ZM176 40H177V41H176Z"/><path fill="#88e8f0" fill-opacity="1.000" d="M110 8H111V9H110ZM113 8H114V9H113ZM114 9H115V10H114ZM202 10H203V11H202ZM33 17H34V18H33ZM198 35H199V36H198ZM139 40H140V41H139Z"/><path fill="#88f0e8" fill-opacity="1.000" d="M29 23H30V24H29ZM201 32H202V33H201Z"/><path fill="#88f0f0" fill-opacity="1.000" d="M116 8H124V9H116ZM126 8H128V9H126ZM100 9H102V10H100ZM115 9H121V10H115ZM126 9H127V10H126ZM104 10H105V11H104ZM185 10H186V11H185ZM188 10H190V11H188ZM192 10H193V11H192ZM200 10H202V11H200ZM105 11H107V12H105ZM180 12H182V13H180ZM12 13H13V14H12ZM123 13H124V14H123ZM126 13H138V14H126ZM144 13H171V14H144ZM177 13H180V14H177ZM11 14H12V15H11ZM10 15H11V16H10ZM202 15H203V16H202ZM202 16H203V17H202ZM202 17H203V18H202ZM27 18H28V19H27ZM202 18H203V19H202ZM202 19H203V20H202ZM202 20H203V21H202ZM24 21H25V22H24ZM39 21H40V22H39ZM202 21H203V22H202ZM202 22H203V23H202ZM20 23H21V24H20ZM26 23H27V24H26ZM39 23H40V24H39ZM202 23H203V24H202ZM20 24H21V25H20ZM24 24H25V25H24ZM26 24H27V25H26ZM202 24H203V25H202ZM24 25H25V26H24ZM202 25H203V26H202ZM32 26H33V27H32ZM202 26H203V27H202ZM25 27H26V28H25ZM32 27H34V28H32ZM202 27H203V28H202ZM28 28H29V29H28ZM202 28H203V29H202ZM10 29H11V30H10ZM35 29H36V30H35ZM202 29H203V30H202ZM124 30H128V31H124ZM202 30H203V31H202ZM125 31H126V32H125ZM201 31H203V32H201ZM199 33H200V34H199ZM14 35H16V36H14ZM16 36H17V37H16ZM197 36H198V37H197ZM189 37H190V38H189ZM191 37H192V38H191ZM178 38H180V39H178ZM134 39H135V40H134Z"/><path fill="#88f0f8" fill-opacity="1.000" d="M121 9H122V10H121ZM123 9H124V10H123ZM182 12H183V13H182ZM118 13H122V14H118ZM106 14H108V15H106ZM124 14H127V15H124ZM10 16H11V17H10ZM33 16H34V17H33ZM43 16H44V17H43ZM43 17H44V18H43ZM10 18H11V19H10ZM39 19H40V20H39ZM190 19H191V20H190ZM25 20H26V21H25ZM45 20H129V21H45ZM182 20H187V21H182ZM190 20H192V21H190ZM18 21H20V22H18ZM40 21H42V22H40ZM44 21H130V22H44ZM180 21H188V22H180ZM190 21H192V22H190ZM196 21H197V22H196ZM18 22H21V23H18ZM22 22H24V23H22ZM25 22H26V23H25ZM42 22H43V23H42ZM44 22H137V23H44ZM140 22H188V23H140ZM190 22H192V23H190ZM196 22H197V23H196ZM18 23H20V24H18ZM24 23H26V24H24ZM42 23H138V24H42ZM140 23H192V24H140ZM196 23H197V24H196ZM18 24H20V25H18ZM43 24H192V25H43ZM196 24H197V25H196ZM18 25H20V26H18ZM23 25H24V26H23ZM25 25H26V26H25ZM43 25H188V26H43ZM189 25H192V26H189ZM196 25H197V26H196ZM25 26H27V27H25ZM41 26H42V27H41ZM108 26H188V27H108ZM189 26H192V27H189ZM196 26H197V27H196ZM108 27H140V28H108ZM172 27H188V28H172ZM190 27H192V28H190ZM25 28H26V29H25ZM38 28H39V29H38ZM44 28H45V29H44ZM124 28H140V29H124ZM172 28H180V29H172ZM190 28H192V29H190ZM27 29H28V30H27ZM29 29H30V30H29ZM42 29H43V30H42ZM124 29H141V30H124ZM142 29H143V30H142ZM144 29H145V30H144ZM146 29H147V30H146ZM148 29H149V30H148ZM150 29H151V30H150ZM152 29H153V30H152ZM154 29H155V30H154ZM156 29H157V30H156ZM158 29H159V30H158ZM160 29H161V30H160ZM162 29H163V30H162ZM164 29H165V30H164ZM166 29H167V30H166ZM168 29H169V30H168ZM170 29H179V30H170ZM20 30H28V31H20ZM30 30H35V31H30ZM128 30H133V31H128ZM137 30H177V31H137ZM22 31H25V32H22ZM126 31H131V32H126ZM138 31H175V32H138ZM142 32H143V33H142ZM144 32H145V33H144ZM146 32H147V33H146ZM148 32H149V33H148ZM150 32H151V33H150ZM152 32H153V33H152ZM154 32H155V33H154ZM156 32H157V33H156ZM158 32H159V33H158ZM160 32H161V33H160ZM162 32H163V33H162ZM164 32H165V33H164ZM166 32H167V33H166ZM168 32H169V33H168ZM170 32H171V33H170ZM12 33H13V34H12ZM14 34H15V35H14ZM198 34H199V35H198ZM180 37H181V38H180ZM133 38H134V39H133ZM176 39H177V40H176Z"/><path fill="#88f8f0" fill-opacity="1.000" d="M17 36H18V37H17Z"/><path fill="#88f8f8" fill-opacity="1.000" d="M124 9H125V10H124ZM105 12H106V13H105ZM104 13H105V14H104ZM108 13H109V14H108ZM113 13H115V14H113ZM182 13H183V14H182ZM25 16H26V17H25ZM39 16H40V17H39ZM24 17H26V18H24ZM23 18H25V19H23ZM28 18H29V19H28ZM41 18H43V19H41ZM20 19H21V20H20ZM22 19H24V20H22ZM43 19H44V20H43ZM10 20H11V21H10ZM20 20H21V21H20ZM22 20H24V21H22ZM41 20H42V21H41ZM20 21H21V22H20ZM22 21H24V22H22ZM42 21H43V22H42ZM21 22H22V23H21ZM41 22H42V23H41ZM43 22H44V23H43ZM188 22H190V23H188ZM22 23H24V24H22ZM40 23H42V24H40ZM22 24H24V25H22ZM41 24H43V25H41ZM20 25H21V26H20ZM22 25H23V26H22ZM40 25H41V26H40ZM42 25H43V26H42ZM188 25H189V26H188ZM21 26H22V27H21ZM24 26H25V27H24ZM40 26H41V27H40ZM44 26H108V27H44ZM21 27H22V28H21ZM24 27H25V28H24ZM41 27H42V28H41ZM140 27H172V28H140ZM22 28H23V29H22ZM24 28H25V29H24ZM27 28H28V29H27ZM39 28H40V29H39ZM140 28H172V29H140ZM20 29H21V30H20ZM22 29H23V30H22ZM25 29H26V30H25ZM28 29H29V30H28ZM37 29H38V30H37ZM39 29H41V30H39ZM200 32H201V33H200ZM16 35H17V36H16ZM197 35H198V36H197ZM177 38H178V39H177ZM136 39H137V40H136Z"/><path fill="#88f8ff" fill-opacity="1.000" d="M35 15H36V16H35ZM29 16H30V17H29ZM41 16H42V17H41ZM38 17H39V18H38ZM40 17H41V18H40ZM42 19H43V20H42ZM43 21H44V22H43ZM197 22H198V23H197ZM197 23H198V24H197ZM197 24H198V25H197ZM43 26H44V27H43ZM43 28H44V29H43ZM14 33H15V34H14ZM175 39H176V40H175Z"/><path fill="#88fff8" fill-opacity="1.000" d="M104 11H105V12H104Z"/><path fill="#88ffff" fill-opacity="1.000" d="M184 12H185V13H184Z"/><path fill="#90d0d8" fill-opacity="1.000" d="M183 9H184V10H183Z"/><path fill="#90d8e0" fill-opacity="1.000" d="M185 9H186V10H185ZM190 9H198V10H190ZM200 9H201V10H200Z"/><path fill="#90e0e0" fill-opacity="1.000" d="M187 9H190V10H187ZM198 9H200V10H198ZM203 10H204V11H203ZM9 20H10V21H9ZM9 30H10V31H9ZM203 31H204V32H203ZM10 32H11V33H10Z"/><path fill="#90e0e8" fill-opacity="1.000" d="M130 9H131V10H130ZM186 9H187V10H186ZM9 29H10V30H9ZM11 33H12V34H11Z"/><path fill="#90e8e8" fill-opacity="1.000" d="M104 9H105V10H104ZM106 10H107V11H106ZM183 10H184V11H183ZM124 12H125V13H124ZM126 12H128V13H126ZM130 12H136V13H130ZM140 12H148V13H140ZM174 12H179V13H174ZM36 21H37V22H36ZM35 22H36V23H35ZM30 23H31V24H30ZM29 25H30V26H29ZM33 25H34V26H33ZM17 37H18V38H17ZM179 39H180V40H179Z"/><path fill="#90e8f0" fill-opacity="1.000" d="M122 12H124V13H122ZM136 12H140V13H136ZM148 12H174V13H148ZM10 14H11V15H10ZM12 34H13V35H12ZM197 37H198V38H197Z"/><path fill="#90f0f0" fill-opacity="1.000" d="M128 8H129V9H128ZM17 9H20V10H17ZM22 9H24V10H22ZM28 9H96V10H28ZM102 9H103V10H102ZM129 9H130V10H129ZM15 10H16V11H15ZM105 10H106V11H105ZM184 10H185V11H184ZM13 11H14V12H13ZM12 12H13V13H12ZM109 12H110V13H109ZM114 12H116V13H114ZM117 12H118V13H117ZM119 12H122V13H119ZM129 12H130V13H129ZM179 12H180V13H179ZM124 13H126V14H124ZM32 19H35V20H32ZM34 20H35V21H34ZM38 20H39V21H38ZM32 21H33V22H32ZM36 22H37V23H36ZM36 24H37V25H36ZM31 26H32V27H31ZM31 27H32V28H31ZM10 30H11V31H10ZM11 32H12V33H11ZM202 32H203V33H202ZM13 35H14V36H13ZM14 36H15V37H14ZM198 36H199V37H198ZM19 37H125V38H19ZM127 37H131V38H127ZM181 37H189V38H181ZM190 37H191V38H190ZM192 37H197V38H192ZM132 38H133V39H132ZM133 39H134V40H133ZM135 40H137V41H135ZM140 40H172V41H140Z"/><path fill="#90f0f8" fill-opacity="1.000" d="M109 8H110V9H109ZM111 8H113V9H111ZM114 8H116V9H114ZM20 9H22V10H20ZM98 9H100V10H98ZM110 9H111V10H110ZM112 9H114V10H112ZM122 9H123V10H122ZM32 16H33V17H32ZM31 17H32V18H31ZM37 19H38V20H37ZM26 22H27V23H26ZM25 24H26V25H25ZM26 25H27V26H26ZM27 27H28V28H27ZM131 37H132V38H131ZM137 40H138V41H137Z"/><path fill="#90f8f0" fill-opacity="1.000" d="M24 9H28V10H24ZM28 23H29V24H28Z"/><path fill="#90f8f8" fill-opacity="1.000" d="M10 17H11V18H10ZM26 19H28V20H26ZM38 19H39V20H38ZM26 20H27V21H26ZM32 20H33V21H32ZM24 22H25V23H24ZM39 22H40V23H39ZM36 23H37V24H36ZM39 24H40V25H39ZM33 26H34V27H33ZM34 27H35V28H34Z"/><path fill="#90f8ff" fill-opacity="1.000" d="M106 13H107V14H106ZM42 15H43V16H42ZM39 18H40V19H39ZM40 20H41V21H40ZM25 21H26V22H25ZM42 27H43V28H42ZM172 40H173V41H172ZM175 40H176V41H175Z"/><path fill="#90ffff" fill-opacity="1.000" d="M39 26H40V27H39ZM38 27H39V28H38Z"/><path fill="#98d0d8" fill-opacity="1.000" d="M203 9H204V10H203Z"/><path fill="#98d8e0" fill-opacity="1.000" d="M202 9H203V10H202Z"/><path fill="#98e0e0" fill-opacity="1.000" d="M201 9H202V10H201Z"/><path fill="#98e0e8" fill-opacity="1.000" d="M15 9H16V10H15ZM9 15H10V16H9ZM9 19H10V20H9ZM9 21H10V22H9ZM9 22H10V23H9ZM9 23H10V24H9ZM31 23H32V24H31ZM9 24H10V25H9ZM9 25H10V26H9ZM9 26H10V27H9ZM9 27H10V28H9ZM9 28H10V29H9Z"/><path fill="#98e8e8" fill-opacity="1.000" d="M9 31H10V32H9ZM200 34H201V35H200ZM15 37H16V38H15Z"/><path fill="#98e8f0" fill-opacity="1.000" d="M34 23H35V24H34Z"/><path fill="#98f0f0" fill-opacity="1.000" d="M129 8H130V9H129ZM16 9H17V10H16ZM96 9H98V10H96ZM103 9H104V10H103ZM14 10H15V11H14ZM118 12H119V13H118ZM125 12H126V13H125ZM128 12H129V13H128ZM35 23H36V24H35ZM30 24H31V25H30ZM35 24H36V25H35ZM201 33H202V34H201ZM125 37H127V38H125ZM180 38H181V39H180ZM134 40H135V41H134Z"/><path fill="#98f0f8" fill-opacity="1.000" d="M113 12H114V13H113ZM116 12H117V13H116ZM33 21H34V22H33ZM36 25H37V26H36Z"/><path fill="#98f8f0" fill-opacity="1.000" d="M18 37H19V38H18Z"/><path fill="#98f8f8" fill-opacity="1.000" d="M107 12H109V13H107ZM110 12H112V13H110ZM31 19H32V20H31ZM29 22H30V23H29ZM29 24H30V25H29Z"/><path fill="#98f8ff" fill-opacity="1.000" d="M138 40H139V41H138Z"/><path fill="#a0e0e8" fill-opacity="1.000" d="M9 16H10V17H9Z"/><path fill="#a0e8f0" fill-opacity="1.000" d="M9 18H10V19H9Z"/><path fill="#a0f0f0" fill-opacity="1.000" d="M105 9H106V10H105ZM11 13H12V14H11ZM199 35H200V36H199ZM16 37H17V38H16ZM178 40H179V41H178Z"/><path fill="#a0f8f8" fill-opacity="1.000" d="M177 40H178V41H177Z"/><path fill="#a0f8ff" fill-opacity="1.000" d="M112 12H113V13H112Z"/></svg>