<svg xmlns="http://www.w3.org/2000/svg" width="236" height="54" viewBox="0 0 236 54" shape-rendering="geometricPrecision"><path fill="#000810" fill-opacity="0.063" d="M13 44H14V45H13ZM12 45H13V46H12Z"/><path fill="#001018" fill-opacity="0.063" d="M166 0H167V1H166ZM168 0H169V1H168ZM190 0H191V1H190ZM197 0H198V1H197ZM9 4H10V5H9ZM6 8H7V9H6ZM5 11H6V12H5ZM235 37H236V38H235ZM8 39H9V40H8ZM9 40H10V41H9ZM11 44H12V45H11ZM15 45H16V46H15ZM224 46H225V47H224ZM144 48H145V49H144ZM209 48H210V49H209ZM147 49H148V50H147ZM202 50H203V51H202ZM158 51H159V52H158ZM198 51H199V52H198Z"/><path fill="#001818" fill-opacity="0.063" d="M11 42H12V43H11Z"/><path fill="#001820" fill-opacity="0.063" d="M226 45H227V46H226Z"/><path fill="#081018" fill-opacity="0.063" d="M14 0H15V1H14ZM157 0H158V1H157ZM172 0H173V1H172ZM199 0H200V1H199ZM233 1H234V2H233ZM11 2H12V3H11ZM4 14H5V15H4ZM4 31H5V32H4ZM5 34H6V35H5ZM6 36H7V37H6ZM233 39H234V40H233ZM10 41H11V42H10ZM18 46H19V47H18ZM25 47H26V48H25ZM205 49H206V50H205ZM150 50H151V51H150Z"/><path fill="#081020" fill-opacity="0.063" d="M228 44H229V45H228Z"/><path fill="#081818" fill-opacity="0.063" d="M12 43H13V44H12Z"/><path fill="#081820" fill-opacity="0.063" d="M215 47H216V48H215Z"/><path fill="#001018" fill-opacity="0.125" d="M6 9H7V10H6ZM234 37H235V38H234ZM145 48H146V49H145ZM151 50H152V51H151ZM201 50H202V51H201ZM196 51H198V52H196Z"/><path fill="#001818" fill-opacity="0.125" d="M16 45H17V46H16ZM220 46H224V47H220ZM29 47H30V48H29ZM31 47H32V48H31ZM33 47H34V48H33ZM35 47H36V48H35ZM37 47H38V48H37ZM39 47H40V48H39ZM41 47H42V48H41ZM43 47H44V48H43ZM45 47H46V48H45ZM47 47H48V48H47ZM49 47H50V48H49ZM51 47H52V48H51ZM53 47H54V48H53ZM55 47H56V48H55ZM57 47H58V48H57ZM59 47H60V48H59ZM61 47H62V48H61ZM63 47H64V48H63ZM65 47H66V48H65ZM67 47H68V48H67ZM69 47H70V48H69ZM71 47H72V48H71ZM73 47H74V48H73ZM75 47H76V48H75ZM77 47H78V48H77ZM79 47H80V48H79ZM81 47H82V48H81ZM83 47H84V48H83ZM85 47H86V48H85ZM87 47H88V48H87ZM89 47H90V48H89ZM91 47H92V48H91ZM93 47H94V48H93ZM95 47H96V48H95ZM97 47H98V48H97ZM99 47H100V48H99ZM101 47H102V48H101ZM103 47H104V48H103ZM105 47H106V48H105ZM107 47H108V48H107ZM207 48H209V49H207ZM204 49H205V50H204Z"/><path fill="#001820" fill-opacity="0.125" d="M160 1H164V2H160ZM5 12H6V13H5ZM22 46H24V47H22ZM109 47H110V48H109ZM111 47H112V48H111ZM113 47H114V48H113ZM115 47H116V48H115ZM117 47H118V48H117ZM119 47H120V48H119ZM121 47H122V48H121ZM212 47H213V48H212ZM148 49H149V50H148ZM152 50H153V51H152ZM156 50H157V51H156ZM200 50H201V51H200Z"/><path fill="#081018" fill-opacity="0.125" d="M169 0H172V1H169ZM200 0H201V1H200ZM4 15H5V16H4ZM4 22H5V23H4ZM4 29H5V30H4ZM4 30H5V31H4ZM5 33H6V34H5ZM19 46H20V47H19ZM159 51H196V52H159Z"/><path fill="#081020" fill-opacity="0.125" d="M20 46H21V47H20Z"/><path fill="#081818" fill-opacity="0.125" d="M26 47H29V48H26ZM30 47H31V48H30ZM32 47H33V48H32ZM34 47H35V48H34ZM36 47H37V48H36ZM38 47H39V48H38ZM40 47H41V48H40ZM42 47H43V48H42ZM44 47H45V48H44ZM46 47H47V48H46ZM48 47H49V48H48ZM50 47H51V48H50ZM52 47H53V48H52ZM54 47H55V48H54ZM56 47H57V48H56ZM58 47H59V48H58ZM60 47H61V48H60ZM62 47H63V48H62ZM64 47H65V48H64ZM66 47H67V48H66ZM68 47H69V48H68ZM70 47H71V48H70ZM72 47H73V48H72ZM74 47H75V48H74ZM76 47H77V48H76ZM78 47H79V48H78ZM80 47H81V48H80ZM82 47H83V48H82ZM84 47H85V48H84ZM86 47H87V48H86ZM88 47H89V48H88ZM90 47H91V48H90ZM92 47H93V48H92ZM94 47H95V48H94ZM96 47H97V48H96ZM98 47H99V48H98ZM100 47H101V48H100ZM102 47H103V48H102ZM104 47H105V48H104ZM106 47H107V48H106Z"/><path fill="#081820" fill-opacity="0.125" d="M159 1H160V2H159ZM164 1H165V2H164ZM174 1H189V2H174ZM192 1H196V2H192ZM4 16H5V17H4ZM4 17H5V18H4ZM4 18H5V19H4ZM4 19H5V20H4ZM4 20H5V21H4ZM4 21H5V22H4ZM4 23H5V24H4ZM4 24H5V25H4ZM4 25H5V26H4ZM4 26H5V27H4ZM4 27H5V28H4ZM4 28H5V29H4ZM21 46H22V47H21ZM217 46H220V47H217ZM108 47H109V48H108ZM110 47H111V48H110ZM112 47H113V48H112ZM114 47H115V48H114ZM116 47H117V48H116ZM118 47H119V48H118ZM120 47H121V48H120ZM122 47H143V48H122ZM211 47H212V48H211ZM213 47H215V48H213ZM153 50H156V51H153Z"/><path fill="#001018" fill-opacity="0.188" d="M7 37H8V38H7ZM13 43H14V44H13ZM14 44H15V45H14ZM227 44H228V45H227ZM17 45H18V46H17Z"/><path fill="#001818" fill-opacity="0.188" d="M204 0H205V1H204ZM232 0H233V1H232ZM8 6H9V7H8ZM7 7H8V8H7ZM8 38H9V39H8ZM231 41H232V42H231ZM12 42H13V43H12ZM225 45H226V46H225Z"/><path fill="#001820" fill-opacity="0.188" d="M9 5H10V6H9ZM6 10H7V11H6ZM6 35H7V36H6ZM233 38H234V39H233ZM232 40H233V41H232ZM230 42H231V43H230ZM146 48H147V49H146ZM149 49H150V50H149ZM203 49H204V50H203ZM157 50H158V51H157ZM199 50H200V51H199Z"/><path fill="#081018" fill-opacity="0.188" d="M13 1H14V2H13ZM10 3H11V4H10Z"/><path fill="#081020" fill-opacity="0.188" d="M12 2H13V3H12Z"/><path fill="#081818" fill-opacity="0.188" d="M15 0H16V1H15ZM203 0H204V1H203ZM233 2H234V3H233ZM234 3H235V4H234ZM235 4H236V5H235ZM206 48H207V49H206Z"/><path fill="#081820" fill-opacity="0.188" d="M156 0H157V1H156ZM201 0H202V1H201ZM158 1H159V2H158ZM165 1H166V2H165ZM173 1H174V2H173ZM189 1H190V2H189ZM191 1H192V2H191ZM196 1H197V2H196ZM5 13H6V14H5ZM5 32H6V33H5ZM10 40H11V41H10ZM229 43H230V44H229ZM24 46H25V47H24ZM216 46H217V47H216ZM143 47H144V48H143ZM210 47H211V48H210Z"/><path fill="#001820" fill-opacity="0.251" d="M234 36H235V37H234Z"/><path fill="#081820" fill-opacity="0.251" d="M167 1H168V2H167ZM198 1H199V2H198Z"/><path fill="#001818" fill-opacity="1.000" d="M230 0H232V1H230ZM232 1H233V2H232ZM15 44H16V45H15ZM223 44H224V45H223ZM221 45H222V46H221Z"/><path fill="#001820" fill-opacity="1.000" d="M197 1H198V2H197ZM199 1H200V2H199ZM160 2H166V3H160ZM167 2H168V3H167ZM171 2H190V3H171ZM191 2H197V3H191ZM232 2H233V3H232ZM9 6H10V7H9ZM235 6H236V7H235ZM8 7H9V8H8ZM235 7H236V8H235ZM7 8H9V9H7ZM7 9H8V10H7ZM7 10H8V11H7ZM5 14H6V15H5ZM235 34H236V35H235ZM233 35H235V36H233ZM7 36H9V37H7ZM8 37H10V38H8ZM232 37H233V38H232ZM9 38H10V39H9ZM9 39H10V40H9ZM231 40H232V41H231ZM11 41H12V42H11ZM230 41H231V42H230ZM13 42H14V43H13ZM15 42H16V43H15ZM227 42H228V43H227ZM15 43H17V44H15ZM16 44H17V45H16ZM226 44H227V45H226ZM211 45H212V46H211ZM220 45H221V46H220ZM224 45H225V46H224ZM125 46H126V47H125ZM127 46H128V47H127ZM129 46H130V47H129ZM131 46H132V47H131ZM133 46H134V47H133ZM135 46H136V47H135ZM137 46H138V47H137ZM215 46H216V47H215ZM209 47H210V48H209ZM147 48H148V49H147ZM151 48H152V49H151ZM202 48H204V49H202ZM150 49H151V50H150ZM200 49H203V50H200ZM158 50H199V51H158Z"/><path fill="#002020" fill-opacity="1.000" d="M109 0H110V1H109ZM116 0H117V1H116ZM206 0H207V1H206ZM208 0H210V1H208ZM222 0H225V1H222ZM230 1H232V2H230ZM157 2H160V3H157ZM197 2H200V3H197ZM231 2H232V3H231ZM160 3H165V4H160ZM171 3H188V4H171ZM191 3H196V4H191ZM9 7H10V8H9ZM12 7H13V8H12ZM235 11H236V12H235ZM234 32H235V33H234ZM8 35H9V36H8ZM231 36H232V37H231ZM12 40H13V41H12ZM229 40H231V41H229ZM12 41H15V42H12ZM229 41H230V42H229ZM19 42H20V43H19ZM224 42H225V43H224ZM223 43H224V44H223ZM225 43H226V44H225ZM209 44H210V45H209ZM225 44H226V45H225ZM23 45H24V46H23ZM222 45H223V46H222ZM201 48H202V49H201Z"/><path fill="#002028" fill-opacity="1.000" d="M108 0H109V1H108ZM117 0H119V1H117ZM13 40H14V41H13ZM22 44H24V45H22Z"/><path fill="#002828" fill-opacity="1.000" d="M119 0H121V1H119ZM123 0H124V1H123ZM142 0H143V1H142ZM222 1H225V2H222ZM14 7H15V8H14ZM23 43H24V44H23ZM207 43H208V44H207Z"/><path fill="#002830" fill-opacity="1.000" d="M223 40H224V41H223ZM152 44H153V45H152Z"/><path fill="#003028" fill-opacity="1.000" d="M123 1H124V2H123Z"/><path fill="#003030" fill-opacity="1.000" d="M121 1H123V2H121ZM18 39H19V40H18ZM24 43H25V44H24ZM196 44H197V45H196Z"/><path fill="#003038" fill-opacity="1.000" d="M230 6H231V7H230ZM230 31H231V32H230ZM14 35H15V36H14ZM210 40H211V41H210ZM207 41H208V42H207Z"/><path fill="#003040" fill-opacity="1.000" d="M39 22H40V23H39ZM229 33H230V34H229ZM154 43H155V44H154Z"/><path fill="#003838" fill-opacity="1.000" d="M147 4H148V5H147ZM129 8H136V9H129ZM140 8H141V9H140ZM148 8H149V9H148ZM150 8H151V9H150ZM227 36H228V37H227Z"/><path fill="#003840" fill-opacity="1.000" d="M22 4H23V5H22ZM19 5H20V6H19ZM210 5H211V6H210ZM124 8H125V9H124ZM136 8H140V9H136ZM141 8H145V9H141ZM230 8H231V9H230ZM12 12H13V13H12ZM38 23H39V24H38ZM12 33H13V34H12ZM207 40H208V41H207Z"/><path fill="#004038" fill-opacity="1.000" d="M147 8H148V9H147Z"/><path fill="#004040" fill-opacity="1.000" d="M143 4H144V5H143ZM146 4H147V5H146ZM20 5H22V6H20ZM25 5H26V6H25ZM149 5H150V6H149ZM211 5H213V6H211ZM18 6H19V7H18ZM121 6H122V7H121ZM16 8H17V9H16ZM125 8H129V9H125ZM145 8H147V9H145ZM15 9H16V10H15ZM14 10H15V11H14ZM230 13H231V14H230ZM230 19H231V20H230ZM41 20H42V21H41ZM230 20H231V21H230ZM40 21H41V22H40ZM230 21H231V22H230ZM230 22H231V23H230ZM230 23H231V24H230ZM230 24H231V25H230ZM230 25H231V26H230ZM230 26H231V27H230ZM226 36H227V37H226ZM204 40H205V41H204ZM203 41H204V42H203Z"/><path fill="#004048" fill-opacity="1.000" d="M144 4H145V5H144ZM22 5H25V6H22ZM111 5H112V6H111ZM113 5H116V6H113ZM148 5H149V6H148ZM150 6H151V7H150ZM122 7H124V8H122ZM122 8H124V9H122ZM230 9H231V10H230ZM230 10H231V11H230ZM37 24H38V25H37ZM36 25H37V26H36ZM227 35H228V36H227ZM148 40H149V41H148Z"/><path fill="#004848" fill-opacity="1.000" d="M17 7H18V8H17Z"/><path fill="#004850" fill-opacity="1.000" d="M149 6H150V7H149ZM204 8H205V9H204Z"/><path fill="#005858" fill-opacity="1.000" d="M41 25H42V26H41Z"/><path fill="#081820" fill-opacity="1.000" d="M16 0H19V1H16ZM152 0H156V1H152ZM202 0H203V1H202ZM205 0H206V1H205ZM226 0H230V1H226ZM14 1H17V2H14ZM154 1H158V2H154ZM166 1H167V2H166ZM168 1H173V2H168ZM190 1H191V2H190ZM200 1H204V2H200ZM13 2H15V3H13ZM166 2H167V3H166ZM168 2H171V3H168ZM190 2H191V3H190ZM11 3H14V4H11ZM233 3H234V4H233ZM10 4H12V5H10ZM234 4H235V5H234ZM10 5H11V6H10ZM235 5H236V6H235ZM10 6H11V7H10ZM6 11H7V12H6ZM6 12H7V13H6ZM6 13H7V14H6ZM5 15H6V16H5ZM5 16H6V17H5ZM5 17H6V18H5ZM5 18H6V19H5ZM5 19H6V20H5ZM5 20H6V21H5ZM5 21H6V22H5ZM5 22H6V23H5ZM5 23H6V24H5ZM5 24H6V25H5ZM5 25H6V26H5ZM5 26H6V27H5ZM5 27H6V28H5ZM5 28H6V29H5ZM5 29H6V30H5ZM5 30H6V31H5ZM235 30H236V31H235ZM5 31H7V32H5ZM6 32H7V33H6ZM6 33H7V34H6ZM6 34H8V35H6ZM7 35H8V36H7ZM235 35H236V36H235ZM235 36H236V37H235ZM232 38H233V39H232ZM10 39H11V40H10ZM232 39H233V40H232ZM11 40H12V41H11ZM228 42H230V43H228ZM228 43H229V44H228ZM17 44H20V45H17ZM18 45H22V46H18ZM28 45H29V46H28ZM217 45H218V46H217ZM25 46H125V47H25ZM126 46H127V47H126ZM128 46H129V47H128ZM130 46H131V47H130ZM132 46H133V47H132ZM134 46H135V47H134ZM136 46H137V47H136ZM138 46H144V47H138ZM210 46H215V47H210ZM144 47H148V48H144ZM205 47H209V48H205ZM148 48H151V49H148ZM204 48H206V49H204ZM151 49H156V50H151ZM196 49H200V50H196Z"/><path fill="#081828" fill-opacity="1.000" d="M25 45H26V46H25ZM140 45H141V46H140Z"/><path fill="#082020" fill-opacity="1.000" d="M19 0H23V1H19ZM147 0H148V1H147ZM149 0H152V1H149ZM207 0H208V1H207ZM210 0H222V1H210ZM225 0H226V1H225ZM17 1H18V2H17ZM204 1H208V2H204ZM228 1H230V2H228ZM153 2H157V3H153ZM200 2H206V3H200ZM230 2H231V3H230ZM159 3H160V4H159ZM165 3H171V4H165ZM188 3H191V4H188ZM196 3H199V4H196ZM232 3H233V4H232ZM12 4H13V5H12ZM233 4H234V5H233ZM11 5H12V6H11ZM234 5H235V6H234ZM11 6H12V7H11ZM10 7H11V8H10ZM9 8H10V9H9ZM235 8H236V9H235ZM8 9H9V10H8ZM235 9H236V10H235ZM8 10H9V11H8ZM7 11H8V12H7ZM7 12H8V13H7ZM235 12H236V13H235ZM235 13H236V14H235ZM6 14H7V15H6ZM6 15H7V16H6ZM6 16H7V17H6ZM6 17H7V18H6ZM6 27H7V28H6ZM235 27H236V28H235ZM6 28H7V29H6ZM235 28H236V29H235ZM6 29H7V30H6ZM235 29H236V30H235ZM6 30H7V31H6ZM234 31H235V32H234ZM7 32H8V33H7ZM235 32H236V33H235ZM7 33H8V34H7ZM235 33H236V34H235ZM234 34H235V35H234ZM9 36H10V37H9ZM10 38H12V39H10ZM231 38H232V39H231ZM11 39H12V40H11ZM230 39H232V40H230ZM228 40H229V41H228ZM228 41H229V42H228ZM14 42H15V43H14ZM14 43H15V44H14ZM17 43H18V44H17ZM226 43H228V44H226ZM221 44H223V45H221ZM22 45H23V46H22ZM24 45H25V46H24ZM29 45H110V46H29ZM111 45H112V46H111ZM113 45H114V46H113ZM115 45H116V46H115ZM117 45H118V46H117ZM119 45H120V46H119ZM121 45H122V46H121ZM123 45H124V46H123ZM125 45H126V46H125ZM127 45H128V46H127ZM129 45H130V46H129ZM131 45H132V46H131ZM133 45H134V46H133ZM135 45H136V46H135ZM137 45H138V46H137ZM212 45H217V46H212ZM218 45H220V46H218ZM223 45H224V46H223ZM144 46H148V47H144ZM206 46H210V47H206ZM148 47H150V48H148ZM204 47H205V48H204ZM152 48H155V49H152ZM199 48H201V49H199ZM156 49H196V50H156Z"/><path fill="#082028" fill-opacity="1.000" d="M23 0H108V1H23ZM110 0H116V1H110ZM145 0H147V1H145ZM20 1H22V2H20ZM208 1H216V2H208ZM225 1H228V2H225ZM228 2H230V3H228ZM14 3H15V4H14ZM155 3H159V4H155ZM199 3H201V4H199ZM231 3H232V4H231ZM13 4H15V5H13ZM164 4H196V5H164ZM232 4H233V5H232ZM12 5H13V6H12ZM233 5H234V6H233ZM233 6H235V7H233ZM11 7H12V8H11ZM234 7H235V8H234ZM10 8H11V9H10ZM234 8H235V9H234ZM9 9H10V10H9ZM234 9H235V10H234ZM9 10H10V11H9ZM235 10H236V11H235ZM8 11H9V12H8ZM8 12H9V13H8ZM7 13H8V14H7ZM7 14H8V15H7ZM235 14H236V15H235ZM7 15H8V16H7ZM235 15H236V16H235ZM7 16H8V17H7ZM235 16H236V17H235ZM7 17H8V18H7ZM235 17H236V18H235ZM6 18H7V19H6ZM235 18H236V19H235ZM6 19H7V20H6ZM235 19H236V20H235ZM6 20H7V21H6ZM235 20H236V21H235ZM6 21H7V22H6ZM235 21H236V22H235ZM6 22H7V23H6ZM235 22H236V23H235ZM6 23H7V24H6ZM235 23H236V24H235ZM6 24H7V25H6ZM235 24H236V25H235ZM6 25H7V26H6ZM235 25H236V26H235ZM6 26H7V27H6ZM235 26H236V27H235ZM7 27H8V28H7ZM7 28H8V29H7ZM7 29H8V30H7ZM7 30H8V31H7ZM7 31H8V32H7ZM8 32H9V33H8ZM8 33H9V34H8ZM233 33H235V34H233ZM8 34H9V35H8ZM9 35H10V36H9ZM10 36H11V37H10ZM232 36H234V37H232ZM10 37H12V38H10ZM233 37H234V38H233ZM12 38H13V39H12ZM12 39H13V40H12ZM14 40H15V41H14ZM16 40H17V41H16ZM15 41H16V42H15ZM17 41H18V42H17ZM227 41H228V42H227ZM17 42H19V43H17ZM225 42H227V43H225ZM20 43H21V44H20ZM220 43H221V44H220ZM224 43H225V44H224ZM20 44H22V45H20ZM24 44H26V45H24ZM29 44H140V45H29ZM142 44H144V45H142ZM210 44H211V45H210ZM212 44H221V45H212ZM224 44H225V45H224ZM110 45H111V46H110ZM112 45H113V46H112ZM114 45H115V46H114ZM116 45H117V46H116ZM118 45H119V46H118ZM120 45H121V46H120ZM122 45H123V46H122ZM124 45H125V46H124ZM126 45H127V46H126ZM128 45H129V46H128ZM130 45H131V46H130ZM132 45H133V46H132ZM134 45H135V46H134ZM136 45H137V46H136ZM138 45H140V46H138ZM142 45H146V46H142ZM206 45H210V46H206ZM148 46H150V47H148ZM203 46H206V47H203ZM150 47H154V48H150ZM199 47H204V48H199ZM155 48H199V49H155Z"/><path fill="#082030" fill-opacity="1.000" d="M231 34H232V35H231ZM140 44H142V45H140Z"/><path fill="#082820" fill-opacity="1.000" d="M152 2H153V3H152Z"/><path fill="#082828" fill-opacity="1.000" d="M121 0H122V1H121ZM124 0H142V1H124ZM143 0H145V1H143ZM23 1H26V2H23ZM108 1H112V2H108ZM117 1H119V2H117ZM217 1H222V2H217ZM150 2H152V3H150ZM206 2H210V3H206ZM152 3H155V4H152ZM201 3H204V4H201ZM230 3H231V4H230ZM158 4H164V5H158ZM196 4H200V5H196ZM231 4H232V5H231ZM13 5H14V6H13ZM232 5H233V6H232ZM12 6H14V7H12ZM11 8H12V9H11ZM10 9H11V10H10ZM234 10H235V11H234ZM9 11H10V12H9ZM234 11H235V12H234ZM233 12H235V13H233ZM8 13H9V14H8ZM234 13H235V14H234ZM234 14H235V15H234ZM234 15H235V16H234ZM234 16H235V17H234ZM234 17H235V18H234ZM7 18H8V19H7ZM234 18H235V19H234ZM7 19H8V20H7ZM234 19H235V20H234ZM7 20H8V21H7ZM234 20H235V21H234ZM7 21H8V22H7ZM234 21H235V22H234ZM7 22H8V23H7ZM234 22H235V23H234ZM7 23H8V24H7ZM234 23H235V24H234ZM7 24H8V25H7ZM234 24H235V25H234ZM7 25H8V26H7ZM234 25H235V26H234ZM7 26H8V27H7ZM234 26H235V27H234ZM234 27H235V28H234ZM234 28H235V29H234ZM9 34H10V35H9ZM11 36H12V37H11ZM229 38H231V39H229ZM13 39H14V40H13ZM228 39H230V40H228ZM226 40H227V41H226ZM225 41H227V42H225ZM21 43H23V44H21ZM210 43H211V44H210ZM217 43H220V44H217ZM144 44H145V45H144ZM205 44H206V45H205ZM211 44H212V45H211ZM146 45H149V46H146ZM150 45H151V46H150ZM150 46H152V47H150ZM202 46H203V47H202Z"/><path fill="#082830" fill-opacity="1.000" d="M26 1H108V2H26ZM112 1H116V2H112ZM21 2H22V3H21ZM210 2H213V3H210ZM225 2H227V3H225ZM229 3H230V4H229ZM155 4H158V5H155ZM200 4H201V5H200ZM230 4H231V5H230ZM14 5H15V6H14ZM160 5H166V6H160ZM172 5H188V6H172ZM190 5H198V6H190ZM231 5H232V6H231ZM231 6H232V7H231ZM233 7H234V8H233ZM233 8H234V9H233ZM233 9H234V10H233ZM9 12H10V13H9ZM9 13H10V14H9ZM8 14H9V15H8ZM8 15H9V16H8ZM8 16H9V17H8ZM8 17H9V18H8ZM8 18H9V19H8ZM233 18H234V19H233ZM8 19H9V20H8ZM233 19H234V20H233ZM8 20H9V21H8ZM8 21H9V22H8ZM8 22H9V23H8ZM8 23H9V24H8ZM8 24H9V25H8ZM8 25H9V26H8ZM8 26H9V27H8ZM233 26H234V27H233ZM8 27H9V28H8ZM233 27H234V28H233ZM8 28H9V29H8ZM8 29H9V30H8ZM8 30H9V31H8ZM8 31H10V32H8ZM9 32H10V33H9ZM9 33H10V34H9ZM232 33H233V34H232ZM232 34H233V35H232ZM10 35H11V36H10ZM230 35H231V36H230ZM229 37H231V38H229ZM14 39H15V40H14ZM227 39H228V40H227ZM225 40H226V41H225ZM221 41H222V42H221ZM21 42H22V43H21ZM25 43H142V44H25ZM215 43H217V44H215ZM145 44H148V45H145ZM204 44H205V45H204ZM206 44H207V45H206ZM153 45H154V46H153ZM202 45H204V46H202ZM205 45H206V46H205ZM152 46H153V47H152ZM197 46H198V47H197ZM199 46H202V47H199ZM155 47H199V48H155Z"/><path fill="#083030" fill-opacity="1.000" d="M122 0H123V1H122ZM119 1H121V2H119ZM124 1H142V2H124ZM143 1H144V2H143ZM28 2H109V3H28ZM110 2H113V3H110ZM120 2H122V3H120ZM124 2H126V3H124ZM127 2H128V3H127ZM129 2H130V3H129ZM131 2H132V3H131ZM143 2H146V3H143ZM148 2H149V3H148ZM222 2H225V3H222ZM22 3H23V4H22ZM123 3H124V4H123ZM149 3H152V4H149ZM207 3H212V4H207ZM222 3H227V4H222ZM122 4H123V5H122ZM152 4H154V5H152ZM15 5H16V6H15ZM15 6H16V7H15ZM13 9H14V10H13ZM9 14H10V15H9ZM9 15H10V16H9ZM9 16H10V17H9ZM233 16H234V17H233ZM9 17H10V18H9ZM233 17H234V18H233ZM9 18H10V19H9ZM9 19H10V20H9ZM9 20H10V21H9ZM233 20H234V21H233ZM9 21H10V22H9ZM233 21H234V22H233ZM9 22H10V23H9ZM233 22H234V23H233ZM9 23H10V24H9ZM233 23H234V24H233ZM9 24H10V25H9ZM233 24H234V25H233ZM9 25H10V26H9ZM233 25H234V26H233ZM9 26H10V27H9ZM9 27H10V28H9ZM9 28H10V29H9ZM9 29H10V30H9ZM9 30H10V31H9ZM228 37H229V38H228ZM227 38H229V39H227ZM19 40H20V41H19ZM22 42H29V43H22ZM139 42H144V43H139ZM205 42H206V43H205ZM208 42H210V43H208ZM211 42H212V43H211ZM214 42H220V43H214ZM206 43H207V44H206ZM148 44H151V45H148ZM202 44H204V45H202ZM198 45H202V46H198ZM157 46H158V47H157ZM159 46H160V47H159ZM161 46H162V47H161ZM163 46H164V47H163ZM165 46H166V47H165ZM167 46H168V47H167ZM169 46H170V47H169ZM171 46H172V47H171ZM173 46H174V47H173ZM175 46H176V47H175ZM177 46H178V47H177ZM179 46H180V47H179ZM181 46H182V47H181ZM183 46H184V47H183ZM185 46H186V47H185ZM187 46H197V47H187Z"/><path fill="#083038" fill-opacity="1.000" d="M126 2H127V3H126ZM128 2H129V3H128ZM130 2H131V3H130ZM132 2H141V3H132ZM20 3H22V4H20ZM23 3H25V4H23ZM148 3H149V4H148ZM18 4H20V5H18ZM151 4H152V5H151ZM208 4H209V5H208ZM16 5H18V6H16ZM121 5H122V6H121ZM229 5H231V6H229ZM16 6H17V7H16ZM231 7H233V8H231ZM231 8H232V9H231ZM13 10H14V11H13ZM232 20H233V21H232ZM232 21H233V22H232ZM231 30H232V31H231ZM11 33H12V34H11ZM230 34H231V35H230ZM15 37H16V38H15ZM224 39H225V40H224ZM216 41H221V42H216ZM155 44H156V45H155ZM157 45H158V46H157ZM159 45H160V46H159ZM161 45H164V46H161ZM165 45H166V46H165ZM167 45H168V46H167ZM169 45H170V46H169ZM171 45H172V46H171ZM173 45H174V46H173ZM175 45H176V46H175ZM177 45H178V46H177ZM179 45H180V46H179ZM181 45H182V46H181ZM183 45H184V46H183ZM185 45H186V46H185ZM194 45H197V46H194Z"/><path fill="#083040" fill-opacity="1.000" d="M152 6H153V7H152ZM153 7H154V8H153Z"/><path fill="#083830" fill-opacity="1.000" d="M122 2H123V3H122ZM122 3H123V4H122ZM26 41H28V42H26Z"/><path fill="#083838" fill-opacity="1.000" d="M123 2H124V3H123ZM144 3H148V4H144ZM149 4H151V5H149ZM209 4H214V5H209ZM223 4H224V5H223ZM226 4H227V5H226ZM152 5H153V6H152ZM207 5H208V6H207ZM15 7H16V8H15ZM12 11H13V12H12ZM11 32H12V33H11ZM225 38H226V39H225ZM28 41H145V42H28ZM208 41H209V42H208ZM210 41H211V42H210ZM212 41H216V42H212ZM149 42H150V43H149ZM198 43H199V44H198ZM194 44H196V45H194ZM197 44H201V45H197ZM197 45H198V46H197Z"/><path fill="#083840" fill-opacity="1.000" d="M140 3H141V4H140ZM143 3H144V4H143ZM20 4H22V5H20ZM23 4H26V5H23ZM124 4H125V5H124ZM224 4H226V5H224ZM18 5H19V6H18ZM151 5H152V6H151ZM208 5H210V6H208ZM214 5H220V6H214ZM228 5H229V6H228ZM205 6H206V7H205ZM14 9H15V10H14ZM231 10H232V11H231ZM11 13H12V14H11ZM11 14H12V15H11ZM11 15H12V16H11ZM231 20H232V21H231ZM231 21H232V22H231ZM11 22H12V23H11ZM231 22H232V23H231ZM231 23H232V24H231ZM231 24H232V25H231ZM231 25H232V26H231ZM11 29H12V30H11ZM11 30H12V31H11ZM11 31H12V32H11ZM230 33H231V34H230ZM13 34H14V35H13ZM229 34H230V35H229ZM228 35H229V36H228ZM17 38H18V39H17ZM26 40H27V41H26ZM220 40H221V41H220ZM147 41H148V42H147ZM150 42H151V43H150ZM203 42H204V43H203ZM152 43H153V44H152ZM155 43H156V44H155ZM158 43H196V44H158ZM199 43H200V44H199ZM159 44H160V45H159ZM161 44H162V45H161ZM163 44H164V45H163ZM165 44H166V45H165ZM167 44H168V45H167ZM169 44H170V45H169ZM171 44H172V45H171ZM173 44H174V45H173ZM175 44H176V45H175ZM177 44H178V45H177ZM179 44H180V45H179ZM181 44H182V45H181ZM183 44H184V45H183ZM185 44H186V45H185Z"/><path fill="#083848" fill-opacity="1.000" d="M151 7H152V8H151Z"/><path fill="#084040" fill-opacity="1.000" d="M125 4H140V5H125ZM148 4H149V5H148ZM28 5H110V6H28ZM117 5H118V6H117ZM150 5H151V6H150ZM213 5H214V6H213ZM222 5H228V6H222ZM17 6H18V7H17ZM206 6H207V7H206ZM16 7H17V8H16ZM204 7H205V8H204ZM15 8H16V9H15ZM230 14H231V15H230ZM230 15H231V16H230ZM11 16H12V17H11ZM230 16H231V17H230ZM11 17H12V18H11ZM230 17H231V18H230ZM11 18H12V19H11ZM230 18H231V19H230ZM11 19H12V20H11ZM11 20H12V21H11ZM11 21H12V22H11ZM11 23H12V24H11ZM11 24H12V25H11ZM11 25H12V26H11ZM11 26H12V27H11ZM11 27H12V28H11ZM230 27H231V28H230ZM11 28H12V29H11ZM230 28H231V29H230ZM230 29H231V30H230ZM16 37H17V38H16ZM225 37H227V38H225ZM27 40H146V41H27ZM205 40H206V41H205ZM208 40H210V41H208ZM212 40H220V41H212ZM148 41H149V42H148ZM204 41H205V42H204ZM156 43H158V44H156ZM197 43H198V44H197Z"/><path fill="#084048" fill-opacity="1.000" d="M140 4H143V5H140ZM145 4H146V5H145ZM26 5H28V6H26ZM110 5H111V6H110ZM112 5H113V6H112ZM116 5H117V6H116ZM118 5H119V6H118ZM150 7H151V8H150ZM205 7H206V8H205ZM203 8H204V9H203ZM13 11H14V12H13ZM228 34H229V35H228ZM224 38H225V39H224ZM146 40H148V41H146ZM206 40H207V41H206ZM149 41H150V42H149ZM202 42H203V43H202Z"/><path fill="#084848" fill-opacity="1.000" d="M230 12H231V13H230ZM18 38H19V39H18Z"/><path fill="#084850" fill-opacity="1.000" d="M230 11H231V12H230ZM16 36H17V37H16Z"/><path fill="#085058" fill-opacity="1.000" d="M36 20H37V21H36ZM37 21H38V22H37Z"/><path fill="#085860" fill-opacity="1.000" d="M40 24H41V25H40Z"/><path fill="#101820" fill-opacity="1.000" d="M15 2H16V3H15ZM12 44H13V45H12ZM27 45H28V46H27Z"/><path fill="#101828" fill-opacity="1.000" d="M26 45H27V46H26Z"/><path fill="#102020" fill-opacity="1.000" d="M151 1H154V2H151ZM235 31H236V32H235Z"/><path fill="#102028" fill-opacity="1.000" d="M148 0H149V1H148ZM18 1H20V2H18ZM150 1H151V2H150ZM216 1H217V2H216ZM16 2H18V3H16ZM15 3H16V4H15ZM18 43H19V44H18ZM26 44H29V45H26ZM141 45H142V46H141ZM210 45H211V46H210Z"/><path fill="#102030" fill-opacity="1.000" d="M18 2H19V3H18ZM16 3H17V4H16Z"/><path fill="#102828" fill-opacity="1.000" d="M22 1H23V2H22ZM148 1H150V2H148ZM19 2H20V3H19ZM204 3H206V4H204ZM234 29H235V30H234ZM234 30H235V31H234ZM233 31H234V32H233ZM221 43H222V44H221Z"/><path fill="#102830" fill-opacity="1.000" d="M146 1H148V2H146ZM20 2H21V3H20ZM22 2H23V3H22ZM149 2H150V3H149ZM213 2H222V3H213ZM227 2H228V3H227ZM17 3H20V4H17ZM116 3H117V4H116ZM206 3H207V4H206ZM15 4H17V5H15ZM201 4H202V5H201ZM203 4H205V5H203ZM158 5H160V6H158ZM166 5H172V6H166ZM188 5H190V6H188ZM198 5H199V6H198ZM232 6H233V7H232ZM11 9H12V10H11ZM10 10H11V11H10ZM233 10H234V11H233ZM233 28H234V29H233ZM233 29H234V30H233ZM233 30H234V31H233ZM232 31H233V32H232ZM232 32H234V33H232ZM10 34H11V35H10ZM233 34H234V35H233ZM11 35H12V36H11ZM232 35H233V36H232ZM12 36H14V37H12ZM230 36H231V37H230ZM12 37H14V38H12ZM231 37H232V38H231ZM15 40H16V41H15ZM17 40H18V41H17ZM227 40H228V41H227ZM16 41H17V42H16ZM16 42H17V43H16ZM20 42H21V43H20ZM221 42H224V43H221ZM19 43H20V44H19ZM142 43H143V44H142ZM212 43H215V44H212ZM222 43H223V44H222ZM208 44H209V45H208ZM153 46H156V47H153ZM198 46H199V47H198ZM154 47H155V48H154Z"/><path fill="#103030" fill-opacity="1.000" d="M116 1H117V2H116ZM142 1H143V2H142ZM144 1H146V2H144ZM23 2H28V3H23ZM109 2H110V3H109ZM113 2H118V3H113ZM119 2H120V3H119ZM146 2H148V3H146ZM26 3H27V4H26ZM119 3H120V4H119ZM212 3H222V4H212ZM227 3H229V4H227ZM154 4H155V5H154ZM202 4H203V5H202ZM205 4H208V5H205ZM156 5H158V6H156ZM199 5H204V6H199ZM159 6H199V7H159ZM12 8H14V9H12ZM12 9H13V10H12ZM11 10H12V11H11ZM10 11H11V12H10ZM233 11H234V12H233ZM10 12H11V13H10ZM233 13H234V14H233ZM233 14H234V15H233ZM233 15H234V16H233ZM232 30H233V31H232ZM10 32H11V33H10ZM10 33H11V34H10ZM229 36H230V37H229ZM13 38H16V39H13ZM15 39H16V40H15ZM226 39H227V40H226ZM21 41H23V42H21ZM24 41H26V42H24ZM224 41H225V42H224ZM29 42H139V43H29ZM212 42H214V43H212ZM143 43H149V44H143ZM208 43H210V44H208ZM211 43H212V44H211ZM207 44H208V45H207ZM149 45H150V46H149ZM151 45H152V46H151ZM204 45H205V46H204ZM156 46H157V47H156ZM158 46H159V47H158ZM160 46H161V47H160ZM162 46H163V47H162ZM164 46H165V47H164ZM166 46H167V47H166ZM168 46H169V47H168ZM170 46H171V47H170ZM172 46H173V47H172ZM174 46H175V47H174ZM176 46H177V47H176ZM178 46H179V47H178ZM180 46H181V47H180ZM182 46H183V47H182ZM184 46H185V47H184ZM186 46H187V47H186Z"/><path fill="#103038" fill-opacity="1.000" d="M118 2H119V3H118ZM141 2H143V3H141ZM25 3H26V4H25ZM27 3H116V4H27ZM117 3H118V4H117ZM17 4H18V5H17ZM214 4H216V5H214ZM219 4H221V5H219ZM228 4H230V5H228ZM153 5H156V6H153ZM204 5H206V6H204ZM14 6H15V7H14ZM156 6H159V7H156ZM199 6H201V7H199ZM13 7H14V8H13ZM161 7H196V8H161ZM232 8H233V9H232ZM232 9H233V10H232ZM12 10H13V11H12ZM232 10H233V11H232ZM11 11H12V12H11ZM232 11H233V12H232ZM232 12H233V13H232ZM10 13H11V14H10ZM10 14H11V15H10ZM232 14H233V15H232ZM10 15H11V16H10ZM232 15H233V16H232ZM10 16H11V17H10ZM232 16H233V17H232ZM10 17H11V18H10ZM232 17H233V18H232ZM10 18H11V19H10ZM232 18H233V19H232ZM10 19H11V20H10ZM232 19H233V20H232ZM10 20H11V21H10ZM10 21H11V22H10ZM10 22H11V23H10ZM232 22H233V23H232ZM10 23H11V24H10ZM232 23H233V24H232ZM10 24H11V25H10ZM232 24H233V25H232ZM10 25H11V26H10ZM232 25H233V26H232ZM10 26H11V27H10ZM232 26H233V27H232ZM10 27H11V28H10ZM232 27H233V28H232ZM10 28H11V29H10ZM232 28H233V29H232ZM10 29H11V30H10ZM232 29H233V30H232ZM10 30H11V31H10ZM10 31H11V32H10ZM231 32H232V33H231ZM11 34H13V35H11ZM12 35H13V36H12ZM16 39H17V40H16ZM225 39H226V40H225ZM18 41H21V42H18ZM23 41H24V42H23ZM222 41H224V42H222ZM144 42H147V43H144ZM210 42H211V43H210ZM220 42H221V43H220ZM202 43H203V44H202ZM204 43H205V44H204ZM152 45H153V46H152ZM154 45H157V46H154ZM158 45H159V46H158ZM160 45H161V46H160ZM164 45H165V46H164ZM166 45H167V46H166ZM168 45H169V46H168ZM170 45H171V46H170ZM172 45H173V46H172ZM174 45H175V46H174ZM176 45H177V46H176ZM178 45H179V46H178ZM180 45H181V46H180ZM182 45H183V46H182ZM184 45H185V46H184ZM186 45H194V46H186Z"/><path fill="#103040" fill-opacity="1.000" d="M119 4H120V5H119ZM216 4H219V5H216ZM154 6H156V7H154ZM155 7H156V8H155ZM231 29H232V30H231ZM231 33H232V34H231Z"/><path fill="#103838" fill-opacity="1.000" d="M120 3H121V4H120ZM221 4H223V5H221ZM227 4H228V5H227ZM206 5H207V6H206ZM201 6H204V7H201ZM157 7H161V8H157ZM196 7H199V8H196ZM153 8H154V9H153ZM11 12H12V13H11ZM232 13H233V14H232ZM228 36H229V37H228ZM18 40H19V41H18ZM25 40H26V41H25ZM145 41H146V42H145ZM211 41H212V42H211ZM147 42H148V43H147ZM206 42H207V43H206ZM149 43H150V44H149ZM151 44H152V45H151ZM192 44H194V45H192ZM201 44H202V45H201Z"/><path fill="#103840" fill-opacity="1.000" d="M124 3H140V4H124ZM141 3H143V4H141ZM26 4H119V5H26ZM121 4H122V5H121ZM220 5H222V6H220ZM204 6H205V7H204ZM156 7H157V8H156ZM199 7H203V8H199ZM14 8H15V9H14ZM155 8H201V9H155ZM231 11H232V12H231ZM231 12H232V13H231ZM231 13H232V14H231ZM231 14H232V15H231ZM231 15H232V16H231ZM231 16H232V17H231ZM231 17H232V18H231ZM231 18H232V19H231ZM231 19H232V20H231ZM231 26H232V27H231ZM231 27H232V28H231ZM231 28H232V29H231ZM231 31H232V32H231ZM229 35H230V36H229ZM227 37H228V38H227ZM16 38H17V39H16ZM226 38H227V39H226ZM17 39H18V40H17ZM20 40H25V41H20ZM222 40H223V41H222ZM146 41H147V42H146ZM148 42H149V43H148ZM204 42H205V43H204ZM150 43H152V44H150ZM200 43H202V44H200ZM203 43H204V44H203ZM153 44H155V45H153ZM156 44H159V45H156ZM160 44H161V45H160ZM162 44H163V45H162ZM164 44H165V45H164ZM166 44H167V45H166ZM168 44H169V45H168ZM170 44H171V45H170ZM172 44H173V45H172ZM174 44H175V45H174ZM176 44H177V45H176ZM178 44H179V45H178ZM180 44H181V45H180ZM182 44H183V45H182ZM184 44H185V45H184ZM186 44H192V45H186Z"/><path fill="#103848" fill-opacity="1.000" d="M153 6H154V7H153Z"/><path fill="#104038" fill-opacity="1.000" d="M121 3H122V4H121ZM154 8H155V9H154Z"/><path fill="#104040" fill-opacity="1.000" d="M120 5H121V6H120ZM203 7H204V8H203ZM151 8H152V9H151ZM201 8H203V9H201ZM15 36H16V37H15ZM221 40H222V41H221ZM205 41H207V42H205ZM209 41H210V42H209ZM207 42H208V43H207Z"/><path fill="#104048" fill-opacity="1.000" d="M119 5H120V6H119ZM122 6H123V7H122ZM152 7H153V8H152ZM231 9H232V10H231ZM230 32H231V33H230ZM223 39H224V40H223ZM211 40H212V41H211ZM153 43H154V44H153ZM196 43H197V44H196Z"/><path fill="#104050" fill-opacity="1.000" d="M151 6H152V7H151ZM230 30H231V31H230Z"/><path fill="#104848" fill-opacity="1.000" d="M149 8H150V9H149Z"/><path fill="#104850" fill-opacity="1.000" d="M38 22H39V23H38ZM19 39H20V40H19Z"/><path fill="#104858" fill-opacity="1.000" d="M39 23H40V24H39Z"/><path fill="#105050" fill-opacity="1.000" d="M12 32H13V33H12ZM13 33H14V34H13ZM14 34H15V35H14ZM15 35H16V36H15ZM17 37H18V38H17Z"/><path fill="#105858" fill-opacity="1.000" d="M150 41H151V42H150Z"/><path fill="#183038" fill-opacity="1.000" d="M118 3H119V4H118ZM14 37H15V38H14Z"/><path fill="#183838" fill-opacity="1.000" d="M231 35H232V36H231Z"/><path fill="#183840" fill-opacity="1.000" d="M120 4H121V5H120ZM14 36H15V37H14ZM224 40H225V41H224ZM205 43H206V44H205Z"/><path fill="#184048" fill-opacity="1.000" d="M123 4H124V5H123ZM122 5H123V6H122ZM13 35H14V36H13Z"/><path fill="#184050" fill-opacity="1.000" d="M154 7H155V8H154Z"/><path fill="#184848" fill-opacity="1.000" d="M152 8H153V9H152Z"/><path fill="#184850" fill-opacity="1.000" d="M230 7H231V8H230Z"/><path fill="#185058" fill-opacity="1.000" d="M206 39H207V40H206ZM211 39H212V40H211ZM222 39H223V40H222ZM151 42H152V43H151Z"/><path fill="#185858" fill-opacity="1.000" d="M27 39H28V40H27Z"/><path fill="#185860" fill-opacity="1.000" d="M147 39H148V40H147ZM219 39H222V40H219Z"/><path fill="#186068" fill-opacity="1.000" d="M149 40H150V41H149Z"/><path fill="#205058" fill-opacity="1.000" d="M22 39H25V40H22Z"/><path fill="#205858" fill-opacity="1.000" d="M20 39H22V40H20ZM25 39H27V40H25ZM28 39H140V40H28Z"/><path fill="#205860" fill-opacity="1.000" d="M140 39H147V40H140ZM208 39H211V40H208ZM212 39H219V40H212Z"/><path fill="#208888" fill-opacity="1.000" d="M33 20H34V21H33Z"/><path fill="#286068" fill-opacity="1.000" d="M205 39H206V40H205ZM207 39H208V40H207Z"/><path fill="#287070" fill-opacity="1.000" d="M210 6H211V7H210Z"/><path fill="#287078" fill-opacity="1.000" d="M148 39H149V40H148Z"/><path fill="#288890" fill-opacity="1.000" d="M36 17H37V18H36ZM37 28H38V29H37Z"/><path fill="#289090" fill-opacity="1.000" d="M44 20H45V21H44ZM33 24H34V25H33Z"/><path fill="#306868" fill-opacity="1.000" d="M149 9H150V10H149Z"/><path fill="#307068" fill-opacity="1.000" d="M152 9H153V10H152ZM154 9H155V10H154Z"/><path fill="#307070" fill-opacity="1.000" d="M151 9H152V10H151Z"/><path fill="#307078" fill-opacity="1.000" d="M156 9H160V10H156ZM161 9H168V10H161ZM172 9H203V10H172Z"/><path fill="#307878" fill-opacity="1.000" d="M203 9H204V10H203Z"/><path fill="#307880" fill-opacity="1.000" d="M211 6H212V7H211Z"/><path fill="#308890" fill-opacity="1.000" d="M204 9H205V10H204ZM41 24H42V25H41ZM35 27H36V28H35Z"/><path fill="#309090" fill-opacity="1.000" d="M41 17H42V18H41ZM44 25H45V26H44ZM41 28H42V29H41Z"/><path fill="#387070" fill-opacity="1.000" d="M229 6H230V7H229ZM146 9H148V10H146Z"/><path fill="#387078" fill-opacity="1.000" d="M207 6H209V7H207ZM160 9H161V10H160ZM168 9H172V10H168Z"/><path fill="#387870" fill-opacity="1.000" d="M148 9H149V10H148ZM153 9H154V10H153Z"/><path fill="#387878" fill-opacity="1.000" d="M150 9H151V10H150Z"/><path fill="#387880" fill-opacity="1.000" d="M209 6H210V7H209Z"/><path fill="#388088" fill-opacity="1.000" d="M212 6H215V7H212ZM224 6H227V7H224ZM121 7H122V8H121Z"/><path fill="#388888" fill-opacity="1.000" d="M37 20H38V21H37ZM40 23H41V24H40Z"/><path fill="#388890" fill-opacity="1.000" d="M38 21H39V22H38Z"/><path fill="#389090" fill-opacity="1.000" d="M34 19H35V20H34ZM34 26H35V27H34Z"/><path fill="#389098" fill-opacity="1.000" d="M43 18H44V19H43ZM36 19H37V20H36ZM42 25H43V26H42Z"/><path fill="#389898" fill-opacity="1.000" d="M33 21H34V22H33Z"/><path fill="#3898a0" fill-opacity="1.000" d="M33 23H34V24H33ZM40 28H41V29H40Z"/><path fill="#38a0a0" fill-opacity="1.000" d="M36 28H37V29H36Z"/><path fill="#407078" fill-opacity="1.000" d="M140 9H141V10H140Z"/><path fill="#407878" fill-opacity="1.000" d="M139 9H140V10H139ZM144 9H146V10H144Z"/><path fill="#407880" fill-opacity="1.000" d="M138 9H139V10H138Z"/><path fill="#408078" fill-opacity="1.000" d="M155 9H156V10H155Z"/><path fill="#408080" fill-opacity="1.000" d="M228 6H229V7H228ZM137 9H138V10H137Z"/><path fill="#408088" fill-opacity="1.000" d="M123 6H124V7H123ZM215 6H224V7H215ZM227 6H228V7H227Z"/><path fill="#409090" fill-opacity="1.000" d="M147 5H148V6H147Z"/><path fill="#409098" fill-opacity="1.000" d="M205 8H206V9H205Z"/><path fill="#40a0a0" fill-opacity="1.000" d="M35 18H36V19H35ZM33 25H34V26H33ZM42 27H43V28H42Z"/><path fill="#40a8a8" fill-opacity="1.000" d="M44 19H45V20H44ZM33 22H34V23H33Z"/><path fill="#487878" fill-opacity="1.000" d="M141 9H142V10H141Z"/><path fill="#487880" fill-opacity="1.000" d="M142 9H144V10H142Z"/><path fill="#488888" fill-opacity="1.000" d="M136 9H137V10H136Z"/><path fill="#489898" fill-opacity="1.000" d="M146 5H147V6H146Z"/><path fill="#4898a0" fill-opacity="1.000" d="M142 5H144V6H142ZM43 26H44V27H43Z"/><path fill="#48a0a0" fill-opacity="1.000" d="M42 19H43V20H42Z"/><path fill="#48a0a8" fill-opacity="1.000" d="M38 28H40V29H38Z"/><path fill="#48a8b0" fill-opacity="1.000" d="M44 24H45V25H44Z"/><path fill="#48b0b0" fill-opacity="1.000" d="M39 16H40V17H39ZM42 17H43V18H42ZM45 22H46V23H45ZM45 23H46V24H45Z"/><path fill="#508088" fill-opacity="1.000" d="M123 5H124V6H123Z"/><path fill="#508888" fill-opacity="1.000" d="M135 9H136V10H135Z"/><path fill="#509090" fill-opacity="1.000" d="M131 9H135V10H131Z"/><path fill="#509098" fill-opacity="1.000" d="M12 13H13V14H12Z"/><path fill="#5098a0" fill-opacity="1.000" d="M125 5H140V6H125ZM149 7H150V8H149Z"/><path fill="#50a0a0" fill-opacity="1.000" d="M140 5H142V6H140ZM144 5H146V6H144Z"/><path fill="#50a8b0" fill-opacity="1.000" d="M43 27H44V28H43Z"/><path fill="#50b0b0" fill-opacity="1.000" d="M37 17H38V18H37ZM34 18H35V19H34Z"/><path fill="#50b0b8" fill-opacity="1.000" d="M40 17H41V18H40Z"/><path fill="#50b8c0" fill-opacity="1.000" d="M38 16H39V17H38ZM35 17H36V18H35ZM45 21H46V22H45Z"/><path fill="#50c0c0" fill-opacity="1.000" d="M42 28H43V29H42Z"/><path fill="#589090" fill-opacity="1.000" d="M130 9H131V10H130Z"/><path fill="#589098" fill-opacity="1.000" d="M201 42H202V43H201Z"/><path fill="#589898" fill-opacity="1.000" d="M129 9H130V10H129Z"/><path fill="#5898a0" fill-opacity="1.000" d="M124 5H125V6H124Z"/><path fill="#58a0a8" fill-opacity="1.000" d="M123 9H124V10H123Z"/><path fill="#58b0b8" fill-opacity="1.000" d="M202 41H203V42H202Z"/><path fill="#58b8c0" fill-opacity="1.000" d="M44 26H45V27H44Z"/><path fill="#58c0c0" fill-opacity="1.000" d="M44 21H45V22H44ZM45 24H46V25H45Z"/><path fill="#609898" fill-opacity="1.000" d="M128 9H129V10H128Z"/><path fill="#60a0a0" fill-opacity="1.000" d="M124 9H128V10H124Z"/><path fill="#60a8a8" fill-opacity="1.000" d="M12 31H13V32H12Z"/><path fill="#60a8b0" fill-opacity="1.000" d="M12 14H13V15H12ZM12 15H13V16H12ZM12 16H13V17H12ZM12 17H13V18H12ZM12 18H13V19H12ZM12 19H13V20H12ZM12 20H13V21H12ZM12 21H13V22H12ZM12 22H13V23H12ZM12 23H13V24H12ZM12 24H13V25H12ZM12 25H13V26H12ZM12 26H13V27H12ZM12 27H13V28H12ZM12 28H13V29H12ZM12 29H13V30H12Z"/><path fill="#60b0b8" fill-opacity="1.000" d="M148 6H149V7H148ZM37 25H38V26H37ZM12 30H13V31H12Z"/><path fill="#60b8b8" fill-opacity="1.000" d="M41 21H42V22H41ZM38 24H39V25H38Z"/><path fill="#60b8c0" fill-opacity="1.000" d="M42 18H43V19H42ZM43 19H44V20H43ZM42 20H43V21H42Z"/><path fill="#60c0c0" fill-opacity="1.000" d="M40 16H41V17H40ZM34 27H35V28H34Z"/><path fill="#60c0c8" fill-opacity="1.000" d="M38 17H39V18H38Z"/><path fill="#60c8c0" fill-opacity="1.000" d="M41 19H42V20H41Z"/><path fill="#60c8c8" fill-opacity="1.000" d="M125 7H126V8H125ZM37 16H38V17H37ZM39 17H40V18H39ZM44 22H45V23H44Z"/><path fill="#60d0d0" fill-opacity="1.000" d="M126 7H127V8H126Z"/><path fill="#68a8b0" fill-opacity="1.000" d="M229 32H230V33H229Z"/><path fill="#68b0b8" fill-opacity="1.000" d="M227 34H228V35H227Z"/><path fill="#68c0c0" fill-opacity="1.000" d="M124 7H125V8H124Z"/><path fill="#68c0c8" fill-opacity="1.000" d="M36 26H37V27H36Z"/><path fill="#68c8c8" fill-opacity="1.000" d="M203 40H204V41H203Z"/><path fill="#68d0d0" fill-opacity="1.000" d="M127 7H145V8H127ZM32 22H33V23H32ZM44 23H45V24H44Z"/><path fill="#68f0f0" fill-opacity="1.000" d="M154 39H155V40H154Z"/><path fill="#70b0b8" fill-opacity="1.000" d="M13 12H14V13H13Z"/><path fill="#70b8c0" fill-opacity="1.000" d="M40 22H41V23H40ZM228 33H229V34H228ZM225 36H226V37H225Z"/><path fill="#70c0c0" fill-opacity="1.000" d="M15 10H16V11H15ZM39 21H40V22H39ZM37 23H38V24H37ZM226 35H227V36H226Z"/><path fill="#70c0c8" fill-opacity="1.000" d="M36 24H37V25H36ZM35 25H36V26H35Z"/><path fill="#70c8c8" fill-opacity="1.000" d="M40 20H41V21H40Z"/><path fill="#70c8d0" fill-opacity="1.000" d="M35 19H36V20H35ZM34 25H35V26H34ZM42 26H43V27H42ZM36 27H37V28H36ZM39 29H40V30H39Z"/><path fill="#70d0d0" fill-opacity="1.000" d="M145 7H147V8H145ZM33 19H34V20H33Z"/><path fill="#70d8d8" fill-opacity="1.000" d="M32 23H33V24H32Z"/><path fill="#70e0e0" fill-opacity="1.000" d="M35 28H36V29H35Z"/><path fill="#70f0f0" fill-opacity="1.000" d="M226 9H227V10H226ZM17 31H18V32H17ZM226 31H227V32H226ZM224 32H225V33H224ZM224 33H225V34H224ZM221 35H222V36H221ZM152 38H153V39H152Z"/><path fill="#70f0f8" fill-opacity="1.000" d="M222 32H223V33H222Z"/><path fill="#70f8f0" fill-opacity="1.000" d="M117 9H118V10H117ZM221 9H226V10H221ZM189 40H190V41H189Z"/><path fill="#70f8f8" fill-opacity="1.000" d="M25 9H27V10H25ZM26 10H28V11H26ZM220 10H227V11H220ZM19 11H20V12H19ZM221 11H222V12H221ZM223 11H227V12H223ZM18 12H19V13H18ZM17 13H18V14H17ZM19 13H20V14H19ZM224 30H225V31H224ZM226 30H227V31H226ZM223 32H224V33H223ZM20 34H22V35H20ZM220 34H221V35H220ZM20 35H23V36H20ZM155 38H156V39H155ZM155 39H156V40H155Z"/><path fill="#70ffff" fill-opacity="1.000" d="M225 30H226V31H225ZM224 31H225V32H224Z"/><path fill="#78c0c0" fill-opacity="1.000" d="M14 11H15V12H14ZM224 37H225V38H224ZM223 38H224V39H223Z"/><path fill="#78c8c8" fill-opacity="1.000" d="M17 8H18V9H17Z"/><path fill="#78c8d0" fill-opacity="1.000" d="M148 7H149V8H148Z"/><path fill="#78d0d0" fill-opacity="1.000" d="M147 7H148V8H147Z"/><path fill="#78d0d8" fill-opacity="1.000" d="M38 29H39V30H38Z"/><path fill="#78d8e0" fill-opacity="1.000" d="M33 26H34V27H33Z"/><path fill="#78e0e0" fill-opacity="1.000" d="M45 20H46V21H45ZM32 21H33V22H32ZM41 26H42V27H41ZM41 27H42V28H41Z"/><path fill="#78e8e8" fill-opacity="1.000" d="M120 13H121V14H120Z"/><path fill="#78e8f0" fill-opacity="1.000" d="M148 11H149V12H148Z"/><path fill="#78f0e8" fill-opacity="1.000" d="M19 36H20V37H19Z"/><path fill="#78f0f0" fill-opacity="1.000" d="M117 8H118V9H117ZM119 9H120V10H119ZM211 9H213V10H211ZM218 9H219V10H218ZM227 9H228V10H227ZM119 10H120V11H119ZM207 10H210V11H207ZM17 11H18V12H17ZM16 12H17V13H16ZM151 12H152V13H151ZM204 12H205V13H204ZM206 12H207V13H206ZM123 13H124V14H123ZM48 14H49V15H48ZM34 29H35V30H34ZM43 29H44V30H43ZM19 33H20V34H19ZM18 34H19V35H18ZM223 34H224V35H223ZM222 35H223V36H222ZM196 39H198V40H196ZM153 40H154V41H153ZM192 40H196V41H192ZM199 40H200V41H199Z"/><path fill="#78f0f8" fill-opacity="1.000" d="M23 8H24V9H23ZM213 9H215V10H213ZM116 10H117V11H116ZM117 11H118V12H117ZM210 11H212V12H210ZM154 12H155V13H154ZM207 12H209V13H207ZM150 13H151V14H150ZM153 13H154V14H153ZM209 13H210V14H209ZM222 30H223V31H222ZM18 32H19V33H18ZM220 32H221V33H220ZM23 36H24V37H23ZM200 38H201V39H200Z"/><path fill="#78f0ff" fill-opacity="1.000" d="M21 33H22V34H21Z"/><path fill="#78f8f0" fill-opacity="1.000" d="M24 8H27V9H24ZM115 8H117V9H115ZM215 9H218V10H215ZM219 9H221V10H219ZM210 10H211V11H210ZM227 10H228V11H227ZM227 11H228V12H227ZM15 14H16V15H15ZM15 15H16V16H15ZM15 16H16V17H15ZM15 17H16V18H15ZM15 18H16V19H15ZM15 19H16V20H15ZM15 20H16V21H15ZM15 22H16V23H15ZM15 23H16V24H15ZM15 24H16V25H15ZM15 25H16V26H15ZM15 26H16V27H15ZM15 27H16V28H15ZM15 28H16V29H15ZM15 29H16V30H15ZM15 30H16V31H15ZM17 32H18V33H17ZM20 36H22V37H20ZM147 36H151V37H147ZM205 36H206V37H205ZM207 36H208V37H207ZM209 36H210V37H209ZM211 36H212V37H211ZM213 36H214V37H213ZM215 36H216V37H215ZM217 36H218V37H217ZM219 36H220V37H219ZM155 40H189V41H155ZM190 40H192V41H190ZM196 40H198V41H196Z"/><path fill="#78f8f8" fill-opacity="1.000" d="M21 9H25V10H21ZM27 9H29V10H27ZM108 9H111V10H108ZM113 9H116V10H113ZM118 9H119V10H118ZM19 10H26V11H19ZM28 10H110V11H28ZM114 10H116V11H114ZM212 10H220V11H212ZM18 11H19V12H18ZM22 11H23V12H22ZM24 11H108V12H24ZM212 11H215V12H212ZM216 11H221V12H216ZM222 11H223V12H222ZM156 12H162V13H156ZM224 12H227V13H224ZM16 13H17V14H16ZM155 13H161V14H155ZM165 13H166V14H165ZM167 13H168V14H167ZM173 13H174V14H173ZM175 13H176V14H175ZM177 13H178V14H177ZM179 13H180V14H179ZM181 13H182V14H181ZM183 13H184V14H183ZM185 13H186V14H185ZM187 13H188V14H187ZM189 13H190V14H189ZM191 13H192V14H191ZM193 13H194V14H193ZM195 13H204V14H195ZM225 13H227V14H225ZM16 14H21V15H16ZM224 14H227V15H224ZM16 15H18V16H16ZM223 15H227V16H223ZM16 16H18V17H16ZM223 16H227V17H223ZM16 17H17V18H16ZM223 17H227V18H223ZM16 18H17V19H16ZM223 18H224V19H223ZM225 18H227V19H225ZM16 19H17V20H16ZM225 19H227V20H225ZM16 20H17V21H16ZM226 20H227V21H226ZM15 21H17V22H15ZM226 21H227V22H226ZM16 22H17V23H16ZM226 22H227V23H226ZM16 23H17V24H16ZM226 23H227V24H226ZM16 24H17V25H16ZM225 24H227V25H225ZM16 25H17V26H16ZM223 25H224V26H223ZM225 25H227V26H225ZM16 26H17V27H16ZM223 26H227V27H223ZM16 27H18V28H16ZM223 27H227V28H223ZM16 28H18V29H16ZM223 28H227V29H223ZM16 29H19V30H16ZM223 29H227V30H223ZM16 30H19V31H16ZM16 31H17V32H16ZM18 31H19V32H18ZM20 33H21V34H20ZM145 33H150V34H145ZM219 33H224V34H219ZM19 34H20V35H19ZM27 34H30V35H27ZM31 34H32V35H31ZM33 34H34V35H33ZM35 34H36V35H35ZM37 34H38V35H37ZM39 34H40V35H39ZM41 34H42V35H41ZM43 34H44V35H43ZM45 34H46V35H45ZM47 34H48V35H47ZM49 34H50V35H49ZM51 34H52V35H51ZM53 34H54V35H53ZM55 34H56V35H55ZM57 34H58V35H57ZM59 34H60V35H59ZM61 34H62V35H61ZM63 34H64V35H63ZM65 34H66V35H65ZM67 34H68V35H67ZM69 34H70V35H69ZM71 34H72V35H71ZM73 34H74V35H73ZM75 34H76V35H75ZM77 34H78V35H77ZM79 34H80V35H79ZM81 34H82V35H81ZM83 34H84V35H83ZM85 34H86V35H85ZM87 34H88V35H87ZM89 34H90V35H89ZM91 34H92V35H91ZM93 34H94V35H93ZM95 34H96V35H95ZM97 34H98V35H97ZM99 34H100V35H99ZM101 34H102V35H101ZM103 34H104V35H103ZM105 34H106V35H105ZM107 34H108V35H107ZM109 34H110V35H109ZM111 34H112V35H111ZM113 34H114V35H113ZM115 34H116V35H115ZM117 34H118V35H117ZM119 34H120V35H119ZM121 34H122V35H121ZM123 34H124V35H123ZM125 34H126V35H125ZM127 34H128V35H127ZM129 34H130V35H129ZM131 34H132V35H131ZM133 34H134V35H133ZM135 34H136V35H135ZM137 34H138V35H137ZM145 34H149V35H145ZM204 34H208V35H204ZM216 34H220V35H216ZM222 34H223V35H222ZM19 35H20V36H19ZM23 35H24V36H23ZM26 35H140V36H26ZM143 35H148V36H143ZM199 35H200V36H199ZM204 35H210V36H204ZM213 35H221V36H213ZM22 36H23V37H22ZM24 36H147V37H24ZM198 36H205V37H198ZM206 36H207V37H206ZM208 36H209V37H208ZM210 36H211V37H210ZM212 36H213V37H212ZM214 36H215V37H214ZM216 36H217V37H216ZM218 36H219V37H218ZM152 37H164V38H152ZM165 37H166V38H165ZM167 37H168V38H167ZM169 37H170V38H169ZM171 37H172V38H171ZM173 37H174V38H173ZM175 37H176V38H175ZM177 37H178V38H177ZM179 37H180V38H179ZM181 37H182V38H181ZM183 37H184V38H183ZM185 37H186V38H185ZM187 37H190V38H187ZM195 37H202V38H195ZM153 38H154V39H153ZM156 38H192V39H156ZM194 38H200V39H194ZM156 39H196V40H156Z"/><path fill="#78f8ff" fill-opacity="1.000" d="M20 11H22V12H20ZM20 12H22V13H20ZM20 13H21V14H20ZM223 30H224V31H223ZM22 34H27V35H22ZM24 35H26V36H24Z"/><path fill="#78fff8" fill-opacity="1.000" d="M116 9H117V10H116ZM17 12H18V13H17ZM221 34H222V35H221Z"/><path fill="#78ffff" fill-opacity="1.000" d="M19 12H20V13H19ZM18 13H19V14H18ZM223 31H224V32H223ZM225 31H226V32H225ZM154 38H155V39H154Z"/><path fill="#80c0c8" fill-opacity="1.000" d="M206 7H207V8H206Z"/><path fill="#80c8c8" fill-opacity="1.000" d="M16 9H17V10H16ZM204 39H205V40H204Z"/><path fill="#80d0d0" fill-opacity="1.000" d="M18 7H19V8H18Z"/><path fill="#80d8d8" fill-opacity="1.000" d="M229 11H230V12H229ZM39 24H40V25H39ZM17 36H18V37H17ZM18 37H19V38H18Z"/><path fill="#80d8e0" fill-opacity="1.000" d="M122 9H123V10H122Z"/><path fill="#80e0e0" fill-opacity="1.000" d="M40 25H41V26H40Z"/><path fill="#80e0e8" fill-opacity="1.000" d="M41 16H42V17H41ZM45 25H46V26H45ZM40 29H41V30H40Z"/><path fill="#80e8e8" fill-opacity="1.000" d="M209 8H210V9H209ZM41 18H42V19H41ZM44 18H45V19H44ZM37 29H38V30H37ZM225 34H226V35H225ZM224 35H225V36H224Z"/><path fill="#80e8f0" fill-opacity="1.000" d="M117 13H118V14H117ZM42 16H43V17H42ZM43 17H44V18H43ZM45 28H46V29H45ZM220 30H221V31H220ZM202 40H203V41H202Z"/><path fill="#80f0e8" fill-opacity="1.000" d="M197 41H198V42H197Z"/><path fill="#80f0f0" fill-opacity="1.000" d="M129 6H130V7H129ZM139 6H140V7H139ZM142 6H145V7H142ZM116 7H117V8H116ZM20 8H22V9H20ZM28 8H115V9H28ZM211 8H213V9H211ZM219 8H222V9H219ZM226 8H227V9H226ZM19 9H20V10H19ZM17 10H18V11H17ZM120 10H121V11H120ZM206 10H207V11H206ZM16 11H17V12H16ZM121 11H122V12H121ZM139 11H140V12H139ZM156 11H204V12H156ZM205 11H206V12H205ZM15 12H16V13H15ZM118 12H120V13H118ZM122 12H123V13H122ZM142 12H144V13H142ZM227 12H228V13H227ZM26 13H28V14H26ZM227 13H228V14H227ZM14 14H15V15H14ZM32 14H33V15H32ZM35 14H36V15H35ZM38 14H39V15H38ZM40 14H41V15H40ZM45 14H46V15H45ZM51 14H52V15H51ZM227 14H228V15H227ZM14 15H15V16H14ZM22 15H23V16H22ZM30 15H31V16H30ZM33 15H34V16H33ZM36 15H37V16H36ZM46 15H47V16H46ZM49 15H50V16H49ZM227 15H228V16H227ZM14 16H15V17H14ZM22 16H23V17H22ZM30 16H31V17H30ZM32 16H33V17H32ZM34 16H35V17H34ZM47 16H48V17H47ZM49 16H50V17H49ZM14 17H15V18H14ZM29 17H30V18H29ZM32 17H34V18H32ZM45 17H46V18H45ZM48 17H49V18H48ZM51 17H52V18H51ZM14 18H15V19H14ZM31 18H32V19H31ZM46 18H47V19H46ZM227 18H228V19H227ZM14 19H15V20H14ZM31 19H32V20H31ZM49 19H50V20H49ZM227 19H228V20H227ZM14 20H15V21H14ZM29 20H30V21H29ZM48 20H49V21H48ZM227 20H228V21H227ZM14 21H15V22H14ZM50 21H51V22H50ZM14 22H15V23H14ZM29 22H30V23H29ZM14 23H15V24H14ZM48 23H49V24H48ZM227 23H228V24H227ZM14 24H15V25H14ZM48 24H49V25H48ZM227 24H228V25H227ZM14 25H15V26H14ZM28 25H29V26H28ZM30 25H31V26H30ZM49 25H50V26H49ZM227 25H228V26H227ZM14 26H15V27H14ZM31 26H32V27H31ZM47 26H48V27H47ZM49 26H50V27H49ZM14 27H15V28H14ZM22 27H23V28H22ZM30 27H31V28H30ZM40 27H41V28H40ZM47 27H48V28H47ZM14 28H15V29H14ZM22 28H23V29H22ZM29 28H30V29H29ZM33 28H34V29H33ZM50 28H51V29H50ZM227 28H228V29H227ZM14 29H15V30H14ZM23 29H24V30H23ZM28 29H29V30H28ZM44 29H45V30H44ZM46 29H48V30H46ZM51 29H52V30H51ZM227 29H228V30H227ZM14 30H15V31H14ZM15 31H16V32H15ZM15 32H16V33H15ZM226 32H227V33H226ZM16 33H18V34H16ZM17 34H18V35H17ZM222 36H223V37H222ZM20 37H22V38H20ZM26 37H28V38H26ZM141 37H142V38H141ZM147 37H151V38H147ZM204 37H209V38H204ZM218 37H221V38H218ZM200 39H202V40H200ZM200 40H201V41H200ZM154 41H156V42H154Z"/><path fill="#80f0f8" fill-opacity="1.000" d="M140 6H142V7H140ZM22 8H23V9H22ZM218 8H219V9H218ZM20 9H21V10H20ZM110 10H114V11H110ZM120 11H121V12H120ZM124 11H132V12H124ZM133 11H139V12H133ZM144 11H145V12H144ZM149 11H156V12H149ZM22 12H26V13H22ZM129 12H137V13H129ZM144 12H146V13H144ZM162 12H163V13H162ZM164 12H196V13H164ZM214 12H218V13H214ZM221 12H224V13H221ZM22 13H23V14H22ZM28 13H31V14H28ZM37 13H45V14H37ZM53 13H59V14H53ZM60 13H61V14H60ZM62 13H63V14H62ZM64 13H65V14H64ZM66 13H67V14H66ZM68 13H69V14H68ZM70 13H71V14H70ZM72 13H73V14H72ZM74 13H75V14H74ZM76 13H77V14H76ZM78 13H79V14H78ZM80 13H81V14H80ZM82 13H83V14H82ZM84 13H85V14H84ZM86 13H87V14H86ZM88 13H89V14H88ZM90 13H91V14H90ZM92 13H93V14H92ZM94 13H95V14H94ZM96 13H97V14H96ZM98 13H99V14H98ZM100 13H101V14H100ZM102 13H103V14H102ZM104 13H105V14H104ZM106 13H107V14H106ZM108 13H109V14H108ZM114 13H116V14H114ZM124 13H128V14H124ZM130 13H132V14H130ZM137 13H140V14H137ZM145 13H149V14H145ZM164 13H165V14H164ZM166 13H167V14H166ZM168 13H173V14H168ZM174 13H175V14H174ZM176 13H177V14H176ZM178 13H179V14H178ZM180 13H181V14H180ZM182 13H183V14H182ZM184 13H185V14H184ZM186 13H187V14H186ZM188 13H189V14H188ZM190 13H191V14H190ZM192 13H193V14H192ZM194 13H195V14H194ZM205 13H206V14H205ZM211 13H212V14H211ZM213 13H225V14H213ZM22 14H23V15H22ZM24 14H25V15H24ZM27 14H29V15H27ZM31 14H32V15H31ZM43 14H44V15H43ZM53 14H61V15H53ZM62 14H63V15H62ZM64 14H65V15H64ZM66 14H67V15H66ZM68 14H69V15H68ZM70 14H71V15H70ZM72 14H73V15H72ZM74 14H75V15H74ZM76 14H77V15H76ZM78 14H79V15H78ZM80 14H81V15H80ZM82 14H83V15H82ZM84 14H85V15H84ZM86 14H87V15H86ZM88 14H89V15H88ZM90 14H91V15H90ZM92 14H93V15H92ZM94 14H95V15H94ZM96 14H97V15H96ZM98 14H99V15H98ZM100 14H101V15H100ZM102 14H103V15H102ZM104 14H105V15H104ZM106 14H107V15H106ZM108 14H109V15H108ZM114 14H121V15H114ZM124 14H142V15H124ZM148 14H149V15H148ZM158 14H159V15H158ZM160 14H161V15H160ZM162 14H163V15H162ZM164 14H165V15H164ZM166 14H167V15H166ZM168 14H204V15H168ZM214 14H215V15H214ZM220 14H222V15H220ZM18 15H19V16H18ZM23 15H24V16H23ZM26 15H28V16H26ZM52 15H54V16H52ZM58 15H140V16H58ZM142 15H146V16H142ZM218 15H220V16H218ZM18 16H19V17H18ZM23 16H24V17H23ZM26 16H29V17H26ZM52 16H54V17H52ZM58 16H124V17H58ZM144 16H148V17H144ZM156 16H204V17H156ZM214 16H220V17H214ZM18 17H19V18H18ZM22 17H24V18H22ZM26 17H28V18H26ZM52 17H54V18H52ZM58 17H124V18H58ZM145 17H149V18H145ZM214 17H221V18H214ZM18 18H19V19H18ZM22 18H23V19H22ZM24 18H25V19H24ZM26 18H27V19H26ZM29 18H30V19H29ZM50 18H51V19H50ZM58 18H60V19H58ZM147 18H151V19H147ZM156 18H172V19H156ZM207 18H216V19H207ZM219 18H221V19H219ZM18 19H19V20H18ZM24 19H26V20H24ZM28 19H29V20H28ZM50 19H51V20H50ZM58 19H60V20H58ZM148 19H153V20H148ZM156 19H172V20H156ZM205 19H216V20H205ZM220 19H221V20H220ZM18 20H19V21H18ZM24 20H26V21H24ZM151 20H205V21H151ZM225 20H226V21H225ZM18 21H19V22H18ZM25 21H26V22H25ZM152 21H204V22H152ZM224 21H225V22H224ZM18 22H19V23H18ZM25 22H26V23H25ZM224 22H225V23H224ZM18 23H19V24H18ZM24 23H26V24H24ZM225 23H226V24H225ZM18 24H19V25H18ZM24 24H26V25H24ZM29 24H30V25H29ZM216 24H221V25H216ZM18 25H19V26H18ZM22 25H23V26H22ZM24 25H25V26H24ZM26 25H28V26H26ZM216 25H221V26H216ZM18 26H19V27H18ZM22 26H24V27H22ZM26 26H28V27H26ZM212 26H220V27H212ZM18 27H19V28H18ZM23 27H24V28H23ZM26 27H28V28H26ZM29 27H30V28H29ZM50 27H51V28H50ZM60 27H124V28H60ZM212 27H220V28H212ZM18 28H19V29H18ZM23 28H24V29H23ZM26 28H28V29H26ZM48 28H49V29H48ZM60 28H150V29H60ZM210 28H214V29H210ZM22 29H23V30H22ZM32 29H33V30H32ZM52 29H53V30H52ZM59 29H147V30H59ZM188 29H190V30H188ZM205 29H206V30H205ZM210 29H214V30H210ZM220 29H222V30H220ZM19 30H20V31H19ZM21 30H22V31H21ZM29 30H32V31H29ZM36 30H37V31H36ZM45 30H47V31H45ZM53 30H59V31H53ZM144 30H146V31H144ZM157 30H164V31H157ZM190 30H191V31H190ZM197 30H200V31H197ZM204 30H220V31H204ZM227 30H228V31H227ZM19 31H22V32H19ZM142 31H151V32H142ZM156 31H187V32H156ZM190 31H192V32H190ZM196 31H197V32H196ZM198 31H202V32H198ZM204 31H205V32H204ZM208 31H215V32H208ZM217 31H220V32H217ZM221 31H222V32H221ZM20 32H26V33H20ZM28 32H29V33H28ZM140 32H144V33H140ZM190 32H192V33H190ZM195 32H196V33H195ZM202 32H203V33H202ZM22 33H28V34H22ZM140 33H143V34H140ZM158 33H159V34H158ZM160 33H161V34H160ZM162 33H163V34H162ZM164 33H165V34H164ZM166 33H167V34H166ZM168 33H169V34H168ZM170 33H171V34H170ZM172 33H173V34H172ZM174 33H175V34H174ZM176 33H177V34H176ZM178 33H179V34H178ZM180 33H181V34H180ZM182 33H183V34H182ZM184 33H185V34H184ZM186 33H187V34H186ZM202 33H203V34H202ZM141 34H143V35H141ZM152 34H154V35H152ZM157 34H158V35H157ZM159 34H160V35H159ZM161 34H162V35H161ZM163 34H164V35H163ZM165 34H166V35H165ZM167 34H168V35H167ZM169 34H170V35H169ZM171 34H172V35H171ZM173 34H174V35H173ZM175 34H176V35H175ZM177 34H178V35H177ZM179 34H180V35H179ZM181 34H182V35H181ZM183 34H184V35H183ZM185 34H186V35H185ZM187 34H189V35H187ZM195 34H196V35H195ZM140 35H143V36H140ZM152 35H191V36H152ZM194 35H195V36H194ZM191 36H194V37H191ZM202 37H204V38H202ZM201 38H203V39H201ZM202 39H203V40H202Z"/><path fill="#80f0ff" fill-opacity="1.000" d="M140 34H141V35H140Z"/><path fill="#80f8f0" fill-opacity="1.000" d="M27 8H28V9H27ZM222 8H224V9H222ZM227 16H228V17H227ZM227 17H228V18H227ZM227 21H228V22H227ZM227 22H228V23H227ZM227 26H228V27H227ZM227 27H228V28H227ZM35 29H36V30H35ZM23 30H28V31H23ZM24 31H28V32H24ZM16 32H17V33H16ZM18 35H19V36H18ZM151 37H152V38H151ZM198 40H199V41H198Z"/><path fill="#80f8f8" fill-opacity="1.000" d="M118 8H119V9H118ZM224 8H226V9H224ZM29 9H108V10H29ZM111 9H113V10H111ZM209 9H211V10H209ZM18 10H19V11H18ZM117 10H119V11H117ZM211 10H212V11H211ZM23 11H24V12H23ZM108 11H117V12H108ZM118 11H119V12H118ZM132 11H133V12H132ZM206 11H208V12H206ZM209 11H210V12H209ZM215 11H216V12H215ZM26 12H116V13H26ZM121 12H122V13H121ZM140 12H142V13H140ZM146 12H147V13H146ZM148 12H149V13H148ZM152 12H153V13H152ZM155 12H156V13H155ZM163 12H164V13H163ZM196 12H204V13H196ZM209 12H210V13H209ZM212 12H214V13H212ZM218 12H221V13H218ZM15 13H16V14H15ZM21 13H22V14H21ZM31 13H37V14H31ZM45 13H53V14H45ZM59 13H60V14H59ZM61 13H62V14H61ZM63 13H64V14H63ZM65 13H66V14H65ZM67 13H68V14H67ZM69 13H70V14H69ZM71 13H72V14H71ZM73 13H74V14H73ZM75 13H76V14H75ZM77 13H78V14H77ZM79 13H80V14H79ZM81 13H82V14H81ZM83 13H84V14H83ZM85 13H86V14H85ZM87 13H88V14H87ZM89 13H90V14H89ZM91 13H92V14H91ZM93 13H94V14H93ZM95 13H96V14H95ZM97 13H98V14H97ZM99 13H100V14H99ZM101 13H102V14H101ZM103 13H104V14H103ZM105 13H106V14H105ZM107 13H108V14H107ZM109 13H114V14H109ZM121 13H123V14H121ZM140 13H145V14H140ZM149 13H150V14H149ZM152 13H153V14H152ZM161 13H164V14H161ZM204 13H205V14H204ZM206 13H209V14H206ZM210 13H211V14H210ZM212 13H213V14H212ZM21 14H22V15H21ZM25 14H27V15H25ZM34 14H35V15H34ZM50 14H51V15H50ZM52 14H53V15H52ZM61 14H62V15H61ZM63 14H64V15H63ZM65 14H66V15H65ZM67 14H68V15H67ZM69 14H70V15H69ZM71 14H72V15H71ZM73 14H74V15H73ZM75 14H76V15H75ZM77 14H78V15H77ZM79 14H80V15H79ZM81 14H82V15H81ZM83 14H84V15H83ZM85 14H86V15H85ZM87 14H88V15H87ZM89 14H90V15H89ZM91 14H92V15H91ZM93 14H94V15H93ZM95 14H96V15H95ZM97 14H98V15H97ZM99 14H100V15H99ZM101 14H102V15H101ZM103 14H104V15H103ZM105 14H106V15H105ZM107 14H108V15H107ZM109 14H114V15H109ZM121 14H124V15H121ZM142 14H148V15H142ZM149 14H158V15H149ZM159 14H160V15H159ZM161 14H162V15H161ZM163 14H164V15H163ZM165 14H166V15H165ZM167 14H168V15H167ZM204 14H214V15H204ZM215 14H220V15H215ZM222 14H224V15H222ZM19 15H22V16H19ZM24 15H26V16H24ZM34 15H35V16H34ZM47 15H48V16H47ZM50 15H51V16H50ZM146 15H218V16H146ZM220 15H223V16H220ZM19 16H22V17H19ZM24 16H26V17H24ZM50 16H52V17H50ZM148 16H156V17H148ZM204 16H214V17H204ZM220 16H223V17H220ZM17 17H18V18H17ZM19 17H22V18H19ZM24 17H26V18H24ZM149 17H214V18H149ZM221 17H223V18H221ZM17 18H18V19H17ZM19 18H22V19H19ZM25 18H26V19H25ZM151 18H156V19H151ZM172 18H207V19H172ZM221 18H223V19H221ZM224 18H225V19H224ZM17 19H18V20H17ZM19 19H22V20H19ZM153 19H156V20H153ZM172 19H205V20H172ZM221 19H225V20H221ZM17 20H18V21H17ZM19 20H22V21H19ZM221 20H225V21H221ZM17 21H18V22H17ZM19 21H22V22H19ZM221 21H224V22H221ZM225 21H226V22H225ZM17 22H18V23H17ZM19 22H22V23H19ZM221 22H224V23H221ZM225 22H226V23H225ZM17 23H18V24H17ZM19 23H22V24H19ZM221 23H225V24H221ZM17 24H18V25H17ZM19 24H22V25H19ZM221 24H225V25H221ZM17 25H18V26H17ZM19 25H22V26H19ZM25 25H26V26H25ZM221 25H223V26H221ZM224 25H225V26H224ZM17 26H18V27H17ZM19 26H22V27H19ZM24 26H26V27H24ZM220 26H223V27H220ZM19 27H22V28H19ZM24 27H26V28H24ZM31 27H32V28H31ZM220 27H223V28H220ZM19 28H22V29H19ZM24 28H26V29H24ZM49 28H50V29H49ZM214 28H223V29H214ZM19 29H22V30H19ZM24 29H28V30H24ZM49 29H51V30H49ZM214 29H220V30H214ZM222 29H223V30H222ZM20 30H21V31H20ZM22 30H23V31H22ZM28 30H29V31H28ZM32 30H36V31H32ZM42 30H45V31H42ZM47 30H53V31H47ZM59 30H144V31H59ZM188 30H190V31H188ZM22 31H24V32H22ZM28 31H142V32H28ZM187 31H190V32H187ZM197 31H198V32H197ZM205 31H208V32H205ZM215 31H217V32H215ZM29 32H140V33H29ZM144 32H190V33H144ZM196 32H202V33H196ZM203 32H220V33H203ZM18 33H19V34H18ZM28 33H140V34H28ZM143 33H145V34H143ZM150 33H158V34H150ZM159 33H160V34H159ZM161 33H162V34H161ZM163 33H164V34H163ZM165 33H166V34H165ZM167 33H168V34H167ZM169 33H170V34H169ZM171 33H172V34H171ZM173 33H174V34H173ZM175 33H176V34H175ZM177 33H178V34H177ZM179 33H180V34H179ZM181 33H182V34H181ZM183 33H184V34H183ZM185 33H186V34H185ZM187 33H190V34H187ZM195 33H202V34H195ZM203 33H219V34H203ZM225 33H226V34H225ZM143 34H145V35H143ZM149 34H152V35H149ZM196 34H204V35H196ZM208 34H216V35H208ZM148 35H152V36H148ZM195 35H199V36H195ZM200 35H204V36H200ZM210 35H213V36H210ZM151 36H191V37H151ZM194 36H198V37H194ZM220 36H222V37H220ZM164 37H165V38H164ZM166 37H167V38H166ZM168 37H169V38H168ZM170 37H171V38H170ZM172 37H173V38H172ZM174 37H175V38H174ZM176 37H177V38H176ZM178 37H179V38H178ZM180 37H181V38H180ZM182 37H183V38H182ZM184 37H185V38H184ZM186 37H187V38H186ZM190 37H195V38H190ZM151 38H152V39H151ZM192 38H194V39H192ZM152 39H154V40H152ZM198 39H200V40H198Z"/><path fill="#80f8ff" fill-opacity="1.000" d="M150 12H151V13H150ZM153 12H154V13H153ZM210 12H212V13H210ZM151 13H152V14H151ZM154 13H155V14H154ZM222 31H223V32H222ZM19 32H20V33H19ZM30 34H31V35H30ZM32 34H33V35H32ZM34 34H35V35H34ZM36 34H37V35H36ZM38 34H39V35H38ZM40 34H41V35H40ZM42 34H43V35H42ZM44 34H45V35H44ZM46 34H47V35H46ZM48 34H49V35H48ZM50 34H51V35H50ZM52 34H53V35H52ZM54 34H55V35H54ZM56 34H57V35H56ZM58 34H59V35H58ZM60 34H61V35H60ZM62 34H63V35H62ZM64 34H65V35H64ZM66 34H67V35H66ZM68 34H69V35H68ZM70 34H71V35H70ZM72 34H73V35H72ZM74 34H75V35H74ZM76 34H77V35H76ZM78 34H79V35H78ZM80 34H81V35H80ZM82 34H83V35H82ZM84 34H85V35H84ZM86 34H87V35H86ZM88 34H89V35H88ZM90 34H91V35H90ZM92 34H93V35H92ZM94 34H95V35H94ZM96 34H97V35H96ZM98 34H99V35H98ZM100 34H101V35H100ZM102 34H103V35H102ZM104 34H105V35H104ZM106 34H107V35H106ZM108 34H109V35H108ZM110 34H111V35H110ZM112 34H113V35H112ZM114 34H115V35H114ZM116 34H117V35H116ZM118 34H119V35H118ZM120 34H121V35H120ZM122 34H123V35H122ZM124 34H125V35H124ZM126 34H127V35H126ZM128 34H129V35H128ZM130 34H131V35H130ZM132 34H133V35H132ZM134 34H135V35H134ZM136 34H137V35H136ZM138 34H140V35H138Z"/><path fill="#80fff8" fill-opacity="1.000" d="M225 32H226V33H225Z"/><path fill="#80ffff" fill-opacity="1.000" d="M208 11H209V12H208ZM221 32H222V33H221ZM154 40H155V41H154Z"/><path fill="#88c8d0" fill-opacity="1.000" d="M120 6H121V7H120Z"/><path fill="#88d8e0" fill-opacity="1.000" d="M36 21H37V22H36ZM37 22H38V23H37ZM35 26H36V27H35Z"/><path fill="#88e0e0" fill-opacity="1.000" d="M229 10H230V11H229ZM229 12H230V13H229ZM229 14H230V15H229ZM229 15H230V16H229ZM229 16H230V17H229ZM229 17H230V18H229ZM229 18H230V19H229ZM229 19H230V20H229ZM229 20H230V21H229ZM229 21H230V22H229ZM229 22H230V23H229ZM229 23H230V24H229ZM229 24H230V25H229ZM229 25H230V26H229ZM229 26H230V27H229ZM229 27H230V28H229ZM229 28H230V29H229Z"/><path fill="#88e0e8" fill-opacity="1.000" d="M36 18H37V19H36ZM34 20H35V21H34Z"/><path fill="#88e8e8" fill-opacity="1.000" d="M34 24H35V25H34ZM222 37H223V38H222ZM151 40H152V41H151ZM200 41H201V42H200Z"/><path fill="#88e8f0" fill-opacity="1.000" d="M208 8H209V9H208ZM121 9H122V10H121ZM228 9H229V10H228ZM44 27H45V28H44ZM153 41H154V42H153Z"/><path fill="#88f0e8" fill-opacity="1.000" d="M199 41H200V42H199Z"/><path fill="#88f0f0" fill-opacity="1.000" d="M128 6H129V7H128ZM130 6H131V7H130ZM132 6H134V7H132ZM145 6H147V7H145ZM21 7H110V8H21ZM113 7H116V8H113ZM117 7H119V8H117ZM120 8H121V9H120ZM210 8H211V9H210ZM214 8H215V9H214ZM227 8H228V9H227ZM18 9H19V10H18ZM206 9H207V10H206ZM204 10H205V11H204ZM228 10H229V11H228ZM122 11H124V12H122ZM228 11H229V12H228ZM228 12H229V13H228ZM14 13H15V14H14ZM228 13H229V14H228ZM228 14H229V15H228ZM228 15H229V16H228ZM36 16H37V17H36ZM44 16H46V17H44ZM228 16H229V17H228ZM228 17H229V18H228ZM47 18H48V19H47ZM228 18H229V19H228ZM40 19H41V20H40ZM46 19H48V20H46ZM228 19H229V20H228ZM32 20H33V21H32ZM49 20H50V21H49ZM228 20H229V21H228ZM48 21H49V22H48ZM228 21H229V22H228ZM43 22H44V23H43ZM49 22H50V23H49ZM228 22H229V23H228ZM31 23H32V24H31ZM228 23H229V24H228ZM30 24H33V25H30ZM228 24H229V25H228ZM39 25H40V26H39ZM228 25H229V26H228ZM38 26H39V27H38ZM46 26H47V27H46ZM228 26H229V27H228ZM38 27H39V28H38ZM228 27H229V28H228ZM228 28H229V29H228ZM36 29H37V30H36ZM41 29H42V30H41ZM228 29H229V30H228ZM14 31H15V32H14ZM227 32H228V33H227ZM226 33H227V34H226ZM223 36H224V37H223ZM22 37H26V38H22ZM28 37H141V38H28ZM142 37H147V38H142ZM209 37H218V38H209ZM221 37H222V38H221ZM150 38H151V39H150ZM203 38H204V39H203ZM156 41H196V42H156ZM198 41H199V42H198Z"/><path fill="#88f0f8" fill-opacity="1.000" d="M125 6H128V7H125ZM131 6H132V7H131ZM134 6H139V7H134ZM213 8H214V9H213ZM215 8H218V9H215ZM120 9H121V10H120ZM207 9H208V10H207ZM142 11H144V12H142ZM145 11H148V12H145ZM23 13H26V14H23ZM116 13H117V14H116ZM23 14H24V15H23ZM29 14H30V15H29ZM37 15H38V16H37ZM39 15H40V16H39ZM41 15H42V16H41ZM45 15H46V16H45ZM54 15H58V16H54ZM140 15H142V16H140ZM31 16H32V17H31ZM43 16H44V17H43ZM54 16H58V17H54ZM124 16H144V17H124ZM28 17H29V18H28ZM47 17H48V18H47ZM54 17H58V18H54ZM124 17H145V18H124ZM23 18H24V19H23ZM27 18H29V19H27ZM45 18H46V19H45ZM52 18H58V19H52ZM60 18H147V19H60ZM216 18H219V19H216ZM22 19H24V20H22ZM26 19H28V20H26ZM52 19H58V20H52ZM60 19H148V20H60ZM216 19H220V20H216ZM22 20H24V21H22ZM26 20H28V21H26ZM47 20H48V21H47ZM50 20H58V21H50ZM60 20H151V21H60ZM205 20H221V21H205ZM22 21H25V22H22ZM26 21H28V22H26ZM29 21H30V22H29ZM31 21H32V22H31ZM52 21H58V22H52ZM60 21H152V22H60ZM204 21H221V22H204ZM22 22H25V23H22ZM26 22H28V23H26ZM31 22H32V23H31ZM46 22H48V23H46ZM50 22H58V23H50ZM60 22H202V23H60ZM204 22H221V23H204ZM22 23H24V24H22ZM26 23H29V24H26ZM46 23H48V24H46ZM51 23H58V24H51ZM60 23H200V24H60ZM204 23H221V24H204ZM22 24H24V25H22ZM26 24H28V25H26ZM52 24H58V25H52ZM60 24H216V25H60ZM23 25H24V26H23ZM32 25H33V26H32ZM47 25H48V26H47ZM50 25H59V26H50ZM60 25H216V26H60ZM32 26H33V27H32ZM51 26H60V27H51ZM124 26H212V27H124ZM46 27H47V28H46ZM52 27H60V28H52ZM124 27H212V28H124ZM31 28H32V29H31ZM52 28H60V29H52ZM150 28H210V29H150ZM30 29H32V30H30ZM53 29H59V30H53ZM147 29H188V30H147ZM190 29H205V30H190ZM206 29H210V30H206ZM37 30H42V31H37ZM146 30H157V31H146ZM191 30H197V31H191ZM200 30H204V31H200ZM151 31H156V32H151ZM192 31H196V32H192ZM202 31H204V32H202ZM26 32H28V33H26ZM192 32H195V33H192ZM192 33H194V34H192ZM154 34H157V35H154ZM158 34H159V35H158ZM160 34H161V35H160ZM162 34H163V35H162ZM164 34H165V35H164ZM166 34H167V35H166ZM168 34H169V35H168ZM170 34H171V35H170ZM172 34H173V35H172ZM174 34H175V35H174ZM176 34H177V35H176ZM178 34H179V35H178ZM180 34H181V35H180ZM182 34H183V35H182ZM184 34H185V35H184ZM186 34H187V35H186ZM189 34H195V35H189ZM191 35H194V36H191ZM152 40H153V41H152Z"/><path fill="#88f8f0" fill-opacity="1.000" d="M39 26H41V27H39ZM18 36H19V37H18ZM196 41H197V42H196Z"/><path fill="#88f8f8" fill-opacity="1.000" d="M119 8H120V9H119ZM208 9H209V10H208ZM140 11H142V12H140ZM204 11H205V12H204ZM120 12H121V13H120ZM124 12H129V13H124ZM137 12H140V13H137ZM118 13H119V14H118ZM128 13H130V14H128ZM132 13H137V14H132ZM30 14H31V15H30ZM36 14H38V15H36ZM39 14H40V15H39ZM41 14H43V15H41ZM44 14H45V15H44ZM46 14H48V15H46ZM31 15H33V16H31ZM35 15H36V16H35ZM42 15H45V16H42ZM48 15H49V16H48ZM51 15H52V16H51ZM33 16H34V17H33ZM35 16H36V17H35ZM46 16H47V17H46ZM48 16H49V17H48ZM30 17H32V18H30ZM49 17H51V18H49ZM30 18H31V19H30ZM32 18H33V19H32ZM48 18H50V19H48ZM51 18H52V19H51ZM29 19H31V20H29ZM48 19H49V20H48ZM51 19H52V20H51ZM28 20H29V21H28ZM30 20H31V21H30ZM58 20H60V21H58ZM28 21H29V22H28ZM51 21H52V22H51ZM58 21H60V22H58ZM28 22H29V23H28ZM48 22H49V23H48ZM58 22H60V23H58ZM202 22H204V23H202ZM50 23H51V24H50ZM58 23H60V24H58ZM200 23H204V24H200ZM28 24H29V25H28ZM49 24H52V25H49ZM58 24H60V25H58ZM29 25H30V26H29ZM31 25H32V26H31ZM48 25H49V26H48ZM59 25H60V26H59ZM28 26H30V27H28ZM50 26H51V27H50ZM60 26H124V27H60ZM28 27H29V28H28ZM32 27H33V28H32ZM48 27H50V28H48ZM51 27H52V28H51ZM28 28H29V29H28ZM30 28H31V29H30ZM32 28H33V29H32ZM44 28H45V29H44ZM46 28H48V29H46ZM51 28H52V29H51ZM29 29H30V30H29ZM33 29H34V30H33ZM45 29H46V30H45ZM48 29H49V30H48ZM164 30H188V31H164ZM227 31H228V32H227ZM190 33H192V34H190ZM194 33H195V34H194ZM224 34H225V35H224ZM201 40H202V41H201Z"/><path fill="#88f8ff" fill-opacity="1.000" d="M119 11H120V12H119ZM116 12H118V13H116ZM147 12H148V13H147ZM149 12H150V13H149ZM205 12H206V13H205ZM28 15H30V16H28ZM29 16H30V17H29ZM221 30H222V31H221ZM220 31H221V32H220Z"/><path fill="#88fff8" fill-opacity="1.000" d="M223 35H224V36H223Z"/><path fill="#88ffff" fill-opacity="1.000" d="M123 12H124V13H123ZM33 14H34V15H33ZM49 14H50V15H49ZM30 26H31V27H30ZM42 29H43V30H42Z"/><path fill="#90d0d8" fill-opacity="1.000" d="M229 7H230V8H229Z"/><path fill="#90d8d8" fill-opacity="1.000" d="M19 6H20V7H19ZM19 38H20V39H19Z"/><path fill="#90d8e0" fill-opacity="1.000" d="M229 8H230V9H229ZM229 29H230V30H229ZM229 30H230V31H229ZM15 34H16V35H15ZM196 42H197V43H196Z"/><path fill="#90e0e0" fill-opacity="1.000" d="M229 13H230V14H229ZM16 35H17V36H16Z"/><path fill="#90e0e8" fill-opacity="1.000" d="M13 13H14V14H13ZM35 20H36V21H35ZM205 38H206V39H205ZM149 39H150V40H149Z"/><path fill="#90e8e8" fill-opacity="1.000" d="M18 8H19V9H18ZM228 8H229V9H228ZM229 9H230V10H229ZM43 20H44V21H43ZM42 24H43V25H42ZM225 35H226V36H225ZM150 40H151V41H150Z"/><path fill="#90e8f0" fill-opacity="1.000" d="M22 6H23V7H22ZM124 6H125V7H124ZM147 6H148V7H147ZM19 7H20V8H19ZM206 8H207V9H206ZM149 10H150V11H149ZM38 18H39V19H38ZM43 25H44V26H43ZM228 31H229V32H228Z"/><path fill="#90f0f0" fill-opacity="1.000" d="M23 6H24V7H23ZM20 7H21V8H20ZM110 7H113V8H110ZM119 7H120V8H119ZM207 8H208V9H207ZM17 9H18V10H17ZM205 9H206V10H205ZM146 10H148V11H146ZM150 10H151V11H150ZM152 10H154V11H152ZM155 10H204V11H155ZM14 12H15V13H14ZM37 18H38V19H37ZM39 18H40V19H39ZM38 19H40V20H38ZM38 20H40V21H38ZM34 21H36V22H34ZM42 21H44V22H42ZM35 22H36V23H35ZM41 22H42V23H41ZM35 23H37V24H35ZM42 23H43V24H42ZM38 25H39V26H38ZM37 27H38V28H37ZM13 30H14V31H13ZM14 32H15V33H14ZM15 33H16V34H15ZM17 35H18V36H17ZM148 38H150V39H148ZM201 41H202V42H201Z"/><path fill="#90f0f8" fill-opacity="1.000" d="M19 8H20V9H19ZM131 10H133V11H131ZM154 10H155V11H154ZM13 15H14V16H13ZM38 15H39V16H38ZM40 15H41V16H40ZM13 16H14V17H13ZM13 17H14V18H13ZM13 18H14V19H13ZM33 18H34V19H33ZM13 19H14V20H13ZM13 20H14V21H13ZM13 21H14V22H13ZM46 21H47V22H46ZM13 22H14V23H13ZM34 22H35V23H34ZM13 23H14V24H13ZM13 24H14V25H13ZM13 25H14V26H13ZM13 26H14V27H13ZM37 26H38V27H37ZM13 27H14V28H13ZM33 27H34V28H33ZM39 27H40V28H39ZM13 28H14V29H13ZM13 29H14V30H13ZM228 30H229V31H228ZM150 39H151V40H150ZM203 39H204V40H203Z"/><path fill="#90f8f0" fill-opacity="1.000" d="M19 37H20V38H19Z"/><path fill="#90f8f8" fill-opacity="1.000" d="M121 10H122V11H121ZM44 17H45V18H44ZM46 17H47V18H46ZM32 19H33V20H32ZM45 19H46V20H45ZM31 20H32V21H31ZM30 21H31V22H30ZM47 21H48V22H47ZM49 21H50V22H49ZM30 22H31V23H30ZM42 22H43V23H42ZM30 23H31V24H30ZM43 23H44V24H43ZM49 23H50V24H49ZM43 24H44V25H43ZM46 24H48V25H46ZM46 25H47V26H46ZM45 27H46V28H45ZM151 39H152V40H151Z"/><path fill="#90f8ff" fill-opacity="1.000" d="M34 17H35V18H34ZM46 20H47V21H46ZM29 23H30V24H29ZM48 26H49V27H48ZM43 28H44V29H43Z"/><path fill="#90ffff" fill-opacity="1.000" d="M205 10H206V11H205ZM119 13H120V14H119ZM34 28H35V29H34Z"/><path fill="#98d0d8" fill-opacity="1.000" d="M152 42H153V43H152Z"/><path fill="#98d8e0" fill-opacity="1.000" d="M229 31H230V32H229Z"/><path fill="#98e0e0" fill-opacity="1.000" d="M198 42H199V43H198Z"/><path fill="#98e0e8" fill-opacity="1.000" d="M13 32H14V33H13ZM155 42H196V43H155Z"/><path fill="#98e8e8" fill-opacity="1.000" d="M119 6H120V7H119ZM207 7H208V8H207ZM14 33H15V34H14Z"/><path fill="#98e8f0" fill-opacity="1.000" d="M20 6H22V7H20ZM24 6H117V7H24ZM118 6H119V7H118ZM208 7H209V8H208ZM228 32H229V33H228ZM20 38H22V39H20ZM26 38H27V39H26ZM146 38H147V39H146ZM207 38H209V39H207ZM210 38H211V39H210ZM219 38H221V39H219ZM151 41H152V42H151Z"/><path fill="#98f0f0" fill-opacity="1.000" d="M117 6H118V7H117ZM120 7H121V8H120ZM209 7H214V8H209ZM220 7H222V8H220ZM227 7H228V8H227ZM121 8H122V9H121ZM145 10H146V11H145ZM15 11H16V12H15ZM36 22H37V23H36ZM41 23H42V24H41ZM35 24H36V25H35ZM227 33H228V34H227ZM226 34H227V35H226ZM224 36H225V37H224ZM223 37H224V38H223ZM27 38H28V39H27ZM147 38H148V39H147ZM204 38H205V39H204Z"/><path fill="#98f0f8" fill-opacity="1.000" d="M214 7H220V8H214ZM222 7H227V8H222ZM124 10H125V11H124ZM129 10H131V11H129ZM133 10H134V11H133ZM140 10H141V11H140ZM144 10H145V11H144ZM13 14H14V15H13ZM37 19H38V20H37ZM152 41H153V42H152Z"/><path fill="#98f8f8" fill-opacity="1.000" d="M16 10H17V11H16ZM123 10H124V11H123ZM125 10H129V11H125ZM134 10H136V11H134ZM137 10H140V11H137ZM151 10H152V11H151ZM16 34H17V35H16Z"/><path fill="#98f8ff" fill-opacity="1.000" d="M122 10H123V11H122ZM136 10H137V11H136Z"/><path fill="#98ffff" fill-opacity="1.000" d="M40 18H41V19H40ZM34 23H35V24H34ZM45 26H46V27H45Z"/><path fill="#a0e0e8" fill-opacity="1.000" d="M153 42H154V43H153ZM197 42H198V43H197ZM200 42H201V43H200Z"/><path fill="#a0e8f0" fill-opacity="1.000" d="M22 38H26V39H22ZM28 38H146V39H28ZM212 38H219V39H212ZM222 38H223V39H222ZM154 42H155V43H154Z"/><path fill="#a0f0f0" fill-opacity="1.000" d="M206 38H207V39H206ZM209 38H210V39H209ZM211 38H212V39H211Z"/><path fill="#a0f0f8" fill-opacity="1.000" d="M141 10H143V11H141ZM221 38H222V39H221Z"/><path fill="#a0f8f8" fill-opacity="1.000" d="M143 10H144V11H143ZM13 31H14V32H13Z"/><path fill="#a0f8ff" fill-opacity="1.000" d="M148 10H149V11H148Z"/><path fill="#a8e8e8" fill-opacity="1.000" d="M199 42H200V43H199Z"/><path fill="#a8f8f8" fill-opacity="1.000" d="M228 7H229V8H228Z"/></svg>