<svg xmlns="http://www.w3.org/2000/svg" width="145" height="250" viewBox="0 0 145 250" shape-rendering="geometricPrecision"><path fill="#000010" fill-opacity="0.063" d="M18 201H19V202H18Z"/><path fill="#000808" fill-opacity="0.063" d="M85 14H86V15H85ZM129 15H130V16H129ZM18 196H19V197H18Z"/><path fill="#000810" fill-opacity="0.063" d="M87 14H88V15H87ZM84 15H85V16H84ZM60 16H61V17H60ZM63 16H64V17H63ZM17 17H18V18H17ZM16 18H17V19H16ZM18 18H19V19H18ZM17 19H18V20H17ZM19 190H20V191H19ZM18 192H19V193H18ZM17 195H18V196H17ZM22 195H24V196H22Z"/><path fill="#001010" fill-opacity="0.063" d="M17 194H18V195H17ZM17 203H18V204H17ZM16 206H17V207H16Z"/><path fill="#080810" fill-opacity="0.063" d="M17 197H18V198H17ZM16 198H17V199H16ZM17 200H18V201H17Z"/><path fill="#081010" fill-opacity="0.063" d="M19 16H20V17H19ZM18 17H19V18H18ZM19 191H20V192H19Z"/><path fill="#000008" fill-opacity="0.125" d="M64 16H65V17H64ZM20 17H21V18H20ZM58 17H59V18H58ZM20 197H21V198H20Z"/><path fill="#000808" fill-opacity="0.125" d="M20 192H21V193H20ZM18 193H19V194H18ZM19 196H20V197H19Z"/><path fill="#000810" fill-opacity="0.125" d="M89 15H121V16H89ZM128 15H129V16H128ZM65 16H82V17H65ZM83 16H85V17H83ZM131 16H135V17H131ZM136 16H145V17H136ZM22 17H24V18H22ZM25 17H57V18H25ZM19 20H20V21H19ZM19 22H20V23H19ZM19 23H20V24H19ZM19 24H20V25H19ZM19 25H20V26H19ZM19 26H20V27H19ZM19 27H20V28H19ZM19 28H20V29H19ZM19 29H20V30H19ZM19 30H20V31H19ZM19 31H20V32H19ZM19 32H20V33H19ZM19 33H20V34H19ZM19 34H20V35H19ZM19 35H20V36H19ZM19 36H20V37H19ZM19 37H20V38H19ZM19 38H20V39H19ZM19 39H20V40H19ZM19 40H20V41H19ZM19 41H20V42H19ZM19 42H20V43H19ZM19 43H20V44H19ZM19 44H20V45H19ZM19 45H20V46H19ZM19 46H20V47H19ZM19 47H20V48H19ZM19 48H20V49H19ZM19 49H20V50H19ZM19 50H20V51H19ZM19 51H20V52H19ZM19 52H20V53H19ZM19 53H20V54H19ZM19 54H20V55H19ZM19 55H20V56H19ZM19 56H20V57H19ZM19 57H20V58H19ZM19 58H20V59H19ZM19 59H20V60H19ZM19 60H20V61H19ZM19 61H20V62H19ZM19 62H20V63H19ZM19 63H20V64H19ZM19 64H20V65H19ZM19 65H20V66H19ZM19 66H20V67H19ZM19 67H20V68H19ZM19 68H20V69H19ZM19 69H20V70H19ZM19 70H20V71H19ZM19 71H20V72H19ZM19 72H20V73H19ZM19 73H20V74H19ZM19 74H20V75H19ZM19 75H20V76H19ZM19 76H20V77H19ZM19 77H20V78H19ZM19 78H20V79H19ZM19 79H20V80H19ZM19 80H20V81H19ZM19 81H20V82H19ZM19 82H20V83H19ZM19 83H20V84H19ZM19 84H20V85H19ZM19 85H20V86H19ZM19 86H20V87H19ZM19 87H20V88H19ZM19 88H20V89H19ZM19 89H20V90H19ZM19 90H20V91H19ZM19 91H20V92H19ZM19 92H20V93H19ZM19 93H20V94H19ZM19 94H20V95H19ZM19 95H20V96H19ZM19 96H20V97H19ZM19 97H20V98H19ZM19 98H20V99H19ZM19 99H20V100H19ZM19 100H20V101H19ZM19 101H20V102H19ZM19 102H20V103H19ZM19 103H20V104H19ZM19 104H20V105H19ZM19 105H20V106H19ZM19 106H20V107H19ZM19 107H20V108H19ZM19 108H20V109H19ZM19 109H20V110H19ZM19 110H20V111H19ZM19 111H20V112H19ZM19 112H20V113H19ZM19 113H20V114H19ZM19 114H20V115H19ZM19 115H20V116H19ZM19 116H20V117H19ZM19 117H20V118H19ZM19 118H20V119H19ZM19 119H20V120H19ZM19 120H20V121H19ZM19 121H20V122H19ZM19 122H20V123H19ZM19 123H20V124H19ZM19 124H20V125H19ZM19 125H20V126H19ZM19 126H20V127H19ZM19 127H20V128H19ZM19 128H20V129H19ZM19 129H20V130H19ZM19 130H20V131H19ZM19 131H20V132H19ZM19 132H20V133H19ZM19 133H20V134H19ZM19 134H20V135H19ZM19 135H20V136H19ZM19 136H20V137H19ZM19 137H20V138H19ZM19 138H20V139H19ZM19 139H20V140H19ZM19 140H20V141H19ZM19 141H20V142H19ZM19 142H20V143H19ZM19 143H20V144H19ZM19 144H20V145H19ZM19 145H20V146H19ZM19 146H20V147H19ZM19 147H20V148H19ZM19 148H20V149H19ZM19 149H20V150H19ZM19 150H20V151H19ZM19 151H20V152H19ZM19 152H20V153H19ZM19 153H20V154H19ZM19 154H20V155H19ZM19 155H20V156H19ZM19 156H20V157H19ZM19 157H20V158H19ZM19 158H20V159H19ZM19 159H20V160H19ZM19 160H20V161H19ZM19 161H20V162H19ZM19 162H20V163H19ZM19 163H20V164H19ZM19 164H20V165H19ZM19 165H20V166H19ZM19 166H20V167H19ZM19 167H20V168H19ZM19 168H20V169H19ZM19 169H20V170H19ZM19 170H20V171H19ZM19 171H20V172H19ZM19 172H20V173H19ZM19 173H20V174H19ZM19 174H20V175H19ZM19 175H20V176H19ZM19 176H20V177H19ZM19 177H20V178H19ZM19 178H20V179H19ZM19 179H20V180H19ZM19 180H20V181H19ZM19 181H20V182H19ZM19 182H20V183H19ZM19 183H20V184H19ZM19 184H20V185H19ZM19 187H20V188H19ZM19 188H20V189H19ZM21 193H22V194H21ZM23 196H24V197H23Z"/><path fill="#001010" fill-opacity="0.125" d="M121 15H128V16H121ZM82 16H83V17H82ZM135 16H136V17H135ZM21 17H22V18H21ZM24 17H25V18H24ZM57 17H58V18H57ZM19 18H20V19H19ZM19 19H20V20H19ZM19 189H20V190H19ZM22 196H23V197H22ZM17 204H18V205H17ZM16 207H17V208H16ZM16 208H17V209H16ZM16 209H17V210H16ZM16 210H17V211H16ZM16 211H17V212H16ZM16 212H17V213H16ZM16 213H17V214H16ZM16 214H17V215H16ZM16 215H17V216H16ZM16 216H17V217H16ZM16 217H17V218H16ZM16 218H17V219H16ZM16 219H17V220H16ZM16 220H17V221H16ZM16 221H17V222H16ZM16 222H17V223H16ZM16 223H17V224H16ZM16 224H17V225H16ZM16 225H17V226H16ZM16 226H17V227H16ZM16 227H17V228H16ZM16 228H17V229H16ZM16 229H17V230H16ZM16 230H17V231H16ZM16 231H17V232H16ZM16 232H17V233H16ZM16 233H17V234H16ZM16 234H17V235H16ZM16 235H17V236H16ZM16 236H17V237H16ZM16 237H17V238H16ZM16 238H17V239H16ZM16 239H17V240H16ZM16 240H17V241H16ZM16 241H17V242H16ZM16 242H17V243H16ZM16 243H17V244H16ZM16 244H17V245H16ZM16 245H17V246H16ZM16 246H17V247H16ZM16 247H17V248H16ZM16 248H17V249H16ZM16 249H17V250H16Z"/><path fill="#001018" fill-opacity="0.125" d="M19 21H20V22H19ZM19 185H20V186H19ZM19 186H20V187H19Z"/><path fill="#080810" fill-opacity="0.125" d="M18 198H19V199H18ZM17 199H18V200H17ZM19 199H20V200H19Z"/><path fill="#081010" fill-opacity="0.125" d="M86 15H87V16H86ZM20 193H21V194H20Z"/><path fill="#000008" fill-opacity="0.188" d="M86 16H87V17H86ZM62 17H63V18H62Z"/><path fill="#000808" fill-opacity="0.188" d="M19 193H20V194H19Z"/><path fill="#000810" fill-opacity="0.188" d="M88 15H89V16H88ZM85 16H86V17H85ZM130 16H131V17H130ZM59 17H60V18H59ZM61 17H62V18H61ZM22 193H23V194H22ZM23 194H24V195H23ZM20 199H21V200H20ZM19 200H20V201H19ZM18 202H19V203H18Z"/><path fill="#001010" fill-opacity="0.188" d="M20 191H21V192H20ZM21 194H22V195H21ZM17 205H18V206H17Z"/><path fill="#001018" fill-opacity="0.188" d="M123 198H145V199H123ZM19 201H20V202H19Z"/><path fill="#000808" fill-opacity="0.251" d="M19 195H20V196H19ZM21 198H22V199H21Z"/><path fill="#000810" fill-opacity="0.251" d="M22 197H23V198H22Z"/><path fill="#001010" fill-opacity="0.251" d="M24 196H25V197H24Z"/><path fill="#001018" fill-opacity="0.251" d="M122 198H123V199H122Z"/><path fill="#000008" fill-opacity="1.000" d="M87 15H88V16H87ZM19 17H20V18H19ZM18 194H19V195H18ZM20 194H21V195H20ZM18 199H19V200H18Z"/><path fill="#000808" fill-opacity="1.000" d="M19 192H20V193H19ZM20 195H21V196H20ZM21 196H22V197H21Z"/><path fill="#001018" fill-opacity="1.000" d="M60 17H61V18H60ZM22 19H23V20H22ZM60 19H61V20H60ZM85 19H86V20H85ZM130 19H131V20H130ZM21 20H22V21H21ZM24 20H25V21H24ZM82 20H83V21H82ZM28 191H29V192H28ZM31 192H32V193H31ZM27 193H28V194H27ZM29 193H30V194H29ZM32 193H33V194H32ZM23 197H24V198H23ZM121 197H123V198H121ZM124 197H125V198H124ZM126 197H127V198H126ZM128 197H129V198H128ZM130 197H131V198H130ZM132 197H133V198H132ZM134 197H135V198H134ZM136 197H137V198H136ZM138 197H139V198H138ZM140 197H141V198H140ZM142 197H143V198H142ZM144 197H145V198H144ZM22 198H23V199H22ZM121 198H122V199H121ZM22 199H23V200H22ZM124 199H129V200H124ZM21 200H22V201H21ZM90 200H91V201H90ZM20 201H21V202H20ZM19 202H20V203H19ZM18 203H19V204H18ZM18 204H19V205H18ZM17 206H18V207H17ZM17 207H18V208H17ZM17 208H18V209H17ZM17 209H18V210H17ZM17 210H18V211H17ZM17 211H18V212H17ZM17 212H18V213H17ZM17 213H18V214H17ZM17 214H18V215H17ZM17 215H18V216H17ZM17 216H18V217H17ZM17 217H18V218H17ZM17 218H18V219H17ZM17 219H18V220H17ZM17 220H18V221H17ZM17 221H18V222H17ZM17 222H18V223H17ZM17 223H18V224H17ZM17 224H18V225H17ZM17 225H18V226H17ZM17 226H18V227H17ZM17 227H18V228H17ZM17 228H18V229H17ZM17 229H18V230H17ZM17 230H18V231H17ZM17 231H18V232H17ZM17 232H18V233H17ZM17 233H18V234H17ZM17 234H18V235H17ZM17 235H18V236H17ZM17 236H18V237H17ZM17 237H18V238H17ZM17 238H18V239H17ZM17 239H18V240H17ZM17 240H18V241H17ZM17 241H18V242H17ZM17 242H18V243H17ZM17 243H18V244H17ZM17 244H18V245H17ZM17 245H18V246H17ZM17 246H18V247H17ZM17 247H18V248H17ZM17 248H18V249H17ZM17 249H18V250H17Z"/><path fill="#001020" fill-opacity="1.000" d="M59 19H60V20H59ZM64 20H65V21H64ZM83 20H84V21H83ZM23 21H24V22H23ZM129 21H130V22H129ZM22 182H23V183H22ZM24 182H25V183H24ZM22 183H23V184H22ZM22 184H23V185H22ZM24 185H25V186H24ZM22 187H23V188H22ZM24 188H25V189H24ZM24 189H25V190H24ZM24 190H25V191H24ZM26 190H28V191H26ZM29 190H31V191H29ZM32 190H33V191H32ZM85 190H86V191H85ZM89 190H91V191H89ZM121 190H123V191H121ZM124 190H125V191H124ZM126 190H127V191H126ZM128 190H129V191H128ZM130 190H131V191H130ZM132 190H133V191H132ZM134 190H135V191H134ZM136 190H137V191H136ZM138 190H139V191H138ZM140 190H141V191H140ZM142 190H143V191H142ZM144 190H145V191H144ZM85 191H87V192H85ZM93 191H95V192H93ZM97 191H101V192H97ZM105 191H112V192H105ZM117 191H118V192H117ZM25 192H26V193H25ZM30 192H31V193H30ZM120 192H121V193H120ZM28 193H29V194H28ZM117 193H118V194H117ZM120 198H121V199H120Z"/><path fill="#001818" fill-opacity="1.000" d="M24 197H25V198H24ZM23 198H24V199H23ZM92 200H95V201H92ZM106 200H107V201H106ZM108 200H109V201H108ZM114 200H115V201H114Z"/><path fill="#001820" fill-opacity="1.000" d="M58 19H59V20H58ZM61 19H62V20H61ZM63 19H81V20H63ZM82 19H83V20H82ZM84 19H85V20H84ZM88 19H130V20H88ZM131 19H132V20H131ZM134 19H135V20H134ZM136 19H145V20H136ZM25 20H58V21H25ZM60 20H62V21H60ZM65 20H81V21H65ZM84 20H86V21H84ZM87 20H129V21H87ZM130 20H134V21H130ZM136 20H145V21H136ZM25 21H60V22H25ZM61 21H64V22H61ZM65 21H83V22H65ZM84 21H86V22H84ZM87 21H129V22H87ZM132 21H136V22H132ZM137 21H145V22H137ZM21 22H145V23H21ZM21 23H145V24H21ZM21 24H26V25H21ZM122 24H123V25H122ZM124 24H125V25H124ZM126 24H127V25H126ZM23 25H26V26H23ZM23 26H121V27H23ZM127 26H145V27H127ZM24 27H121V28H24ZM127 27H145V28H127ZM24 28H145V29H24ZM24 29H145V30H24ZM24 30H145V31H24ZM23 31H145V32H23ZM23 32H145V33H23ZM23 33H145V34H23ZM23 34H145V35H23ZM23 35H145V36H23ZM23 36H145V37H23ZM23 37H145V38H23ZM23 38H145V39H23ZM23 39H145V40H23ZM23 40H145V41H23ZM23 41H145V42H23ZM23 42H145V43H23ZM23 43H145V44H23ZM23 44H145V45H23ZM23 45H145V46H23ZM23 46H145V47H23ZM23 47H145V48H23ZM23 48H145V49H23ZM23 49H145V50H23ZM23 50H145V51H23ZM23 51H145V52H23ZM23 52H145V53H23ZM23 53H145V54H23ZM23 54H145V55H23ZM23 55H145V56H23ZM23 56H145V57H23ZM23 57H145V58H23ZM23 58H145V59H23ZM23 59H145V60H23ZM23 60H145V61H23ZM23 61H145V62H23ZM23 62H145V63H23ZM23 63H145V64H23ZM23 64H145V65H23ZM23 65H145V66H23ZM23 66H145V67H23ZM23 67H145V68H23ZM23 68H145V69H23ZM23 69H145V70H23ZM23 70H145V71H23ZM23 71H145V72H23ZM23 72H145V73H23ZM23 73H145V74H23ZM23 74H145V75H23ZM23 75H145V76H23ZM23 76H145V77H23ZM23 77H145V78H23ZM23 78H145V79H23ZM23 79H145V80H23ZM23 80H145V81H23ZM23 81H145V82H23ZM23 82H145V83H23ZM23 83H145V84H23ZM23 84H145V85H23ZM23 85H145V86H23ZM23 86H145V87H23ZM23 87H145V88H23ZM23 88H145V89H23ZM23 89H145V90H23ZM23 90H145V91H23ZM23 91H145V92H23ZM23 92H145V93H23ZM23 93H145V94H23ZM23 94H145V95H23ZM23 95H145V96H23ZM23 96H145V97H23ZM23 97H145V98H23ZM23 98H145V99H23ZM23 99H145V100H23ZM23 100H145V101H23ZM23 101H145V102H23ZM23 102H145V103H23ZM23 103H145V104H23ZM23 104H145V105H23ZM23 105H145V106H23ZM23 106H145V107H23ZM23 107H145V108H23ZM23 108H145V109H23ZM23 109H145V110H23ZM23 110H145V111H23ZM23 111H145V112H23ZM23 112H145V113H23ZM23 113H145V114H23ZM23 114H145V115H23ZM23 115H145V116H23ZM23 116H145V117H23ZM23 117H145V118H23ZM23 118H145V119H23ZM23 119H145V120H23ZM23 120H145V121H23ZM23 121H145V122H23ZM23 122H145V123H23ZM23 123H145V124H23ZM23 124H145V125H23ZM23 125H145V126H23ZM23 126H145V127H23ZM23 127H145V128H23ZM23 128H145V129H23ZM23 129H145V130H23ZM23 130H145V131H23ZM23 131H145V132H23ZM23 132H145V133H23ZM23 133H145V134H23ZM23 134H145V135H23ZM23 135H145V136H23ZM23 136H145V137H23ZM23 137H145V138H23ZM23 138H145V139H23ZM23 139H145V140H23ZM23 140H145V141H23ZM23 141H145V142H23ZM23 142H145V143H23ZM23 143H145V144H23ZM23 144H145V145H23ZM23 145H145V146H23ZM23 146H145V147H23ZM23 147H145V148H23ZM23 148H145V149H23ZM23 149H145V150H23ZM23 150H145V151H23ZM23 151H145V152H23ZM23 152H145V153H23ZM23 153H145V154H23ZM23 154H145V155H23ZM23 155H145V156H23ZM23 156H145V157H23ZM23 157H145V158H23ZM23 158H145V159H23ZM23 159H145V160H23ZM23 160H145V161H23ZM23 161H145V162H23ZM23 162H145V163H23ZM23 163H145V164H23ZM23 164H145V165H23ZM23 165H145V166H23ZM23 166H145V167H23ZM23 167H145V168H23ZM23 168H145V169H23ZM23 169H145V170H23ZM23 170H145V171H23ZM23 171H145V172H23ZM23 172H145V173H23ZM23 173H145V174H23ZM23 174H145V175H23ZM23 175H145V176H23ZM23 176H145V177H23ZM23 177H145V178H23ZM23 178H145V179H23ZM23 179H145V180H23ZM23 180H145V181H23ZM23 181H145V182H23ZM23 182H24V183H23ZM25 182H145V183H25ZM24 183H145V184H24ZM24 184H145V185H24ZM22 185H23V186H22ZM25 185H145V186H25ZM24 186H145V187H24ZM24 187H145V188H24ZM22 188H24V189H22ZM25 188H145V189H25ZM25 189H32V190H25ZM36 189H87V190H36ZM88 189H89V190H88ZM90 189H106V190H90ZM108 189H123V190H108ZM124 189H125V190H124ZM126 189H127V190H126ZM128 189H129V190H128ZM130 189H131V190H130ZM132 189H133V190H132ZM134 189H135V190H134ZM136 189H137V190H136ZM138 189H139V190H138ZM140 189H141V190H140ZM142 189H143V190H142ZM144 189H145V190H144ZM39 190H41V191H39ZM73 190H77V191H73ZM91 190H93V191H91ZM96 190H97V191H96ZM100 190H105V191H100ZM110 190H117V191H110ZM119 190H120V191H119ZM26 191H27V192H26ZM29 191H30V192H29ZM37 191H43V192H37ZM44 191H45V192H44ZM46 191H47V192H46ZM48 191H49V192H48ZM50 191H51V192H50ZM52 191H53V192H52ZM54 191H55V192H54ZM56 191H57V192H56ZM58 191H59V192H58ZM60 191H61V192H60ZM62 191H63V192H62ZM64 191H65V192H64ZM66 191H67V192H66ZM68 191H69V192H68ZM70 191H71V192H70ZM72 191H83V192H72ZM92 191H93V192H92ZM95 191H96V192H95ZM101 191H105V192H101ZM112 191H117V192H112ZM118 191H119V192H118ZM120 191H121V192H120ZM27 192H28V193H27ZM33 192H83V193H33ZM84 192H93V193H84ZM94 192H97V193H94ZM104 192H108V193H104ZM118 192H120V193H118ZM121 192H145V193H121ZM33 193H89V194H33ZM90 193H99V194H90ZM104 193H110V194H104ZM118 193H119V194H118ZM120 193H145V194H120ZM25 196H26V197H25ZM119 197H121V198H119ZM121 199H124V200H121ZM129 199H145V200H129ZM91 200H92V201H91ZM95 200H96V201H95ZM97 200H106V201H97ZM107 200H108V201H107ZM109 200H113V201H109Z"/><path fill="#001828" fill-opacity="1.000" d="M117 190H119V191H117ZM119 191H120V192H119Z"/><path fill="#002020" fill-opacity="1.000" d="M23 199H24V200H23ZM22 200H23V201H22ZM96 200H97V201H96Z"/><path fill="#002028" fill-opacity="1.000" d="M25 197H26V198H25ZM24 198H25V199H24ZM113 200H114V201H113ZM20 202H21V203H20ZM19 203H20V204H19Z"/><path fill="#002030" fill-opacity="1.000" d="M119 198H120V199H119Z"/><path fill="#002828" fill-opacity="1.000" d="M115 200H116V201H115ZM21 201H22V202H21Z"/><path fill="#002830" fill-opacity="1.000" d="M118 197H119V198H118ZM118 198H119V199H118ZM120 199H121V200H120Z"/><path fill="#003038" fill-opacity="1.000" d="M90 199H91V200H90ZM21 202H22V203H21Z"/><path fill="#003840" fill-opacity="1.000" d="M89 199H90V200H89Z"/><path fill="#004040" fill-opacity="1.000" d="M25 198H26V199H25Z"/><path fill="#004850" fill-opacity="1.000" d="M89 198H90V199H89Z"/><path fill="#005058" fill-opacity="1.000" d="M90 198H91V199H90Z"/><path fill="#081010" fill-opacity="1.000" d="M18 195H19V196H18ZM21 195H22V196H21ZM20 196H21V197H20ZM21 197H22V198H21Z"/><path fill="#081018" fill-opacity="1.000" d="M85 15H86V16H85ZM17 18H18V19H17ZM21 192H22V193H21ZM19 194H20V195H19ZM123 197H124V198H123ZM125 197H126V198H125ZM127 197H128V198H127ZM129 197H130V198H129ZM131 197H132V198H131ZM133 197H134V198H133ZM135 197H136V198H135ZM137 197H138V198H137ZM139 197H140V198H139ZM141 197H142V198H141ZM143 197H144V198H143ZM20 200H21V201H20Z"/><path fill="#081020" fill-opacity="1.000" d="M21 25H22V26H21ZM21 26H22V27H21ZM21 27H22V28H21ZM21 28H22V29H21ZM21 29H22V30H21ZM21 30H22V31H21ZM21 31H22V32H21ZM21 32H22V33H21ZM21 33H22V34H21ZM21 34H22V35H21ZM21 35H22V36H21ZM21 36H22V37H21ZM21 37H22V38H21ZM21 38H22V39H21ZM21 39H22V40H21ZM21 40H22V41H21ZM21 41H22V42H21ZM21 42H22V43H21ZM21 43H22V44H21ZM21 44H22V45H21ZM21 45H22V46H21ZM21 46H22V47H21ZM21 47H22V48H21ZM21 48H22V49H21ZM21 49H22V50H21ZM21 50H22V51H21ZM21 51H22V52H21ZM21 52H22V53H21ZM21 53H22V54H21ZM21 54H22V55H21ZM21 55H22V56H21ZM21 56H22V57H21ZM21 57H22V58H21ZM21 58H22V59H21ZM21 59H22V60H21ZM21 60H22V61H21ZM21 61H22V62H21ZM21 62H22V63H21ZM21 63H22V64H21ZM21 64H22V65H21ZM21 65H22V66H21ZM21 66H22V67H21ZM21 67H22V68H21ZM21 68H22V69H21ZM21 69H22V70H21ZM21 70H22V71H21ZM21 71H22V72H21ZM21 72H22V73H21ZM21 73H22V74H21ZM21 74H22V75H21ZM21 75H22V76H21ZM21 76H22V77H21ZM21 77H22V78H21ZM21 78H22V79H21ZM21 79H22V80H21ZM21 80H22V81H21ZM21 81H22V82H21ZM21 82H22V83H21ZM21 83H22V84H21ZM21 84H22V85H21ZM21 85H22V86H21ZM21 86H22V87H21ZM21 87H22V88H21ZM21 88H22V89H21ZM21 89H22V90H21ZM21 90H22V91H21ZM21 91H22V92H21ZM21 92H22V93H21ZM21 93H22V94H21ZM21 94H22V95H21ZM21 95H22V96H21ZM21 96H22V97H21ZM21 97H22V98H21ZM21 98H22V99H21ZM21 99H22V100H21ZM21 100H22V101H21ZM21 101H22V102H21ZM21 102H22V103H21ZM21 103H22V104H21ZM21 104H22V105H21ZM21 105H22V106H21ZM21 106H22V107H21ZM21 107H22V108H21ZM21 108H22V109H21ZM21 109H22V110H21ZM21 110H22V111H21ZM21 111H22V112H21ZM21 112H22V113H21ZM21 113H22V114H21ZM21 114H22V115H21ZM21 115H22V116H21ZM21 116H22V117H21ZM21 117H22V118H21ZM21 118H22V119H21ZM21 119H22V120H21ZM21 120H22V121H21ZM21 121H22V122H21ZM21 122H22V123H21ZM21 123H22V124H21ZM21 124H22V125H21ZM21 125H22V126H21ZM21 126H22V127H21ZM21 127H22V128H21ZM21 128H22V129H21ZM21 129H22V130H21ZM21 130H22V131H21ZM21 131H22V132H21ZM21 132H22V133H21ZM21 133H22V134H21ZM21 134H22V135H21ZM21 135H22V136H21ZM21 136H22V137H21ZM21 137H22V138H21ZM21 138H22V139H21ZM21 139H22V140H21ZM21 140H22V141H21ZM21 141H22V142H21ZM21 142H22V143H21ZM21 143H22V144H21ZM21 144H22V145H21ZM21 145H22V146H21ZM21 146H22V147H21ZM21 147H22V148H21ZM21 148H22V149H21ZM21 149H22V150H21ZM21 150H22V151H21ZM21 151H22V152H21ZM21 152H22V153H21ZM21 153H22V154H21ZM21 154H22V155H21ZM21 155H22V156H21ZM21 156H22V157H21ZM21 157H22V158H21ZM21 158H22V159H21ZM21 159H22V160H21ZM21 160H22V161H21ZM21 161H22V162H21ZM21 162H22V163H21ZM21 163H22V164H21ZM21 164H22V165H21ZM21 165H22V166H21ZM21 166H22V167H21ZM21 167H22V168H21ZM21 168H22V169H21ZM21 169H22V170H21ZM21 170H22V171H21ZM21 171H22V172H21ZM21 172H22V173H21ZM21 173H22V174H21ZM21 174H22V175H21ZM21 175H22V176H21ZM21 176H22V177H21ZM21 177H22V178H21ZM21 178H22V179H21ZM21 179H22V180H21ZM21 180H22V181H21ZM21 181H22V182H21ZM21 184H22V185H21ZM33 190H36V191H33ZM123 190H124V191H123ZM125 190H126V191H125ZM127 190H128V191H127ZM129 190H130V191H129ZM131 190H132V191H131ZM133 190H134V191H133ZM135 190H136V191H135ZM137 190H138V191H137ZM139 190H140V191H139ZM141 190H142V191H141ZM143 190H144V191H143ZM33 191H34V192H33ZM112 193H116V194H112ZM21 199H22V200H21Z"/><path fill="#081818" fill-opacity="1.000" d="M87 16H88V17H87Z"/><path fill="#081820" fill-opacity="1.000" d="M129 16H130V17H129ZM21 19H22V20H21ZM23 19H58V20H23ZM62 19H63V20H62ZM81 19H82V20H81ZM86 19H87V20H86ZM133 19H134V20H133ZM135 19H136V20H135ZM23 20H24V21H23ZM58 20H59V21H58ZM62 20H64V21H62ZM86 20H87V21H86ZM134 20H136V21H134ZM21 21H23V22H21ZM60 21H61V22H60ZM64 21H65V22H64ZM86 21H87V22H86ZM136 21H137V22H136ZM26 24H122V25H26ZM123 24H124V25H123ZM125 24H126V25H125ZM127 24H145V25H127ZM22 25H23V26H22ZM26 25H145V26H26ZM22 26H23V27H22ZM121 26H127V27H121ZM22 27H24V28H22ZM121 27H127V28H121ZM22 28H24V29H22ZM22 29H24V30H22ZM22 30H24V31H22ZM22 31H23V32H22ZM22 32H23V33H22ZM22 33H23V34H22ZM22 34H23V35H22ZM22 35H23V36H22ZM22 36H23V37H22ZM22 37H23V38H22ZM22 38H23V39H22ZM22 39H23V40H22ZM22 40H23V41H22ZM22 41H23V42H22ZM22 42H23V43H22ZM22 43H23V44H22ZM22 44H23V45H22ZM22 45H23V46H22ZM22 46H23V47H22ZM22 47H23V48H22ZM22 48H23V49H22ZM22 49H23V50H22ZM22 50H23V51H22ZM22 51H23V52H22ZM22 52H23V53H22ZM22 53H23V54H22ZM22 54H23V55H22ZM22 55H23V56H22ZM22 56H23V57H22ZM22 57H23V58H22ZM22 58H23V59H22ZM22 59H23V60H22ZM22 60H23V61H22ZM22 61H23V62H22ZM22 62H23V63H22ZM22 63H23V64H22ZM22 64H23V65H22ZM22 65H23V66H22ZM22 66H23V67H22ZM22 67H23V68H22ZM22 68H23V69H22ZM22 69H23V70H22ZM22 70H23V71H22ZM22 71H23V72H22ZM22 72H23V73H22ZM22 73H23V74H22ZM22 74H23V75H22ZM22 75H23V76H22ZM22 76H23V77H22ZM22 77H23V78H22ZM22 78H23V79H22ZM22 79H23V80H22ZM22 80H23V81H22ZM22 81H23V82H22ZM22 82H23V83H22ZM22 83H23V84H22ZM22 84H23V85H22ZM22 85H23V86H22ZM22 86H23V87H22ZM22 87H23V88H22ZM22 88H23V89H22ZM22 89H23V90H22ZM22 90H23V91H22ZM22 91H23V92H22ZM22 92H23V93H22ZM22 93H23V94H22ZM22 94H23V95H22ZM22 95H23V96H22ZM22 96H23V97H22ZM22 97H23V98H22ZM22 98H23V99H22ZM22 99H23V100H22ZM22 100H23V101H22ZM22 101H23V102H22ZM22 102H23V103H22ZM22 103H23V104H22ZM22 104H23V105H22ZM22 105H23V106H22ZM22 106H23V107H22ZM22 107H23V108H22ZM22 108H23V109H22ZM22 109H23V110H22ZM22 110H23V111H22ZM22 111H23V112H22ZM22 112H23V113H22ZM22 113H23V114H22ZM22 114H23V115H22ZM22 115H23V116H22ZM22 116H23V117H22ZM22 117H23V118H22ZM22 118H23V119H22ZM22 119H23V120H22ZM22 120H23V121H22ZM22 121H23V122H22ZM22 122H23V123H22ZM22 123H23V124H22ZM22 124H23V125H22ZM22 125H23V126H22ZM22 126H23V127H22ZM22 127H23V128H22ZM22 128H23V129H22ZM22 129H23V130H22ZM22 130H23V131H22ZM22 131H23V132H22ZM22 132H23V133H22ZM22 133H23V134H22ZM22 134H23V135H22ZM22 135H23V136H22ZM22 136H23V137H22ZM22 137H23V138H22ZM22 138H23V139H22ZM22 139H23V140H22ZM22 140H23V141H22ZM22 141H23V142H22ZM22 142H23V143H22ZM22 143H23V144H22ZM22 144H23V145H22ZM22 145H23V146H22ZM22 146H23V147H22ZM22 147H23V148H22ZM22 148H23V149H22ZM22 149H23V150H22ZM22 150H23V151H22ZM22 151H23V152H22ZM22 152H23V153H22ZM22 153H23V154H22ZM22 154H23V155H22ZM22 155H23V156H22ZM22 156H23V157H22ZM22 157H23V158H22ZM22 158H23V159H22ZM22 159H23V160H22ZM22 160H23V161H22ZM22 161H23V162H22ZM22 162H23V163H22ZM22 163H23V164H22ZM22 164H23V165H22ZM22 165H23V166H22ZM22 166H23V167H22ZM22 167H23V168H22ZM22 168H23V169H22ZM22 169H23V170H22ZM22 170H23V171H22ZM22 171H23V172H22ZM22 172H23V173H22ZM22 173H23V174H22ZM22 174H23V175H22ZM22 175H23V176H22ZM22 176H23V177H22ZM22 177H23V178H22ZM22 178H23V179H22ZM22 179H23V180H22ZM22 180H23V181H22ZM22 181H23V182H22ZM21 182H22V183H21ZM21 183H22V184H21ZM23 183H24V184H23ZM23 184H24V185H23ZM21 185H22V186H21ZM23 185H24V186H23ZM21 186H23V187H21ZM21 187H22V188H21ZM23 187H24V188H23ZM22 189H24V190H22ZM32 189H36V190H32ZM87 189H88V190H87ZM89 189H90V190H89ZM106 189H108V190H106ZM123 189H124V190H123ZM125 189H126V190H125ZM127 189H128V190H127ZM129 189H130V190H129ZM131 189H132V190H131ZM133 189H134V190H133ZM135 189H136V190H135ZM137 189H138V190H137ZM139 189H140V190H139ZM141 189H142V190H141ZM143 189H144V190H143ZM20 190H21V191H20ZM36 190H39V191H36ZM41 190H43V191H41ZM44 190H45V191H44ZM46 190H47V191H46ZM48 190H49V191H48ZM50 190H51V191H50ZM52 190H53V191H52ZM54 190H55V191H54ZM56 190H57V191H56ZM58 190H59V191H58ZM60 190H61V191H60ZM62 190H63V191H62ZM64 190H65V191H64ZM66 190H67V191H66ZM68 190H69V191H68ZM70 190H71V191H70ZM72 190H73V191H72ZM77 190H85V191H77ZM86 190H87V191H86ZM93 190H94V191H93ZM95 190H96V191H95ZM97 190H100V191H97ZM109 190H110V191H109ZM21 191H22V192H21ZM30 191H32V192H30ZM34 191H37V192H34ZM43 191H44V192H43ZM45 191H46V192H45ZM47 191H48V192H47ZM49 191H50V192H49ZM51 191H52V192H51ZM53 191H54V192H53ZM55 191H56V192H55ZM57 191H58V192H57ZM59 191H60V192H59ZM61 191H62V192H61ZM63 191H64V192H63ZM65 191H66V192H65ZM67 191H68V192H67ZM69 191H70V192H69ZM71 191H72V192H71ZM83 191H85V192H83ZM87 191H89V192H87ZM90 191H92V192H90ZM96 191H97V192H96ZM121 191H145V192H121ZM28 192H29V193H28ZM32 192H33V193H32ZM83 192H84V193H83ZM97 192H104V193H97ZM108 192H113V193H108ZM114 192H118V193H114ZM25 193H26V194H25ZM99 193H104V194H99ZM110 193H112V194H110ZM116 193H117V194H116ZM119 193H120V194H119ZM24 195H25V196H24Z"/><path fill="#081828" fill-opacity="1.000" d="M83 19H84V20H83ZM87 19H88V20H87ZM59 20H60V21H59ZM129 20H130V21H129ZM24 21H25V22H24ZM83 21H84V22H83ZM130 21H132V22H130ZM23 186H24V187H23ZM25 190H26V191H25ZM28 190H29V191H28ZM31 190H32V191H31ZM43 190H44V191H43ZM45 190H46V191H45ZM47 190H48V191H47ZM49 190H50V191H49ZM51 190H52V191H51ZM53 190H54V191H53ZM55 190H56V191H55ZM57 190H58V191H57ZM59 190H60V191H59ZM61 190H62V191H61ZM63 190H64V191H63ZM65 190H66V191H65ZM67 190H68V191H67ZM69 190H70V191H69ZM71 190H72V191H71ZM87 190H89V191H87ZM94 190H95V191H94ZM105 190H109V191H105ZM120 190H121V191H120ZM24 191H26V192H24ZM27 191H28V192H27ZM32 191H33V192H32ZM89 191H90V192H89ZM24 192H25V193H24Z"/><path fill="#082020" fill-opacity="1.000" d="M132 19H133V20H132ZM93 192H94V193H93Z"/><path fill="#082028" fill-opacity="1.000" d="M81 20H82V21H81ZM26 192H27V193H26ZM29 192H30V193H29ZM30 193H32V194H30ZM89 193H90V194H89ZM26 196H27V197H26Z"/><path fill="#082830" fill-opacity="1.000" d="M123 200H145V201H123ZM18 206H19V207H18ZM18 207H19V208H18ZM18 208H19V209H18ZM18 209H19V210H18ZM18 210H19V211H18ZM18 211H19V212H18ZM18 212H19V213H18ZM18 213H19V214H18ZM18 214H19V215H18ZM18 215H19V216H18ZM18 216H19V217H18ZM18 217H19V218H18ZM18 218H19V219H18ZM18 219H19V220H18ZM18 220H19V221H18ZM18 221H19V222H18ZM18 222H19V223H18ZM18 223H19V224H18ZM18 224H19V225H18ZM18 225H19V226H18ZM18 226H19V227H18ZM18 227H19V228H18ZM18 228H19V229H18ZM18 229H19V230H18ZM18 230H19V231H18ZM18 231H19V232H18ZM18 232H19V233H18ZM18 233H19V234H18ZM18 234H19V235H18ZM18 235H19V236H18ZM18 236H19V237H18ZM18 237H19V238H18ZM18 238H19V239H18ZM18 239H19V240H18ZM18 240H19V241H18ZM18 241H19V242H18ZM18 242H19V243H18ZM18 243H19V244H18ZM18 244H19V245H18ZM18 245H19V246H18ZM18 246H19V247H18ZM18 247H19V248H18ZM18 248H19V249H18ZM18 249H19V250H18Z"/><path fill="#083030" fill-opacity="1.000" d="M119 199H120V200H119ZM121 200H123V201H121Z"/><path fill="#083830" fill-opacity="1.000" d="M120 200H121V201H120Z"/><path fill="#083838" fill-opacity="1.000" d="M20 203H21V204H20Z"/><path fill="#083840" fill-opacity="1.000" d="M26 197H28V198H26ZM117 197H118V198H117ZM24 199H25V200H24ZM23 200H24V201H23ZM22 201H23V202H22Z"/><path fill="#084048" fill-opacity="1.000" d="M116 197H117V198H116ZM19 214H20V215H19ZM19 215H20V216H19ZM19 216H20V217H19ZM19 217H20V218H19ZM19 218H20V219H19ZM19 219H20V220H19ZM19 220H20V221H19ZM19 221H20V222H19ZM19 222H20V223H19ZM19 223H20V224H19ZM19 224H20V225H19ZM19 225H20V226H19ZM19 226H20V227H19ZM19 227H20V228H19ZM19 228H20V229H19ZM19 229H20V230H19ZM19 230H20V231H19ZM19 231H20V232H19ZM19 232H20V233H19ZM19 233H20V234H19ZM19 234H20V235H19ZM19 235H20V236H19ZM19 236H20V237H19ZM19 237H20V238H19ZM19 238H20V239H19ZM19 239H20V240H19ZM19 240H20V241H19ZM19 241H20V242H19ZM19 242H20V243H19ZM19 243H20V244H19ZM19 244H20V245H19ZM19 245H20V246H19Z"/><path fill="#084848" fill-opacity="1.000" d="M29 197H31V198H29ZM32 197H38V198H32ZM41 197H75V198H41ZM76 197H77V198H76ZM84 197H85V198H84Z"/><path fill="#101010" fill-opacity="1.000" d="M17 198H18V199H17Z"/><path fill="#101018" fill-opacity="1.000" d="M18 200H19V201H18Z"/><path fill="#101820" fill-opacity="1.000" d="M113 192H114V193H113Z"/><path fill="#101828" fill-opacity="1.000" d="M21 188H22V189H21ZM23 190H24V191H23ZM23 191H24V192H23Z"/><path fill="#102028" fill-opacity="1.000" d="M22 20H23V21H22ZM22 192H23V193H22ZM26 193H27V194H26Z"/><path fill="#102830" fill-opacity="1.000" d="M18 205H19V206H18Z"/><path fill="#103038" fill-opacity="1.000" d="M19 204H20V205H19Z"/><path fill="#103840" fill-opacity="1.000" d="M19 205H20V206H19Z"/><path fill="#104040" fill-opacity="1.000" d="M116 200H117V201H116Z"/><path fill="#104048" fill-opacity="1.000" d="M19 206H20V207H19ZM19 207H20V208H19ZM19 208H20V209H19ZM19 209H20V210H19ZM19 210H20V211H19ZM19 211H20V212H19ZM19 212H20V213H19ZM19 213H20V214H19ZM19 246H20V247H19ZM19 247H20V248H19ZM19 248H20V249H19ZM19 249H20V250H19Z"/><path fill="#104840" fill-opacity="1.000" d="M117 200H118V201H117ZM119 200H120V201H119Z"/><path fill="#104848" fill-opacity="1.000" d="M38 197H41V198H38ZM75 197H76V198H75ZM77 197H84V198H77ZM85 197H87V198H85Z"/><path fill="#104850" fill-opacity="1.000" d="M31 197H32V198H31ZM87 197H88V198H87ZM117 198H118V199H117Z"/><path fill="#105050" fill-opacity="1.000" d="M88 197H90V198H88Z"/><path fill="#182030" fill-opacity="1.000" d="M21 189H22V190H21ZM22 190H23V191H22Z"/><path fill="#184850" fill-opacity="1.000" d="M28 197H29V198H28ZM118 199H119V200H118Z"/><path fill="#185048" fill-opacity="1.000" d="M118 200H119V201H118ZM116 201H117V202H116Z"/><path fill="#186060" fill-opacity="1.000" d="M21 203H22V204H21Z"/><path fill="#202830" fill-opacity="1.000" d="M23 193H24V194H23Z"/><path fill="#203038" fill-opacity="1.000" d="M24 194H25V195H24ZM25 195H26V196H25Z"/><path fill="#203840" fill-opacity="1.000" d="M119 196H120V197H119Z"/><path fill="#204040" fill-opacity="1.000" d="M31 195H32V196H31Z"/><path fill="#204850" fill-opacity="1.000" d="M113 195H114V196H113ZM29 196H31V197H29ZM116 196H117V197H116Z"/><path fill="#205050" fill-opacity="1.000" d="M96 195H97V196H96ZM32 196H36V197H32Z"/><path fill="#205058" fill-opacity="1.000" d="M108 195H113V196H108Z"/><path fill="#205860" fill-opacity="1.000" d="M117 199H118V200H117ZM20 204H21V205H20Z"/><path fill="#206060" fill-opacity="1.000" d="M93 196H94V197H93Z"/><path fill="#206868" fill-opacity="1.000" d="M95 196H111V197H95Z"/><path fill="#206870" fill-opacity="1.000" d="M111 196H112V197H111Z"/><path fill="#207070" fill-opacity="1.000" d="M88 198H89V199H88ZM91 199H92V200H91Z"/><path fill="#207078" fill-opacity="1.000" d="M25 199H26V200H25Z"/><path fill="#283840" fill-opacity="1.000" d="M63 17H64V18H63ZM120 196H145V197H120Z"/><path fill="#284048" fill-opacity="1.000" d="M27 195H28V196H27ZM29 195H31V196H29ZM33 195H87V196H33ZM118 196H119V197H118Z"/><path fill="#284848" fill-opacity="1.000" d="M116 195H117V196H116Z"/><path fill="#284850" fill-opacity="1.000" d="M32 195H33V196H32ZM88 195H89V196H88ZM115 195H116V196H115ZM28 196H29V197H28ZM117 196H118V197H117Z"/><path fill="#285050" fill-opacity="1.000" d="M31 196H32V197H31ZM36 196H87V197H36ZM113 201H114V202H113Z"/><path fill="#285058" fill-opacity="1.000" d="M92 195H94V196H92ZM95 195H96V196H95ZM97 195H108V196H97ZM114 195H115V196H114ZM87 196H88V197H87Z"/><path fill="#285858" fill-opacity="1.000" d="M94 195H95V196H94ZM115 201H116V202H115Z"/><path fill="#285860" fill-opacity="1.000" d="M115 196H116V197H115Z"/><path fill="#286060" fill-opacity="1.000" d="M92 196H93V197H92Z"/><path fill="#286068" fill-opacity="1.000" d="M112 196H113V197H112Z"/><path fill="#286860" fill-opacity="1.000" d="M117 201H119V202H117Z"/><path fill="#286868" fill-opacity="1.000" d="M94 196H95V197H94Z"/><path fill="#286870" fill-opacity="1.000" d="M113 196H114V197H113ZM115 197H116V198H115Z"/><path fill="#287060" fill-opacity="1.000" d="M119 201H120V202H119Z"/><path fill="#287070" fill-opacity="1.000" d="M22 202H23V203H22Z"/><path fill="#287078" fill-opacity="1.000" d="M116 198H117V199H116Z"/><path fill="#287878" fill-opacity="1.000" d="M26 198H27V199H26Z"/><path fill="#303840" fill-opacity="1.000" d="M119 195H145V196H119Z"/><path fill="#304048" fill-opacity="1.000" d="M117 195H119V196H117Z"/><path fill="#304050" fill-opacity="1.000" d="M28 195H29V196H28Z"/><path fill="#304850" fill-opacity="1.000" d="M87 195H88V196H87ZM89 195H91V196H89Z"/><path fill="#305050" fill-opacity="1.000" d="M91 195H92V196H91Z"/><path fill="#305058" fill-opacity="1.000" d="M88 196H89V197H88ZM108 201H113V202H108Z"/><path fill="#305860" fill-opacity="1.000" d="M89 196H90V197H89ZM114 201H115V202H114Z"/><path fill="#306060" fill-opacity="1.000" d="M90 196H91V197H90Z"/><path fill="#306068" fill-opacity="1.000" d="M91 196H92V197H91Z"/><path fill="#306870" fill-opacity="1.000" d="M114 196H115V197H114ZM23 201H24V202H23ZM122 201H145V202H122Z"/><path fill="#307068" fill-opacity="1.000" d="M121 201H122V202H121Z"/><path fill="#307070" fill-opacity="1.000" d="M24 200H25V201H24Z"/><path fill="#307078" fill-opacity="1.000" d="M90 197H91V198H90Z"/><path fill="#307870" fill-opacity="1.000" d="M120 201H121V202H120Z"/><path fill="#385858" fill-opacity="1.000" d="M107 201H108V202H107Z"/><path fill="#386060" fill-opacity="1.000" d="M103 201H105V202H103ZM106 201H107V202H106Z"/><path fill="#406060" fill-opacity="1.000" d="M102 201H103V202H102ZM105 201H106V202H105Z"/><path fill="#406068" fill-opacity="1.000" d="M27 196H28V197H27ZM100 201H102V202H100Z"/><path fill="#485058" fill-opacity="1.000" d="M88 16H89V17H88Z"/><path fill="#485860" fill-opacity="1.000" d="M26 194H27V195H26Z"/><path fill="#486060" fill-opacity="1.000" d="M30 194H31V195H30Z"/><path fill="#486870" fill-opacity="1.000" d="M93 194H95V195H93ZM108 194H112V195H108ZM99 201H100V202H99Z"/><path fill="#487078" fill-opacity="1.000" d="M98 201H99V202H98Z"/><path fill="#48a8a8" fill-opacity="1.000" d="M98 197H99V198H98ZM100 197H105V198H100Z"/><path fill="#506068" fill-opacity="1.000" d="M28 194H30V195H28ZM33 194H90V195H33ZM117 194H119V195H117ZM121 194H145V195H121Z"/><path fill="#506070" fill-opacity="1.000" d="M116 194H117V195H116Z"/><path fill="#506870" fill-opacity="1.000" d="M31 194H33V195H31ZM90 194H93V195H90ZM95 194H108V195H95ZM112 194H113V195H112ZM114 194H116V195H114Z"/><path fill="#506878" fill-opacity="1.000" d="M113 194H114V195H113Z"/><path fill="#507878" fill-opacity="1.000" d="M92 201H93V202H92ZM94 201H95V202H94ZM96 201H98V202H96Z"/><path fill="#508080" fill-opacity="1.000" d="M93 201H94V202H93ZM95 201H96V202H95Z"/><path fill="#5098a0" fill-opacity="1.000" d="M114 197H115V198H114Z"/><path fill="#50a0a0" fill-opacity="1.000" d="M93 197H95V198H93Z"/><path fill="#50a8a8" fill-opacity="1.000" d="M95 197H98V198H95ZM99 197H100V198H99ZM105 197H111V198H105ZM112 197H113V198H112Z"/><path fill="#50a8b0" fill-opacity="1.000" d="M111 197H112V198H111Z"/><path fill="#586068" fill-opacity="1.000" d="M119 194H121V195H119Z"/><path fill="#586870" fill-opacity="1.000" d="M27 194H28V195H27ZM26 195H27V196H26Z"/><path fill="#58a0a0" fill-opacity="1.000" d="M91 197H92V198H91Z"/><path fill="#58a8b0" fill-opacity="1.000" d="M113 197H114V198H113Z"/><path fill="#608888" fill-opacity="1.000" d="M91 201H92V202H91Z"/><path fill="#609098" fill-opacity="1.000" d="M89 200H90V201H89Z"/><path fill="#60a8a8" fill-opacity="1.000" d="M92 197H93V198H92Z"/><path fill="#687078" fill-opacity="1.000" d="M128 16H129V17H128Z"/><path fill="#687878" fill-opacity="1.000" d="M127 16H128V17H127ZM86 17H87V18H86Z"/><path fill="#687880" fill-opacity="1.000" d="M89 16H113V17H89ZM121 16H127V17H121ZM64 17H81V18H64ZM83 17H84V18H83ZM131 17H132V18H131ZM133 17H134V18H133ZM137 17H145V18H137Z"/><path fill="#688890" fill-opacity="1.000" d="M90 201H91V202H90Z"/><path fill="#707880" fill-opacity="1.000" d="M113 16H118V17H113ZM119 16H120V17H119ZM82 17H83V18H82ZM132 17H133V18H132ZM136 17H137V18H136ZM20 18H21V19H20Z"/><path fill="#708080" fill-opacity="1.000" d="M118 16H119V17H118ZM120 16H121V17H120ZM81 17H82V18H81ZM84 17H85V18H84ZM134 17H135V18H134Z"/><path fill="#708088" fill-opacity="1.000" d="M85 17H86V18H85ZM130 17H131V18H130ZM135 17H136V18H135ZM20 21H21V22H20Z"/><path fill="#70d0d0" fill-opacity="1.000" d="M96 199H97V200H96Z"/><path fill="#70d8e0" fill-opacity="1.000" d="M111 199H112V200H111Z"/><path fill="#788088" fill-opacity="1.000" d="M20 19H21V20H20ZM20 184H21V185H20ZM20 187H21V188H20Z"/><path fill="#788890" fill-opacity="1.000" d="M87 17H88V18H87ZM24 18H58V19H24ZM60 18H61V19H60ZM20 22H21V23H20ZM20 23H21V24H20ZM20 24H21V25H20ZM20 25H21V26H20ZM20 26H21V27H20ZM20 30H21V31H20ZM20 31H21V32H20ZM20 32H21V33H20ZM20 33H21V34H20ZM20 34H21V35H20ZM20 35H21V36H20ZM20 36H21V37H20ZM20 37H21V38H20ZM20 38H21V39H20ZM20 39H21V40H20ZM20 40H21V41H20ZM20 41H21V42H20ZM20 42H21V43H20ZM20 43H21V44H20ZM20 44H21V45H20ZM20 45H21V46H20ZM20 46H21V47H20ZM20 47H21V48H20ZM20 48H21V49H20ZM20 49H21V50H20ZM20 50H21V51H20ZM20 51H21V52H20ZM20 52H21V53H20ZM20 53H21V54H20ZM20 54H21V55H20ZM20 55H21V56H20ZM20 56H21V57H20ZM20 57H21V58H20ZM20 58H21V59H20ZM20 59H21V60H20ZM20 60H21V61H20ZM20 61H21V62H20ZM20 62H21V63H20ZM20 63H21V64H20ZM20 64H21V65H20ZM20 65H21V66H20ZM20 66H21V67H20ZM20 67H21V68H20ZM20 68H21V69H20ZM20 69H21V70H20ZM20 70H21V71H20ZM20 71H21V72H20ZM20 72H21V73H20ZM20 73H21V74H20ZM20 74H21V75H20ZM20 75H21V76H20ZM20 76H21V77H20ZM20 77H21V78H20ZM20 78H21V79H20ZM20 79H21V80H20ZM20 80H21V81H20ZM20 81H21V82H20ZM20 82H21V83H20ZM20 83H21V84H20ZM20 84H21V85H20ZM20 85H21V86H20ZM20 86H21V87H20ZM20 87H21V88H20ZM20 88H21V89H20ZM20 89H21V90H20ZM20 90H21V91H20ZM20 91H21V92H20ZM20 92H21V93H20ZM20 93H21V94H20ZM20 94H21V95H20ZM20 95H21V96H20ZM20 96H21V97H20ZM20 97H21V98H20ZM20 98H21V99H20ZM20 99H21V100H20ZM20 100H21V101H20ZM20 101H21V102H20ZM20 102H21V103H20ZM20 103H21V104H20ZM20 104H21V105H20ZM20 105H21V106H20ZM20 106H21V107H20ZM20 107H21V108H20ZM20 108H21V109H20ZM20 109H21V110H20ZM20 110H21V111H20ZM20 111H21V112H20ZM20 112H21V113H20ZM20 113H21V114H20ZM20 114H21V115H20ZM20 115H21V116H20ZM20 116H21V117H20ZM20 117H21V118H20ZM20 118H21V119H20ZM20 119H21V120H20ZM20 120H21V121H20ZM20 121H21V122H20ZM20 122H21V123H20ZM20 123H21V124H20ZM20 124H21V125H20ZM20 125H21V126H20ZM20 126H21V127H20ZM20 127H21V128H20ZM20 128H21V129H20ZM20 129H21V130H20ZM20 130H21V131H20ZM20 131H21V132H20ZM20 132H21V133H20ZM20 133H21V134H20ZM20 134H21V135H20ZM20 135H21V136H20ZM20 136H21V137H20ZM20 137H21V138H20ZM20 138H21V139H20ZM20 139H21V140H20ZM20 140H21V141H20ZM20 141H21V142H20ZM20 142H21V143H20ZM20 143H21V144H20ZM20 144H21V145H20ZM20 145H21V146H20ZM20 146H21V147H20ZM20 147H21V148H20ZM20 148H21V149H20ZM20 149H21V150H20ZM20 150H21V151H20ZM20 151H21V152H20ZM20 152H21V153H20ZM20 153H21V154H20ZM20 154H21V155H20ZM20 155H21V156H20ZM20 156H21V157H20ZM20 157H21V158H20ZM20 158H21V159H20ZM20 159H21V160H20ZM20 160H21V161H20ZM20 161H21V162H20ZM20 162H21V163H20ZM20 163H21V164H20ZM20 164H21V165H20ZM20 165H21V166H20ZM20 166H21V167H20ZM20 167H21V168H20ZM20 168H21V169H20ZM20 169H21V170H20ZM20 170H21V171H20ZM20 171H21V172H20ZM20 172H21V173H20ZM20 173H21V174H20ZM20 174H21V175H20ZM20 175H21V176H20ZM20 176H21V177H20ZM20 177H21V178H20ZM20 178H21V179H20ZM20 179H21V180H20ZM20 180H21V181H20ZM20 181H21V182H20ZM20 182H21V183H20ZM20 183H21V184H20ZM20 185H21V186H20ZM20 186H21V187H20ZM20 188H21V189H20Z"/><path fill="#789090" fill-opacity="1.000" d="M61 18H62V19H61Z"/><path fill="#78d0d0" fill-opacity="1.000" d="M105 199H106V200H105Z"/><path fill="#78d0d8" fill-opacity="1.000" d="M97 199H102V200H97ZM103 199H105V200H103ZM108 199H109V200H108ZM114 199H115V200H114Z"/><path fill="#78d8d8" fill-opacity="1.000" d="M102 199H103V200H102ZM109 199H111V200H109ZM112 199H114V200H112Z"/><path fill="#78e8f0" fill-opacity="1.000" d="M26 201H27V202H26ZM23 204H24V205H23Z"/><path fill="#808890" fill-opacity="1.000" d="M21 18H24V19H21ZM20 27H21V28H20ZM20 28H21V29H20ZM20 29H21V30H20Z"/><path fill="#809098" fill-opacity="1.000" d="M58 18H60V19H58ZM20 20H21V21H20ZM20 189H21V190H20Z"/><path fill="#80c8d0" fill-opacity="1.000" d="M116 199H117V200H116Z"/><path fill="#80d0d0" fill-opacity="1.000" d="M93 199H94V200H93ZM106 199H108V200H106Z"/><path fill="#80d0d8" fill-opacity="1.000" d="M91 198H92V199H91ZM94 199H95V200H94ZM115 199H116V200H115Z"/><path fill="#80d8d8" fill-opacity="1.000" d="M95 199H96V200H95Z"/><path fill="#80e0e0" fill-opacity="1.000" d="M88 199H89V200H88Z"/><path fill="#80e0f0" fill-opacity="1.000" d="M118 203H119V204H118Z"/><path fill="#80e8e8" fill-opacity="1.000" d="M30 199H31V200H30ZM25 202H26V203H25ZM91 204H92V205H91Z"/><path fill="#80e8f0" fill-opacity="1.000" d="M120 203H121V204H120Z"/><path fill="#80f0f0" fill-opacity="1.000" d="M98 198H99V199H98ZM100 198H105V199H100ZM109 198H113V199H109ZM27 200H28V201H27ZM29 200H30V201H29ZM31 200H32V201H31ZM84 200H85V201H84ZM86 200H88V201H86ZM28 201H29V202H28ZM85 201H86V202H85ZM87 201H88V202H87ZM28 202H29V203H28ZM24 203H25V204H24ZM26 203H27V204H26ZM31 203H32V204H31ZM83 203H84V204H83ZM86 203H88V204H86ZM122 203H127V204H122ZM129 203H145V204H129ZM25 204H26V205H25ZM28 204H29V205H28ZM30 204H31V205H30ZM81 204H82V205H81ZM83 204H85V205H83ZM115 204H116V205H115ZM26 205H28V206H26ZM29 205H30V206H29ZM82 205H83V206H82ZM94 205H95V206H94Z"/><path fill="#80f0f8" fill-opacity="1.000" d="M38 200H39V201H38ZM40 200H42V201H40ZM43 200H44V201H43ZM45 200H46V201H45ZM47 200H48V201H47ZM49 200H50V201H49ZM51 200H52V201H51ZM53 200H54V201H53ZM55 200H56V201H55ZM57 200H58V201H57ZM59 200H60V201H59ZM61 200H62V201H61ZM63 200H64V201H63ZM65 200H66V201H65ZM67 200H68V201H67ZM69 200H70V201H69ZM71 200H72V201H71ZM73 200H74V201H73ZM75 200H76V201H75ZM77 200H81V201H77ZM29 201H31V202H29ZM32 201H33V202H32ZM37 201H83V202H37ZM84 201H85V202H84ZM32 202H33V203H32ZM81 202H83V203H81ZM85 202H86V203H85ZM39 204H41V205H39ZM73 204H79V205H73ZM121 204H128V205H121ZM129 204H145V205H129ZM118 205H121V206H118ZM123 205H129V206H123ZM24 207H25V208H24ZM24 208H25V209H24ZM24 209H25V210H24ZM24 210H25V211H24ZM24 211H25V212H24ZM24 212H25V213H24ZM24 213H25V214H24ZM24 214H25V215H24ZM24 215H25V216H24ZM24 216H25V217H24ZM24 217H25V218H24ZM24 218H25V219H24ZM24 219H25V220H24ZM24 220H25V221H24ZM24 221H25V222H24ZM24 222H25V223H24ZM24 223H25V224H24ZM24 224H25V225H24ZM24 225H25V226H24ZM24 226H25V227H24ZM24 227H25V228H24ZM24 228H25V229H24ZM24 229H25V230H24ZM24 230H25V231H24ZM24 231H25V232H24ZM24 232H25V233H24ZM24 233H25V234H24ZM24 234H25V235H24ZM24 235H25V236H24ZM24 236H25V237H24ZM24 237H25V238H24ZM24 238H25V239H24ZM24 239H25V240H24ZM24 240H25V241H24ZM24 241H25V242H24ZM24 242H25V243H24ZM24 243H25V244H24ZM24 244H25V245H24ZM24 245H25V246H24ZM24 246H25V247H24ZM24 247H25V248H24ZM24 248H25V249H24ZM24 249H25V250H24Z"/><path fill="#80f8f0" fill-opacity="1.000" d="M100 205H101V206H100ZM102 205H103V206H102ZM104 205H105V206H104ZM22 206H23V207H22ZM22 207H23V208H22ZM22 208H23V209H22ZM22 209H23V210H22ZM22 210H23V211H22ZM22 211H23V212H22ZM22 212H23V213H22ZM22 213H23V214H22ZM22 214H23V215H22ZM22 215H23V216H22ZM22 216H23V217H22ZM22 217H23V218H22ZM22 218H23V219H22ZM22 219H23V220H22ZM22 220H23V221H22ZM22 221H23V222H22ZM22 222H23V223H22ZM22 223H23V224H22ZM22 224H23V225H22ZM22 225H23V226H22ZM22 226H23V227H22ZM22 227H23V228H22ZM22 228H23V229H22ZM22 229H23V230H22ZM22 230H23V231H22ZM22 231H23V232H22ZM22 232H23V233H22ZM22 233H23V234H22ZM22 234H23V235H22ZM22 235H23V236H22ZM22 236H23V237H22ZM22 237H23V238H22ZM22 238H23V239H22ZM22 239H23V240H22ZM22 240H23V241H22ZM22 241H23V242H22ZM22 242H23V243H22ZM22 243H23V244H22ZM22 244H23V245H22ZM22 245H23V246H22ZM22 246H23V247H22ZM22 247H23V248H22ZM22 248H23V249H22ZM22 249H23V250H22Z"/><path fill="#80f8f8" fill-opacity="1.000" d="M32 200H38V201H32ZM42 200H43V201H42ZM44 200H45V201H44ZM46 200H47V201H46ZM48 200H49V201H48ZM50 200H51V201H50ZM52 200H53V201H52ZM54 200H55V201H54ZM56 200H57V201H56ZM58 200H59V201H58ZM60 200H61V201H60ZM62 200H63V201H62ZM64 200H65V201H64ZM66 200H67V201H66ZM68 200H69V201H68ZM70 200H71V201H70ZM72 200H73V201H72ZM74 200H75V201H74ZM76 200H77V201H76ZM33 201H37V202H33ZM83 201H84V202H83ZM23 205H24V206H23ZM101 205H102V206H101ZM103 205H104V206H103ZM23 206H25V207H23ZM103 206H104V207H103ZM23 207H24V208H23ZM23 208H24V209H23ZM23 209H24V210H23ZM23 210H24V211H23ZM23 211H24V212H23ZM23 212H24V213H23ZM23 213H24V214H23ZM23 214H24V215H23ZM23 215H24V216H23ZM23 216H24V217H23ZM23 217H24V218H23ZM23 218H24V219H23ZM23 219H24V220H23ZM23 220H24V221H23ZM23 221H24V222H23ZM23 222H24V223H23ZM23 223H24V224H23ZM23 224H24V225H23ZM23 225H24V226H23ZM23 226H24V227H23ZM23 227H24V228H23ZM23 228H24V229H23ZM23 229H24V230H23ZM23 230H24V231H23ZM23 231H24V232H23ZM23 232H24V233H23ZM23 233H24V234H23ZM23 234H24V235H23ZM23 235H24V236H23ZM23 236H24V237H23ZM23 237H24V238H23ZM23 238H24V239H23ZM23 239H24V240H23ZM23 240H24V241H23ZM23 241H24V242H23ZM23 242H24V243H23ZM23 243H24V244H23ZM23 244H24V245H23ZM23 245H24V246H23ZM23 246H24V247H23ZM23 247H24V248H23ZM23 248H24V249H23ZM23 249H24V250H23Z"/><path fill="#80f8ff" fill-opacity="1.000" d="M24 205H25V206H24Z"/><path fill="#80ffff" fill-opacity="1.000" d="M24 204H25V205H24Z"/><path fill="#8898a0" fill-opacity="1.000" d="M129 17H130V18H129ZM21 190H22V191H21Z"/><path fill="#88d8d8" fill-opacity="1.000" d="M92 199H93V200H92Z"/><path fill="#88d8e0" fill-opacity="1.000" d="M115 198H116V199H115Z"/><path fill="#88e0e0" fill-opacity="1.000" d="M32 198H33V199H32ZM85 198H86V199H85Z"/><path fill="#88e8e8" fill-opacity="1.000" d="M94 198H95V199H94ZM27 199H28V200H27Z"/><path fill="#88e8f0" fill-opacity="1.000" d="M114 203H115V204H114Z"/><path fill="#88f0f0" fill-opacity="1.000" d="M95 198H98V199H95ZM99 198H100V199H99ZM107 198H109V199H107ZM113 198H114V199H113ZM29 199H30V200H29ZM31 199H85V200H31ZM86 199H87V200H86ZM90 203H91V204H90ZM92 203H93V204H92ZM95 203H96V204H95ZM103 203H107V204H103ZM121 203H122V204H121ZM127 203H129V204H127ZM92 204H93V205H92ZM97 204H100V205H97ZM112 204H114V205H112ZM32 205H33V206H32ZM85 205H86V206H85ZM106 205H107V206H106ZM108 205H114V206H108ZM21 206H22V207H21ZM21 207H22V208H21ZM21 208H22V209H21ZM21 209H22V210H21ZM21 210H22V211H21ZM21 211H22V212H21ZM21 212H22V213H21ZM21 213H22V214H21ZM21 214H22V215H21ZM21 215H22V216H21ZM21 216H22V217H21ZM21 217H22V218H21ZM21 218H22V219H21ZM21 219H22V220H21ZM21 220H22V221H21ZM21 221H22V222H21ZM21 222H22V223H21ZM21 223H22V224H21ZM21 224H22V225H21ZM21 225H22V226H21ZM21 226H22V227H21ZM21 227H22V228H21ZM21 228H22V229H21ZM21 229H22V230H21ZM21 230H22V231H21ZM21 231H22V232H21ZM21 232H22V233H21ZM21 233H22V234H21ZM21 234H22V235H21ZM21 235H22V236H21ZM21 236H22V237H21ZM21 237H22V238H21ZM21 238H22V239H21ZM21 239H22V240H21ZM21 240H22V241H21ZM21 241H22V242H21ZM21 242H22V243H21ZM21 243H22V244H21ZM21 244H22V245H21ZM21 245H22V246H21ZM21 246H22V247H21ZM21 247H22V248H21ZM21 248H22V249H21ZM21 249H22V250H21Z"/><path fill="#88f0f8" fill-opacity="1.000" d="M26 200H27V201H26ZM39 200H40V201H39ZM83 200H84V201H83ZM85 200H86V201H85ZM29 202H30V203H29ZM83 202H84V203H83ZM86 202H88V203H86ZM33 203H82V204H33ZM85 203H86V204H85ZM88 203H90V204H88ZM33 204H39V205H33ZM41 204H73V205H41ZM79 204H81V205H79ZM88 204H89V205H88ZM90 204H91V205H90ZM93 204H94V205H93ZM95 204H96V205H95ZM116 204H118V205H116ZM22 205H23V206H22ZM33 205H37V206H33ZM86 205H88V206H86ZM89 205H90V206H89ZM96 205H97V206H96ZM107 205H108V206H107ZM115 205H116V206H115ZM121 205H122V206H121ZM129 205H130V206H129ZM131 205H132V206H131ZM133 205H134V206H133ZM135 205H136V206H135ZM137 205H138V206H137ZM139 205H140V206H139ZM141 205H142V206H141ZM143 205H144V206H143ZM26 206H100V207H26ZM105 206H106V207H105ZM107 206H108V207H107ZM111 206H112V207H111ZM114 206H117V207H114ZM121 206H145V207H121ZM25 207H145V208H25ZM25 208H145V209H25ZM25 209H145V210H25ZM25 210H145V211H25ZM25 211H145V212H25ZM25 212H145V213H25ZM25 213H145V214H25ZM25 214H145V215H25ZM25 215H145V216H25ZM25 216H145V217H25ZM25 217H145V218H25ZM25 218H145V219H25ZM25 219H145V220H25ZM25 220H145V221H25ZM25 221H145V222H25ZM25 222H145V223H25ZM25 223H145V224H25ZM25 224H145V225H25ZM25 225H145V226H25ZM25 226H145V227H25ZM25 227H145V228H25ZM25 228H145V229H25ZM25 229H145V230H25ZM25 230H145V231H25ZM25 231H145V232H25ZM25 232H145V233H25ZM25 233H145V234H25ZM25 234H145V235H25ZM25 235H145V236H25ZM25 236H145V237H25ZM25 237H145V238H25ZM25 238H145V239H25ZM25 239H145V240H25ZM25 240H145V241H25ZM25 241H145V242H25ZM25 242H145V243H25ZM25 243H145V244H25ZM25 244H145V245H25ZM25 245H145V246H25ZM25 246H145V247H25ZM25 247H145V248H25ZM25 248H145V249H25ZM25 249H145V250H25Z"/><path fill="#88f8f8" fill-opacity="1.000" d="M30 200H31V201H30ZM81 200H83V201H81ZM31 201H32V202H31ZM30 202H32V203H30ZM33 202H81V203H33ZM27 203H30V204H27ZM32 203H33V204H32ZM84 203H85V204H84ZM26 204H28V205H26ZM29 204H30V205H29ZM31 204H33V205H31ZM85 204H86V205H85ZM87 204H88V205H87ZM100 204H108V205H100ZM128 204H129V205H128ZM25 205H26V206H25ZM30 205H32V206H30ZM37 205H82V206H37ZM83 205H85V206H83ZM88 205H89V206H88ZM90 205H92V206H90ZM93 205H94V206H93ZM95 205H96V206H95ZM97 205H100V206H97ZM105 205H106V206H105ZM116 205H117V206H116ZM122 205H123V206H122ZM130 205H131V206H130ZM132 205H133V206H132ZM134 205H135V206H134ZM136 205H137V206H136ZM138 205H139V206H138ZM140 205H141V206H140ZM142 205H143V206H142ZM144 205H145V206H144ZM25 206H26V207H25ZM100 206H103V207H100ZM104 206H105V207H104ZM106 206H107V207H106ZM108 206H111V207H108ZM112 206H114V207H112ZM117 206H121V207H117Z"/><path fill="#88f8ff" fill-opacity="1.000" d="M27 201H28V202H27ZM86 201H87V202H86ZM118 204H121V205H118ZM117 205H118V206H117Z"/><path fill="#9098a0" fill-opacity="1.000" d="M25 194H26V195H25Z"/><path fill="#90a0a8" fill-opacity="1.000" d="M62 18H63V19H62Z"/><path fill="#90a0b0" fill-opacity="1.000" d="M24 193H25V194H24Z"/><path fill="#90e0e0" fill-opacity="1.000" d="M28 198H29V199H28ZM82 198H83V199H82ZM86 198H87V199H86ZM24 201H25V202H24Z"/><path fill="#90e0e8" fill-opacity="1.000" d="M29 198H30V199H29ZM38 198H41V199H38ZM81 198H82V199H81ZM23 202H24V203H23Z"/><path fill="#90e8e8" fill-opacity="1.000" d="M31 198H32V199H31ZM33 198H38V199H33ZM41 198H81V199H41ZM92 198H93V199H92ZM25 200H26V201H25ZM121 202H128V203H121ZM22 203H23V204H22ZM21 205H22V206H21Z"/><path fill="#90e8f0" fill-opacity="1.000" d="M88 201H89V202H88Z"/><path fill="#90f0e8" fill-opacity="1.000" d="M128 202H145V203H128Z"/><path fill="#90f0f0" fill-opacity="1.000" d="M93 198H94V199H93ZM105 198H107V199H105ZM114 198H115V199H114ZM28 199H29V200H28ZM85 199H86V200H85ZM120 202H121V203H120ZM107 203H113V204H107ZM22 204H23V205H22ZM111 204H112V205H111Z"/><path fill="#90f0f8" fill-opacity="1.000" d="M23 203H24V204H23ZM96 203H103V204H96ZM115 203H118V204H115ZM119 203H120V204H119Z"/><path fill="#90f8f0" fill-opacity="1.000" d="M109 204H111V205H109Z"/><path fill="#90f8f8" fill-opacity="1.000" d="M88 202H89V203H88ZM93 203H95V204H93ZM82 204H83V205H82ZM89 204H90V205H89ZM94 204H95V205H94ZM96 204H97V205H96ZM108 204H109V205H108Z"/><path fill="#90f8ff" fill-opacity="1.000" d="M28 200H29V201H28ZM26 202H28V203H26ZM25 203H26V204H25ZM30 203H31V204H30ZM82 203H83V204H82ZM86 204H87V205H86ZM114 204H115V205H114ZM92 205H93V206H92ZM114 205H115V206H114Z"/><path fill="#90ffff" fill-opacity="1.000" d="M84 202H85V203H84ZM28 205H29V206H28Z"/><path fill="#98a0b0" fill-opacity="1.000" d="M23 192H24V193H23Z"/><path fill="#98a8b0" fill-opacity="1.000" d="M22 191H23V192H22Z"/><path fill="#98e0e8" fill-opacity="1.000" d="M115 202H116V203H115ZM20 206H21V207H20Z"/><path fill="#98e8e8" fill-opacity="1.000" d="M83 198H85V199H83ZM20 207H21V208H20ZM20 208H21V209H20ZM20 209H21V210H20ZM20 210H21V211H20ZM20 211H21V212H20ZM20 212H21V213H20ZM20 213H21V214H20ZM20 214H21V215H20ZM20 215H21V216H20ZM20 216H21V217H20ZM20 217H21V218H20ZM20 218H21V219H20ZM20 219H21V220H20ZM20 220H21V221H20ZM20 221H21V222H20ZM20 222H21V223H20ZM20 223H21V224H20ZM20 224H21V225H20ZM20 225H21V226H20ZM20 226H21V227H20ZM20 227H21V228H20ZM20 228H21V229H20ZM20 229H21V230H20ZM20 230H21V231H20ZM20 231H21V232H20ZM20 232H21V233H20ZM20 233H21V234H20ZM20 234H21V235H20ZM20 235H21V236H20ZM20 236H21V237H20ZM20 237H21V238H20ZM20 238H21V239H20ZM20 239H21V240H20ZM20 240H21V241H20ZM20 241H21V242H20ZM20 242H21V243H20ZM20 243H21V244H20ZM20 244H21V245H20ZM20 245H21V246H20ZM20 246H21V247H20ZM20 247H21V248H20ZM20 248H21V249H20ZM20 249H21V250H20Z"/><path fill="#98e8f0" fill-opacity="1.000" d="M87 198H88V199H87ZM117 202H119V203H117Z"/><path fill="#98f0f0" fill-opacity="1.000" d="M30 198H31V199H30ZM119 202H120V203H119Z"/><path fill="#98f0f8" fill-opacity="1.000" d="M113 203H114V204H113Z"/><path fill="#98f8f8" fill-opacity="1.000" d="M26 199H27V200H26ZM87 199H88V200H87Z"/><path fill="#98f8ff" fill-opacity="1.000" d="M25 201H26V202H25ZM24 202H25V203H24ZM91 203H92V204H91Z"/><path fill="#a0b0b8" fill-opacity="1.000" d="M63 18H64V19H63ZM130 18H131V19H130ZM133 18H135V19H133Z"/><path fill="#a0b0c0" fill-opacity="1.000" d="M87 18H88V19H87Z"/><path fill="#a0b8c0" fill-opacity="1.000" d="M82 18H83V19H82ZM84 18H85V19H84ZM88 18H114V19H88ZM121 18H127V19H121ZM128 18H129V19H128ZM136 18H137V19H136Z"/><path fill="#a0e0e0" fill-opacity="1.000" d="M20 205H21V206H20Z"/><path fill="#a0e8f0" fill-opacity="1.000" d="M27 198H28V199H27ZM91 202H92V203H91ZM114 202H115V203H114ZM116 202H117V203H116ZM21 204H22V205H21Z"/><path fill="#a0f0f0" fill-opacity="1.000" d="M93 202H95V203H93ZM107 202H111V203H107Z"/><path fill="#a0f0f8" fill-opacity="1.000" d="M89 202H91V203H89Z"/><path fill="#a0f8ff" fill-opacity="1.000" d="M88 200H89V201H88Z"/><path fill="#a8b8c0" fill-opacity="1.000" d="M64 18H82V19H64ZM83 18H84V19H83ZM85 18H87V19H85ZM114 18H121V19H114ZM127 18H128V19H127ZM131 18H133V19H131ZM135 18H136V19H135ZM137 18H145V19H137Z"/><path fill="#a8f0f0" fill-opacity="1.000" d="M111 202H112V203H111Z"/><path fill="#a8f0f8" fill-opacity="1.000" d="M96 202H97V203H96ZM98 202H99V203H98ZM100 202H101V203H100ZM112 202H114V203H112Z"/><path fill="#a8f8f8" fill-opacity="1.000" d="M92 202H93V203H92ZM106 202H107V203H106Z"/><path fill="#a8f8ff" fill-opacity="1.000" d="M105 202H106V203H105Z"/><path fill="#b0c0c0" fill-opacity="1.000" d="M88 17H113V18H88Z"/><path fill="#b0c0c8" fill-opacity="1.000" d="M113 17H116V18H113ZM117 17H118V18H117ZM119 17H121V18H119ZM128 17H129V18H128ZM129 18H130V19H129Z"/><path fill="#b0c8c8" fill-opacity="1.000" d="M116 17H117V18H116ZM118 17H119V18H118ZM122 17H123V18H122ZM124 17H125V18H124ZM126 17H127V18H126Z"/><path fill="#b0c8d0" fill-opacity="1.000" d="M123 17H124V18H123ZM127 17H128V18H127Z"/><path fill="#b0e8e8" fill-opacity="1.000" d="M89 201H90V202H89Z"/><path fill="#b0f0f8" fill-opacity="1.000" d="M99 202H100V203H99ZM101 202H102V203H101Z"/><path fill="#b0f0ff" fill-opacity="1.000" d="M102 202H103V203H102Z"/><path fill="#b0f8ff" fill-opacity="1.000" d="M95 202H96V203H95ZM97 202H98V203H97ZM103 202H105V203H103Z"/><path fill="#b8c8d0" fill-opacity="1.000" d="M121 17H122V18H121ZM125 17H126V18H125Z"/></svg>