<svg xmlns="http://www.w3.org/2000/svg" width="145" height="250" viewBox="0 0 145 250" shape-rendering="geometricPrecision"><path fill="#001020" fill-opacity="0.063" d="M49 20H50V21H49ZM57 191H58V192H57ZM79 201H80V202H79ZM142 203H143V204H142ZM135 204H136V205H135Z"/><path fill="#001820" fill-opacity="0.063" d="M23 20H24V21H23ZM75 20H76V21H75ZM50 21H51V22H50ZM52 21H53V22H52ZM53 22H54V23H53ZM55 23H56V24H55ZM56 26H57V27H56ZM80 200H81V201H80ZM135 205H136V206H135ZM137 205H138V206H137ZM136 206H137V207H136ZM75 216H76V217H75ZM75 218H76V219H75ZM75 225H76V226H75ZM75 234H76V235H75ZM75 241H76V242H75ZM75 243H76V244H75Z"/><path fill="#001828" fill-opacity="0.063" d="M129 20H130V21H129ZM133 20H134V21H133ZM141 20H142V21H141ZM76 21H77V22H76ZM128 21H129V22H128ZM134 21H136V22H134ZM137 21H141V22H137ZM128 22H129V23H128ZM113 24H114V25H113ZM115 24H116V25H115ZM117 24H118V25H117ZM122 24H123V25H122ZM124 24H125V25H124ZM126 24H127V25H126ZM76 26H77V27H76ZM78 27H79V28H78ZM113 27H114V28H113ZM115 27H116V28H115ZM117 27H118V28H117ZM119 27H120V28H119ZM80 28H112V29H80ZM79 29H80V30H79ZM76 30H77V31H76ZM78 30H79V31H78ZM97 30H112V31H97ZM119 30H120V31H119ZM76 31H77V32H76ZM112 31H113V32H112ZM120 31H125V32H120ZM76 32H77V33H76ZM76 33H77V34H76ZM78 33H79V34H78ZM80 33H81V34H80ZM95 33H96V34H95ZM76 34H77V35H76ZM78 34H79V35H78ZM111 34H112V35H111ZM76 35H77V36H76ZM78 35H79V36H78ZM76 36H77V37H76ZM78 36H79V37H78ZM76 37H77V38H76ZM78 37H79V38H78ZM80 37H96V38H80ZM76 38H77V39H76ZM104 38H108V39H104ZM76 39H77V40H76ZM78 39H79V40H78ZM80 39H96V40H80ZM76 40H77V41H76ZM78 40H79V41H78ZM96 40H99V41H96ZM76 41H77V42H76ZM78 41H79V42H78ZM95 41H96V42H95ZM76 42H77V43H76ZM78 42H79V43H78ZM96 42H97V43H96ZM76 43H77V44H76ZM78 43H79V44H78ZM76 44H77V45H76ZM78 44H79V45H78ZM80 44H96V45H80ZM76 45H77V46H76ZM76 46H77V47H76ZM78 46H79V47H78ZM76 47H77V48H76ZM78 47H79V48H78ZM80 47H81V48H80ZM76 48H77V49H76ZM79 48H80V49H79ZM76 49H77V50H76ZM78 49H79V50H78ZM76 50H77V51H76ZM79 50H80V51H79ZM76 51H77V52H76ZM78 51H79V52H78ZM76 52H77V53H76ZM79 52H80V53H79ZM76 53H77V54H76ZM78 53H79V54H78ZM80 53H88V54H80ZM90 53H91V54H90ZM76 54H77V55H76ZM78 54H79V55H78ZM88 54H90V55H88ZM76 55H77V56H76ZM78 55H79V56H78ZM87 55H88V56H87ZM76 56H77V57H76ZM78 56H79V57H78ZM76 57H77V58H76ZM78 57H79V58H78ZM87 57H88V58H87ZM76 58H77V59H76ZM78 58H79V59H78ZM76 59H77V60H76ZM78 59H79V60H78ZM76 60H77V61H76ZM88 60H89V61H88ZM76 61H77V62H76ZM88 61H89V62H88ZM76 62H77V63H76ZM76 63H77V64H76ZM78 63H79V64H78ZM76 64H77V65H76ZM78 64H79V65H78ZM87 64H88V65H87ZM76 65H77V66H76ZM78 65H79V66H78ZM76 66H77V67H76ZM78 66H79V67H78ZM76 67H77V68H76ZM78 67H79V68H78ZM76 68H77V69H76ZM78 68H79V69H78ZM83 68H84V69H83ZM76 69H77V70H76ZM78 69H79V70H78ZM76 70H77V71H76ZM78 70H79V71H78ZM83 70H84V71H83ZM76 71H77V72H76ZM78 71H79V72H78ZM76 72H77V73H76ZM78 72H79V73H78ZM80 72H83V73H80ZM76 73H77V74H76ZM79 73H80V74H79ZM76 74H77V75H76ZM78 74H79V75H78ZM76 75H77V76H76ZM78 75H79V76H78ZM80 75H81V76H80ZM76 76H77V77H76ZM76 77H77V78H76ZM78 77H79V78H78ZM79 78H80V79H79ZM76 79H77V80H76ZM78 79H79V80H78ZM76 80H77V81H76ZM76 81H77V82H76ZM78 81H79V82H78ZM76 82H77V83H76ZM76 83H77V84H76ZM76 84H77V85H76ZM76 85H77V86H76ZM75 86H76V87H75ZM75 88H76V89H75ZM76 89H77V90H76ZM76 90H77V91H76ZM75 91H76V92H75ZM75 97H76V98H75ZM75 98H76V99H75ZM75 114H76V115H75ZM75 120H76V121H75ZM76 121H77V122H76ZM76 122H77V123H76ZM75 123H76V124H75ZM75 125H76V126H75ZM76 126H77V127H76ZM76 127H77V128H76ZM76 128H77V129H76ZM76 129H77V130H76ZM78 129H79V130H78ZM76 131H77V132H76ZM78 131H79V132H78ZM76 132H77V133H76ZM78 132H79V133H78ZM76 133H77V134H76ZM76 134H77V135H76ZM78 134H79V135H78ZM76 135H77V136H76ZM78 135H79V136H78ZM80 135H81V136H80ZM76 136H77V137H76ZM76 137H77V138H76ZM78 137H79V138H78ZM76 138H77V139H76ZM76 139H77V140H76ZM78 139H79V140H78ZM76 140H77V141H76ZM78 140H80V141H78ZM80 141H81V142H80ZM76 142H77V143H76ZM78 142H79V143H78ZM80 142H81V143H80ZM76 143H77V144H76ZM76 144H77V145H76ZM78 144H79V145H78ZM79 145H80V146H79ZM76 147H77V148H76ZM78 147H80V148H78ZM76 148H77V149H76ZM78 148H79V149H78ZM80 148H87V149H80ZM76 149H77V150H76ZM78 149H79V150H78ZM76 150H77V151H76ZM78 150H79V151H78ZM76 151H77V152H76ZM78 151H79V152H78ZM76 152H77V153H76ZM78 152H79V153H78ZM87 152H88V153H87ZM87 154H88V155H87ZM76 155H77V156H76ZM78 155H79V156H78ZM76 156H77V157H76ZM78 156H79V157H78ZM87 156H88V157H87ZM76 157H77V158H76ZM78 157H79V158H78ZM76 158H77V159H76ZM78 158H79V159H78ZM76 159H77V160H76ZM78 159H79V160H78ZM76 160H77V161H76ZM78 160H79V161H78ZM76 161H77V162H76ZM78 161H79V162H78ZM95 161H96V162H95ZM76 162H77V163H76ZM78 162H79V163H78ZM76 163H77V164H76ZM78 163H79V164H78ZM76 164H77V165H76ZM96 164H97V165H96ZM76 165H77V166H76ZM76 166H77V167H76ZM76 167H77V168H76ZM78 167H79V168H78ZM97 167H100V168H97ZM76 168H77V169H76ZM78 168H79V169H78ZM103 168H104V169H103ZM76 169H77V170H76ZM78 169H79V170H78ZM76 170H77V171H76ZM78 170H79V171H78ZM76 171H77V172H76ZM78 171H79V172H78ZM104 171H105V172H104ZM76 172H77V173H76ZM78 172H79V173H78ZM103 172H104V173H103ZM76 173H77V174H76ZM78 173H79V174H78ZM76 174H77V175H76ZM78 174H79V175H78ZM103 174H104V175H103ZM76 175H77V176H76ZM78 175H79V176H78ZM103 175H104V176H103ZM76 176H77V177H76ZM78 176H79V177H78ZM104 176H111V177H104ZM76 177H77V178H76ZM78 177H79V178H78ZM76 178H77V179H76ZM78 178H79V179H78ZM80 178H81V179H80ZM96 178H104V179H96ZM76 179H77V180H76ZM105 179H111V180H105ZM76 180H77V181H76ZM76 181H77V182H76ZM78 181H79V182H78ZM104 181H112V182H104ZM76 182H77V183H76ZM76 183H77V184H76ZM78 183H79V184H78ZM112 183H121V184H112ZM76 184H77V185H76ZM76 185H77V186H76ZM78 185H79V186H78ZM80 185H81V186H80ZM95 185H96V186H95ZM122 185H123V186H122ZM76 186H77V187H76ZM78 186H79V187H78ZM80 186H81V187H80ZM96 186H122V187H96ZM79 187H80V188H79ZM129 187H130V188H129ZM130 188H131V189H130ZM79 189H80V190H79ZM80 191H82V192H80ZM96 191H97V192H96ZM98 191H99V192H98ZM100 191H101V192H100ZM102 191H103V192H102ZM104 191H105V192H104ZM106 191H107V192H106ZM108 191H109V192H108ZM110 191H111V192H110ZM112 191H113V192H112ZM114 191H115V192H114ZM116 191H117V192H116ZM118 191H119V192H118ZM120 191H121V192H120ZM122 191H123V192H122ZM124 191H125V192H124ZM126 191H127V192H126ZM128 191H129V192H128ZM130 191H131V192H130ZM132 191H133V192H132ZM134 191H135V192H134ZM136 191H137V192H136ZM82 193H83V194H82ZM84 193H85V194H84ZM86 193H87V194H86ZM88 193H89V194H88ZM90 193H91V194H90ZM92 193H93V194H92ZM94 193H95V194H94ZM96 193H97V194H96ZM98 193H99V194H98ZM100 193H101V194H100ZM102 193H103V194H102ZM104 193H105V194H104ZM106 193H107V194H106ZM108 193H109V194H108ZM110 193H111V194H110ZM112 193H113V194H112ZM114 193H115V194H114ZM116 193H117V194H116ZM118 193H119V194H118ZM120 193H121V194H120ZM122 193H123V194H122ZM124 193H125V194H124ZM126 193H136V194H126ZM138 193H139V194H138ZM142 193H143V194H142Z"/><path fill="#002028" fill-opacity="0.063" d="M75 23H76V24H75ZM144 23H145V24H144ZM128 24H144V25H128ZM127 25H128V26H127ZM77 27H78V28H77ZM127 27H128V28H127ZM120 28H121V29H120ZM120 29H121V30H120ZM126 29H127V30H126ZM125 30H126V31H125ZM79 31H80V32H79ZM96 31H97V32H96ZM79 32H80V33H79ZM96 32H97V33H96ZM111 32H112V33H111ZM111 36H112V37H111ZM79 38H80V39H79ZM96 38H97V39H96ZM100 38H104V39H100ZM108 38H111V39H108ZM99 39H100V40H99ZM96 43H97V44H96ZM79 45H80V46H79ZM80 46H81V47H80ZM88 52H90V53H88ZM87 59H88V60H87ZM79 60H80V61H79ZM80 61H81V62H80ZM79 62H80V63H79ZM87 62H88V63H87ZM87 66H88V67H87ZM88 67H89V68H88ZM84 68H88V69H84ZM82 69H83V70H82ZM83 71H84V72H83ZM80 74H81V75H80ZM79 76H80V77H79ZM79 80H80V81H79ZM79 82H80V83H79ZM79 83H80V84H79ZM75 113H76V114H75ZM79 128H80V129H79ZM79 129H80V130H79ZM79 131H80V132H79ZM79 133H80V134H79ZM80 134H81V135H80ZM79 136H80V137H79ZM79 138H80V139H79ZM79 143H80V144H79ZM77 145H78V146H77ZM77 146H78V147H77ZM87 149H88V150H87ZM87 150H88V151H87ZM77 153H78V154H77ZM77 154H78V155H77ZM88 157H93V158H88ZM94 158H95V159H94ZM95 159H96V160H95ZM95 163H96V164H95ZM79 164H80V165H79ZM93 164H96V165H93ZM80 165H81V166H80ZM92 165H93V166H92ZM96 165H98V166H96ZM79 166H80V167H79ZM93 166H97V167H93ZM100 167H103V168H100ZM103 170H104V171H103ZM102 173H103V174H102ZM111 177H112V178H111ZM79 179H80V180H79ZM79 180H80V181H79ZM97 180H103V181H97ZM79 182H80V183H79ZM96 182H97V183H96ZM111 182H112V183H111ZM79 184H80V185H79ZM96 184H97V185H96ZM121 184H122V185H121ZM75 187H76V188H75ZM137 192H138V193H137ZM139 192H140V193H139ZM141 192H142V193H141ZM143 192H144V193H143ZM81 193H82V194H81ZM83 193H84V194H83ZM85 193H86V194H85ZM87 193H88V194H87ZM89 193H90V194H89ZM91 193H92V194H91ZM93 193H94V194H93ZM95 193H96V194H95ZM97 193H98V194H97ZM99 193H100V194H99ZM101 193H102V194H101ZM103 193H104V194H103ZM105 193H106V194H105ZM107 193H108V194H107ZM109 193H110V194H109ZM111 193H112V194H111ZM113 193H114V194H113ZM115 193H116V194H115ZM117 193H118V194H117ZM119 193H120V194H119ZM121 193H122V194H121ZM123 193H124V194H123ZM125 193H126V194H125ZM136 193H137V194H136Z"/><path fill="#081020" fill-opacity="0.063" d="M137 202H138V203H137ZM140 202H141V203H140Z"/><path fill="#081820" fill-opacity="0.063" d="M17 20H18V21H17ZM53 20H54V21H53ZM138 203H139V204H138Z"/><path fill="#081828" fill-opacity="0.063" d="M54 21H55V22H54ZM139 201H140V202H139ZM77 204H78V205H77ZM76 205H77V206H76Z"/><path fill="#082028" fill-opacity="0.063" d="M143 22H144V23H143ZM77 29H78V30H77Z"/><path fill="#001020" fill-opacity="0.125" d="M58 25H59V26H58ZM57 27H58V28H57ZM58 29H59V30H58ZM75 205H76V206H75Z"/><path fill="#001820" fill-opacity="0.125" d="M0 19H16V20H0ZM51 20H52V21H51ZM76 20H77V21H76ZM74 21H75V22H74ZM58 30H59V31H58ZM58 31H59V32H58ZM58 32H59V33H58ZM58 33H59V34H58ZM58 34H59V35H58ZM58 35H59V36H58ZM58 36H59V37H58ZM58 37H59V38H58ZM58 38H59V39H58ZM58 39H59V40H58ZM58 40H59V41H58ZM58 41H59V42H58ZM58 42H59V43H58ZM58 43H59V44H58ZM58 44H59V45H58ZM58 45H59V46H58ZM58 46H59V47H58ZM58 47H59V48H58ZM58 48H59V49H58ZM58 49H59V50H58ZM58 50H59V51H58ZM58 51H59V52H58ZM58 52H59V53H58ZM58 53H59V54H58ZM58 54H59V55H58ZM58 55H59V56H58ZM58 56H59V57H58ZM58 57H59V58H58ZM58 58H59V59H58ZM58 59H59V60H58ZM58 60H59V61H58ZM58 61H59V62H58ZM58 62H59V63H58ZM58 63H59V64H58ZM58 64H59V65H58ZM58 65H59V66H58ZM58 66H59V67H58ZM58 67H59V68H58ZM58 68H59V69H58ZM58 69H59V70H58ZM58 70H59V71H58ZM58 71H59V72H58ZM58 72H59V73H58ZM58 73H59V74H58ZM58 74H59V75H58ZM58 75H59V76H58ZM58 76H59V77H58ZM58 77H59V78H58ZM58 78H59V79H58ZM58 79H59V80H58ZM58 80H59V81H58ZM58 81H59V82H58ZM58 82H59V83H58ZM58 83H59V84H58ZM58 84H59V85H58ZM58 85H59V86H58ZM58 86H59V87H58ZM58 87H59V88H58ZM58 88H59V89H58ZM58 89H59V90H58ZM58 90H59V91H58ZM58 91H59V92H58ZM58 92H59V93H58ZM58 93H59V94H58ZM58 94H59V95H58ZM58 95H59V96H58ZM58 96H59V97H58ZM58 97H59V98H58ZM58 98H59V99H58ZM58 99H59V100H58ZM58 100H59V101H58ZM58 101H59V102H58ZM58 102H59V103H58ZM58 103H59V104H58ZM58 104H59V105H58ZM58 105H59V106H58ZM58 106H59V107H58ZM58 107H59V108H58ZM58 108H59V109H58ZM58 109H59V110H58ZM58 110H59V111H58ZM58 111H59V112H58ZM58 112H59V113H58ZM58 113H59V114H58ZM58 114H59V115H58ZM58 115H59V116H58ZM58 116H59V117H58ZM58 117H59V118H58ZM58 118H59V119H58ZM58 119H59V120H58ZM58 120H59V121H58ZM58 121H59V122H58ZM58 122H59V123H58ZM58 123H59V124H58ZM58 124H59V125H58ZM58 125H59V126H58ZM58 126H59V127H58ZM58 127H59V128H58ZM58 128H59V129H58ZM58 129H59V130H58ZM58 130H59V131H58ZM58 131H59V132H58ZM58 132H59V133H58ZM58 133H59V134H58ZM58 134H59V135H58ZM58 135H59V136H58ZM58 136H59V137H58ZM58 137H59V138H58ZM58 138H59V139H58ZM58 139H59V140H58ZM58 140H59V141H58ZM58 141H59V142H58ZM58 142H59V143H58ZM58 143H59V144H58ZM58 144H59V145H58ZM58 145H59V146H58ZM58 146H59V147H58ZM58 147H59V148H58ZM58 148H59V149H58ZM58 149H59V150H58ZM58 150H59V151H58ZM58 151H59V152H58ZM58 152H59V153H58ZM58 153H59V154H58ZM58 154H59V155H58ZM58 155H59V156H58ZM58 156H59V157H58ZM58 157H59V158H58ZM58 158H59V159H58ZM58 159H59V160H58ZM58 160H59V161H58ZM58 161H59V162H58ZM58 162H59V163H58ZM58 163H59V164H58ZM58 164H59V165H58ZM58 165H59V166H58ZM58 166H59V167H58ZM58 167H59V168H58ZM58 168H59V169H58ZM58 169H59V170H58ZM58 170H59V171H58ZM58 171H59V172H58ZM58 172H59V173H58ZM58 173H59V174H58ZM58 174H59V175H58ZM58 175H59V176H58ZM58 176H59V177H58ZM58 177H59V178H58ZM58 178H59V179H58ZM58 179H59V180H58ZM58 180H59V181H58ZM58 181H59V182H58ZM58 182H59V183H58ZM58 183H59V184H58ZM58 184H59V185H58ZM58 185H59V186H58ZM58 186H59V187H58ZM58 187H59V188H58ZM58 188H59V189H58ZM58 189H59V190H58ZM0 193H31V194H0ZM37 193H38V194H37ZM39 193H40V194H39ZM43 193H53V194H43ZM81 199H139V200H81ZM144 203H145V204H144ZM137 204H138V205H137ZM74 207H75V208H74ZM74 208H75V209H74ZM74 209H75V210H74ZM74 210H75V211H74ZM74 211H75V212H74ZM74 212H75V213H74ZM74 213H75V214H74ZM74 214H75V215H74ZM74 220H75V221H74ZM74 223H75V224H74ZM74 227H75V228H74ZM74 229H75V230H74ZM74 230H75V231H74ZM74 232H75V233H74ZM74 236H75V237H74ZM74 237H75V238H74ZM74 239H75V240H74ZM74 245H75V246H74ZM74 246H75V247H74ZM74 247H75V248H74ZM74 248H75V249H74ZM74 249H75V250H74Z"/><path fill="#001828" fill-opacity="0.125" d="M81 19H82V20H81ZM83 19H84V20H83ZM85 19H86V20H85ZM87 19H88V20H87ZM89 19H90V20H89ZM91 19H92V20H91ZM93 19H94V20H93ZM95 19H96V20H95ZM97 19H98V20H97ZM99 19H100V20H99ZM101 19H102V20H101ZM103 19H104V20H103ZM105 19H106V20H105ZM107 19H108V20H107ZM109 19H110V20H109ZM111 19H112V20H111ZM115 19H116V20H115ZM81 21H82V22H81ZM83 21H84V22H83ZM85 21H86V22H85ZM87 21H88V22H87ZM89 21H90V22H89ZM91 21H92V22H91ZM93 21H94V22H93ZM95 21H96V22H95ZM97 21H98V22H97ZM99 21H100V22H99ZM101 21H102V22H101ZM103 21H104V22H103ZM105 21H106V22H105ZM107 21H108V22H107ZM109 21H110V22H109ZM111 21H112V22H111ZM136 21H137V22H136ZM143 21H144V22H143ZM112 24H113V25H112ZM118 24H122V25H118ZM76 25H77V26H76ZM74 26H75V27H74ZM74 27H75V28H74ZM112 28H113V29H112ZM74 30H75V31H74ZM96 30H97V31H96ZM112 30H119V31H112ZM74 31H75V32H74ZM78 31H79V32H78ZM113 31H120V32H113ZM74 32H75V33H74ZM78 32H79V33H78ZM74 33H75V34H74ZM81 33H95V34H81ZM74 34H75V35H74ZM74 35H75V36H74ZM74 36H75V37H74ZM74 37H75V38H74ZM78 38H79V39H78ZM74 40H75V41H74ZM99 40H100V41H99ZM74 41H75V42H74ZM74 42H75V43H74ZM74 43H75V44H74ZM96 44H97V45H96ZM78 45H79V46H78ZM74 46H75V47H74ZM74 47H75V48H74ZM81 47H96V48H81ZM74 48H75V49H74ZM78 48H79V49H78ZM74 49H75V50H74ZM74 50H75V51H74ZM78 50H79V51H78ZM74 51H75V52H74ZM88 51H90V52H88ZM74 52H75V53H74ZM78 52H79V53H78ZM74 53H75V54H74ZM91 53H92V54H91ZM90 54H96V55H90ZM74 55H75V56H74ZM74 56H75V57H74ZM74 57H75V58H74ZM74 58H75V59H74ZM74 59H75V60H74ZM78 60H79V61H78ZM89 60H93V61H89ZM89 61H90V62H89ZM74 62H75V63H74ZM78 62H79V63H78ZM74 63H75V64H74ZM74 64H75V65H74ZM74 65H75V66H74ZM74 66H75V67H74ZM74 67H75V68H74ZM74 68H75V69H74ZM74 69H75V70H74ZM74 70H75V71H74ZM74 71H75V72H74ZM83 72H84V73H83ZM74 73H75V74H74ZM78 73H79V74H78ZM74 74H75V75H74ZM81 75H84V76H81ZM78 76H79V77H78ZM74 77H75V78H74ZM74 78H75V79H74ZM74 79H75V80H74ZM74 80H75V81H74ZM78 80H79V81H78ZM74 81H75V82H74ZM74 82H75V83H74ZM78 82H79V83H78ZM74 83H75V84H74ZM78 83H79V84H78ZM74 84H75V85H74ZM74 85H75V86H74ZM74 86H75V87H74ZM74 88H75V89H74ZM74 91H75V92H74ZM74 93H76V94H74ZM74 95H76V96H74ZM74 97H75V98H74ZM76 97H77V98H76ZM74 98H75V99H74ZM76 98H77V99H76ZM74 100H76V101H74ZM74 102H76V103H74ZM74 104H76V105H74ZM78 104H79V105H78ZM74 107H76V108H74ZM78 107H79V108H78ZM74 109H76V110H74ZM78 109H79V110H78ZM74 111H76V112H74ZM74 113H75V114H74ZM76 113H77V114H76ZM74 114H75V115H74ZM76 114H77V115H76ZM78 114H79V115H78ZM74 116H76V117H74ZM74 118H77V119H74ZM78 118H79V119H78ZM74 120H75V121H74ZM76 120H77V121H76ZM78 120H79V121H78ZM74 123H75V124H74ZM74 125H75V126H74ZM74 128H75V129H74ZM78 128H79V129H78ZM80 128H83V129H80ZM74 129H75V130H74ZM74 130H75V131H74ZM74 131H75V132H74ZM74 132H75V133H74ZM74 133H75V134H74ZM78 133H79V134H78ZM81 135H86V136H81ZM78 136H79V137H78ZM74 138H75V139H74ZM78 138H79V139H78ZM74 139H75V140H74ZM74 140H75V141H74ZM74 141H75V142H74ZM81 141H88V142H81ZM78 143H79V144H78ZM74 144H75V145H74ZM74 145H75V146H74ZM74 146H75V147H74ZM74 147H75V148H74ZM87 148H88V149H87ZM74 152H75V153H74ZM74 153H75V154H74ZM74 154H75V155H74ZM74 155H75V156H74ZM74 159H75V160H74ZM74 160H75V161H74ZM74 161H75V162H74ZM74 162H75V163H74ZM74 163H75V164H74ZM78 164H79V165H78ZM97 164H103V165H97ZM74 166H75V167H74ZM78 166H79V167H78ZM74 167H75V168H74ZM74 168H75V169H74ZM74 169H75V170H74ZM74 170H75V171H74ZM74 171H75V172H74ZM105 171H107V172H105ZM74 172H75V173H74ZM104 172H105V173H104ZM74 173H75V174H74ZM74 174H75V175H74ZM74 175H75V176H74ZM111 176H112V177H111ZM74 177H75V178H74ZM74 178H75V179H74ZM81 178H96V179H81ZM78 179H79V180H78ZM104 179H105V180H104ZM111 179H112V180H111ZM74 180H75V181H74ZM78 180H79V181H78ZM74 181H75V182H74ZM112 181H116V182H112ZM74 182H75V183H74ZM78 182H79V183H78ZM74 183H75V184H74ZM121 183H122V184H121ZM74 184H75V185H74ZM78 184H79V185H78ZM74 185H75V186H74ZM81 185H95V186H81ZM123 185H128V186H123ZM81 186H96V187H81ZM122 186H127V187H122ZM78 187H79V188H78ZM130 187H132V188H130ZM78 188H79V189H78ZM97 188H98V189H97ZM99 188H100V189H99ZM101 188H102V189H101ZM103 188H104V189H103ZM105 188H106V189H105ZM107 188H108V189H107ZM109 188H110V189H109ZM111 188H112V189H111ZM121 188H122V189H121ZM128 188H129V189H128ZM131 188H132V189H131ZM78 189H79V190H78ZM135 190H137V191H135ZM138 190H139V191H138ZM142 190H143V191H142ZM82 191H96V192H82ZM138 191H139V192H138ZM142 191H143V192H142ZM140 192H141V193H140ZM137 193H138V194H137ZM139 193H142V194H139Z"/><path fill="#002020" fill-opacity="0.125" d="M144 192H145V193H144Z"/><path fill="#002028" fill-opacity="0.125" d="M129 19H134V20H129ZM81 20H82V21H81ZM83 20H84V21H83ZM85 20H86V21H85ZM87 20H88V21H87ZM89 20H90V21H89ZM91 20H92V21H91ZM93 20H94V21H93ZM95 20H96V21H95ZM97 20H98V21H97ZM99 20H100V21H99ZM101 20H102V21H101ZM103 20H104V21H103ZM105 20H106V21H105ZM107 20H108V21H107ZM109 20H110V21H109ZM111 20H112V21H111ZM74 22H75V23H74ZM74 23H75V24H74ZM127 23H128V24H127ZM74 24H75V25H74ZM82 24H112V25H82ZM144 24H145V25H144ZM74 25H75V26H74ZM127 29H128V30H127ZM129 30H136V31H129ZM125 31H126V32H125ZM128 31H135V32H128ZM81 46H95V47H81ZM104 47H105V48H104ZM92 53H98V54H92ZM96 54H99V55H96ZM93 60H100V61H93ZM90 61H99V62H90ZM89 67H91V68H89ZM88 68H90V69H88ZM81 74H86V75H81ZM84 75H87V76H84ZM77 78H78V79H77ZM80 83H83V84H80ZM81 84H84V85H81ZM77 86H78V87H77ZM76 87H77V88H76ZM78 87H79V88H78ZM77 88H78V89H77ZM77 91H78V92H77ZM76 92H77V93H76ZM78 92H79V93H78ZM77 93H78V94H77ZM76 94H77V95H76ZM78 94H79V95H78ZM77 95H78V96H77ZM76 96H77V97H76ZM76 99H77V100H76ZM77 100H78V101H77ZM76 101H77V102H76ZM78 101H79V102H78ZM77 102H78V103H77ZM76 103H77V104H76ZM78 103H79V104H78ZM77 104H78V105H77ZM77 107H78V108H77ZM76 108H77V109H76ZM78 108H79V109H78ZM77 109H78V110H77ZM76 110H77V111H76ZM80 111H82V112H80ZM76 112H77V113H76ZM76 115H77V116H76ZM78 115H79V116H78ZM77 116H78V117H77ZM76 117H77V118H76ZM78 117H79V118H78ZM77 123H78V124H77ZM76 124H77V125H76ZM78 124H79V125H78ZM77 125H78V126H77ZM81 127H83V128H81ZM83 128H84V129H83ZM77 130H78V131H77ZM81 134H85V135H81ZM77 141H78V142H77ZM81 142H87V143H81ZM95 158H96V159H95ZM98 165H104V166H98ZM103 167H104V168H103ZM107 171H115V172H107ZM120 171H124V172H120ZM105 172H114V173H105ZM121 172H123V173H121ZM103 180H104V181H103ZM113 180H115V181H113ZM132 187H145V188H132ZM132 188H145V189H132ZM79 190H80V191H79ZM143 193H145V194H143Z"/><path fill="#081020" fill-opacity="0.125" d="M54 193H57V194H54Z"/><path fill="#081820" fill-opacity="0.125" d="M19 19H22V20H19ZM25 19H49V20H25ZM56 24H57V25H56ZM57 25H58V26H57ZM31 193H37V194H31ZM38 193H39V194H38ZM40 193H43V194H40ZM53 193H54V194H53ZM141 202H142V203H141ZM136 203H137V204H136ZM143 203H144V204H143ZM74 221H75V222H74ZM74 222H75V223H74ZM74 228H75V229H74ZM74 231H75V232H74ZM74 238H75V239H74Z"/><path fill="#081828" fill-opacity="0.125" d="M74 28H75V29H74ZM74 29H75V30H74ZM74 38H75V39H74ZM74 39H75V40H74ZM74 44H75V45H74ZM74 45H75V46H74ZM74 54H75V55H74ZM74 60H75V61H74ZM74 61H75V62H74ZM74 72H75V73H74ZM74 75H75V76H74ZM74 76H75V77H74ZM74 89H75V90H74ZM74 90H75V91H74ZM74 121H75V122H74ZM74 122H75V123H74ZM74 126H75V127H74ZM74 127H75V128H74ZM74 134H75V135H74ZM74 135H75V136H74ZM74 136H75V137H74ZM74 137H75V138H74ZM74 142H75V143H74ZM74 143H75V144H74ZM74 148H75V149H74ZM74 149H75V150H74ZM74 150H75V151H74ZM74 151H75V152H74ZM74 156H75V157H74ZM74 157H75V158H74ZM74 158H75V159H74ZM74 164H75V165H74ZM74 165H75V166H74ZM74 176H75V177H74ZM74 179H75V180H74ZM74 186H75V187H74ZM74 187H75V188H74Z"/><path fill="#001020" fill-opacity="0.188" d="M18 19H19V20H18ZM58 190H59V191H58Z"/><path fill="#001820" fill-opacity="0.188" d="M76 19H77V20H76ZM112 19H114V20H112ZM74 20H75V21H74ZM55 21H56V22H55ZM58 28H59V29H58ZM77 191H79V192H77ZM79 192H80V193H79ZM0 199H31V200H0ZM80 199H81V200H80ZM139 199H140V200H139ZM74 206H75V207H74Z"/><path fill="#001828" fill-opacity="0.188" d="M77 19H81V20H77ZM82 19H83V20H82ZM84 19H85V20H84ZM86 19H87V20H86ZM88 19H89V20H88ZM90 19H91V20H90ZM92 19H93V20H92ZM94 19H95V20H94ZM96 19H97V20H96ZM98 19H99V20H98ZM100 19H101V20H100ZM102 19H103V20H102ZM104 19H105V20H104ZM106 19H107V20H106ZM108 19H109V20H108ZM110 19H111V20H110ZM114 19H115V20H114ZM138 19H139V20H138ZM142 20H143V21H142ZM79 21H81V22H79ZM82 21H83V22H82ZM84 21H85V22H84ZM86 21H87V22H86ZM88 21H89V22H88ZM90 21H91V22H90ZM92 21H93V22H92ZM94 21H95V22H94ZM96 21H97V22H96ZM98 21H99V22H98ZM100 21H101V22H100ZM102 21H103V22H102ZM104 21H105V22H104ZM106 21H107V22H106ZM108 21H109V22H108ZM110 21H111V22H110ZM112 21H113V22H112ZM115 21H116V22H115ZM144 21H145V22H144ZM76 24H77V25H76ZM80 25H81V26H80ZM79 26H80V27H79ZM128 26H145V27H128ZM128 28H145V29H128ZM80 30H96V31H80ZM112 33H136V34H112ZM112 35H128V36H112ZM136 35H145V36H136ZM112 37H126V38H112ZM100 40H131V41H100ZM136 40H145V41H136ZM97 42H127V43H97ZM136 42H145V43H136ZM97 44H128V45H97ZM136 44H145V45H136ZM96 47H98V48H96ZM120 47H122V48H120ZM128 47H136V48H128ZM80 49H110V50H80ZM120 49H145V50H120ZM80 51H88V52H80ZM90 51H103V52H90ZM104 51H107V52H104ZM120 51H145V52H120ZM88 56H101V57H88ZM112 56H145V57H112ZM88 58H111V59H88ZM120 58H145V59H120ZM78 61H79V62H78ZM88 63H117V64H88ZM120 63H133V64H120ZM136 63H145V64H136ZM88 65H104V66H88ZM120 65H136V66H120ZM144 65H145V66H144ZM84 70H117V71H84ZM120 70H122V71H120ZM128 70H136V71H128ZM144 70H145V71H144ZM84 72H97V73H84ZM104 72H112V73H104ZM128 72H145V73H128ZM136 74H145V75H136ZM80 77H100V78H80ZM104 77H128V78H104ZM136 77H145V78H136ZM80 79H91V80H80ZM96 79H106V80H96ZM112 79H128V80H112ZM136 79H138V80H136ZM144 79H145V80H144ZM80 81H120V82H80ZM144 81H145V82H144ZM78 84H79V85H78ZM78 85H79V86H78ZM79 86H100V87H79ZM104 86H145V87H104ZM79 88H80V89H79ZM88 88H91V89H88ZM104 88H145V89H104ZM79 91H80V92H79ZM79 93H101V94H79ZM104 93H145V94H104ZM79 95H99V96H79ZM104 95H120V96H104ZM128 95H145V96H128ZM78 97H79V98H78ZM78 98H79V99H78ZM79 100H99V101H79ZM104 100H120V101H104ZM128 100H144V101H128ZM79 102H109V103H79ZM112 102H145V103H112ZM79 104H86V105H79ZM79 107H86V108H79ZM88 107H92V108H88ZM104 107H145V108H104ZM79 109H95V110H79ZM96 109H144V110H96ZM78 111H80V112H78ZM113 111H117V112H113ZM128 111H132V112H128ZM136 111H140V112H136ZM80 114H100V115H80ZM112 114H113V115H112ZM79 116H87V117H79ZM88 116H107V117H88ZM112 116H120V117H112ZM128 116H145V117H128ZM79 118H103V119H79ZM104 118H109V119H104ZM112 118H145V119H112ZM78 121H79V122H78ZM78 122H79V123H78ZM79 123H108V124H79ZM120 123H145V124H120ZM79 125H118V126H79ZM120 125H145V126H120ZM78 126H79V127H78ZM78 127H79V128H78ZM80 130H96V131H80ZM104 130H125V131H104ZM128 130H141V131H128ZM80 132H142V133H80ZM144 132H145V133H144ZM80 137H98V138H80ZM104 137H132V138H104ZM136 137H145V138H136ZM80 139H102V140H80ZM104 139H132V140H104ZM96 141H100V142H96ZM80 144H99V145H80ZM104 144H145V145H104ZM80 146H101V147H80ZM104 146H120V147H104ZM136 146H145V147H136ZM88 148H96V149H88ZM104 148H112V149H104ZM144 148H145V149H144ZM88 151H96V152H88ZM88 153H99V154H88ZM104 153H105V154H104ZM112 153H126V154H112ZM128 153H131V154H128ZM136 153H144V154H136ZM88 155H102V156H88ZM104 155H106V156H104ZM112 155H145V156H112ZM96 158H99V159H96ZM104 158H112V159H104ZM96 160H145V161H96ZM96 162H112V163H96ZM128 162H145V163H128ZM103 164H104V165H103ZM78 165H79V166H78ZM104 167H140V168H104ZM104 169H126V170H104ZM104 174H145V175H104ZM112 176H145V177H112ZM112 178H136V179H112ZM80 181H96V182H80ZM116 181H145V182H116ZM80 183H96V184H80ZM122 183H145V184H122ZM128 185H145V186H128ZM127 186H128V187H127ZM76 187H77V188H76ZM128 187H129V188H128ZM80 188H97V189H80ZM98 188H99V189H98ZM100 188H101V189H100ZM102 188H103V189H102ZM104 188H105V189H104ZM106 188H107V189H106ZM108 188H109V189H108ZM110 188H111V189H110ZM112 188H121V189H112ZM122 188H128V189H122ZM76 190H78V191H76ZM80 190H81V191H80ZM97 190H98V191H97ZM99 190H100V191H99ZM101 190H102V191H101ZM103 190H104V191H103ZM105 190H106V191H105ZM107 190H108V191H107ZM109 190H110V191H109ZM111 190H112V191H111ZM121 190H122V191H121ZM129 190H130V191H129ZM137 190H138V191H137ZM139 190H142V191H139ZM143 190H145V191H143ZM80 193H81V194H80Z"/><path fill="#002028" fill-opacity="0.188" d="M128 19H129V20H128ZM134 19H135V20H134ZM139 19H142V20H139ZM115 20H116V21H115ZM76 22H77V23H76ZM81 24H82V25H81ZM128 30H129V31H128ZM136 30H145V31H136ZM126 31H128V32H126ZM135 31H136V32H135ZM136 33H145V34H136ZM128 35H136V36H128ZM126 37H145V38H126ZM111 38H112V39H111ZM131 40H136V41H131ZM127 42H136V43H127ZM128 44H136V45H128ZM95 46H96V47H95ZM98 47H104V48H98ZM105 47H120V48H105ZM122 47H128V48H122ZM136 47H145V48H136ZM110 49H120V50H110ZM103 51H104V52H103ZM107 51H120V52H107ZM98 53H99V54H98ZM99 54H118V55H99ZM101 56H112V57H101ZM111 58H120V59H111ZM100 60H102V61H100ZM99 61H100V62H99ZM117 63H120V64H117ZM133 63H136V64H133ZM104 65H120V66H104ZM136 65H144V66H136ZM91 67H99V68H91ZM90 68H91V69H90ZM117 70H120V71H117ZM122 70H128V71H122ZM136 70H144V71H136ZM97 72H104V73H97ZM112 72H128V73H112ZM86 74H87V75H86ZM129 74H136V75H129ZM100 77H104V78H100ZM128 77H136V78H128ZM91 79H96V80H91ZM106 79H112V80H106ZM128 79H136V80H128ZM138 79H144V80H138ZM120 81H144V82H120ZM83 83H84V84H83ZM80 84H81V85H80ZM84 84H87V85H84ZM100 86H104V87H100ZM80 88H88V89H80ZM91 88H104V89H91ZM78 89H79V90H78ZM78 90H79V91H78ZM80 91H100V92H80ZM101 93H104V94H101ZM99 95H104V96H99ZM120 95H128V96H120ZM78 96H79V97H78ZM78 99H79V100H78ZM99 100H104V101H99ZM120 100H128V101H120ZM144 100H145V101H144ZM109 102H112V103H109ZM86 104H99V105H86ZM76 105H77V106H76ZM76 106H77V107H76ZM86 107H88V108H86ZM92 107H104V108H92ZM95 109H96V110H95ZM144 109H145V110H144ZM77 111H78V112H77ZM82 111H103V112H82ZM117 111H128V112H117ZM132 111H136V112H132ZM140 111H145V112H140ZM80 112H82V113H80ZM79 114H80V115H79ZM100 114H112V115H100ZM113 114H145V115H113ZM87 116H88V117H87ZM107 116H112V117H107ZM120 116H128V117H120ZM77 118H78V119H77ZM103 118H104V119H103ZM109 118H112V119H109ZM77 120H78V121H77ZM129 121H145V122H129ZM108 123H120V124H108ZM118 125H120V126H118ZM80 127H81V128H80ZM83 127H84V128H83ZM84 128H88V129H84ZM96 130H104V131H96ZM125 130H128V131H125ZM141 130H145V131H141ZM142 132H144V133H142ZM85 134H86V135H85ZM86 135H91V136H86ZM98 137H104V138H98ZM132 137H136V138H132ZM102 139H104V140H102ZM132 139H145V140H132ZM88 141H96V142H88ZM100 141H119V142H100ZM87 142H88V143H87ZM99 144H104V145H99ZM101 146H104V147H101ZM120 146H136V147H120ZM96 148H104V149H96ZM112 148H144V149H112ZM96 151H109V152H96ZM99 153H104V154H99ZM105 153H112V154H105ZM126 153H128V154H126ZM131 153H136V154H131ZM144 153H145V154H144ZM102 155H104V156H102ZM106 155H112V156H106ZM93 157H94V158H93ZM99 158H104V159H99ZM112 158H118V159H112ZM112 162H128V163H112ZM104 165H117V166H104ZM140 167H145V168H140ZM126 169H145V170H126ZM115 171H120V172H115ZM124 171H127V172H124ZM114 172H115V173H114ZM120 172H121V173H120ZM123 172H124V173H123ZM136 178H145V179H136ZM96 180H97V181H96ZM112 180H113V181H112ZM115 180H116V181H115ZM76 189H77V190H76ZM97 189H98V190H97ZM99 189H100V190H99ZM101 189H102V190H101ZM103 189H104V190H103ZM105 189H106V190H105ZM107 189H108V190H107ZM109 189H110V190H109ZM111 189H112V190H111ZM121 189H122V190H121ZM129 189H130V190H129Z"/><path fill="#081020" fill-opacity="0.188" d="M58 23H59V24H58Z"/><path fill="#081820" fill-opacity="0.188" d="M16 19H17V20H16ZM22 19H23V20H22ZM24 19H25V20H24ZM49 19H50V20H49ZM52 19H54V20H52ZM54 20H55V21H54ZM56 22H58V23H56ZM57 23H58V24H57ZM58 24H59V25H58ZM79 195H136V196H79ZM138 195H144V196H138ZM78 201H79V202H78ZM74 215H75V216H74ZM74 219H75V220H74ZM74 224H75V225H74ZM74 226H75V227H74ZM74 233H75V234H74ZM74 235H75V236H74ZM74 240H75V241H74ZM74 244H75V245H74Z"/><path fill="#081828" fill-opacity="0.188" d="M74 105H75V106H74ZM74 106H75V107H74ZM74 115H75V116H74ZM74 117H75V118H74ZM74 188H75V189H74ZM74 189H75V190H74ZM57 193H58V194H57ZM144 195H145V196H144ZM77 202H78V203H77Z"/><path fill="#082028" fill-opacity="0.188" d="M74 87H75V88H74ZM74 92H75V93H74ZM74 94H75V95H74ZM74 96H75V97H74ZM74 99H75V100H74ZM74 101H75V102H74ZM74 103H75V104H74ZM74 108H75V109H74ZM74 110H75V111H74ZM74 112H75V113H74ZM74 119H75V120H74ZM74 124H75V125H74ZM75 189H76V190H75ZM78 192H79V193H78Z"/><path fill="#101820" fill-opacity="0.188" d="M136 195H138V196H136Z"/><path fill="#001020" fill-opacity="0.251" d="M58 26H59V27H58ZM140 200H141V201H140Z"/><path fill="#001820" fill-opacity="0.251" d="M58 192H59V193H58ZM31 199H32V200H31Z"/><path fill="#001828" fill-opacity="0.251" d="M78 21H79V22H78ZM113 21H114V22H113ZM116 21H117V22H116ZM127 21H128V22H127ZM114 23H115V24H114ZM116 23H117V24H116ZM114 28H115V29H114ZM116 28H117V29H116ZM118 28H119V29H118ZM112 111H113V112H112ZM78 113H79V114H78ZM79 120H80V121H79ZM113 190H114V191H113ZM115 190H116V191H115ZM117 190H118V191H117ZM119 190H120V191H119ZM123 190H124V191H123ZM125 190H126V191H125ZM127 190H128V191H127ZM131 190H132V191H131ZM133 190H134V191H133Z"/><path fill="#002028" fill-opacity="0.251" d="M116 19H117V20H116ZM127 19H128V20H127ZM135 19H136V20H135ZM137 19H138V20H137ZM144 19H145V20H144ZM123 23H124V24H123ZM125 23H126V24H125ZM104 46H105V47H104ZM118 54H119V55H118ZM102 60H103V61H102ZM99 67H100V68H99ZM128 74H129V75H128ZM87 75H88V76H87ZM87 84H88V85H87ZM100 91H101V92H100ZM99 104H100V105H99ZM103 111H104V112H103ZM128 121H129V122H128ZM88 128H89V129H88ZM91 135H92V136H91ZM119 141H120V142H119ZM109 151H110V152H109ZM118 158H119V159H118ZM117 165H118V166H117ZM127 171H128V172H127Z"/><path fill="#081820" fill-opacity="0.251" d="M78 195H79V196H78ZM141 201H142V202H141ZM74 217H75V218H74ZM74 242H75V243H74Z"/><path fill="#081828" fill-opacity="0.251" d="M75 204H76V205H75Z"/><path fill="#082028" fill-opacity="0.251" d="M76 203H77V204H76Z"/><path fill="#000008" fill-opacity="1.000" d="M53 14H54V15H53ZM49 15H50V16H49ZM52 15H53V16H52ZM59 15H60V16H59ZM61 16H62V17H61ZM59 17H60V18H59ZM62 17H63V18H62ZM61 18H62V19H61ZM61 19H62V20H61ZM62 23H63V24H62ZM63 194H64V195H63ZM73 201H74V202H73Z"/><path fill="#000010" fill-opacity="1.000" d="M72 191H73V192H72ZM76 196H77V197H76ZM78 196H79V197H78Z"/><path fill="#000808" fill-opacity="1.000" d="M50 14H51V15H50ZM58 14H59V15H58ZM73 14H74V15H73ZM115 14H117V15H115ZM19 15H21V16H19ZM51 15H52V16H51ZM56 15H58V16H56ZM112 15H113V16H112ZM17 16H18V17H17ZM23 16H24V17H23ZM54 16H55V17H54ZM58 16H59V17H58ZM55 17H56V18H55ZM60 17H61V18H60ZM63 18H64V19H63ZM59 19H60V20H59ZM60 20H61V21H60ZM62 20H63V21H62ZM63 24H64V25H63ZM63 25H64V26H63ZM62 192H63V193H62ZM73 195H74V196H73ZM63 196H64V197H63Z"/><path fill="#000810" fill-opacity="1.000" d="M0 0H145V1H0ZM0 1H145V2H0ZM0 2H145V3H0ZM0 3H145V4H0ZM0 4H145V5H0ZM0 5H145V6H0ZM0 6H145V7H0ZM0 7H145V8H0ZM0 8H145V9H0ZM0 9H145V10H0ZM0 10H145V11H0ZM0 11H145V12H0ZM0 12H145V13H0ZM0 13H145V14H0ZM0 14H17V15H0ZM18 14H20V15H18ZM21 14H23V15H21ZM24 14H49V15H24ZM54 14H57V15H54ZM60 14H61V15H60ZM63 14H70V15H63ZM71 14H73V15H71ZM74 14H79V15H74ZM117 14H128V15H117ZM135 14H136V15H135ZM137 14H139V15H137ZM140 14H145V15H140ZM0 15H17V16H0ZM21 15H22V16H21ZM23 15H48V16H23ZM54 15H55V16H54ZM60 15H61V16H60ZM62 15H68V16H62ZM71 15H72V16H71ZM75 15H76V16H75ZM77 15H112V16H77ZM113 15H114V16H113ZM118 15H141V16H118ZM142 15H145V16H142ZM0 16H16V17H0ZM18 16H19V17H18ZM24 16H49V17H24ZM50 16H52V17H50ZM53 16H54V17H53ZM56 16H57V17H56ZM62 16H63V17H62ZM64 16H68V17H64ZM70 16H79V17H70ZM80 16H81V17H80ZM114 16H120V17H114ZM139 16H140V17H139ZM18 17H19V18H18ZM20 17H23V18H20ZM24 17H49V18H24ZM51 17H53V18H51ZM54 17H55V18H54ZM56 17H59V18H56ZM63 17H73V18H63ZM76 17H112V18H76ZM113 17H115V18H113ZM57 18H59V19H57ZM60 18H61V19H60ZM64 18H73V19H64ZM57 19H58V20H57ZM63 19H72V20H63ZM59 20H60V21H59ZM63 20H72V21H63ZM60 21H62V22H60ZM63 21H72V22H63ZM60 22H61V23H60ZM63 22H72V23H63ZM61 23H62V24H61ZM64 23H72V24H64ZM64 24H72V25H64ZM64 25H72V26H64ZM62 26H63V27H62ZM64 26H72V27H64ZM62 27H63V28H62ZM64 27H72V28H64ZM63 28H73V29H63ZM63 29H73V30H63ZM62 30H72V31H62ZM62 31H72V32H62ZM62 32H72V33H62ZM62 33H72V34H62ZM62 34H72V35H62ZM62 35H72V36H62ZM62 36H72V37H62ZM62 37H72V38H62ZM62 38H72V39H62ZM62 39H72V40H62ZM62 40H72V41H62ZM62 41H72V42H62ZM62 42H72V43H62ZM62 43H72V44H62ZM62 44H72V45H62ZM62 45H72V46H62ZM62 46H72V47H62ZM62 47H72V48H62ZM62 48H72V49H62ZM62 49H72V50H62ZM62 50H72V51H62ZM62 51H72V52H62ZM62 52H72V53H62ZM62 53H72V54H62ZM62 54H72V55H62ZM62 55H72V56H62ZM62 56H72V57H62ZM62 57H72V58H62ZM62 58H72V59H62ZM62 59H72V60H62ZM62 60H72V61H62ZM62 61H72V62H62ZM62 62H72V63H62ZM62 63H72V64H62ZM62 64H72V65H62ZM62 65H72V66H62ZM62 66H72V67H62ZM62 67H72V68H62ZM62 68H72V69H62ZM62 69H72V70H62ZM62 70H73V71H62ZM62 71H72V72H62ZM62 72H72V73H62ZM62 73H72V74H62ZM62 74H72V75H62ZM62 75H72V76H62ZM62 76H72V77H62ZM62 77H73V78H62ZM62 78H72V79H62ZM62 79H72V80H62ZM62 80H72V81H62ZM62 81H72V82H62ZM62 82H72V83H62ZM62 83H72V84H62ZM62 84H72V85H62ZM62 85H72V86H62ZM62 86H73V87H62ZM62 87H72V88H62ZM62 88H73V89H62ZM62 89H72V90H62ZM62 90H72V91H62ZM62 91H73V92H62ZM62 92H72V93H62ZM62 93H73V94H62ZM62 94H72V95H62ZM62 95H73V96H62ZM62 96H72V97H62ZM62 97H72V98H62ZM62 98H72V99H62ZM62 99H72V100H62ZM62 100H73V101H62ZM62 101H72V102H62ZM62 102H72V103H62ZM62 103H72V104H62ZM62 104H73V105H62ZM62 105H72V106H62ZM62 106H72V107H62ZM62 107H73V108H62ZM62 108H72V109H62ZM62 109H72V110H62ZM62 110H72V111H62ZM62 111H73V112H62ZM62 112H72V113H62ZM62 113H72V114H62ZM62 114H73V115H62ZM62 115H72V116H62ZM62 116H73V117H62ZM62 117H72V118H62ZM62 118H73V119H62ZM62 119H72V120H62ZM62 120H73V121H62ZM62 121H72V122H62ZM62 122H72V123H62ZM62 123H73V124H62ZM62 124H72V125H62ZM62 125H73V126H62ZM62 126H72V127H62ZM62 127H72V128H62ZM62 128H72V129H62ZM62 129H73V130H62ZM62 130H73V131H62ZM62 131H73V132H62ZM62 132H72V133H62ZM62 133H72V134H62ZM62 134H72V135H62ZM62 135H72V136H62ZM62 136H72V137H62ZM62 137H72V138H62ZM62 138H72V139H62ZM62 139H72V140H62ZM62 140H72V141H62ZM62 141H72V142H62ZM62 142H72V143H62ZM62 143H72V144H62ZM62 144H72V145H62ZM62 145H72V146H62ZM62 146H72V147H62ZM62 147H72V148H62ZM62 148H72V149H62ZM62 149H72V150H62ZM62 150H72V151H62ZM62 151H72V152H62ZM62 152H72V153H62ZM62 153H72V154H62ZM62 154H72V155H62ZM62 155H72V156H62ZM62 156H72V157H62ZM62 157H72V158H62ZM62 158H72V159H62ZM62 159H72V160H62ZM62 160H72V161H62ZM62 161H72V162H62ZM62 162H72V163H62ZM62 163H72V164H62ZM62 164H72V165H62ZM62 165H72V166H62ZM62 166H72V167H62ZM62 167H72V168H62ZM62 168H72V169H62ZM62 169H72V170H62ZM62 170H72V171H62ZM62 171H72V172H62ZM62 172H72V173H62ZM62 173H72V174H62ZM62 174H73V175H62ZM62 175H72V176H62ZM62 176H72V177H62ZM62 177H72V178H62ZM62 178H72V179H62ZM62 179H72V180H62ZM62 180H72V181H62ZM62 181H73V182H62ZM62 182H72V183H62ZM62 183H72V184H62ZM62 184H72V185H62ZM62 185H72V186H62ZM62 186H72V187H62ZM62 187H72V188H62ZM62 188H73V189H62ZM62 189H73V190H62ZM62 190H73V191H62ZM60 191H61V192H60ZM62 191H63V192H62ZM64 191H72V192H64ZM74 191H75V192H74ZM63 192H74V193H63ZM64 193H73V194H64ZM74 193H76V194H74ZM64 194H70V195H64ZM71 194H76V195H71ZM62 195H63V196H62ZM64 195H70V196H64ZM74 195H75V196H74ZM76 195H78V196H76ZM64 196H70V197H64ZM73 196H74V197H73ZM75 196H76V197H75ZM79 196H142V197H79ZM63 197H70V198H63ZM72 197H73V198H72ZM74 197H76V198H74ZM77 197H78V198H77ZM80 197H140V198H80ZM33 198H34V199H33ZM64 198H73V199H64ZM74 198H76V199H74ZM77 198H79V199H77ZM142 198H143V199H142ZM64 199H75V200H64ZM76 199H77V200H76ZM143 199H144V200H143ZM63 200H74V201H63ZM75 200H77V201H75ZM144 200H145V201H144ZM64 201H72V202H64ZM64 202H75V203H64ZM64 203H73V204H64ZM64 204H72V205H64ZM73 204H74V205H73ZM64 205H73V206H64ZM64 206H72V207H64ZM64 207H72V208H64ZM64 208H72V209H64ZM64 209H72V210H64ZM64 210H72V211H64ZM64 211H72V212H64ZM64 212H72V213H64ZM64 213H72V214H64ZM64 214H72V215H64ZM64 215H72V216H64ZM64 216H73V217H64ZM64 217H72V218H64ZM64 218H73V219H64ZM64 219H72V220H64ZM64 220H73V221H64ZM64 221H72V222H64ZM64 222H72V223H64ZM64 223H73V224H64ZM64 224H72V225H64ZM64 225H73V226H64ZM64 226H72V227H64ZM64 227H73V228H64ZM64 228H72V229H64ZM64 229H72V230H64ZM64 230H73V231H64ZM64 231H72V232H64ZM64 232H73V233H64ZM64 233H72V234H64ZM64 234H73V235H64ZM64 235H72V236H64ZM64 236H73V237H64ZM64 237H72V238H64ZM64 238H72V239H64ZM64 239H73V240H64ZM64 240H72V241H64ZM64 241H73V242H64ZM64 242H72V243H64ZM64 243H73V244H64ZM64 244H72V245H64ZM64 245H72V246H64ZM64 246H72V247H64ZM64 247H72V248H64ZM64 248H72V249H64ZM64 249H72V250H64Z"/><path fill="#000818" fill-opacity="1.000" d="M76 204H77V205H76Z"/><path fill="#001010" fill-opacity="1.000" d="M51 14H52V15H51ZM17 15H19V16H17ZM22 15H23V16H22ZM55 15H56V16H55ZM72 15H75V16H72ZM76 15H77V16H76ZM16 16H17V17H16ZM19 16H23V17H19ZM55 16H56V17H55ZM81 16H114V17H81ZM120 16H126V17H120ZM19 17H20V18H19ZM23 17H24V18H23ZM49 17H50V18H49ZM74 17H75V18H74ZM112 17H113V18H112ZM58 19H59V20H58ZM72 19H73V20H72ZM58 20H59V21H58ZM72 21H73V22H72ZM61 22H63V23H61ZM63 23H64V24H63ZM62 25H63V26H62ZM72 25H73V26H72ZM63 26H64V27H63ZM72 26H73V27H72ZM60 27H61V28H60ZM63 27H64V28H63ZM72 27H73V28H72ZM62 28H63V29H62ZM62 29H63V30H62ZM72 30H73V31H72ZM72 31H73V32H72ZM72 32H73V33H72ZM72 33H73V34H72ZM72 34H73V35H72ZM72 35H73V36H72ZM72 36H73V37H72ZM72 37H73V38H72ZM72 39H73V40H72ZM72 40H73V41H72ZM72 41H73V42H72ZM72 42H73V43H72ZM72 43H73V44H72ZM72 44H73V45H72ZM72 46H73V47H72ZM72 47H73V48H72ZM72 48H73V49H72ZM72 49H73V50H72ZM72 50H73V51H72ZM72 51H73V52H72ZM72 52H73V53H72ZM72 53H73V54H72ZM72 54H73V55H72ZM72 55H73V56H72ZM72 56H73V57H72ZM72 57H73V58H72ZM72 58H73V59H72ZM72 59H73V60H72ZM72 62H73V63H72ZM72 63H73V64H72ZM72 64H73V65H72ZM72 65H73V66H72ZM72 66H73V67H72ZM72 67H73V68H72ZM72 68H73V69H72ZM72 69H73V70H72ZM72 71H73V72H72ZM72 72H73V73H72ZM72 73H73V74H72ZM72 74H73V75H72ZM72 76H73V77H72ZM72 78H73V79H72ZM72 79H73V80H72ZM72 80H73V81H72ZM72 81H73V82H72ZM72 82H73V83H72ZM72 83H73V84H72ZM72 84H73V85H72ZM72 85H73V86H72ZM72 89H73V90H72ZM72 90H73V91H72ZM72 97H73V98H72ZM72 98H73V99H72ZM72 102H73V103H72ZM72 109H73V110H72ZM72 113H73V114H72ZM72 121H73V122H72ZM72 122H73V123H72ZM72 127H73V128H72ZM72 128H73V129H72ZM72 132H73V133H72ZM72 133H73V134H72ZM72 134H73V135H72ZM72 135H73V136H72ZM72 136H73V137H72ZM72 137H73V138H72ZM72 138H73V139H72ZM72 139H73V140H72ZM72 140H73V141H72ZM72 141H73V142H72ZM72 143H73V144H72ZM72 144H73V145H72ZM72 145H73V146H72ZM72 146H73V147H72ZM72 147H73V148H72ZM72 148H73V149H72ZM72 151H73V152H72ZM72 152H73V153H72ZM72 153H73V154H72ZM72 154H73V155H72ZM72 155H73V156H72ZM72 156H73V157H72ZM72 158H73V159H72ZM72 159H73V160H72ZM72 160H73V161H72ZM72 161H73V162H72ZM72 162H73V163H72ZM72 163H73V164H72ZM72 166H73V167H72ZM72 167H73V168H72ZM72 168H73V169H72ZM72 169H73V170H72ZM72 170H73V171H72ZM72 171H73V172H72ZM72 172H73V173H72ZM72 173H73V174H72ZM72 175H73V176H72ZM72 176H73V177H72ZM72 177H73V178H72ZM72 178H73V179H72ZM72 179H73V180H72ZM72 180H73V181H72ZM72 182H73V183H72ZM72 183H73V184H72ZM72 184H73V185H72ZM72 185H73V186H72ZM72 186H73V187H72ZM72 187H73V188H72ZM60 193H61V194H60ZM62 193H64V194H62ZM60 195H61V196H60ZM142 196H143V197H142ZM144 196H145V197H144ZM140 197H142V198H140ZM63 198H64V199H63ZM75 199H76V200H75ZM74 200H75V201H74ZM74 201H75V202H74ZM72 206H73V207H72ZM72 207H73V208H72ZM72 208H73V209H72ZM72 209H73V210H72ZM72 210H73V211H72ZM72 211H73V212H72ZM72 212H73V213H72ZM72 213H73V214H72ZM72 214H73V215H72ZM72 215H73V216H72ZM72 219H73V220H72ZM72 221H73V222H72ZM72 222H73V223H72ZM72 229H73V230H72ZM72 231H73V232H72ZM72 233H73V234H72ZM72 237H73V238H72ZM72 238H73V239H72ZM72 240H73V241H72ZM72 244H73V245H72ZM72 245H73V246H72ZM72 246H73V247H72ZM72 247H73V248H72ZM72 248H73V249H72ZM72 249H73V250H72Z"/><path fill="#001018" fill-opacity="1.000" d="M141 15H142V16H141ZM79 16H80V17H79ZM126 16H139V17H126ZM140 16H141V17H140ZM50 17H51V18H50ZM53 17H54V18H53ZM75 17H76V18H75ZM115 17H116V18H115ZM17 19H18V20H17ZM23 19H24V20H23ZM51 19H52V20H51ZM72 20H73V21H72ZM72 22H73V23H72ZM72 23H73V24H72ZM57 24H58V25H57ZM72 24H73V25H72ZM60 28H61V29H60ZM60 29H61V30H60ZM60 30H61V31H60ZM60 31H61V32H60ZM60 32H61V33H60ZM60 33H61V34H60ZM60 34H61V35H60ZM60 35H61V36H60ZM60 36H61V37H60ZM60 37H61V38H60ZM60 38H61V39H60ZM72 38H73V39H72ZM60 39H61V40H60ZM60 40H61V41H60ZM60 41H61V42H60ZM60 42H61V43H60ZM60 43H61V44H60ZM60 44H61V45H60ZM60 45H61V46H60ZM72 45H73V46H72ZM60 46H61V47H60ZM60 47H61V48H60ZM60 48H61V49H60ZM60 49H61V50H60ZM60 50H61V51H60ZM60 51H61V52H60ZM60 52H61V53H60ZM60 53H61V54H60ZM60 54H61V55H60ZM60 55H61V56H60ZM60 56H61V57H60ZM60 57H61V58H60ZM60 58H61V59H60ZM60 59H61V60H60ZM60 60H61V61H60ZM72 60H73V61H72ZM60 61H61V62H60ZM72 61H73V62H72ZM60 62H61V63H60ZM60 63H61V64H60ZM60 64H61V65H60ZM60 65H61V66H60ZM60 66H61V67H60ZM60 67H61V68H60ZM60 68H61V69H60ZM60 69H61V70H60ZM60 70H61V71H60ZM60 71H61V72H60ZM60 72H61V73H60ZM60 73H61V74H60ZM60 74H61V75H60ZM60 75H61V76H60ZM72 75H73V76H72ZM60 76H61V77H60ZM60 77H61V78H60ZM60 78H61V79H60ZM60 79H61V80H60ZM60 80H61V81H60ZM60 81H61V82H60ZM60 82H61V83H60ZM60 83H61V84H60ZM60 84H61V85H60ZM60 85H61V86H60ZM60 86H61V87H60ZM60 87H61V88H60ZM72 87H73V88H72ZM60 88H61V89H60ZM60 89H61V90H60ZM60 90H61V91H60ZM60 91H61V92H60ZM60 92H61V93H60ZM72 92H73V93H72ZM60 93H61V94H60ZM60 94H61V95H60ZM72 94H73V95H72ZM60 95H61V96H60ZM60 96H61V97H60ZM72 96H73V97H72ZM60 97H61V98H60ZM60 98H61V99H60ZM60 99H61V100H60ZM72 99H73V100H72ZM60 100H61V101H60ZM60 101H61V102H60ZM72 101H73V102H72ZM60 102H61V103H60ZM60 103H61V104H60ZM72 103H73V104H72ZM60 104H61V105H60ZM60 105H61V106H60ZM72 105H73V106H72ZM60 106H61V107H60ZM72 106H73V107H72ZM60 107H61V108H60ZM60 108H61V109H60ZM72 108H73V109H72ZM60 109H61V110H60ZM60 110H61V111H60ZM72 110H73V111H72ZM60 111H61V112H60ZM60 112H61V113H60ZM72 112H73V113H72ZM60 113H61V114H60ZM60 114H61V115H60ZM60 115H61V116H60ZM72 115H73V116H72ZM60 116H61V117H60ZM60 117H61V118H60ZM72 117H73V118H72ZM60 118H61V119H60ZM60 119H61V120H60ZM72 119H73V120H72ZM60 120H61V121H60ZM60 121H61V122H60ZM60 122H61V123H60ZM60 123H61V124H60ZM60 124H61V125H60ZM72 124H73V125H72ZM60 125H61V126H60ZM60 126H61V127H60ZM72 126H73V127H72ZM60 127H61V128H60ZM60 128H61V129H60ZM60 129H61V130H60ZM60 130H61V131H60ZM60 131H61V132H60ZM60 132H61V133H60ZM60 133H61V134H60ZM60 134H61V135H60ZM60 135H61V136H60ZM60 136H61V137H60ZM60 137H61V138H60ZM60 138H61V139H60ZM60 139H61V140H60ZM60 140H61V141H60ZM60 141H61V142H60ZM60 142H61V143H60ZM72 142H73V143H72ZM60 143H61V144H60ZM60 144H61V145H60ZM60 145H61V146H60ZM60 146H61V147H60ZM60 147H61V148H60ZM60 148H61V149H60ZM60 149H61V150H60ZM72 149H73V150H72ZM60 150H61V151H60ZM72 150H73V151H72ZM60 151H61V152H60ZM60 152H61V153H60ZM60 153H61V154H60ZM60 154H61V155H60ZM60 155H61V156H60ZM60 156H61V157H60ZM60 157H61V158H60ZM72 157H73V158H72ZM60 158H61V159H60ZM60 159H61V160H60ZM60 160H61V161H60ZM60 161H61V162H60ZM60 162H61V163H60ZM60 163H61V164H60ZM60 164H61V165H60ZM72 164H73V165H72ZM60 165H61V166H60ZM72 165H73V166H72ZM60 166H61V167H60ZM60 167H61V168H60ZM60 168H61V169H60ZM60 169H61V170H60ZM60 170H61V171H60ZM60 171H61V172H60ZM60 172H61V173H60ZM60 173H61V174H60ZM60 174H61V175H60ZM60 175H61V176H60ZM60 176H61V177H60ZM60 177H61V178H60ZM60 178H61V179H60ZM60 179H61V180H60ZM60 180H61V181H60ZM60 181H61V182H60ZM60 182H61V183H60ZM60 183H61V184H60ZM60 184H61V185H60ZM60 185H61V186H60ZM60 186H61V187H60ZM60 187H61V188H60ZM60 188H61V189H60ZM60 189H61V190H60ZM60 190H61V191H60ZM73 190H74V191H73ZM75 192H76V193H75ZM58 193H59V194H58ZM76 193H77V194H76ZM76 194H78V195H76ZM143 196H144V197H143ZM1 197H2V198H1ZM3 197H4V198H3ZM5 197H6V198H5ZM7 197H8V198H7ZM9 197H10V198H9ZM11 197H12V198H11ZM13 197H14V198H13ZM15 197H16V198H15ZM17 197H18V198H17ZM19 197H20V198H19ZM21 197H22V198H21ZM23 197H24V198H23ZM25 197H26V198H25ZM27 197H28V198H27ZM29 197H30V198H29ZM31 197H34V198H31ZM78 197H80V198H78ZM142 197H144V198H142ZM0 198H32V199H0ZM34 198H35V199H34ZM62 198H63V199H62ZM76 198H77V199H76ZM143 198H144V199H143ZM32 199H33V200H32ZM63 199H64V200H63ZM77 199H78V200H77ZM62 200H63V201H62ZM77 200H78V201H77ZM143 200H144V201H143ZM63 201H64V202H63ZM75 201H77V202H75ZM140 201H141V202H140ZM73 203H75V204H73ZM72 204H73V205H72ZM136 204H137V205H136ZM74 216H75V217H74ZM72 217H73V218H72ZM74 218H75V219H74ZM72 224H73V225H72ZM74 225H75V226H74ZM72 226H73V227H72ZM72 228H73V229H72ZM74 234H75V235H74ZM72 235H73V236H72ZM74 241H75V242H74ZM72 242H73V243H72ZM74 243H75V244H74Z"/><path fill="#001020" fill-opacity="1.000" d="M50 20H51V21H50ZM53 21H54V22H53ZM56 23H57V24H56ZM57 26H58V27H57Z"/><path fill="#001818" fill-opacity="1.000" d="M60 194H61V195H60Z"/><path fill="#001820" fill-opacity="1.000" d="M60 192H61V193H60ZM34 197H35V198H34ZM33 199H34V200H33ZM62 199H63V200H62ZM142 199H143V200H142Z"/><path fill="#001828" fill-opacity="1.000" d="M119 19H120V20H119ZM118 21H121V22H118ZM122 21H123V22H122ZM124 21H125V22H124ZM78 24H79V25H78ZM78 25H79V26H78ZM78 26H79V27H78ZM88 74H97V75H88ZM80 121H88V122H80ZM112 151H120V152H112Z"/><path fill="#001830" fill-opacity="1.000" d="M81 190H97V191H81ZM98 190H99V191H98ZM100 190H101V191H100ZM102 190H103V191H102ZM104 190H105V191H104ZM106 190H107V191H106ZM108 190H109V191H108ZM110 190H111V191H110ZM112 190H113V191H112ZM114 190H115V191H114ZM116 190H117V191H116ZM118 190H119V191H118ZM120 190H121V191H120ZM122 190H123V191H122ZM124 190H125V191H124ZM126 190H127V191H126ZM128 190H129V191H128ZM130 190H131V191H130ZM132 190H133V191H132ZM134 190H135V191H134Z"/><path fill="#002020" fill-opacity="1.000" d="M35 197H36V198H35ZM61 197H62V198H61ZM35 198H36V199H35ZM61 198H62V199H61Z"/><path fill="#002028" fill-opacity="1.000" d="M117 19H119V20H117ZM120 19H127V20H120ZM136 19H137V20H136ZM142 19H143V20H142ZM77 20H79V21H77ZM80 20H81V21H80ZM82 20H83V21H82ZM84 20H85V21H84ZM86 20H87V21H86ZM88 20H89V21H88ZM90 20H91V21H90ZM92 20H93V21H92ZM94 20H95V21H94ZM96 20H97V21H96ZM98 20H99V21H98ZM100 20H101V21H100ZM102 20H103V21H102ZM104 20H105V21H104ZM106 20H107V21H106ZM108 20H109V21H108ZM110 20H111V21H110ZM113 20H114V21H113ZM116 20H122V21H116ZM123 20H124V21H123ZM125 20H126V21H125ZM127 20H129V21H127ZM134 20H136V21H134ZM137 20H139V21H137ZM143 20H144V21H143ZM114 21H115V22H114ZM117 21H118V22H117ZM121 21H122V22H121ZM123 21H124V22H123ZM125 21H127V22H125ZM80 22H128V23H80ZM76 23H77V24H76ZM80 23H114V24H80ZM115 23H116V24H115ZM117 23H123V24H117ZM124 23H125V24H124ZM126 23H127V24H126ZM80 24H81V25H80ZM77 25H78V26H77ZM79 25H80V26H79ZM128 25H145V26H128ZM77 26H78V27H77ZM113 28H114V29H113ZM115 28H116V29H115ZM117 28H118V29H117ZM119 28H120V29H119ZM80 29H120V30H80ZM126 30H128V31H126ZM80 31H96V32H80ZM136 31H145V32H136ZM80 32H96V33H80ZM112 32H121V33H112ZM136 32H145V33H136ZM112 34H127V35H112ZM128 34H136V35H128ZM112 36H128V37H112ZM80 38H96V39H80ZM112 38H134V39H112ZM136 38H145V39H136ZM100 39H112V40H100ZM77 41H78V42H77ZM96 41H123V42H96ZM77 42H78V43H77ZM97 43H123V44H97ZM80 45H111V46H80ZM77 46H78V47H77ZM96 46H104V47H96ZM105 46H112V47H105ZM77 47H78V48H77ZM77 48H78V49H77ZM80 48H104V49H80ZM77 49H78V50H77ZM77 50H78V51H77ZM80 50H102V51H80ZM104 50H106V51H104ZM77 51H78V52H77ZM77 52H78V53H77ZM80 52H88V53H80ZM90 52H104V53H90ZM77 53H78V54H77ZM99 53H111V54H99ZM119 54H145V55H119ZM88 55H107V56H88ZM77 56H78V57H77ZM77 57H78V58H77ZM88 57H103V58H88ZM104 57H105V58H104ZM77 58H78V59H77ZM103 60H112V61H103ZM120 60H130V61H120ZM79 61H80V62H79ZM100 61H144V62H100ZM88 62H96V63H88ZM88 66H92V67H88ZM96 66H98V67H96ZM100 67H144V68H100ZM91 68H108V69H91ZM83 69H92V70H83ZM77 70H78V71H77ZM77 71H78V72H77ZM84 71H91V72H84ZM77 73H78V74H77ZM80 73H88V74H80ZM77 74H78V75H77ZM87 74H88V75H87ZM97 74H128V75H97ZM77 77H78V78H77ZM80 78H84V79H80ZM77 79H78V80H77ZM77 80H78V81H77ZM80 80H83V81H80ZM77 81H78V82H77ZM77 82H78V83H77ZM77 83H78V84H77ZM84 83H96V84H84ZM77 84H78V85H77ZM79 84H80V85H79ZM88 84H145V85H88ZM77 85H78V86H77ZM79 85H85V86H79ZM75 87H76V88H75ZM79 87H88V88H79ZM77 89H78V90H77ZM79 89H88V90H79ZM77 90H78V91H77ZM79 90H88V91H79ZM101 91H117V92H101ZM128 91H144V92H128ZM75 92H76V93H75ZM79 92H88V93H79ZM75 94H76V95H75ZM79 94H81V95H79ZM75 96H76V97H75ZM79 96H80V97H79ZM77 97H78V98H77ZM79 97H100V98H79ZM104 97H112V98H104ZM77 98H78V99H77ZM79 98H100V99H79ZM104 98H112V99H104ZM75 99H76V100H75ZM79 99H80V100H79ZM75 101H76V102H75ZM79 101H81V102H79ZM75 103H76V104H75ZM79 103H80V104H79ZM100 104H112V105H100ZM128 104H139V105H128ZM75 105H76V106H75ZM78 105H84V106H78ZM75 106H76V107H75ZM78 106H84V107H78ZM75 108H76V109H75ZM79 108H80V109H79ZM75 110H76V111H75ZM78 110H83V111H78ZM104 111H112V112H104ZM75 112H76V113H75ZM78 112H80V113H78ZM82 112H88V113H82ZM77 113H78V114H77ZM79 113H80V114H79ZM77 114H78V115H77ZM75 115H76V116H75ZM79 115H80V116H79ZM75 117H76V118H75ZM77 117H78V118H77ZM79 117H82V118H79ZM75 119H77V120H75ZM78 119H85V120H78ZM80 120H83V121H80ZM77 121H78V122H77ZM79 121H80V122H79ZM88 121H128V122H88ZM77 122H78V123H77ZM79 122H80V123H79ZM75 124H76V125H75ZM79 124H83V125H79ZM77 126H78V127H77ZM79 126H85V127H79ZM77 127H78V128H77ZM79 127H80V128H79ZM84 127H100V128H84ZM77 128H78V129H77ZM89 128H125V129H89ZM77 129H78V130H77ZM80 129H84V130H80ZM77 131H78V132H77ZM77 132H78V133H77ZM77 133H78V134H77ZM80 133H84V134H80ZM77 134H78V135H77ZM86 134H117V135H86ZM120 134H128V135H120ZM77 135H78V136H77ZM92 135H96V136H92ZM104 135H109V136H104ZM77 136H78V137H77ZM80 136H83V137H80ZM77 137H78V138H77ZM77 138H78V139H77ZM80 138H92V139H80ZM77 139H78V140H77ZM77 140H78V141H77ZM80 140H92V141H80ZM120 141H145V142H120ZM77 142H78V143H77ZM88 142H98V143H88ZM77 143H78V144H77ZM80 143H96V144H80ZM77 144H78V145H77ZM80 145H88V146H80ZM77 147H78V148H77ZM80 147H101V148H80ZM77 148H78V149H77ZM77 149H78V150H77ZM88 149H96V150H88ZM77 150H78V151H77ZM88 150H100V151H88ZM77 151H78V152H77ZM110 151H112V152H110ZM120 151H145V152H120ZM77 152H78V153H77ZM88 152H101V153H88ZM88 154H95V155H88ZM77 155H78V156H77ZM77 156H78V157H77ZM88 156H104V157H88ZM77 157H78V158H77ZM94 157H106V158H94ZM112 157H120V158H112ZM119 158H145V159H119ZM96 159H101V160H96ZM77 160H78V161H77ZM77 161H78V162H77ZM96 161H102V162H96ZM77 162H78V163H77ZM96 163H99V164H96ZM104 163H113V164H104ZM104 164H118V165H104ZM128 164H140V165H128ZM144 164H145V165H144ZM79 165H80V166H79ZM93 165H96V166H93ZM118 165H145V166H118ZM97 166H105V167H97ZM104 168H106V169H104ZM104 170H109V171H104ZM112 170H118V171H112ZM128 171H145V172H128ZM115 172H120V173H115ZM124 172H145V173H124ZM103 173H115V174H103ZM77 174H78V175H77ZM104 175H112V176H104ZM77 177H78V178H77ZM77 178H78V179H77ZM96 179H104V180H96ZM112 179H128V180H112ZM80 180H96V181H80ZM104 180H112V181H104ZM116 180H128V181H116ZM136 180H144V181H136ZM77 181H78V182H77ZM77 182H78V183H77ZM80 182H96V183H80ZM112 182H128V183H112ZM77 183H78V184H77ZM80 184H96V185H80ZM122 184H128V185H122ZM128 186H134V187H128ZM96 187H128V188H96ZM75 188H77V189H75ZM77 189H78V190H77ZM80 189H97V190H80ZM98 189H99V190H98ZM100 189H101V190H100ZM102 189H103V190H102ZM104 189H105V190H104ZM106 189H107V190H106ZM108 189H109V190H108ZM110 189H111V190H110ZM113 189H114V190H113ZM115 189H116V190H115ZM117 189H118V190H117ZM119 189H121V190H119ZM122 189H124V190H122ZM125 189H126V190H125ZM127 189H129V190H127ZM130 189H132V190H130ZM133 189H134V190H133ZM135 189H136V190H135ZM137 189H138V190H137ZM139 189H140V190H139ZM141 189H142V190H141ZM143 189H145V190H143ZM78 190H79V191H78ZM137 191H138V192H137ZM139 191H140V192H139ZM141 191H142V192H141ZM143 191H145V192H143ZM34 199H35V200H34ZM62 201H63V202H62Z"/><path fill="#002030" fill-opacity="1.000" d="M143 19H144V20H143ZM112 20H113V21H112ZM114 20H115V21H114ZM122 20H123V21H122ZM124 20H125V21H124ZM126 20H127V21H126ZM136 20H137V21H136ZM139 20H141V21H139ZM144 20H145V21H144ZM77 21H78V22H77ZM77 22H80V23H77ZM77 23H80V24H77ZM77 24H78V25H77ZM79 24H80V25H79ZM128 27H144V28H128ZM144 29H145V30H144ZM77 30H78V31H77ZM77 31H78V32H77ZM77 32H78V33H77ZM77 33H78V34H77ZM77 34H78V35H77ZM136 34H144V35H136ZM77 35H78V36H77ZM77 36H78V37H77ZM128 36H136V37H128ZM77 37H78V38H77ZM77 38H78V39H77ZM134 38H136V39H134ZM77 39H78V40H77ZM77 40H78V41H77ZM128 41H136V42H128ZM77 43H78V44H77ZM128 43H136V44H128ZM77 44H78V45H77ZM77 45H78V46H77ZM112 46H124V47H112ZM104 48H120V49H104ZM102 50H104V51H102ZM106 50H112V51H106ZM104 52H112V53H104ZM111 53H112V54H111ZM120 53H122V54H120ZM77 54H78V55H77ZM77 55H78V56H77ZM107 55H112V56H107ZM103 57H104V58H103ZM105 57H112V58H105ZM77 59H78V60H77ZM104 59H106V60H104ZM112 59H117V60H112ZM77 60H78V61H77ZM112 60H120V61H112ZM130 60H144V61H130ZM77 61H78V62H77ZM144 61H145V62H144ZM77 62H78V63H77ZM96 62H101V63H96ZM77 63H78V64H77ZM77 64H78V65H77ZM96 64H98V65H96ZM77 65H78V66H77ZM77 66H78V67H77ZM98 66H104V67H98ZM77 67H78V68H77ZM144 67H145V68H144ZM77 68H78V69H77ZM108 68H120V69H108ZM77 69H78V70H77ZM96 69H98V70H96ZM77 72H78V73H77ZM77 75H78V76H77ZM104 75H106V76H104ZM77 76H78V77H77ZM84 78H95V79H84ZM83 80H91V81H83ZM80 82H84V83H80ZM96 83H99V84H96ZM85 85H91V86H85ZM77 87H78V88H77ZM88 89H94V90H88ZM96 89H98V90H96ZM88 90H93V91H88ZM104 90H111V91H104ZM112 90H120V91H112ZM117 91H128V92H117ZM144 91H145V92H144ZM77 92H78V93H77ZM77 94H78V95H77ZM81 94H88V95H81ZM77 96H78V97H77ZM80 96H82V97H80ZM100 97H104V98H100ZM112 97H113V98H112ZM100 98H104V99H100ZM112 98H113V99H112ZM77 99H78V100H77ZM80 99H82V100H80ZM77 101H78V102H77ZM81 101H88V102H81ZM77 103H78V104H77ZM112 104H128V105H112ZM139 104H145V105H139ZM77 105H78V106H77ZM84 105H88V106H84ZM77 106H78V107H77ZM84 106H93V107H84ZM77 108H78V109H77ZM77 110H78V111H77ZM83 110H88V111H83ZM77 112H78V113H77ZM88 112H98V113H88ZM77 115H78V116H77ZM80 115H88V116H80ZM82 117H88V118H82ZM77 119H78V120H77ZM85 119H96V120H85ZM83 120H103V121H83ZM80 122H82V123H80ZM77 124H78V125H77ZM83 124H96V125H83ZM100 127H104V128H100ZM125 128H140V129H125ZM117 134H120V135H117ZM128 134H145V135H128ZM96 135H102V136H96ZM109 135H116V136H109ZM96 136H103V137H96ZM96 138H101V139H96ZM98 142H110V143H98ZM96 143H104V144H96ZM96 145H101V146H96ZM101 147H104V148H101ZM96 149H104V150H96ZM100 150H106V151H100ZM101 152H112V153H101ZM96 154H100V155H96ZM104 154H107V155H104ZM104 156H112V157H104ZM106 157H112V158H106ZM120 157H126V158H120ZM128 157H134V158H128ZM77 158H78V159H77ZM77 159H78V160H77ZM112 161H115V162H112ZM77 163H78V164H77ZM113 163H128V164H113ZM77 164H78V165H77ZM118 164H128V165H118ZM140 164H144V165H140ZM77 165H78V166H77ZM77 166H78V167H77ZM112 166H115V167H112ZM77 167H78V168H77ZM77 168H78V169H77ZM112 168H114V169H112ZM120 168H123V169H120ZM77 169H78V170H77ZM77 170H78V171H77ZM118 170H127V171H118ZM77 171H78V172H77ZM77 172H78V173H77ZM77 173H78V174H77ZM115 173H124V174H115ZM77 175H78V176H77ZM144 175H145V176H144ZM77 176H78V177H77ZM77 179H78V180H77ZM80 179H96V180H80ZM144 179H145V180H144ZM77 180H78V181H77ZM144 180H145V181H144ZM77 184H78V185H77ZM144 184H145V185H144ZM77 185H78V186H77ZM77 186H78V187H77ZM144 186H145V187H144ZM77 187H78V188H77ZM80 187H96V188H80ZM77 188H78V189H77ZM112 189H113V190H112ZM114 189H115V190H114ZM116 189H117V190H116ZM118 189H119V190H118ZM124 189H125V190H124ZM126 189H127V190H126ZM132 189H133V190H132ZM134 189H135V190H134ZM136 189H137V190H136ZM138 189H139V190H138ZM140 189H141V190H140ZM142 189H143V190H142Z"/><path fill="#002828" fill-opacity="1.000" d="M60 197H61V198H60Z"/><path fill="#002830" fill-opacity="1.000" d="M35 199H36V200H35ZM32 200H33V201H32Z"/><path fill="#003030" fill-opacity="1.000" d="M33 200H34V201H33ZM61 200H62V201H61Z"/><path fill="#003038" fill-opacity="1.000" d="M57 197H59V198H57ZM61 201H62V202H61Z"/><path fill="#003838" fill-opacity="1.000" d="M50 197H51V198H50Z"/><path fill="#080810" fill-opacity="1.000" d="M17 14H18V15H17ZM20 14H21V15H20ZM23 14H24V15H23ZM70 14H71V15H70ZM80 14H115V15H80ZM128 14H135V15H128ZM136 14H137V15H136ZM139 14H140V15H139ZM61 15H62V16H61ZM68 15H71V16H68ZM114 15H116V16H114ZM68 16H70V17H68ZM63 191H64V192H63ZM70 194H71V195H70ZM70 195H73V196H70ZM70 196H73V197H70ZM70 197H72V198H70ZM73 198H74V199H73Z"/><path fill="#081010" fill-opacity="1.000" d="M52 14H53V15H52ZM57 14H58V15H57ZM59 14H60V15H59ZM61 14H63V15H61ZM79 14H80V15H79ZM48 15H49V16H48ZM53 15H54V16H53ZM58 15H59V16H58ZM116 15H118V16H116ZM57 16H58V17H57ZM59 16H60V17H59ZM63 16H64V17H63ZM62 19H63V20H62ZM61 20H62V21H61ZM62 21H63V22H62ZM62 194H63V195H62ZM63 195H64V196H63ZM62 196H63V197H62ZM62 197H63V198H62ZM72 201H73V202H72Z"/><path fill="#081018" fill-opacity="1.000" d="M49 14H50V15H49ZM50 15H51V16H50ZM49 16H50V17H49ZM52 16H53V17H52ZM60 16H61V17H60ZM61 17H62V18H61ZM73 17H74V18H73ZM55 18H57V19H55ZM59 18H60V19H59ZM62 18H63V19H62ZM59 21H60V22H59ZM62 24H63V25H62ZM60 25H61V26H60ZM73 191H74V192H73ZM74 192H75V193H74ZM73 193H74V194H73ZM75 195H76V196H75ZM74 196H75V197H74ZM77 196H78V197H77ZM0 197H1V198H0ZM2 197H3V198H2ZM4 197H5V198H4ZM6 197H7V198H6ZM8 197H9V198H8ZM10 197H11V198H10ZM12 197H13V198H12ZM14 197H15V198H14ZM16 197H17V198H16ZM18 197H19V198H18ZM20 197H21V198H20ZM22 197H23V198H22ZM24 197H25V198H24ZM26 197H27V198H26ZM28 197H29V198H28ZM30 197H31V198H30ZM73 197H74V198H73ZM76 197H77V198H76ZM32 198H33V199H32ZM79 198H80V199H79Z"/><path fill="#081020" fill-opacity="1.000" d="M60 26H61V27H60ZM78 199H79V200H78ZM63 202H64V203H63ZM75 202H76V203H75Z"/><path fill="#081820" fill-opacity="1.000" d="M56 19H57V20H56ZM141 198H142V199H141Z"/><path fill="#082020" fill-opacity="1.000" d="M116 17H117V18H116Z"/><path fill="#082028" fill-opacity="1.000" d="M74 19H76V20H74ZM56 21H57V22H56ZM58 191H59V192H58ZM79 191H80V192H79ZM77 192H78V193H77ZM78 193H80V194H78ZM36 197H37V198H36ZM140 199H141V200H140ZM74 205H75V206H74ZM136 205H137V206H136Z"/><path fill="#082030" fill-opacity="1.000" d="M79 20H80V21H79ZM144 22H145V23H144ZM144 27H145V28H144ZM128 29H144V30H128ZM121 32H136V33H121ZM127 34H128V35H127ZM144 34H145V35H144ZM136 36H145V37H136ZM112 39H145V40H112ZM123 41H128V42H123ZM136 41H145V42H136ZM123 43H128V44H123ZM136 43H145V44H136ZM111 45H145V46H111ZM124 46H145V47H124ZM120 48H145V49H120ZM112 50H145V51H112ZM112 52H145V53H112ZM112 53H120V54H112ZM122 53H145V54H122ZM112 55H132V56H112ZM112 57H145V58H112ZM88 59H104V60H88ZM106 59H112V60H106ZM117 59H145V60H117ZM144 60H145V61H144ZM101 62H136V63H101ZM88 64H96V65H88ZM98 64H127V65H98ZM128 64H132V65H128ZM136 64H144V65H136ZM92 66H96V67H92ZM104 66H124V67H104ZM120 68H145V69H120ZM92 69H96V70H92ZM98 69H134V70H98ZM91 71H128V72H91ZM88 73H128V74H88ZM88 75H104V76H88ZM106 75H128V76H106ZM80 76H112V77H80ZM95 78H120V79H95ZM91 80H112V81H91ZM84 82H120V83H84ZM99 83H123V84H99ZM91 85H112V86H91ZM88 87H111V88H88ZM94 89H96V90H94ZM98 89H104V90H98ZM93 90H104V91H93ZM111 90H112V91H111ZM120 90H145V91H120ZM88 92H113V93H88ZM88 94H108V95H88ZM109 94H112V95H109ZM82 96H107V97H82ZM110 96H114V97H110ZM113 97H145V98H113ZM113 98H145V99H113ZM82 99H107V100H82ZM110 99H114V100H110ZM88 101H108V102H88ZM109 101H112V102H109ZM80 103H112V104H80ZM88 105H145V106H88ZM93 106H104V107H93ZM80 108H104V109H80ZM88 110H112V111H88ZM98 112H120V113H98ZM80 113H112V114H80ZM88 115H112V116H88ZM88 117H112V118H88ZM96 119H113V120H96ZM103 120H129V121H103ZM82 122H120V123H82ZM96 124H118V125H96ZM85 126H120V127H85ZM104 127H145V128H104ZM140 128H145V129H140ZM84 129H107V130H84ZM80 131H112V132H80ZM84 133H120V134H84ZM102 135H104V136H102ZM116 135H145V136H116ZM83 136H96V137H83ZM103 136H118V137H103ZM120 136H128V137H120ZM92 138H96V139H92ZM101 138H120V139H101ZM92 140H116V141H92ZM120 140H129V141H120ZM110 142H145V143H110ZM104 143H120V144H104ZM88 145H96V146H88ZM101 145H136V146H101ZM104 147H136V148H104ZM104 149H145V150H104ZM106 150H145V151H106ZM112 152H144V153H112ZM95 154H96V155H95ZM100 154H104V155H100ZM107 154H145V155H107ZM112 156H136V157H112ZM126 157H128V158H126ZM134 157H145V158H134ZM101 159H133V160H101ZM136 159H138V160H136ZM144 159H145V160H144ZM102 161H112V162H102ZM115 161H145V162H115ZM99 163H104V164H99ZM128 163H145V164H128ZM105 166H112V167H105ZM115 166H145V167H115ZM106 168H112V169H106ZM114 168H120V169H114ZM123 168H145V169H123ZM109 170H112V171H109ZM127 170H145V171H127ZM124 173H145V174H124ZM112 175H144V176H112ZM112 177H145V178H112ZM128 179H144V180H128ZM128 180H136V181H128ZM128 182H145V183H128ZM128 184H144V185H128ZM134 186H144V187H134ZM140 191H141V192H140Z"/><path fill="#082830" fill-opacity="1.000" d="M132 55H145V56H132ZM136 62H145V63H136ZM127 64H128V65H127ZM132 64H136V65H132ZM144 64H145V65H144ZM124 66H145V67H124ZM134 69H145V70H134ZM128 71H145V72H128ZM128 73H145V74H128ZM128 75H145V76H128ZM112 76H145V77H112ZM120 78H145V79H120ZM112 80H144V81H112ZM120 82H144V83H120ZM123 83H145V84H123ZM112 85H139V86H112ZM144 85H145V86H144ZM111 87H131V88H111ZM104 89H128V90H104ZM113 92H133V93H113ZM108 94H109V95H108ZM112 94H132V95H112ZM136 94H140V95H136ZM144 94H145V95H144ZM107 96H110V97H107ZM114 96H130V97H114ZM136 96H138V97H136ZM107 99H110V100H107ZM114 99H130V100H114ZM136 99H138V100H136ZM108 101H109V102H108ZM112 101H132V102H112ZM136 101H140V102H136ZM112 103H128V104H112ZM136 103H139V104H136ZM104 106H128V107H104ZM104 108H128V109H104ZM136 108H137V109H136ZM112 110H128V111H112ZM120 112H132V113H120ZM136 112H140V113H136ZM112 113H145V114H112ZM112 115H128V116H112ZM112 117H134V118H112ZM136 117H142V118H136ZM113 119H131V120H113ZM129 120H145V121H129ZM120 122H128V123H120ZM118 124H120V125H118ZM128 124H132V125H128ZM120 126H138V127H120ZM144 126H145V127H144ZM107 129H145V130H107ZM112 131H145V132H112ZM120 133H145V134H120ZM118 136H120V137H118ZM128 136H145V137H128ZM120 138H145V139H120ZM116 140H120V141H116ZM129 140H145V141H129ZM120 143H145V144H120ZM136 145H145V146H136ZM136 147H145V148H136ZM144 152H145V153H144ZM136 156H145V157H136ZM133 159H136V160H133ZM138 159H144V160H138ZM144 199H145V200H144ZM0 200H32V201H0ZM62 202H63V203H62Z"/><path fill="#083030" fill-opacity="1.000" d="M37 197H38V198H37Z"/><path fill="#083038" fill-opacity="1.000" d="M38 197H39V198H38ZM40 197H47V198H40ZM48 197H49V198H48ZM36 198H37V199H36ZM61 199H62V200H61Z"/><path fill="#083838" fill-opacity="1.000" d="M47 197H48V198H47ZM49 197H50V198H49ZM51 197H54V198H51Z"/><path fill="#083840" fill-opacity="1.000" d="M39 197H40V198H39ZM54 197H55V198H54ZM56 197H57V198H56ZM61 202H62V203H61Z"/><path fill="#084040" fill-opacity="1.000" d="M34 200H35V201H34Z"/><path fill="#101018" fill-opacity="1.000" d="M60 19H61V20H60Z"/><path fill="#101820" fill-opacity="1.000" d="M17 17H18V18H17Z"/><path fill="#101828" fill-opacity="1.000" d="M142 202H143V203H142ZM137 203H138V204H137Z"/><path fill="#102028" fill-opacity="1.000" d="M141 16H142V17H141ZM50 19H51V20H50ZM79 200H80V201H79Z"/><path fill="#102030" fill-opacity="1.000" d="M58 27H59V28H58ZM75 190H76V191H75ZM76 191H77V192H76ZM141 200H142V201H141ZM143 201H144V202H143ZM143 202H145V203H143Z"/><path fill="#102830" fill-opacity="1.000" d="M144 80H145V81H144ZM139 85H144V86H139ZM131 87H145V88H131ZM128 89H145V90H128ZM133 92H145V93H133ZM132 94H136V95H132ZM140 94H144V95H140ZM130 96H136V97H130ZM138 96H145V97H138ZM130 99H136V100H130ZM138 99H145V100H138ZM132 101H136V102H132ZM140 101H145V102H140ZM128 103H136V104H128ZM139 103H145V104H139ZM128 106H137V107H128ZM128 108H136V109H128ZM137 108H144V109H137ZM128 110H144V111H128ZM132 112H136V113H132ZM140 112H145V113H140ZM128 115H145V116H128ZM134 117H136V118H134ZM142 117H145V118H142ZM131 119H145V120H131ZM128 122H145V123H128ZM120 124H128V125H120ZM132 124H145V125H132ZM138 126H144V127H138ZM80 194H128V195H80ZM144 197H145V198H144ZM141 199H142V200H141ZM142 200H143V201H142ZM142 201H143V202H142ZM63 204H64V205H63Z"/><path fill="#102838" fill-opacity="1.000" d="M144 82H145V83H144ZM137 106H145V107H137ZM144 108H145V109H144ZM144 110H145V111H144Z"/><path fill="#103040" fill-opacity="1.000" d="M55 197H56V198H55Z"/><path fill="#103840" fill-opacity="1.000" d="M144 198H145V199H144Z"/><path fill="#104040" fill-opacity="1.000" d="M59 197H60V198H59Z"/><path fill="#105050" fill-opacity="1.000" d="M35 200H36V201H35Z"/><path fill="#182030" fill-opacity="1.000" d="M144 201H145V202H144Z"/><path fill="#182828" fill-opacity="1.000" d="M60 23H61V24H60Z"/><path fill="#182830" fill-opacity="1.000" d="M117 17H118V18H117ZM73 18H75V19H73ZM73 19H74V20H73ZM55 20H56V21H55ZM73 21H74V22H73ZM74 190H75V191H74ZM79 194H80V195H79ZM128 194H144V195H128Z"/><path fill="#182838" fill-opacity="1.000" d="M144 194H145V195H144Z"/><path fill="#183030" fill-opacity="1.000" d="M75 18H76V19H75ZM129 198H130V199H129ZM131 198H132V199H131ZM133 198H134V199H133ZM135 198H137V199H135ZM139 198H140V199H139ZM73 216H74V217H73ZM73 218H74V219H73ZM73 225H74V226H73ZM73 227H74V228H73ZM73 230H74V231H73ZM73 232H74V233H73ZM73 234H74V235H73ZM73 239H74V240H73ZM73 241H74V242H73ZM73 243H74V244H73Z"/><path fill="#183038" fill-opacity="1.000" d="M144 16H145V17H144ZM136 17H137V18H136ZM76 18H77V19H76ZM78 18H79V19H78ZM80 18H115V19H80ZM73 20H74V21H73ZM73 22H74V23H73ZM73 23H74V24H73ZM73 24H74V25H73ZM73 25H74V26H73ZM73 26H74V27H73ZM73 27H74V28H73ZM73 30H74V31H73ZM73 31H74V32H73ZM73 32H74V33H73ZM73 33H74V34H73ZM73 34H74V35H73ZM73 35H74V36H73ZM73 36H74V37H73ZM73 37H74V38H73ZM73 39H74V40H73ZM73 40H74V41H73ZM73 41H74V42H73ZM73 42H74V43H73ZM73 43H74V44H73ZM73 44H74V45H73ZM73 46H74V47H73ZM73 47H74V48H73ZM73 48H74V49H73ZM73 49H74V50H73ZM73 50H74V51H73ZM73 51H74V52H73ZM73 52H74V53H73ZM73 53H74V54H73ZM73 54H74V55H73ZM73 55H74V56H73ZM73 56H74V57H73ZM73 57H74V58H73ZM73 58H74V59H73ZM73 59H74V60H73ZM73 62H74V63H73ZM73 63H74V64H73ZM73 64H74V65H73ZM73 65H74V66H73ZM73 66H74V67H73ZM73 67H74V68H73ZM73 68H74V69H73ZM73 69H74V70H73ZM73 70H74V71H73ZM73 71H74V72H73ZM73 72H74V73H73ZM73 73H74V74H73ZM73 74H74V75H73ZM73 76H74V77H73ZM73 77H74V78H73ZM73 78H74V79H73ZM73 79H74V80H73ZM73 80H74V81H73ZM73 81H74V82H73ZM73 82H74V83H73ZM73 83H74V84H73ZM73 84H74V85H73ZM73 85H74V86H73ZM73 86H74V87H73ZM73 88H74V89H73ZM73 89H74V90H73ZM73 90H74V91H73ZM73 91H74V92H73ZM73 93H74V94H73ZM73 95H74V96H73ZM73 97H74V98H73ZM73 98H74V99H73ZM73 100H74V101H73ZM73 102H74V103H73ZM73 104H74V105H73ZM73 107H74V108H73ZM73 109H74V110H73ZM73 111H74V112H73ZM73 113H74V114H73ZM73 114H74V115H73ZM73 116H74V117H73ZM73 118H74V119H73ZM73 120H74V121H73ZM73 121H74V122H73ZM73 122H74V123H73ZM73 123H74V124H73ZM73 125H74V126H73ZM73 127H74V128H73ZM73 128H74V129H73ZM73 129H74V130H73ZM73 130H74V131H73ZM73 131H74V132H73ZM73 132H74V133H73ZM73 133H74V134H73ZM73 134H74V135H73ZM73 135H74V136H73ZM73 136H74V137H73ZM73 137H74V138H73ZM73 138H74V139H73ZM73 139H74V140H73ZM73 140H74V141H73ZM73 141H74V142H73ZM73 143H74V144H73ZM73 144H74V145H73ZM73 145H74V146H73ZM73 146H74V147H73ZM73 147H74V148H73ZM73 148H74V149H73ZM73 151H74V152H73ZM73 152H74V153H73ZM73 153H74V154H73ZM73 154H74V155H73ZM73 155H74V156H73ZM73 156H74V157H73ZM73 158H74V159H73ZM73 159H74V160H73ZM73 160H74V161H73ZM73 161H74V162H73ZM73 162H74V163H73ZM73 163H74V164H73ZM73 166H74V167H73ZM73 167H74V168H73ZM73 168H74V169H73ZM73 169H74V170H73ZM73 170H74V171H73ZM73 171H74V172H73ZM73 172H74V173H73ZM73 173H74V174H73ZM73 174H74V175H73ZM73 175H74V176H73ZM73 176H74V177H73ZM73 177H74V178H73ZM73 178H74V179H73ZM73 179H74V180H73ZM73 180H74V181H73ZM73 181H74V182H73ZM73 182H74V183H73ZM73 183H74V184H73ZM73 184H74V185H73ZM73 185H74V186H73ZM73 186H74V187H73ZM73 187H74V188H73ZM73 188H74V189H73ZM81 198H129V199H81ZM130 198H131V199H130ZM132 198H133V199H132ZM134 198H135V199H134ZM138 198H139V199H138ZM63 205H64V206H63ZM63 206H64V207H63ZM63 207H64V208H63ZM63 208H64V209H63ZM63 209H64V210H63ZM63 210H64V211H63ZM63 211H64V212H63ZM63 212H64V213H63ZM63 213H64V214H63ZM63 214H64V215H63ZM63 215H64V216H63ZM63 216H64V217H63ZM63 217H64V218H63ZM63 218H64V219H63ZM63 219H64V220H63ZM63 220H64V221H63ZM63 221H64V222H63ZM63 222H64V223H63ZM63 223H64V224H63ZM63 224H64V225H63ZM63 225H64V226H63ZM63 226H64V227H63ZM63 227H64V228H63ZM63 228H64V229H63ZM63 229H64V230H63ZM63 230H64V231H63ZM63 231H64V232H63ZM63 232H64V233H63ZM63 233H64V234H63ZM63 234H64V235H63ZM63 235H64V236H63ZM63 236H64V237H63ZM63 237H64V238H63ZM63 238H64V239H63ZM63 239H64V240H63ZM63 240H64V241H63ZM63 241H64V242H63ZM63 242H64V243H63ZM63 243H64V244H63ZM63 244H64V245H63ZM63 245H64V246H63ZM63 246H64V247H63ZM63 247H64V248H63ZM63 248H64V249H63ZM63 249H64V250H63Z"/><path fill="#183040" fill-opacity="1.000" d="M139 17H140V18H139Z"/><path fill="#183840" fill-opacity="1.000" d="M135 17H136V18H135Z"/><path fill="#184850" fill-opacity="1.000" d="M60 198H61V199H60Z"/><path fill="#202830" fill-opacity="1.000" d="M57 20H58V21H57ZM79 199H80V200H79Z"/><path fill="#203030" fill-opacity="1.000" d="M61 24H62V25H61Z"/><path fill="#203038" fill-opacity="1.000" d="M142 16H143V17H142ZM77 18H78V19H77ZM79 18H80V19H79ZM54 19H55V20H54ZM60 24H61V25H60ZM73 28H74V29H73ZM73 29H74V30H73ZM73 38H74V39H73ZM73 45H74V46H73ZM73 60H74V61H73ZM73 61H74V62H73ZM73 75H74V76H73ZM73 94H74V95H73ZM73 96H74V97H73ZM73 99H74V100H73ZM73 101H74V102H73ZM73 105H74V106H73ZM73 106H74V107H73ZM73 110H74V111H73ZM73 112H74V113H73ZM73 115H74V116H73ZM73 117H74V118H73ZM73 124H74V125H73ZM73 126H74V127H73ZM73 142H74V143H73ZM73 149H74V150H73ZM73 150H74V151H73ZM73 157H74V158H73ZM73 164H74V165H73ZM73 165H74V166H73ZM73 189H74V190H73ZM76 192H77V193H76ZM78 194H79V195H78ZM80 198H81V199H80ZM137 198H138V199H137ZM140 198H141V199H140ZM78 200H79V201H78ZM77 201H78V202H77ZM76 202H77V203H76ZM63 203H64V204H63ZM75 203H76V204H75ZM73 205H74V206H73ZM73 206H74V207H73ZM73 207H74V208H73ZM73 208H74V209H73ZM73 209H74V210H73ZM73 210H74V211H73ZM73 211H74V212H73ZM73 212H74V213H73ZM73 213H74V214H73ZM73 214H74V215H73ZM73 215H74V216H73ZM73 217H74V218H73ZM73 219H74V220H73ZM73 220H74V221H73ZM73 221H74V222H73ZM73 222H74V223H73ZM73 223H74V224H73ZM73 224H74V225H73ZM73 226H74V227H73ZM73 228H74V229H73ZM73 229H74V230H73ZM73 231H74V232H73ZM73 233H74V234H73ZM73 235H74V236H73ZM73 236H74V237H73ZM73 237H74V238H73ZM73 238H74V239H73ZM73 240H74V241H73ZM73 242H74V243H73ZM73 244H74V245H73ZM73 245H74V246H73ZM73 246H74V247H73ZM73 247H74V248H73ZM73 248H74V249H73ZM73 249H74V250H73Z"/><path fill="#203040" fill-opacity="1.000" d="M118 17H119V18H118ZM120 17H135V18H120ZM115 18H116V19H115ZM73 87H74V88H73ZM73 92H74V93H73ZM73 103H74V104H73ZM73 108H74V109H73ZM73 119H74V120H73ZM75 191H76V192H75Z"/><path fill="#203838" fill-opacity="1.000" d="M143 16H144V17H143Z"/><path fill="#203840" fill-opacity="1.000" d="M137 17H139V18H137ZM140 17H141V18H140ZM77 193H78V194H77ZM34 196H35V197H34ZM74 204H75V205H74Z"/><path fill="#203848" fill-opacity="1.000" d="M116 18H117V19H116Z"/><path fill="#204040" fill-opacity="1.000" d="M35 195H36V196H35ZM35 196H37V197H35ZM59 196H60V197H59Z"/><path fill="#204048" fill-opacity="1.000" d="M136 18H137V19H136ZM143 18H144V19H143ZM48 196H51V197H48Z"/><path fill="#204050" fill-opacity="1.000" d="M137 18H138V19H137ZM142 18H143V19H142Z"/><path fill="#204850" fill-opacity="1.000" d="M135 18H136V19H135ZM144 18H145V19H144ZM62 204H63V205H62ZM62 205H63V206H62ZM62 206H63V207H62ZM62 207H63V208H62ZM62 208H63V209H62ZM62 209H63V210H62ZM62 210H63V211H62ZM62 211H63V212H62ZM62 212H63V213H62ZM62 213H63V214H62ZM62 214H63V215H62ZM62 215H63V216H62ZM62 216H63V217H62ZM62 217H63V218H62ZM62 218H63V219H62ZM62 219H63V220H62ZM62 220H63V221H62ZM62 221H63V222H62ZM62 222H63V223H62ZM62 223H63V224H62ZM62 224H63V225H62ZM62 225H63V226H62ZM62 226H63V227H62ZM62 227H63V228H62ZM62 228H63V229H62ZM62 229H63V230H62ZM62 230H63V231H62ZM62 231H63V232H62ZM62 232H63V233H62ZM62 233H63V234H62ZM62 234H63V235H62ZM62 235H63V236H62ZM62 236H63V237H62ZM62 237H63V238H62ZM62 238H63V239H62ZM62 239H63V240H62ZM62 240H63V241H62ZM62 241H63V242H62ZM62 242H63V243H62ZM62 243H63V244H62ZM62 244H63V245H62ZM62 245H63V246H62ZM62 246H63V247H62ZM62 247H63V248H62ZM62 248H63V249H62ZM62 249H63V250H62Z"/><path fill="#205058" fill-opacity="1.000" d="M37 198H38V199H37Z"/><path fill="#205858" fill-opacity="1.000" d="M36 199H37V200H36Z"/><path fill="#206060" fill-opacity="1.000" d="M61 205H62V206H61ZM61 206H62V207H61Z"/><path fill="#206868" fill-opacity="1.000" d="M33 201H34V202H33Z"/><path fill="#283038" fill-opacity="1.000" d="M61 26H62V27H61Z"/><path fill="#283840" fill-opacity="1.000" d="M119 17H120V18H119ZM31 195H32V196H31ZM57 195H58V196H57ZM0 196H34V197H0Z"/><path fill="#284040" fill-opacity="1.000" d="M61 193H62V194H61ZM61 194H62V195H61ZM32 195H35V196H32ZM36 195H40V196H36ZM44 195H48V196H44Z"/><path fill="#284048" fill-opacity="1.000" d="M117 18H118V19H117ZM48 195H52V196H48ZM58 195H60V196H58ZM37 196H48V197H37ZM51 196H54V197H51ZM60 196H61V197H60Z"/><path fill="#284050" fill-opacity="1.000" d="M118 18H135V19H118ZM56 196H57V197H56Z"/><path fill="#284850" fill-opacity="1.000" d="M141 17H142V18H141ZM138 18H142V19H138ZM57 196H59V197H57Z"/><path fill="#285058" fill-opacity="1.000" d="M144 17H145V18H144Z"/><path fill="#285860" fill-opacity="1.000" d="M61 203H62V204H61Z"/><path fill="#286060" fill-opacity="1.000" d="M61 204H62V205H61ZM61 207H62V208H61ZM61 208H62V209H61ZM61 209H62V210H61ZM61 210H62V211H61ZM61 211H62V212H61ZM61 212H62V213H61ZM61 213H62V214H61ZM61 214H62V215H61ZM61 215H62V216H61ZM61 216H62V217H61ZM61 217H62V218H61ZM61 218H62V219H61ZM61 219H62V220H61ZM61 220H62V221H61ZM61 221H62V222H61ZM61 222H62V223H61ZM61 223H62V224H61ZM61 224H62V225H61ZM61 225H62V226H61ZM61 226H62V227H61ZM61 227H62V228H61ZM61 228H62V229H61ZM61 229H62V230H61ZM61 230H62V231H61ZM61 231H62V232H61ZM61 232H62V233H61ZM61 233H62V234H61ZM61 234H62V235H61ZM61 235H62V236H61ZM61 236H62V237H61ZM61 237H62V238H61ZM61 238H62V239H61ZM61 239H62V240H61ZM61 240H62V241H61ZM61 241H62V242H61ZM61 242H62V243H61ZM61 243H62V244H61ZM61 244H62V245H61ZM61 245H62V246H61ZM61 246H62V247H61ZM61 247H62V248H61ZM61 248H62V249H61ZM61 249H62V250H61Z"/><path fill="#287070" fill-opacity="1.000" d="M34 201H35V202H34Z"/><path fill="#303840" fill-opacity="1.000" d="M61 28H62V29H61ZM0 195H31V196H0Z"/><path fill="#303848" fill-opacity="1.000" d="M54 195H56V196H54Z"/><path fill="#304040" fill-opacity="1.000" d="M61 30H62V31H61ZM61 31H62V32H61ZM61 32H62V33H61ZM61 33H62V34H61ZM61 34H62V35H61ZM61 35H62V36H61ZM61 36H62V37H61ZM61 37H62V38H61ZM61 38H62V39H61ZM61 39H62V40H61ZM61 40H62V41H61ZM61 41H62V42H61ZM61 42H62V43H61ZM61 43H62V44H61ZM61 44H62V45H61ZM61 45H62V46H61ZM61 46H62V47H61ZM61 47H62V48H61ZM61 48H62V49H61ZM61 49H62V50H61ZM61 50H62V51H61ZM61 51H62V52H61ZM61 52H62V53H61ZM61 53H62V54H61ZM61 54H62V55H61ZM61 55H62V56H61ZM61 56H62V57H61ZM61 57H62V58H61ZM61 58H62V59H61ZM61 59H62V60H61ZM61 60H62V61H61ZM61 61H62V62H61ZM61 62H62V63H61ZM61 63H62V64H61ZM61 64H62V65H61ZM61 65H62V66H61ZM61 66H62V67H61ZM61 67H62V68H61ZM61 68H62V69H61ZM61 69H62V70H61ZM61 70H62V71H61ZM61 71H62V72H61ZM61 72H62V73H61ZM61 73H62V74H61ZM61 74H62V75H61ZM61 75H62V76H61ZM61 76H62V77H61ZM61 77H62V78H61ZM61 78H62V79H61ZM61 79H62V80H61ZM61 80H62V81H61ZM61 81H62V82H61ZM61 82H62V83H61ZM61 83H62V84H61ZM61 84H62V85H61ZM61 85H62V86H61ZM61 86H62V87H61ZM61 87H62V88H61ZM61 88H62V89H61ZM61 89H62V90H61ZM61 90H62V91H61ZM61 91H62V92H61ZM61 92H62V93H61ZM61 93H62V94H61ZM61 94H62V95H61ZM61 95H62V96H61ZM61 96H62V97H61ZM61 97H62V98H61ZM61 98H62V99H61ZM61 99H62V100H61ZM61 100H62V101H61ZM61 101H62V102H61ZM61 102H62V103H61ZM61 103H62V104H61ZM61 104H62V105H61ZM61 105H62V106H61ZM61 106H62V107H61ZM61 107H62V108H61ZM61 108H62V109H61ZM61 109H62V110H61ZM61 110H62V111H61ZM61 111H62V112H61ZM61 112H62V113H61ZM61 113H62V114H61ZM61 114H62V115H61ZM61 115H62V116H61ZM61 116H62V117H61ZM61 117H62V118H61ZM61 118H62V119H61ZM61 119H62V120H61ZM61 120H62V121H61ZM61 121H62V122H61ZM61 122H62V123H61ZM61 123H62V124H61ZM61 124H62V125H61ZM61 125H62V126H61ZM61 126H62V127H61ZM61 127H62V128H61ZM61 128H62V129H61ZM61 129H62V130H61ZM61 130H62V131H61ZM61 131H62V132H61ZM61 132H62V133H61ZM61 133H62V134H61ZM61 134H62V135H61ZM61 135H62V136H61ZM61 136H62V137H61ZM61 137H62V138H61ZM61 138H62V139H61ZM61 139H62V140H61ZM61 140H62V141H61ZM61 141H62V142H61ZM61 142H62V143H61ZM61 143H62V144H61ZM61 144H62V145H61ZM61 145H62V146H61ZM61 146H62V147H61ZM61 147H62V148H61ZM61 148H62V149H61ZM61 149H62V150H61ZM61 150H62V151H61ZM61 151H62V152H61ZM61 152H62V153H61ZM61 153H62V154H61ZM61 154H62V155H61ZM61 155H62V156H61ZM61 156H62V157H61ZM61 157H62V158H61ZM61 158H62V159H61ZM61 159H62V160H61ZM61 160H62V161H61ZM61 161H62V162H61ZM61 162H62V163H61ZM61 163H62V164H61ZM61 164H62V165H61ZM61 165H62V166H61ZM61 166H62V167H61ZM61 167H62V168H61ZM61 168H62V169H61ZM61 169H62V170H61ZM61 170H62V171H61ZM61 171H62V172H61ZM61 172H62V173H61ZM61 173H62V174H61ZM61 174H62V175H61ZM61 175H62V176H61ZM61 176H62V177H61ZM61 177H62V178H61ZM61 178H62V179H61ZM61 179H62V180H61ZM61 180H62V181H61ZM61 181H62V182H61ZM61 182H62V183H61ZM61 183H62V184H61ZM61 184H62V185H61ZM61 185H62V186H61ZM61 186H62V187H61ZM61 187H62V188H61ZM61 188H62V189H61ZM61 189H62V190H61ZM61 191H62V192H61ZM61 195H62V196H61Z"/><path fill="#304048" fill-opacity="1.000" d="M16 17H17V18H16ZM58 21H59V22H58ZM61 25H62V26H61ZM61 29H62V30H61ZM40 195H44V196H40ZM52 195H54V196H52ZM56 195H57V196H56ZM54 196H55V197H54Z"/><path fill="#304050" fill-opacity="1.000" d="M55 196H56V197H55Z"/><path fill="#304848" fill-opacity="1.000" d="M61 192H62V193H61Z"/><path fill="#304850" fill-opacity="1.000" d="M62 203H63V204H62Z"/><path fill="#305058" fill-opacity="1.000" d="M142 17H144V18H142Z"/><path fill="#306870" fill-opacity="1.000" d="M0 201H32V202H0Z"/><path fill="#307070" fill-opacity="1.000" d="M32 201H33V202H32Z"/><path fill="#307880" fill-opacity="1.000" d="M41 198H42V199H41ZM46 198H48V199H46ZM60 202H61V203H60Z"/><path fill="#308078" fill-opacity="1.000" d="M50 198H54V199H50Z"/><path fill="#308080" fill-opacity="1.000" d="M54 198H57V199H54Z"/><path fill="#384048" fill-opacity="1.000" d="M61 190H62V191H61Z"/><path fill="#384848" fill-opacity="1.000" d="M61 27H62V28H61Z"/><path fill="#387878" fill-opacity="1.000" d="M39 198H41V199H39Z"/><path fill="#387880" fill-opacity="1.000" d="M42 198H46V199H42ZM48 198H50V199H48Z"/><path fill="#388080" fill-opacity="1.000" d="M60 200H61V201H60ZM60 201H61V202H60Z"/><path fill="#405050" fill-opacity="1.000" d="M61 196H62V197H61Z"/><path fill="#407078" fill-opacity="1.000" d="M38 198H39V199H38Z"/><path fill="#408080" fill-opacity="1.000" d="M60 199H61V200H60Z"/><path fill="#408888" fill-opacity="1.000" d="M57 198H59V199H57Z"/><path fill="#485860" fill-opacity="1.000" d="M59 22H60V23H59Z"/><path fill="#486068" fill-opacity="1.000" d="M33 194H35V195H33Z"/><path fill="#489098" fill-opacity="1.000" d="M60 203H61V204H60Z"/><path fill="#489898" fill-opacity="1.000" d="M60 204H61V205H60ZM60 205H61V206H60ZM60 206H61V207H60ZM60 207H61V208H60ZM60 208H61V209H60ZM60 209H61V210H60ZM60 210H61V211H60ZM60 211H61V212H60ZM60 212H61V213H60ZM60 213H61V214H60ZM60 214H61V215H60ZM60 215H61V216H60ZM60 216H61V217H60ZM60 217H61V218H60ZM60 218H61V219H60ZM60 219H61V220H60ZM60 220H61V221H60ZM60 221H61V222H60ZM60 222H61V223H60ZM60 223H61V224H60ZM60 224H61V225H60ZM60 225H61V226H60ZM60 226H61V227H60ZM60 227H61V228H60ZM60 228H61V229H60ZM60 229H61V230H60ZM60 230H61V231H60ZM60 231H61V232H60ZM60 232H61V233H60ZM60 233H61V234H60ZM60 234H61V235H60ZM60 235H61V236H60ZM60 236H61V237H60ZM60 237H61V238H60ZM60 238H61V239H60ZM60 239H61V240H60ZM60 240H61V241H60ZM60 241H61V242H60ZM60 242H61V243H60ZM60 243H61V244H60ZM60 244H61V245H60ZM60 245H61V246H60ZM60 246H61V247H60ZM60 247H61V248H60ZM60 248H61V249H60ZM60 249H61V250H60Z"/><path fill="#506068" fill-opacity="1.000" d="M0 194H33V195H0ZM35 194H53V195H35ZM57 194H58V195H57Z"/><path fill="#506870" fill-opacity="1.000" d="M58 194H59V195H58Z"/><path fill="#509090" fill-opacity="1.000" d="M59 198H60V199H59Z"/><path fill="#586068" fill-opacity="1.000" d="M53 194H57V195H53Z"/><path fill="#687880" fill-opacity="1.000" d="M0 17H16V18H0Z"/><path fill="#708088" fill-opacity="1.000" d="M54 18H55V19H54ZM59 27H60V28H59ZM59 28H60V29H59Z"/><path fill="#708890" fill-opacity="1.000" d="M59 30H60V31H59ZM59 31H60V32H59ZM59 32H60V33H59ZM59 33H60V34H59ZM59 34H60V35H59ZM59 35H60V36H59ZM59 36H60V37H59ZM59 37H60V38H59ZM59 38H60V39H59ZM59 39H60V40H59ZM59 40H60V41H59ZM59 41H60V42H59ZM59 42H60V43H59ZM59 43H60V44H59ZM59 44H60V45H59ZM59 45H60V46H59ZM59 46H60V47H59ZM59 47H60V48H59ZM59 48H60V49H59ZM59 49H60V50H59ZM59 50H60V51H59ZM59 51H60V52H59ZM59 52H60V53H59ZM59 53H60V54H59ZM59 54H60V55H59ZM59 55H60V56H59ZM59 56H60V57H59ZM59 57H60V58H59ZM59 58H60V59H59ZM59 59H60V60H59ZM59 60H60V61H59ZM59 61H60V62H59ZM59 62H60V63H59ZM59 63H60V64H59ZM59 64H60V65H59ZM59 65H60V66H59ZM59 66H60V67H59ZM59 67H60V68H59ZM59 68H60V69H59ZM59 69H60V70H59ZM59 70H60V71H59ZM59 71H60V72H59ZM59 72H60V73H59ZM59 73H60V74H59ZM59 74H60V75H59ZM59 75H60V76H59ZM59 76H60V77H59ZM59 77H60V78H59ZM59 78H60V79H59ZM59 79H60V80H59ZM59 80H60V81H59ZM59 81H60V82H59ZM59 82H60V83H59ZM59 83H60V84H59ZM59 84H60V85H59ZM59 85H60V86H59ZM59 86H60V87H59ZM59 87H60V88H59ZM59 88H60V89H59ZM59 89H60V90H59ZM59 90H60V91H59ZM59 91H60V92H59ZM59 92H60V93H59ZM59 93H60V94H59ZM59 94H60V95H59ZM59 95H60V96H59ZM59 96H60V97H59ZM59 97H60V98H59ZM59 98H60V99H59ZM59 99H60V100H59ZM59 100H60V101H59ZM59 101H60V102H59ZM59 102H60V103H59ZM59 103H60V104H59ZM59 104H60V105H59ZM59 105H60V106H59ZM59 106H60V107H59ZM59 107H60V108H59ZM59 108H60V109H59ZM59 109H60V110H59ZM59 110H60V111H59ZM59 111H60V112H59ZM59 112H60V113H59ZM59 113H60V114H59ZM59 114H60V115H59ZM59 115H60V116H59ZM59 116H60V117H59ZM59 117H60V118H59ZM59 118H60V119H59ZM59 119H60V120H59ZM59 120H60V121H59ZM59 121H60V122H59ZM59 122H60V123H59ZM59 123H60V124H59ZM59 124H60V125H59ZM59 125H60V126H59ZM59 126H60V127H59ZM59 127H60V128H59ZM59 128H60V129H59ZM59 129H60V130H59ZM59 130H60V131H59ZM59 131H60V132H59ZM59 132H60V133H59ZM59 133H60V134H59ZM59 134H60V135H59ZM59 135H60V136H59ZM59 136H60V137H59ZM59 137H60V138H59ZM59 138H60V139H59ZM59 139H60V140H59ZM59 140H60V141H59ZM59 141H60V142H59ZM59 142H60V143H59ZM59 143H60V144H59ZM59 144H60V145H59ZM59 145H60V146H59ZM59 146H60V147H59ZM59 147H60V148H59ZM59 148H60V149H59ZM59 149H60V150H59ZM59 150H60V151H59ZM59 151H60V152H59ZM59 152H60V153H59ZM59 153H60V154H59ZM59 154H60V155H59ZM59 155H60V156H59ZM59 156H60V157H59ZM59 157H60V158H59ZM59 158H60V159H59ZM59 159H60V160H59ZM59 160H60V161H59ZM59 161H60V162H59ZM59 162H60V163H59ZM59 163H60V164H59ZM59 164H60V165H59ZM59 165H60V166H59ZM59 166H60V167H59ZM59 167H60V168H59ZM59 168H60V169H59ZM59 169H60V170H59ZM59 170H60V171H59ZM59 171H60V172H59ZM59 172H60V173H59ZM59 173H60V174H59ZM59 174H60V175H59ZM59 175H60V176H59ZM59 176H60V177H59ZM59 177H60V178H59ZM59 178H60V179H59ZM59 179H60V180H59ZM59 180H60V181H59ZM59 181H60V182H59ZM59 182H60V183H59ZM59 183H60V184H59ZM59 184H60V185H59ZM59 185H60V186H59ZM59 186H60V187H59ZM59 187H60V188H59ZM59 188H60V189H59ZM59 189H60V190H59ZM59 191H60V192H59ZM59 192H60V193H59Z"/><path fill="#709090" fill-opacity="1.000" d="M59 193H60V194H59Z"/><path fill="#70c8c8" fill-opacity="1.000" d="M35 201H36V202H35Z"/><path fill="#788088" fill-opacity="1.000" d="M58 22H59V23H58Z"/><path fill="#788090" fill-opacity="1.000" d="M52 18H53V19H52Z"/><path fill="#788890" fill-opacity="1.000" d="M18 18H19V19H18ZM20 18H23V19H20ZM24 18H51V19H24ZM59 25H60V26H59ZM59 26H60V27H59ZM59 29H60V30H59Z"/><path fill="#789098" fill-opacity="1.000" d="M59 190H60V191H59Z"/><path fill="#78f0f0" fill-opacity="1.000" d="M39 201H40V202H39ZM38 203H39V204H38Z"/><path fill="#78f8f0" fill-opacity="1.000" d="M39 202H40V203H39Z"/><path fill="#78f8f8" fill-opacity="1.000" d="M41 201H42V202H41Z"/><path fill="#808890" fill-opacity="1.000" d="M23 18H24V19H23ZM53 18H54V19H53ZM59 24H60V25H59Z"/><path fill="#809090" fill-opacity="1.000" d="M19 18H20V19H19Z"/><path fill="#80e8e0" fill-opacity="1.000" d="M37 201H38V202H37Z"/><path fill="#80f0f0" fill-opacity="1.000" d="M40 200H42V201H40ZM55 200H57V201H55ZM51 201H53V202H51ZM57 201H59V202H57ZM0 203H33V204H0ZM34 203H37V204H34ZM58 204H59V205H58ZM34 205H35V206H34ZM58 206H59V207H58ZM58 207H59V208H58ZM58 208H59V209H58ZM58 209H59V210H58ZM58 210H59V211H58ZM58 211H59V212H58ZM58 212H59V213H58ZM58 213H59V214H58ZM58 214H59V215H58ZM58 215H59V216H58ZM58 216H59V217H58ZM58 217H59V218H58ZM58 218H59V219H58ZM58 219H59V220H58ZM58 220H59V221H58ZM58 221H59V222H58ZM58 222H59V223H58ZM58 223H59V224H58ZM58 224H59V225H58ZM58 225H59V226H58ZM58 226H59V227H58ZM58 227H59V228H58ZM58 228H59V229H58ZM58 229H59V230H58ZM58 230H59V231H58ZM58 231H59V232H58ZM58 232H59V233H58ZM58 233H59V234H58ZM58 234H59V235H58ZM58 235H59V236H58ZM58 236H59V237H58ZM58 237H59V238H58ZM58 238H59V239H58ZM58 239H59V240H58ZM58 240H59V241H58ZM58 241H59V242H58ZM58 242H59V243H58ZM58 243H59V244H58ZM58 244H59V245H58ZM58 245H59V246H58ZM58 246H59V247H58ZM58 247H59V248H58ZM58 248H59V249H58ZM58 249H59V250H58Z"/><path fill="#80f0f8" fill-opacity="1.000" d="M42 200H44V201H42ZM45 201H48V202H45ZM57 202H58V203H57ZM42 203H45V204H42ZM51 203H56V204H51ZM57 203H58V204H57ZM0 204H32V205H0ZM34 204H36V205H34ZM37 204H38V205H37ZM39 204H40V205H39ZM57 204H58V205H57ZM33 205H34V206H33ZM38 205H39V206H38ZM56 205H59V206H56ZM56 206H57V207H56Z"/><path fill="#80f8f0" fill-opacity="1.000" d="M40 201H41V202H40ZM53 201H56V202H53ZM37 202H38V203H37Z"/><path fill="#80f8f8" fill-opacity="1.000" d="M42 201H45V202H42ZM56 201H57V202H56ZM38 202H39V203H38ZM40 202H43V203H40ZM53 202H57V203H53ZM37 203H38V204H37ZM40 203H42V204H40ZM56 204H57V205H56ZM48 205H53V206H48ZM52 206H54V207H52ZM57 206H58V207H57ZM52 207H54V208H52ZM57 207H58V208H57ZM52 208H54V209H52ZM57 208H58V209H57ZM52 209H54V210H52ZM57 209H58V210H57ZM52 210H54V211H52ZM57 210H58V211H57ZM52 211H54V212H52ZM57 211H58V212H57ZM52 212H54V213H52ZM57 212H58V213H57ZM52 213H54V214H52ZM57 213H58V214H57ZM52 214H54V215H52ZM57 214H58V215H57ZM52 215H54V216H52ZM57 215H58V216H57ZM52 216H54V217H52ZM57 216H58V217H57ZM52 217H54V218H52ZM57 217H58V218H57ZM52 218H54V219H52ZM57 218H58V219H57ZM52 219H54V220H52ZM57 219H58V220H57ZM52 220H54V221H52ZM57 220H58V221H57ZM52 221H54V222H52ZM57 221H58V222H57ZM52 222H54V223H52ZM57 222H58V223H57ZM52 223H54V224H52ZM57 223H58V224H57ZM52 224H54V225H52ZM57 224H58V225H57ZM52 225H54V226H52ZM57 225H58V226H57ZM52 226H54V227H52ZM57 226H58V227H57ZM52 227H54V228H52ZM57 227H58V228H57ZM52 228H54V229H52ZM57 228H58V229H57ZM52 229H54V230H52ZM57 229H58V230H57ZM52 230H54V231H52ZM57 230H58V231H57ZM52 231H54V232H52ZM57 231H58V232H57ZM52 232H54V233H52ZM57 232H58V233H57ZM52 233H54V234H52ZM57 233H58V234H57ZM52 234H54V235H52ZM57 234H58V235H57ZM52 235H54V236H52ZM57 235H58V236H57ZM52 236H54V237H52ZM57 236H58V237H57ZM52 237H54V238H52ZM57 237H58V238H57ZM52 238H54V239H52ZM57 238H58V239H57ZM52 239H54V240H52ZM57 239H58V240H57ZM52 240H54V241H52ZM57 240H58V241H57ZM52 241H54V242H52ZM57 241H58V242H57ZM52 242H54V243H52ZM57 242H58V243H57ZM52 243H54V244H52ZM57 243H58V244H57ZM52 244H54V245H52ZM57 244H58V245H57ZM52 245H54V246H52ZM57 245H58V246H57ZM52 246H54V247H52ZM57 246H58V247H57ZM52 247H54V248H52ZM57 247H58V248H57ZM52 248H54V249H52ZM57 248H58V249H57ZM52 249H54V250H52ZM57 249H58V250H57Z"/><path fill="#80f8ff" fill-opacity="1.000" d="M43 202H44V203H43ZM39 203H40V204H39ZM36 204H37V205H36Z"/><path fill="#889098" fill-opacity="1.000" d="M55 19H56V20H55Z"/><path fill="#8890a0" fill-opacity="1.000" d="M57 21H58V22H57Z"/><path fill="#8898a0" fill-opacity="1.000" d="M17 18H18V19H17ZM51 18H52V19H51Z"/><path fill="#88e8e8" fill-opacity="1.000" d="M38 200H39V201H38Z"/><path fill="#88f0e8" fill-opacity="1.000" d="M56 199H57V200H56ZM34 202H35V203H34Z"/><path fill="#88f0f0" fill-opacity="1.000" d="M47 200H48V201H47ZM50 200H55V201H50ZM57 200H59V201H57ZM48 201H51V202H48ZM58 202H59V203H58ZM45 204H47V205H45Z"/><path fill="#88f0f8" fill-opacity="1.000" d="M44 200H47V201H44ZM47 202H51V203H47ZM45 203H51V204H45ZM40 204H45V205H40ZM0 205H1V206H0ZM2 205H3V206H2ZM4 205H5V206H4ZM6 205H7V206H6ZM8 205H9V206H8ZM10 205H11V206H10ZM12 205H13V206H12ZM14 205H15V206H14ZM16 205H17V206H16ZM18 205H19V206H18ZM20 205H21V206H20ZM22 205H23V206H22ZM24 205H25V206H24ZM26 205H27V206H26ZM28 205H29V206H28ZM30 205H31V206H30ZM37 205H38V206H37ZM41 205H45V206H41ZM54 205H56V206H54ZM0 206H33V207H0ZM37 206H45V207H37ZM50 206H52V207H50ZM54 206H56V207H54ZM0 207H48V208H0ZM49 207H52V208H49ZM54 207H57V208H54ZM0 208H48V209H0ZM49 208H52V209H49ZM54 208H57V209H54ZM0 209H48V210H0ZM49 209H52V210H49ZM54 209H57V210H54ZM0 210H48V211H0ZM49 210H52V211H49ZM54 210H57V211H54ZM0 211H48V212H0ZM49 211H52V212H49ZM54 211H57V212H54ZM0 212H48V213H0ZM49 212H52V213H49ZM54 212H57V213H54ZM0 213H48V214H0ZM49 213H52V214H49ZM54 213H57V214H54ZM0 214H48V215H0ZM49 214H52V215H49ZM54 214H57V215H54ZM0 215H48V216H0ZM49 215H52V216H49ZM54 215H57V216H54ZM0 216H48V217H0ZM49 216H52V217H49ZM54 216H57V217H54ZM0 217H48V218H0ZM49 217H52V218H49ZM54 217H57V218H54ZM0 218H48V219H0ZM49 218H52V219H49ZM54 218H57V219H54ZM0 219H48V220H0ZM49 219H52V220H49ZM54 219H57V220H54ZM0 220H48V221H0ZM49 220H52V221H49ZM54 220H57V221H54ZM0 221H48V222H0ZM49 221H52V222H49ZM54 221H57V222H54ZM0 222H48V223H0ZM49 222H52V223H49ZM54 222H57V223H54ZM0 223H48V224H0ZM49 223H52V224H49ZM54 223H57V224H54ZM0 224H48V225H0ZM49 224H52V225H49ZM54 224H57V225H54ZM0 225H48V226H0ZM49 225H52V226H49ZM54 225H57V226H54ZM0 226H48V227H0ZM49 226H52V227H49ZM54 226H57V227H54ZM0 227H48V228H0ZM49 227H52V228H49ZM54 227H57V228H54ZM0 228H48V229H0ZM49 228H52V229H49ZM54 228H57V229H54ZM0 229H48V230H0ZM49 229H52V230H49ZM54 229H57V230H54ZM0 230H48V231H0ZM49 230H52V231H49ZM54 230H57V231H54ZM0 231H48V232H0ZM49 231H52V232H49ZM54 231H57V232H54ZM0 232H48V233H0ZM49 232H52V233H49ZM54 232H57V233H54ZM0 233H48V234H0ZM49 233H52V234H49ZM54 233H57V234H54ZM0 234H48V235H0ZM49 234H52V235H49ZM54 234H57V235H54ZM0 235H48V236H0ZM49 235H52V236H49ZM54 235H57V236H54ZM0 236H48V237H0ZM49 236H52V237H49ZM54 236H57V237H54ZM0 237H48V238H0ZM49 237H52V238H49ZM54 237H57V238H54ZM0 238H48V239H0ZM49 238H52V239H49ZM54 238H57V239H54ZM0 239H48V240H0ZM49 239H52V240H49ZM54 239H57V240H54ZM0 240H48V241H0ZM49 240H52V241H49ZM54 240H57V241H54ZM0 241H48V242H0ZM49 241H52V242H49ZM54 241H57V242H54ZM0 242H48V243H0ZM49 242H52V243H49ZM54 242H57V243H54ZM0 243H48V244H0ZM49 243H52V244H49ZM54 243H57V244H54ZM0 244H48V245H0ZM49 244H52V245H49ZM54 244H57V245H54ZM0 245H48V246H0ZM49 245H52V246H49ZM54 245H57V246H54ZM0 246H48V247H0ZM49 246H52V247H49ZM54 246H57V247H54ZM0 247H48V248H0ZM49 247H52V248H49ZM54 247H57V248H54ZM0 248H48V249H0ZM49 248H52V249H49ZM54 248H57V249H54ZM0 249H48V250H0ZM49 249H52V250H49ZM54 249H57V250H54Z"/><path fill="#88f0ff" fill-opacity="1.000" d="M39 205H41V206H39Z"/><path fill="#88f8f0" fill-opacity="1.000" d="M35 202H36V203H35ZM33 203H34V204H33ZM47 204H48V205H47ZM45 205H47V206H45Z"/><path fill="#88f8f8" fill-opacity="1.000" d="M36 202H37V203H36ZM44 202H47V203H44ZM51 202H53V203H51ZM56 203H57V204H56ZM58 203H59V204H58ZM32 204H34V205H32ZM48 204H54V205H48ZM1 205H2V206H1ZM3 205H4V206H3ZM5 205H6V206H5ZM7 205H8V206H7ZM9 205H10V206H9ZM11 205H12V206H11ZM13 205H14V206H13ZM15 205H16V206H15ZM17 205H18V206H17ZM19 205H20V206H19ZM21 205H22V206H21ZM23 205H24V206H23ZM25 205H26V206H25ZM27 205H28V206H27ZM29 205H30V206H29ZM31 205H33V206H31ZM47 205H48V206H47ZM53 205H54V206H53ZM33 206H37V207H33ZM45 206H50V207H45ZM48 207H49V208H48ZM48 208H49V209H48ZM48 209H49V210H48ZM48 210H49V211H48ZM48 211H49V212H48ZM48 212H49V213H48ZM48 213H49V214H48ZM48 214H49V215H48ZM48 215H49V216H48ZM48 216H49V217H48ZM48 217H49V218H48ZM48 218H49V219H48ZM48 219H49V220H48ZM48 220H49V221H48ZM48 221H49V222H48ZM48 222H49V223H48ZM48 223H49V224H48ZM48 224H49V225H48ZM48 225H49V226H48ZM48 226H49V227H48ZM48 227H49V228H48ZM48 228H49V229H48ZM48 229H49V230H48ZM48 230H49V231H48ZM48 231H49V232H48ZM48 232H49V233H48ZM48 233H49V234H48ZM48 234H49V235H48ZM48 235H49V236H48ZM48 236H49V237H48ZM48 237H49V238H48ZM48 238H49V239H48ZM48 239H49V240H48ZM48 240H49V241H48ZM48 241H49V242H48ZM48 242H49V243H48ZM48 243H49V244H48ZM48 244H49V245H48ZM48 245H49V246H48ZM48 246H49V247H48ZM48 247H49V248H48ZM48 248H49V249H48ZM48 249H49V250H48Z"/><path fill="#88f8ff" fill-opacity="1.000" d="M38 204H39V205H38ZM54 204H56V205H54ZM35 205H37V206H35Z"/><path fill="#90a0a8" fill-opacity="1.000" d="M59 23H60V24H59Z"/><path fill="#90b0b0" fill-opacity="1.000" d="M59 194H60V195H59Z"/><path fill="#90e0d8" fill-opacity="1.000" d="M36 200H37V201H36Z"/><path fill="#90e0e0" fill-opacity="1.000" d="M59 199H60V200H59Z"/><path fill="#90e8e8" fill-opacity="1.000" d="M39 199H40V200H39ZM32 202H33V203H32Z"/><path fill="#90f0e8" fill-opacity="1.000" d="M50 199H53V200H50ZM37 200H38V201H37ZM0 202H32V203H0Z"/><path fill="#90f0f0" fill-opacity="1.000" d="M40 199H48V200H40ZM49 199H50V200H49ZM53 199H56V200H53ZM57 199H59V200H57ZM48 200H50V201H48ZM59 200H60V201H59ZM36 201H37V202H36ZM59 201H60V202H59ZM33 202H34V203H33ZM59 202H60V203H59ZM59 204H60V205H59Z"/><path fill="#90f8f0" fill-opacity="1.000" d="M39 200H40V201H39ZM59 206H60V207H59ZM59 207H60V208H59ZM59 208H60V209H59ZM59 209H60V210H59ZM59 210H60V211H59ZM59 211H60V212H59ZM59 212H60V213H59ZM59 213H60V214H59ZM59 214H60V215H59ZM59 215H60V216H59ZM59 216H60V217H59ZM59 217H60V218H59ZM59 218H60V219H59ZM59 219H60V220H59ZM59 220H60V221H59ZM59 221H60V222H59ZM59 222H60V223H59ZM59 223H60V224H59ZM59 224H60V225H59ZM59 225H60V226H59ZM59 226H60V227H59ZM59 227H60V228H59ZM59 228H60V229H59ZM59 229H60V230H59ZM59 230H60V231H59ZM59 231H60V232H59ZM59 232H60V233H59ZM59 233H60V234H59ZM59 234H60V235H59ZM59 235H60V236H59ZM59 236H60V237H59ZM59 237H60V238H59ZM59 238H60V239H59ZM59 239H60V240H59ZM59 240H60V241H59ZM59 241H60V242H59ZM59 242H60V243H59ZM59 243H60V244H59ZM59 244H60V245H59ZM59 245H60V246H59ZM59 246H60V247H59ZM59 247H60V248H59ZM59 248H60V249H59ZM59 249H60V250H59Z"/><path fill="#90f8f8" fill-opacity="1.000" d="M59 205H60V206H59Z"/><path fill="#90fff8" fill-opacity="1.000" d="M38 201H39V202H38Z"/><path fill="#98a8b0" fill-opacity="1.000" d="M56 20H57V21H56Z"/><path fill="#98e8f0" fill-opacity="1.000" d="M48 199H49V200H48Z"/><path fill="#98f8f8" fill-opacity="1.000" d="M59 203H60V204H59Z"/><path fill="#a0e8e8" fill-opacity="1.000" d="M38 199H39V200H38Z"/><path fill="#a8b8c0" fill-opacity="1.000" d="M0 18H16V19H0Z"/><path fill="#a8e8e8" fill-opacity="1.000" d="M37 199H38V200H37Z"/><path fill="#b0c0c8" fill-opacity="1.000" d="M16 18H17V19H16Z"/></svg>