<svg xmlns="http://www.w3.org/2000/svg" width="390" height="83" viewBox="0 0 390 83" shape-rendering="geometricPrecision"><path fill="#000008" fill-opacity="0.063" d="M43 6H44V7H43ZM20 11H21V12H20ZM254 15H255V16H254ZM269 15H270V16H269ZM118 16H119V17H118ZM184 16H185V17H184ZM186 16H187V17H186ZM255 16H256V17H255ZM282 16H283V17H282ZM122 17H123V18H122ZM171 18H172V19H171ZM182 18H183V19H182ZM185 18H186V19H185ZM122 19H123V20H122ZM305 19H306V20H305ZM96 20H97V21H96ZM159 20H160V21H159ZM190 22H191V23H190ZM169 23H170V24H169ZM180 23H181V24H180ZM213 23H214V24H213ZM96 24H97V25H96ZM148 24H149V25H148ZM177 25H178V26H177ZM201 25H202V26H201ZM169 26H170V27H169ZM257 26H258V27H257ZM157 27H158V28H157ZM160 27H161V28H160ZM162 27H163V28H162ZM178 27H179V28H178ZM201 27H202V28H201ZM97 28H98V29H97ZM145 28H146V29H145ZM177 28H178V29H177ZM191 28H192V29H191ZM181 29H182V30H181ZM202 29H203V30H202ZM129 30H130V31H129ZM285 30H286V31H285ZM123 31H124V32H123ZM303 31H304V32H303ZM124 32H125V33H124ZM12 34H13V35H12ZM119 36H120V37H119ZM305 47H306V48H305ZM92 49H93V50H92ZM306 55H307V56H306ZM20 67H21V68H20ZM83 68H84V69H83ZM88 68H89V69H88Z"/><path fill="#000010" fill-opacity="0.063" d="M242 17H243V18H242ZM168 24H169V25H168ZM200 26H201V27H200ZM190 29H191V30H190ZM197 29H198V30H197ZM322 37H323V38H322ZM84 41H85V42H84ZM87 44H88V45H87ZM93 50H94V51H93ZM24 67H25V68H24Z"/><path fill="#000808" fill-opacity="0.063" d="M182 14H183V15H182ZM319 14H321V15H319ZM126 15H127V16H126ZM150 15H151V16H150ZM329 15H330V16H329ZM124 16H125V17H124ZM151 16H152V17H151ZM182 16H183V17H182ZM119 18H120V19H119ZM121 18H122V19H121ZM160 19H161V20H160ZM162 19H163V20H162ZM177 19H178V20H177ZM184 19H185V20H184ZM98 20H99V21H98ZM151 20H152V21H151ZM97 21H98V22H97ZM108 23H109V24H108ZM172 23H173V24H172ZM208 25H209V26H208ZM314 26H315V27H314ZM287 27H288V28H287ZM155 28H156V29H155ZM304 29H305V30H304ZM119 30H120V31H119ZM87 33H88V34H87ZM48 34H49V35H48ZM335 34H336V35H335ZM13 35H14V36H13ZM334 35H335V36H334ZM12 36H13V37H12ZM306 46H307V47H306ZM304 49H305V50H304ZM306 53H307V54H306ZM306 56H307V57H306ZM298 59H299V60H298ZM90 66H91V67H90ZM87 67H88V68H87ZM85 68H86V69H85Z"/><path fill="#000810" fill-opacity="0.063" d="M44 5H45V6H44ZM44 7H45V8H44ZM21 10H22V11H21ZM43 10H44V11H43ZM50 10H51V11H50ZM88 10H89V11H88ZM90 11H91V12H90ZM92 12H93V13H92ZM93 13H94V14H93ZM315 13H316V14H315ZM127 14H128V15H127ZM226 14H227V15H226ZM267 14H268V15H267ZM271 14H272V15H271ZM314 14H315V15H314ZM316 14H317V15H316ZM128 15H129V16H128ZM185 15H186V16H185ZM223 15H224V16H223ZM268 15H269V16H268ZM270 15H271V16H270ZM279 15H280V16H279ZM300 15H301V16H300ZM95 16H96V17H95ZM117 16H118V17H117ZM127 16H128V17H127ZM183 16H184V17H183ZM221 16H222V17H221ZM302 16H303V17H302ZM315 16H316V17H315ZM119 17H120V18H119ZM137 17H138V18H137ZM148 17H149V18H148ZM185 17H186V18H185ZM266 17H267V18H266ZM333 17H334V18H333ZM129 18H130V19H129ZM136 18H137V19H136ZM138 18H139V19H138ZM147 18H148V19H147ZM149 18H150V19H149ZM241 18H242V19H241ZM97 19H98V20H97ZM130 19H131V20H130ZM181 19H182V20H181ZM218 19H219V20H218ZM234 19H235V20H234ZM256 19H257V20H256ZM285 19H286V20H285ZM287 19H288V20H287ZM178 20H179V21H178ZM217 20H218V21H217ZM240 20H241V21H240ZM284 20H285V21H284ZM286 20H287V21H286ZM172 21H173V22H172ZM192 21H194V22H192ZM198 21H200V22H198ZM208 21H209V22H208ZM210 21H211V22H210ZM216 21H217V22H216ZM107 22H108V23H107ZM135 22H136V23H135ZM154 22H155V23H154ZM168 22H169V23H168ZM179 22H180V23H179ZM201 22H202V23H201ZM206 22H207V23H206ZM212 22H213V23H212ZM257 22H258V23H257ZM106 23H107V24H106ZM118 23H119V24H118ZM126 23H127V24H126ZM149 23H150V24H149ZM177 23H178V24H177ZM200 23H201V24H200ZM202 23H203V24H202ZM107 24H108V25H107ZM115 24H116V25H115ZM117 24H118V25H117ZM119 24H120V25H119ZM125 24H126V25H125ZM131 24H132V25H131ZM137 24H138V25H137ZM170 24H171V25H170ZM172 24H173V25H172ZM176 24H177V25H176ZM178 24H180V25H178ZM187 24H188V25H187ZM190 24H191V25H190ZM199 24H200V25H199ZM118 25H119V26H118ZM162 25H163V26H162ZM169 25H170V26H169ZM171 25H172V26H171ZM203 25H204V26H203ZM213 25H214V26H213ZM125 26H126V27H125ZM130 26H131V27H130ZM161 26H162V27H161ZM170 26H171V27H170ZM213 26H214V27H213ZM96 27H97V28H96ZM170 27H171V28H170ZM187 27H188V28H187ZM189 27H191V28H189ZM196 27H197V28H196ZM212 27H213V28H212ZM234 27H235V28H234ZM314 27H315V28H314ZM142 28H143V29H142ZM161 28H162V29H161ZM166 28H167V29H166ZM169 28H170V29H169ZM176 28H177V29H176ZM180 28H181V29H180ZM183 28H184V29H183ZM186 28H187V29H186ZM196 28H197V29H196ZM204 28H205V29H204ZM218 28H219V29H218ZM256 28H257V29H256ZM12 29H13V30H12ZM95 29H97V30H95ZM130 29H131V30H130ZM144 29H145V30H144ZM146 29H147V30H146ZM195 29H196V30H195ZM200 29H201V30H200ZM286 29H288V30H286ZM315 29H316V30H315ZM145 30H146V31H145ZM188 30H189V31H188ZM196 30H197V31H196ZM201 30H202V31H201ZM266 30H267V31H266ZM287 30H288V31H287ZM117 31H118V32H117ZM282 31H283V32H282ZM288 31H289V32H288ZM222 32H223V33H222ZM244 32H245V33H244ZM252 32H253V33H252ZM268 32H269V33H268ZM281 32H282V33H281ZM16 33H17V34H16ZM250 33H251V34H250ZM301 33H302V34H301ZM50 34H51V35H50ZM85 34H86V35H85ZM119 34H120V35H119ZM249 34H250V35H249ZM49 35H50V36H49ZM118 35H119V36H118ZM323 36H324V37H323ZM83 40H84V41H83ZM14 42H15V43H14ZM86 42H87V43H86ZM88 42H89V43H88ZM13 43H14V44H13ZM15 43H16V44H15ZM17 43H18V44H17ZM87 43H88V44H87ZM14 44H15V45H14ZM305 45H306V46H305ZM304 46H305V47H304ZM299 49H300V50H299ZM298 50H299V51H298ZM103 56H104V57H103ZM102 57H103V58H102ZM103 58H104V59H103ZM299 60H300V61H299ZM304 60H305V61H304ZM95 62H96V63H95ZM92 65H93V66H92ZM19 66H20V67H19ZM23 67H24V68H23ZM65 67H66V68H65ZM84 67H85V68H84ZM89 67H90V68H89ZM22 68H23V69H22ZM84 69H85V70H84Z"/><path fill="#000818" fill-opacity="0.063" d="M315 15H316V16H315Z"/><path fill="#001010" fill-opacity="0.063" d="M24 10H25V11H24ZM44 10H45V11H44ZM183 15H184V16H183ZM251 15H252V16H251ZM266 15H267V16H266ZM274 15H275V16H274ZM281 15H282V16H281ZM149 16H150V17H149ZM230 16H231V17H230ZM233 17H234V18H233ZM234 18H235V19H234ZM150 19H151V20H150ZM12 20H13V21H12ZM163 20H164V21H163ZM173 20H174V21H173ZM235 20H236V21H235ZM155 21H156V22H155ZM164 21H165V22H164ZM131 22H132V23H131ZM110 23H111V24H110ZM166 23H167V24H166ZM178 23H179V24H178ZM201 24H202V25H201ZM204 24H205V25H204ZM111 25H112V26H111ZM194 26H195V27H194ZM118 27H119V28H118ZM240 27H241V28H240ZM123 29H124V30H123ZM229 32H230V33H229ZM11 35H12V36H11ZM297 51H298V52H297ZM105 58H106V59H105ZM13 60H14V61H13Z"/><path fill="#001018" fill-opacity="0.063" d="M47 10H48V11H47ZM245 15H246V16H245ZM288 17H289V18H288ZM187 23H188V24H187ZM189 23H190V24H189ZM161 24H162V25H161ZM287 24H288V25H287ZM217 26H218V27H217ZM287 26H288V27H287ZM143 28H144V29H143ZM119 29H120V30H119ZM241 29H242V30H241ZM248 33H249V34H248ZM106 51H107V52H106ZM104 53H105V54H104Z"/><path fill="#080810" fill-opacity="0.063" d="M45 6H46V7H45ZM170 19H171V20H170ZM181 20H182V21H181ZM314 23H315V24H314ZM153 26H154V27H153ZM153 27H154V28H153ZM201 28H202V29H201ZM84 39H85V40H84ZM87 41H88V42H87ZM92 47H93V48H92ZM91 48H92V49H91ZM93 48H94V49H93ZM305 50H306V51H305ZM95 52H96V53H95Z"/><path fill="#080818" fill-opacity="0.063" d="M285 21H286V22H285ZM287 21H288V22H287Z"/><path fill="#081008" fill-opacity="0.063" d="M333 18H334V19H333ZM334 19H335V20H334Z"/><path fill="#081010" fill-opacity="0.063" d="M325 14H326V15H325ZM181 15H182V16H181ZM332 16H333V17H332ZM182 17H183V18H182ZM335 21H336V22H335ZM154 28H155V29H154ZM286 31H287V32H286ZM319 34H320V35H319ZM120 35H121V36H120ZM305 59H306V60H305ZM21 67H22V68H21Z"/><path fill="#081018" fill-opacity="0.063" d="M228 15H229V16H228ZM125 16H126V17H125ZM289 16H290V17H289ZM150 17H151V18H150ZM176 19H177V20H176ZM135 20H136V21H135ZM200 22H201V23H200ZM167 23H168V24H167ZM167 28H168V29H167ZM118 31H119V32H118ZM289 32H290V33H289ZM85 40H86V41H85ZM12 48H13V49H12ZM12 59H13V60H12Z"/><path fill="#100810" fill-opacity="0.063" d="M239 23H240V24H239Z"/><path fill="#000008" fill-opacity="0.125" d="M123 17H124V18H123ZM183 18H184V19H183ZM137 19H138V20H137ZM172 19H173V20H172ZM171 20H172V21H171ZM156 22H157V23H156ZM12 24H13V25H12ZM211 26H212V27H211ZM181 27H182V28H181ZM203 27H204V28H203ZM94 28H95V29H94ZM125 31H126V32H125ZM321 36H322V37H321ZM12 58H13V59H12Z"/><path fill="#000010" fill-opacity="0.125" d="M316 15H317V16H316ZM240 25H241V26H240ZM187 29H188V30H187ZM189 29H190V30H189Z"/><path fill="#000800" fill-opacity="0.125" d="M335 23H336V24H335ZM335 24H336V25H335ZM335 25H336V26H335ZM335 26H336V27H335ZM327 35H331V36H327Z"/><path fill="#000808" fill-opacity="0.125" d="M250 15H251V16H250ZM322 15H323V16H322ZM328 15H329V16H328ZM315 17H316V18H315ZM315 21H316V22H315ZM335 22H336V23H335ZM302 32H303V33H302ZM43 33H44V34H43ZM323 35H325V36H323ZM326 35H327V36H326ZM333 35H334V36H333ZM12 49H13V50H12ZM303 49H304V50H303ZM12 52H13V53H12ZM302 60H303V61H302ZM85 66H86V67H85Z"/><path fill="#000810" fill-opacity="0.125" d="M224 15H225V16H224ZM247 15H248V16H247ZM249 15H250V16H249ZM275 15H279V16H275ZM317 15H318V16H317ZM95 17H96V18H95ZM184 17H185V18H184ZM95 18H96V19H95ZM266 18H267V19H266ZM282 18H283V19H282ZM95 19H96V20H95ZM148 19H149V20H148ZM266 19H267V20H266ZM256 20H257V21H256ZM266 20H267V21H266ZM282 20H283V21H282ZM12 21H13V22H12ZM95 21H96V22H95ZM177 21H178V22H177ZM209 21H210V22H209ZM234 21H235V22H234ZM240 21H241V22H240ZM266 21H267V22H266ZM282 21H283V22H282ZM304 21H305V22H304ZM157 22H158V23H157ZM234 22H235V23H234ZM266 22H267V23H266ZM282 22H283V23H282ZM287 22H288V23H287ZM304 22H305V23H304ZM131 23H132V24H131ZM217 23H218V24H217ZM234 23H235V24H234ZM257 23H258V24H257ZM266 23H267V24H266ZM282 23H283V24H282ZM304 23H305V24H304ZM217 24H218V25H217ZM234 24H235V25H234ZM204 25H205V26H204ZM217 25H218V26H217ZM12 26H13V27H12ZM95 26H96V27H95ZM182 26H183V27H182ZM197 26H198V27H197ZM202 26H203V27H202ZM234 26H235V27H234ZM304 26H305V27H304ZM12 27H13V28H12ZM95 27H96V28H95ZM168 27H169V28H168ZM205 27H206V28H205ZM12 28H13V29H12ZM266 29H267V30H266ZM123 30H124V31H123ZM225 32H226V33H225ZM227 32H228V33H227ZM245 32H246V33H245ZM248 32H249V33H248ZM269 32H274V33H269ZM276 32H278V33H276ZM280 32H281V33H280ZM290 32H292V33H290ZM299 32H300V33H299ZM18 33H19V34H18ZM26 33H43V34H26ZM46 33H47V34H46ZM48 33H49V34H48ZM50 33H84V34H50ZM19 43H85V44H19ZM86 43H87V44H86ZM302 49H303V50H302ZM12 51H13V52H12ZM12 53H13V54H12ZM95 53H96V54H95ZM12 54H13V55H12ZM95 54H96V55H95ZM12 55H13V56H12ZM95 56H96V57H95ZM95 57H96V58H95ZM104 57H105V58H104ZM95 58H96V59H95ZM300 60H302V61H300ZM303 60H304V61H303ZM19 65H20V66H19ZM26 66H58V67H26ZM60 66H61V67H60ZM62 66H63V67H62ZM70 66H73V67H70ZM74 66H85V67H74ZM87 66H88V67H87Z"/><path fill="#000818" fill-opacity="0.125" d="M287 23H288V24H287ZM282 24H283V25H282ZM25 33H26V34H25ZM95 59H96V60H95ZM95 60H96V61H95ZM95 61H96V62H95ZM67 66H70V67H67Z"/><path fill="#001010" fill-opacity="0.125" d="M86 11H87V12H86ZM272 15H273V16H272ZM282 17H283V18H282ZM123 18H124V19H123ZM304 18H305V19H304ZM161 19H162V20H161ZM95 20H96V21H95ZM135 21H136V22H135ZM150 21H151V22H150ZM95 22H96V23H95ZM211 22H212V23H211ZM191 23H192V24H191ZM266 24H267V25H266ZM266 25H267V26H266ZM282 25H283V26H282ZM304 25H305V26H304ZM168 26H169V27H168ZM266 26H267V27H266ZM282 26H283V27H282ZM266 27H267V28H266ZM282 27H283V28H282ZM304 27H305V28H304ZM266 28H267V29H266ZM282 28H283V29H282ZM304 28H305V29H304ZM282 29H283V30H282ZM224 32H225V33H224ZM228 32H229V33H228ZM250 32H251V33H250ZM292 32H295V33H292ZM298 32H299V33H298ZM17 33H18V34H17ZM19 33H25V34H19ZM44 33H45V34H44ZM12 50H13V51H12ZM107 51H297V52H107ZM298 51H299V52H298ZM12 56H13V57H12ZM106 58H298V59H106Z"/><path fill="#001018" fill-opacity="0.125" d="M26 11H42V12H26ZM52 11H53V12H52ZM246 15H247V16H246ZM293 16H299V17H293ZM282 19H283V20H282ZM111 22H112V23H111ZM304 24H305V25H304ZM234 25H235V26H234ZM206 26H207V27H206ZM282 30H283V31H282ZM223 32H224V33H223ZM246 32H248V33H246ZM274 32H276V33H274ZM278 32H280V33H278ZM295 32H298V33H295ZM45 33H46V34H45ZM104 54H105V55H104ZM104 55H105V56H104ZM104 56H105V57H104Z"/><path fill="#080800" fill-opacity="0.125" d="M335 27H336V28H335ZM335 30H336V31H335ZM331 35H332V36H331Z"/><path fill="#080808" fill-opacity="0.125" d="M335 28H336V29H335ZM335 29H336V30H335ZM335 33H336V34H335ZM325 35H326V36H325Z"/><path fill="#080810" fill-opacity="0.125" d="M315 18H316V19H315ZM315 19H316V20H315ZM315 20H316V21H315ZM257 24H258V25H257ZM257 25H258V26H257ZM95 55H96V56H95ZM58 66H60V67H58ZM73 66H74V67H73Z"/><path fill="#081008" fill-opacity="0.125" d="M335 31H336V32H335ZM335 32H336V33H335ZM332 35H333V36H332Z"/><path fill="#081010" fill-opacity="0.125" d="M323 15H324V16H323ZM327 15H328V16H327ZM12 22H13V23H12ZM12 25H13V26H12ZM240 26H241V27H240ZM182 28H183V29H182ZM320 35H321V36H320ZM300 49H302V50H300ZM305 51H306V52H305ZM305 58H306V59H305ZM86 66H87V67H86ZM89 66H90V67H89Z"/><path fill="#081018" fill-opacity="0.125" d="M53 11H86V12H53ZM248 15H249V16H248ZM290 16H293V17H290ZM136 19H137V20H136ZM149 19H150V20H149ZM191 22H192V23H191ZM12 23H13V24H12ZM226 32H227V33H226ZM251 32H252V33H251ZM47 33H48V34H47ZM18 43H19V44H18ZM85 43H86V44H85ZM12 57H13V58H12ZM61 66H62V67H61ZM63 66H64V67H63Z"/><path fill="#000008" fill-opacity="0.188" d="M174 21H175V22H174ZM95 23H96V24H95ZM205 23H206V24H205ZM141 27H142V28H141ZM188 28H189V29H188ZM22 66H23V67H22Z"/><path fill="#000010" fill-opacity="0.188" d="M244 16H245V17H244ZM113 20H114V21H113ZM117 26H118V27H117ZM90 30H91V31H90ZM243 31H244V32H243ZM267 31H268V32H267ZM94 51H95V52H94ZM64 66H65V67H64Z"/><path fill="#000800" fill-opacity="0.188" d="M318 15H319V16H318ZM321 15H322V16H321ZM316 30H317V31H316ZM318 32H319V33H318Z"/><path fill="#000808" fill-opacity="0.188" d="M17 15H18V16H17ZM267 16H268V17H267ZM126 17H127V18H126ZM334 20H335V21H334ZM112 21H113V22H112ZM315 28H316V29H315ZM253 31H254V32H253ZM305 52H306V53H305ZM305 57H306V58H305ZM93 64H94V65H93ZM88 66H89V67H88Z"/><path fill="#000810" fill-opacity="0.188" d="M23 11H24V12H23ZM93 14H94V15H93ZM94 15H95V16H94ZM225 15H226V16H225ZM227 15H228V16H227ZM252 16H253V17H252ZM301 16H302V17H301ZM116 17H117V18H116ZM220 17H221V18H220ZM243 17H244V18H243ZM303 17H304V18H303ZM14 18H15V19H14ZM127 18H128V19H127ZM255 18H256V19H255ZM13 19H14V20H13ZM114 19H115V20H114ZM183 19H184V20H183ZM233 19H234V20H233ZM117 20H118V21H117ZM125 20H126V21H125ZM138 20H139V21H138ZM147 20H148V21H147ZM175 20H176V21H175ZM184 20H185V21H184ZM304 20H305V21H304ZM116 21H117V22H116ZM126 21H127V22H126ZM139 21H140V22H139ZM146 21H147V22H146ZM182 21H183V22H182ZM115 22H116V23H115ZM140 22H141V23H140ZM145 22H146V23H145ZM173 22H174V23H173ZM176 22H177V23H176ZM197 22H198V23H197ZM217 22H218V23H217ZM240 22H241V23H240ZM136 23H137V24H136ZM144 23H145V24H144ZM155 23H156V24H155ZM184 23H185V24H184ZM195 23H197V24H195ZM111 24H112V25H111ZM155 24H156V25H155ZM160 24H161V25H160ZM95 25H96V26H95ZM116 25H117V26H116ZM139 25H140V26H139ZM146 25H147V26H146ZM159 25H160V26H159ZM173 25H174V26H173ZM183 25H184V26H183ZM186 25H187V26H186ZM112 26H113V27H112ZM145 26H146V27H145ZM174 26H175V27H174ZM195 26H196V27H195ZM125 27H126V28H125ZM144 27H145V28H144ZM256 27H257V28H256ZM114 28H115V29H114ZM129 28H130V29H129ZM91 29H92V30H91ZM127 29H129V30H127ZM232 29H233V30H232ZM255 29H256V30H255ZM116 30H117V31H116ZM126 30H127V31H126ZM242 30H243V31H242ZM14 31H15V32H14ZM89 31H90V32H89ZM221 31H222V32H221ZM15 32H16V33H15ZM88 32H89V33H88ZM300 32H301V33H300ZM49 33H50V34H49ZM15 45H16V46H15ZM14 46H15V47H14ZM13 47H14V48H13ZM89 47H90V48H89ZM90 48H91V49H90ZM91 49H92V50H91ZM105 52H106V53H105ZM14 60H15V61H14ZM15 61H16V62H15ZM16 62H17V63H16ZM94 63H95V64H94ZM18 64H19V65H18ZM21 66H22V67H21ZM25 66H26V67H25Z"/><path fill="#000818" fill-opacity="0.188" d="M127 22H128V23H127ZM288 30H289V31H288ZM66 66H67V67H66Z"/><path fill="#001010" fill-opacity="0.188" d="M22 11H23V12H22ZM25 11H26V12H25ZM45 11H46V12H45ZM48 11H50V12H48ZM89 11H90V12H89ZM18 14H19V15H18ZM16 16H17V17H16ZM229 16H230V17H229ZM253 16H254V17H253ZM231 17H232V18H231ZM115 18H116V19H115ZM219 18H220V19H219ZM118 19H119V20H118ZM124 19H125V20H124ZM163 21H164V22H163ZM185 21H186V22H185ZM149 22H150V23H149ZM183 22H184V23H183ZM186 22H187V23H186ZM194 22H195V23H194ZM175 23H176V24H175ZM199 23H200V24H199ZM142 24H143V25H142ZM147 24H148V25H147ZM175 24H176V25H175ZM184 24H185V25H184ZM192 24H193V25H192ZM130 25H131V26H130ZM176 25H177V26H176ZM193 25H194V26H193ZM198 25H199V26H198ZM210 25H211V26H210ZM164 26H165V27H164ZM177 26H178V27H177ZM156 27H157V28H156ZM165 27H166V28H165ZM175 27H176V28H175ZM184 27H185V28H184ZM124 28H125V29H124ZM219 29H220V30H219ZM303 30H304V31H303ZM84 33H85V34H84ZM86 33H87V34H86ZM298 58H299V59H298Z"/><path fill="#001018" fill-opacity="0.188" d="M42 11H43V12H42ZM46 11H47V12H46ZM51 11H52V12H51ZM20 12H21V13H20ZM19 13H20V14H19ZM222 16H223V17H222ZM268 16H269V17H268ZM299 16H300V17H299ZM288 18H289V19H288ZM241 19H242V20H241ZM130 21H131V22H130ZM159 21H160V22H159ZM158 22H159V23H158ZM165 22H166V23H165ZM207 22H208V23H207ZM114 23H115V24H114ZM141 23H142V24H141ZM161 23H162V24H161ZM114 24H115V25H114ZM138 24H139V25H138ZM143 24H144V25H143ZM166 24H167V25H166ZM163 25H164V26H163ZM167 25H168V26H167ZM207 25H208V26H207ZM140 26H141V27H140ZM158 26H159V27H158ZM185 26H186V27H185ZM113 27H114V28H113ZM129 27H130V28H129ZM92 28H93V29H92ZM118 28H119V29H118ZM233 28H234V29H233ZM241 28H242V29H241ZM115 29H116V30H115ZM13 30H14V31H13ZM254 30H255V31H254ZM230 31H231V32H230ZM249 32H250V33H249ZM87 45H88V46H87ZM88 46H89V47H88ZM91 65H92V66H91Z"/><path fill="#080800" fill-opacity="0.188" d="M319 33H320V34H319Z"/><path fill="#080808" fill-opacity="0.188" d="M324 15H325V16H324ZM315 25H316V26H315Z"/><path fill="#080810" fill-opacity="0.188" d="M240 24H241V25H240Z"/><path fill="#081008" fill-opacity="0.188" d="M326 15H327V16H326ZM332 18H333V19H332ZM317 31H318V32H317Z"/><path fill="#081010" fill-opacity="0.188" d="M91 12H92V13H91ZM330 16H331V17H330ZM15 17H16V18H15ZM315 22H316V23H315ZM16 44H17V45H16Z"/><path fill="#081018" fill-opacity="0.188" d="M87 11H88V12H87ZM218 20H219V21H218ZM256 21H257V22H256ZM154 25H155V26H154ZM218 27H219V28H218ZM220 30H221V31H220ZM231 30H232V31H231ZM92 50H93V51H92ZM17 63H18V64H17ZM23 66H24V67H23Z"/><path fill="#101010" fill-opacity="0.188" d="M315 24H316V25H315Z"/><path fill="#000008" fill-opacity="0.251" d="M204 26H205V27H204Z"/><path fill="#000010" fill-opacity="0.251" d="M127 24H128V25H127Z"/><path fill="#000800" fill-opacity="0.251" d="M331 17H332V18H331ZM332 19H333V20H332Z"/><path fill="#000808" fill-opacity="0.251" d="M322 35H323V36H322Z"/><path fill="#000810" fill-opacity="0.251" d="M232 18H233V19H232ZM233 20H234V21H233ZM211 23H212V24H211ZM126 25H127V26H126ZM20 65H21V66H20Z"/><path fill="#000818" fill-opacity="0.251" d="M128 23H129V24H128Z"/><path fill="#001010" fill-opacity="0.251" d="M209 24H210V25H209ZM93 27H94V28H93ZM298 52H299V53H298Z"/><path fill="#001018" fill-opacity="0.251" d="M273 16H274V17H273ZM128 19H129V20H128ZM129 20H130V21H129ZM162 23H163V24H162ZM212 24H213V25H212ZM288 25H289V26H288Z"/><path fill="#081010" fill-opacity="0.251" d="M305 54H306V55H305Z"/><path fill="#081018" fill-opacity="0.251" d="M270 16H271V17H270ZM280 16H281V17H280ZM254 17H255V18H254ZM288 20H289V21H288ZM288 28H289V29H288Z"/><path fill="#000000" fill-opacity="1.000" d="M325 15H326V16H325ZM332 17H333V18H332ZM315 23H316V24H315ZM334 31H335V32H334ZM320 34H321V35H320ZM334 34H335V35H334Z"/><path fill="#000008" fill-opacity="1.000" d="M224 17H225V18H224ZM227 17H228V18H227ZM222 18H223V19H222ZM228 18H229V19H228ZM290 18H291V19H290ZM269 19H270V20H269ZM279 19H280V20H279ZM92 24H93V25H92ZM91 25H92V26H91ZM86 26H87V27H86ZM90 26H91V27H90ZM228 26H229V27H228ZM230 26H231V27H230ZM88 27H89V28H88ZM225 27H226V28H225ZM230 27H231V28H230ZM88 28H89V29H88ZM229 28H230V29H229ZM86 29H87V30H86ZM226 29H227V30H226ZM17 46H18V47H17ZM52 46H53V47H52ZM52 47H53V48H52ZM52 48H53V49H52ZM14 51H15V52H14ZM14 52H15V53H14ZM15 53H16V54H15ZM15 54H16V55H15ZM52 54H53V55H52ZM14 55H15V56H14ZM14 57H15V58H14ZM53 57H54V58H53ZM53 59H54V60H53ZM55 59H56V60H55ZM51 60H52V61H51Z"/><path fill="#000010" fill-opacity="1.000" d="M88 13H89V14H88ZM53 14H54V15H53ZM55 14H56V15H55ZM56 15H57V16H56ZM60 15H90V16H60ZM53 16H54V17H53ZM55 16H90V17H55ZM56 17H90V18H56ZM92 17H93V18H92ZM56 18H90V19H56ZM91 18H92V19H91ZM225 18H226V19H225ZM229 18H230V19H229ZM270 18H271V19H270ZM300 18H301V19H300ZM56 19H90V20H56ZM92 19H93V20H92ZM227 19H228V20H227ZM272 19H274V20H272ZM275 19H276V20H275ZM277 19H279V20H277ZM299 19H300V20H299ZM56 20H90V21H56ZM221 20H225V21H221ZM226 20H228V21H226ZM269 20H270V21H269ZM271 20H273V21H271ZM274 20H275V21H274ZM279 20H280V21H279ZM290 20H299V21H290ZM55 21H56V22H55ZM57 21H90V22H57ZM221 21H222V22H221ZM224 21H226V22H224ZM227 21H228V22H227ZM229 21H231V22H229ZM269 21H270V22H269ZM271 21H273V22H271ZM277 21H278V22H277ZM279 21H280V22H279ZM291 21H299V22H291ZM56 22H57V23H56ZM59 22H83V23H59ZM84 22H86V23H84ZM87 22H89V23H87ZM91 22H92V23H91ZM219 22H224V23H219ZM226 22H228V23H226ZM229 22H230V23H229ZM269 22H274V23H269ZM277 22H279V23H277ZM280 22H281V23H280ZM291 22H292V23H291ZM293 22H294V23H293ZM295 22H297V23H295ZM52 23H53V24H52ZM56 23H57V24H56ZM59 23H88V24H59ZM90 23H91V24H90ZM92 23H93V24H92ZM221 23H223V24H221ZM224 23H225V24H224ZM228 23H229V24H228ZM230 23H231V24H230ZM269 23H274V24H269ZM277 23H279V24H277ZM280 23H281V24H280ZM292 23H293V24H292ZM301 23H302V24H301ZM52 24H53V25H52ZM56 24H57V25H56ZM59 24H85V25H59ZM88 24H90V25H88ZM219 24H220V25H219ZM221 24H223V25H221ZM224 24H225V25H224ZM228 24H229V25H228ZM231 24H232V25H231ZM269 24H274V25H269ZM277 24H279V25H277ZM300 24H301V25H300ZM52 25H53V26H52ZM55 25H57V26H55ZM59 25H84V26H59ZM85 25H87V26H85ZM89 25H90V26H89ZM219 25H221V26H219ZM223 25H224V26H223ZM225 25H227V26H225ZM228 25H230V26H228ZM232 25H233V26H232ZM270 25H274V26H270ZM277 25H279V26H277ZM298 25H299V26H298ZM301 25H302V26H301ZM52 26H55V27H52ZM57 26H84V27H57ZM85 26H86V27H85ZM220 26H221V27H220ZM223 26H224V27H223ZM225 26H227V27H225ZM270 26H274V27H270ZM277 26H279V27H277ZM51 27H53V28H51ZM59 27H83V28H59ZM84 27H86V28H84ZM89 27H90V28H89ZM221 27H222V28H221ZM223 27H224V28H223ZM228 27H229V28H228ZM270 27H274V28H270ZM277 27H279V28H277ZM299 27H300V28H299ZM49 28H50V29H49ZM59 28H83V29H59ZM84 28H85V29H84ZM87 28H88V29H87ZM224 28H225V29H224ZM227 28H228V29H227ZM271 28H274V29H271ZM277 28H279V29H277ZM290 28H291V29H290ZM292 28H293V29H292ZM294 28H295V29H294ZM296 28H302V29H296ZM48 29H49V30H48ZM50 29H51V30H50ZM52 29H53V30H52ZM57 29H58V30H57ZM59 29H82V30H59ZM83 29H84V30H83ZM87 29H88V30H87ZM224 29H225V30H224ZM273 29H274V30H273ZM277 29H278V30H277ZM295 29H296V30H295ZM297 29H298V30H297ZM49 30H50V31H49ZM51 30H53V31H51ZM60 30H75V31H60ZM83 30H84V31H83ZM85 30H87V31H85ZM227 30H228V31H227ZM47 31H48V32H47ZM50 31H56V32H50ZM59 31H80V32H59ZM84 31H85V32H84ZM55 46H57V47H55ZM16 47H17V48H16ZM18 47H46V48H18ZM55 47H56V48H55ZM17 48H46V49H17ZM50 48H51V49H50ZM53 48H55V49H53ZM16 49H17V50H16ZM18 49H46V50H18ZM49 49H51V50H49ZM52 49H55V50H52ZM15 50H18V51H15ZM19 50H46V51H19ZM49 50H50V51H49ZM51 50H53V51H51ZM54 50H55V51H54ZM16 51H17V52H16ZM18 51H47V52H18ZM51 51H53V52H51ZM54 51H55V52H54ZM17 52H43V53H17ZM45 52H47V53H45ZM48 52H49V53H48ZM52 52H53V53H52ZM17 53H43V54H17ZM45 53H49V54H45ZM52 53H54V54H52ZM16 54H17V55H16ZM18 54H43V55H18ZM45 54H49V55H45ZM16 55H18V56H16ZM19 55H43V56H19ZM45 55H49V56H45ZM51 55H52V56H51ZM55 55H56V56H55ZM15 56H18V57H15ZM19 56H43V57H19ZM45 56H49V57H45ZM51 56H52V57H51ZM54 56H55V57H54ZM56 56H57V57H56ZM16 57H17V58H16ZM18 57H43V58H18ZM45 57H49V58H45ZM51 57H52V58H51ZM54 57H55V58H54ZM15 58H16V59H15ZM17 58H18V59H17ZM19 58H43V59H19ZM45 58H49V59H45ZM50 58H51V59H50ZM56 58H57V59H56ZM18 59H43V60H18ZM45 59H51V60H45ZM54 59H55V60H54ZM56 59H57V60H56ZM17 60H18V61H17ZM19 60H43V61H19ZM45 60H51V61H45ZM54 60H55V61H54ZM19 61H20V62H19ZM21 61H22V62H21ZM23 61H24V62H23ZM25 61H26V62H25ZM27 61H28V62H27ZM29 61H30V62H29ZM31 61H32V62H31ZM33 61H34V62H33ZM35 61H36V62H35ZM37 61H38V62H37ZM39 61H40V62H39ZM41 61H42V62H41ZM43 61H47V62H43ZM49 61H50V62H49ZM54 61H55V62H54ZM57 61H58V62H57ZM22 62H23V63H22ZM25 62H26V63H25ZM55 62H56V63H55ZM21 63H25V64H21ZM27 63H58V64H27Z"/><path fill="#000018" fill-opacity="1.000" d="M57 15H58V16H57ZM55 48H56V49H55ZM55 50H56V51H55ZM56 54H57V55H56ZM55 56H56V57H55Z"/><path fill="#000800" fill-opacity="1.000" d="M329 16H330V17H329ZM333 19H334V20H333ZM334 21H335V22H334ZM315 26H316V27H315Z"/><path fill="#000808" fill-opacity="1.000" d="M54 17H55V18H54ZM54 18H55V19H54ZM52 60H53V61H52Z"/><path fill="#000810" fill-opacity="1.000" d="M51 13H88V14H51ZM51 14H53V15H51ZM56 14H91V15H56ZM51 15H53V16H51ZM59 15H60V16H59ZM90 15H92V16H90ZM52 16H53V17H52ZM90 16H93V17H90ZM52 17H54V18H52ZM55 17H56V18H55ZM90 17H92V18H90ZM225 17H226V18H225ZM52 18H54V19H52ZM55 18H56V19H55ZM90 18H91V19H90ZM223 18H224V19H223ZM226 18H228V19H226ZM269 18H270V19H269ZM271 18H274V19H271ZM275 18H280V19H275ZM291 18H299V19H291ZM301 18H302V19H301ZM52 19H56V20H52ZM90 19H92V20H90ZM223 19H227V20H223ZM229 19H231V20H229ZM270 19H271V20H270ZM274 19H275V20H274ZM276 19H277V20H276ZM280 19H281V20H280ZM291 19H299V20H291ZM301 19H302V20H301ZM52 20H56V21H52ZM90 20H93V21H90ZM225 20H226V21H225ZM228 20H232V21H228ZM270 20H271V21H270ZM273 20H274V21H273ZM275 20H277V21H275ZM280 20H281V21H280ZM299 20H300V21H299ZM52 21H54V22H52ZM56 21H57V22H56ZM90 21H93V22H90ZM220 21H221V22H220ZM222 21H223V22H222ZM226 21H227V22H226ZM228 21H229V22H228ZM231 21H232V22H231ZM270 21H271V22H270ZM273 21H277V22H273ZM280 21H281V22H280ZM290 21H291V22H290ZM51 22H53V23H51ZM57 22H59V23H57ZM89 22H91V23H89ZM92 22H93V23H92ZM230 22H233V23H230ZM274 22H277V23H274ZM279 22H280V23H279ZM301 22H302V23H301ZM51 23H52V24H51ZM57 23H59V24H57ZM88 23H90V24H88ZM91 23H92V24H91ZM219 23H220V24H219ZM231 23H233V24H231ZM255 23H256V24H255ZM274 23H277V24H274ZM279 23H280V24H279ZM295 23H297V24H295ZM300 23H301V24H300ZM51 24H52V25H51ZM57 24H59V25H57ZM85 24H88V25H85ZM90 24H92V25H90ZM229 24H231V25H229ZM232 24H233V25H232ZM255 24H256V25H255ZM274 24H277V25H274ZM279 24H281V25H279ZM292 24H295V25H292ZM299 24H300V25H299ZM51 25H52V26H51ZM57 25H59V26H57ZM87 25H89V26H87ZM90 25H91V26H90ZM231 25H232V26H231ZM269 25H270V26H269ZM274 25H277V26H274ZM279 25H281V26H279ZM300 25H301V26H300ZM51 26H52V27H51ZM55 26H57V27H55ZM87 26H88V27H87ZM89 26H90V27H89ZM91 26H92V27H91ZM221 26H223V27H221ZM231 26H232V27H231ZM242 26H243V27H242ZM269 26H270V27H269ZM274 26H277V27H274ZM279 26H281V27H279ZM290 26H292V27H290ZM297 26H302V27H297ZM49 27H51V28H49ZM53 27H57V28H53ZM83 27H84V28H83ZM86 27H88V28H86ZM220 27H221V28H220ZM222 27H223V28H222ZM224 27H225V28H224ZM226 27H227V28H226ZM231 27H232V28H231ZM254 27H255V28H254ZM269 27H270V28H269ZM274 27H277V28H274ZM279 27H281V28H279ZM290 27H291V28H290ZM295 27H299V28H295ZM300 27H301V28H300ZM52 28H57V29H52ZM83 28H84V29H83ZM85 28H86V29H85ZM222 28H224V29H222ZM225 28H227V29H225ZM228 28H229V29H228ZM253 28H254V29H253ZM269 28H271V29H269ZM274 28H277V29H274ZM279 28H281V29H279ZM47 29H48V30H47ZM53 29H57V30H53ZM82 29H83V30H82ZM84 29H86V30H84ZM222 29H224V30H222ZM227 29H230V30H227ZM269 29H273V30H269ZM274 29H277V30H274ZM278 29H281V30H278ZM291 29H292V30H291ZM293 29H294V30H293ZM296 29H297V30H296ZM298 29H302V30H298ZM46 30H49V31H46ZM50 30H51V31H50ZM53 30H60V31H53ZM75 30H83V31H75ZM84 30H85V31H84ZM224 30H227V31H224ZM228 30H229V31H228ZM246 30H247V31H246ZM249 30H250V31H249ZM45 31H46V32H45ZM48 31H49V32H48ZM56 31H59V32H56ZM80 31H83V32H80ZM18 46H52V47H18ZM53 46H54V47H53ZM46 47H51V48H46ZM16 48H17V49H16ZM46 48H50V49H46ZM15 49H16V50H15ZM46 49H49V50H46ZM14 50H15V51H14ZM18 50H19V51H18ZM46 50H49V51H46ZM53 50H54V51H53ZM17 51H18V52H17ZM47 51H49V52H47ZM15 52H16V53H15ZM43 52H45V53H43ZM47 52H48V53H47ZM53 52H54V53H53ZM16 53H17V54H16ZM43 53H45V54H43ZM14 54H15V55H14ZM43 54H45V55H43ZM53 54H54V55H53ZM18 55H19V56H18ZM43 55H45V56H43ZM52 55H55V56H52ZM18 56H19V57H18ZM43 56H45V57H43ZM52 56H53V57H52ZM43 57H45V58H43ZM52 57H53V58H52ZM16 58H17V59H16ZM43 58H45V59H43ZM51 58H55V59H51ZM16 59H18V60H16ZM43 59H45V60H43ZM51 59H52V60H51ZM18 60H19V61H18ZM43 60H45V61H43ZM53 60H54V61H53ZM57 60H58V61H57ZM18 61H19V62H18ZM20 61H21V62H20ZM22 61H23V62H22ZM24 61H25V62H24ZM26 61H27V62H26ZM28 61H29V62H28ZM30 61H31V62H30ZM32 61H33V62H32ZM34 61H35V62H34ZM36 61H37V62H36ZM38 61H39V62H38ZM40 61H41V62H40ZM42 61H43V62H42ZM47 61H49V62H47ZM50 61H54V62H50ZM20 62H22V63H20ZM23 62H25V63H23ZM26 62H55V63H26ZM56 62H59V63H56ZM25 63H26V64H25ZM58 63H59V64H58ZM61 63H62V64H61Z"/><path fill="#000818" fill-opacity="1.000" d="M58 15H59V16H58ZM51 16H52V17H51ZM51 17H52V18H51ZM51 18H52V19H51ZM51 19H52V20H51ZM228 19H229V20H228ZM51 20H52V21H51ZM254 21H255V22H254ZM290 22H291V23H290ZM294 22H295V23H294ZM297 22H298V23H297ZM294 23H295V24H294ZM301 24H302V25H301ZM293 25H294V26H293ZM291 27H292V28H291ZM301 27H302V28H301ZM291 28H292V29H291ZM293 28H294V29H293ZM290 29H291V30H290ZM292 29H293V30H292ZM294 29H295V30H294ZM56 47H57V48H56ZM56 48H57V49H56ZM55 49H57V50H55ZM55 51H57V52H55ZM54 52H57V53H54ZM54 53H57V54H54ZM54 54H56V55H54ZM56 57H57V58H56ZM58 60H59V61H58ZM58 61H59V62H58ZM59 62H61V63H59ZM26 63H27V64H26ZM59 63H61V64H59Z"/><path fill="#000820" fill-opacity="1.000" d="M56 50H57V51H56ZM59 61H60V62H59Z"/><path fill="#001010" fill-opacity="1.000" d="M274 18H275V19H274ZM51 21H52V22H51ZM242 23H243V24H242ZM242 25H243V26H242ZM230 28H231V29H230ZM14 49H15V50H14ZM52 59H53V60H52Z"/><path fill="#001018" fill-opacity="1.000" d="M43 11H44V12H43ZM47 11H48V12H47ZM274 16H276V17H274ZM281 16H282V17H281ZM226 17H227V18H226ZM246 17H251V18H246ZM224 18H225V19H224ZM245 18H246V19H245ZM251 18H252V19H251ZM299 18H300V19H299ZM222 19H223V20H222ZM253 19H254V20H253ZM290 19H291V20H290ZM300 19H301V20H300ZM243 20H244V21H243ZM254 20H255V21H254ZM268 20H269V21H268ZM232 21H233V22H232ZM242 21H243V22H242ZM242 22H243V23H242ZM111 23H112V24H111ZM156 23H157V24H156ZM165 23H166V24H165ZM293 23H294V24H293ZM162 24H163V25H162ZM177 24H178V25H177ZM208 24H209V25H208ZM295 24H296V25H295ZM290 25H291V26H290ZM294 25H295V26H294ZM299 25H300V26H299ZM50 26H51V27H50ZM157 26H158V27H157ZM232 26H233V27H232ZM254 26H255V27H254ZM296 26H297V27H296ZM128 27H129V28H128ZM288 27H289V28H288ZM128 28H129V29H128ZM221 28H222V29H221ZM243 28H244V29H243ZM129 29H130V30H129ZM242 29H243V30H242ZM247 30H249V31H247ZM250 30H251V31H250ZM46 31H47V32H46ZM85 31H86V32H85ZM106 52H108V53H106Z"/><path fill="#001020" fill-opacity="1.000" d="M244 18H245V19H244ZM252 18H253V19H252ZM244 19H245V20H244ZM300 20H301V21H300ZM268 21H269V22H268ZM268 22H269V23H268ZM268 23H269V24H268ZM291 23H292V24H291ZM268 24H269V25H268ZM268 25H269V26H268ZM113 26H114V27H113ZM116 26H117V27H116ZM268 26H269V27H268ZM268 27H269V28H268ZM292 27H293V28H292ZM48 28H49V29H48ZM268 28H269V29H268ZM244 29H246V30H244ZM268 29H269V30H268ZM56 55H57V56H56ZM57 59H58V60H57ZM63 64H65V65H63ZM86 64H87V65H86ZM89 64H90V65H89Z"/><path fill="#001818" fill-opacity="1.000" d="M267 15H268V16H267ZM162 20H163V21H162ZM243 27H244V28H243ZM108 52H298V53H108Z"/><path fill="#001820" fill-opacity="1.000" d="M243 19H244V20H243ZM164 22H165V23H164ZM255 22H256V23H255ZM157 23H158V24H157ZM156 24H157V25H156ZM242 24H243V25H242ZM112 25H113V26H112ZM255 25H256V26H255ZM117 27H118V28H117ZM252 29H253V30H252ZM57 45H59V46H57ZM83 45H85V46H83ZM93 56H94V57H93ZM93 57H94V58H93ZM105 57H106V58H105Z"/><path fill="#001828" fill-opacity="1.000" d="M244 28H245V29H244ZM59 45H83V46H59ZM87 47H88V48H87ZM93 59H94V60H93ZM66 64H83V65H66ZM85 64H86V65H85Z"/><path fill="#002020" fill-opacity="1.000" d="M21 13H22V14H21ZM18 16H19V17H18ZM251 29H252V30H251ZM107 57H299V58H107Z"/><path fill="#002028" fill-opacity="1.000" d="M20 14H21V15H20ZM19 15H20V16H19ZM93 55H94V56H93ZM83 64H85V65H83ZM87 64H89V65H87Z"/><path fill="#002828" fill-opacity="1.000" d="M106 57H107V58H106Z"/><path fill="#002830" fill-opacity="1.000" d="M246 18H247V19H246ZM253 20H254V21H253ZM91 52H92V53H91Z"/><path fill="#003038" fill-opacity="1.000" d="M254 22H255V23H254ZM254 25H255V26H254Z"/><path fill="#003040" fill-opacity="1.000" d="M252 19H253V20H252Z"/><path fill="#080008" fill-opacity="1.000" d="M53 15H55V16H53ZM54 16H55V17H54Z"/><path fill="#080010" fill-opacity="1.000" d="M54 14H55V15H54ZM55 15H56V16H55ZM54 21H55V22H54ZM278 21H279V22H278ZM53 22H56V23H53ZM224 22H226V23H224ZM53 23H56V24H53ZM225 23H227V24H225ZM53 24H56V25H53ZM225 24H227V25H225ZM53 25H55V26H53ZM222 25H223V26H222ZM227 25H228V26H227ZM57 27H59V28H57ZM50 28H52V29H50ZM57 28H59V29H57ZM51 29H52V30H51ZM58 29H59V30H58ZM53 47H54V48H53ZM50 50H51V51H50ZM49 51H51V52H49ZM49 52H52V53H49ZM49 53H51V54H49ZM49 54H51V55H49ZM49 55H51V56H49ZM49 56H51V57H49ZM49 57H51V58H49ZM49 58H50V59H49ZM55 58H56V59H55ZM56 60H57V61H56ZM55 61H56V62H55Z"/><path fill="#080800" fill-opacity="1.000" d="M334 23H335V24H334ZM334 24H335V25H334ZM334 25H335V26H334ZM334 26H335V27H334ZM334 27H335V28H334ZM334 28H335V29H334ZM334 29H335V30H334ZM334 30H335V31H334ZM334 32H335V33H334ZM321 34H322V35H321Z"/><path fill="#080810" fill-opacity="1.000" d="M277 20H278V21H277ZM223 21H224V22H223ZM83 22H84V23H83ZM86 22H87V23H86ZM223 23H224V24H223ZM227 23H228V24H227ZM223 24H224V25H223ZM227 24H228V25H227ZM84 25H85V26H84ZM221 25H222V26H221ZM224 25H225V26H224ZM224 26H225V27H224ZM227 26H228V27H227ZM227 27H228V28H227ZM54 46H55V47H54ZM51 47H52V48H51ZM54 47H55V48H54ZM51 48H52V49H51ZM17 49H18V50H17ZM51 49H52V50H51ZM53 51H54V52H53ZM51 53H52V54H51ZM51 54H52V55H51ZM15 57H16V58H15ZM18 58H19V59H18ZM56 61H57V62H56Z"/><path fill="#080818" fill-opacity="1.000" d="M271 19H272V20H271ZM278 20H279V21H278ZM228 22H229V23H228ZM220 23H221V24H220ZM229 23H230V24H229ZM220 24H221V25H220ZM84 26H85V27H84ZM88 26H89V27H88ZM229 26H230V27H229ZM229 27H230V28H229ZM86 28H87V29H86ZM295 28H296V29H295ZM49 29H50V30H49ZM49 31H50V32H49ZM15 51H16V52H15ZM16 52H17V53H16ZM17 57H18V58H17ZM55 57H56V58H55ZM19 62H20V63H19Z"/><path fill="#081000" fill-opacity="1.000" d="M320 15H321V16H320ZM330 17H331V18H330ZM334 22H335V23H334Z"/><path fill="#081010" fill-opacity="1.000" d="M225 29H226V30H225ZM88 67H89V68H88Z"/><path fill="#081018" fill-opacity="1.000" d="M88 11H89V12H88ZM89 13H90V14H89ZM92 13H93V14H92ZM127 15H128V16H127ZM226 15H227V16H226ZM271 15H272V16H271ZM94 16H95V17H94ZM150 16H151V17H150ZM185 16H186V17H185ZM245 16H246V17H245ZM269 16H270V17H269ZM271 16H273V17H271ZM279 16H280V17H279ZM92 18H94V19H92ZM137 18H138V19H137ZM148 18H149V19H148ZM184 18H185V19H184ZM233 18H234V19H233ZM280 18H281V19H280ZM171 19H172V20H171ZM182 19H183V20H182ZM221 19H222V20H221ZM93 20H94V21H93ZM150 20H151V21H150ZM172 20H173V21H172ZM234 20H235V21H234ZM285 20H286V21H285ZM217 21H218V22H217ZM136 22H137V23H136ZM155 22H156V23H155ZM210 22H211V23H210ZM107 23H108V24H107ZM179 23H180V24H179ZM190 23H191V24H190ZM201 23H202V24H201ZM206 23H207V24H206ZM212 23H213V24H212ZM288 23H289V24H288ZM93 24H94V25H93ZM95 24H96V25H95ZM126 24H127V25H126ZM198 24H199V25H198ZM92 25H93V26H92ZM170 25H171V26H170ZM194 25H195V26H194ZM230 25H231V26H230ZM94 26H95V27H94ZM126 26H127V27H126ZM196 26H197V27H196ZM201 26H202V27H201ZM205 26H206V27H205ZM94 27H95V28H94ZM204 27H205V28H204ZM89 28H90V29H89ZM95 28H97V29H95ZM187 28H188V29H187ZM189 28H190V29H189ZM145 29H146V30H145ZM196 29H197V30H196ZM230 29H231V30H230ZM288 29H289V30H288ZM223 30H224V31H223ZM243 30H244V31H243ZM286 30H287V31H286ZM83 31H84V32H83ZM124 31H125V32H124ZM244 31H245V32H244ZM252 31H253V32H252ZM301 32H302V33H301ZM85 33H86V34H85ZM249 33H250V34H249ZM49 34H50V35H49ZM12 35H13V36H12ZM119 35H120V36H119ZM322 36H323V37H322ZM14 43H15V44H14ZM305 46H306V47H305ZM17 47H18V48H17ZM15 48H16V49H15ZM93 51H94V52H93ZM14 53H15V54H14ZM15 55H16V56H15ZM14 56H15V57H14ZM53 56H54V57H53ZM103 57H104V58H103ZM14 58H15V59H14ZM13 59H14V60H13ZM94 62H95V63H94ZM93 63H94V64H93ZM19 64H20V65H19ZM26 64H27V65H26ZM92 64H93V65H92ZM20 66H21V67H20ZM24 66H25V67H24ZM65 66H66V67H65ZM22 67H23V68H22Z"/><path fill="#081020" fill-opacity="1.000" d="M315 14H316V15H315ZM276 16H278V17H276ZM253 17H254V18H253ZM129 19H130V20H129ZM255 19H256V20H255ZM304 19H305V20H304ZM220 20H221V21H220ZM292 22H293V23H292ZM168 23H169V24H168ZM115 25H116V26H115ZM270 30H271V31H270ZM272 30H273V31H272ZM279 30H280V31H279ZM88 31H89V32H88ZM290 31H291V32H290ZM23 64H24V65H23ZM61 64H62V65H61Z"/><path fill="#081818" fill-opacity="1.000" d="M44 11H45V12H44ZM50 11H51V12H50ZM205 24H206V25H205ZM169 27H170V28H169ZM302 31H303V32H302ZM87 32H88V33H87ZM18 45H19V46H18ZM84 68H85V69H84Z"/><path fill="#081820" fill-opacity="1.000" d="M21 11H22V12H21ZM24 11H25V12H24ZM242 18H243V19H242ZM254 18H255V19H254ZM268 18H269V19H268ZM127 19H128V20H127ZM268 19H269V20H268ZM288 19H289V20H288ZM302 19H303V20H302ZM128 20H129V21H128ZM160 20H161V21H160ZM163 24H164V25H163ZM288 24H289V25H288ZM298 24H299V25H298ZM127 25H128V26H127ZM158 25H159V26H158ZM164 25H165V26H164ZM197 25H198V26H197ZM297 25H298V26H297ZM129 26H130V27H129ZM114 27H115V28H114ZM251 30H252V31H251ZM267 30H268V31H267ZM274 30H275V31H274ZM276 30H277V31H276ZM278 30H279V31H278ZM298 30H299V31H298ZM19 45H49V46H19ZM55 45H57V46H55ZM62 64H63V65H62Z"/><path fill="#081828" fill-opacity="1.000" d="M93 54H94V55H93ZM93 60H94V61H93Z"/><path fill="#082020" fill-opacity="1.000" d="M116 18H117V19H116Z"/><path fill="#082028" fill-opacity="1.000" d="M50 13H51V14H50ZM288 26H289V27H288Z"/><path fill="#082030" fill-opacity="1.000" d="M86 46H87V47H86ZM88 48H89V49H88ZM93 58H94V59H93ZM65 64H66V65H65Z"/><path fill="#082828" fill-opacity="1.000" d="M17 17H18V18H17Z"/><path fill="#082830" fill-opacity="1.000" d="M242 20H243V21H242ZM14 21H15V22H14ZM90 50H91V51H90Z"/><path fill="#082838" fill-opacity="1.000" d="M14 28H15V29H14Z"/><path fill="#083040" fill-opacity="1.000" d="M90 51H91V52H90Z"/><path fill="#083048" fill-opacity="1.000" d="M59 60H60V61H59ZM60 61H61V62H60Z"/><path fill="#084040" fill-opacity="1.000" d="M17 18H18V19H17Z"/><path fill="#100818" fill-opacity="1.000" d="M55 60H56V61H55Z"/><path fill="#101008" fill-opacity="1.000" d="M319 15H320V16H319ZM331 18H332V19H331ZM315 27H316V28H315Z"/><path fill="#101010" fill-opacity="1.000" d="M334 33H335V34H334Z"/><path fill="#101018" fill-opacity="1.000" d="M44 6H45V7H44ZM182 15H183V16H182ZM254 16H255V17H254ZM183 17H184V18H183ZM122 18H123V19H122ZM240 23H241V24H240ZM118 24H119V25H118ZM203 26H204V27H203ZM90 27H91V28H90ZM181 28H182V29H181ZM190 28H191V29H190ZM188 29H189V30H188ZM201 29H202V30H201ZM321 35H322V36H321ZM84 40H85V41H84ZM87 42H88V43H87ZM92 48H93V49H92ZM94 52H95V53H94ZM17 54H18V55H17Z"/><path fill="#101020" fill-opacity="1.000" d="M278 16H279V17H278ZM288 21H289V22H288ZM302 28H303V29H302ZM49 45H55V46H49ZM27 64H28V65H27ZM59 64H61V65H59Z"/><path fill="#101810" fill-opacity="1.000" d="M333 20H334V21H333ZM320 33H321V34H320Z"/><path fill="#101818" fill-opacity="1.000" d="M97 20H98V21H97ZM300 30H301V31H300ZM305 53H306V54H305Z"/><path fill="#101820" fill-opacity="1.000" d="M223 17H224V18H223ZM267 17H268V18H267ZM230 18H231V19H230ZM93 19H94V20H93ZM220 19H221V20H220ZM149 20H150V21H149ZM302 20H303V21H302ZM93 21H94V22H93ZM219 21H220V22H219ZM93 22H94V23H93ZM193 22H194V23H193ZM288 22H289V23H288ZM93 23H94V24H93ZM93 25H94V26H93ZM302 25H303V26H302ZM92 26H93V27H92ZM154 26H155V27H154ZM165 26H166V27H165ZM212 26H213V27H212ZM219 26H220V27H219ZM302 26H303V27H302ZM154 27H155V28H154ZM161 27H162V28H161ZM166 27H167V28H166ZM302 27H303V28H302ZM231 28H232V29H231ZM88 29H89V30H88ZM221 29H222V30H221ZM271 30H272V31H271ZM273 30H274V31H273ZM275 30H276V31H275ZM277 30H278V31H277ZM291 30H298V31H291ZM299 30H300V31H299ZM301 30H302V31H301ZM222 31H223V32H222ZM229 31H230V32H229ZM281 31H282V32H281ZM86 44H87V45H86ZM13 48H14V49H13ZM15 59H16V60H15ZM18 63H19V64H18ZM20 63H21V64H20ZM22 64H23V65H22ZM25 64H26V65H25ZM28 64H59V65H28Z"/><path fill="#101828" fill-opacity="1.000" d="M299 21H300V22H299ZM302 21H303V22H302ZM24 64H25V65H24Z"/><path fill="#102020" fill-opacity="1.000" d="M125 17H126V18H125ZM148 23H149V24H148ZM194 23H195V24H194ZM14 47H15V48H14Z"/><path fill="#102028" fill-opacity="1.000" d="M251 16H252V17H251ZM300 16H301V17H300ZM126 18H127V19H126ZM221 18H222V19H221ZM267 18H268V19H267ZM302 18H304V19H302ZM15 19H16V20H15ZM303 19H304V20H303ZM129 21H130V22H129ZM130 22H131V23H130ZM302 22H303V23H302ZM137 23H138V24H137ZM160 23H161V24H160ZM302 23H304V24H302ZM128 24H129V25H128ZM159 24H160V25H159ZM193 24H194V25H193ZM302 24H303V25H302ZM155 25H156V26H155ZM289 25H290V26H289ZM256 26H257V27H256ZM233 27H234V28H233ZM241 27H242V28H241ZM115 28H116V29H115ZM127 28H128V29H127ZM220 28H221V29H220ZM255 28H256V29H255ZM269 30H270V31H269ZM245 31H246V32H245ZM268 31H270V32H268ZM276 31H277V32H276ZM279 31H281V32H279ZM289 31H290V32H289ZM300 31H302V32H300ZM90 65H91V66H90Z"/><path fill="#102030" fill-opacity="1.000" d="M299 23H300V24H299ZM253 29H254V30H253ZM85 45H86V46H85Z"/><path fill="#102828" fill-opacity="1.000" d="M112 22H113V23H112ZM144 24H145V25H144ZM143 25H144V26H143Z"/><path fill="#102830" fill-opacity="1.000" d="M16 18H17V19H16ZM241 20H242V21H241ZM50 25H51V26H50ZM116 29H117V30H116Z"/><path fill="#103030" fill-opacity="1.000" d="M242 27H243V28H242Z"/><path fill="#103038" fill-opacity="1.000" d="M251 17H252V18H251ZM14 29H15V30H14ZM15 30H16V31H15ZM89 49H90V50H89ZM91 51H92V52H91ZM92 53H93V54H92ZM62 63H63V64H62Z"/><path fill="#103040" fill-opacity="1.000" d="M85 46H86V47H85ZM88 49H89V50H88ZM89 50H90V51H89ZM58 59H59V60H58ZM61 62H62V63H61Z"/><path fill="#103840" fill-opacity="1.000" d="M86 47H87V48H86Z"/><path fill="#104850" fill-opacity="1.000" d="M250 18H251V19H250ZM46 29H47V30H46Z"/><path fill="#181828" fill-opacity="1.000" d="M16 61H17V62H16Z"/><path fill="#182010" fill-opacity="1.000" d="M319 32H320V33H319Z"/><path fill="#182020" fill-opacity="1.000" d="M316 16H317V17H316ZM302 29H303V30H302ZM305 55H306V56H305ZM305 56H306V57H305Z"/><path fill="#182028" fill-opacity="1.000" d="M91 13H92V14H91ZM93 15H94V16H93ZM93 17H94V18H93ZM228 17H229V18H228ZM300 17H301V18H300ZM231 19H232V20H231ZM114 20H115V21H114ZM177 20H178V21H177ZM218 21H219V22H218ZM303 21H304V22H303ZM303 24H304V25H303ZM303 25H304V26H303ZM91 27H92V28H91ZM303 27H304V28H303ZM303 28H304V29H303ZM303 29H304V30H303ZM87 30H88V31H87ZM89 30H90V31H89ZM274 31H275V32H274ZM15 46H16V47H15ZM94 53H95V54H94ZM17 62H18V63H17ZM92 63H93V64H92ZM91 64H92V65H91ZM21 65H22V66H21Z"/><path fill="#182030" fill-opacity="1.000" d="M90 13H91V14H90ZM137 20H138V21H137ZM303 20H304V21H303ZM138 21H139V22H138ZM298 22H299V23H298ZM303 22H304V23H303ZM289 23H291V24H289ZM303 26H304V27H303ZM290 30H291V31H290ZM94 61H95V62H94ZM93 62H94V63H93Z"/><path fill="#182828" fill-opacity="1.000" d="M115 19H116V20H115Z"/><path fill="#182830" fill-opacity="1.000" d="M289 18H290V19H289ZM113 21H114V22H113ZM146 22H147V23H146ZM192 23H193V24H192ZM241 23H242V24H241ZM297 23H298V24H297ZM126 29H127V30H126ZM14 30H15V31H14ZM245 30H246V31H245ZM280 30H281V31H280ZM15 31H16V32H15ZM228 31H229V32H228ZM270 31H271V32H270ZM272 31H274V32H272ZM277 31H278V32H277ZM292 31H300V32H292ZM16 32H17V33H16Z"/><path fill="#183030" fill-opacity="1.000" d="M145 23H146V24H145ZM241 24H242V25H241Z"/><path fill="#183038" fill-opacity="1.000" d="M242 19H243V20H242ZM161 22H162V23H161ZM13 25H14V26H13ZM255 26H256V27H255ZM89 48H90V49H89ZM92 52H93V53H92ZM57 58H58V59H57ZM90 64H91V65H90Z"/><path fill="#183840" fill-opacity="1.000" d="M22 13H23V14H22ZM16 31H18V32H16ZM19 32H20V33H19ZM25 32H26V33H25Z"/><path fill="#183848" fill-opacity="1.000" d="M87 48H88V49H87Z"/><path fill="#184040" fill-opacity="1.000" d="M45 30H46V31H45ZM20 32H25V33H20Z"/><path fill="#184048" fill-opacity="1.000" d="M21 14H22V15H21ZM20 15H21V16H20ZM19 16H20V17H19ZM16 19H17V20H16ZM15 20H16V21H15ZM48 27H49V28H48ZM47 28H48V29H47ZM16 30H17V31H16Z"/><path fill="#184050" fill-opacity="1.000" d="M15 29H16V30H15ZM90 63H91V64H90Z"/><path fill="#184850" fill-opacity="1.000" d="M18 17H19V18H18ZM253 27H254V28H253ZM252 28H253V29H252ZM246 29H247V30H246Z"/><path fill="#185058" fill-opacity="1.000" d="M254 23H255V24H254Z"/><path fill="#202030" fill-opacity="1.000" d="M289 22H290V23H289ZM90 28H91V29H90ZM90 29H91V30H90Z"/><path fill="#202038" fill-opacity="1.000" d="M94 60H95V61H94Z"/><path fill="#202820" fill-opacity="1.000" d="M326 16H327V17H326ZM318 31H319V32H318Z"/><path fill="#202828" fill-opacity="1.000" d="M17 44H18V45H17Z"/><path fill="#202830" fill-opacity="1.000" d="M92 14H93V15H92ZM223 16H224V17H223ZM228 16H229V17H228ZM94 17H95V18H94ZM117 17H118V18H117ZM221 17H222V18H221ZM230 17H231V18H230ZM270 17H272V18H270ZM275 17H281V18H275ZM94 18H95V19H94ZM281 18H282V19H281ZM14 19H15V20H14ZM94 19H95V20H94ZM219 19H220V20H219ZM136 20H137V21H136ZM267 20H268V21H267ZM289 20H290V21H289ZM94 21H95V22H94ZM289 21H290V22H289ZM94 22H95V23H94ZM256 22H257V23H256ZM94 23H95V24H94ZM94 24H95V25H94ZM256 25H257V26H256ZM177 27H178V28H177ZM232 27H233V28H232ZM219 28H220V29H219ZM289 28H290V29H289ZM13 29H14V30H13ZM89 29H90V30H89ZM289 29H290V30H289ZM125 30H126V31H125ZM221 30H222V31H221ZM229 30H230V31H229ZM253 30H254V31H253ZM86 31H88V32H86ZM223 31H224V32H223ZM251 31H252V32H251ZM275 31H276V32H275ZM278 31H279V32H278ZM291 31H292V32H291ZM86 32H87V33H86ZM84 44H86V45H84ZM16 45H17V46H16ZM94 54H95V55H94ZM94 55H95V56H94ZM23 65H25V66H23ZM27 65H58V66H27ZM61 65H62V66H61ZM87 65H88V66H87Z"/><path fill="#202838" fill-opacity="1.000" d="M91 14H92V15H91ZM91 28H92V29H91ZM93 52H94V53H93ZM94 56H95V57H94ZM94 57H95V58H94ZM94 58H95V59H94ZM94 59H95V60H94ZM93 61H94V62H93ZM65 65H66V66H65ZM73 65H74V66H73Z"/><path fill="#203030" fill-opacity="1.000" d="M50 12H51V13H50ZM291 17H292V18H291ZM196 24H197V25H196ZM206 25H207V26H206ZM232 28H233V29H232ZM18 44H27V45H18ZM17 45H18V46H17ZM83 65H84V66H83ZM88 65H89V66H88Z"/><path fill="#203038" fill-opacity="1.000" d="M23 12H24V13H23ZM43 12H44V13H43ZM246 16H247V17H246ZM249 16H250V17H249ZM16 17H17V18H16ZM272 17H275V18H272ZM281 17H282V18H281ZM292 17H300V18H292ZM301 17H302V18H301ZM232 19H233V20H232ZM13 20H15V21H13ZM219 20H220V21H219ZM267 21H268V22H267ZM13 22H14V23H13ZM139 22H140V23H139ZM267 22H268V23H267ZM218 23H219V24H218ZM267 23H268V24H267ZM195 24H196V25H195ZM267 24H268V25H267ZM218 25H219V26H218ZM267 25H268V26H267ZM267 26H268V27H267ZM289 26H290V27H289ZM142 27H143V28H142ZM267 27H268V28H267ZM289 27H290V28H289ZM267 28H268V29H267ZM220 29H221V30H220ZM254 29H255V30H254ZM267 29H268V30H267ZM222 30H223V31H222ZM252 30H253V31H252ZM281 30H282V31H281ZM246 31H247V32H246ZM249 31H250V32H249ZM271 31H272V32H271ZM44 32H45V33H44ZM46 32H47V33H46ZM27 44H83V45H27ZM86 45H87V46H86ZM92 51H93V52H92ZM93 53H94V54H93ZM92 62H93V63H92ZM91 63H92V64H91ZM64 65H65V66H64ZM66 65H67V66H66ZM72 65H73V66H72ZM74 65H83V66H74ZM84 65H87V66H84Z"/><path fill="#203040" fill-opacity="1.000" d="M245 17H246V18H245ZM252 17H253V18H252ZM255 21H256V22H255ZM301 21H302V22H301ZM300 22H301V23H300ZM254 28H255V29H254ZM268 30H269V31H268ZM248 31H249V32H248ZM87 46H88V47H87ZM90 49H91V50H90ZM67 65H72V66H67Z"/><path fill="#203838" fill-opacity="1.000" d="M45 12H46V13H45ZM17 16H18V17H17ZM44 31H45V32H44Z"/><path fill="#203840" fill-opacity="1.000" d="M27 12H43V13H27ZM47 12H49V13H47ZM13 23H14V24H13ZM281 26H282V27H281ZM281 27H282V28H281ZM242 28H243V29H242ZM281 28H282V29H281ZM281 29H282V30H281ZM26 32H43V33H26ZM91 62H92V63H91Z"/><path fill="#203848" fill-opacity="1.000" d="M253 18H254V19H253ZM92 61H93V62H92Z"/><path fill="#204040" fill-opacity="1.000" d="M17 32H19V33H17Z"/><path fill="#204850" fill-opacity="1.000" d="M49 26H50V27H49Z"/><path fill="#205058" fill-opacity="1.000" d="M14 26H15V27H14Z"/><path fill="#205858" fill-opacity="1.000" d="M14 24H15V25H14Z"/><path fill="#205860" fill-opacity="1.000" d="M243 21H244V22H243ZM14 25H15V26H14Z"/><path fill="#282810" fill-opacity="1.000" d="M330 20H331V21H330ZM330 26H331V27H330Z"/><path fill="#282830" fill-opacity="1.000" d="M58 65H60V66H58Z"/><path fill="#282838" fill-opacity="1.000" d="M62 65H63V66H62Z"/><path fill="#283010" fill-opacity="1.000" d="M319 18H320V19H319ZM326 19H327V20H326ZM329 19H330V20H329Z"/><path fill="#283018" fill-opacity="1.000" d="M320 16H321V17H320ZM324 18H325V19H324ZM326 18H327V19H326ZM318 29H319V30H318ZM332 31H333V32H332Z"/><path fill="#283020" fill-opacity="1.000" d="M318 16H320V17H318ZM321 16H322V17H321ZM328 16H329V17H328ZM331 21H332V22H331Z"/><path fill="#283028" fill-opacity="1.000" d="M324 16H325V17H324Z"/><path fill="#283038" fill-opacity="1.000" d="M21 12H22V13H21ZM89 12H91V13H89ZM92 15H93V16H92ZM225 16H227V17H225ZM268 17H269V18H268ZM290 17H291V18H290ZM220 18H221V19H220ZM231 18H232V19H231ZM267 19H268V20H267ZM281 19H282V20H281ZM289 19H290V20H289ZM94 20H95V21H94ZM148 20H149V21H148ZM232 20H233V21H232ZM147 21H148V22H147ZM197 23H198V24H197ZM256 24H257V25H256ZM94 25H95V26H94ZM218 26H219V27H218ZM233 26H234V27H233ZM88 30H89V31H88ZM117 30H118V31H117ZM230 30H231V31H230ZM289 30H290V31H289ZM226 31H227V32H226ZM49 32H50V33H49ZM83 32H84V33H83ZM85 32H86V33H85ZM83 44H84V45H83ZM14 48H15V49H14ZM13 53H14V54H13ZM13 55H14V56H13ZM13 56H14V57H13ZM16 60H17V61H16ZM20 64H22V65H20ZM22 65H23V66H22ZM25 65H27V66H25Z"/><path fill="#283040" fill-opacity="1.000" d="M83 12H86V13H83ZM88 12H89V13H88ZM247 16H249V17H247ZM229 17H230V18H229ZM15 18H16V19H15ZM281 20H282V21H281ZM233 22H234V23H233ZM281 22H282V23H281ZM281 23H282V24H281ZM233 24H234V25H233ZM281 24H282V25H281ZM281 25H282V26H281ZM92 27H93V28H92ZM219 27H220V28H219ZM224 31H225V32H224ZM16 46H17V47H16ZM63 65H64V66H63Z"/><path fill="#283838" fill-opacity="1.000" d="M161 20H162V21H161Z"/><path fill="#283840" fill-opacity="1.000" d="M24 12H27V13H24ZM44 12H45V13H44ZM51 12H83V13H51ZM20 13H21V14H20ZM19 14H20V15H19ZM289 17H290V18H289ZM233 21H234V22H233ZM241 21H242V22H241ZM281 21H282V22H281ZM198 22H199V23H198ZM218 22H219V23H218ZM241 22H242V23H241ZM233 23H234V24H233ZM289 24H290V25H289ZM241 26H242V27H241ZM13 27H14V28H13ZM255 27H256V28H255ZM244 30H245V31H244ZM225 31H226V32H225ZM247 31H248V32H247ZM250 31H251V32H250ZM47 32H48V33H47ZM60 32H61V33H60ZM62 32H63V33H62ZM64 32H65V33H64ZM66 32H67V33H66ZM68 32H69V33H68ZM70 32H71V33H70ZM72 32H73V33H72ZM88 47H89V48H88ZM91 50H92V51H91ZM89 65H90V66H89Z"/><path fill="#283848" fill-opacity="1.000" d="M254 19H255V20H254Z"/><path fill="#284040" fill-opacity="1.000" d="M46 12H47V13H46ZM18 15H19V16H18ZM13 24H14V25H13ZM186 24H187V25H186ZM140 25H141V26H140ZM141 26H142V27H141ZM45 32H46V33H45Z"/><path fill="#284048" fill-opacity="1.000" d="M241 25H242V26H241ZM13 26H14V27H13ZM43 32H44V33H43Z"/><path fill="#285858" fill-opacity="1.000" d="M14 23H15V24H14Z"/><path fill="#286060" fill-opacity="1.000" d="M50 22H51V23H50Z"/><path fill="#286068" fill-opacity="1.000" d="M254 24H255V25H254Z"/><path fill="#286868" fill-opacity="1.000" d="M243 26H244V27H243Z"/><path fill="#303000" fill-opacity="1.000" d="M327 21H328V22H327ZM326 28H327V29H326ZM327 29H328V30H327Z"/><path fill="#303008" fill-opacity="1.000" d="M328 21H329V22H328ZM320 24H321V25H320ZM320 28H321V29H320ZM320 29H321V30H320ZM322 30H323V31H322Z"/><path fill="#303010" fill-opacity="1.000" d="M318 18H319V19H318ZM325 19H326V20H325ZM318 20H319V21H318ZM320 20H321V21H320ZM323 20H326V21H323ZM328 20H329V21H328ZM318 21H319V22H318ZM322 21H323V22H322ZM318 22H319V23H318ZM318 23H319V24H318ZM329 23H330V24H329ZM319 24H320V25H319ZM330 24H331V25H330ZM319 25H320V26H319ZM318 26H319V27H318ZM320 26H321V27H320ZM320 27H321V28H320ZM319 28H320V29H319ZM319 29H320V30H319ZM320 30H321V31H320ZM323 30H330V31H323ZM323 31H327V32H323Z"/><path fill="#303018" fill-opacity="1.000" d="M320 18H321V19H320ZM323 19H324V20H323ZM319 20H320V21H319ZM321 20H322V21H321ZM321 21H322V22H321ZM321 22H322V23H321ZM329 22H330V23H329ZM320 23H321V24H320ZM331 24H332V25H331ZM318 25H319V26H318ZM331 25H333V26H331ZM331 26H333V27H331ZM319 27H320V28H319ZM331 27H333V28H331ZM331 28H333V29H331ZM324 29H325V30H324ZM330 29H333V30H330ZM330 30H332V31H330ZM321 31H322V32H321ZM327 31H331V32H327ZM322 32H329V33H322ZM331 32H332V33H331Z"/><path fill="#303020" fill-opacity="1.000" d="M322 18H324V19H322ZM327 18H328V19H327ZM321 19H323V20H321ZM327 19H328V20H327ZM319 21H320V22H319ZM330 21H331V22H330ZM330 22H333V23H330ZM331 23H333V24H331ZM332 24H333V25H332ZM330 27H331V28H330ZM330 28H331V29H330ZM329 32H331V33H329ZM332 32H333V33H332Z"/><path fill="#303028" fill-opacity="1.000" d="M322 16H324V17H322ZM325 16H326V17H325ZM327 16H328V17H327ZM321 18H322V19H321ZM319 22H321V23H319Z"/><path fill="#303030" fill-opacity="1.000" d="M316 29H317V30H316Z"/><path fill="#303038" fill-opacity="1.000" d="M15 47H16V48H15ZM60 65H61V66H60Z"/><path fill="#303040" fill-opacity="1.000" d="M51 32H54V33H51ZM15 60H16V61H15ZM18 62H19V63H18Z"/><path fill="#303800" fill-opacity="1.000" d="M326 21H327V22H326Z"/><path fill="#303810" fill-opacity="1.000" d="M318 19H319V20H318ZM326 20H327V21H326ZM328 22H329V23H328ZM321 30H322V31H321Z"/><path fill="#303818" fill-opacity="1.000" d="M319 19H321V20H319ZM318 24H319V25H318ZM318 27H319V28H318ZM332 30H333V31H332ZM322 31H323V32H322ZM331 31H332V32H331Z"/><path fill="#303820" fill-opacity="1.000" d="M328 19H329V20H328ZM318 28H319V29H318ZM319 30H320V31H319Z"/><path fill="#303830" fill-opacity="1.000" d="M317 16H318V17H317Z"/><path fill="#303840" fill-opacity="1.000" d="M86 12H88V13H86ZM93 16H94V17H93ZM224 16H225V17H224ZM227 16H228V17H227ZM250 16H251V17H250ZM222 17H223V18H222ZM269 17H270V18H269ZM182 20H183V21H182ZM210 24H211V25H210ZM233 25H234V26H233ZM93 26H94V27H93ZM182 27H183V28H182ZM231 29H232V30H231ZM48 32H49V33H48ZM50 32H51V33H50ZM54 32H60V33H54ZM61 32H62V33H61ZM63 32H64V33H63ZM65 32H66V33H65ZM67 32H68V33H67ZM69 32H70V33H69ZM71 32H72V33H71ZM73 32H83V33H73ZM84 32H85V33H84ZM13 50H14V51H13ZM13 51H14V52H13ZM13 54H14V55H13ZM13 57H14V58H13ZM14 59H15V60H14Z"/><path fill="#303848" fill-opacity="1.000" d="M244 17H245V18H244ZM243 18H244V19H243ZM19 63H20V64H19Z"/><path fill="#304040" fill-opacity="1.000" d="M22 12H23V13H22ZM208 23H210V24H208ZM207 24H208V25H207ZM218 24H219V25H218ZM302 30H303V31H302ZM13 52H14V53H13Z"/><path fill="#304048" fill-opacity="1.000" d="M49 12H50V13H49ZM302 17H303V18H302ZM255 20H256V21H255ZM13 21H14V22H13ZM140 23H141V24H140ZM256 23H257V24H256ZM296 24H297V25H296ZM295 25H296V26H295ZM13 28H14V29H13ZM243 29H244V30H243ZM227 31H228V32H227Z"/><path fill="#304848" fill-opacity="1.000" d="M141 24H142V25H141Z"/><path fill="#305860" fill-opacity="1.000" d="M50 14H51V15H50ZM50 15H51V16H50ZM50 18H51V19H50ZM50 19H51V20H50ZM14 22H15V23H14ZM50 23H51V24H50ZM14 27H15V28H14Z"/><path fill="#305868" fill-opacity="1.000" d="M50 16H51V17H50ZM50 17H51V18H50Z"/><path fill="#306060" fill-opacity="1.000" d="M50 20H51V21H50ZM50 21H51V22H50Z"/><path fill="#306870" fill-opacity="1.000" d="M247 18H248V19H247Z"/><path fill="#307078" fill-opacity="1.000" d="M250 29H251V30H250Z"/><path fill="#383000" fill-opacity="1.000" d="M323 21H324V22H323Z"/><path fill="#383008" fill-opacity="1.000" d="M322 22H323V23H322Z"/><path fill="#383010" fill-opacity="1.000" d="M324 28H326V29H324ZM323 29H324V30H323ZM326 29H327V30H326Z"/><path fill="#383018" fill-opacity="1.000" d="M322 20H323V21H322ZM329 21H330V22H329ZM321 23H322V24H321Z"/><path fill="#383020" fill-opacity="1.000" d="M320 21H321V22H320ZM330 23H331V24H330ZM325 29H326V30H325Z"/><path fill="#383800" fill-opacity="1.000" d="M325 27H326V28H325Z"/><path fill="#383808" fill-opacity="1.000" d="M320 25H321V26H320ZM322 29H323V30H322Z"/><path fill="#383810" fill-opacity="1.000" d="M327 20H328V21H327Z"/><path fill="#383818" fill-opacity="1.000" d="M324 19H325V20H324ZM329 20H330V21H329ZM330 25H331V26H330Z"/><path fill="#383820" fill-opacity="1.000" d="M325 18H326V19H325ZM319 26H320V27H319Z"/><path fill="#383828" fill-opacity="1.000" d="M328 18H329V19H328ZM319 23H320V24H319ZM320 31H321V32H320Z"/><path fill="#383830" fill-opacity="1.000" d="M323 34H328V35H323ZM329 34H330V35H329Z"/><path fill="#383848" fill-opacity="1.000" d="M17 61H18V62H17Z"/><path fill="#384028" fill-opacity="1.000" d="M321 32H322V33H321Z"/><path fill="#384030" fill-opacity="1.000" d="M328 34H329V35H328ZM330 34H333V35H330Z"/><path fill="#384038" fill-opacity="1.000" d="M317 30H318V31H317ZM322 34H323V35H322ZM333 34H334V35H333Z"/><path fill="#384048" fill-opacity="1.000" d="M118 17H119V18H118ZM149 21H150V22H149ZM13 49H14V50H13ZM13 58H14V59H13Z"/><path fill="#384848" fill-opacity="1.000" d="M186 23H187V24H186Z"/><path fill="#384850" fill-opacity="1.000" d="M290 24H291V25H290Z"/><path fill="#385050" fill-opacity="1.000" d="M185 25H186V26H185Z"/><path fill="#386060" fill-opacity="1.000" d="M50 24H51V25H50Z"/><path fill="#404000" fill-opacity="1.000" d="M327 22H328V23H327Z"/><path fill="#404010" fill-opacity="1.000" d="M323 28H324V29H323Z"/><path fill="#404018" fill-opacity="1.000" d="M329 24H330V25H329Z"/><path fill="#404040" fill-opacity="1.000" d="M316 24H317V25H316Z"/><path fill="#404830" fill-opacity="1.000" d="M316 27H317V28H316Z"/><path fill="#404840" fill-opacity="1.000" d="M316 17H317V18H316ZM316 18H317V19H316ZM316 19H317V20H316Z"/><path fill="#404850" fill-opacity="1.000" d="M183 20H184V21H183ZM148 22H149V23H148ZM211 25H212V26H211ZM184 26H185V27H184Z"/><path fill="#405050" fill-opacity="1.000" d="M184 21H185V22H184ZM138 23H139V24H138ZM174 23H175V24H174Z"/><path fill="#405058" fill-opacity="1.000" d="M185 22H186V23H185ZM147 23H148V24H147ZM139 24H140V25H139ZM143 27H144V28H143ZM118 29H119V30H118Z"/><path fill="#405060" fill-opacity="1.000" d="M292 26H293V27H292ZM293 27H294V28H293Z"/><path fill="#405858" fill-opacity="1.000" d="M142 25H143V26H142Z"/><path fill="#405860" fill-opacity="1.000" d="M291 25H292V26H291Z"/><path fill="#406068" fill-opacity="1.000" d="M105 53H106V54H105Z"/><path fill="#407078" fill-opacity="1.000" d="M45 13H46V14H45Z"/><path fill="#408080" fill-opacity="1.000" d="M249 18H250V19H249Z"/><path fill="#4088a0" fill-opacity="1.000" d="M62 56H63V57H62Z"/><path fill="#4088a8" fill-opacity="1.000" d="M83 50H84V51H83Z"/><path fill="#4090a0" fill-opacity="1.000" d="M63 57H64V58H63Z"/><path fill="#4090a8" fill-opacity="1.000" d="M65 57H66V58H65ZM71 57H72V58H71ZM66 58H67V59H66ZM65 59H66V60H65Z"/><path fill="#4090b0" fill-opacity="1.000" d="M66 56H67V57H66ZM69 57H71V58H69ZM67 58H71V59H67Z"/><path fill="#484810" fill-opacity="1.000" d="M324 21H325V22H324Z"/><path fill="#484820" fill-opacity="1.000" d="M329 27H330V28H329Z"/><path fill="#484830" fill-opacity="1.000" d="M329 18H330V19H329Z"/><path fill="#484840" fill-opacity="1.000" d="M316 20H317V21H316ZM316 22H317V23H316Z"/><path fill="#484848" fill-opacity="1.000" d="M316 21H317V22H316Z"/><path fill="#485010" fill-opacity="1.000" d="M328 29H329V30H328Z"/><path fill="#485038" fill-opacity="1.000" d="M316 26H317V27H316ZM317 27H318V28H317Z"/><path fill="#485040" fill-opacity="1.000" d="M331 20H332V21H331ZM332 21H333V22H332ZM316 25H317V26H316ZM316 28H317V29H316Z"/><path fill="#485050" fill-opacity="1.000" d="M299 50H300V51H299Z"/><path fill="#485058" fill-opacity="1.000" d="M124 17H125V18H124ZM175 22H176V23H175ZM176 26H177V27H176Z"/><path fill="#485858" fill-opacity="1.000" d="M173 24H174V25H173ZM175 25H176V26H175Z"/><path fill="#485860" fill-opacity="1.000" d="M301 20H302V21H301ZM137 22H138V23H137ZM294 27H295V28H294Z"/><path fill="#486060" fill-opacity="1.000" d="M145 25H146V26H145Z"/><path fill="#486068" fill-opacity="1.000" d="M294 26H295V27H294Z"/><path fill="#487078" fill-opacity="1.000" d="M24 13H25V14H24ZM47 13H48V14H47Z"/><path fill="#487878" fill-opacity="1.000" d="M27 13H28V14H27ZM42 13H44V14H42ZM105 56H106V57H105Z"/><path fill="#487880" fill-opacity="1.000" d="M28 13H42V14H28Z"/><path fill="#488888" fill-opacity="1.000" d="M248 18H249V19H248Z"/><path fill="#4888a0" fill-opacity="1.000" d="M85 51H86V52H85ZM89 53H90V54H89Z"/><path fill="#4888b0" fill-opacity="1.000" d="M66 54H67V55H66Z"/><path fill="#489098" fill-opacity="1.000" d="M91 56H92V57H91ZM91 57H92V58H91Z"/><path fill="#4890a0" fill-opacity="1.000" d="M90 55H91V56H90ZM60 57H61V58H60ZM62 58H63V59H62Z"/><path fill="#4890a8" fill-opacity="1.000" d="M64 48H70V49H64ZM60 49H72V50H60ZM59 50H60V51H59ZM69 50H78V51H69ZM59 51H60V52H59ZM59 52H60V53H59ZM85 52H87V53H85ZM59 53H60V54H59ZM60 54H61V55H60ZM87 54H90V55H87ZM63 55H65V56H63ZM72 55H75V56H72ZM87 55H90V56H87ZM61 56H62V57H61ZM72 56H78V57H72ZM87 56H91V57H87ZM72 57H78V58H72ZM87 57H91V58H87ZM63 58H64V59H63ZM72 58H75V59H72ZM74 59H75V60H74ZM68 61H69V62H68ZM76 61H77V62H76ZM81 61H87V62H81Z"/><path fill="#4890b0" fill-opacity="1.000" d="M60 50H69V51H60ZM78 50H83V51H78ZM60 51H84V52H60ZM60 52H65V53H60ZM71 52H84V53H71ZM60 53H63V54H60ZM71 53H85V54H71ZM61 54H62V55H61ZM64 54H65V55H64ZM71 54H80V55H71ZM82 54H87V55H82ZM61 55H62V56H61ZM65 55H66V56H65ZM67 55H72V56H67ZM75 55H79V56H75ZM82 55H87V56H82ZM65 56H66V57H65ZM67 56H72V57H67ZM82 56H87V57H82ZM66 57H69V58H66ZM82 57H87V58H82ZM64 58H65V59H64ZM71 58H72V59H71ZM75 58H79V59H75ZM82 58H90V59H82ZM67 59H74V60H67ZM75 59H89V60H75ZM66 60H71V61H66ZM75 60H89V61H75Z"/><path fill="#4898b0" fill-opacity="1.000" d="M85 53H86V54H85ZM60 56H61V57H60ZM64 56H65V57H64ZM65 58H66V59H65ZM66 59H67V60H66Z"/><path fill="#505018" fill-opacity="1.000" d="M328 23H329V24H328Z"/><path fill="#505028" fill-opacity="1.000" d="M329 26H330V27H329Z"/><path fill="#505030" fill-opacity="1.000" d="M317 19H318V20H317ZM329 29H330V30H329Z"/><path fill="#505038" fill-opacity="1.000" d="M317 20H318V21H317ZM317 23H318V24H317ZM317 25H318V26H317ZM317 26H318V27H317Z"/><path fill="#505040" fill-opacity="1.000" d="M317 21H318V22H317ZM317 24H318V25H317ZM317 28H318V29H317Z"/><path fill="#505048" fill-opacity="1.000" d="M316 23H317V24H316Z"/><path fill="#505830" fill-opacity="1.000" d="M329 28H330V29H329Z"/><path fill="#505838" fill-opacity="1.000" d="M317 18H318V19H317Z"/><path fill="#505840" fill-opacity="1.000" d="M330 19H331V20H330ZM317 22H318V23H317Z"/><path fill="#505860" fill-opacity="1.000" d="M176 20H177V21H176ZM176 21H177V22H176ZM155 27H156V28H155ZM167 27H168V28H167ZM183 27H184V28H183Z"/><path fill="#506060" fill-opacity="1.000" d="M124 29H125V30H124Z"/><path fill="#506068" fill-opacity="1.000" d="M146 24H147V25H146ZM174 24H175V25H174ZM174 25H175V26H174ZM144 26H145V27H144Z"/><path fill="#506070" fill-opacity="1.000" d="M293 26H294V27H293Z"/><path fill="#506870" fill-opacity="1.000" d="M117 28H118V29H117Z"/><path fill="#507078" fill-opacity="1.000" d="M23 13H24V14H23ZM25 13H26V14H25ZM49 13H50V14H49Z"/><path fill="#507878" fill-opacity="1.000" d="M48 13H49V14H48Z"/><path fill="#507880" fill-opacity="1.000" d="M26 13H27V14H26ZM44 13H45V14H44ZM46 13H47V14H46ZM105 54H106V55H105Z"/><path fill="#508080" fill-opacity="1.000" d="M105 55H106V56H105Z"/><path fill="#508890" fill-opacity="1.000" d="M245 19H246V20H245Z"/><path fill="#5088a0" fill-opacity="1.000" d="M83 47H84V48H83ZM84 49H86V50H84ZM86 50H87V51H86ZM88 51H89V52H88ZM60 59H61V60H60ZM61 60H62V61H61Z"/><path fill="#509098" fill-opacity="1.000" d="M91 59H92V60H91Z"/><path fill="#5090a0" fill-opacity="1.000" d="M60 47H78V48H60ZM82 47H83V48H82ZM59 48H60V49H59ZM84 48H85V49H84ZM58 49H59V50H58ZM58 50H59V51H58ZM58 51H59V52H58ZM58 52H59V53H58ZM58 53H59V54H58ZM90 53H91V54H90ZM58 54H59V55H58ZM90 54H91V55H90ZM59 57H60V58H59ZM61 59H62V60H61ZM64 61H65V62H64ZM66 62H83V63H66ZM84 62H87V63H84ZM88 62H89V63H88Z"/><path fill="#5090a8" fill-opacity="1.000" d="M78 47H82V48H78ZM60 48H64V49H60ZM70 48H84V49H70ZM59 49H60V50H59ZM72 49H79V50H72ZM82 49H83V50H82ZM85 50H86V51H85ZM86 51H87V52H86ZM87 52H89V53H87ZM87 53H89V54H87ZM59 54H60V55H59ZM59 55H60V56H59ZM59 56H60V57H59ZM78 56H79V57H78ZM61 57H62V58H61ZM78 57H79V58H78ZM61 58H62V59H61ZM90 58H91V59H90ZM63 59H64V60H63ZM90 59H91V60H90ZM62 60H65V61H62ZM90 60H91V61H90ZM65 61H68V62H65ZM69 61H76V62H69ZM77 61H81V62H77ZM87 61H90V62H87ZM83 62H84V63H83ZM87 62H88V63H87Z"/><path fill="#5090b0" fill-opacity="1.000" d="M79 49H82V50H79ZM83 49H84V50H83ZM65 52H71V53H65ZM84 52H85V53H84ZM63 53H71V54H63ZM62 54H64V55H62ZM67 54H71V55H67ZM80 54H82V55H80ZM60 55H61V56H60ZM62 55H63V56H62ZM79 55H82V56H79ZM79 56H82V57H79ZM79 57H82V58H79ZM79 58H82V59H79ZM64 59H65V60H64ZM89 59H90V60H89ZM65 60H66V61H65ZM71 60H75V61H71ZM89 60H90V61H89Z"/><path fill="#5098a0" fill-opacity="1.000" d="M91 55H92V56H91Z"/><path fill="#5098b0" fill-opacity="1.000" d="M84 51H85V52H84ZM86 53H87V54H86ZM63 56H64V57H63ZM62 57H63V58H62ZM64 57H65V58H64Z"/><path fill="#5098b8" fill-opacity="1.000" d="M65 54H66V55H65ZM66 55H67V56H66Z"/><path fill="#585810" fill-opacity="1.000" d="M323 22H324V23H323Z"/><path fill="#585818" fill-opacity="1.000" d="M324 27H325V28H324Z"/><path fill="#585848" fill-opacity="1.000" d="M323 33H332V34H323Z"/><path fill="#586010" fill-opacity="1.000" d="M328 26H329V27H328Z"/><path fill="#586048" fill-opacity="1.000" d="M319 17H320V18H319Z"/><path fill="#586050" fill-opacity="1.000" d="M325 17H326V18H325ZM322 33H323V34H322ZM332 33H333V34H332Z"/><path fill="#586068" fill-opacity="1.000" d="M136 21H137V22H136ZM175 21H176V22H175ZM199 22H200V23H199ZM173 23H174V24H173ZM118 30H119V31H118Z"/><path fill="#586868" fill-opacity="1.000" d="M212 25H213V26H212ZM124 30H125V31H124Z"/><path fill="#586870" fill-opacity="1.000" d="M160 21H161V22H160ZM114 22H115V23H114ZM174 22H175V23H174ZM113 23H114V24H113ZM291 24H292V25H291Z"/><path fill="#587078" fill-opacity="1.000" d="M292 25H293V26H292ZM296 25H297V26H296ZM295 26H296V27H295Z"/><path fill="#588898" fill-opacity="1.000" d="M58 57H59V58H58ZM63 62H64V63H63Z"/><path fill="#589090" fill-opacity="1.000" d="M20 31H28V32H20ZM92 58H93V59H92Z"/><path fill="#589098" fill-opacity="1.000" d="M247 29H248V30H247ZM28 31H42V32H28ZM91 54H92V55H91ZM91 60H92V61H91ZM64 62H65V63H64Z"/><path fill="#5890a0" fill-opacity="1.000" d="M58 47H60V48H58ZM58 48H59V49H58ZM87 50H88V51H87ZM58 55H59V56H58ZM58 56H59V57H58ZM59 58H60V59H59ZM90 61H91V62H90ZM65 62H66V63H65Z"/><path fill="#5890a8" fill-opacity="1.000" d="M87 51H88V52H87ZM89 52H90V53H89ZM63 61H64V62H63ZM89 62H90V63H89Z"/><path fill="#5898a0" fill-opacity="1.000" d="M91 58H92V59H91Z"/><path fill="#5898b0" fill-opacity="1.000" d="M84 50H85V51H84ZM60 58H61V59H60ZM62 59H63V60H62Z"/><path fill="#606008" fill-opacity="1.000" d="M324 24H325V25H324Z"/><path fill="#606010" fill-opacity="1.000" d="M323 25H324V26H323Z"/><path fill="#606028" fill-opacity="1.000" d="M321 26H322V27H321Z"/><path fill="#606030" fill-opacity="1.000" d="M329 25H330V26H329Z"/><path fill="#606050" fill-opacity="1.000" d="M320 17H321V18H320ZM324 17H325V18H324ZM327 17H328V18H327Z"/><path fill="#606058" fill-opacity="1.000" d="M321 17H324V18H321Z"/><path fill="#606810" fill-opacity="1.000" d="M327 25H328V26H327Z"/><path fill="#606830" fill-opacity="1.000" d="M321 29H322V30H321Z"/><path fill="#606850" fill-opacity="1.000" d="M318 17H319V18H318Z"/><path fill="#606858" fill-opacity="1.000" d="M328 17H329V18H328Z"/><path fill="#606868" fill-opacity="1.000" d="M300 50H301V51H300ZM304 50H305V51H304Z"/><path fill="#606870" fill-opacity="1.000" d="M183 21H184V22H183ZM184 22H185V23H184ZM175 26H176V27H175ZM183 26H184V27H183ZM176 27H177V28H176Z"/><path fill="#607070" fill-opacity="1.000" d="M208 22H209V23H208ZM185 23H186V24H185ZM184 25H185V26H184Z"/><path fill="#607078" fill-opacity="1.000" d="M115 21H116V22H115ZM128 22H129V23H128ZM159 22H160V23H159ZM209 22H210V23H209ZM129 23H130V24H129ZM125 28H126V29H125Z"/><path fill="#607080" fill-opacity="1.000" d="M127 21H128V22H127Z"/><path fill="#607878" fill-opacity="1.000" d="M118 18H119V19H118Z"/><path fill="#607880" fill-opacity="1.000" d="M116 20H117V21H116Z"/><path fill="#609090" fill-opacity="1.000" d="M18 31H20V32H18ZM42 31H43V32H42Z"/><path fill="#609098" fill-opacity="1.000" d="M92 55H93V56H92Z"/><path fill="#6090a0" fill-opacity="1.000" d="M85 48H86V49H85ZM86 49H87V50H86ZM62 61H63V62H62Z"/><path fill="#6098a0" fill-opacity="1.000" d="M244 20H245V21H244Z"/><path fill="#6098a8" fill-opacity="1.000" d="M84 47H85V48H84Z"/><path fill="#60a0a8" fill-opacity="1.000" d="M243 22H244V23H243Z"/><path fill="#60a8b0" fill-opacity="1.000" d="M248 29H250V30H248Z"/><path fill="#686858" fill-opacity="1.000" d="M326 17H327V18H326Z"/><path fill="#686870" fill-opacity="1.000" d="M302 50H304V51H302Z"/><path fill="#687028" fill-opacity="1.000" d="M327 28H328V29H327Z"/><path fill="#687060" fill-opacity="1.000" d="M317 17H318V18H317Z"/><path fill="#687070" fill-opacity="1.000" d="M301 50H302V51H301ZM299 59H300V60H299Z"/><path fill="#687878" fill-opacity="1.000" d="M207 23H208V24H207ZM185 24H186V25H185Z"/><path fill="#687880" fill-opacity="1.000" d="M117 19H118V20H117ZM126 20H127V21H126ZM210 23H211V24H210ZM130 24H131V25H130ZM116 27H117V28H116Z"/><path fill="#688080" fill-opacity="1.000" d="M112 24H113V25H112Z"/><path fill="#688088" fill-opacity="1.000" d="M297 24H298V25H297ZM113 25H114V26H113Z"/><path fill="#688890" fill-opacity="1.000" d="M43 31H44V32H43Z"/><path fill="#689098" fill-opacity="1.000" d="M57 56H58V57H57Z"/><path fill="#6890a0" fill-opacity="1.000" d="M58 46H59V47H58ZM84 46H85V47H84ZM57 47H58V48H57ZM57 48H58V49H57Z"/><path fill="#6898a0" fill-opacity="1.000" d="M57 49H58V50H57ZM57 50H58V51H57ZM57 51H58V52H57ZM57 52H58V53H57ZM57 53H58V54H57ZM57 54H58V55H57ZM92 54H93V55H92Z"/><path fill="#6898a8" fill-opacity="1.000" d="M59 46H79V47H59ZM81 46H83V47H81ZM87 63H88V64H87Z"/><path fill="#6898b0" fill-opacity="1.000" d="M79 46H81V47H79Z"/><path fill="#68a0a8" fill-opacity="1.000" d="M92 57H93V58H92Z"/><path fill="#68a0b0" fill-opacity="1.000" d="M67 63H71V64H67Z"/><path fill="#707020" fill-opacity="1.000" d="M325 24H326V25H325Z"/><path fill="#707030" fill-opacity="1.000" d="M322 26H323V27H322Z"/><path fill="#707038" fill-opacity="1.000" d="M322 23H323V24H322Z"/><path fill="#707860" fill-opacity="1.000" d="M330 18H331V19H330Z"/><path fill="#707868" fill-opacity="1.000" d="M331 19H332V20H331ZM333 21H334V22H333ZM317 29H318V30H317Z"/><path fill="#707880" fill-opacity="1.000" d="M124 18H125V19H124ZM206 24H207V25H206ZM211 24H212V25H211ZM156 26H157V27H156ZM167 26H168V27H167Z"/><path fill="#708080" fill-opacity="1.000" d="M125 19H126V20H125ZM192 22H193V23H192ZM197 24H198V25H197Z"/><path fill="#708088" fill-opacity="1.000" d="M300 21H301V22H300ZM299 22H300V23H299ZM158 23H159V24H158ZM129 25H130V26H129ZM196 25H197V26H196ZM127 26H128V27H127ZM126 27H127V28H126Z"/><path fill="#708090" fill-opacity="1.000" d="M115 26H116V27H115Z"/><path fill="#708890" fill-opacity="1.000" d="M164 23H165V24H164Z"/><path fill="#709098" fill-opacity="1.000" d="M57 46H58V47H57Z"/><path fill="#7090a0" fill-opacity="1.000" d="M57 55H58V56H57ZM92 60H93V61H92Z"/><path fill="#7098a8" fill-opacity="1.000" d="M84 63H85V64H84Z"/><path fill="#70a0a8" fill-opacity="1.000" d="M65 63H67V64H65ZM71 63H75V64H71Z"/><path fill="#70a0b0" fill-opacity="1.000" d="M83 46H84V47H83ZM85 47H86V48H85ZM86 48H87V49H86ZM90 62H91V63H90ZM75 63H84V64H75ZM85 63H86V64H85ZM89 63H90V64H89Z"/><path fill="#70a0b8" fill-opacity="1.000" d="M59 59H60V60H59Z"/><path fill="#70a8b0" fill-opacity="1.000" d="M245 28H246V29H245ZM92 56H93V57H92Z"/><path fill="#70a8b8" fill-opacity="1.000" d="M89 51H90V52H89Z"/><path fill="#70b0b8" fill-opacity="1.000" d="M253 21H254V22H253Z"/><path fill="#70b8b8" fill-opacity="1.000" d="M243 25H244V26H243ZM244 27H245V28H244Z"/><path fill="#787840" fill-opacity="1.000" d="M321 27H322V28H321Z"/><path fill="#787868" fill-opacity="1.000" d="M333 24H334V25H333ZM333 25H334V26H333ZM333 26H334V27H333ZM333 27H334V28H333ZM333 28H334V29H333ZM333 29H334V30H333ZM333 31H334V32H333Z"/><path fill="#787870" fill-opacity="1.000" d="M333 22H334V23H333ZM333 23H334V24H333Z"/><path fill="#788028" fill-opacity="1.000" d="M326 24H327V25H326Z"/><path fill="#788068" fill-opacity="1.000" d="M333 30H334V31H333Z"/><path fill="#788070" fill-opacity="1.000" d="M329 17H330V18H329ZM332 20H333V21H332ZM318 30H319V31H318ZM333 32H334V33H333Z"/><path fill="#788080" fill-opacity="1.000" d="M304 59H305V60H304Z"/><path fill="#788088" fill-opacity="1.000" d="M193 23H194V24H193ZM198 23H199V24H198ZM195 25H196V26H195Z"/><path fill="#788090" fill-opacity="1.000" d="M298 23H299V24H298Z"/><path fill="#788890" fill-opacity="1.000" d="M162 21H163V22H162ZM163 22H164V23H163ZM165 24H166V25H165ZM194 24H195V25H194ZM157 25H158V26H157ZM166 25H167V26H166ZM128 26H129V27H128Z"/><path fill="#789098" fill-opacity="1.000" d="M114 26H115V27H114Z"/><path fill="#78a0a8" fill-opacity="1.000" d="M58 58H59V59H58ZM92 59H93V60H92ZM64 63H65V64H64Z"/><path fill="#78a0b0" fill-opacity="1.000" d="M87 49H88V50H87ZM91 61H92V62H91ZM62 62H63V63H62Z"/><path fill="#78a0b8" fill-opacity="1.000" d="M61 61H62V62H61Z"/><path fill="#78a8b0" fill-opacity="1.000" d="M91 53H92V54H91Z"/><path fill="#78a8b8" fill-opacity="1.000" d="M88 50H89V51H88ZM86 63H87V64H86ZM88 63H89V64H88Z"/><path fill="#78a8c0" fill-opacity="1.000" d="M90 52H91V53H90Z"/><path fill="#78e8e8" fill-opacity="1.000" d="M23 18H24V19H23Z"/><path fill="#78f0f0" fill-opacity="1.000" d="M22 20H23V21H22ZM22 21H23V22H22ZM45 23H46V24H45Z"/><path fill="#808040" fill-opacity="1.000" d="M321 24H322V25H321Z"/><path fill="#808050" fill-opacity="1.000" d="M325 21H326V22H325Z"/><path fill="#808078" fill-opacity="1.000" d="M333 33H334V34H333Z"/><path fill="#808878" fill-opacity="1.000" d="M319 31H320V32H319ZM321 33H322V34H321Z"/><path fill="#808890" fill-opacity="1.000" d="M205 25H206V26H205Z"/><path fill="#809098" fill-opacity="1.000" d="M162 22H163V23H162ZM163 23H164V24H163ZM157 24H159V25H157ZM164 24H165V25H164ZM128 25H129V26H128ZM165 25H166V26H165Z"/><path fill="#8098a0" fill-opacity="1.000" d="M114 25H115V26H114Z"/><path fill="#80a0a8" fill-opacity="1.000" d="M57 57H58V58H57Z"/><path fill="#80b0c8" fill-opacity="1.000" d="M60 60H61V61H60Z"/><path fill="#80b8c0" fill-opacity="1.000" d="M253 26H254V27H253Z"/><path fill="#80c0c8" fill-opacity="1.000" d="M251 19H252V20H251Z"/><path fill="#80e8e8" fill-opacity="1.000" d="M16 24H17V25H16ZM45 26H46V27H45Z"/><path fill="#80e8f0" fill-opacity="1.000" d="M20 19H21V20H20Z"/><path fill="#80f0f0" fill-opacity="1.000" d="M25 16H26V17H25ZM46 16H47V17H46ZM24 17H26V18H24ZM26 18H27V19H26ZM24 19H26V20H24ZM19 20H20V21H19ZM248 20H250V21H248ZM20 21H21V22H20ZM46 21H47V22H46ZM250 21H251V22H250ZM17 23H19V24H17ZM47 23H48V24H47ZM44 24H45V25H44ZM17 25H18V26H17ZM44 25H45V26H44ZM251 25H252V26H251ZM18 26H19V27H18ZM246 26H247V27H246ZM248 27H250V28H248ZM43 28H44V29H43Z"/><path fill="#80f0f8" fill-opacity="1.000" d="M21 19H22V20H21ZM46 19H47V20H46ZM21 20H22V21H21ZM24 20H25V21H24ZM46 20H47V21H46ZM24 21H25V22H24ZM44 21H45V22H44ZM20 22H22V23H20ZM24 22H25V23H24ZM28 22H43V23H28ZM44 22H45V23H44ZM22 23H23V24H22ZM28 23H44V24H28ZM23 24H24V25H23ZM23 25H24V26H23ZM247 25H248V26H247ZM23 26H25V27H23ZM23 27H24V28H23ZM25 27H27V28H25ZM27 28H28V29H27Z"/><path fill="#80f8f0" fill-opacity="1.000" d="M47 22H48V23H47ZM46 23H47V24H46ZM46 24H47V25H46ZM245 24H246V25H245Z"/><path fill="#80f8f8" fill-opacity="1.000" d="M45 15H47V16H45ZM45 16H46V17H45ZM23 20H24V21H23ZM45 20H46V21H45ZM23 21H24V22H23ZM45 21H46V22H45ZM247 21H249V22H247ZM22 22H24V23H22ZM45 22H47V23H45ZM23 23H24V24H23ZM251 23H252V24H251ZM45 24H46V25H45ZM246 24H247V25H246ZM24 27H25V28H24ZM23 28H27V29H23Z"/><path fill="#888840" fill-opacity="1.000" d="M326 27H327V28H326Z"/><path fill="#888878" fill-opacity="1.000" d="M320 32H321V33H320Z"/><path fill="#889090" fill-opacity="1.000" d="M300 59H304V60H300Z"/><path fill="#889898" fill-opacity="1.000" d="M125 18H126V19H125Z"/><path fill="#8898a0" fill-opacity="1.000" d="M126 19H127V20H126ZM129 24H130V25H129ZM156 25H157V26H156ZM115 27H116V28H115ZM127 27H128V28H127ZM126 28H127V29H126Z"/><path fill="#88a0a0" fill-opacity="1.000" d="M117 18H118V19H117Z"/><path fill="#88a0a8" fill-opacity="1.000" d="M159 23H160V24H159Z"/><path fill="#88a8b0" fill-opacity="1.000" d="M63 63H64V64H63Z"/><path fill="#88d8d8" fill-opacity="1.000" d="M243 24H244V25H243Z"/><path fill="#88e8f0" fill-opacity="1.000" d="M16 26H17V27H16Z"/><path fill="#88f0e8" fill-opacity="1.000" d="M46 25H47V26H46ZM244 25H245V26H244Z"/><path fill="#88f0f0" fill-opacity="1.000" d="M24 15H25V16H24ZM26 15H27V16H26ZM43 15H45V16H43ZM27 16H45V17H27ZM43 17H45V18H43ZM27 19H42V20H27ZM18 20H19V21H18ZM26 20H27V21H26ZM247 20H248V21H247ZM18 21H19V22H18ZM26 21H27V22H26ZM245 22H246V23H245ZM245 23H246V24H245ZM252 23H253V24H252ZM252 24H253V25H252ZM250 25H251V26H250ZM245 26H246V27H245ZM44 27H45V28H44ZM18 28H19V29H18ZM20 28H23V29H20ZM23 29H26V30H23Z"/><path fill="#88f0f8" fill-opacity="1.000" d="M27 15H43V16H27ZM26 16H27V17H26ZM47 16H48V17H47ZM23 17H24V18H23ZM27 17H43V18H27ZM46 17H47V18H46ZM27 18H47V19H27ZM42 19H45V20H42ZM27 20H45V21H27ZM47 20H48V21H47ZM27 21H44V22H27ZM47 21H48V22H47ZM19 22H20V23H19ZM25 22H28V23H25ZM43 22H44V23H43ZM246 22H247V23H246ZM248 22H250V23H248ZM19 23H22V24H19ZM24 23H25V24H24ZM27 23H28V24H27ZM247 23H248V24H247ZM249 23H251V24H249ZM19 24H23V25H19ZM24 24H25V25H24ZM27 24H43V25H27ZM247 24H249V25H247ZM19 25H23V26H19ZM24 25H44V26H24ZM249 25H250V26H249ZM19 26H23V27H19ZM25 26H44V27H25ZM250 26H251V27H250ZM18 27H23V28H18ZM27 27H43V28H27ZM19 28H20V29H19ZM28 28H43V29H28ZM26 29H29V30H26ZM30 29H31V30H30ZM32 29H33V30H32ZM34 29H35V30H34ZM36 29H37V30H36ZM38 29H39V30H38ZM40 29H41V30H40Z"/><path fill="#88f0ff" fill-opacity="1.000" d="M250 24H251V25H250Z"/><path fill="#88f8f8" fill-opacity="1.000" d="M47 15H48V16H47ZM24 16H25V17H24ZM26 17H27V18H26ZM45 17H46V18H45ZM22 18H23V19H22ZM25 18H26V19H25ZM23 19H24V20H23ZM26 19H27V20H26ZM45 19H46V20H45ZM25 20H26V21H25ZM19 21H20V22H19ZM246 21H247V22H246ZM18 22H19V23H18ZM247 22H248V23H247ZM251 22H252V23H251ZM17 24H18V25H17ZM251 24H252V25H251ZM18 25H19V26H18ZM45 25H46V26H45ZM245 25H247V26H245ZM247 26H250V27H247ZM43 27H44V28H43Z"/><path fill="#88f8ff" fill-opacity="1.000" d="M21 21H22V22H21ZM44 23H45V24H44ZM18 24H19V25H18ZM43 24H44V25H43ZM248 25H249V26H248Z"/><path fill="#88ffff" fill-opacity="1.000" d="M24 18H25V19H24ZM22 19H23V20H22ZM20 20H21V21H20ZM249 21H250V22H249ZM246 23H247V24H246Z"/><path fill="#9098a0" fill-opacity="1.000" d="M155 26H156V27H155ZM166 26H167V27H166Z"/><path fill="#90a0a0" fill-opacity="1.000" d="M116 19H117V20H116Z"/><path fill="#90a0a8" fill-opacity="1.000" d="M115 20H116V21H115ZM127 20H128V21H127ZM114 21H115V22H114ZM137 21H138V22H137ZM113 24H114V25H113ZM116 28H117V29H116ZM125 29H126V30H125Z"/><path fill="#90a0b0" fill-opacity="1.000" d="M128 21H129V22H128Z"/><path fill="#90a8b0" fill-opacity="1.000" d="M113 22H114V23H113ZM160 22H161V23H160Z"/><path fill="#90d0d8" fill-opacity="1.000" d="M251 28H252V29H251Z"/><path fill="#90d8d8" fill-opacity="1.000" d="M243 23H244V24H243Z"/><path fill="#90e8e8" fill-opacity="1.000" d="M244 23H245V24H244Z"/><path fill="#90e8f0" fill-opacity="1.000" d="M48 19H49V20H48ZM16 22H17V23H16ZM247 28H248V29H247Z"/><path fill="#90f0f0" fill-opacity="1.000" d="M23 15H24V16H23ZM22 16H23V17H22ZM22 17H23V18H22ZM20 18H21V19H20ZM19 19H20V20H19ZM248 19H249V20H248ZM48 20H49V21H48ZM246 20H247V21H246ZM17 21H18V22H17ZM48 21H49V22H48ZM245 21H246V22H245ZM48 22H49V23H48ZM48 23H49V24H48ZM47 25H48V26H47ZM251 26H252V27H251ZM16 27H17V28H16ZM250 27H251V28H250ZM17 28H18V29H17ZM44 28H45V29H44ZM249 28H250V29H249ZM18 29H23V30H18ZM108 54H109V55H108ZM110 54H111V55H110ZM112 54H113V55H112ZM114 54H115V55H114ZM116 54H117V55H116ZM118 54H119V55H118ZM120 54H121V55H120ZM122 54H123V55H122ZM124 54H125V55H124ZM126 54H127V55H126ZM128 54H129V55H128ZM130 54H131V55H130ZM132 54H133V55H132ZM134 54H135V55H134ZM136 54H137V55H136ZM138 54H139V55H138ZM140 54H141V55H140ZM142 54H143V55H142ZM144 54H145V55H144ZM146 54H147V55H146ZM148 54H149V55H148ZM150 54H151V55H150ZM152 54H153V55H152ZM154 54H155V55H154ZM156 54H157V55H156ZM158 54H159V55H158ZM160 54H161V55H160ZM162 54H163V55H162ZM164 54H165V55H164ZM166 54H167V55H166ZM168 54H169V55H168ZM170 54H171V55H170ZM172 54H173V55H172ZM174 54H175V55H174ZM176 54H177V55H176ZM178 54H179V55H178ZM180 54H181V55H180ZM182 54H183V55H182ZM184 54H185V55H184ZM186 54H187V55H186ZM188 54H189V55H188ZM190 54H191V55H190ZM192 54H193V55H192ZM194 54H195V55H194ZM196 54H197V55H196ZM198 54H199V55H198ZM200 54H201V55H200ZM202 54H203V55H202ZM204 54H205V55H204ZM206 54H207V55H206ZM208 54H209V55H208ZM210 54H211V55H210ZM212 54H213V55H212ZM214 54H215V55H214ZM216 54H217V55H216ZM218 54H219V55H218ZM220 54H221V55H220ZM222 54H223V55H222ZM224 54H225V55H224ZM226 54H227V55H226ZM228 54H229V55H228ZM230 54H231V55H230ZM232 54H233V55H232ZM234 54H235V55H234ZM236 54H237V55H236ZM238 54H239V55H238ZM240 54H241V55H240ZM242 54H243V55H242ZM244 54H245V55H244ZM246 54H247V55H246ZM248 54H249V55H248ZM250 54H251V55H250ZM252 54H253V55H252ZM254 54H255V55H254ZM256 54H257V55H256ZM258 54H259V55H258ZM260 54H261V55H260ZM262 54H263V55H262ZM264 54H265V55H264ZM266 54H267V55H266ZM268 54H269V55H268ZM270 54H271V55H270ZM272 54H273V55H272ZM274 54H275V55H274ZM276 54H277V55H276ZM278 54H279V55H278ZM280 54H281V55H280ZM282 54H283V55H282ZM284 54H285V55H284ZM286 54H287V55H286ZM288 54H289V55H288ZM290 54H291V55H290ZM292 54H293V55H292ZM294 54H295V55H294ZM296 54H297V55H296Z"/><path fill="#90f0f8" fill-opacity="1.000" d="M48 15H49V16H48ZM23 16H24V17H23ZM48 16H49V17H48ZM47 17H48V18H47ZM21 18H22V19H21ZM47 18H48V19H47ZM47 19H48V20H47ZM250 20H251V21H250ZM251 21H252V22H251ZM252 22H253V23H252ZM16 23H17V24H16ZM25 23H27V24H25ZM25 24H27V25H25ZM247 27H248V28H247ZM29 29H30V30H29ZM31 29H32V30H31ZM33 29H34V30H33ZM35 29H36V30H35ZM37 29H38V30H37ZM39 29H40V30H39ZM41 29H43V30H41ZM109 54H110V55H109ZM111 54H112V55H111ZM113 54H114V55H113ZM115 54H116V55H115ZM117 54H118V55H117ZM119 54H120V55H119ZM121 54H122V55H121ZM123 54H124V55H123ZM125 54H126V55H125ZM127 54H128V55H127ZM129 54H130V55H129ZM131 54H132V55H131ZM133 54H134V55H133ZM135 54H136V55H135ZM137 54H138V55H137ZM139 54H140V55H139ZM141 54H142V55H141ZM143 54H144V55H143ZM145 54H146V55H145ZM147 54H148V55H147ZM149 54H150V55H149ZM151 54H152V55H151ZM153 54H154V55H153ZM155 54H156V55H155ZM157 54H158V55H157ZM159 54H160V55H159ZM161 54H162V55H161ZM163 54H164V55H163ZM165 54H166V55H165ZM167 54H168V55H167ZM169 54H170V55H169ZM171 54H172V55H171ZM173 54H174V55H173ZM175 54H176V55H175ZM177 54H178V55H177ZM179 54H180V55H179ZM181 54H182V55H181ZM183 54H184V55H183ZM185 54H186V55H185ZM187 54H188V55H187ZM189 54H190V55H189ZM191 54H192V55H191ZM193 54H194V55H193ZM195 54H196V55H195ZM197 54H198V55H197ZM199 54H200V55H199ZM201 54H202V55H201ZM203 54H204V55H203ZM205 54H206V55H205ZM207 54H208V55H207ZM209 54H210V55H209ZM211 54H212V55H211ZM213 54H214V55H213ZM215 54H216V55H215ZM217 54H218V55H217ZM219 54H220V55H219ZM221 54H222V55H221ZM223 54H224V55H223ZM225 54H226V55H225ZM227 54H228V55H227ZM229 54H230V55H229ZM231 54H232V55H231ZM233 54H234V55H233ZM235 54H236V55H235ZM237 54H238V55H237ZM239 54H240V55H239ZM241 54H242V55H241ZM243 54H244V55H243ZM245 54H246V55H245ZM247 54H248V55H247ZM249 54H250V55H249ZM251 54H252V55H251ZM253 54H254V55H253ZM255 54H256V55H255ZM257 54H258V55H257ZM259 54H260V55H259ZM261 54H262V55H261ZM263 54H264V55H263ZM265 54H266V55H265ZM267 54H268V55H267ZM269 54H270V55H269ZM271 54H272V55H271ZM273 54H274V55H273ZM275 54H276V55H275ZM277 54H278V55H277ZM279 54H280V55H279ZM281 54H282V55H281ZM283 54H284V55H283ZM285 54H286V55H285ZM287 54H288V55H287ZM289 54H290V55H289ZM291 54H292V55H291ZM293 54H294V55H293ZM295 54H296V55H295ZM297 54H298V55H297ZM108 55H298V56H108Z"/><path fill="#90f0ff" fill-opacity="1.000" d="M250 22H251V23H250Z"/><path fill="#90f8f0" fill-opacity="1.000" d="M47 24H48V25H47ZM244 24H245V25H244Z"/><path fill="#90f8f8" fill-opacity="1.000" d="M25 21H26V22H25ZM17 22H18V23H17ZM16 25H17V26H16ZM44 26H45V27H44ZM17 27H18V28H17Z"/><path fill="#90f8ff" fill-opacity="1.000" d="M25 15H26V16H25ZM248 23H249V24H248ZM249 24H250V25H249ZM17 26H18V27H17Z"/><path fill="#98a8b0" fill-opacity="1.000" d="M129 22H130V23H129ZM112 23H113V24H112ZM130 23H131V24H130ZM139 23H140V24H139ZM142 26H143V27H142ZM117 29H118V30H117Z"/><path fill="#98b0b0" fill-opacity="1.000" d="M146 23H147V24H146ZM145 24H146V25H145Z"/><path fill="#98b0b8" fill-opacity="1.000" d="M140 24H141V25H140ZM141 25H142V26H141Z"/><path fill="#98d8e0" fill-opacity="1.000" d="M252 20H253V21H252ZM46 28H47V29H46ZM107 53H298V54H107Z"/><path fill="#98e0e0" fill-opacity="1.000" d="M18 18H19V19H18Z"/><path fill="#98e0e8" fill-opacity="1.000" d="M20 17H21V18H20ZM244 21H245V22H244Z"/><path fill="#98e8e8" fill-opacity="1.000" d="M250 19H251V20H250ZM253 25H254V26H253ZM47 26H48V27H47ZM46 27H47V28H46Z"/><path fill="#98e8f0" fill-opacity="1.000" d="M22 15H23V16H22ZM48 18H49V19H48ZM251 20H252V21H251ZM253 23H254V24H253ZM252 26H253V27H252ZM245 27H246V28H245ZM44 29H45V30H44ZM108 56H298V57H108Z"/><path fill="#98f0e8" fill-opacity="1.000" d="M48 24H49V25H48Z"/><path fill="#98f0f0" fill-opacity="1.000" d="M25 14H26V15H25ZM44 14H45V15H44ZM46 14H47V15H46ZM15 24H16V25H15ZM253 24H254V25H253ZM46 26H47V27H46ZM45 28H46V29H45ZM250 28H251V29H250ZM17 29H18V30H17ZM43 29H44V30H43ZM107 54H108V55H107ZM107 55H108V56H107Z"/><path fill="#98f0f8" fill-opacity="1.000" d="M47 14H48V15H47ZM48 17H49V18H48ZM252 21H253V22H252Z"/><path fill="#98f8f8" fill-opacity="1.000" d="M45 14H46V15H45ZM252 25H253V26H252ZM45 27H46V28H45ZM248 28H249V29H248Z"/><path fill="#a0a050" fill-opacity="1.000" d="M326 25H327V26H326Z"/><path fill="#a0a058" fill-opacity="1.000" d="M321 25H322V26H321Z"/><path fill="#a0a8b0" fill-opacity="1.000" d="M148 21H149V22H148Z"/><path fill="#a0b0b8" fill-opacity="1.000" d="M138 22H139V23H138ZM147 22H148V23H147ZM144 25H145V26H144ZM143 26H144V27H143Z"/><path fill="#a0d8d8" fill-opacity="1.000" d="M298 53H299V54H298Z"/><path fill="#a0d8e0" fill-opacity="1.000" d="M21 15H22V16H21Z"/><path fill="#a0e0e0" fill-opacity="1.000" d="M19 17H20V18H19ZM17 19H18V20H17ZM16 20H17V21H16ZM48 26H49V27H48ZM106 56H107V57H106Z"/><path fill="#a0e0e8" fill-opacity="1.000" d="M246 19H247V20H246ZM16 29H17V30H16ZM45 29H46V30H45Z"/><path fill="#a0e0f0" fill-opacity="1.000" d="M15 27H16V28H15Z"/><path fill="#a0e8e8" fill-opacity="1.000" d="M15 22H16V23H15ZM107 56H108V57H107Z"/><path fill="#a0e8f0" fill-opacity="1.000" d="M245 20H246V21H245ZM253 22H254V23H253ZM246 28H247V29H246ZM298 54H299V55H298ZM298 55H299V56H298Z"/><path fill="#a0f0f0" fill-opacity="1.000" d="M43 14H44V15H43ZM48 14H49V15H48ZM17 20H18V21H17ZM16 21H17V22H16ZM48 25H49V26H48ZM15 26H16V27H15ZM251 27H252V28H251ZM20 30H29V31H20ZM30 30H31V31H30ZM32 30H33V31H32ZM34 30H35V31H34ZM36 30H37V31H36ZM38 30H39V31H38ZM40 30H41V31H40ZM42 30H43V31H42Z"/><path fill="#a0f0f8" fill-opacity="1.000" d="M23 14H25V15H23ZM26 14H43V15H26ZM21 17H22V18H21ZM18 19H19V20H18ZM247 19H248V20H247ZM16 28H17V29H16ZM29 30H30V31H29ZM31 30H32V31H31ZM33 30H34V31H33ZM35 30H36V31H35ZM37 30H38V31H37ZM39 30H40V31H39ZM41 30H42V31H41Z"/><path fill="#a0f8f8" fill-opacity="1.000" d="M19 18H20V19H19ZM249 19H250V20H249ZM244 22H245V23H244ZM15 25H16V26H15ZM244 26H245V27H244Z"/><path fill="#a0f8ff" fill-opacity="1.000" d="M246 27H247V28H246Z"/><path fill="#a8a850" fill-opacity="1.000" d="M325 23H326V24H325Z"/><path fill="#a8a858" fill-opacity="1.000" d="M322 25H323V26H322Z"/><path fill="#a8a870" fill-opacity="1.000" d="M321 28H322V29H321Z"/><path fill="#a8b060" fill-opacity="1.000" d="M326 22H327V23H326Z"/><path fill="#a8b8c0" fill-opacity="1.000" d="M161 21H162V22H161Z"/><path fill="#a8d8e0" fill-opacity="1.000" d="M106 53H107V54H106Z"/><path fill="#a8e0e0" fill-opacity="1.000" d="M15 21H16V22H15Z"/><path fill="#a8e0e8" fill-opacity="1.000" d="M22 14H23V15H22ZM20 16H21V17H20ZM252 27H253V28H252ZM15 28H16V29H15Z"/><path fill="#a8e8e8" fill-opacity="1.000" d="M47 27H48V28H47ZM18 30H19V31H18ZM106 54H107V55H106ZM298 56H299V57H298Z"/><path fill="#a8f0f0" fill-opacity="1.000" d="M49 21H50V22H49ZM49 23H50V24H49ZM19 30H20V31H19ZM106 55H107V56H106Z"/><path fill="#a8f0f8" fill-opacity="1.000" d="M49 15H50V16H49ZM21 16H22V17H21ZM49 20H50V21H49ZM15 23H16V24H15Z"/><path fill="#b0b060" fill-opacity="1.000" d="M325 26H326V27H325Z"/><path fill="#b0e0e0" fill-opacity="1.000" d="M49 25H50V26H49ZM44 30H45V31H44Z"/><path fill="#b0e0e8" fill-opacity="1.000" d="M17 30H18V31H17Z"/><path fill="#b0e8e8" fill-opacity="1.000" d="M49 24H50V25H49Z"/><path fill="#b0e8f0" fill-opacity="1.000" d="M43 30H44V31H43Z"/><path fill="#b0e8f8" fill-opacity="1.000" d="M49 18H50V19H49Z"/><path fill="#b0f0f8" fill-opacity="1.000" d="M49 14H50V15H49ZM49 16H50V17H49ZM49 17H50V18H49ZM49 19H50V20H49Z"/><path fill="#b0f8f8" fill-opacity="1.000" d="M49 22H50V23H49Z"/><path fill="#b8b860" fill-opacity="1.000" d="M327 26H328V27H327Z"/><path fill="#b8b880" fill-opacity="1.000" d="M322 28H323V29H322Z"/><path fill="#b8c078" fill-opacity="1.000" d="M327 23H328V24H327Z"/><path fill="#c0c070" fill-opacity="1.000" d="M323 24H324V25H323Z"/><path fill="#c0c878" fill-opacity="1.000" d="M328 25H329V26H328Z"/><path fill="#c0c880" fill-opacity="1.000" d="M328 27H329V28H328Z"/><path fill="#c8c888" fill-opacity="1.000" d="M323 27H324V28H323Z"/><path fill="#c8d070" fill-opacity="1.000" d="M324 23H325V24H324Z"/><path fill="#c8d080" fill-opacity="1.000" d="M324 25H325V26H324Z"/><path fill="#d0d080" fill-opacity="1.000" d="M324 26H325V27H324Z"/><path fill="#d0d088" fill-opacity="1.000" d="M323 26H324V27H323Z"/><path fill="#d0d090" fill-opacity="1.000" d="M328 24H329V25H328Z"/><path fill="#d0d880" fill-opacity="1.000" d="M324 22H325V23H324Z"/><path fill="#d0d8d8" fill-opacity="1.000" d="M299 58H300V59H299Z"/><path fill="#d0e0e0" fill-opacity="1.000" d="M299 52H300V53H299ZM299 57H300V58H299Z"/><path fill="#d8d888" fill-opacity="1.000" d="M326 26H327V27H326Z"/><path fill="#d8d898" fill-opacity="1.000" d="M322 27H323V28H322ZM328 28H329V29H328Z"/><path fill="#d8e088" fill-opacity="1.000" d="M325 22H326V23H325ZM326 23H327V24H326ZM327 24H328V25H327ZM327 27H328V28H327Z"/><path fill="#d8e0e0" fill-opacity="1.000" d="M299 51H300V52H299Z"/><path fill="#e0e088" fill-opacity="1.000" d="M323 23H324V24H323Z"/><path fill="#e0e090" fill-opacity="1.000" d="M325 25H326V26H325Z"/><path fill="#e0e898" fill-opacity="1.000" d="M322 24H323V25H322Z"/><path fill="#e0f8f8" fill-opacity="1.000" d="M299 56H300V57H299Z"/><path fill="#e8f8f8" fill-opacity="1.000" d="M299 53H300V54H299Z"/><path fill="#e8ffff" fill-opacity="1.000" d="M299 54H300V55H299ZM299 55H300V56H299Z"/><path fill="#f8f8f8" fill-opacity="1.000" d="M304 55H305V56H304Z"/><path fill="#f8fff8" fill-opacity="1.000" d="M301 55H302V56H301Z"/><path fill="#f8ffff" fill-opacity="1.000" d="M300 51H301V52H300ZM302 51H303V52H302ZM304 51H305V52H304ZM302 52H303V53H302ZM304 53H305V54H304ZM300 55H301V56H300ZM303 56H305V57H303ZM300 57H305V58H300ZM300 58H305V59H300Z"/><path fill="#ffffff" fill-opacity="1.000" d="M301 51H302V52H301ZM303 51H304V52H303ZM300 52H302V53H300ZM303 52H305V53H303ZM300 53H304V54H300ZM300 54H305V55H300ZM302 55H304V56H302ZM300 56H303V57H300Z"/></svg>