<svg xmlns="http://www.w3.org/2000/svg" width="382" height="118" viewBox="0 0 382 118" shape-rendering="geometricPrecision"><path fill="#000008" fill-opacity="0.063" d="M12 29H13V30H12ZM234 35H235V36H234ZM280 66H281V67H280ZM297 66H298V67H297ZM202 67H203V68H202ZM215 67H216V68H215ZM278 67H279V68H278ZM258 68H259V69H258ZM265 68H266V69H265ZM277 68H278V69H277ZM280 68H281V69H280ZM150 79H151V80H150ZM166 79H167V80H166ZM231 79H232V80H231ZM279 79H280V80H279ZM195 80H196V81H195ZM258 80H259V81H258ZM284 80H285V81H284ZM292 80H293V81H292Z"/><path fill="#000010" fill-opacity="0.063" d="M89 47H90V48H89ZM303 47H304V48H303ZM193 66H194V67H193ZM242 66H243V67H242ZM153 67H154V68H153ZM194 67H195V68H194ZM189 68H190V69H189ZM207 68H208V69H207ZM250 68H251V69H250ZM119 71H120V72H119ZM139 79H140V80H139ZM183 79H184V80H183ZM237 79H238V80H237ZM276 79H277V80H276ZM145 80H146V81H145ZM209 80H210V81H209ZM241 80H242V81H241ZM144 81H145V82H144ZM180 81H181V82H180ZM248 81H249V82H248Z"/><path fill="#000018" fill-opacity="0.063" d="M298 67H299V68H298Z"/><path fill="#000800" fill-opacity="0.063" d="M186 67H187V68H186ZM265 67H266V68H265ZM203 68H204V69H203Z"/><path fill="#000808" fill-opacity="0.063" d="M15 35H16V36H15ZM13 43H14V44H13ZM160 45H161V46H160ZM163 45H164V46H163ZM148 66H149V67H148ZM216 66H217V67H216ZM240 66H241V67H240ZM126 67H127V68H126ZM235 67H236V68H235ZM281 67H282V68H281ZM119 68H120V69H119ZM127 68H128V69H127ZM151 68H152V69H151ZM163 68H164V69H163ZM167 68H168V69H167ZM172 68H173V69H172ZM216 68H217V69H216ZM271 68H272V69H271ZM300 68H301V69H300ZM120 69H121V70H120ZM144 69H145V70H144ZM215 69H216V70H215ZM276 69H277V70H276ZM117 76H118V77H117ZM117 77H118V78H117ZM121 79H122V80H121ZM129 79H130V80H129ZM177 79H178V80H177ZM226 79H227V80H226ZM281 79H282V80H281ZM167 80H168V81H167ZM173 80H174V81H173ZM206 80H207V81H206ZM277 80H278V81H277ZM194 81H195V82H194ZM222 81H223V82H222ZM251 81H252V82H251ZM291 81H292V82H291Z"/><path fill="#000810" fill-opacity="0.063" d="M306 11H307V12H306ZM303 12H304V13H303ZM6 28H7V29H6ZM8 28H9V29H8ZM16 28H17V29H16ZM20 28H22V29H20ZM294 28H295V29H294ZM314 28H316V29H314ZM160 29H161V30H160ZM86 30H87V31H86ZM88 30H89V31H88ZM162 30H163V31H162ZM235 30H236V31H235ZM237 30H238V31H237ZM315 30H316V31H315ZM88 31H89V32H88ZM235 31H236V32H235ZM14 34H15V35H14ZM160 34H161V35H160ZM11 35H12V36H11ZM85 35H86V36H85ZM89 35H90V36H89ZM159 35H160V36H159ZM238 35H239V36H238ZM311 35H312V36H311ZM9 36H11V37H9ZM18 36H20V37H18ZM94 36H95V37H94ZM99 36H100V37H99ZM150 36H152V37H150ZM233 36H234V37H233ZM240 36H242V37H240ZM161 38H163V39H161ZM13 39H14V40H13ZM87 39H89V40H87ZM310 42H311V43H310ZM16 45H17V46H16ZM9 46H10V47H9ZM18 46H20V47H18ZM92 46H93V47H92ZM231 46H233V47H231ZM90 48H91V49H90ZM305 48H306V49H305ZM128 65H129V66H128ZM147 65H148V66H147ZM153 65H154V66H153ZM194 65H195V66H194ZM241 65H242V66H241ZM298 65H299V66H298ZM146 66H147V67H146ZM152 66H153V67H152ZM154 66H155V67H154ZM189 66H190V67H189ZM201 66H202V67H201ZM234 66H235V67H234ZM122 67H123V68H122ZM138 67H139V68H138ZM140 67H141V68H140ZM146 67H148V68H146ZM187 67H189V68H187ZM190 67H191V68H190ZM200 67H201V68H200ZM217 67H218V68H217ZM233 67H234V68H233ZM239 67H240V68H239ZM241 67H242V68H241ZM249 67H250V68H249ZM259 67H260V68H259ZM263 67H264V68H263ZM133 68H134V69H133ZM135 68H136V69H135ZM141 68H142V69H141ZM147 68H148V69H147ZM169 68H170V69H169ZM179 68H180V69H179ZM222 68H223V69H222ZM238 68H239V69H238ZM244 68H245V69H244ZM248 68H249V69H248ZM261 68H262V69H261ZM267 68H268V69H267ZM279 68H280V69H279ZM177 69H178V70H177ZM246 69H247V70H246ZM284 69H285V70H284ZM287 69H288V70H287ZM292 69H293V70H292ZM117 71H118V72H117ZM135 79H136V80H135ZM137 79H138V80H137ZM165 79H166V80H165ZM171 79H172V80H171ZM210 79H211V80H210ZM215 79H216V80H215ZM242 79H243V80H242ZM244 79H245V80H244ZM253 79H254V80H253ZM287 79H288V80H287ZM119 80H120V81H119ZM132 80H133V81H132ZM142 80H143V81H142ZM153 80H154V81H153ZM168 80H169V81H168ZM170 80H171V81H170ZM181 80H183V81H181ZM221 80H222V81H221ZM235 80H236V81H235ZM237 80H238V81H237ZM247 80H248V81H247ZM252 80H253V81H252ZM263 80H264V81H263ZM265 80H266V81H265ZM271 80H272V81H271ZM290 80H291V81H290ZM299 80H300V81H299ZM143 81H144V82H143ZM146 81H147V82H146ZM174 81H175V82H174ZM192 81H193V82H192ZM218 81H219V82H218ZM228 81H229V82H228ZM236 81H237V82H236ZM250 81H251V82H250ZM270 81H271V82H270ZM145 82H146V83H145ZM227 82H228V83H227ZM249 82H250V83H249ZM267 82H268V83H267ZM271 82H273V83H271ZM297 82H298V83H297Z"/><path fill="#000818" fill-opacity="0.063" d="M88 44H89V45H88ZM121 66H122V67H121ZM129 66H130V67H129ZM195 66H196V67H195ZM299 66H300V67H299ZM299 67H300V68H299ZM145 68H146V69H145ZM251 68H252V69H251ZM133 79H134V80H133ZM144 80H145V81H144ZM296 80H297V81H296ZM296 81H297V82H296Z"/><path fill="#001000" fill-opacity="0.063" d="M232 69H233V70H232Z"/><path fill="#001008" fill-opacity="0.063" d="M86 34H87V35H86ZM14 43H15V44H14ZM236 43H237V44H236ZM309 46H310V47H309ZM226 81H227V82H226ZM266 81H267V82H266Z"/><path fill="#001010" fill-opacity="0.063" d="M12 34H13V35H12ZM88 34H89V35H88ZM237 34H238V35H237ZM7 36H8V37H7ZM98 36H99V37H98ZM159 36H160V37H159ZM310 36H311V37H310ZM85 37H86V38H85ZM238 37H239V38H238ZM310 40H311V41H310ZM87 43H88V44H87ZM235 43H236V44H235ZM85 45H86V46H85ZM238 45H239V46H238ZM266 67H267V68H266ZM210 68H211V69H210ZM217 68H218V69H217ZM127 79H128V80H127ZM274 80H275V81H274Z"/><path fill="#001018" fill-opacity="0.063" d="M16 37H17V38H16ZM90 37H91V38H90ZM14 39H15V40H14ZM10 46H11V47H10ZM194 68H195V69H194ZM175 80H176V81H175ZM169 81H170V82H169ZM264 81H265V82H264Z"/><path fill="#080008" fill-opacity="0.063" d="M153 68H154V69H153Z"/><path fill="#080018" fill-opacity="0.063" d="M118 79H119V80H118Z"/><path fill="#080800" fill-opacity="0.063" d="M213 69H214V70H213ZM301 75H302V76H301Z"/><path fill="#080808" fill-opacity="0.063" d="M308 45H309V46H308ZM131 68H132V69H131ZM191 68H192V69H191ZM197 68H198V69H197ZM212 68H213V69H212ZM142 69H143V70H142ZM149 69H150V70H149ZM230 69H231V70H230ZM156 79H157V80H156ZM163 80H164V81H163Z"/><path fill="#080810" fill-opacity="0.063" d="M164 35H165V36H164ZM164 36H165V37H164ZM232 36H233V37H232ZM310 45H311V46H310ZM156 46H157V47H156ZM240 46H241V47H240ZM91 47H92V48H91ZM137 67H138V68H137ZM158 68H160V69H158ZM255 68H256V69H255ZM264 68H265V69H264ZM297 68H298V69H297ZM164 69H165V70H164ZM175 69H176V70H175ZM208 69H209V70H208ZM289 69H290V70H289ZM302 71H303V72H302ZM118 73H119V74H118ZM302 73H303V74H302ZM301 77H302V78H301ZM289 78H290V79H289ZM300 78H301V79H300ZM190 79H191V80H190ZM228 79H229V80H228ZM234 79H235V80H234ZM262 79H263V80H262ZM269 79H270V80H269ZM275 79H276V80H275ZM283 79H284V80H283ZM179 80H180V81H179ZM185 80H186V81H185ZM201 80H202V81H201Z"/><path fill="#080818" fill-opacity="0.063" d="M157 46H158V47H157ZM304 48H305V49H304ZM118 70H119V71H118ZM118 72H119V73H118ZM278 79H279V80H278ZM217 80H218V81H217Z"/><path fill="#081008" fill-opacity="0.063" d="M124 66H125V67H124ZM264 66H265V67H264ZM171 68H172V69H171ZM272 68H273V69H272ZM140 80H141V81H140ZM267 80H268V81H267Z"/><path fill="#081010" fill-opacity="0.063" d="M299 22H300V23H299ZM308 22H309V23H308ZM298 23H299V24H298ZM311 24H312V25H311ZM296 26H297V27H296ZM11 28H12V29H11ZM90 28H91V29H90ZM159 28H160V29H159ZM164 28H165V29H164ZM233 28H234V29H233ZM313 28H314V29H313ZM85 29H86V30H85ZM316 29H317V30H316ZM14 30H15V31H14ZM314 30H315V31H314ZM312 32H313V33H312ZM163 34H164V35H163ZM307 45H308V46H307ZM306 47H307V48H306ZM211 67H212V68H211ZM279 67H280V68H279ZM185 68H186V69H185ZM199 68H200V69H199ZM224 68H225V69H224ZM228 68H229V69H228ZM237 68H238V69H237ZM256 68H257V69H256ZM182 69H183V70H182ZM263 69H264V70H263ZM281 69H282V70H281ZM295 69H296V70H295ZM187 79H188V80H187ZM203 79H204V80H203ZM162 80H163V81H162ZM227 80H228V81H227ZM238 80H239V81H238ZM223 81H224V82H223ZM268 81H269V82H268Z"/><path fill="#081018" fill-opacity="0.063" d="M305 10H306V11H305ZM310 23H311V24H310ZM238 29H239V30H238ZM120 70H121V71H120ZM191 80H192V81H191Z"/><path fill="#100810" fill-opacity="0.063" d="M309 44H310V45H309ZM124 79H125V80H124Z"/><path fill="#101010" fill-opacity="0.063" d="M125 67H126V68H125ZM196 79H197V80H196ZM212 79H213V80H212ZM147 80H148V81H147Z"/><path fill="#000000" fill-opacity="0.125" d="M245 79H246V80H245Z"/><path fill="#000008" fill-opacity="0.125" d="M21 35H22V36H21ZM236 39H237V40H236ZM123 67H124V68H123ZM121 68H122V69H121ZM132 69H133V70H132ZM291 70H292V71H291ZM283 78H284V79H283ZM142 79H143V80H142ZM158 79H159V80H158ZM175 79H176V80H175ZM229 79H230V80H229ZM291 79H292V80H291ZM296 79H297V80H296Z"/><path fill="#000010" fill-opacity="0.125" d="M91 46H92V47H91ZM127 66H128V67H127ZM277 78H278V79H277ZM298 79H299V80H298Z"/><path fill="#000018" fill-opacity="0.125" d="M273 81H274V82H273Z"/><path fill="#000800" fill-opacity="0.125" d="M196 68H197V69H196ZM126 69H127V70H126ZM155 69H156V70H155ZM210 69H211V70H210ZM266 69H267V70H266ZM294 69H295V70H294Z"/><path fill="#000808" fill-opacity="0.125" d="M12 33H13V34H12ZM6 35H7V36H6ZM10 35H11V36H10ZM16 35H18V36H16ZM154 35H156V36H154ZM161 44H162V45H161ZM128 68H129V69H128ZM223 68H224V69H223ZM121 69H122V70H121ZM156 69H157V70H156ZM183 69H184V70H183ZM205 69H206V70H205ZM296 69H297V70H296ZM118 74H119V75H118ZM170 79H171V80H170ZM174 79H175V80H174ZM194 79H195V80H194ZM197 79H198V80H197ZM213 79H214V80H213ZM285 79H287V80H285Z"/><path fill="#000810" fill-opacity="0.125" d="M306 12H307V13H306ZM303 13H304V14H303ZM306 13H307V14H306ZM303 14H304V15H303ZM306 14H307V15H306ZM303 15H304V16H303ZM306 15H307V16H306ZM303 16H304V17H303ZM306 16H307V17H306ZM303 17H304V18H303ZM306 17H307V18H306ZM303 19H304V20H303ZM303 21H304V22H303ZM7 28H8V29H7ZM295 28H296V29H295ZM15 29H16V30H15ZM89 29H90V30H89ZM163 29H164V30H163ZM234 29H235V30H234ZM12 31H13V32H12ZM14 31H15V32H14ZM312 31H313V32H312ZM12 32H13V33H12ZM14 32H15V33H14ZM86 32H87V33H86ZM14 33H15V34H14ZM86 33H87V34H86ZM0 35H6V36H0ZM7 35H8V36H7ZM20 35H21V36H20ZM22 35H85V36H22ZM92 35H93V36H92ZM96 35H98V36H96ZM100 35H150V36H100ZM152 35H153V36H152ZM166 35H232V36H166ZM246 35H294V36H246ZM296 35H298V36H296ZM298 36H299V37H298ZM309 36H310V37H309ZM160 37H161V38H160ZM163 37H164V38H163ZM233 37H234V38H233ZM235 39H236V40H235ZM161 40H162V41H161ZM88 41H89V42H88ZM161 41H162V42H161ZM310 41H311V42H310ZM161 42H162V43H161ZM88 43H89V44H88ZM162 44H163V45H162ZM6 45H8V46H6ZM21 45H22V46H21ZM97 45H98V46H97ZM149 45H150V46H149ZM229 45H230V46H229ZM246 45H247V46H246ZM294 45H298V46H294ZM300 45H302V46H300ZM90 46H91V47H90ZM303 46H304V47H303ZM306 46H307V47H306ZM128 67H129V68H128ZM200 68H201V69H200ZM234 68H235V69H234ZM260 68H261V69H260ZM161 69H162V70H161ZM220 69H221V70H220ZM288 78H289V79H288ZM126 79H127V80H126ZM144 79H145V80H144ZM149 79H150V80H149ZM154 79H155V80H154ZM159 79H160V80H159ZM193 79H194V80H193ZM221 79H222V80H221ZM193 80H194V81H193ZM219 80H220V81H219Z"/><path fill="#000818" fill-opacity="0.125" d="M162 40H163V41H162ZM162 41H163V42H162ZM94 45H95V46H94ZM150 45H155V46H150ZM165 45H166V46H165ZM242 45H246V46H242ZM120 67H121V68H120ZM198 79H199V80H198ZM272 80H273V81H272ZM298 81H299V82H298Z"/><path fill="#001010" fill-opacity="0.125" d="M153 35H154V36H153ZM242 35H244V36H242ZM5 37H6V38H5ZM21 37H23V38H21ZM96 37H97V38H96ZM101 37H102V38H101ZM153 37H155V38H153ZM307 37H308V38H307ZM161 39H162V40H161ZM13 40H15V41H13ZM13 41H15V42H13ZM236 41H237V42H236ZM13 42H15V43H13ZM87 42H88V43H87ZM236 42H237V43H236ZM0 45H6V46H0ZM22 45H85V46H22ZM98 45H149V46H98ZM166 45H229V46H166ZM247 45H294V46H247ZM298 45H300V46H298ZM302 45H303V46H302ZM195 68H196V69H195ZM160 79H161V80H160Z"/><path fill="#001018" fill-opacity="0.125" d="M0 37H5V38H0ZM23 37H85V38H23ZM91 37H93V38H91ZM102 37H149V38H102ZM155 37H158V38H155ZM166 37H231V38H166ZM243 37H297V38H243ZM162 39H163V40H162ZM87 40H89V41H87ZM87 41H88V42H87ZM88 42H89V43H88ZM235 42H236V43H235ZM159 45H160V46H159ZM164 45H165V46H164ZM188 68H189V69H188Z"/><path fill="#080008" fill-opacity="0.125" d="M130 79H131V80H130Z"/><path fill="#080018" fill-opacity="0.125" d="M96 45H97V46H96Z"/><path fill="#080800" fill-opacity="0.125" d="M130 68H131V69H130ZM212 69H213V70H212Z"/><path fill="#080808" fill-opacity="0.125" d="M156 35H157V36H156ZM174 69H175V70H174ZM184 69H185V70H184ZM267 69H268V70H267ZM283 69H284V70H283ZM293 69H294V70H293ZM301 70H302V71H301ZM255 78H256V79H255ZM293 78H295V79H293ZM157 79H158V80H157ZM191 79H192V80H191ZM235 79H236V80H235Z"/><path fill="#080810" fill-opacity="0.125" d="M303 18H304V19H303ZM306 18H307V19H306ZM306 19H307V20H306ZM303 20H304V21H303ZM9 35H10V36H9ZM18 35H20V36H18ZM91 35H92V36H91ZM93 35H96V36H93ZM98 35H100V36H98ZM150 35H152V36H150ZM157 35H159V36H157ZM165 35H166V36H165ZM239 35H242V36H239ZM244 35H246V36H244ZM294 35H296V36H294ZM168 68H169V69H168ZM240 68H241V69H240ZM282 69H283V70H282ZM288 69H289V70H288ZM118 78H119V79H118ZM210 78H211V79H210ZM267 78H268V79H267ZM120 79H121V80H120ZM152 79H153V80H152ZM205 79H206V80H205ZM230 79H231V80H230ZM270 79H273V80H270ZM280 79H281V80H280Z"/><path fill="#080818" fill-opacity="0.125" d="M95 45H96V46H95ZM259 79H260V80H259ZM274 79H275V80H274ZM248 80H249V81H248Z"/><path fill="#081008" fill-opacity="0.125" d="M202 68H203V69H202ZM277 69H278V70H277Z"/><path fill="#081010" fill-opacity="0.125" d="M304 11H305V12H304ZM306 20H307V21H306ZM300 22H303V23H300ZM311 25H312V26H311ZM311 26H312V27H311ZM296 27H297V28H296ZM0 29H5V30H0ZM23 29H85V30H23ZM92 29H94V30H92ZM102 29H150V30H102ZM166 29H232V30H166ZM246 29H293V30H246ZM12 30H13V31H12ZM86 31H87V32H86ZM160 32H161V33H160ZM163 32H164V33H163ZM237 32H238V33H237ZM237 33H238V34H237ZM311 34H312V35H311ZM90 35H91V36H90ZM308 36H309V37H308ZM122 68H123V69H122ZM129 68H130V69H129ZM190 68H191V69H190ZM180 69H181V70H180ZM219 69H220V70H219ZM226 69H227V70H226ZM242 69H243V70H242ZM252 69H253V70H252ZM136 79H137V80H136ZM145 79H146V80H145ZM214 79H215V80H214ZM257 79H258V80H257Z"/><path fill="#081018" fill-opacity="0.125" d="M18 29H19V30H18ZM94 29H102V30H94ZM150 29H158V30H150ZM239 29H246V30H239ZM160 30H161V31H160ZM160 31H161V32H160ZM237 31H238V32H237ZM160 33H161V34H160ZM163 33H164V34H163ZM234 33H235V34H234ZM234 34H235V35H234ZM8 35H9V36H8ZM279 69H280V70H279ZM199 79H200V80H199Z"/><path fill="#100810" fill-opacity="0.125" d="M152 68H153V69H152ZM192 69H193V70H192ZM125 79H126V80H125Z"/><path fill="#101010" fill-opacity="0.125" d="M176 79H177V80H176Z"/><path fill="#000000" fill-opacity="0.188" d="M249 69H250V70H249Z"/><path fill="#000008" fill-opacity="0.188" d="M160 69H161V70H160ZM218 69H219V70H218ZM286 70H287V71H286ZM278 78H279V79H278ZM169 79H170V80H169ZM220 79H221V80H220ZM273 79H274V80H273Z"/><path fill="#000010" fill-opacity="0.188" d="M192 79H193V80H192ZM249 80H250V81H249Z"/><path fill="#000018" fill-opacity="0.188" d="M93 45H94V46H93Z"/><path fill="#000800" fill-opacity="0.188" d="M233 69H234V70H233ZM265 70H266V71H265ZM217 78H218V79H217ZM233 78H234V79H233ZM295 78H296V79H295Z"/><path fill="#000808" fill-opacity="0.188" d="M309 39H310V40H309ZM308 44H309V45H308ZM122 69H123V70H122ZM145 69H146V70H145ZM166 69H167V70H166ZM178 69H179V70H178ZM193 69H194V70H193ZM204 69H205V70H204ZM238 69H239V70H238ZM243 69H244V70H243ZM278 69H279V70H278ZM269 70H270V71H269ZM274 70H275V71H274ZM120 71H121V72H120ZM178 78H179V79H178ZM232 78H233V79H232ZM261 78H262V79H261ZM180 79H181V80H180ZM186 79H187V80H186ZM225 79H226V80H225ZM250 80H251V81H250Z"/><path fill="#000810" fill-opacity="0.188" d="M297 25H298V26H297ZM311 33H312V34H311ZM11 37H12V38H11ZM12 38H13V39H12ZM15 38H16V39H15ZM236 40H237V41H236ZM235 41H236V42H235ZM12 44H13V45H12ZM11 45H12V46H11ZM20 45H21V46H20ZM89 45H90V46H89ZM298 68H299V69H298ZM168 79H169V80H168ZM222 79H223V80H222ZM252 79H253V80H252ZM224 80H225V81H224Z"/><path fill="#000818" fill-opacity="0.188" d="M162 42H163V43H162ZM17 45H18V46H17ZM155 45H156V46H155ZM158 45H159V46H158ZM233 45H234V46H233ZM239 45H240V46H239ZM241 45H242V46H241Z"/><path fill="#001008" fill-opacity="0.188" d="M6 37H7V38H6ZM308 38H309V39H308ZM188 69H189V70H188ZM211 69H212V70H211ZM202 79H203V80H202Z"/><path fill="#001010" fill-opacity="0.188" d="M299 36H300V37H299ZM20 37H21V38H20ZM97 37H98V38H97ZM100 37H101V38H100ZM231 37H232V38H231ZM86 38H87V39H86ZM234 38H235V39H234ZM237 38H238V39H237ZM161 43H162V44H161ZM15 44H16V45H15ZM86 44H87V45H86ZM234 44H235V45H234ZM237 44H238V45H237ZM303 45H304V46H303ZM306 45H307V46H306Z"/><path fill="#001018" fill-opacity="0.188" d="M17 37H18V38H17ZM93 37H94V38H93ZM95 37H96V38H95ZM149 37H150V38H149ZM152 37H153V38H152ZM158 37H159V38H158ZM165 37H166V38H165ZM239 37H240V38H239ZM242 37H243V38H242ZM297 37H298V38H297ZM89 38H90V39H89ZM309 43H310V44H309Z"/><path fill="#080008" fill-opacity="0.188" d="M131 79H132V80H131Z"/><path fill="#080010" fill-opacity="0.188" d="M184 79H185V80H184Z"/><path fill="#080800" fill-opacity="0.188" d="M157 69H158V70H157ZM216 69H217V70H216ZM229 69H230V70H229ZM273 69H274V70H273ZM208 70H209V71H208ZM301 74H302V75H301ZM138 78H139V79H138ZM290 78H291V79H290Z"/><path fill="#080808" fill-opacity="0.188" d="M125 69H126V70H125ZM141 69H142V70H141ZM147 69H148V70H147ZM154 69H155V70H154ZM225 69H226V70H225ZM227 69H228V70H227ZM241 69H242V70H241ZM245 69H246V70H245ZM254 69H255V70H254ZM262 69H263V70H262ZM270 69H271V70H270ZM132 70H133V71H132ZM164 70H165V71H164ZM247 70H248V71H247ZM122 78H123V79H122ZM133 78H134V79H133ZM139 78H140V79H139ZM183 78H184V79H183ZM188 78H189V79H188ZM211 78H212V79H211ZM254 78H255V79H254ZM282 78H283V79H282ZM292 78H293V79H292ZM298 78H299V79H298ZM200 79H201V80H200ZM207 79H208V80H207Z"/><path fill="#080810" fill-opacity="0.188" d="M306 21H307V22H306ZM307 22H308V23H307ZM232 35H233V36H232ZM136 68H137V69H136ZM201 68H202V69H201ZM268 70H269V71H268ZM280 70H281V71H280ZM290 70H291V71H290ZM119 72H120V73H119ZM123 78H124V79H123ZM134 78H135V79H134ZM173 78H174V79H173ZM189 78H190V79H189ZM260 78H261V79H260ZM266 78H267V79H266ZM181 79H182V80H181ZM263 79H264V80H263ZM265 79H266V80H265ZM297 79H298V80H297Z"/><path fill="#080818" fill-opacity="0.188" d="M8 45H9V46H8ZM230 45H231V46H230ZM208 79H209V80H208ZM236 79H237V80H236Z"/><path fill="#081008" fill-opacity="0.188" d="M127 69H128V70H127ZM150 69H151V70H150ZM162 69H163V70H162ZM206 69H207V70H206ZM235 69H237V70H235ZM257 69H258V70H257ZM300 69H301V70H300ZM165 70H166V71H165ZM209 70H210V71H209ZM285 70H286V71H285ZM118 75H119V76H118ZM166 78H167V79H166ZM179 78H180V79H179ZM216 78H217V79H216ZM242 78H244V79H242ZM256 78H257V79H256Z"/><path fill="#081010" fill-opacity="0.188" d="M303 22H304V23H303ZM309 23H310V24H309ZM312 28H313V29H312ZM5 29H6V30H5ZM22 29H23V30H22ZM158 29H159V30H158ZM165 29H166V30H165ZM293 29H294V30H293ZM89 33H90V34H89ZM298 35H299V36H298ZM189 69H190V70H189ZM221 69H222V70H221ZM250 69H251V70H250ZM264 70H265V71H264ZM275 70H276V71H275ZM172 78H173V79H172ZM148 79H149V80H148ZM161 79H162V80H161ZM164 79H165V80H164ZM239 79H240V80H239ZM246 79H247V80H246Z"/><path fill="#081018" fill-opacity="0.188" d="M298 24H299V25H298ZM311 27H312V28H311ZM296 28H297V29H296ZM9 29H11V30H9ZM17 29H18V30H17ZM19 29H20V30H19ZM91 29H92V30H91ZM232 29H233V30H232ZM313 30H314V31H313ZM163 31H164V32H163ZM89 32H90V33H89ZM234 32H235V33H234ZM307 36H308V37H307ZM143 79H144V80H143Z"/><path fill="#100808" fill-opacity="0.188" d="M248 70H249V71H248ZM146 79H147V80H146Z"/><path fill="#101008" fill-opacity="0.188" d="M173 69H174V70H173ZM185 69H186V70H185ZM237 78H238V79H237ZM268 78H269V79H268ZM141 79H142V80H141Z"/><path fill="#101010" fill-opacity="0.188" d="M276 78H277V79H276ZM240 79H241V80H240Z"/><path fill="#000008" fill-opacity="0.251" d="M218 79H219V80H218Z"/><path fill="#000800" fill-opacity="0.251" d="M134 69H135V70H134ZM167 78H168V79H167Z"/><path fill="#000808" fill-opacity="0.251" d="M139 68H140V69H139ZM239 69H240V70H239ZM176 70H177V71H176ZM253 70H254V71H253ZM258 70H259V71H258Z"/><path fill="#001000" fill-opacity="0.251" d="M128 78H129V79H128Z"/><path fill="#001010" fill-opacity="0.251" d="M8 37H9V38H8Z"/><path fill="#001018" fill-opacity="0.251" d="M306 37H307V38H306Z"/><path fill="#080010" fill-opacity="0.251" d="M124 68H125V69H124Z"/><path fill="#080800" fill-opacity="0.251" d="M133 70H134V71H133ZM143 70H144V71H143ZM280 71H281V72H280ZM288 77H289V78H288Z"/><path fill="#080808" fill-opacity="0.251" d="M148 70H149V71H148ZM192 70H193V71H192ZM214 70H215V71H214ZM296 70H297V71H296ZM291 71H292V72H291ZM277 77H278V78H277ZM299 77H300V78H299ZM119 78H120V79H119ZM151 78H152V79H151ZM155 78H156V79H155ZM182 78H183V79H182ZM209 78H210V79H209ZM222 78H223V79H222ZM227 78H228V79H227ZM284 78H285V79H284Z"/><path fill="#080810" fill-opacity="0.251" d="M181 70H182V71H181Z"/><path fill="#081008" fill-opacity="0.251" d="M170 69H171V70H170ZM198 69H199V70H198ZM231 70H232V71H231ZM301 72H302V73H301ZM195 78H196V79H195ZM204 78H205V79H204ZM238 78H239V79H238Z"/><path fill="#081010" fill-opacity="0.251" d="M259 69H260V70H259Z"/><path fill="#081018" fill-opacity="0.251" d="M311 31H312V32H311ZM300 36H301V37H300Z"/><path fill="#100808" fill-opacity="0.251" d="M300 76H301V77H300Z"/><path fill="#000000" fill-opacity="1.000" d="M124 67H125V68H124ZM123 69H124V70H123ZM146 69H147V70H146ZM179 69H180V70H179ZM224 69H225V70H224ZM228 69H229V70H228ZM237 69H238V70H237ZM251 69H252V70H251ZM256 69H257V70H256ZM297 69H298V70H297ZM299 69H300V70H299ZM138 70H139V71H138ZM152 70H153V71H152ZM170 70H171V71H170ZM180 70H181V71H180ZM182 70H183V71H182ZM225 70H226V71H225ZM235 70H236V71H235ZM259 70H260V71H259ZM281 70H282V71H281ZM275 71H276V72H275ZM267 75H268V76H267ZM200 76H201V77H200ZM249 77H250V78H249ZM266 77H267V78H266ZM300 77H301V78H300ZM144 78H145V79H144ZM186 78H187V79H186ZM194 78H195V79H194ZM208 78H209V79H208ZM214 78H215V79H214ZM228 78H229V79H228ZM240 78H241V79H240ZM258 78H259V79H258ZM263 78H264V79H263ZM287 78H288V79H287ZM140 79H141V80H140ZM201 79H202V80H201ZM223 79H224V80H223ZM238 79H239V80H238ZM247 79H248V80H247ZM251 79H252V80H251ZM223 80H224V81H223Z"/><path fill="#000008" fill-opacity="1.000" d="M264 79H265V80H264Z"/><path fill="#000800" fill-opacity="1.000" d="M138 68H139V69H138ZM187 68H188V69H187ZM211 68H212V69H211ZM129 69H130V70H129ZM135 69H136V70H135ZM139 69H141V70H139ZM167 69H168V70H167ZM171 69H173V70H171ZM187 69H188V70H187ZM194 69H196V70H194ZM199 69H200V70H199ZM222 69H223V70H222ZM271 69H272V70H271ZM121 70H122V71H121ZM129 70H130V71H129ZM149 70H150V71H149ZM154 70H155V71H154ZM159 70H160V71H159ZM173 70H174V71H173ZM193 70H194V71H193ZM196 70H197V71H196ZM213 70H214V71H213ZM219 70H221V71H219ZM227 70H228V71H227ZM230 70H231V71H230ZM236 70H237V71H236ZM242 70H243V71H242ZM252 70H253V71H252ZM261 70H262V71H261ZM270 70H271V71H270ZM295 70H296V71H295ZM192 71H193V72H192ZM209 71H210V72H209ZM214 71H215V72H214ZM236 71H237V72H236ZM269 71H270V72H269ZM285 71H286V72H285ZM153 72H154V73H153ZM197 72H198V73H197ZM208 72H209V73H208ZM119 73H120V74H119ZM235 73H236V74H235ZM128 77H129V78H128ZM178 77H179V78H178ZM211 77H212V78H211ZM127 78H128V79H127ZM136 78H137V79H136ZM161 78H162V79H161ZM164 78H165V79H164ZM187 78H188V79H187ZM198 78H199V79H198ZM203 78H204V79H203ZM205 78H206V79H205ZM271 78H273V79H271ZM227 81H228V82H227ZM267 81H268V82H267Z"/><path fill="#000820" fill-opacity="1.000" d="M309 41H310V42H309ZM10 45H11V46H10ZM240 45H241V46H240ZM209 79H210V80H209ZM272 81H273V82H272ZM297 81H298V82H297Z"/><path fill="#001018" fill-opacity="1.000" d="M10 37H11V38H10ZM94 37H95V38H94ZM150 37H152V38H150ZM164 37H165V38H164ZM240 37H241V38H240ZM300 37H302V38H300ZM303 37H304V38H303ZM90 45H91V46H90ZM189 67H190V68H189ZM169 80H170V81H169Z"/><path fill="#001020" fill-opacity="1.000" d="M309 40H310V41H309ZM309 42H310V43H309ZM89 44H90V45H89ZM91 45H92V46H91ZM232 45H233V46H232Z"/><path fill="#001810" fill-opacity="1.000" d="M98 37H100V38H98ZM12 42H13V43H12ZM160 44H161V45H160Z"/><path fill="#001818" fill-opacity="1.000" d="M7 37H8V38H7ZM9 37H10V38H9ZM18 37H20V38H18ZM159 37H160V38H159ZM241 37H242V38H241ZM298 37H300V38H298ZM302 37H303V38H302ZM17 38H18V39H17ZM85 38H86V39H85ZM91 38H92V39H91ZM159 38H161V39H159ZM164 38H165V39H164ZM231 38H232V39H231ZM238 38H239V39H238ZM163 44H164V45H163Z"/><path fill="#001820" fill-opacity="1.000" d="M232 37H233V38H232ZM18 38H19V39H18ZM92 38H93V39H92ZM163 38H164V39H163ZM232 38H233V39H232Z"/><path fill="#002018" fill-opacity="1.000" d="M0 38H7V39H0ZM20 38H85V39H20ZM97 38H149V39H97ZM153 38H155V39H153ZM167 38H230V39H167ZM242 38H244V39H242ZM247 38H303V39H247ZM306 38H308V39H306ZM12 40H13V41H12ZM12 41H13V42H12Z"/><path fill="#002020" fill-opacity="1.000" d="M8 38H12V39H8ZM16 38H17V39H16ZM19 38H20V39H19ZM93 38H97V39H93ZM149 38H153V39H149ZM155 38H159V39H155ZM165 38H167V39H165ZM230 38H231V39H230ZM233 38H234V39H233ZM239 38H242V39H239ZM244 38H247V39H244ZM12 39H13V40H12ZM86 39H87V40H86ZM160 39H161V40H160ZM86 40H87V41H86ZM86 41H87V42H86ZM86 42H87V43H86ZM86 43H87V44H86Z"/><path fill="#002028" fill-opacity="1.000" d="M90 38H91V39H90Z"/><path fill="#002030" fill-opacity="1.000" d="M9 44H11V45H9ZM18 44H19V45H18ZM96 44H97V45H96ZM231 44H233V45H231Z"/><path fill="#002820" fill-opacity="1.000" d="M7 38H8V39H7ZM303 38H304V39H303ZM12 43H13V44H12ZM306 44H308V45H306Z"/><path fill="#002828" fill-opacity="1.000" d="M163 39H164V40H163ZM237 39H238V40H237ZM160 43H161V44H160ZM85 44H86V45H85ZM91 44H92V45H91ZM159 44H160V45H159ZM164 44H165V45H164ZM229 44H230V45H229ZM295 44H298V45H295ZM302 44H303V45H302Z"/><path fill="#002830" fill-opacity="1.000" d="M7 44H8V45H7ZM11 44H12V45H11ZM17 44H18V45H17ZM20 44H21V45H20ZM92 44H96V45H92ZM97 44H98V45H97ZM149 44H153V45H149ZM155 44H156V45H155ZM230 44H231V45H230ZM233 44H234V45H233ZM238 44H239V45H238ZM242 44H247V45H242ZM300 44H301V45H300Z"/><path fill="#002838" fill-opacity="1.000" d="M8 44H9V45H8ZM19 44H20V45H19ZM156 44H158V45H156ZM239 44H242V45H239Z"/><path fill="#003028" fill-opacity="1.000" d="M237 43H238V44H237ZM0 44H6V45H0ZM22 44H85V45H22ZM102 44H149V45H102ZM167 44H229V45H167ZM247 44H295V45H247ZM298 44H299V45H298Z"/><path fill="#003030" fill-opacity="1.000" d="M160 40H161V41H160ZM237 40H238V41H237ZM160 41H161V42H160ZM237 41H238V42H237ZM237 42H238V43H237ZM163 43H164V44H163ZM6 44H7V45H6ZM16 44H17V45H16ZM21 44H22V45H21ZM90 44H91V45H90ZM98 44H102V45H98ZM153 44H155V45H153ZM158 44H159V45H158ZM165 44H167V45H165ZM299 44H300V45H299ZM301 44H302V45H301ZM303 44H304V45H303Z"/><path fill="#003830" fill-opacity="1.000" d="M160 42H161V43H160Z"/><path fill="#003838" fill-opacity="1.000" d="M234 42H235V43H234Z"/><path fill="#003840" fill-opacity="1.000" d="M163 40H164V41H163ZM234 40H235V41H234ZM163 41H164V42H163ZM234 41H235V42H234ZM163 42H164V43H163Z"/><path fill="#004038" fill-opacity="1.000" d="M305 44H306V45H305Z"/><path fill="#004040" fill-opacity="1.000" d="M304 44H305V45H304Z"/><path fill="#004840" fill-opacity="1.000" d="M89 42H90V43H89Z"/><path fill="#004848" fill-opacity="1.000" d="M89 41H90V42H89Z"/><path fill="#004850" fill-opacity="1.000" d="M308 42H309V43H308Z"/><path fill="#004858" fill-opacity="1.000" d="M308 41H309V42H308Z"/><path fill="#005048" fill-opacity="1.000" d="M15 41H16V42H15Z"/><path fill="#080000" fill-opacity="1.000" d="M309 45H310V46H309ZM152 69H153V70H152ZM158 69H159V70H158ZM200 69H201V70H200ZM126 70H127V71H126ZM184 70H185V71H184ZM255 70H256V71H255ZM290 72H291V73H290ZM169 73H170V74H169ZM273 73H274V74H273ZM261 75H262V76H261ZM289 75H290V76H289ZM145 76H146V77H145ZM288 76H289V77H288ZM124 78H125V79H124ZM141 78H142V79H141ZM146 78H147V79H146ZM152 78H153V79H152ZM163 78H164V79H163ZM236 78H237V79H236ZM246 78H247V79H246ZM285 78H286V79H285ZM147 79H148V80H147Z"/><path fill="#080020" fill-opacity="1.000" d="M156 45H158V46H156Z"/><path fill="#080800" fill-opacity="1.000" d="M186 68H187V69H186ZM131 69H132V70H131ZM136 69H137V70H136ZM151 69H152V70H151ZM163 69H164V70H163ZM168 69H170V70H168ZM186 69H187V70H186ZM190 69H192V70H190ZM197 69H198V70H197ZM201 69H203V70H201ZM207 69H208V70H207ZM217 69H218V70H217ZM260 69H261V70H260ZM272 69H273V70H272ZM125 70H126V71H125ZM127 70H129V71H127ZM134 70H135V71H134ZM136 70H137V71H136ZM142 70H143V71H142ZM150 70H151V71H150ZM155 70H156V71H155ZM166 70H167V71H166ZM171 70H172V71H171ZM174 70H176V71H174ZM177 70H178V71H177ZM179 70H180V71H179ZM185 70H186V71H185ZM188 70H189V71H188ZM190 70H192V71H190ZM199 70H200V71H199ZM202 70H203V71H202ZM204 70H206V71H204ZM207 70H208V71H207ZM210 70H211V71H210ZM215 70H217V71H215ZM221 70H222V71H221ZM224 70H225V71H224ZM229 70H230V71H229ZM232 70H235V71H232ZM239 70H240V71H239ZM241 70H242V71H241ZM244 70H246V71H244ZM256 70H258V71H256ZM262 70H264V71H262ZM273 70H274V71H273ZM278 70H280V71H278ZM282 70H283V71H282ZM284 70H285V71H284ZM288 70H290V71H288ZM293 70H295V71H293ZM298 70H301V71H298ZM137 71H138V72H137ZM143 71H144V72H143ZM148 71H149V72H148ZM154 71H155V72H154ZM170 71H171V72H170ZM181 71H182V72H181ZM187 71H188V72H187ZM198 71H199V72H198ZM220 71H221V72H220ZM247 71H248V72H247ZM263 71H265V72H263ZM297 71H298V72H297ZM225 72H226V73H225ZM230 72H231V73H230ZM252 72H253V73H252ZM274 72H275V73H274ZM279 72H280V73H279ZM285 72H286V73H285ZM296 72H297V73H296ZM147 73H148V74H147ZM163 73H164V74H163ZM175 73H176V74H175ZM185 73H186V74H185ZM229 73H230V74H229ZM241 73H242V74H241ZM279 73H280V74H279ZM284 73H285V74H284ZM301 73H302V74H301ZM124 74H125V75H124ZM163 74H164V75H163ZM190 74H191V75H190ZM234 74H235V75H234ZM295 74H296V75H295ZM300 74H301V75H300ZM173 75H174V76H173ZM179 75H180V76H179ZM206 75H207V76H206ZM256 75H257V76H256ZM272 75H273V76H272ZM283 75H284V76H283ZM300 75H301V76H300ZM118 76H119V77H118ZM140 76H141V77H140ZM151 76H152V77H151ZM156 76H157V77H156ZM162 76H163V77H162ZM184 76H185V77H184ZM195 76H196V77H195ZM233 76H234V77H233ZM255 76H256V77H255ZM277 76H278V77H277ZM282 76H284V77H282ZM294 76H295V77H294ZM134 77H135V78H134ZM139 77H140V78H139ZM150 77H151V78H150ZM161 77H162V78H161ZM167 77H168V78H167ZM172 77H173V78H172ZM189 77H190V78H189ZM205 77H206V78H205ZM238 77H239V78H238ZM243 77H244V78H243ZM255 77H256V78H255ZM260 77H261V78H260ZM293 77H294V78H293ZM298 77H299V78H298ZM126 78H127V79H126ZM145 78H146V79H145ZM148 78H150V79H148ZM153 78H154V79H153ZM159 78H160V79H159ZM170 78H172V79H170ZM180 78H181V79H180ZM191 78H192V79H191ZM193 78H194V79H193ZM196 78H198V79H196ZM199 78H200V79H199ZM202 78H203V79H202ZM212 78H214V79H212ZM220 78H221V79H220ZM224 78H225V79H224ZM241 78H242V79H241ZM244 78H245V79H244ZM250 78H251V79H250ZM253 78H254V79H253ZM257 78H258V79H257ZM265 78H266V79H265ZM269 78H270V79H269ZM274 78H275V79H274ZM280 78H282V79H280ZM291 78H292V79H291ZM297 78H298V79H297ZM206 79H207V80H206Z"/><path fill="#080808" fill-opacity="1.000" d="M137 69H138V70H137ZM240 69H241V70H240ZM296 71H297V72H296ZM248 78H250V79H248ZM275 78H276V79H275Z"/><path fill="#080818" fill-opacity="1.000" d="M118 71H119V72H118Z"/><path fill="#080820" fill-opacity="1.000" d="M9 45H10V46H9ZM18 45H20V46H18ZM231 45H232V46H231ZM298 66H299V67H298ZM273 80H274V81H273ZM297 80H299V81H297Z"/><path fill="#081000" fill-opacity="1.000" d="M196 69H197V70H196ZM223 69H224V70H223ZM144 70H145V71H144ZM151 70H152V71H151ZM160 70H161V71H160ZM187 70H188V71H187ZM189 70H190V71H189ZM198 70H199V71H198ZM203 70H204V71H203ZM211 70H213V71H211ZM226 70H227V71H226ZM246 70H247V71H246ZM250 70H252V71H250ZM266 70H267V71H266ZM276 70H278V71H276ZM121 71H122V72H121ZM159 71H160V72H159ZM165 71H166V72H165ZM176 71H177V72H176ZM203 71H204V72H203ZM242 71H243V72H242ZM252 71H254V72H252ZM137 72H138V73H137ZM142 72H143V73H142ZM159 72H160V73H159ZM191 72H192V73H191ZM213 72H215V73H213ZM219 72H220V73H219ZM280 72H281V73H280ZM130 73H131V74H130ZM136 73H137V74H136ZM152 73H154V74H152ZM197 73H198V74H197ZM208 73H209V74H208ZM207 74H208V75H207ZM240 74H241V75H240ZM184 75H185V76H184ZM178 76H179V77H178ZM211 76H212V77H211ZM217 76H218V77H217ZM239 76H240V77H239ZM155 77H156V78H155ZM194 77H195V78H194ZM210 77H211V78H210ZM216 77H217V78H216ZM222 77H223V78H222ZM232 77H233V78H232ZM121 78H122V79H121ZM137 78H138V79H137ZM221 78H222V79H221ZM239 78H240V79H239ZM262 78H263V79H262Z"/><path fill="#081008" fill-opacity="1.000" d="M128 69H129V70H128ZM138 69H139V70H138ZM203 69H204V70H203ZM261 69H262V70H261ZM237 70H238V71H237ZM160 78H161V79H160ZM296 78H297V79H296Z"/><path fill="#081010" fill-opacity="1.000" d="M15 34H16V35H15ZM89 34H90V35H89ZM251 80H252V81H251Z"/><path fill="#081018" fill-opacity="1.000" d="M304 12H305V13H304ZM306 22H307V23H306ZM299 23H300V24H299ZM308 23H309V24H308ZM297 26H298V27H297ZM297 27H298V28H297ZM7 29H9V30H7ZM20 29H22V30H20ZM159 29H160V30H159ZM164 29H165V30H164ZM163 30H164V31H163ZM312 30H313V31H312ZM89 31H90V32H89ZM234 31H235V32H234ZM311 32H312V33H311ZM301 36H302V37H301ZM235 40H236V41H235ZM162 43H163V44H162ZM147 66H148V67H147ZM153 66H154V67H153ZM201 67H202V68H201ZM234 67H235V68H234ZM140 68H141V69H140ZM266 68H267V69H266ZM278 68H279V69H278ZM133 69H134V70H133ZM153 79H154V80H153ZM167 79H168V80H167ZM182 79H183V80H182ZM258 79H259V80H258ZM277 79H278V80H277ZM174 80H175V81H174ZM180 80H181V81H180ZM194 80H195V81H194ZM236 80H237V81H236ZM264 80H265V81H264ZM249 81H250V82H249Z"/><path fill="#081020" fill-opacity="1.000" d="M92 45H93V46H92ZM128 66H129V67H128ZM194 66H195V67H194ZM121 67H122V68H121ZM239 68H240V69H239ZM143 80H144V81H143ZM192 80H193V81H192ZM218 80H219V81H218ZM271 81H272V82H271Z"/><path fill="#081800" fill-opacity="1.000" d="M192 72H193V73H192Z"/><path fill="#081818" fill-opacity="1.000" d="M120 68H121V69H120Z"/><path fill="#081820" fill-opacity="1.000" d="M127 67H128V68H127ZM216 67H217V68H216ZM291 80H292V81H291ZM145 81H146V82H145Z"/><path fill="#083030" fill-opacity="1.000" d="M234 39H235V40H234Z"/><path fill="#084040" fill-opacity="1.000" d="M234 43H235V44H234Z"/><path fill="#084848" fill-opacity="1.000" d="M89 43H90V44H89Z"/><path fill="#085050" fill-opacity="1.000" d="M89 40H90V41H89ZM308 40H309V41H308Z"/><path fill="#085850" fill-opacity="1.000" d="M15 42H16V43H15Z"/><path fill="#100000" fill-opacity="1.000" d="M251 74H252V75H251Z"/><path fill="#100800" fill-opacity="1.000" d="M124 70H125V71H124ZM131 70H132V71H131ZM140 70H141V71H140ZM146 70H148V71H146ZM157 70H158V71H157ZM200 70H201V71H200ZM206 70H207V71H206ZM217 70H218V71H217ZM240 70H241V71H240ZM249 70H250V71H249ZM126 71H127V72H126ZM132 71H133V72H132ZM120 72H121V73H120ZM126 72H127V73H126ZM164 72H165V73H164ZM247 72H248V73H247ZM257 72H258V73H257ZM186 73H187V74H186ZM202 73H203V74H202ZM246 73H247V74H246ZM251 73H252V74H251ZM257 73H258V74H257ZM263 73H264V74H263ZM268 73H269V74H268ZM290 73H291V74H290ZM119 74H120V75H119ZM125 74H126V75H125ZM141 74H142V75H141ZM157 74H158V75H157ZM174 74H175V75H174ZM196 74H197V75H196ZM212 74H213V75H212ZM218 74H219V75H218ZM229 74H230V75H229ZM245 74H246V75H245ZM256 74H257V75H256ZM262 74H263V75H262ZM273 74H274V75H273ZM278 74H279V75H278ZM284 74H285V75H284ZM289 74H290V75H289ZM129 75H130V76H129ZM135 75H136V76H135ZM140 75H141V76H140ZM157 75H158V76H157ZM168 75H169V76H168ZM195 75H196V76H195ZM201 75H202V76H201ZM217 75H218V76H217ZM223 75H224V76H223ZM228 75H229V76H228ZM239 75H240V76H239ZM245 75H246V76H245ZM278 75H279V76H278ZM294 75H295V76H294ZM134 76H135V77H134ZM189 76H190V77H189ZM228 76H229V77H228ZM244 76H245V77H244ZM250 76H251V77H250ZM266 76H267V77H266ZM123 77H124V78H123ZM200 77H201V78H200ZM271 77H272V78H271ZM125 78H126V79H125ZM130 78H131V79H130ZM132 78H133V79H132ZM147 78H148V79H147ZM157 78H158V79H157ZM162 78H163V79H162ZM169 78H170V79H169ZM174 78H177V79H174ZM190 78H191V79H190ZM200 78H202V79H200ZM206 78H208V79H206ZM219 78H220V79H219ZM225 78H226V79H225ZM235 78H236V79H235ZM252 78H253V79H252Z"/><path fill="#100808" fill-opacity="1.000" d="M140 78H141V79H140ZM156 78H157V79H156ZM168 78H169V79H168ZM184 78H185V79H184ZM229 78H230V79H229ZM270 78H271V79H270ZM162 79H164V80H162Z"/><path fill="#100810" fill-opacity="1.000" d="M185 79H186V80H185Z"/><path fill="#100818" fill-opacity="1.000" d="M119 79H120V80H119ZM132 79H133V80H132Z"/><path fill="#101000" fill-opacity="1.000" d="M130 69H131V70H130ZM122 70H124V71H122ZM130 70H131V71H130ZM135 70H136V71H135ZM139 70H140V71H139ZM141 70H142V71H141ZM145 70H146V71H145ZM153 70H154V71H153ZM158 70H159V71H158ZM161 70H164V71H161ZM167 70H170V71H167ZM178 70H179V71H178ZM183 70H184V71H183ZM186 70H187V71H186ZM194 70H196V71H194ZM197 70H198V71H197ZM201 70H202V71H201ZM218 70H219V71H218ZM222 70H224V71H222ZM228 70H229V71H228ZM254 70H255V71H254ZM260 70H261V71H260ZM267 70H268V71H267ZM271 70H273V71H271ZM283 70H284V71H283ZM131 71H132V72H131ZM153 71H154V72H153ZM231 71H232V72H231ZM241 71H242V72H241ZM258 71H259V72H258ZM125 72H126V73H125ZM131 72H132V73H131ZM148 72H149V73H148ZM170 72H171V73H170ZM175 72H176V73H175ZM180 72H182V73H180ZM186 72H187V73H186ZM202 72H204V73H202ZM224 72H225V73H224ZM236 72H237V73H236ZM241 72H242V73H241ZM246 72H247V73H246ZM258 72H259V73H258ZM263 72H264V73H263ZM268 72H270V73H268ZM120 73H121V74H120ZM125 73H126V74H125ZM131 73H132V74H131ZM141 73H143V74H141ZM158 73H159V74H158ZM174 73H175V74H174ZM180 73H181V74H180ZM191 73H192V74H191ZM196 73H197V74H196ZM207 73H208V74H207ZM213 73H214V74H213ZM218 73H219V74H218ZM224 73H225V74H224ZM230 73H231V74H230ZM240 73H241V74H240ZM252 73H253V74H252ZM262 73H263V74H262ZM274 73H275V74H274ZM295 73H297V74H295ZM130 74H131V75H130ZM136 74H137V75H136ZM146 74H148V75H146ZM185 74H186V75H185ZM201 74H202V75H201ZM223 74H224V75H223ZM267 74H268V75H267ZM146 75H147V76H146ZM162 75H163V76H162ZM185 75H186V76H185ZM190 75H191V76H190ZM212 75H213V76H212ZM234 75H235V76H234ZM299 75H300V76H299ZM123 76H124V77H123ZM129 76H130V77H129ZM167 76H168V77H167ZM173 76H174V77H173ZM206 76H207V77H206ZM222 76H223V77H222ZM227 76H228V77H227ZM260 76H262V77H260ZM271 76H273V77H271ZM122 77H123V78H122ZM129 77H130V78H129ZM145 77H146V78H145ZM156 77H157V78H156ZM166 77H167V78H166ZM183 77H184V78H183ZM188 77H189V78H188ZM221 77H222V78H221ZM227 77H228V78H227ZM233 77H234V78H233ZM244 77H245V78H244ZM254 77H255V78H254ZM265 77H266V78H265ZM276 77H277V78H276ZM282 77H283V78H282ZM287 77H288V78H287ZM120 78H121V79H120ZM142 78H144V79H142ZM158 78H159V79H158ZM165 78H166V79H165ZM181 78H182V79H181ZM215 78H216V79H215ZM230 78H232V79H230ZM234 78H235V79H234ZM245 78H246V79H245ZM247 78H248V79H247ZM251 78H252V79H251ZM264 78H265V79H264Z"/><path fill="#101008" fill-opacity="1.000" d="M153 69H154V70H153ZM234 69H235V70H234ZM137 70H138V71H137ZM243 70H244V71H243ZM292 70H293V71H292ZM225 71H226V72H225ZM230 71H231V72H230ZM274 71H275V72H274ZM286 71H287V72H286ZM299 76H300V77H299ZM129 78H130V79H129ZM154 78H155V79H154ZM177 78H178V79H177ZM192 78H193V79H192ZM223 78H224V79H223ZM226 78H227V79H226ZM259 78H260V79H259ZM273 78H274V79H273ZM286 78H287V79H286ZM250 79H251V80H250Z"/><path fill="#101010" fill-opacity="1.000" d="M264 67H265V68H264ZM123 68H124V69H123ZM137 68H138V69H137ZM124 69H125V70H124ZM159 69H160V70H159ZM244 69H245V70H244ZM255 69H256V70H255ZM298 69H299V70H298ZM287 70H288V71H287ZM297 70H298V71H297ZM291 72H292V73H291ZM135 78H136V79H135ZM150 78H151V79H150ZM279 78H280V79H279Z"/><path fill="#101018" fill-opacity="1.000" d="M305 11H306V12H305ZM300 23H302V24H300ZM307 23H308V24H307ZM310 24H311V25H310ZM298 25H299V26H298ZM310 25H311V26H310ZM6 29H7V30H6ZM11 29H12V30H11ZM16 29H17V30H16ZM90 29H91V30H90ZM233 29H234V30H233ZM89 30H90V31H89ZM234 30H235V31H234ZM310 33H311V34H310ZM233 35H234V36H233ZM308 35H311V36H308ZM306 36H307V37H306ZM90 47H91V48H90ZM304 47H306V48H304ZM241 66H242V67H241ZM280 67H281V68H280ZM259 68H260V69H259ZM299 68H300V69H299ZM219 79H220V80H219ZM241 79H242V80H241ZM249 79H250V80H249ZM284 79H285V80H284ZM222 80H223V81H222Z"/><path fill="#101020" fill-opacity="1.000" d="M248 79H249V80H248Z"/><path fill="#101800" fill-opacity="1.000" d="M172 70H173V71H172ZM238 70H239V71H238ZM186 71H187V72H186ZM197 71H198V72H197ZM219 71H220V72H219ZM136 72H137V73H136ZM158 72H159V73H158ZM235 72H236V73H235ZM219 73H220V74H219ZM191 74H192V75H191ZM216 76H217V77H216Z"/><path fill="#101808" fill-opacity="1.000" d="M118 77H119V78H118Z"/><path fill="#101818" fill-opacity="1.000" d="M311 28H312V29H311ZM315 29H316V30H315ZM15 31H16V32H15ZM15 33H16V34H15ZM299 35H300V36H299ZM249 68H250V69H249Z"/><path fill="#101820" fill-opacity="1.000" d="M305 12H306V13H305ZM304 13H305V14H304ZM299 24H300V25H299ZM309 24H310V25H309ZM298 26H299V27H298ZM310 26H311V27H310ZM310 27H311V28H310ZM297 28H298V29H297ZM15 30H16V31H15ZM310 31H311V32H310ZM15 32H16V33H15ZM310 34H311V35H310ZM302 36H304V37H302ZM305 45H306V46H305ZM304 46H306V47H304ZM146 68H147V69H146Z"/><path fill="#102000" fill-opacity="1.000" d="M208 71H209V72H208Z"/><path fill="#102020" fill-opacity="1.000" d="M300 35H301V36H300ZM304 45H305V46H304Z"/><path fill="#104040" fill-opacity="1.000" d="M308 39H309V40H308Z"/><path fill="#104048" fill-opacity="1.000" d="M89 39H90V40H89Z"/><path fill="#105048" fill-opacity="1.000" d="M305 38H306V39H305ZM15 40H16V41H15ZM15 43H16V44H15Z"/><path fill="#105050" fill-opacity="1.000" d="M304 38H305V39H304ZM308 43H309V44H308Z"/><path fill="#180800" fill-opacity="1.000" d="M169 74H170V75H169ZM250 75H251V76H250ZM131 78H132V79H131Z"/><path fill="#181000" fill-opacity="1.000" d="M156 70H157V71H156ZM147 72H148V73H147ZM164 73H165V74H164ZM285 73H286V74H285ZM135 74H136V75H135ZM152 74H153V75H152ZM158 74H159V75H158ZM168 74H169V75H168ZM179 74H181V75H179ZM124 75H125V76H124ZM130 75H131V76H130ZM151 75H153V76H151ZM124 76H125V77H124ZM293 76H294V77H293ZM151 77H152V78H151ZM162 77H163V78H162ZM177 77H178V78H177Z"/><path fill="#181008" fill-opacity="1.000" d="M164 71H165V72H164ZM218 78H219V79H218Z"/><path fill="#181010" fill-opacity="1.000" d="M185 78H186V79H185Z"/><path fill="#181018" fill-opacity="1.000" d="M224 79H225V80H224Z"/><path fill="#181800" fill-opacity="1.000" d="M175 71H176V72H175ZM213 74H214V75H213ZM224 74H225V75H224ZM235 74H236V75H235ZM119 75H120V76H119ZM141 75H142V76H141ZM163 75H164V76H163ZM196 75H197V76H196ZM194 76H195V77H194ZM205 76H206V77H205ZM238 76H239V77H238ZM249 76H250V77H249ZM133 77H134V78H133ZM140 77H141V78H140ZM144 77H145V78H144ZM199 77H200V78H199Z"/><path fill="#181808" fill-opacity="1.000" d="M173 77H174V78H173Z"/><path fill="#181810" fill-opacity="1.000" d="M142 71H143V72H142ZM195 77H196V78H195Z"/><path fill="#181820" fill-opacity="1.000" d="M302 23H304V24H302ZM306 23H307V24H306ZM308 24H309V25H308Z"/><path fill="#182000" fill-opacity="1.000" d="M172 76H173V77H172Z"/><path fill="#182010" fill-opacity="1.000" d="M217 77H218V78H217Z"/><path fill="#182020" fill-opacity="1.000" d="M305 13H306V14H305ZM304 14H305V15H304ZM307 24H308V25H307ZM309 26H310V27H309ZM298 27H299V28H298ZM314 29H315V30H314ZM311 30H312V31H311ZM310 32H311V33H310ZM301 35H302V36H301Z"/><path fill="#182028" fill-opacity="1.000" d="M305 14H306V15H305ZM310 28H311V29H310ZM306 35H308V36H306Z"/><path fill="#184848" fill-opacity="1.000" d="M15 39H16V40H15Z"/><path fill="#18f8e0" fill-opacity="1.000" d="M231 41H232V42H231Z"/><path fill="#18ffe0" fill-opacity="1.000" d="M92 42H93V43H92ZM231 42H232V43H231Z"/><path fill="#18ffe8" fill-opacity="1.000" d="M165 41H166V42H165ZM151 42H152V43H151Z"/><path fill="#201000" fill-opacity="1.000" d="M202 74H203V75H202Z"/><path fill="#201800" fill-opacity="1.000" d="M169 72H170V73H169ZM246 74H247V75H246ZM257 74H258V75H257ZM268 74H269V75H268ZM290 74H291V75H290ZM135 76H136V77H135ZM146 76H147V77H146Z"/><path fill="#201808" fill-opacity="1.000" d="M277 75H278V76H277ZM184 77H185V78H184Z"/><path fill="#202000" fill-opacity="1.000" d="M138 71H139V72H138ZM149 71H150V72H149ZM279 74H280V75H279ZM207 75H208V76H207ZM229 75H230V76H229ZM240 75H241V76H240ZM255 75H256V76H255ZM288 75H289V76H288ZM139 76H140V77H139ZM183 76H184V77H183Z"/><path fill="#202008" fill-opacity="1.000" d="M266 75H267V76H266ZM206 77H207V78H206ZM239 77H240V78H239Z"/><path fill="#202010" fill-opacity="1.000" d="M127 71H128V72H127Z"/><path fill="#202020" fill-opacity="1.000" d="M300 24H301V25H300Z"/><path fill="#202028" fill-opacity="1.000" d="M304 15H305V16H304ZM299 25H300V26H299ZM299 26H300V27H299ZM294 29H295V30H294ZM308 34H310V35H308ZM302 35H303V36H302Z"/><path fill="#202800" fill-opacity="1.000" d="M160 71H161V72H160ZM226 71H227V72H226ZM179 76H180V77H179Z"/><path fill="#202808" fill-opacity="1.000" d="M193 71H194V72H193Z"/><path fill="#202828" fill-opacity="1.000" d="M305 15H306V16H305ZM301 24H302V25H301ZM298 28H299V29H298ZM309 32H310V33H309Z"/><path fill="#202830" fill-opacity="1.000" d="M304 16H306V17H304ZM295 29H296V30H295ZM313 29H314V30H313ZM310 30H311V31H310ZM90 34H91V35H90Z"/><path fill="#203030" fill-opacity="1.000" d="M0 34H6V35H0ZM22 34H86V35H22ZM102 34H149V35H102ZM152 34H155V35H152ZM167 34H230V35H167ZM242 34H244V35H242ZM247 34H293V35H247Z"/><path fill="#20f0e8" fill-opacity="1.000" d="M8 41H9V42H8Z"/><path fill="#20f8e0" fill-opacity="1.000" d="M17 41H18V42H17Z"/><path fill="#20f8e8" fill-opacity="1.000" d="M6 41H7V42H6ZM18 42H19V43H18Z"/><path fill="#20ffe0" fill-opacity="1.000" d="M91 41H93V42H91ZM153 41H154V42H153ZM10 42H11V43H10ZM91 42H92V43H91ZM152 42H154V43H152ZM242 42H244V43H242Z"/><path fill="#20ffe8" fill-opacity="1.000" d="M94 41H95V42H94ZM154 41H156V42H154ZM158 41H159V42H158ZM229 41H230V42H229ZM244 41H245V42H244ZM17 42H18V43H17ZM93 42H97V43H93ZM154 42H156V43H154ZM158 42H159V43H158ZM230 42H231V43H230ZM232 42H233V43H232ZM244 42H245V43H244ZM295 42H296V43H295Z"/><path fill="#20fff0" fill-opacity="1.000" d="M0 41H6V42H0ZM21 41H85V42H21ZM95 41H96V42H95ZM102 41H150V42H102ZM156 41H158V42H156ZM166 41H229V42H166ZM240 41H242V42H240ZM245 41H297V42H245ZM301 41H304V42H301ZM5 42H10V43H5ZM20 42H23V43H20ZM97 42H98V43H97ZM99 42H103V43H99ZM149 42H151V43H149ZM156 42H158V43H156ZM165 42H167V43H165ZM229 42H230V43H229ZM240 42H242V43H240ZM245 42H246V43H245ZM294 42H295V43H294ZM301 42H304V43H301Z"/><path fill="#282000" fill-opacity="1.000" d="M174 75H175V76H174ZM218 75H219V76H218ZM222 75H223V76H222ZM233 75H234V76H233ZM244 75H245V76H244ZM150 76H151V77H150ZM161 76H162V77H161ZM168 76H169V77H168Z"/><path fill="#282008" fill-opacity="1.000" d="M204 71H205V72H204ZM262 75H263V76H262Z"/><path fill="#282010" fill-opacity="1.000" d="M294 74H295V75H294ZM228 77H229V78H228Z"/><path fill="#282800" fill-opacity="1.000" d="M143 72H144V73H143ZM156 75H157V76H156ZM178 75H179V76H178ZM211 75H212V76H211ZM128 76H129V77H128ZM190 76H191V77H190Z"/><path fill="#282808" fill-opacity="1.000" d="M157 76H158V77H157Z"/><path fill="#282810" fill-opacity="1.000" d="M171 71H172V72H171ZM182 71H183V72H182ZM272 74H273V75H272ZM283 74H284V75H283ZM273 75H274V76H273Z"/><path fill="#282820" fill-opacity="1.000" d="M261 77H262V78H261Z"/><path fill="#282830" fill-opacity="1.000" d="M302 24H303V25H302ZM306 24H307V25H306ZM7 34H10V35H7ZM18 34H20V35H18ZM92 34H93V35H92ZM94 34H96V35H94ZM98 34H100V35H98ZM150 34H152V35H150ZM156 34H157V35H156ZM158 34H159V35H158ZM165 34H166V35H165ZM232 34H234V35H232ZM241 34H242V35H241ZM244 34H246V35H244ZM294 34H297V35H294ZM303 35H304V36H303Z"/><path fill="#282838" fill-opacity="1.000" d="M100 34H101V35H100Z"/><path fill="#283000" fill-opacity="1.000" d="M176 72H177V73H176Z"/><path fill="#283008" fill-opacity="1.000" d="M223 76H224V77H223Z"/><path fill="#283018" fill-opacity="1.000" d="M272 77H273V78H272Z"/><path fill="#283030" fill-opacity="1.000" d="M304 17H306V18H304ZM299 27H300V28H299ZM309 27H310V28H309ZM309 33H310V34H309ZM10 34H12V35H10ZM16 34H18V35H16ZM20 34H21V35H20ZM91 34H92V35H91ZM96 34H98V35H96ZM149 34H150V35H149ZM155 34H156V35H155ZM166 34H167V35H166ZM230 34H232V35H230ZM238 34H239V35H238ZM246 34H247V35H246ZM293 34H294V35H293ZM297 34H298V35H297Z"/><path fill="#283038" fill-opacity="1.000" d="M308 25H310V26H308ZM6 30H7V31H6ZM11 30H12V31H11ZM21 30H22V31H21ZM90 30H91V31H90ZM159 30H160V31H159ZM233 30H234V31H233ZM6 34H7V35H6ZM21 34H22V35H21ZM101 34H102V35H101ZM159 34H160V35H159Z"/><path fill="#28f8e0" fill-opacity="1.000" d="M306 41H307V42H306Z"/><path fill="#28f8f0" fill-opacity="1.000" d="M18 41H20V42H18ZM97 41H100V42H97Z"/><path fill="#28ffe0" fill-opacity="1.000" d="M152 41H153V42H152ZM242 41H244V42H242Z"/><path fill="#28ffe8" fill-opacity="1.000" d="M10 41H11V42H10ZM151 41H152V42H151ZM230 41H231V42H230ZM306 42H307V43H306Z"/><path fill="#28fff0" fill-opacity="1.000" d="M9 41H10V42H9ZM20 41H21V42H20ZM93 41H94V42H93ZM96 41H97V42H96ZM100 41H102V42H100ZM150 41H151V42H150ZM232 41H233V42H232ZM239 41H240V42H239ZM297 41H301V42H297ZM0 42H5V43H0ZM19 42H20V43H19ZM23 42H85V43H23ZM98 42H99V43H98ZM103 42H149V43H103ZM167 42H229V43H167ZM239 42H240V43H239ZM246 42H294V43H246ZM296 42H301V43H296Z"/><path fill="#302000" fill-opacity="1.000" d="M132 72H133V73H132Z"/><path fill="#302010" fill-opacity="1.000" d="M251 75H252V76H251Z"/><path fill="#302800" fill-opacity="1.000" d="M167 75H168V76H167ZM189 75H190V76H189ZM212 76H213V77H212Z"/><path fill="#302810" fill-opacity="1.000" d="M250 74H251V75H250ZM284 75H285V76H284ZM201 76H202V77H201ZM250 77H251V78H250Z"/><path fill="#302830" fill-opacity="1.000" d="M157 34H158V35H157ZM239 34H241V35H239Z"/><path fill="#303000" fill-opacity="1.000" d="M121 72H122V73H121ZM165 72H166V73H165ZM239 74H240V75H239ZM123 75H124V76H123ZM234 76H235V77H234Z"/><path fill="#303008" fill-opacity="1.000" d="M187 72H188V73H187ZM228 74H229V75H228Z"/><path fill="#303010" fill-opacity="1.000" d="M248 71H249V72H248ZM206 74H207V75H206ZM261 74H262V75H261ZM245 76H246V77H245Z"/><path fill="#303018" fill-opacity="1.000" d="M237 71H238V72H237ZM200 75H201V76H200Z"/><path fill="#303020" fill-opacity="1.000" d="M215 71H216V72H215ZM300 73H301V74H300ZM295 75H296V76H295ZM278 76H279V77H278Z"/><path fill="#303028" fill-opacity="1.000" d="M283 77H284V78H283Z"/><path fill="#303030" fill-opacity="1.000" d="M303 24H304V25H303ZM93 34H94V35H93ZM164 34H165V35H164Z"/><path fill="#303038" fill-opacity="1.000" d="M304 18H306V19H304ZM309 28H310V29H309ZM7 30H8V31H7ZM10 30H11V31H10ZM16 30H17V31H16ZM19 30H21V31H19ZM164 30H165V31H164ZM93 31H94V32H93ZM159 31H160V32H159ZM230 31H232V32H230ZM8 32H11V33H8ZM17 32H21V33H17ZM20 33H21V34H20ZM92 33H93V34H92ZM158 33H159V34H158ZM165 33H166V34H165ZM295 33H296V34H295ZM298 34H299V35H298Z"/><path fill="#303808" fill-opacity="1.000" d="M256 76H257V77H256Z"/><path fill="#303838" fill-opacity="1.000" d="M304 19H306V20H304ZM300 25H301V26H300ZM307 25H308V26H307ZM296 29H297V30H296ZM312 29H313V30H312ZM0 30H6V31H0ZM8 30H10V31H8ZM22 30H86V31H22ZM102 30H150V31H102ZM166 30H230V31H166ZM246 30H294V31H246ZM0 31H6V32H0ZM22 31H86V32H22ZM92 31H93V32H92ZM102 31H150V32H102ZM158 31H159V32H158ZM164 31H165V32H164ZM166 31H230V32H166ZM233 31H234V32H233ZM246 31H294V32H246ZM309 31H310V32H309ZM0 32H6V33H0ZM22 32H86V33H22ZM92 32H93V33H92ZM102 32H150V33H102ZM166 32H230V33H166ZM246 32H294V33H246ZM1 33H2V34H1ZM3 33H4V34H3ZM6 33H7V34H6ZM10 33H12V34H10ZM17 33H18V34H17ZM23 33H24V34H23ZM25 33H26V34H25ZM27 33H28V34H27ZM29 33H30V34H29ZM31 33H32V34H31ZM33 33H34V34H33ZM35 33H36V34H35ZM37 33H38V34H37ZM39 33H40V34H39ZM41 33H42V34H41ZM43 33H44V34H43ZM45 33H46V34H45ZM47 33H48V34H47ZM49 33H50V34H49ZM51 33H52V34H51ZM53 33H54V34H53ZM55 33H56V34H55ZM57 33H58V34H57ZM59 33H60V34H59ZM61 33H62V34H61ZM63 33H64V34H63ZM65 33H66V34H65ZM67 33H68V34H67ZM69 33H70V34H69ZM71 33H72V34H71ZM73 33H74V34H73ZM75 33H76V34H75ZM77 33H78V34H77ZM79 33H80V34H79ZM81 33H82V34H81ZM83 33H84V34H83ZM85 33H86V34H85ZM103 33H104V34H103ZM105 33H106V34H105ZM107 33H108V34H107ZM109 33H110V34H109ZM111 33H112V34H111ZM113 33H114V34H113ZM115 33H116V34H115ZM117 33H118V34H117ZM119 33H120V34H119ZM121 33H122V34H121ZM123 33H124V34H123ZM125 33H126V34H125ZM127 33H128V34H127ZM129 33H130V34H129ZM131 33H132V34H131ZM133 33H134V34H133ZM135 33H136V34H135ZM137 33H138V34H137ZM139 33H140V34H139ZM141 33H142V34H141ZM143 33H144V34H143ZM145 33H146V34H145ZM147 33H148V34H147ZM153 33H158V34H153ZM166 33H168V34H166ZM169 33H170V34H169ZM171 33H172V34H171ZM173 33H174V34H173ZM175 33H176V34H175ZM177 33H178V34H177ZM179 33H180V34H179ZM181 33H182V34H181ZM183 33H184V34H183ZM185 33H186V34H185ZM187 33H188V34H187ZM189 33H190V34H189ZM191 33H192V34H191ZM193 33H194V34H193ZM195 33H196V34H195ZM197 33H198V34H197ZM199 33H200V34H199ZM201 33H202V34H201ZM203 33H204V34H203ZM205 33H206V34H205ZM207 33H208V34H207ZM209 33H210V34H209ZM211 33H212V34H211ZM213 33H214V34H213ZM215 33H216V34H215ZM217 33H218V34H217ZM219 33H220V34H219ZM221 33H222V34H221ZM223 33H224V34H223ZM225 33H226V34H225ZM227 33H228V34H227ZM231 33H232V34H231ZM238 33H242V34H238ZM245 33H246V34H245ZM247 33H248V34H247ZM249 33H250V34H249ZM251 33H252V34H251ZM253 33H254V34H253ZM255 33H256V34H255ZM257 33H258V34H257ZM259 33H260V34H259ZM261 33H262V34H261ZM263 33H264V34H263ZM265 33H266V34H265ZM267 33H268V34H267ZM269 33H270V34H269ZM271 33H272V34H271ZM273 33H274V34H273ZM275 33H276V34H275ZM277 33H278V34H277ZM279 33H280V34H279ZM281 33H282V34H281ZM283 33H284V34H283ZM285 33H286V34H285ZM287 33H288V34H287ZM289 33H290V34H289ZM291 33H292V34H291Z"/><path fill="#303840" fill-opacity="1.000" d="M17 30H19V31H17ZM91 30H102V31H91ZM150 30H159V31H150ZM165 30H166V31H165ZM230 30H233V31H230ZM238 30H246V31H238ZM294 30H296V31H294ZM6 31H12V32H6ZM16 31H22V32H16ZM90 31H92V32H90ZM94 31H102V32H94ZM150 31H158V32H150ZM165 31H166V32H165ZM232 31H233V32H232ZM238 31H246V32H238ZM294 31H296V32H294ZM6 32H8V33H6ZM11 32H12V33H11ZM16 32H17V33H16ZM21 32H22V33H21ZM90 32H92V33H90ZM93 32H102V33H93ZM150 32H160V33H150ZM164 32H166V33H164ZM230 32H234V33H230ZM238 32H246V33H238ZM294 32H297V33H294ZM0 33H1V34H0ZM2 33H3V34H2ZM4 33H6V34H4ZM7 33H10V34H7ZM16 33H17V34H16ZM18 33H20V34H18ZM21 33H23V34H21ZM24 33H25V34H24ZM26 33H27V34H26ZM28 33H29V34H28ZM30 33H31V34H30ZM32 33H33V34H32ZM34 33H35V34H34ZM36 33H37V34H36ZM38 33H39V34H38ZM40 33H41V34H40ZM42 33H43V34H42ZM44 33H45V34H44ZM46 33H47V34H46ZM48 33H49V34H48ZM50 33H51V34H50ZM52 33H53V34H52ZM54 33H55V34H54ZM56 33H57V34H56ZM58 33H59V34H58ZM60 33H61V34H60ZM62 33H63V34H62ZM64 33H65V34H64ZM66 33H67V34H66ZM68 33H69V34H68ZM70 33H71V34H70ZM72 33H73V34H72ZM74 33H75V34H74ZM76 33H77V34H76ZM78 33H79V34H78ZM80 33H81V34H80ZM82 33H83V34H82ZM84 33H85V34H84ZM90 33H92V34H90ZM93 33H103V34H93ZM104 33H105V34H104ZM106 33H107V34H106ZM108 33H109V34H108ZM110 33H111V34H110ZM112 33H113V34H112ZM114 33H115V34H114ZM116 33H117V34H116ZM118 33H119V34H118ZM120 33H121V34H120ZM122 33H123V34H122ZM124 33H125V34H124ZM126 33H127V34H126ZM128 33H129V34H128ZM130 33H131V34H130ZM132 33H133V34H132ZM134 33H135V34H134ZM136 33H137V34H136ZM138 33H139V34H138ZM140 33H141V34H140ZM142 33H143V34H142ZM144 33H145V34H144ZM146 33H147V34H146ZM148 33H153V34H148ZM159 33H160V34H159ZM164 33H165V34H164ZM168 33H169V34H168ZM170 33H171V34H170ZM172 33H173V34H172ZM174 33H175V34H174ZM176 33H177V34H176ZM178 33H179V34H178ZM180 33H181V34H180ZM182 33H183V34H182ZM184 33H185V34H184ZM186 33H187V34H186ZM188 33H189V34H188ZM190 33H191V34H190ZM192 33H193V34H192ZM194 33H195V34H194ZM196 33H197V34H196ZM198 33H199V34H198ZM200 33H201V34H200ZM202 33H203V34H202ZM204 33H205V34H204ZM206 33H207V34H206ZM208 33H209V34H208ZM210 33H211V34H210ZM212 33H213V34H212ZM214 33H215V34H214ZM216 33H217V34H216ZM218 33H219V34H218ZM220 33H221V34H220ZM222 33H223V34H222ZM224 33H225V34H224ZM226 33H227V34H226ZM228 33H231V34H228ZM232 33H234V34H232ZM242 33H245V34H242ZM246 33H247V34H246ZM248 33H249V34H248ZM250 33H251V34H250ZM252 33H253V34H252ZM254 33H255V34H254ZM256 33H257V34H256ZM258 33H259V34H258ZM260 33H261V34H260ZM262 33H263V34H262ZM264 33H265V34H264ZM266 33H267V34H266ZM268 33H269V34H268ZM270 33H271V34H270ZM272 33H273V34H272ZM274 33H275V34H274ZM276 33H277V34H276ZM278 33H279V34H278ZM280 33H281V34H280ZM282 33H283V34H282ZM284 33H285V34H284ZM286 33H287V34H286ZM288 33H289V34H288ZM290 33H291V34H290ZM292 33H295V34H292ZM296 33H297V34H296Z"/><path fill="#304850" fill-opacity="1.000" d="M304 37H305V38H304Z"/><path fill="#30f0e0" fill-opacity="1.000" d="M21 40H22V41H21Z"/><path fill="#30f8f0" fill-opacity="1.000" d="M302 40H303V41H302Z"/><path fill="#30fff0" fill-opacity="1.000" d="M304 42H305V43H304Z"/><path fill="#30fff8" fill-opacity="1.000" d="M7 41H8V42H7Z"/><path fill="#383000" fill-opacity="1.000" d="M154 72H155V73H154ZM217 74H218V75H217ZM145 75H146V76H145Z"/><path fill="#383008" fill-opacity="1.000" d="M134 75H135V76H134Z"/><path fill="#383010" fill-opacity="1.000" d="M289 73H290V74H289Z"/><path fill="#383808" fill-opacity="1.000" d="M198 72H199V73H198Z"/><path fill="#383818" fill-opacity="1.000" d="M231 72H232V73H231ZM184 74H185V75H184Z"/><path fill="#383828" fill-opacity="1.000" d="M267 76H268V77H267ZM289 76H290V77H289Z"/><path fill="#383830" fill-opacity="1.000" d="M294 77H295V78H294Z"/><path fill="#383840" fill-opacity="1.000" d="M296 31H297V32H296ZM297 32H298V33H297ZM297 33H298V34H297Z"/><path fill="#384008" fill-opacity="1.000" d="M209 72H210V73H209Z"/><path fill="#384018" fill-opacity="1.000" d="M270 71H271V72H270ZM137 73H138V74H137Z"/><path fill="#384020" fill-opacity="1.000" d="M259 71H260V72H259Z"/><path fill="#384040" fill-opacity="1.000" d="M304 20H305V21H304ZM300 26H301V27H300ZM299 28H300V29H299ZM309 30H310V31H309ZM297 31H298V32H297ZM299 34H300V35H299Z"/><path fill="#384048" fill-opacity="1.000" d="M297 29H298V30H297ZM296 30H297V31H296Z"/><path fill="#385058" fill-opacity="1.000" d="M305 37H306V38H305Z"/><path fill="#38f0e0" fill-opacity="1.000" d="M7 40H8V41H7ZM10 40H11V41H10ZM17 40H18V41H17Z"/><path fill="#38f0e8" fill-opacity="1.000" d="M19 40H21V41H19ZM232 40H233V41H232ZM303 40H304V41H303Z"/><path fill="#38f0f0" fill-opacity="1.000" d="M239 40H240V41H239Z"/><path fill="#38f8e0" fill-opacity="1.000" d="M91 40H93V41H91ZM153 40H155V41H153Z"/><path fill="#38f8e8" fill-opacity="1.000" d="M0 40H7V41H0ZM22 40H85V41H22ZM93 40H96V41H93ZM102 40H150V41H102ZM155 40H156V41H155ZM165 40H230V41H165ZM241 40H242V41H241ZM244 40H301V41H244Z"/><path fill="#38f8f0" fill-opacity="1.000" d="M156 40H158V41H156ZM240 40H241V41H240ZM301 40H302V41H301Z"/><path fill="#38fff0" fill-opacity="1.000" d="M305 42H306V43H305Z"/><path fill="#38fff8" fill-opacity="1.000" d="M304 41H305V42H304Z"/><path fill="#403800" fill-opacity="1.000" d="M151 74H152V75H151ZM173 74H174V75H173Z"/><path fill="#403808" fill-opacity="1.000" d="M195 74H196V75H195Z"/><path fill="#403818" fill-opacity="1.000" d="M256 73H257V74H256ZM267 73H268V74H267ZM278 73H279V74H278Z"/><path fill="#404000" fill-opacity="1.000" d="M148 73H149V74H148Z"/><path fill="#404010" fill-opacity="1.000" d="M181 73H182V74H181Z"/><path fill="#404018" fill-opacity="1.000" d="M159 73H160V74H159ZM212 73H213V74H212ZM162 74H163V75H162Z"/><path fill="#404028" fill-opacity="1.000" d="M292 71H293V72H292Z"/><path fill="#404038" fill-opacity="1.000" d="M281 71H282V72H281Z"/><path fill="#404040" fill-opacity="1.000" d="M298 33H299V34H298Z"/><path fill="#404048" fill-opacity="1.000" d="M305 20H306V21H305ZM304 21H305V22H304ZM306 25H307V26H306ZM297 30H298V31H297ZM298 32H299V33H298Z"/><path fill="#404808" fill-opacity="1.000" d="M220 72H221V73H220Z"/><path fill="#404810" fill-opacity="1.000" d="M264 72H265V73H264Z"/><path fill="#404848" fill-opacity="1.000" d="M305 21H306V22H305ZM301 25H303V26H301ZM311 29H312V30H311Z"/><path fill="#404850" fill-opacity="1.000" d="M300 27H301V28H300ZM300 34H301V35H300Z"/><path fill="#40c0b8" fill-opacity="1.000" d="M7 39H8V40H7Z"/><path fill="#40c0c0" fill-opacity="1.000" d="M93 39H94V40H93Z"/><path fill="#40c8b8" fill-opacity="1.000" d="M303 39H304V40H303Z"/><path fill="#40c8c8" fill-opacity="1.000" d="M245 39H246V40H245Z"/><path fill="#40d0c0" fill-opacity="1.000" d="M295 39H296V40H295Z"/><path fill="#40d0c8" fill-opacity="1.000" d="M240 39H242V40H240Z"/><path fill="#40f0d8" fill-opacity="1.000" d="M306 40H307V41H306ZM11 41H12V42H11ZM159 41H160V42H159ZM159 42H160V43H159ZM153 43H154V44H153Z"/><path fill="#40f0e0" fill-opacity="1.000" d="M164 41H165V42H164ZM307 42H308V43H307ZM7 43H8V44H7ZM20 43H22V44H20ZM93 43H96V44H93ZM98 43H102V44H98ZM150 43H153V44H150ZM154 43H156V44H154ZM158 43H159V44H158ZM165 43H166V44H165ZM230 43H231V44H230ZM303 43H304V44H303Z"/><path fill="#40f0e8" fill-opacity="1.000" d="M96 40H102V41H96ZM150 40H152V41H150ZM157 43H158V44H157ZM241 43H242V44H241ZM302 43H303V44H302Z"/><path fill="#40f0f0" fill-opacity="1.000" d="M9 40H10V41H9ZM18 40H19V41H18Z"/><path fill="#40f8d8" fill-opacity="1.000" d="M16 42H17V43H16Z"/><path fill="#40f8e0" fill-opacity="1.000" d="M152 40H153V41H152ZM242 40H244V41H242ZM231 43H232V44H231Z"/><path fill="#40f8e8" fill-opacity="1.000" d="M158 40H159V41H158ZM230 40H232V41H230Z"/><path fill="#40f8f0" fill-opacity="1.000" d="M8 40H9V41H8Z"/><path fill="#40fff8" fill-opacity="1.000" d="M305 41H306V42H305Z"/><path fill="#483810" fill-opacity="1.000" d="M126 73H127V74H126Z"/><path fill="#484008" fill-opacity="1.000" d="M242 72H243V73H242Z"/><path fill="#484010" fill-opacity="1.000" d="M223 73H224V74H223Z"/><path fill="#484020" fill-opacity="1.000" d="M140 74H141V75H140Z"/><path fill="#484810" fill-opacity="1.000" d="M170 73H171V74H170ZM201 73H202V74H201ZM245 73H246V74H245Z"/><path fill="#484818" fill-opacity="1.000" d="M234 73H235V74H234ZM131 74H132V75H131Z"/><path fill="#484820" fill-opacity="1.000" d="M253 72H254V73H253Z"/><path fill="#484828" fill-opacity="1.000" d="M270 77H271V78H270Z"/><path fill="#484830" fill-opacity="1.000" d="M292 77H293V78H292Z"/><path fill="#484850" fill-opacity="1.000" d="M298 31H299V32H298ZM299 33H300V34H299Z"/><path fill="#485010" fill-opacity="1.000" d="M192 73H193V74H192Z"/><path fill="#485048" fill-opacity="1.000" d="M301 71H302V72H301Z"/><path fill="#485050" fill-opacity="1.000" d="M304 22H305V23H304ZM303 25H304V26H303ZM308 27H309V28H308ZM308 28H309V29H308ZM301 34H302V35H301ZM307 34H308V35H307Z"/><path fill="#48c0b8" fill-opacity="1.000" d="M230 39H231V40H230Z"/><path fill="#48c8c0" fill-opacity="1.000" d="M0 39H6V40H0ZM10 39H11V40H10ZM20 39H21V40H20ZM22 39H85V40H22ZM94 39H101V40H94ZM102 39H156V40H102ZM158 39H159V40H158ZM165 39H230V40H165ZM244 39H245V40H244ZM246 39H294V40H246ZM300 39H302V40H300Z"/><path fill="#48c8c8" fill-opacity="1.000" d="M9 39H10V40H9ZM19 39H20V40H19ZM156 39H158V40H156ZM239 39H240V40H239Z"/><path fill="#48d0b8" fill-opacity="1.000" d="M296 39H299V40H296Z"/><path fill="#48d0c0" fill-opacity="1.000" d="M6 39H7V40H6ZM21 39H22V40H21ZM294 39H295V40H294ZM299 39H300V40H299ZM302 39H303V40H302Z"/><path fill="#48d0c8" fill-opacity="1.000" d="M8 39H9V40H8ZM232 39H233V40H232Z"/><path fill="#48f0d8" fill-opacity="1.000" d="M243 43H244V44H243Z"/><path fill="#48f0e0" fill-opacity="1.000" d="M85 41H86V42H85ZM238 41H239V42H238ZM307 41H308V42H307ZM164 42H165V43H164ZM238 42H239V43H238ZM6 43H7V44H6ZM10 43H11V44H10ZM96 43H98V44H96ZM242 43H243V44H242ZM244 43H245V44H244ZM294 43H300V44H294ZM306 43H307V44H306Z"/><path fill="#48f0e8" fill-opacity="1.000" d="M233 41H234V42H233ZM85 42H86V43H85ZM0 43H6V44H0ZM8 43H9V44H8ZM18 43H20V44H18ZM22 43H85V44H22ZM102 43H150V44H102ZM156 43H157V44H156ZM166 43H230V44H166ZM239 43H241V44H239ZM245 43H294V44H245ZM300 43H302V44H300Z"/><path fill="#48f8e0" fill-opacity="1.000" d="M16 41H17V42H16ZM90 41H91V42H90ZM11 42H12V43H11ZM90 42H91V43H90ZM91 43H93V44H91Z"/><path fill="#48f8e8" fill-opacity="1.000" d="M17 43H18V44H17ZM232 43H233V44H232Z"/><path fill="#504008" fill-opacity="1.000" d="M129 74H130V75H129Z"/><path fill="#504808" fill-opacity="1.000" d="M120 74H121V75H120Z"/><path fill="#504820" fill-opacity="1.000" d="M190 73H191V74H190ZM203 73H204V74H203Z"/><path fill="#504830" fill-opacity="1.000" d="M262 72H263V73H262ZM281 77H282V78H281Z"/><path fill="#505010" fill-opacity="1.000" d="M215 77H216V78H215Z"/><path fill="#505020" fill-opacity="1.000" d="M214 73H215V74H214ZM259 77H260V78H259Z"/><path fill="#505028" fill-opacity="1.000" d="M251 72H252V73H251ZM225 73H226V74H225ZM226 77H227V78H226ZM237 77H238V78H237Z"/><path fill="#505030" fill-opacity="1.000" d="M240 72H241V73H240ZM273 72H274V73H273ZM204 77H205V78H204ZM248 77H249V78H248Z"/><path fill="#505038" fill-opacity="1.000" d="M275 72H276V73H275ZM286 72H287V73H286Z"/><path fill="#505040" fill-opacity="1.000" d="M284 72H285V73H284ZM295 72H296V73H295Z"/><path fill="#505050" fill-opacity="1.000" d="M299 32H300V33H299ZM290 71H291V72H290Z"/><path fill="#505058" fill-opacity="1.000" d="M305 22H306V23H305ZM308 26H309V27H308ZM298 30H299V31H298ZM308 33H309V34H308Z"/><path fill="#505060" fill-opacity="1.000" d="M304 36H305V37H304Z"/><path fill="#505820" fill-opacity="1.000" d="M218 72H219V73H218Z"/><path fill="#505858" fill-opacity="1.000" d="M306 34H307V35H306Z"/><path fill="#505860" fill-opacity="1.000" d="M298 29H299V30H298ZM310 29H311V30H310Z"/><path fill="#50c8c0" fill-opacity="1.000" d="M101 39H102V40H101ZM242 39H244V40H242Z"/><path fill="#50d0c8" fill-opacity="1.000" d="M17 39H18V40H17ZM91 39H93V40H91ZM231 39H232V40H231Z"/><path fill="#50d0d0" fill-opacity="1.000" d="M18 39H19V40H18Z"/><path fill="#50d8c8" fill-opacity="1.000" d="M11 43H12V44H11ZM90 43H91V44H90Z"/><path fill="#50d8d0" fill-opacity="1.000" d="M233 43H234V44H233Z"/><path fill="#50e0d0" fill-opacity="1.000" d="M16 43H17V44H16Z"/><path fill="#50e8d8" fill-opacity="1.000" d="M16 40H17V41H16ZM90 40H91V41H90Z"/><path fill="#50e8e0" fill-opacity="1.000" d="M164 40H165V41H164Z"/><path fill="#50f0e8" fill-opacity="1.000" d="M304 43H305V44H304Z"/><path fill="#50f0f0" fill-opacity="1.000" d="M9 43H10V44H9Z"/><path fill="#50f8e8" fill-opacity="1.000" d="M233 42H234V43H233Z"/><path fill="#50f8f0" fill-opacity="1.000" d="M304 40H306V41H304Z"/><path fill="#585008" fill-opacity="1.000" d="M179 73H180V74H179Z"/><path fill="#585010" fill-opacity="1.000" d="M142 74H143V75H142Z"/><path fill="#585020" fill-opacity="1.000" d="M182 77H183V78H182Z"/><path fill="#585028" fill-opacity="1.000" d="M153 74H154V75H153Z"/><path fill="#585030" fill-opacity="1.000" d="M168 73H169V74H168Z"/><path fill="#585818" fill-opacity="1.000" d="M157 73H158V74H157Z"/><path fill="#585820" fill-opacity="1.000" d="M236 73H237V74H236Z"/><path fill="#585828" fill-opacity="1.000" d="M193 77H194V78H193Z"/><path fill="#585830" fill-opacity="1.000" d="M146 73H147V74H146ZM160 77H161V78H160Z"/><path fill="#585840" fill-opacity="1.000" d="M246 71H247V72H246Z"/><path fill="#585848" fill-opacity="1.000" d="M257 71H258V72H257ZM279 71H280V72H279ZM298 76H299V77H298Z"/><path fill="#585860" fill-opacity="1.000" d="M304 23H305V24H304ZM300 28H301V29H300ZM308 32H309V33H308ZM302 34H303V35H302ZM305 36H306V37H305Z"/><path fill="#586020" fill-opacity="1.000" d="M124 73H125V74H124Z"/><path fill="#586028" fill-opacity="1.000" d="M207 72H208V73H207Z"/><path fill="#586038" fill-opacity="1.000" d="M229 72H230V73H229Z"/><path fill="#586048" fill-opacity="1.000" d="M152 72H153V73H152Z"/><path fill="#586060" fill-opacity="1.000" d="M305 23H306V24H305ZM299 31H300V32H299ZM308 31H309V32H308ZM300 33H301V34H300Z"/><path fill="#58b8b8" fill-opacity="1.000" d="M11 39H12V40H11ZM16 39H17V40H16ZM90 39H91V40H90ZM233 39H234V40H233Z"/><path fill="#58c8b8" fill-opacity="1.000" d="M306 39H307V40H306Z"/><path fill="#58e0d0" fill-opacity="1.000" d="M307 43H308V44H307Z"/><path fill="#58e0d8" fill-opacity="1.000" d="M307 40H308V41H307Z"/><path fill="#58e8d8" fill-opacity="1.000" d="M11 40H12V41H11ZM159 40H160V41H159ZM159 43H160V44H159Z"/><path fill="#58e8e0" fill-opacity="1.000" d="M85 40H86V41H85ZM233 40H234V41H233ZM238 40H239V41H238Z"/><path fill="#58f0e8" fill-opacity="1.000" d="M305 43H306V44H305Z"/><path fill="#605818" fill-opacity="1.000" d="M135 73H136V74H135Z"/><path fill="#605848" fill-opacity="1.000" d="M297 72H298V73H297Z"/><path fill="#605858" fill-opacity="1.000" d="M268 71H269V72H268Z"/><path fill="#606028" fill-opacity="1.000" d="M149 77H150V78H149ZM171 77H172V78H171Z"/><path fill="#606030" fill-opacity="1.000" d="M185 72H186V73H185ZM247 73H248V74H247ZM258 73H259V74H258ZM175 74H176V75H175ZM265 76H266V77H265Z"/><path fill="#606038" fill-opacity="1.000" d="M174 72H175V73H174ZM269 73H270V74H269ZM254 76H255V77H254ZM138 77H139V78H138Z"/><path fill="#606040" fill-opacity="1.000" d="M196 72H197V73H196Z"/><path fill="#606048" fill-opacity="1.000" d="M276 76H277V77H276ZM157 77H158V78H157Z"/><path fill="#606050" fill-opacity="1.000" d="M202 71H203V72H202ZM224 71H225V72H224ZM135 77H136V78H135Z"/><path fill="#606068" fill-opacity="1.000" d="M301 26H302V27H301ZM306 26H308V27H306ZM303 34H304V35H303ZM304 35H305V36H304Z"/><path fill="#606070" fill-opacity="1.000" d="M305 35H306V36H305Z"/><path fill="#606848" fill-opacity="1.000" d="M235 71H236V72H235Z"/><path fill="#606850" fill-opacity="1.000" d="M213 71H214V72H213ZM179 77H180V78H179Z"/><path fill="#606868" fill-opacity="1.000" d="M308 30H309V31H308ZM300 32H301V33H300Z"/><path fill="#606870" fill-opacity="1.000" d="M299 30H300V31H299ZM307 33H308V34H307Z"/><path fill="#60b8a8" fill-opacity="1.000" d="M307 39H308V40H307Z"/><path fill="#60c0b8" fill-opacity="1.000" d="M85 39H86V40H85ZM159 39H160V40H159Z"/><path fill="#60c0c0" fill-opacity="1.000" d="M164 39H165V40H164ZM238 39H239V40H238Z"/><path fill="#60d0c8" fill-opacity="1.000" d="M304 39H305V40H304Z"/><path fill="#60e0d8" fill-opacity="1.000" d="M238 43H239V44H238Z"/><path fill="#60e0e0" fill-opacity="1.000" d="M85 43H86V44H85Z"/><path fill="#60e8e0" fill-opacity="1.000" d="M164 43H165V44H164Z"/><path fill="#686018" fill-opacity="1.000" d="M164 74H165V75H164Z"/><path fill="#686028" fill-opacity="1.000" d="M186 74H187V75H186Z"/><path fill="#686030" fill-opacity="1.000" d="M197 74H198V75H197Z"/><path fill="#686040" fill-opacity="1.000" d="M287 76H288V77H287Z"/><path fill="#686820" fill-opacity="1.000" d="M208 74H209V75H208Z"/><path fill="#686838" fill-opacity="1.000" d="M232 76H233V77H232Z"/><path fill="#686848" fill-opacity="1.000" d="M169 71H170V72H169ZM191 71H192V72H191ZM147 75H148V76H147Z"/><path fill="#686858" fill-opacity="1.000" d="M158 71H159V72H158Z"/><path fill="#686860" fill-opacity="1.000" d="M180 71H181V72H180Z"/><path fill="#687030" fill-opacity="1.000" d="M127 77H128V78H127Z"/><path fill="#687040" fill-opacity="1.000" d="M280 73H281V74H280Z"/><path fill="#687050" fill-opacity="1.000" d="M130 72H131V73H130Z"/><path fill="#687070" fill-opacity="1.000" d="M304 24H306V25H304ZM301 27H302V28H301Z"/><path fill="#706048" fill-opacity="1.000" d="M124 77H125V78H124Z"/><path fill="#706828" fill-opacity="1.000" d="M136 75H137V76H136Z"/><path fill="#706838" fill-opacity="1.000" d="M141 72H142V73H141ZM163 72H164V73H163ZM219 74H220V75H219ZM243 76H244V77H243Z"/><path fill="#706848" fill-opacity="1.000" d="M125 75H126V76H125ZM168 77H169V78H168Z"/><path fill="#706850" fill-opacity="1.000" d="M146 77H147V78H146Z"/><path fill="#706860" fill-opacity="1.000" d="M291 73H292V74H291Z"/><path fill="#707030" fill-opacity="1.000" d="M158 75H159V76H158ZM180 75H181V76H180ZM221 76H222V77H221Z"/><path fill="#707038" fill-opacity="1.000" d="M230 74H231V75H230Z"/><path fill="#707040" fill-opacity="1.000" d="M122 71H123V72H122ZM241 74H242V75H241Z"/><path fill="#707048" fill-opacity="1.000" d="M191 75H192V76H191ZM210 76H211V77H210ZM190 77H191V78H190Z"/><path fill="#707050" fill-opacity="1.000" d="M245 77H246V78H245Z"/><path fill="#707058" fill-opacity="1.000" d="M201 77H202V78H201ZM223 77H224V78H223Z"/><path fill="#707078" fill-opacity="1.000" d="M303 26H304V27H303ZM309 29H310V30H309ZM306 33H307V34H306Z"/><path fill="#707840" fill-opacity="1.000" d="M144 71H145V72H144Z"/><path fill="#707878" fill-opacity="1.000" d="M302 26H303V27H302ZM299 29H300V30H299ZM300 31H301V32H300Z"/><path fill="#70d8d0" fill-opacity="1.000" d="M305 39H306V40H305Z"/><path fill="#787030" fill-opacity="1.000" d="M199 76H200V77H199Z"/><path fill="#787048" fill-opacity="1.000" d="M169 75H170V76H169ZM188 76H189V77H188Z"/><path fill="#787050" fill-opacity="1.000" d="M234 77H235V78H234Z"/><path fill="#787060" fill-opacity="1.000" d="M136 71H137V72H136Z"/><path fill="#787840" fill-opacity="1.000" d="M155 76H156V77H155Z"/><path fill="#787850" fill-opacity="1.000" d="M119 76H120V77H119ZM212 77H213V78H212Z"/><path fill="#787858" fill-opacity="1.000" d="M293 75H294V76H293ZM256 77H257V78H256Z"/><path fill="#787860" fill-opacity="1.000" d="M282 75H283V76H282Z"/><path fill="#787880" fill-opacity="1.000" d="M302 33H303V34H302Z"/><path fill="#788080" fill-opacity="1.000" d="M307 27H308V28H307ZM301 28H302V29H301ZM301 33H302V34H301ZM303 33H304V34H303Z"/><path fill="#807030" fill-opacity="1.000" d="M130 76H131V77H130Z"/><path fill="#807038" fill-opacity="1.000" d="M202 75H203V76H202Z"/><path fill="#807048" fill-opacity="1.000" d="M177 76H178V77H177Z"/><path fill="#807050" fill-opacity="1.000" d="M147 71H148V72H147Z"/><path fill="#807060" fill-opacity="1.000" d="M133 71H134V72H133Z"/><path fill="#807840" fill-opacity="1.000" d="M252 74H253V75H252Z"/><path fill="#807848" fill-opacity="1.000" d="M213 75H214V76H213ZM166 76H167V77H166Z"/><path fill="#807850" fill-opacity="1.000" d="M263 74H264V75H263ZM274 74H275V75H274ZM235 75H236V76H235ZM271 75H272V76H271ZM141 76H142V77H141Z"/><path fill="#808038" fill-opacity="1.000" d="M249 75H250V76H249Z"/><path fill="#808048" fill-opacity="1.000" d="M238 75H239V76H238ZM174 76H175V77H174Z"/><path fill="#808050" fill-opacity="1.000" d="M166 71H167V72H166ZM216 75H217V76H216Z"/><path fill="#808060" fill-opacity="1.000" d="M125 71H126V72H125ZM155 71H156V72H155ZM177 71H178V72H177ZM285 74H286V75H285ZM260 75H261V76H260ZM163 76H164V77H163Z"/><path fill="#808070" fill-opacity="1.000" d="M267 77H268V78H267Z"/><path fill="#808080" fill-opacity="1.000" d="M307 28H308V29H307ZM300 30H301V31H300ZM278 77H279V78H278Z"/><path fill="#808088" fill-opacity="1.000" d="M301 32H302V33H301Z"/><path fill="#808888" fill-opacity="1.000" d="M307 32H308V33H307Z"/><path fill="#808890" fill-opacity="1.000" d="M305 25H306V26H305Z"/><path fill="#888040" fill-opacity="1.000" d="M205 75H206V76H205ZM227 75H228V76H227Z"/><path fill="#888048" fill-opacity="1.000" d="M224 75H225V76H224ZM133 76H134V77H133Z"/><path fill="#888050" fill-opacity="1.000" d="M144 76H145V77H144Z"/><path fill="#888058" fill-opacity="1.000" d="M246 75H247V76H246ZM207 76H208V77H207Z"/><path fill="#888850" fill-opacity="1.000" d="M122 76H123V77H122Z"/><path fill="#888858" fill-opacity="1.000" d="M257 75H258V76H257Z"/><path fill="#888860" fill-opacity="1.000" d="M188 71H189V72H188Z"/><path fill="#888868" fill-opacity="1.000" d="M296 74H297V75H296Z"/><path fill="#888880" fill-opacity="1.000" d="M289 77H290V78H289Z"/><path fill="#888890" fill-opacity="1.000" d="M304 25H305V26H304Z"/><path fill="#889068" fill-opacity="1.000" d="M243 71H244V72H243Z"/><path fill="#889090" fill-opacity="1.000" d="M305 34H306V35H305Z"/><path fill="#908050" fill-opacity="1.000" d="M161 75H162V76H161Z"/><path fill="#908058" fill-opacity="1.000" d="M127 72H128V73H127Z"/><path fill="#908840" fill-opacity="1.000" d="M152 76H153V77H152Z"/><path fill="#908860" fill-opacity="1.000" d="M210 71H211V72H210ZM194 75H195V76H194ZM268 75H269V76H268Z"/><path fill="#908870" fill-opacity="1.000" d="M279 75H280V76H279Z"/><path fill="#909050" fill-opacity="1.000" d="M255 74H256V75H255ZM172 75H173V76H172ZM196 76H197V77H196Z"/><path fill="#909060" fill-opacity="1.000" d="M199 71H200V72H199ZM232 71H233V72H232Z"/><path fill="#909068" fill-opacity="1.000" d="M221 71H222V72H221ZM200 74H201V75H200ZM266 74H267V75H266ZM277 74H278V75H277ZM288 74H289V75H288ZM229 76H230V77H229Z"/><path fill="#909078" fill-opacity="1.000" d="M299 74H300V75H299Z"/><path fill="#909098" fill-opacity="1.000" d="M304 34H305V35H304Z"/><path fill="#909898" fill-opacity="1.000" d="M306 27H307V28H306ZM300 29H301V30H300ZM308 29H309V30H308ZM301 31H302V32H301ZM307 31H308V32H307ZM306 32H307V33H306Z"/><path fill="#989040" fill-opacity="1.000" d="M183 75H184V76H183Z"/><path fill="#989048" fill-opacity="1.000" d="M211 74H212V75H211ZM233 74H234V75H233Z"/><path fill="#989050" fill-opacity="1.000" d="M149 72H150V73H149ZM128 75H129V76H128ZM139 75H140V76H139Z"/><path fill="#989058" fill-opacity="1.000" d="M138 72H139V73H138ZM150 75H151V76H150Z"/><path fill="#989060" fill-opacity="1.000" d="M171 72H172V73H171ZM222 74H223V75H222ZM244 74H245V75H244ZM218 76H219V77H218Z"/><path fill="#989070" fill-opacity="1.000" d="M185 76H186V77H185Z"/><path fill="#989850" fill-opacity="1.000" d="M160 72H161V73H160Z"/><path fill="#989858" fill-opacity="1.000" d="M182 72H183V73H182Z"/><path fill="#989868" fill-opacity="1.000" d="M253 77H254V78H253Z"/><path fill="#989870" fill-opacity="1.000" d="M254 71H255V72H254Z"/><path fill="#989880" fill-opacity="1.000" d="M286 77H287V78H286Z"/><path fill="#9898a0" fill-opacity="1.000" d="M302 27H303V28H302Z"/><path fill="#98a0a0" fill-opacity="1.000" d="M302 28H303V29H302ZM301 30H302V31H301ZM307 30H308V31H307Z"/><path fill="#a09858" fill-opacity="1.000" d="M167 74H168V75H167Z"/><path fill="#a09860" fill-opacity="1.000" d="M178 74H179V75H178ZM143 77H144V78H143Z"/><path fill="#a09868" fill-opacity="1.000" d="M220 77H221V78H220Z"/><path fill="#a09870" fill-opacity="1.000" d="M242 77H243V78H242ZM264 77H265V78H264ZM275 77H276V78H275Z"/><path fill="#a09880" fill-opacity="1.000" d="M290 75H291V76H290ZM185 77H186V78H185Z"/><path fill="#a0a060" fill-opacity="1.000" d="M165 77H166V78H165Z"/><path fill="#a0a068" fill-opacity="1.000" d="M156 74H157V75H156ZM240 76H241V77H240ZM132 77H133V78H132ZM187 77H188V78H187ZM198 77H199V78H198ZM209 77H210V78H209ZM231 77H232V78H231Z"/><path fill="#a0a070" fill-opacity="1.000" d="M237 72H238V73H237ZM262 76H263V77H262ZM154 77H155V78H154Z"/><path fill="#a0a080" fill-opacity="1.000" d="M119 77H120V78H119Z"/><path fill="#a0a088" fill-opacity="1.000" d="M297 77H298V78H297Z"/><path fill="#a0a090" fill-opacity="1.000" d="M287 71H288V72H287Z"/><path fill="#a0a0a8" fill-opacity="1.000" d="M305 26H306V27H305Z"/><path fill="#a0a868" fill-opacity="1.000" d="M193 72H194V73H193Z"/><path fill="#a0a880" fill-opacity="1.000" d="M276 71H277V72H276ZM273 76H274V77H273Z"/><path fill="#a0a888" fill-opacity="1.000" d="M265 71H266V72H265Z"/><path fill="#a0a8a8" fill-opacity="1.000" d="M303 32H304V33H303Z"/><path fill="#a0a8b0" fill-opacity="1.000" d="M304 26H305V27H304Z"/><path fill="#a89870" fill-opacity="1.000" d="M176 77H177V78H176Z"/><path fill="#a8a058" fill-opacity="1.000" d="M132 73H133V74H132ZM189 74H190V75H189ZM131 77H132V78H131Z"/><path fill="#a8a060" fill-opacity="1.000" d="M204 72H205V73H204ZM121 73H122V74H121Z"/><path fill="#a8a070" fill-opacity="1.000" d="M250 73H251V74H250Z"/><path fill="#a8a078" fill-opacity="1.000" d="M215 72H216V73H215ZM251 76H252V77H251ZM218 77H219V78H218Z"/><path fill="#a8a088" fill-opacity="1.000" d="M283 73H284V74H283Z"/><path fill="#a8a860" fill-opacity="1.000" d="M239 73H240V74H239Z"/><path fill="#a8a868" fill-opacity="1.000" d="M143 73H144V74H143ZM120 77H122V78H120ZM126 77H127V78H126ZM148 77H149V78H148ZM192 77H193V78H192Z"/><path fill="#a8a870" fill-opacity="1.000" d="M228 73H229V74H228ZM261 73H262V74H261ZM158 77H159V78H158ZM230 77H231V78H230Z"/><path fill="#a8a878" fill-opacity="1.000" d="M191 77H192V78H191ZM235 77H236V78H235Z"/><path fill="#a8a888" fill-opacity="1.000" d="M141 77H142V78H141Z"/><path fill="#a8a890" fill-opacity="1.000" d="M298 71H299V72H298ZM294 73H295V74H294Z"/><path fill="#a8a8a0" fill-opacity="1.000" d="M295 76H296V77H295Z"/><path fill="#a8a8b0" fill-opacity="1.000" d="M302 32H303V33H302Z"/><path fill="#a8b078" fill-opacity="1.000" d="M234 72H235V73H234ZM196 77H197V78H196Z"/><path fill="#a8b0b0" fill-opacity="1.000" d="M303 27H304V28H303ZM307 29H308V30H307ZM304 33H306V34H304Z"/><path fill="#b0a060" fill-opacity="1.000" d="M154 73H155V74H154ZM145 74H146V75H145Z"/><path fill="#b0a068" fill-opacity="1.000" d="M134 74H135V75H134Z"/><path fill="#b0a070" fill-opacity="1.000" d="M175 77H176V78H175Z"/><path fill="#b0a080" fill-opacity="1.000" d="M125 77H126V78H125Z"/><path fill="#b0a860" fill-opacity="1.000" d="M165 73H166V74H165ZM217 73H218V74H217ZM137 77H138V78H137Z"/><path fill="#b0a868" fill-opacity="1.000" d="M136 77H137V78H136ZM159 77H160V78H159ZM181 77H182V78H181Z"/><path fill="#b0a870" fill-opacity="1.000" d="M142 77H143V78H142ZM152 77H153V78H152ZM208 77H209V78H208ZM224 77H226V78H224Z"/><path fill="#b0a878" fill-opacity="1.000" d="M169 77H170V78H169ZM174 77H175V78H174ZM219 77H220V78H219Z"/><path fill="#b0a880" fill-opacity="1.000" d="M272 73H273V74H272ZM147 77H148V78H147ZM251 77H252V78H251Z"/><path fill="#b0a888" fill-opacity="1.000" d="M284 76H285V77H284ZM229 77H230V78H229Z"/><path fill="#b0a890" fill-opacity="1.000" d="M163 77H164V78H163Z"/><path fill="#b0b060" fill-opacity="1.000" d="M220 73H221V74H220ZM123 74H124V75H123Z"/><path fill="#b0b068" fill-opacity="1.000" d="M226 72H227V73H226ZM248 72H249V73H248ZM153 77H154V78H153ZM203 77H204V78H203Z"/><path fill="#b0b070" fill-opacity="1.000" d="M170 77H171V78H170ZM197 77H198V78H197ZM202 77H203V78H202Z"/><path fill="#b0b078" fill-opacity="1.000" d="M223 72H224V73H223ZM206 73H207V74H206ZM164 77H165V78H164ZM186 77H187V78H186ZM213 77H214V78H213ZM241 77H242V78H241ZM246 77H248V78H246ZM252 77H253V78H252Z"/><path fill="#b0b080" fill-opacity="1.000" d="M259 72H260V73H259ZM236 77H237V78H236ZM240 77H241V78H240ZM258 77H259V78H258ZM269 77H270V78H269ZM274 77H275V78H274Z"/><path fill="#b0b088" fill-opacity="1.000" d="M207 77H208V78H207ZM263 77H264V78H263Z"/><path fill="#b0b090" fill-opacity="1.000" d="M229 71H230V72H229ZM262 77H263V78H262ZM268 77H269V78H268Z"/><path fill="#b0b098" fill-opacity="1.000" d="M240 71H241V72H240ZM284 77H285V78H284Z"/><path fill="#b0b0a0" fill-opacity="1.000" d="M279 77H280V78H279Z"/><path fill="#b0b0a8" fill-opacity="1.000" d="M295 77H296V78H295Z"/><path fill="#b0b0b0" fill-opacity="1.000" d="M306 28H307V29H306ZM302 31H303V32H302Z"/><path fill="#b0b888" fill-opacity="1.000" d="M251 71H252V72H251Z"/><path fill="#b0b890" fill-opacity="1.000" d="M273 77H274V78H273Z"/><path fill="#b0b898" fill-opacity="1.000" d="M281 72H282V73H281Z"/><path fill="#b0b8b8" fill-opacity="1.000" d="M305 27H306V28H305ZM301 29H302V30H301Z"/><path fill="#b8b060" fill-opacity="1.000" d="M148 74H149V75H148Z"/><path fill="#b8b068" fill-opacity="1.000" d="M173 73H174V74H173ZM195 73H196V74H195ZM198 73H199V74H198ZM214 77H215V78H214Z"/><path fill="#b8b070" fill-opacity="1.000" d="M140 73H141V74H140ZM187 73H188V74H187ZM126 74H127V75H126ZM137 74H138V75H137Z"/><path fill="#b8b078" fill-opacity="1.000" d="M184 73H185V74H184ZM130 77H131V78H130ZM180 77H181V78H180Z"/><path fill="#b8b090" fill-opacity="1.000" d="M256 72H257V73H256Z"/><path fill="#b8b098" fill-opacity="1.000" d="M280 77H281V78H280Z"/><path fill="#b8b870" fill-opacity="1.000" d="M176 73H177V74H176ZM209 73H210V74H209Z"/><path fill="#b8b878" fill-opacity="1.000" d="M245 72H246V73H245ZM162 73H163V74H162Z"/><path fill="#b8b880" fill-opacity="1.000" d="M128 71H129V72H128Z"/><path fill="#b8b888" fill-opacity="1.000" d="M190 72H191V73H190ZM231 73H232V74H231ZM257 77H258V78H257Z"/><path fill="#b8b890" fill-opacity="1.000" d="M218 71H219V72H218Z"/><path fill="#b8b8a0" fill-opacity="1.000" d="M196 71H197V72H196Z"/><path fill="#b8b8c0" fill-opacity="1.000" d="M302 30H303V31H302ZM306 31H307V32H306Z"/><path fill="#b8c088" fill-opacity="1.000" d="M270 72H271V73H270Z"/><path fill="#b8c0a8" fill-opacity="1.000" d="M296 77H297V78H296Z"/><path fill="#b8c0c0" fill-opacity="1.000" d="M303 28H304V29H303Z"/><path fill="#c0b078" fill-opacity="1.000" d="M159 74H160V75H159Z"/><path fill="#c0b860" fill-opacity="1.000" d="M129 73H130V74H129Z"/><path fill="#c0b870" fill-opacity="1.000" d="M170 74H171V75H170ZM181 74H182V75H181Z"/><path fill="#c0b890" fill-opacity="1.000" d="M141 71H142V72H141ZM163 71H164V72H163ZM185 71H186V72H185ZM267 72H268V73H267Z"/><path fill="#c0c070" fill-opacity="1.000" d="M151 73H152V74H151ZM242 73H243V74H242ZM192 74H193V75H192ZM215 76H216V77H215Z"/><path fill="#c0c078" fill-opacity="1.000" d="M179 72H180V73H179ZM214 74H215V75H214Z"/><path fill="#c0c080" fill-opacity="1.000" d="M157 72H158V73H157ZM201 72H202V73H201Z"/><path fill="#c0c088" fill-opacity="1.000" d="M150 71H151V72H150ZM124 72H125V73H124ZM253 73H254V74H253Z"/><path fill="#c0c090" fill-opacity="1.000" d="M124 71H125V72H124ZM161 71H162V72H161ZM238 71H239V72H238ZM168 72H169V73H168Z"/><path fill="#c0c098" fill-opacity="1.000" d="M130 71H131V72H130ZM183 71H184V72H183ZM207 71H208V72H207ZM278 72H279V73H278Z"/><path fill="#c0c0a0" fill-opacity="1.000" d="M152 71H153V72H152ZM174 71H175V72H174ZM212 72H213V73H212ZM289 72H290V73H289ZM275 73H276V74H275ZM285 77H286V78H285ZM290 77H292V78H290Z"/><path fill="#c0c0a8" fill-opacity="1.000" d="M212 71H213V72H212ZM262 71H263V72H262ZM273 71H274V72H273Z"/><path fill="#c0c0b0" fill-opacity="1.000" d="M284 71H285V72H284ZM295 71H296V72H295ZM300 72H301V73H300Z"/><path fill="#c0c0c0" fill-opacity="1.000" d="M304 27H305V28H304ZM304 32H306V33H304Z"/><path fill="#c0c890" fill-opacity="1.000" d="M248 76H249V77H248Z"/><path fill="#c0c8c8" fill-opacity="1.000" d="M306 30H307V31H306Z"/><path fill="#c8b880" fill-opacity="1.000" d="M203 74H204V75H203Z"/><path fill="#c8b888" fill-opacity="1.000" d="M175 75H176V76H175Z"/><path fill="#c8c070" fill-opacity="1.000" d="M120 75H121V76H120Z"/><path fill="#c8c078" fill-opacity="1.000" d="M142 75H143V76H142Z"/><path fill="#c8c080" fill-opacity="1.000" d="M135 72H136V73H135ZM131 75H132V76H131ZM153 75H154V76H153ZM237 76H238V77H237ZM259 76H260V77H259Z"/><path fill="#c8c088" fill-opacity="1.000" d="M247 74H248V75H247Z"/><path fill="#c8c090" fill-opacity="1.000" d="M162 71H163V72H162ZM146 72H147V73H146Z"/><path fill="#c8c098" fill-opacity="1.000" d="M139 71H140V72H139Z"/><path fill="#c8c0a0" fill-opacity="1.000" d="M292 72H293V73H292Z"/><path fill="#c8c880" fill-opacity="1.000" d="M236 74H237V75H236ZM210 75H211V76H210Z"/><path fill="#c8c888" fill-opacity="1.000" d="M204 76H205V77H204Z"/><path fill="#c8c890" fill-opacity="1.000" d="M145 71H146V72H145ZM178 71H179V72H178ZM195 71H196V72H195ZM216 71H217V72H216ZM225 74H226V75H225Z"/><path fill="#c8c898" fill-opacity="1.000" d="M168 71H169V72H168ZM172 71H173V72H172ZM147 76H148V77H147Z"/><path fill="#c8c8d0" fill-opacity="1.000" d="M306 29H307V30H306ZM303 31H304V32H303Z"/><path fill="#c8d080" fill-opacity="1.000" d="M264 73H265V74H264Z"/><path fill="#c8d0a0" fill-opacity="1.000" d="M227 71H228V72H227Z"/><path fill="#d0c090" fill-opacity="1.000" d="M125 76H126V77H125Z"/><path fill="#d0c878" fill-opacity="1.000" d="M164 75H165V76H164ZM127 76H128V77H127ZM182 76H183V77H182Z"/><path fill="#d0c880" fill-opacity="1.000" d="M208 75H209V76H208Z"/><path fill="#d0c888" fill-opacity="1.000" d="M186 75H187V76H186ZM138 76H139V77H138Z"/><path fill="#d0c890" fill-opacity="1.000" d="M201 71H202V72H201ZM197 75H198V76H197ZM219 75H220V76H219ZM169 76H170V77H169Z"/><path fill="#d0c898" fill-opacity="1.000" d="M135 71H136V72H135ZM156 71H158V72H156ZM189 71H190V72H189ZM206 71H207V72H206ZM270 76H271V77H270ZM281 76H282V77H281Z"/><path fill="#d0c8a0" fill-opacity="1.000" d="M146 71H147V72H146ZM211 71H212V72H211Z"/><path fill="#d0c8a8" fill-opacity="1.000" d="M249 71H250V72H249ZM292 76H293V77H292Z"/><path fill="#d0d080" fill-opacity="1.000" d="M199 75H200V76H199ZM149 76H150V77H149ZM171 76H172V77H171ZM193 76H194V77H193Z"/><path fill="#d0d088" fill-opacity="1.000" d="M151 72H152V73H151ZM244 73H245V74H244ZM230 75H231V76H230ZM232 75H233V76H232ZM180 76H181V77H180Z"/><path fill="#d0d090" fill-opacity="1.000" d="M167 71H168V72H167ZM200 71H201V72H200ZM233 71H234V72H233ZM254 75H255V76H254ZM213 76H214V77H213ZM226 76H227V77H226Z"/><path fill="#d0d098" fill-opacity="1.000" d="M123 71H124V72H123ZM134 71H135V72H134ZM173 71H174V72H173ZM179 71H180V72H179ZM194 71H195V72H194ZM217 71H218V72H217ZM241 75H242V76H241Z"/><path fill="#d0d0a0" fill-opacity="1.000" d="M205 71H206V72H205ZM222 71H224V72H222ZM228 71H229V72H228ZM245 71H246V72H245ZM250 71H251V72H250ZM255 71H256V72H255ZM260 71H261V72H260Z"/><path fill="#d0d0a8" fill-opacity="1.000" d="M190 71H191V72H190ZM266 71H267V72H266ZM286 73H287V74H286Z"/><path fill="#d0d0b0" fill-opacity="1.000" d="M267 71H268V72H267ZM297 73H298V74H297ZM276 75H277V76H276Z"/><path fill="#d0d0d0" fill-opacity="1.000" d="M302 29H303V30H302Z"/><path fill="#d0d0d8" fill-opacity="1.000" d="M305 31H306V32H305Z"/><path fill="#d0d880" fill-opacity="1.000" d="M193 73H194V74H193Z"/><path fill="#d0d888" fill-opacity="1.000" d="M177 72H178V73H177Z"/><path fill="#d0d898" fill-opacity="1.000" d="M191 76H192V77H191Z"/><path fill="#d0d8a0" fill-opacity="1.000" d="M244 71H245V72H244Z"/><path fill="#d0d8a8" fill-opacity="1.000" d="M234 71H235V72H234Z"/><path fill="#d8c880" fill-opacity="1.000" d="M243 75H244V76H243Z"/><path fill="#d8c888" fill-opacity="1.000" d="M188 75H189V76H188Z"/><path fill="#d8c890" fill-opacity="1.000" d="M133 72H134V73H133ZM160 76H161V77H160Z"/><path fill="#d8d078" fill-opacity="1.000" d="M121 76H122V77H121Z"/><path fill="#d8d080" fill-opacity="1.000" d="M122 72H123V73H122ZM199 73H200V74H199ZM171 74H172V75H171ZM137 75H138V76H137ZM126 76H127V77H126ZM136 76H137V77H136ZM159 76H160V77H159Z"/><path fill="#d8d088" fill-opacity="1.000" d="M166 75H167V76H166ZM177 75H178V76H177ZM221 75H222V76H221ZM225 75H226V76H225ZM158 76H159V77H158Z"/><path fill="#d8d090" fill-opacity="1.000" d="M140 72H141V73H140ZM258 74H259V75H258ZM252 75H253V76H252Z"/><path fill="#d8d098" fill-opacity="1.000" d="M216 74H217V75H216Z"/><path fill="#d8d0a0" fill-opacity="1.000" d="M140 71H141V72H140ZM184 71H185V72H184ZM269 74H270V75H269ZM263 75H264V76H263Z"/><path fill="#d8d0a8" fill-opacity="1.000" d="M260 74H261V75H260Z"/><path fill="#d8d0b0" fill-opacity="1.000" d="M272 71H273V72H272Z"/><path fill="#d8d0b8" fill-opacity="1.000" d="M256 71H257V72H256Z"/><path fill="#d8d870" fill-opacity="1.000" d="M122 73H123V74H122Z"/><path fill="#d8d878" fill-opacity="1.000" d="M177 73H178V74H177ZM183 74H184V75H183Z"/><path fill="#d8d880" fill-opacity="1.000" d="M123 72H124V73H123ZM166 72H167V73H166ZM121 74H122V75H121ZM227 74H228V75H227ZM122 75H123V76H122ZM120 76H121V77H120ZM148 76H149V77H148Z"/><path fill="#d8d888" fill-opacity="1.000" d="M167 72H168V73H167ZM200 72H201V73H200ZM220 75H221V76H220ZM164 76H165V77H164Z"/><path fill="#d8d890" fill-opacity="1.000" d="M221 72H222V73H221ZM239 72H240V73H239ZM243 72H244V73H243ZM222 73H223V74H222ZM231 74H232V75H231ZM197 76H198V77H197ZM224 76H225V77H224ZM247 76H248V77H247Z"/><path fill="#d8d898" fill-opacity="1.000" d="M129 71H130V72H129ZM184 72H185V73H184ZM206 72H207V73H206ZM280 74H281V75H280ZM241 76H242V77H241ZM246 76H247V77H246Z"/><path fill="#d8d8a0" fill-opacity="1.000" d="M151 71H152V72H151ZM239 71H240V72H239ZM228 72H229V73H228ZM257 76H258V77H257Z"/><path fill="#d8d8b0" fill-opacity="1.000" d="M277 71H278V72H277Z"/><path fill="#d8d8b8" fill-opacity="1.000" d="M282 71H284V72H282Z"/><path fill="#d8d8d8" fill-opacity="1.000" d="M303 30H304V31H303Z"/><path fill="#d8d8e0" fill-opacity="1.000" d="M304 31H305V32H304Z"/><path fill="#d8e088" fill-opacity="1.000" d="M227 72H228V73H227ZM249 72H250V73H249ZM254 73H255V74H254ZM249 74H250V75H249ZM248 75H249V76H248Z"/><path fill="#d8e090" fill-opacity="1.000" d="M200 73H201V74H200Z"/><path fill="#d8e0a0" fill-opacity="1.000" d="M265 72H266V73H265Z"/><path fill="#d8e0b0" fill-opacity="1.000" d="M271 71H272V72H271Z"/><path fill="#d8e0c0" fill-opacity="1.000" d="M278 71H279V72H278Z"/><path fill="#d8e0e0" fill-opacity="1.000" d="M304 28H306V29H304ZM303 29H304V30H303Z"/><path fill="#e0d070" fill-opacity="1.000" d="M133 74H134V75H133ZM132 75H133V76H132Z"/><path fill="#e0d078" fill-opacity="1.000" d="M145 73H146V74H145ZM188 73H189V74H188Z"/><path fill="#e0d080" fill-opacity="1.000" d="M134 72H135V73H134ZM134 73H135V74H134ZM138 73H139V74H138ZM138 74H140V75H138ZM144 74H145V75H144ZM188 74H189V75H188ZM133 75H134V76H133ZM142 76H144V77H142Z"/><path fill="#e0d088" fill-opacity="1.000" d="M139 72H140V73H139ZM155 72H156V73H155ZM128 74H129V75H128Z"/><path fill="#e0d090" fill-opacity="1.000" d="M238 74H239V75H238ZM144 75H145V76H144ZM176 76H177V77H176ZM186 76H187V77H186Z"/><path fill="#e0d098" fill-opacity="1.000" d="M127 73H128V74H127Z"/><path fill="#e0d870" fill-opacity="1.000" d="M182 75H183V76H182Z"/><path fill="#e0d878" fill-opacity="1.000" d="M128 73H129V74H128ZM144 73H145V74H144ZM150 73H151V74H150ZM166 73H167V74H166ZM183 73H184V74H183ZM210 73H211V74H210ZM122 74H123V75H122ZM193 74H194V75H193ZM121 75H122V76H121ZM193 75H194V76H193Z"/><path fill="#e0d880" fill-opacity="1.000" d="M128 72H129V73H128ZM145 72H146V73H145ZM150 72H151V73H150ZM123 73H124V74H123ZM149 73H150V74H149ZM155 73H156V74H155ZM160 73H162V74H160ZM167 73H168V74H167ZM172 73H173V74H172ZM178 73H179V74H178ZM205 73H206V74H205ZM211 73H212V74H211ZM232 73H234V74H232ZM238 73H239V74H238ZM154 74H155V75H154ZM165 74H167V75H165ZM198 74H199V75H198ZM204 74H205V75H204ZM243 74H244V75H243ZM127 75H128V76H127ZM149 75H150V76H149ZM154 75H155V76H154ZM165 75H166V76H165ZM170 75H171V76H170ZM198 75H199V76H198ZM132 76H133V77H132ZM181 76H182V77H181ZM192 76H193V77H192ZM203 76H204V77H203Z"/><path fill="#e0d888" fill-opacity="1.000" d="M129 72H130V73H129ZM156 72H157V73H156ZM188 72H190V73H188ZM194 72H195V73H194ZM211 72H212V73H211ZM217 72H218V73H217ZM156 73H157V74H156ZM216 73H217V74H216ZM143 74H144V75H143ZM150 74H151V75H150ZM176 74H178V75H176ZM205 74H206V75H205ZM138 75H139V76H138ZM155 75H156V76H155ZM226 75H227V76H226ZM153 76H154V77H153ZM170 76H171V77H170Z"/><path fill="#e0d890" fill-opacity="1.000" d="M173 72H174V73H173ZM195 72H196V73H195ZM199 72H200V73H199ZM205 72H206V73H205ZM171 73H172V74H171ZM161 74H162V75H161ZM172 74H173V75H172ZM215 74H216V75H215ZM126 75H127V76H126ZM176 75H177V76H176ZM236 75H237V76H236ZM265 75H266V76H265ZM154 76H155V77H154ZM187 76H188V77H187ZM202 76H203V77H202ZM209 76H210V77H209Z"/><path fill="#e0d898" fill-opacity="1.000" d="M162 72H163V73H162ZM215 73H216V74H215ZM194 74H195V75H194ZM219 76H220V77H219ZM242 76H243V77H242Z"/><path fill="#e0d8a0" fill-opacity="1.000" d="M261 72H262V73H261ZM274 75H275V76H274Z"/><path fill="#e0d8a8" fill-opacity="1.000" d="M287 75H288V76H287Z"/><path fill="#e0d8c0" fill-opacity="1.000" d="M291 74H292V75H291Z"/><path fill="#e0e080" fill-opacity="1.000" d="M144 72H145V73H144ZM182 73H183V74H182ZM226 73H228V74H226ZM248 73H250V74H248ZM226 74H227V75H226ZM248 74H249V75H248ZM171 75H172V76H171ZM181 75H182V76H181ZM192 75H193V76H192ZM214 76H215V77H214Z"/><path fill="#e0e088" fill-opacity="1.000" d="M161 72H162V73H161ZM233 72H234V73H233ZM221 73H222V74H221ZM209 74H210V75H209ZM221 74H222V75H221ZM232 74H233V75H232ZM237 74H238V75H237ZM209 75H210V76H209ZM214 75H216V76H214ZM237 75H238V76H237ZM165 76H166V77H165ZM198 76H199V77H198Z"/><path fill="#e0e090" fill-opacity="1.000" d="M172 72H173V73H172ZM183 72H184V73H183ZM216 72H217V73H216ZM222 72H223V73H222ZM232 72H233V73H232ZM238 72H239V73H238ZM255 73H256V74H255ZM220 74H221V75H220ZM264 74H265V75H264ZM231 75H232V76H231ZM253 75H254V76H253ZM225 76H226V77H225ZM230 76H232V77H230ZM236 76H237V77H236ZM258 76H259V77H258Z"/><path fill="#e0e098" fill-opacity="1.000" d="M244 72H245V73H244ZM254 72H256V73H254ZM237 73H238V74H237ZM253 74H255V75H253ZM259 74H260V75H259ZM265 74H266V75H265ZM220 76H221V77H220ZM252 76H254V77H252Z"/><path fill="#e0e0a0" fill-opacity="1.000" d="M250 72H251V73H250ZM271 72H272V73H271ZM259 73H261V74H259ZM271 74H272V75H271ZM247 75H248V76H247Z"/><path fill="#e0e0a8" fill-opacity="1.000" d="M266 73H267V74H266ZM235 76H236V77H235Z"/><path fill="#e0e0b0" fill-opacity="1.000" d="M261 71H262V72H261ZM268 76H269V77H268Z"/><path fill="#e0e0c0" fill-opacity="1.000" d="M288 71H290V72H288ZM282 74H283V75H282ZM296 75H297V76H296Z"/><path fill="#e0e0c8" fill-opacity="1.000" d="M293 71H294V72H293ZM299 71H300V72H299ZM298 75H299V76H298Z"/><path fill="#e0e0e8" fill-opacity="1.000" d="M304 30H306V31H304Z"/><path fill="#e0e890" fill-opacity="1.000" d="M265 73H266V74H265Z"/><path fill="#e0e8a0" fill-opacity="1.000" d="M260 72H261V73H260ZM270 73H271V74H270Z"/><path fill="#e0e8b0" fill-opacity="1.000" d="M276 72H277V73H276Z"/><path fill="#e8d088" fill-opacity="1.000" d="M160 74H161V75H160Z"/><path fill="#e8d090" fill-opacity="1.000" d="M160 75H161V76H160Z"/><path fill="#e8d878" fill-opacity="1.000" d="M149 74H150V75H149Z"/><path fill="#e8d880" fill-opacity="1.000" d="M133 73H134V74H133ZM139 73H140V74H139ZM194 73H195V74H194ZM143 75H144V76H143Z"/><path fill="#e8d888" fill-opacity="1.000" d="M204 73H205V74H204ZM127 74H128V75H127ZM187 75H188V76H187Z"/><path fill="#e8d890" fill-opacity="1.000" d="M187 74H188V75H187ZM159 75H160V76H159ZM203 75H204V76H203Z"/><path fill="#e8e070" fill-opacity="1.000" d="M182 74H183V75H182Z"/><path fill="#e8e080" fill-opacity="1.000" d="M132 74H133V75H132ZM155 74H156V75H155ZM137 76H138V77H137Z"/><path fill="#e8e088" fill-opacity="1.000" d="M189 73H190V74H189ZM243 73H244V74H243ZM199 74H200V75H199ZM210 74H211V75H210ZM242 74H243V75H242ZM148 75H149V76H148ZM204 75H205V76H204ZM131 76H132V77H131Z"/><path fill="#e8e090" fill-opacity="1.000" d="M178 72H179V73H178ZM210 72H211V73H210ZM242 75H243V76H242ZM208 76H209V77H208Z"/><path fill="#e8e098" fill-opacity="1.000" d="M259 75H260V76H259ZM264 75H265V76H264ZM175 76H176V77H175Z"/><path fill="#e8e0a0" fill-opacity="1.000" d="M264 76H265V77H264Z"/><path fill="#e8e0a8" fill-opacity="1.000" d="M270 75H271V76H270Z"/><path fill="#e8e0b8" fill-opacity="1.000" d="M272 72H273V73H272ZM288 73H289V74H288Z"/><path fill="#e8e0c0" fill-opacity="1.000" d="M285 75H286V76H285Z"/><path fill="#e8e8a8" fill-opacity="1.000" d="M271 73H272V74H271ZM270 74H271V75H270ZM281 74H282V75H281ZM269 75H270V76H269ZM269 76H270V77H269Z"/><path fill="#e8e8b0" fill-opacity="1.000" d="M266 72H267V73H266ZM276 73H278V74H276ZM263 76H264V77H263Z"/><path fill="#e8e8c0" fill-opacity="1.000" d="M283 72H284V73H283ZM293 74H294V75H293ZM285 76H286V77H285Z"/><path fill="#e8e8c8" fill-opacity="1.000" d="M287 72H288V73H287Z"/><path fill="#e8e8d0" fill-opacity="1.000" d="M294 71H295V72H294ZM294 72H295V73H294Z"/><path fill="#e8e8e0" fill-opacity="1.000" d="M300 71H301V72H300Z"/><path fill="#e8f0c0" fill-opacity="1.000" d="M281 73H282V74H281Z"/><path fill="#f0e898" fill-opacity="1.000" d="M258 75H259V76H258Z"/><path fill="#f0e8b0" fill-opacity="1.000" d="M275 75H276V76H275Z"/><path fill="#f0e8b8" fill-opacity="1.000" d="M275 74H276V75H275ZM287 74H288V75H287ZM280 76H281V77H280Z"/><path fill="#f0e8c0" fill-opacity="1.000" d="M282 73H283V74H282ZM292 73H293V74H292ZM276 74H277V75H276ZM290 76H292V77H290Z"/><path fill="#f0e8c8" fill-opacity="1.000" d="M286 76H287V77H286Z"/><path fill="#f0f0b0" fill-opacity="1.000" d="M277 72H278V73H277ZM281 75H282V76H281ZM274 76H276V77H274Z"/><path fill="#f0f0b8" fill-opacity="1.000" d="M286 74H287V75H286ZM280 75H281V76H280ZM286 75H287V76H286Z"/><path fill="#f0f0c0" fill-opacity="1.000" d="M287 73H288V74H287ZM292 74H293V75H292Z"/><path fill="#f0f0c8" fill-opacity="1.000" d="M282 72H283V73H282ZM293 72H294V73H293ZM293 73H294V74H293ZM298 73H299V74H298ZM297 75H298V76H297Z"/><path fill="#f0f0d0" fill-opacity="1.000" d="M298 72H300V73H298ZM299 73H300V74H299ZM297 74H299V75H297ZM279 76H280V77H279ZM297 76H298V77H297Z"/><path fill="#f0f0f8" fill-opacity="1.000" d="M304 29H305V30H304Z"/><path fill="#f0f8f8" fill-opacity="1.000" d="M305 29H306V30H305Z"/><path fill="#f8f0c8" fill-opacity="1.000" d="M288 72H289V73H288ZM291 75H293V76H291Z"/><path fill="#f8f8e0" fill-opacity="1.000" d="M296 76H297V77H296Z"/></svg>