<svg xmlns="http://www.w3.org/2000/svg" width="576" height="78" viewBox="0 0 576 78" shape-rendering="geometricPrecision"><path fill="#000010" fill-opacity="0.063" d="M175 44H176V45H175Z"/><path fill="#000808" fill-opacity="0.063" d="M173 45H174V46H173Z"/><path fill="#000810" fill-opacity="0.063" d="M433 38H434V39H433ZM172 39H173V40H172ZM162 40H163V41H162ZM333 40H334V41H333ZM361 40H362V41H361ZM91 41H92V42H91ZM262 41H263V42H262ZM362 41H363V42H362ZM363 42H364V43H363ZM244 43H245V44H244ZM264 43H265V44H264ZM94 44H95V45H94ZM329 44H330V45H329ZM365 44H366V45H365ZM428 44H429V45H428ZM96 45H97V46H96ZM240 45H241V46H240ZM267 45H268V46H267ZM271 45H272V46H271ZM177 46H179V47H177ZM237 46H238V47H237Z"/><path fill="#000818" fill-opacity="0.063" d="M432 40H433V41H432ZM174 43H175V44H174ZM176 45H177V46H176ZM270 45H271V46H270Z"/><path fill="#001010" fill-opacity="0.063" d="M261 37H262V38H261ZM244 40H245V41H244ZM173 41H174V42H173Z"/><path fill="#001018" fill-opacity="0.063" d="M157 45H158V46H157Z"/><path fill="#080810" fill-opacity="0.063" d="M174 44H175V45H174ZM243 44H244V45H243ZM175 45H176V46H175ZM174 46H175V47H174Z"/><path fill="#081018" fill-opacity="0.063" d="M243 42H244V43H243Z"/><path fill="#000010" fill-opacity="0.125" d="M242 43H243V44H242ZM156 45H157V46H156Z"/><path fill="#000810" fill-opacity="0.125" d="M162 0H163V1H162ZM172 0H173V1H172ZM261 0H262V1H261ZM333 0H334V1H333ZM361 0H362V1H361ZM432 0H433V1H432ZM162 1H163V2H162ZM172 1H173V2H172ZM261 1H262V2H261ZM333 1H334V2H333ZM361 1H362V2H361ZM432 1H433V2H432ZM162 2H163V3H162ZM172 2H173V3H172ZM261 2H262V3H261ZM333 2H334V3H333ZM361 2H362V3H361ZM432 2H433V3H432ZM162 3H163V4H162ZM172 3H173V4H172ZM261 3H262V4H261ZM333 3H334V4H333ZM361 3H362V4H361ZM432 3H433V4H432ZM162 4H163V5H162ZM172 4H173V5H172ZM261 4H262V5H261ZM333 4H334V5H333ZM361 4H362V5H361ZM432 4H433V5H432ZM162 5H163V6H162ZM172 5H173V6H172ZM261 5H262V6H261ZM333 5H334V6H333ZM361 5H362V6H361ZM432 5H433V6H432ZM162 6H163V7H162ZM172 6H173V7H172ZM261 6H262V7H261ZM333 6H334V7H333ZM361 6H362V7H361ZM432 6H433V7H432ZM162 7H163V8H162ZM172 7H173V8H172ZM261 7H262V8H261ZM333 7H334V8H333ZM361 7H362V8H361ZM432 7H433V8H432ZM162 8H163V9H162ZM172 8H173V9H172ZM261 8H262V9H261ZM333 8H334V9H333ZM361 8H362V9H361ZM432 8H433V9H432ZM162 9H163V10H162ZM172 9H173V10H172ZM261 9H262V10H261ZM333 9H334V10H333ZM361 9H362V10H361ZM432 9H433V10H432ZM162 10H163V11H162ZM172 10H173V11H172ZM261 10H262V11H261ZM333 10H334V11H333ZM361 10H362V11H361ZM432 10H433V11H432ZM162 11H163V12H162ZM172 11H173V12H172ZM261 11H262V12H261ZM333 11H334V12H333ZM361 11H362V12H361ZM432 11H433V12H432ZM162 12H163V13H162ZM172 12H173V13H172ZM261 12H262V13H261ZM333 12H334V13H333ZM361 12H362V13H361ZM432 12H433V13H432ZM162 13H163V14H162ZM172 13H173V14H172ZM261 13H262V14H261ZM333 13H334V14H333ZM361 13H362V14H361ZM432 13H433V14H432ZM162 14H163V15H162ZM172 14H173V15H172ZM261 14H262V15H261ZM333 14H334V15H333ZM361 14H362V15H361ZM432 14H433V15H432ZM162 15H163V16H162ZM172 15H173V16H172ZM261 15H262V16H261ZM333 15H334V16H333ZM361 15H362V16H361ZM432 15H433V16H432ZM162 16H163V17H162ZM172 16H173V17H172ZM261 16H262V17H261ZM333 16H334V17H333ZM361 16H362V17H361ZM432 16H433V17H432ZM162 17H163V18H162ZM172 17H173V18H172ZM261 17H262V18H261ZM333 17H334V18H333ZM361 17H362V18H361ZM432 17H433V18H432ZM162 18H163V19H162ZM172 18H173V19H172ZM261 18H262V19H261ZM333 18H334V19H333ZM361 18H362V19H361ZM432 18H433V19H432ZM162 19H163V20H162ZM172 19H173V20H172ZM261 19H262V20H261ZM333 19H334V20H333ZM361 19H362V20H361ZM432 19H433V20H432ZM162 20H163V21H162ZM172 20H173V21H172ZM261 20H262V21H261ZM333 20H334V21H333ZM361 20H362V21H361ZM432 20H433V21H432ZM162 21H163V22H162ZM172 21H173V22H172ZM261 21H262V22H261ZM333 21H334V22H333ZM361 21H362V22H361ZM432 21H433V22H432ZM162 22H163V23H162ZM172 22H173V23H172ZM261 22H262V23H261ZM333 22H334V23H333ZM361 22H362V23H361ZM432 22H433V23H432ZM162 23H163V24H162ZM172 23H173V24H172ZM261 23H262V24H261ZM333 23H334V24H333ZM361 23H362V24H361ZM432 23H433V24H432ZM162 24H163V25H162ZM172 24H173V25H172ZM261 24H262V25H261ZM333 24H334V25H333ZM361 24H362V25H361ZM432 24H433V25H432ZM162 25H163V26H162ZM172 25H173V26H172ZM261 25H262V26H261ZM333 25H334V26H333ZM361 25H362V26H361ZM432 25H433V26H432ZM162 26H163V27H162ZM172 26H173V27H172ZM261 26H262V27H261ZM333 26H334V27H333ZM361 26H362V27H361ZM432 26H433V27H432ZM162 27H163V28H162ZM172 27H173V28H172ZM261 27H262V28H261ZM333 27H334V28H333ZM361 27H362V28H361ZM432 27H433V28H432ZM162 28H163V29H162ZM172 28H173V29H172ZM261 28H262V29H261ZM333 28H334V29H333ZM361 28H362V29H361ZM432 28H433V29H432ZM162 29H163V30H162ZM172 29H173V30H172ZM261 29H262V30H261ZM333 29H334V30H333ZM361 29H362V30H361ZM432 29H433V30H432ZM162 30H163V31H162ZM172 30H173V31H172ZM261 30H262V31H261ZM333 30H334V31H333ZM361 30H362V31H361ZM162 31H163V32H162ZM172 31H173V32H172ZM333 31H334V32H333ZM361 31H362V32H361ZM432 31H433V32H432ZM162 32H163V33H162ZM261 32H262V33H261ZM333 32H334V33H333ZM361 32H362V33H361ZM432 32H433V33H432ZM162 33H163V34H162ZM261 33H262V34H261ZM333 33H334V34H333ZM361 33H362V34H361ZM432 33H433V34H432ZM162 34H163V35H162ZM172 34H173V35H172ZM261 34H262V35H261ZM333 34H334V35H333ZM361 34H362V35H361ZM432 34H433V35H432ZM162 35H163V36H162ZM261 35H262V36H261ZM361 35H362V36H361ZM432 35H433V36H432ZM162 36H163V37H162ZM361 36H362V37H361ZM432 36H433V37H432ZM162 37H163V38H162ZM172 37H173V38H172ZM361 37H362V38H361ZM172 38H173V39H172ZM361 38H362V39H361ZM162 39H163V40H162ZM361 39H362V40H361ZM262 40H263V41H262ZM266 44H267V45H266ZM327 44H329V45H327ZM371 44H372V45H371ZM393 44H394V45H393ZM396 44H398V45H396ZM400 44H401V45H400ZM420 44H427V45H420ZM97 45H99V46H97ZM100 45H148V46H100ZM151 45H156V46H151ZM239 45H240V46H239Z"/><path fill="#000818" fill-opacity="0.125" d="M91 0H92V1H91ZM91 1H92V2H91ZM91 2H92V3H91ZM91 3H92V4H91ZM91 4H92V5H91ZM91 5H92V6H91ZM91 6H92V7H91ZM91 7H92V8H91ZM91 8H92V9H91ZM91 9H92V10H91ZM91 10H92V11H91ZM91 11H92V12H91ZM91 12H92V13H91ZM91 13H92V14H91ZM91 14H92V15H91ZM91 15H92V16H91ZM91 16H92V17H91ZM91 17H92V18H91ZM91 18H92V19H91ZM91 19H92V20H91ZM91 20H92V21H91ZM91 21H92V22H91ZM91 22H92V23H91ZM91 23H92V24H91ZM91 24H92V25H91ZM91 25H92V26H91ZM91 26H92V27H91ZM91 27H92V28H91ZM91 28H92V29H91ZM91 29H92V30H91ZM91 30H92V31H91ZM432 30H433V31H432ZM261 31H262V32H261ZM91 32H92V33H91ZM91 33H92V34H91ZM91 34H92V35H91ZM91 35H92V36H91ZM333 35H334V36H333ZM91 36H92V37H91ZM333 36H334V37H333ZM91 37H92V38H91ZM333 37H334V38H333ZM91 38H92V39H91ZM91 39H92V40H91ZM333 39H334V40H333ZM91 40H92V41H91ZM324 44H325V45H324ZM326 44H327V45H326ZM369 44H371V45H369ZM148 45H151V46H148Z"/><path fill="#001010" fill-opacity="0.125" d="M244 0H245V1H244ZM244 1H245V2H244ZM244 2H245V3H244ZM244 3H245V4H244ZM244 4H245V5H244ZM244 5H245V6H244ZM244 6H245V7H244ZM244 7H245V8H244ZM244 8H245V9H244ZM244 9H245V10H244ZM244 10H245V11H244ZM244 11H245V12H244ZM244 12H245V13H244ZM244 13H245V14H244ZM244 14H245V15H244ZM244 15H245V16H244ZM244 16H245V17H244ZM244 17H245V18H244ZM244 18H245V19H244ZM244 19H245V20H244ZM244 20H245V21H244ZM244 21H245V22H244ZM244 22H245V23H244ZM244 23H245V24H244ZM244 24H245V25H244ZM244 25H245V26H244ZM244 26H245V27H244ZM244 27H245V28H244ZM244 28H245V29H244ZM244 29H245V30H244ZM244 30H245V31H244ZM244 31H245V32H244ZM172 32H173V33H172ZM244 32H245V33H244ZM172 33H173V34H172ZM244 33H245V34H244ZM244 34H245V35H244ZM244 35H245V36H244ZM244 36H245V37H244ZM261 36H262V37H261ZM244 37H245V38H244ZM244 38H245V39H244ZM244 39H245V40H244ZM388 44H393V45H388ZM401 44H404V45H401ZM419 44H420V45H419ZM427 44H428V45H427ZM180 45H228V46H180Z"/><path fill="#001018" fill-opacity="0.125" d="M91 31H92V32H91ZM162 38H163V39H162ZM333 38H334V39H333ZM262 39H263V40H262ZM174 42H175V43H174ZM273 44H324V45H273ZM325 44H326V45H325ZM366 44H369V45H366ZM372 44H388V45H372ZM404 44H419V45H404ZM99 45H100V46H99ZM228 45H236V46H228Z"/><path fill="#080810" fill-opacity="0.125" d="M172 35H173V36H172ZM172 36H173V37H172ZM394 44H396V45H394ZM398 44H400V45H398Z"/><path fill="#000810" fill-opacity="0.188" d="M432 37H433V38H432ZM173 40H174V41H173ZM431 41H432V42H431ZM92 42H93V43H92ZM160 42H161V43H160ZM263 42H264V43H263ZM331 42H332V43H331ZM430 42H431V43H430ZM93 43H94V44H93ZM364 43H365V44H364ZM429 43H430V44H429ZM158 44H159V45H158ZM241 44H242V45H241ZM236 45H237V46H236Z"/><path fill="#000818" fill-opacity="0.188" d="M243 41H244V42H243ZM332 41H333V42H332ZM242 42H243V43H242ZM330 43H331V44H330ZM269 44H270V45H269Z"/><path fill="#001010" fill-opacity="0.188" d="M179 45H180V46H179Z"/><path fill="#001018" fill-opacity="0.188" d="M262 38H263V39H262ZM432 39H433V40H432ZM161 41H162V42H161ZM363 41H364V42H363ZM159 43H160V44H159ZM265 43H266V44H265ZM95 44H96V45H95ZM176 44H177V45H176ZM268 44H269V45H268ZM272 44H273V45H272ZM238 45H239V46H238Z"/><path fill="#001018" fill-opacity="0.251" d="M175 42H176V43H175Z"/><path fill="#001018" fill-opacity="1.000" d="M173 0H174V1H173ZM262 0H263V1H262ZM173 1H174V2H173ZM262 1H263V2H262ZM173 2H174V3H173ZM262 2H263V3H262ZM173 3H174V4H173ZM262 3H263V4H262ZM173 4H174V5H173ZM262 4H263V5H262ZM173 5H174V6H173ZM262 5H263V6H262ZM173 6H174V7H173ZM262 6H263V7H262ZM173 7H174V8H173ZM262 7H263V8H262ZM173 8H174V9H173ZM262 8H263V9H262ZM173 9H174V10H173ZM262 9H263V10H262ZM173 10H174V11H173ZM262 10H263V11H262ZM173 11H174V12H173ZM262 11H263V12H262ZM173 12H174V13H173ZM262 12H263V13H262ZM173 13H174V14H173ZM262 13H263V14H262ZM173 14H174V15H173ZM262 14H263V15H262ZM173 15H174V16H173ZM262 15H263V16H262ZM173 16H174V17H173ZM262 16H263V17H262ZM173 17H174V18H173ZM262 17H263V18H262ZM173 18H174V19H173ZM262 18H263V19H262ZM173 19H174V20H173ZM262 19H263V20H262ZM173 20H174V21H173ZM262 20H263V21H262ZM173 21H174V22H173ZM262 21H263V22H262ZM173 22H174V23H173ZM262 22H263V23H262ZM173 23H174V24H173ZM262 23H263V24H262ZM173 24H174V25H173ZM262 24H263V25H262ZM173 25H174V26H173ZM262 25H263V26H262ZM173 26H174V27H173ZM262 26H263V27H262ZM173 27H174V28H173ZM262 27H263V28H262ZM173 28H174V29H173ZM262 28H263V29H262ZM173 29H174V30H173ZM173 34H174V35H173ZM173 35H174V36H173ZM173 36H174V37H173ZM262 36H263V37H262ZM173 37H174V38H173ZM262 37H263V38H262ZM432 38H433V39H432ZM241 42H242V43H241ZM364 42H365V43H364ZM116 44H132V45H116ZM157 44H158V45H157ZM177 44H178V45H177ZM240 44H241V45H240ZM178 45H179V46H178ZM237 45H238V46H237Z"/><path fill="#001020" fill-opacity="1.000" d="M262 29H263V30H262ZM173 30H174V31H173ZM262 30H263V31H262ZM173 31H174V32H173ZM262 31H263V32H262ZM173 32H174V33H173ZM262 32H263V33H262ZM173 33H174V34H173ZM262 33H263V34H262ZM262 34H263V35H262ZM262 35H263V36H262ZM332 39H333V40H332ZM161 40H162V41H161ZM332 40H333V41H332ZM431 40H432V41H431ZM92 41H93V42H92ZM263 41H264V42H263ZM331 41H332V42H331ZM93 42H94V43H93ZM264 42H265V43H264ZM330 42H331V43H330ZM94 43H95V44H94ZM158 43H159V44H158ZM329 43H330V44H329ZM97 44H116V45H97ZM132 44H156V45H132ZM270 44H272V45H270ZM177 45H178V46H177Z"/><path fill="#001820" fill-opacity="1.000" d="M332 0H333V1H332ZM332 1H333V2H332ZM332 2H333V3H332ZM332 3H333V4H332ZM332 4H333V5H332ZM332 5H333V6H332ZM332 6H333V7H332ZM332 7H333V8H332ZM332 8H333V9H332ZM332 9H333V10H332ZM332 10H333V11H332ZM332 11H333V12H332ZM332 12H333V13H332ZM332 13H333V14H332ZM332 14H333V15H332ZM332 15H333V16H332ZM332 16H333V17H332ZM332 17H333V18H332ZM332 18H333V19H332ZM332 19H333V20H332ZM332 20H333V21H332ZM332 21H333V22H332ZM332 22H333V23H332ZM332 23H333V24H332ZM332 24H333V25H332ZM332 25H333V26H332ZM332 26H333V27H332ZM332 27H333V28H332ZM332 28H333V29H332ZM332 29H333V30H332ZM161 36H162V37H161ZM161 37H162V38H161ZM173 38H174V39H173ZM161 39H162V40H161ZM173 39H174V40H173ZM160 41H161V42H160ZM159 42H160V43H159ZM240 43H242V44H240ZM239 44H240V45H239Z"/><path fill="#001828" fill-opacity="1.000" d="M332 30H333V31H332ZM332 31H333V32H332ZM332 32H333V33H332ZM332 33H333V34H332ZM332 34H333V35H332ZM332 35H333V36H332ZM332 36H333V37H332ZM332 37H333V38H332ZM161 38H162V39H161ZM332 38H333V39H332ZM175 43H176V44H175Z"/><path fill="#002020" fill-opacity="1.000" d="M243 40H244V41H243ZM174 41H175V42H174ZM176 43H177V44H176Z"/><path fill="#002028" fill-opacity="1.000" d="M242 41H243V42H242Z"/><path fill="#002830" fill-opacity="1.000" d="M400 36H401V37H400Z"/><path fill="#002838" fill-opacity="1.000" d="M392 27H393V28H392ZM392 28H393V29H392ZM396 28H397V29H396ZM398 28H399V29H398ZM397 29H398V30H397ZM399 36H400V37H399Z"/><path fill="#003030" fill-opacity="1.000" d="M243 39H244V40H243Z"/><path fill="#003038" fill-opacity="1.000" d="M393 27H394V28H393ZM397 27H399V28H397ZM401 30H402V31H401ZM401 31H402V32H401ZM243 35H244V36H243ZM401 35H402V36H401ZM243 36H244V37H243ZM243 37H244V38H243Z"/><path fill="#003040" fill-opacity="1.000" d="M393 26H394V27H393ZM395 29H397V30H395ZM401 34H402V35H401ZM395 36H396V37H395Z"/><path fill="#003838" fill-opacity="1.000" d="M243 0H244V1H243ZM243 1H244V2H243ZM243 2H244V3H243ZM243 3H244V4H243ZM243 4H244V5H243ZM243 5H244V6H243ZM243 6H244V7H243ZM243 7H244V8H243ZM243 8H244V9H243ZM243 9H244V10H243ZM243 10H244V11H243ZM243 11H244V12H243ZM243 12H244V13H243ZM243 13H244V14H243ZM243 14H244V15H243ZM243 15H244V16H243ZM243 16H244V17H243ZM243 17H244V18H243ZM243 18H244V19H243ZM243 19H244V20H243ZM243 20H244V21H243ZM243 21H244V22H243ZM243 22H244V23H243ZM243 23H244V24H243ZM243 24H244V25H243ZM243 25H244V26H243ZM243 26H244V27H243ZM243 27H244V28H243ZM243 28H244V29H243ZM243 29H244V30H243ZM243 32H244V33H243ZM243 33H244V34H243ZM243 34H244V35H243ZM243 38H244V39H243Z"/><path fill="#003840" fill-opacity="1.000" d="M396 27H397V28H396ZM398 29H400V30H398ZM243 30H244V31H243ZM243 31H244V32H243Z"/><path fill="#003848" fill-opacity="1.000" d="M239 39H240V40H239Z"/><path fill="#003850" fill-opacity="1.000" d="M123 23H124V24H123ZM115 28H116V29H115Z"/><path fill="#003858" fill-opacity="1.000" d="M123 27H124V28H123Z"/><path fill="#004048" fill-opacity="1.000" d="M238 41H239V42H238ZM179 42H180V43H179ZM237 42H238V43H237Z"/><path fill="#004050" fill-opacity="1.000" d="M118 21H119V22H118ZM115 26H116V27H115ZM118 30H121V31H118ZM176 30H177V31H176ZM176 34H177V35H176ZM176 35H177V36H176ZM176 36H177V37H176ZM176 37H177V38H176ZM178 41H179V42H178ZM228 42H230V43H228ZM234 42H236V43H234Z"/><path fill="#004060" fill-opacity="1.000" d="M117 23H118V24H117ZM122 23H123V24H122Z"/><path fill="#004850" fill-opacity="1.000" d="M180 42H228V43H180ZM230 42H234V43H230ZM236 42H237V43H236Z"/><path fill="#004860" fill-opacity="1.000" d="M118 22H119V23H118ZM121 23H122V24H121ZM116 27H117V28H116Z"/><path fill="#004868" fill-opacity="1.000" d="M123 26H124V27H123Z"/><path fill="#005858" fill-opacity="1.000" d="M238 42H239V43H238Z"/><path fill="#005878" fill-opacity="1.000" d="M122 27H123V28H122Z"/><path fill="#006078" fill-opacity="1.000" d="M116 28H117V29H116Z"/><path fill="#006880" fill-opacity="1.000" d="M119 29H120V30H119Z"/><path fill="#081018" fill-opacity="1.000" d="M362 40H363V41H362ZM428 43H429V44H428Z"/><path fill="#081020" fill-opacity="1.000" d="M430 41H431V42H430ZM365 43H366V44H365ZM96 44H97V45H96ZM267 44H268V45H267Z"/><path fill="#081820" fill-opacity="1.000" d="M161 0H162V1H161ZM362 0H363V1H362ZM161 1H162V2H161ZM362 1H363V2H362ZM161 2H162V3H161ZM362 2H363V3H362ZM161 3H162V4H161ZM362 3H363V4H362ZM161 4H162V5H161ZM362 4H363V5H362ZM161 5H162V6H161ZM362 5H363V6H362ZM161 6H162V7H161ZM362 6H363V7H362ZM161 7H162V8H161ZM362 7H363V8H362ZM161 8H162V9H161ZM362 8H363V9H362ZM161 9H162V10H161ZM362 9H363V10H362ZM161 10H162V11H161ZM362 10H363V11H362ZM161 11H162V12H161ZM362 11H363V12H362ZM161 12H162V13H161ZM362 12H363V13H362ZM161 13H162V14H161ZM362 13H363V14H362ZM161 14H162V15H161ZM362 14H363V15H362ZM161 15H162V16H161ZM362 15H363V16H362ZM161 16H162V17H161ZM362 16H363V17H362ZM161 17H162V18H161ZM362 17H363V18H362ZM161 18H162V19H161ZM362 18H363V19H362ZM161 19H162V20H161ZM362 19H363V20H362ZM161 20H162V21H161ZM362 20H363V21H362ZM161 21H162V22H161ZM362 21H363V22H362ZM161 22H162V23H161ZM362 22H363V23H362ZM161 23H162V24H161ZM362 23H363V24H362ZM161 24H162V25H161ZM362 24H363V25H362ZM161 25H162V26H161ZM362 25H363V26H362ZM161 26H162V27H161ZM362 26H363V27H362ZM161 27H162V28H161ZM362 27H363V28H362ZM161 28H162V29H161ZM362 28H363V29H362ZM161 29H162V30H161ZM362 29H363V30H362ZM161 30H162V31H161ZM362 30H363V31H362ZM161 31H162V32H161ZM362 31H363V32H362ZM161 32H162V33H161ZM362 32H363V33H362ZM161 33H162V34H161ZM362 33H363V34H362ZM161 34H162V35H161ZM362 34H363V35H362ZM161 35H162V36H161ZM362 35H363V36H362ZM362 36H363V37H362ZM362 37H363V38H362ZM362 39H363V40H362ZM429 42H430V43H429ZM156 44H157V45H156Z"/><path fill="#082028" fill-opacity="1.000" d="M431 39H432V40H431Z"/><path fill="#082030" fill-opacity="1.000" d="M265 42H266V43H265ZM266 43H267V44H266Z"/><path fill="#082830" fill-opacity="1.000" d="M388 24H389V25H388ZM402 24H403V25H402ZM401 37H402V38H401Z"/><path fill="#082838" fill-opacity="1.000" d="M398 25H399V26H398ZM392 26H393V27H392ZM400 26H401V27H400ZM401 28H403V29H401ZM392 30H393V31H392ZM402 32H403V33H402ZM390 34H391V35H390ZM392 35H393V36H392ZM402 35H403V36H402ZM397 36H398V37H397ZM395 37H396V38H395ZM399 38H401V39H399ZM264 41H265V42H264ZM329 42H330V43H329Z"/><path fill="#082840" fill-opacity="1.000" d="M392 32H393V33H392ZM392 33H393V34H392ZM391 34H392V35H391Z"/><path fill="#083038" fill-opacity="1.000" d="M402 29H403V30H402ZM402 30H403V31H402Z"/><path fill="#083040" fill-opacity="1.000" d="M113 25H114V26H113ZM395 28H396V29H395ZM123 31H124V32H123ZM402 31H403V32H402ZM392 34H393V35H392ZM402 34H403V35H402ZM398 36H399V37H398Z"/><path fill="#083048" fill-opacity="1.000" d="M133 22H134V23H133ZM177 39H178V40H177Z"/><path fill="#083050" fill-opacity="1.000" d="M122 22H123V23H122ZM135 27H136V28H135Z"/><path fill="#083840" fill-opacity="1.000" d="M401 29H402V30H401ZM394 36H395V37H394Z"/><path fill="#083848" fill-opacity="1.000" d="M397 28H398V29H397ZM401 32H402V33H401ZM401 33H402V34H401ZM237 40H238V41H237Z"/><path fill="#083850" fill-opacity="1.000" d="M133 23H135V24H133ZM135 28H136V29H135ZM239 38H240V39H239ZM180 41H181V42H180Z"/><path fill="#083858" fill-opacity="1.000" d="M121 22H122V23H121ZM123 28H124V29H123Z"/><path fill="#084048" fill-opacity="1.000" d="M395 27H396V28H395ZM230 41H232V42H230Z"/><path fill="#084050" fill-opacity="1.000" d="M176 0H177V1H176ZM176 1H177V2H176ZM176 2H177V3H176ZM176 3H177V4H176ZM176 4H177V5H176ZM176 5H177V6H176ZM176 6H177V7H176ZM176 7H177V8H176ZM176 8H177V9H176ZM176 9H177V10H176ZM176 10H177V11H176ZM176 11H177V12H176ZM176 12H177V13H176ZM176 13H177V14H176ZM176 14H177V15H176ZM176 15H177V16H176ZM176 16H177V17H176ZM176 17H177V18H176ZM176 18H177V19H176ZM176 19H177V20H176ZM176 20H177V21H176ZM176 21H177V22H176ZM176 22H177V23H176ZM176 23H177V24H176ZM176 24H177V25H176ZM176 25H177V26H176ZM176 26H177V27H176ZM176 27H177V28H176ZM128 28H129V29H128ZM176 28H177V29H176ZM115 29H116V30H115ZM176 29H177V30H176ZM176 31H177V32H176ZM176 32H177V33H176ZM176 33H177V34H176ZM240 34H241V35H240ZM240 35H241V36H240ZM234 37H235V38H234ZM176 39H177V40H176ZM177 40H178V41H177ZM238 40H239V41H238ZM179 41H180V42H179ZM237 41H238V42H237Z"/><path fill="#084058" fill-opacity="1.000" d="M124 26H125V27H124ZM115 27H116V28H115ZM176 38H177V39H176Z"/><path fill="#084060" fill-opacity="1.000" d="M116 23H117V24H116Z"/><path fill="#084850" fill-opacity="1.000" d="M240 39H241V40H240ZM239 40H240V41H239Z"/><path fill="#084860" fill-opacity="1.000" d="M131 29H132V30H131Z"/><path fill="#085058" fill-opacity="1.000" d="M241 34H242V35H241ZM241 35H242V36H241ZM240 40H241V41H240Z"/><path fill="#100810" fill-opacity="1.000" d="M174 45H175V46H174Z"/><path fill="#101018" fill-opacity="1.000" d="M243 43H244V44H243Z"/><path fill="#101820" fill-opacity="1.000" d="M362 38H363V39H362ZM363 40H364V41H363Z"/><path fill="#102028" fill-opacity="1.000" d="M431 32H432V33H431ZM431 33H432V34H431ZM431 34H432V35H431ZM431 35H432V36H431ZM431 36H432V37H431ZM431 37H432V38H431ZM431 38H432V39H431ZM364 41H365V42H364ZM365 42H366V43H365ZM366 43H388V44H366ZM392 43H428V44H392Z"/><path fill="#102030" fill-opacity="1.000" d="M431 0H432V1H431ZM431 1H432V2H431ZM431 2H432V3H431ZM431 3H432V4H431ZM431 4H432V5H431ZM431 5H432V6H431ZM431 6H432V7H431ZM431 7H432V8H431ZM431 8H432V9H431ZM431 9H432V10H431ZM431 10H432V11H431ZM431 11H432V12H431ZM431 12H432V13H431ZM431 13H432V14H431ZM431 14H432V15H431ZM431 15H432V16H431ZM431 16H432V17H431ZM431 17H432V18H431ZM431 18H432V19H431ZM431 19H432V20H431ZM431 20H432V21H431ZM431 21H432V22H431ZM389 22H390V23H389ZM431 22H432V23H431ZM394 23H395V24H394ZM399 23H400V24H399ZM431 23H432V24H431ZM431 24H432V25H431ZM390 25H391V26H390ZM431 25H432V26H431ZM401 26H402V27H401ZM431 26H432V27H431ZM431 27H432V28H431ZM389 28H390V29H389ZM431 28H432V29H431ZM431 29H432V30H431ZM431 30H432V31H431ZM431 31H432V32H431ZM393 37H394V38H393ZM92 40H93V41H92ZM430 40H431V41H430ZM93 41H94V42H93ZM159 41H160V42H159ZM365 41H366V42H365ZM371 41H372V42H371ZM429 41H430V42H429ZM94 42H95V43H94ZM428 42H429V43H428ZM95 43H96V44H95ZM157 43H158V44H157ZM388 43H392V44H388Z"/><path fill="#102038" fill-opacity="1.000" d="M395 22H396V23H395ZM397 22H398V23H397ZM396 23H397V24H396ZM393 24H394V25H393ZM397 24H398V25H397ZM390 26H391V27H390ZM390 31H391V32H390ZM403 32H404V33H403ZM388 33H389V34H388ZM392 36H393V37H392ZM428 39H429V40H428Z"/><path fill="#102830" fill-opacity="1.000" d="M400 22H401V23H400ZM388 23H389V24H388ZM390 23H392V24H390ZM389 25H390V26H389ZM388 30H389V31H388ZM389 31H390V32H389ZM430 32H431V33H430ZM388 36H390V37H388ZM389 37H390V38H389ZM389 38H390V39H389ZM364 39H365V40H364ZM371 40H372V41H371ZM367 41H368V42H367Z"/><path fill="#102838" fill-opacity="1.000" d="M365 0H366V1H365ZM367 0H431V1H367ZM365 1H366V2H365ZM367 1H431V2H367ZM365 2H366V3H365ZM367 2H431V3H367ZM365 3H366V4H365ZM367 3H431V4H367ZM365 4H366V5H365ZM367 4H431V5H367ZM365 5H366V6H365ZM367 5H431V6H367ZM365 6H366V7H365ZM367 6H431V7H367ZM365 7H366V8H365ZM367 7H431V8H367ZM365 8H366V9H365ZM367 8H431V9H367ZM365 9H366V10H365ZM367 9H431V10H367ZM365 10H366V11H365ZM367 10H431V11H367ZM365 11H366V12H365ZM367 11H431V12H367ZM365 12H366V13H365ZM367 12H431V13H367ZM365 13H366V14H365ZM367 13H431V14H367ZM365 14H366V15H365ZM367 14H431V15H367ZM365 15H366V16H365ZM367 15H431V16H367ZM365 16H366V17H365ZM367 16H431V17H367ZM365 17H366V18H365ZM367 17H395V18H367ZM399 17H431V18H399ZM365 18H366V19H365ZM367 18H393V19H367ZM400 18H431V19H400ZM365 19H366V20H365ZM367 19H393V20H367ZM400 19H431V20H400ZM365 20H366V21H365ZM367 20H388V21H367ZM390 20H400V21H390ZM404 20H431V21H404ZM365 21H366V22H365ZM367 21H388V22H367ZM391 21H400V22H391ZM404 21H431V22H404ZM365 22H366V23H365ZM367 22H388V23H367ZM390 22H394V23H390ZM398 22H400V23H398ZM401 22H431V23H401ZM365 23H366V24H365ZM367 23H388V24H367ZM393 23H394V24H393ZM400 23H431V24H400ZM365 24H366V25H365ZM367 24H388V25H367ZM391 24H393V25H391ZM395 24H397V25H395ZM398 24H402V25H398ZM403 24H431V25H403ZM365 25H366V26H365ZM367 25H389V26H367ZM391 25H392V26H391ZM393 25H394V26H393ZM401 25H431V26H401ZM365 26H366V27H365ZM367 26H387V27H367ZM402 26H403V27H402ZM404 26H431V27H404ZM365 27H366V28H365ZM367 27H387V28H367ZM391 27H392V28H391ZM401 27H403V28H401ZM404 27H431V28H404ZM365 28H366V29H365ZM367 28H388V29H367ZM390 28H391V29H390ZM403 28H431V29H403ZM365 29H391V30H365ZM404 29H431V30H404ZM364 30H370V31H364ZM372 30H388V31H372ZM390 30H392V31H390ZM403 30H426V31H403ZM427 30H431V31H427ZM364 31H370V32H364ZM372 31H389V32H372ZM391 31H392V32H391ZM404 31H425V32H404ZM427 31H431V32H427ZM364 32H370V33H364ZM372 32H388V33H372ZM404 32H430V33H404ZM364 33H366V34H364ZM368 33H388V34H368ZM404 33H429V34H404ZM364 34H366V35H364ZM368 34H389V35H368ZM403 34H429V35H403ZM364 35H366V36H364ZM368 35H392V36H368ZM403 35H429V36H403ZM364 36H366V37H364ZM369 36H388V37H369ZM402 36H403V37H402ZM404 36H424V37H404ZM425 36H429V37H425ZM364 37H367V38H364ZM369 37H389V38H369ZM394 37H395V38H394ZM396 37H397V38H396ZM398 37H399V38H398ZM402 37H424V38H402ZM426 37H429V38H426ZM365 38H389V39H365ZM390 38H392V39H390ZM393 38H396V39H393ZM398 38H399V39H398ZM401 38H420V39H401ZM426 38H429V39H426ZM365 39H392V40H365ZM393 39H396V40H393ZM398 39H421V40H398ZM425 39H428V40H425ZM263 40H264V41H263ZM367 40H369V41H367ZM372 40H387V41H372ZM405 40H429V41H405ZM368 41H369V42H368ZM372 41H387V42H372ZM393 41H394V42H393ZM405 41H428V42H405ZM391 42H399V43H391Z"/><path fill="#102840" fill-opacity="1.000" d="M366 0H367V1H366ZM366 1H367V2H366ZM366 2H367V3H366ZM366 3H367V4H366ZM366 4H367V5H366ZM366 5H367V6H366ZM366 6H367V7H366ZM366 7H367V8H366ZM366 8H367V9H366ZM366 9H367V10H366ZM366 10H367V11H366ZM366 11H367V12H366ZM366 12H367V13H366ZM366 13H367V14H366ZM366 14H367V15H366ZM366 15H367V16H366ZM366 16H367V17H366ZM366 17H367V18H366ZM366 18H367V19H366ZM366 19H367V20H366ZM366 20H367V21H366ZM366 21H367V22H366ZM366 22H367V23H366ZM366 23H367V24H366ZM366 24H367V25H366ZM366 25H367V26H366ZM394 25H396V26H394ZM366 26H367V27H366ZM366 27H367V28H366ZM366 28H367V29H366ZM426 30H427V31H426ZM425 31H427V32H425ZM121 32H122V33H121ZM390 32H391V33H390ZM366 33H368V34H366ZM389 33H391V34H389ZM402 33H404V34H402ZM366 34H368V35H366ZM389 34H390V35H389ZM366 35H368V36H366ZM366 36H369V37H366ZM424 36H425V37H424ZM367 37H369V38H367ZM424 37H426V38H424ZM420 38H426V39H420ZM421 39H425V40H421ZM394 40H396V41H394ZM398 40H400V41H398ZM394 41H400V42H394Z"/><path fill="#103038" fill-opacity="1.000" d="M389 23H390V24H389ZM389 24H391V25H389ZM399 25H400V26H399ZM403 29H404V30H403ZM389 30H390V31H389ZM401 36H402V37H401ZM399 37H401V38H399Z"/><path fill="#103040" fill-opacity="1.000" d="M109 22H110V23H109ZM111 24H112V25H111ZM109 25H110V26H109ZM392 25H393V26H392ZM400 25H401V26H400ZM114 26H115V27H114ZM109 27H110V28H109ZM391 28H392V29H391ZM391 29H393V30H391ZM392 31H393V32H392ZM403 31H404V32H403ZM391 32H392V33H391ZM391 33H392V34H391ZM119 36H121V37H119ZM393 36H394V37H393ZM396 36H397V37H396ZM117 37H118V38H117ZM331 40H332V41H331ZM97 41H99V42H97ZM330 41H331V42H330Z"/><path fill="#103048" fill-opacity="1.000" d="M136 14H140V15H136ZM120 15H121V16H120ZM136 15H137V16H136ZM138 15H140V16H138ZM116 16H117V17H116ZM118 16H119V17H118ZM120 16H123V17H120ZM137 16H138V17H137ZM116 17H117V18H116ZM118 17H120V18H118ZM119 18H120V19H119ZM124 18H125V19H124ZM118 19H121V20H118ZM124 19H125V20H124ZM118 20H119V21H118ZM120 20H121V21H120ZM129 20H130V21H129ZM133 20H135V21H133ZM122 21H123V22H122ZM135 21H136V22H135ZM110 22H111V23H110ZM112 22H114V23H112ZM115 22H116V23H115ZM124 22H125V23H124ZM136 22H137V23H136ZM144 22H147V23H144ZM111 23H113V24H111ZM136 23H138V24H136ZM146 23H147V24H146ZM108 24H109V25H108ZM146 24H147V25H146ZM109 26H110V27H109ZM111 26H113V27H111ZM126 26H127V27H126ZM112 27H115V28H112ZM125 27H127V28H125ZM100 28H102V29H100ZM110 28H113V29H110ZM127 28H128V29H127ZM108 29H109V30H108ZM113 29H115V30H113ZM136 29H137V30H136ZM125 30H126V31H125ZM118 31H119V32H118ZM120 31H122V32H120ZM125 31H127V32H125ZM131 31H132V32H131ZM135 32H138V33H135ZM123 34H124V35H123ZM133 35H135V36H133ZM137 35H140V36H137ZM121 36H122V37H121ZM124 36H128V37H124ZM130 36H132V37H130ZM126 37H128V38H126ZM156 38H158V39H156ZM96 39H98V40H96ZM99 39H100V40H99ZM157 39H158V40H157ZM99 41H100V42H99Z"/><path fill="#103050" fill-opacity="1.000" d="M124 17H125V18H124ZM126 17H127V18H126ZM126 18H127V19H126ZM130 18H131V19H130ZM128 19H132V20H128ZM132 20H133V21H132ZM120 21H121V22H120ZM125 26H126V27H125ZM136 26H137V27H136ZM136 27H137V28H136ZM156 30H157V31H156ZM156 31H157V32H156ZM101 33H115V34H101ZM132 33H137V34H132ZM139 33H147V34H139ZM101 34H115V35H101ZM133 34H136V35H133ZM138 34H147V35H138ZM97 38H99V39H97ZM149 38H150V39H149ZM98 39H99V40H98Z"/><path fill="#103848" fill-opacity="1.000" d="M237 0H238V1H237ZM239 0H240V1H239ZM237 1H238V2H237ZM239 1H240V2H239ZM237 2H238V3H237ZM239 2H240V3H239ZM237 3H238V4H237ZM239 3H240V4H239ZM237 4H238V5H237ZM239 4H240V5H239ZM237 5H238V6H237ZM239 5H240V6H239ZM237 6H238V7H237ZM239 6H240V7H239ZM237 7H238V8H237ZM239 7H240V8H239ZM237 8H238V9H237ZM239 8H240V9H239ZM237 9H238V10H237ZM239 9H240V10H239ZM237 10H238V11H237ZM239 10H240V11H239ZM237 11H238V12H237ZM239 11H240V12H239ZM237 12H238V13H237ZM239 12H240V13H239ZM237 13H238V14H237ZM239 13H240V14H239ZM121 14H122V15H121ZM237 14H238V15H237ZM239 14H240V15H239ZM121 15H122V16H121ZM137 15H138V16H137ZM237 15H238V16H237ZM239 15H240V16H239ZM237 16H238V17H237ZM239 16H240V17H239ZM237 17H238V18H237ZM239 17H240V18H239ZM125 18H126V19H125ZM237 18H238V19H237ZM239 18H240V19H239ZM125 19H126V20H125ZM237 19H238V20H237ZM239 19H240V20H239ZM237 20H238V21H237ZM239 20H240V21H239ZM237 21H238V22H237ZM239 21H240V22H239ZM143 22H144V23H143ZM237 22H238V23H237ZM239 22H240V23H239ZM113 23H115V24H113ZM124 23H125V24H124ZM142 23H146V24H142ZM237 23H238V24H237ZM239 23H240V24H239ZM126 24H127V25H126ZM142 24H146V25H142ZM237 24H238V25H237ZM239 24H240V25H239ZM142 25H146V26H142ZM237 25H238V26H237ZM239 25H240V26H239ZM142 26H145V27H142ZM237 26H238V27H237ZM239 26H240V27H239ZM237 27H238V28H237ZM239 27H240V28H239ZM114 28H115V29H114ZM237 28H238V29H237ZM239 28H240V29H239ZM127 29H128V30H127ZM237 29H238V30H237ZM115 30H116V31H115ZM124 30H125V31H124ZM126 30H128V31H126ZM131 30H133V31H131ZM117 31H118V32H117ZM119 31H120V32H119ZM124 31H125V32H124ZM127 31H128V32H127ZM130 31H131V32H130ZM179 31H181V32H179ZM181 32H230V33H181ZM239 32H240V33H239ZM227 33H230V34H227ZM232 33H234V34H232ZM239 33H240V34H239ZM228 34H230V35H228ZM231 34H232V35H231ZM239 34H240V35H239ZM178 35H179V36H178ZM228 35H230V36H228ZM231 35H232V36H231ZM239 35H240V36H239ZM179 36H180V37H179ZM228 36H232V37H228ZM228 37H230V38H228ZM181 38H229V39H181ZM181 39H229V40H181ZM179 40H180V41H179ZM236 40H237V41H236ZM228 41H230V42H228ZM232 41H233V42H232Z"/><path fill="#103850" fill-opacity="1.000" d="M178 0H228V1H178ZM230 0H233V1H230ZM235 0H237V1H235ZM240 0H241V1H240ZM178 1H228V2H178ZM230 1H233V2H230ZM235 1H237V2H235ZM240 1H241V2H240ZM178 2H228V3H178ZM230 2H233V3H230ZM235 2H237V3H235ZM240 2H241V3H240ZM178 3H228V4H178ZM230 3H233V4H230ZM235 3H237V4H235ZM240 3H241V4H240ZM178 4H228V5H178ZM230 4H233V5H230ZM235 4H237V5H235ZM240 4H241V5H240ZM178 5H228V6H178ZM230 5H233V6H230ZM235 5H237V6H235ZM240 5H241V6H240ZM178 6H228V7H178ZM230 6H233V7H230ZM235 6H237V7H235ZM240 6H241V7H240ZM178 7H228V8H178ZM230 7H233V8H230ZM235 7H237V8H235ZM240 7H241V8H240ZM178 8H228V9H178ZM230 8H233V9H230ZM235 8H237V9H235ZM240 8H241V9H240ZM178 9H228V10H178ZM230 9H233V10H230ZM235 9H237V10H235ZM240 9H241V10H240ZM178 10H228V11H178ZM230 10H233V11H230ZM235 10H237V11H235ZM240 10H241V11H240ZM178 11H228V12H178ZM230 11H233V12H230ZM235 11H237V12H235ZM240 11H241V12H240ZM178 12H228V13H178ZM230 12H233V13H230ZM235 12H237V13H235ZM240 12H241V13H240ZM178 13H228V14H178ZM230 13H233V14H230ZM235 13H237V14H235ZM240 13H241V14H240ZM178 14H228V15H178ZM230 14H233V15H230ZM235 14H237V15H235ZM240 14H241V15H240ZM178 15H228V16H178ZM230 15H233V16H230ZM235 15H237V16H235ZM240 15H241V16H240ZM125 16H126V17H125ZM178 16H228V17H178ZM230 16H233V17H230ZM235 16H237V17H235ZM240 16H241V17H240ZM125 17H126V18H125ZM178 17H228V18H178ZM230 17H233V18H230ZM235 17H237V18H235ZM240 17H241V18H240ZM178 18H228V19H178ZM230 18H233V19H230ZM235 18H237V19H235ZM240 18H241V19H240ZM178 19H228V20H178ZM230 19H233V20H230ZM235 19H237V20H235ZM240 19H241V20H240ZM130 20H132V21H130ZM178 20H228V21H178ZM230 20H233V21H230ZM235 20H237V21H235ZM240 20H241V21H240ZM130 21H131V22H130ZM132 21H135V22H132ZM178 21H228V22H178ZM230 21H233V22H230ZM235 21H237V22H235ZM240 21H241V22H240ZM123 22H124V23H123ZM134 22H135V23H134ZM178 22H228V23H178ZM230 22H233V23H230ZM235 22H237V23H235ZM240 22H241V23H240ZM115 23H116V24H115ZM135 23H136V24H135ZM178 23H228V24H178ZM230 23H233V24H230ZM235 23H237V24H235ZM240 23H241V24H240ZM178 24H228V25H178ZM230 24H233V25H230ZM235 24H237V25H235ZM240 24H241V25H240ZM125 25H127V26H125ZM178 25H228V26H178ZM230 25H233V26H230ZM235 25H237V26H235ZM240 25H241V26H240ZM178 26H228V27H178ZM230 26H233V27H230ZM235 26H237V27H235ZM240 26H241V27H240ZM124 27H125V28H124ZM178 27H228V28H178ZM230 27H233V28H230ZM235 27H237V28H235ZM240 27H241V28H240ZM124 28H125V29H124ZM178 28H228V29H178ZM230 28H233V29H230ZM235 28H237V29H235ZM240 28H241V29H240ZM123 29H124V30H123ZM135 29H136V30H135ZM178 29H228V30H178ZM230 29H237V30H230ZM240 29H241V30H240ZM123 30H124V31H123ZM180 30H228V31H180ZM231 30H234V31H231ZM236 30H237V31H236ZM240 30H241V31H240ZM178 31H179V32H178ZM181 31H228V32H181ZM232 31H233V32H232ZM236 31H237V32H236ZM240 31H241V32H240ZM177 32H178V33H177ZM232 32H235V33H232ZM240 32H241V33H240ZM181 33H227V34H181ZM238 33H239V34H238ZM177 34H178V35H177ZM227 34H228V35H227ZM180 35H228V36H180ZM178 36H179V37H178ZM180 36H228V37H180ZM232 36H233V37H232ZM235 36H238V37H235ZM240 36H241V37H240ZM180 37H228V38H180ZM231 37H232V38H231ZM236 37H238V38H236ZM229 38H230V39H229ZM231 38H237V39H231ZM238 38H239V39H238ZM229 39H236V40H229ZM230 40H232V41H230ZM181 41H228V42H181ZM233 41H236V42H233Z"/><path fill="#103858" fill-opacity="1.000" d="M117 22H118V23H117Z"/><path fill="#104048" fill-opacity="1.000" d="M179 30H180V31H179ZM230 34H231V35H230ZM230 35H231V36H230Z"/><path fill="#104050" fill-opacity="1.000" d="M177 0H178V1H177ZM177 1H178V2H177ZM177 2H178V3H177ZM177 3H178V4H177ZM177 4H178V5H177ZM177 5H178V6H177ZM177 6H178V7H177ZM177 7H178V8H177ZM177 8H178V9H177ZM177 9H178V10H177ZM177 10H178V11H177ZM177 11H178V12H177ZM177 12H178V13H177ZM177 13H178V14H177ZM177 14H178V15H177ZM177 15H178V16H177ZM177 16H178V17H177ZM177 17H178V18H177ZM177 18H178V19H177ZM177 19H178V20H177ZM177 20H178V21H177ZM177 21H178V22H177ZM177 22H178V23H177ZM177 23H178V24H177ZM177 24H178V25H177ZM177 25H178V26H177ZM177 26H178V27H177ZM177 27H178V28H177ZM177 28H178V29H177ZM128 29H129V30H128ZM177 29H178V30H177ZM128 30H131V31H128ZM177 30H179V31H177ZM234 30H236V31H234ZM177 31H178V32H177ZM233 31H236V32H233ZM240 33H241V34H240ZM177 35H178V36H177ZM177 36H178V37H177ZM233 36H235V37H233ZM177 37H178V38H177ZM232 37H234V38H232ZM235 37H236V38H235ZM237 38H238V39H237ZM240 38H241V39H240ZM237 39H239V40H237ZM178 40H179V41H178ZM236 41H237V42H236Z"/><path fill="#104058" fill-opacity="1.000" d="M124 24H125V25H124Z"/><path fill="#104060" fill-opacity="1.000" d="M124 25H125V26H124Z"/><path fill="#104858" fill-opacity="1.000" d="M241 0H242V1H241ZM241 1H242V2H241ZM241 2H242V3H241ZM241 3H242V4H241ZM241 4H242V5H241ZM241 5H242V6H241ZM241 6H242V7H241ZM241 7H242V8H241ZM241 8H242V9H241ZM241 9H242V10H241ZM241 10H242V11H241ZM241 11H242V12H241ZM241 12H242V13H241ZM241 13H242V14H241ZM241 14H242V15H241ZM241 15H242V16H241ZM241 16H242V17H241ZM241 17H242V18H241ZM241 18H242V19H241ZM241 19H242V20H241ZM241 20H242V21H241ZM241 21H242V22H241ZM241 22H242V23H241ZM241 23H242V24H241ZM241 24H242V25H241ZM241 25H242V26H241ZM241 26H242V27H241ZM241 27H242V28H241ZM241 28H242V29H241ZM241 29H242V30H241ZM241 30H242V31H241ZM241 31H242V32H241ZM241 32H242V33H241ZM241 38H242V39H241Z"/><path fill="#104860" fill-opacity="1.000" d="M134 27H135V28H134ZM134 28H135V29H134Z"/><path fill="#105058" fill-opacity="1.000" d="M241 33H242V34H241ZM241 39H242V40H241ZM239 41H240V42H239Z"/><path fill="#105060" fill-opacity="1.000" d="M117 30H118V31H117ZM121 30H122V31H121Z"/><path fill="#105068" fill-opacity="1.000" d="M274 33H275V34H274Z"/><path fill="#105070" fill-opacity="1.000" d="M120 22H121V23H120ZM324 39H326V40H324Z"/><path fill="#105868" fill-opacity="1.000" d="M397 32H398V33H397Z"/><path fill="#106068" fill-opacity="1.000" d="M175 38H176V39H175Z"/><path fill="#106078" fill-opacity="1.000" d="M175 0H176V1H175ZM175 1H176V2H175ZM175 2H176V3H175ZM175 3H176V4H175ZM175 4H176V5H175ZM175 5H176V6H175ZM175 6H176V7H175ZM175 7H176V8H175ZM175 8H176V9H175ZM175 9H176V10H175ZM175 10H176V11H175ZM175 11H176V12H175ZM175 12H176V13H175ZM175 13H176V14H175ZM175 14H176V15H175ZM175 15H176V16H175ZM175 16H176V17H175ZM175 17H176V18H175ZM175 18H176V19H175ZM175 19H176V20H175ZM175 20H176V21H175ZM175 21H176V22H175ZM175 22H176V23H175ZM175 23H176V24H175ZM175 24H176V25H175ZM175 25H176V26H175ZM175 26H176V27H175ZM175 27H176V28H175ZM175 28H176V29H175Z"/><path fill="#106080" fill-opacity="1.000" d="M122 28H123V29H122Z"/><path fill="#106870" fill-opacity="1.000" d="M175 33H176V34H175ZM175 34H176V35H175ZM175 35H176V36H175ZM175 36H176V37H175ZM175 37H176V38H175Z"/><path fill="#107080" fill-opacity="1.000" d="M123 24H124V25H123ZM116 29H117V30H116Z"/><path fill="#108898" fill-opacity="1.000" d="M122 24H123V25H122Z"/><path fill="#182030" fill-opacity="1.000" d="M391 37H393V38H391ZM363 39H364V40H363Z"/><path fill="#182038" fill-opacity="1.000" d="M395 18H397V19H395ZM388 26H389V27H388ZM388 27H389V28H388ZM388 41H390V42H388ZM401 41H404V42H401Z"/><path fill="#182040" fill-opacity="1.000" d="M390 41H391V42H390Z"/><path fill="#182830" fill-opacity="1.000" d="M363 0H364V1H363ZM363 1H364V2H363ZM363 2H364V3H363ZM363 3H364V4H363ZM363 4H364V5H363ZM363 5H364V6H363ZM363 6H364V7H363ZM363 7H364V8H363ZM363 8H364V9H363ZM363 9H364V10H363ZM363 10H364V11H363ZM363 11H364V12H363ZM363 12H364V13H363ZM363 13H364V14H363ZM363 14H364V15H363ZM363 15H364V16H363ZM363 16H364V17H363ZM363 17H364V18H363ZM363 18H364V19H363ZM363 19H364V20H363ZM363 20H364V21H363ZM363 21H364V22H363ZM363 22H364V23H363ZM363 23H364V24H363ZM363 24H364V25H363ZM363 25H364V26H363ZM363 26H364V27H363ZM363 27H364V28H363ZM363 28H364V29H363ZM363 29H364V30H363ZM430 33H431V34H430ZM430 34H431V35H430ZM430 35H431V36H430ZM363 36H364V37H363ZM430 36H431V37H430ZM363 37H364V38H363ZM390 37H391V38H390ZM430 37H431V38H430ZM363 38H364V39H363ZM430 38H431V39H430ZM364 40H365V41H364ZM366 42H368V43H366ZM371 42H372V43H371Z"/><path fill="#182838" fill-opacity="1.000" d="M364 0H365V1H364ZM364 1H365V2H364ZM364 2H365V3H364ZM364 3H365V4H364ZM364 4H365V5H364ZM364 5H365V6H364ZM364 6H365V7H364ZM364 7H365V8H364ZM364 8H365V9H364ZM364 9H365V10H364ZM364 10H365V11H364ZM364 11H365V12H364ZM364 12H365V13H364ZM364 13H365V14H364ZM364 14H365V15H364ZM364 15H365V16H364ZM364 16H365V17H364ZM364 17H365V18H364ZM395 17H399V18H395ZM364 18H365V19H364ZM393 18H395V19H393ZM397 18H400V19H397ZM364 19H365V20H364ZM393 19H400V20H393ZM364 20H365V21H364ZM388 20H390V21H388ZM400 20H404V21H400ZM364 21H365V22H364ZM388 21H391V22H388ZM400 21H404V22H400ZM364 22H365V23H364ZM364 23H365V24H364ZM398 23H399V24H398ZM364 24H365V25H364ZM364 25H365V26H364ZM364 26H365V27H364ZM387 26H388V27H387ZM403 26H404V27H403ZM364 27H365V28H364ZM387 27H388V28H387ZM403 27H404V28H403ZM364 28H365V29H364ZM364 29H365V30H364ZM363 30H364V31H363ZM370 30H372V31H370ZM363 31H364V32H363ZM370 31H372V32H370ZM363 32H364V33H363ZM370 32H372V33H370ZM388 32H390V33H388ZM363 33H364V34H363ZM429 33H430V34H429ZM363 34H364V35H363ZM429 34H430V35H429ZM363 35H364V36H363ZM429 35H430V36H429ZM390 36H391V37H390ZM403 36H404V37H403ZM429 36H430V37H429ZM397 37H398V38H397ZM429 37H430V38H429ZM364 38H365V39H364ZM392 38H393V39H392ZM396 38H398V39H396ZM429 38H430V39H429ZM392 39H393V40H392ZM396 39H398V40H396ZM429 39H431V40H429ZM160 40H161V41H160ZM365 40H367V41H365ZM369 40H371V41H369ZM387 40H394V41H387ZM401 40H405V41H401ZM429 40H430V41H429ZM366 41H367V42H366ZM369 41H371V42H369ZM387 41H388V42H387ZM391 41H393V42H391ZM400 41H401V42H400ZM404 41H405V42H404ZM428 41H429V42H428ZM158 42H159V43H158ZM368 42H371V43H368ZM372 42H390V43H372ZM399 42H428V43H399Z"/><path fill="#182840" fill-opacity="1.000" d="M129 22H130V23H129ZM394 22H395V23H394ZM396 22H397V23H396ZM395 23H396V24H395ZM397 23H398V24H397ZM394 24H395V25H394ZM388 28H389V29H388ZM396 40H398V41H396ZM400 40H401V41H400ZM390 42H391V43H390Z"/><path fill="#182848" fill-opacity="1.000" d="M118 33H119V34H118Z"/><path fill="#183038" fill-opacity="1.000" d="M388 22H389V23H388ZM328 43H329V44H328Z"/><path fill="#183040" fill-opacity="1.000" d="M92 0H93V1H92ZM159 0H160V1H159ZM92 1H93V2H92ZM159 1H160V2H159ZM92 2H93V3H92ZM159 2H160V3H159ZM92 3H93V4H92ZM159 3H160V4H159ZM92 4H93V5H92ZM159 4H160V5H159ZM92 5H93V6H92ZM159 5H160V6H159ZM92 6H93V7H92ZM159 6H160V7H159ZM92 7H93V8H92ZM159 7H160V8H159ZM92 8H93V9H92ZM159 8H160V9H159ZM92 9H93V10H92ZM159 9H160V10H159ZM92 10H93V11H92ZM159 10H160V11H159ZM92 11H93V12H92ZM159 11H160V12H159ZM92 12H93V13H92ZM159 12H160V13H159ZM92 13H93V14H92ZM159 13H160V14H159ZM92 14H93V15H92ZM130 14H131V15H130ZM159 14H160V15H159ZM92 15H93V16H92ZM129 15H131V16H129ZM159 15H160V16H159ZM92 16H93V17H92ZM159 16H160V17H159ZM92 17H93V18H92ZM159 17H160V18H159ZM92 18H93V19H92ZM159 18H160V19H159ZM92 19H93V20H92ZM117 19H118V20H117ZM159 19H160V20H159ZM92 20H93V21H92ZM117 20H118V21H117ZM159 20H160V21H159ZM92 21H93V22H92ZM125 21H128V22H125ZM159 21H160V22H159ZM92 22H93V23H92ZM159 22H160V23H159ZM92 23H93V24H92ZM126 23H128V24H126ZM159 23H160V24H159ZM392 23H393V24H392ZM92 24H93V25H92ZM159 24H160V25H159ZM92 25H93V26H92ZM159 25H160V26H159ZM92 26H93V27H92ZM159 26H160V27H159ZM391 26H392V27H391ZM92 27H93V28H92ZM159 27H160V28H159ZM92 28H93V29H92ZM126 28H127V29H126ZM159 28H160V29H159ZM92 29H93V30H92ZM159 29H160V30H159ZM92 30H93V31H92ZM159 30H160V31H159ZM92 31H93V32H92ZM159 31H160V32H159ZM92 32H94V33H92ZM159 32H160V33H159ZM92 33H94V34H92ZM159 33H160V34H159ZM92 34H94V35H92ZM159 34H160V35H159ZM92 35H94V36H92ZM159 35H160V36H159ZM92 36H94V37H92ZM159 36H160V37H159ZM92 37H94V38H92ZM137 37H138V38H137ZM92 38H94V39H92ZM160 38H161V39H160ZM93 40H94V41H93ZM159 40H160V41H159ZM94 41H95V42H94ZM96 41H97V42H96ZM156 41H157V42H156ZM117 43H118V44H117ZM119 43H120V44H119ZM121 43H122V44H121ZM123 43H124V44H123ZM125 43H126V44H125ZM127 43H128V44H127ZM129 43H130V44H129Z"/><path fill="#183048" fill-opacity="1.000" d="M93 0H94V1H93ZM95 0H157V1H95ZM158 0H159V1H158ZM93 1H94V2H93ZM95 1H157V2H95ZM158 1H159V2H158ZM93 2H94V3H93ZM95 2H157V3H95ZM158 2H159V3H158ZM93 3H94V4H93ZM95 3H157V4H95ZM158 3H159V4H158ZM93 4H94V5H93ZM95 4H157V5H95ZM158 4H159V5H158ZM93 5H94V6H93ZM95 5H157V6H95ZM158 5H159V6H158ZM93 6H94V7H93ZM95 6H157V7H95ZM158 6H159V7H158ZM93 7H94V8H93ZM95 7H157V8H95ZM158 7H159V8H158ZM93 8H94V9H93ZM95 8H157V9H95ZM158 8H159V9H158ZM93 9H94V10H93ZM95 9H157V10H95ZM158 9H159V10H158ZM93 10H94V11H93ZM95 10H157V11H95ZM158 10H159V11H158ZM93 11H94V12H93ZM95 11H157V12H95ZM158 11H159V12H158ZM93 12H94V13H93ZM95 12H157V13H95ZM158 12H159V13H158ZM93 13H94V14H93ZM95 13H157V14H95ZM158 13H159V14H158ZM93 14H94V15H93ZM95 14H118V15H95ZM120 14H121V15H120ZM123 14H128V15H123ZM129 14H130V15H129ZM132 14H136V15H132ZM140 14H157V15H140ZM158 14H159V15H158ZM93 15H94V16H93ZM95 15H116V16H95ZM117 15H119V16H117ZM122 15H128V16H122ZM132 15H136V16H132ZM140 15H157V16H140ZM158 15H159V16H158ZM93 16H94V17H93ZM95 16H116V17H95ZM126 16H131V17H126ZM132 16H137V17H132ZM138 16H157V17H138ZM158 16H159V17H158ZM93 17H94V18H93ZM95 17H116V18H95ZM122 17H123V18H122ZM132 17H157V18H132ZM158 17H159V18H158ZM93 18H94V19H93ZM95 18H118V19H95ZM133 18H157V19H133ZM158 18H159V19H158ZM93 19H94V20H93ZM95 19H116V20H95ZM123 19H124V20H123ZM133 19H157V20H133ZM158 19H159V20H158ZM93 20H94V21H93ZM95 20H116V21H95ZM122 20H125V21H122ZM126 20H129V21H126ZM135 20H157V21H135ZM158 20H159V21H158ZM93 21H94V22H93ZM95 21H116V22H95ZM117 21H118V22H117ZM123 21H125V22H123ZM128 21H130V22H128ZM136 21H157V22H136ZM158 21H159V22H158ZM93 22H94V23H93ZM95 22H108V23H95ZM139 22H143V23H139ZM147 22H157V23H147ZM158 22H159V23H158ZM93 23H94V24H93ZM95 23H109V24H95ZM125 23H126V24H125ZM138 23H139V24H138ZM140 23H142V24H140ZM147 23H157V24H147ZM158 23H159V24H158ZM93 24H94V25H93ZM95 24H108V25H95ZM137 24H142V25H137ZM147 24H157V25H147ZM158 24H159V25H158ZM93 25H94V26H93ZM95 25H108V26H95ZM110 25H111V26H110ZM137 25H142V26H137ZM146 25H157V26H146ZM158 25H159V26H158ZM93 26H94V27H93ZM95 26H109V27H95ZM137 26H138V27H137ZM139 26H142V27H139ZM145 26H157V27H145ZM158 26H159V27H158ZM93 27H94V28H93ZM95 27H108V28H95ZM127 27H128V28H127ZM137 27H157V28H137ZM158 27H159V28H158ZM93 28H94V29H93ZM95 28H100V29H95ZM102 28H108V29H102ZM109 28H110V29H109ZM125 28H126V29H125ZM138 28H157V29H138ZM158 28H159V29H158ZM93 29H94V30H93ZM95 29H97V30H95ZM98 29H108V30H98ZM110 29H111V30H110ZM125 29H127V30H125ZM137 29H138V30H137ZM140 29H157V30H140ZM158 29H159V30H158ZM93 30H97V31H93ZM98 30H115V31H98ZM136 30H139V31H136ZM140 30H155V31H140ZM158 30H159V31H158ZM93 31H97V32H93ZM98 31H116V32H98ZM132 31H133V32H132ZM135 31H155V32H135ZM158 31H159V32H158ZM94 32H119V33H94ZM120 32H121V33H120ZM124 32H135V33H124ZM138 32H157V33H138ZM158 32H159V33H158ZM94 33H100V34H94ZM121 33H122V34H121ZM147 33H159V34H147ZM94 34H100V35H94ZM116 34H117V35H116ZM118 34H120V35H118ZM122 34H123V35H122ZM124 34H125V35H124ZM128 34H132V35H128ZM147 34H159V35H147ZM94 35H117V36H94ZM119 35H120V36H119ZM122 35H132V36H122ZM135 35H137V36H135ZM140 35H159V36H140ZM94 36H97V37H94ZM99 36H117V37H99ZM122 36H123V37H122ZM128 36H130V37H128ZM132 36H159V37H132ZM94 37H97V38H94ZM99 37H116V38H99ZM120 37H121V38H120ZM122 37H126V38H122ZM128 37H129V38H128ZM131 37H137V38H131ZM138 37H157V38H138ZM158 37H160V38H158ZM94 38H96V39H94ZM100 38H149V39H100ZM150 38H156V39H150ZM159 38H160V39H159ZM95 39H96V40H95ZM100 39H156V40H100ZM95 40H97V41H95ZM100 40H115V41H100ZM133 40H159V41H133ZM100 41H116V42H100ZM132 41H156V42H132ZM100 42H150V43H100Z"/><path fill="#183050" fill-opacity="1.000" d="M121 17H122V18H121ZM123 17H124V18H123ZM127 17H132V18H127ZM120 18H121V19H120ZM123 18H124V19H123ZM127 18H130V19H127ZM131 18H133V19H131ZM127 19H128V20H127ZM132 19H133V20H132ZM116 22H117V23H116ZM129 23H130V24H129ZM138 26H139V27H138ZM137 28H138V29H137ZM97 29H98V30H97ZM97 30H98V31H97ZM155 30H156V31H155ZM157 30H158V31H157ZM97 31H98V32H97ZM155 31H156V32H155ZM157 31H158V32H157ZM239 31H240V32H239ZM123 32H124V33H123ZM100 33H101V34H100ZM115 33H118V34H115ZM119 33H120V34H119ZM125 33H132V34H125ZM100 34H101V35H100ZM115 34H116V35H115ZM117 34H118V35H117ZM121 34H122V35H121ZM125 34H128V35H125ZM132 34H133V35H132ZM132 35H133V36H132ZM97 36H99V37H97ZM97 37H99V38H97ZM96 38H97V39H96ZM99 38H100V39H99ZM178 38H179V39H178ZM115 40H133V41H115ZM116 41H132V42H116Z"/><path fill="#183840" fill-opacity="1.000" d="M131 14H132V15H131ZM131 15H132V16H131Z"/><path fill="#183848" fill-opacity="1.000" d="M94 0H95V1H94ZM157 0H158V1H157ZM94 1H95V2H94ZM157 1H158V2H157ZM94 2H95V3H94ZM157 2H158V3H157ZM94 3H95V4H94ZM157 3H158V4H157ZM94 4H95V5H94ZM157 4H158V5H157ZM94 5H95V6H94ZM157 5H158V6H157ZM94 6H95V7H94ZM157 6H158V7H157ZM94 7H95V8H94ZM157 7H158V8H157ZM94 8H95V9H94ZM157 8H158V9H157ZM94 9H95V10H94ZM157 9H158V10H157ZM94 10H95V11H94ZM157 10H158V11H157ZM94 11H95V12H94ZM157 11H158V12H157ZM94 12H95V13H94ZM157 12H158V13H157ZM94 13H95V14H94ZM157 13H158V14H157ZM94 14H95V15H94ZM122 14H123V15H122ZM157 14H158V15H157ZM94 15H95V16H94ZM116 15H117V16H116ZM157 15H158V16H157ZM94 16H95V17H94ZM117 16H118V17H117ZM131 16H132V17H131ZM157 16H158V17H157ZM94 17H95V18H94ZM117 17H118V18H117ZM157 17H158V18H157ZM94 18H95V19H94ZM118 18H119V19H118ZM157 18H158V19H157ZM94 19H95V20H94ZM126 19H127V20H126ZM157 19H158V20H157ZM94 20H95V21H94ZM125 20H126V21H125ZM157 20H158V21H157ZM94 21H95V22H94ZM157 21H158V22H157ZM94 22H95V23H94ZM125 22H126V23H125ZM157 22H158V23H157ZM94 23H95V24H94ZM109 23H110V24H109ZM139 23H140V24H139ZM157 23H158V24H157ZM94 24H95V25H94ZM112 24H113V25H112ZM157 24H158V25H157ZM94 25H95V26H94ZM112 25H113V26H112ZM157 25H158V26H157ZM396 25H397V26H396ZM94 26H95V27H94ZM157 26H158V27H157ZM94 27H95V28H94ZM111 27H112V28H111ZM157 27H158V28H157ZM94 28H95V29H94ZM108 28H109V29H108ZM157 28H158V29H157ZM94 29H95V30H94ZM109 29H110V30H109ZM111 29H112V30H111ZM157 29H158V30H157ZM239 29H240V30H239ZM237 30H238V31H237ZM133 31H135V32H133ZM237 31H238V32H237ZM157 32H158V33H157ZM178 32H181V33H178ZM231 32H232V33H231ZM237 32H238V33H237ZM178 33H181V34H178ZM230 33H232V34H230ZM237 33H238V34H237ZM178 34H180V35H178ZM232 34H236V35H232ZM237 34H238V35H237ZM120 35H121V36H120ZM179 35H180V36H179ZM232 35H235V36H232ZM237 35H238V36H237ZM117 36H119V37H117ZM123 36H124V37H123ZM116 37H117V38H116ZM118 37H120V38H118ZM121 37H122V38H121ZM129 37H131V38H129ZM157 37H158V38H157ZM230 37H231V38H230ZM180 38H181V39H180ZM94 39H95V40H94ZM158 39H159V40H158ZM180 39H181V40H180ZM97 40H98V41H97Z"/><path fill="#183850" fill-opacity="1.000" d="M228 0H230V1H228ZM233 0H235V1H233ZM238 0H239V1H238ZM228 1H230V2H228ZM233 1H235V2H233ZM238 1H239V2H238ZM228 2H230V3H228ZM233 2H235V3H233ZM238 2H239V3H238ZM228 3H230V4H228ZM233 3H235V4H233ZM238 3H239V4H238ZM228 4H230V5H228ZM233 4H235V5H233ZM238 4H239V5H238ZM228 5H230V6H228ZM233 5H235V6H233ZM238 5H239V6H238ZM228 6H230V7H228ZM233 6H235V7H233ZM238 6H239V7H238ZM228 7H230V8H228ZM233 7H235V8H233ZM238 7H239V8H238ZM228 8H230V9H228ZM233 8H235V9H233ZM238 8H239V9H238ZM228 9H230V10H228ZM233 9H235V10H233ZM238 9H239V10H238ZM228 10H230V11H228ZM233 10H235V11H233ZM238 10H239V11H238ZM228 11H230V12H228ZM233 11H235V12H233ZM238 11H239V12H238ZM228 12H230V13H228ZM233 12H235V13H233ZM238 12H239V13H238ZM228 13H230V14H228ZM233 13H235V14H233ZM238 13H239V14H238ZM228 14H230V15H228ZM233 14H235V15H233ZM238 14H239V15H238ZM228 15H230V16H228ZM233 15H235V16H233ZM238 15H239V16H238ZM119 16H120V17H119ZM124 16H125V17H124ZM228 16H230V17H228ZM233 16H235V17H233ZM238 16H239V17H238ZM120 17H121V18H120ZM228 17H230V18H228ZM233 17H235V18H233ZM238 17H239V18H238ZM228 18H230V19H228ZM233 18H235V19H233ZM238 18H239V19H238ZM228 19H230V20H228ZM233 19H235V20H233ZM238 19H239V20H238ZM228 20H230V21H228ZM233 20H235V21H233ZM238 20H239V21H238ZM121 21H122V22H121ZM228 21H230V22H228ZM233 21H235V22H233ZM238 21H239V22H238ZM108 22H109V23H108ZM111 22H112V23H111ZM114 22H115V23H114ZM135 22H136V23H135ZM137 22H139V23H137ZM228 22H230V23H228ZM233 22H235V23H233ZM238 22H239V23H238ZM110 23H111V24H110ZM228 23H230V24H228ZM233 23H235V24H233ZM238 23H239V24H238ZM109 24H111V25H109ZM113 24H115V25H113ZM125 24H126V25H125ZM136 24H137V25H136ZM228 24H230V25H228ZM233 24H235V25H233ZM238 24H239V25H238ZM111 25H112V26H111ZM228 25H230V26H228ZM233 25H235V26H233ZM238 25H239V26H238ZM110 26H111V27H110ZM228 26H230V27H228ZM233 26H235V27H233ZM238 26H239V27H238ZM108 27H109V28H108ZM110 27H111V28H110ZM128 27H129V28H128ZM228 27H230V28H228ZM233 27H235V28H233ZM238 27H239V28H238ZM113 28H114V29H113ZM136 28H137V29H136ZM228 28H230V29H228ZM233 28H235V29H233ZM238 28H239V29H238ZM112 29H113V30H112ZM124 29H125V30H124ZM228 29H230V30H228ZM238 29H239V30H238ZM133 30H136V31H133ZM228 30H231V31H228ZM116 31H117V32H116ZM128 31H130V32H128ZM228 31H232V32H228ZM230 32H231V33H230ZM235 32H237V33H235ZM238 32H239V33H238ZM137 33H139V34H137ZM177 33H178V34H177ZM234 33H237V34H234ZM136 34H138V35H136ZM180 34H227V35H180ZM236 34H237V35H236ZM238 34H239V35H238ZM117 35H119V36H117ZM121 35H122V36H121ZM235 35H237V36H235ZM238 35H239V36H238ZM238 36H240V37H238ZM178 37H180V38H178ZM238 37H241V38H238ZM158 38H159V39H158ZM230 38H231V39H230ZM156 39H157V40H156ZM178 39H180V40H178ZM98 40H100V41H98ZM180 40H230V41H180ZM232 40H233V41H232ZM235 40H236V41H235Z"/><path fill="#184050" fill-opacity="1.000" d="M127 24H128V25H127ZM113 26H114V27H113ZM236 39H237V40H236ZM273 43H276V44H273Z"/><path fill="#184058" fill-opacity="1.000" d="M131 21H132V22H131ZM130 22H131V23H130ZM136 25H137V26H136ZM135 26H136V27H135ZM177 38H178V39H177Z"/><path fill="#184850" fill-opacity="1.000" d="M399 28H400V29H399Z"/><path fill="#184858" fill-opacity="1.000" d="M119 20H120V21H119ZM241 36H242V37H241ZM241 37H242V38H241Z"/><path fill="#184860" fill-opacity="1.000" d="M132 22H133V23H132ZM130 23H131V24H130Z"/><path fill="#184868" fill-opacity="1.000" d="M266 38H267V39H266ZM327 40H328V41H327Z"/><path fill="#185068" fill-opacity="1.000" d="M265 0H266V1H265ZM271 0H272V1H271ZM265 1H266V2H265ZM271 1H272V2H271ZM265 2H266V3H265ZM271 2H272V3H271ZM265 3H266V4H265ZM271 3H272V4H271ZM265 4H266V5H265ZM271 4H272V5H271ZM265 5H266V6H265ZM271 5H272V6H271ZM265 6H266V7H265ZM271 6H272V7H271ZM265 7H266V8H265ZM271 7H272V8H271ZM265 8H266V9H265ZM271 8H272V9H271ZM265 9H266V10H265ZM271 9H272V10H271ZM265 10H266V11H265ZM271 10H272V11H271ZM265 11H266V12H265ZM271 11H272V12H271ZM265 12H266V13H265ZM271 12H272V13H271ZM265 13H266V14H265ZM271 13H272V14H271ZM265 14H266V15H265ZM271 14H272V15H271ZM265 15H266V16H265ZM271 15H272V16H271ZM265 16H266V17H265ZM271 16H272V17H271ZM265 17H266V18H265ZM271 17H272V18H271ZM265 18H266V19H265ZM271 18H272V19H271ZM265 19H266V20H265ZM271 19H272V20H271ZM265 20H266V21H265ZM271 20H272V21H271ZM265 21H266V22H265ZM271 21H272V22H271ZM265 22H266V23H265ZM271 22H272V23H271ZM265 23H266V24H265ZM271 23H272V24H271ZM265 24H266V25H265ZM271 24H272V25H271ZM265 25H266V26H265ZM271 25H272V26H271ZM265 26H266V27H265ZM271 26H272V27H271ZM265 27H266V28H265ZM271 27H272V28H271ZM265 28H266V29H265ZM271 28H272V29H271ZM132 29H133V30H132ZM272 32H273V33H272ZM265 33H266V34H265ZM269 33H274V34H269ZM276 33H277V34H276ZM265 34H266V35H265ZM269 34H276V35H269ZM265 35H266V36H265ZM269 35H270V36H269ZM274 35H276V36H274ZM329 36H330V37H329ZM329 37H330V38H329ZM323 38H324V39H323ZM266 39H267V40H266ZM323 39H324V40H323ZM329 39H330V40H329ZM267 40H268V41H267ZM273 41H276V42H273ZM324 41H325V42H324Z"/><path fill="#185070" fill-opacity="1.000" d="M266 0H268V1H266ZM272 0H274V1H272ZM330 0H331V1H330ZM266 1H268V2H266ZM272 1H274V2H272ZM330 1H331V2H330ZM266 2H268V3H266ZM272 2H274V3H272ZM330 2H331V3H330ZM266 3H268V4H266ZM272 3H274V4H272ZM330 3H331V4H330ZM266 4H268V5H266ZM272 4H274V5H272ZM330 4H331V5H330ZM266 5H268V6H266ZM272 5H274V6H272ZM330 5H331V6H330ZM266 6H268V7H266ZM272 6H274V7H272ZM330 6H331V7H330ZM266 7H268V8H266ZM272 7H274V8H272ZM330 7H331V8H330ZM266 8H268V9H266ZM272 8H274V9H272ZM330 8H331V9H330ZM266 9H268V10H266ZM272 9H274V10H272ZM330 9H331V10H330ZM266 10H268V11H266ZM272 10H274V11H272ZM330 10H331V11H330ZM266 11H268V12H266ZM272 11H274V12H272ZM330 11H331V12H330ZM266 12H268V13H266ZM272 12H274V13H272ZM330 12H331V13H330ZM266 13H268V14H266ZM272 13H274V14H272ZM330 13H331V14H330ZM266 14H268V15H266ZM272 14H274V15H272ZM330 14H331V15H330ZM266 15H268V16H266ZM272 15H274V16H272ZM330 15H331V16H330ZM266 16H268V17H266ZM272 16H274V17H272ZM330 16H331V17H330ZM266 17H268V18H266ZM272 17H274V18H272ZM330 17H331V18H330ZM266 18H268V19H266ZM272 18H274V19H272ZM330 18H331V19H330ZM266 19H268V20H266ZM272 19H274V20H272ZM330 19H331V20H330ZM266 20H268V21H266ZM272 20H274V21H272ZM330 20H331V21H330ZM266 21H268V22H266ZM272 21H274V22H272ZM330 21H331V22H330ZM266 22H268V23H266ZM272 22H274V23H272ZM330 22H331V23H330ZM266 23H268V24H266ZM272 23H274V24H272ZM330 23H331V24H330ZM266 24H268V25H266ZM272 24H274V25H272ZM330 24H331V25H330ZM266 25H268V26H266ZM272 25H274V26H272ZM330 25H331V26H330ZM266 26H268V27H266ZM272 26H274V27H272ZM330 26H331V27H330ZM266 27H268V28H266ZM272 27H274V28H272ZM330 27H331V28H330ZM266 28H268V29H266ZM272 28H274V29H272ZM330 28H331V29H330ZM266 29H267V30H266ZM273 29H274V30H273ZM328 29H331V30H328ZM276 30H324V31H276ZM328 30H331V31H328ZM266 31H268V32H266ZM276 31H277V32H276ZM329 31H330V32H329ZM266 32H269V33H266ZM273 32H277V33H273ZM328 32H330V33H328ZM266 33H269V34H266ZM275 33H276V34H275ZM328 33H330V34H328ZM266 34H269V35H266ZM276 34H277V35H276ZM266 35H269V36H266ZM276 35H324V36H276ZM266 36H269V37H266ZM277 36H326V37H277ZM328 36H329V37H328ZM266 37H269V38H266ZM323 37H327V38H323ZM328 37H329V38H328ZM267 38H270V39H267ZM324 38H329V39H324ZM267 39H276V40H267ZM326 39H327V40H326ZM328 39H329V40H328ZM268 40H325V41H268ZM269 41H273V42H269ZM276 41H278V42H276ZM279 41H280V42H279ZM281 41H282V42H281ZM283 41H284V42H283ZM285 41H286V42H285ZM287 41H288V42H287ZM289 41H290V42H289ZM291 41H292V42H291ZM293 41H294V42H293ZM295 41H296V42H295ZM297 41H298V42H297ZM299 41H300V42H299ZM301 41H302V42H301ZM303 41H304V42H303ZM305 41H306V42H305ZM307 41H308V42H307ZM309 41H310V42H309ZM311 41H312V42H311ZM313 41H314V42H313ZM315 41H316V42H315ZM317 41H318V42H317ZM319 41H320V42H319ZM321 41H322V42H321ZM323 41H324V42H323Z"/><path fill="#185078" fill-opacity="1.000" d="M275 30H276V31H275ZM274 31H276V32H274ZM328 31H329V32H328Z"/><path fill="#185860" fill-opacity="1.000" d="M176 40H177V41H176ZM177 41H178V42H177Z"/><path fill="#186068" fill-opacity="1.000" d="M178 42H179V43H178Z"/><path fill="#186070" fill-opacity="1.000" d="M175 30H176V31H175ZM175 31H176V32H175ZM175 32H176V33H175ZM397 33H398V34H397Z"/><path fill="#186078" fill-opacity="1.000" d="M175 29H176V30H175Z"/><path fill="#1898b0" fill-opacity="1.000" d="M117 24H118V25H117Z"/><path fill="#202038" fill-opacity="1.000" d="M389 27H390V28H389Z"/><path fill="#202840" fill-opacity="1.000" d="M389 26H390V27H389Z"/><path fill="#203040" fill-opacity="1.000" d="M160 0H161V1H160ZM160 1H161V2H160ZM160 2H161V3H160ZM160 3H161V4H160ZM160 4H161V5H160ZM160 5H161V6H160ZM160 6H161V7H160ZM160 7H161V8H160ZM160 8H161V9H160ZM160 9H161V10H160ZM160 10H161V11H160ZM160 11H161V12H160ZM160 12H161V13H160ZM160 13H161V14H160ZM160 14H161V15H160ZM160 15H161V16H160ZM160 16H161V17H160ZM160 17H161V18H160ZM160 18H161V19H160ZM160 19H161V20H160ZM160 20H161V21H160ZM160 21H161V22H160ZM126 22H128V23H126ZM160 22H161V23H160ZM160 23H161V24H160ZM160 24H161V25H160ZM160 25H161V26H160ZM160 26H161V27H160ZM160 27H161V28H160ZM390 27H391V28H390ZM160 28H161V29H160ZM160 29H161V30H160ZM160 30H161V31H160ZM160 31H161V32H160ZM160 32H161V33H160ZM160 33H161V34H160ZM160 34H161V35H160ZM160 35H161V36H160ZM160 36H161V37H160ZM391 36H392V37H391ZM160 37H161V38H160ZM92 39H93V40H92ZM160 39H161V40H160ZM95 42H96V43H95ZM150 42H157V43H150ZM96 43H117V44H96ZM118 43H119V44H118ZM120 43H121V44H120ZM122 43H123V44H122ZM124 43H125V44H124ZM126 43H127V44H126ZM128 43H129V44H128ZM130 43H157V44H130Z"/><path fill="#203048" fill-opacity="1.000" d="M118 14H120V15H118ZM128 14H129V15H128ZM119 15H120V16H119ZM128 15H129V16H128ZM116 19H117V20H116ZM121 19H122V20H121ZM116 20H117V21H116ZM116 21H117V22H116ZM128 23H129V24H128ZM138 29H140V30H138ZM139 30H140V31H139ZM93 39H94V40H93ZM95 41H96V42H95ZM158 41H159V42H158ZM97 42H99V43H97Z"/><path fill="#203050" fill-opacity="1.000" d="M123 16H124V17H123ZM121 18H123V19H121ZM122 19H123V20H122ZM121 20H122V21H121ZM238 30H240V31H238ZM238 31H239V32H238ZM120 33H121V34H120ZM122 33H125V34H122Z"/><path fill="#203840" fill-opacity="1.000" d="M157 42H158V43H157Z"/><path fill="#203848" fill-opacity="1.000" d="M159 39H160V40H159ZM94 40H95V41H94ZM157 41H158V42H157ZM96 42H97V43H96ZM99 42H100V43H99ZM267 43H268V44H267Z"/><path fill="#203850" fill-opacity="1.000" d="M108 25H109V26H108ZM119 32H120V33H119ZM122 32H123V33H122ZM120 34H121V35H120ZM179 38H180V39H179ZM233 40H235V41H233ZM326 43H327V44H326Z"/><path fill="#204050" fill-opacity="1.000" d="M122 31H123V32H122ZM264 40H265V41H264ZM265 41H266V42H265ZM266 42H267V43H266ZM268 43H273V44H268ZM276 43H277V44H276ZM323 43H324V44H323ZM325 43H326V44H325Z"/><path fill="#204058" fill-opacity="1.000" d="M397 25H398V26H397ZM127 26H128V27H127ZM277 43H323V44H277ZM324 43H325V44H324Z"/><path fill="#204850" fill-opacity="1.000" d="M178 44H179V45H178ZM237 44H238V45H237Z"/><path fill="#204858" fill-opacity="1.000" d="M114 25H115V26H114ZM330 40H331V41H330Z"/><path fill="#204860" fill-opacity="1.000" d="M135 24H136V25H135ZM327 41H328V42H327ZM325 42H326V43H325Z"/><path fill="#204868" fill-opacity="1.000" d="M326 41H327V42H326Z"/><path fill="#205058" fill-opacity="1.000" d="M394 26H395V27H394Z"/><path fill="#205060" fill-opacity="1.000" d="M128 24H129V25H128ZM127 25H128V26H127ZM331 30H332V31H331ZM331 31H332V32H331ZM331 32H332V33H331ZM264 37H265V38H264ZM268 42H270V43H268ZM273 42H276V43H273ZM230 44H231V45H230ZM232 44H233V45H232Z"/><path fill="#205068" fill-opacity="1.000" d="M264 0H265V1H264ZM324 0H326V1H324ZM331 0H332V1H331ZM264 1H265V2H264ZM324 1H326V2H324ZM331 1H332V2H331ZM264 2H265V3H264ZM324 2H326V3H324ZM331 2H332V3H331ZM264 3H265V4H264ZM324 3H326V4H324ZM331 3H332V4H331ZM264 4H265V5H264ZM324 4H326V5H324ZM331 4H332V5H331ZM264 5H265V6H264ZM324 5H326V6H324ZM331 5H332V6H331ZM264 6H265V7H264ZM324 6H326V7H324ZM331 6H332V7H331ZM264 7H265V8H264ZM324 7H326V8H324ZM331 7H332V8H331ZM264 8H265V9H264ZM324 8H326V9H324ZM331 8H332V9H331ZM264 9H265V10H264ZM324 9H326V10H324ZM331 9H332V10H331ZM264 10H265V11H264ZM324 10H326V11H324ZM331 10H332V11H331ZM264 11H265V12H264ZM324 11H326V12H324ZM331 11H332V12H331ZM264 12H265V13H264ZM324 12H326V13H324ZM331 12H332V13H331ZM264 13H265V14H264ZM324 13H326V14H324ZM331 13H332V14H331ZM264 14H265V15H264ZM324 14H326V15H324ZM331 14H332V15H331ZM264 15H265V16H264ZM324 15H326V16H324ZM331 15H332V16H331ZM264 16H265V17H264ZM324 16H326V17H324ZM331 16H332V17H331ZM264 17H265V18H264ZM324 17H326V18H324ZM331 17H332V18H331ZM264 18H265V19H264ZM324 18H326V19H324ZM331 18H332V19H331ZM264 19H265V20H264ZM324 19H326V20H324ZM331 19H332V20H331ZM264 20H265V21H264ZM324 20H326V21H324ZM331 20H332V21H331ZM264 21H265V22H264ZM324 21H326V22H324ZM331 21H332V22H331ZM264 22H265V23H264ZM324 22H326V23H324ZM331 22H332V23H331ZM264 23H265V24H264ZM324 23H326V24H324ZM331 23H332V24H331ZM133 24H135V25H133ZM264 24H265V25H264ZM324 24H326V25H324ZM331 24H332V25H331ZM264 25H265V26H264ZM324 25H326V26H324ZM331 25H332V26H331ZM264 26H265V27H264ZM324 26H326V27H324ZM331 26H332V27H331ZM264 27H265V28H264ZM324 27H326V28H324ZM331 27H332V28H331ZM264 28H265V29H264ZM324 28H326V29H324ZM331 28H332V29H331ZM134 29H135V30H134ZM264 29H266V30H264ZM324 29H325V30H324ZM331 29H332V30H331ZM264 30H265V31H264ZM264 31H265V32H264ZM270 31H271V32H270ZM277 31H278V32H277ZM279 31H280V32H279ZM281 31H282V32H281ZM283 31H284V32H283ZM285 31H286V32H285ZM287 31H288V32H287ZM289 31H290V32H289ZM291 31H292V32H291ZM293 31H294V32H293ZM295 31H296V32H295ZM297 31H298V32H297ZM299 31H300V32H299ZM301 31H302V32H301ZM303 31H304V32H303ZM305 31H306V32H305ZM307 31H308V32H307ZM309 31H310V32H309ZM311 31H312V32H311ZM313 31H314V32H313ZM315 31H316V32H315ZM317 31H318V32H317ZM319 31H320V32H319ZM321 31H322V32H321ZM323 31H325V32H323ZM330 31H331V32H330ZM264 32H265V33H264ZM269 32H272V33H269ZM277 32H326V33H277ZM330 32H331V33H330ZM264 33H265V34H264ZM277 33H326V34H277ZM330 33H331V34H330ZM264 34H265V35H264ZM324 34H327V35H324ZM330 34H331V35H330ZM264 35H265V36H264ZM270 35H274V36H270ZM324 35H326V36H324ZM329 35H331V36H329ZM264 36H266V37H264ZM271 36H276V37H271ZM330 36H331V37H330ZM265 37H266V38H265ZM273 37H276V38H273ZM330 37H331V38H330ZM265 38H266V39H265ZM276 38H323V39H276ZM329 38H331V39H329ZM265 39H266V40H265ZM276 39H323V40H276ZM330 39H331V40H330ZM266 40H267V41H266ZM328 40H329V41H328ZM267 41H269V42H267ZM325 41H326V42H325ZM270 42H273V43H270ZM276 42H325V43H276Z"/><path fill="#205070" fill-opacity="1.000" d="M268 0H271V1H268ZM274 0H324V1H274ZM326 0H330V1H326ZM268 1H271V2H268ZM274 1H324V2H274ZM326 1H330V2H326ZM268 2H271V3H268ZM274 2H324V3H274ZM326 2H330V3H326ZM268 3H271V4H268ZM274 3H324V4H274ZM326 3H330V4H326ZM268 4H271V5H268ZM274 4H324V5H274ZM326 4H330V5H326ZM268 5H271V6H268ZM274 5H324V6H274ZM326 5H330V6H326ZM268 6H271V7H268ZM274 6H324V7H274ZM326 6H330V7H326ZM268 7H271V8H268ZM274 7H324V8H274ZM326 7H330V8H326ZM268 8H271V9H268ZM274 8H324V9H274ZM326 8H330V9H326ZM268 9H271V10H268ZM274 9H324V10H274ZM326 9H330V10H326ZM268 10H271V11H268ZM274 10H324V11H274ZM326 10H330V11H326ZM268 11H271V12H268ZM274 11H324V12H274ZM326 11H330V12H326ZM268 12H271V13H268ZM274 12H324V13H274ZM326 12H330V13H326ZM268 13H271V14H268ZM274 13H324V14H274ZM326 13H330V14H326ZM268 14H271V15H268ZM274 14H324V15H274ZM326 14H330V15H326ZM268 15H271V16H268ZM274 15H324V16H274ZM326 15H330V16H326ZM268 16H271V17H268ZM274 16H324V17H274ZM326 16H330V17H326ZM268 17H271V18H268ZM274 17H324V18H274ZM326 17H330V18H326ZM268 18H271V19H268ZM274 18H324V19H274ZM326 18H330V19H326ZM268 19H271V20H268ZM274 19H324V20H274ZM326 19H330V20H326ZM268 20H271V21H268ZM274 20H324V21H274ZM326 20H330V21H326ZM268 21H271V22H268ZM274 21H324V22H274ZM326 21H330V22H326ZM268 22H271V23H268ZM274 22H324V23H274ZM326 22H330V23H326ZM268 23H271V24H268ZM274 23H324V24H274ZM326 23H330V24H326ZM268 24H271V25H268ZM274 24H324V25H274ZM326 24H330V25H326ZM268 25H271V26H268ZM274 25H324V26H274ZM326 25H330V26H326ZM268 26H271V27H268ZM274 26H324V27H274ZM326 26H330V27H326ZM268 27H271V28H268ZM274 27H324V28H274ZM326 27H330V28H326ZM268 28H271V29H268ZM274 28H324V29H274ZM326 28H330V29H326ZM267 29H273V30H267ZM274 29H324V30H274ZM325 29H328V30H325ZM265 30H274V31H265ZM324 30H328V31H324ZM265 31H266V32H265ZM268 31H270V32H268ZM271 31H274V32H271ZM278 31H279V32H278ZM280 31H281V32H280ZM282 31H283V32H282ZM284 31H285V32H284ZM286 31H287V32H286ZM288 31H289V32H288ZM290 31H291V32H290ZM292 31H293V32H292ZM294 31H295V32H294ZM296 31H297V32H296ZM298 31H299V32H298ZM300 31H301V32H300ZM302 31H303V32H302ZM304 31H305V32H304ZM306 31H307V32H306ZM308 31H309V32H308ZM310 31H311V32H310ZM312 31H313V32H312ZM314 31H315V32H314ZM316 31H317V32H316ZM318 31H319V32H318ZM320 31H321V32H320ZM322 31H323V32H322ZM325 31H328V32H325ZM265 32H266V33H265ZM326 32H328V33H326ZM326 33H328V34H326ZM277 34H324V35H277ZM327 34H330V35H327ZM326 35H329V36H326ZM269 36H271V37H269ZM276 36H277V37H276ZM326 36H328V37H326ZM269 37H273V38H269ZM276 37H323V38H276ZM327 37H328V38H327ZM270 38H276V39H270ZM327 39H328V40H327ZM326 40H327V41H326ZM278 41H279V42H278ZM280 41H281V42H280ZM282 41H283V42H282ZM284 41H285V42H284ZM286 41H287V42H286ZM288 41H289V42H288ZM290 41H291V42H290ZM292 41H293V42H292ZM294 41H295V42H294ZM296 41H297V42H296ZM298 41H299V42H298ZM300 41H301V42H300ZM302 41H303V42H302ZM304 41H305V42H304ZM306 41H307V42H306ZM308 41H309V42H308ZM310 41H311V42H310ZM312 41H313V42H312ZM314 41H315V42H314ZM316 41H317V42H316ZM318 41H319V42H318ZM320 41H321V42H320ZM322 41H323V42H322Z"/><path fill="#205078" fill-opacity="1.000" d="M274 30H275V31H274Z"/><path fill="#205860" fill-opacity="1.000" d="M231 44H232V45H231Z"/><path fill="#205868" fill-opacity="1.000" d="M129 24H130V25H129Z"/><path fill="#205870" fill-opacity="1.000" d="M132 23H133V24H132ZM130 29H131V30H130ZM325 40H326V41H325Z"/><path fill="#206070" fill-opacity="1.000" d="M119 21H120V22H119ZM115 24H116V25H115Z"/><path fill="#206078" fill-opacity="1.000" d="M130 24H131V25H130Z"/><path fill="#206870" fill-opacity="1.000" d="M175 39H176V40H175Z"/><path fill="#206880" fill-opacity="1.000" d="M130 25H131V26H130ZM132 25H133V26H132ZM130 26H133V27H130ZM131 28H133V29H131Z"/><path fill="#207080" fill-opacity="1.000" d="M131 25H132V26H131Z"/><path fill="#2080a0" fill-opacity="1.000" d="M116 24H117V25H116Z"/><path fill="#2098a8" fill-opacity="1.000" d="M120 29H121V30H120Z"/><path fill="#20a8b8" fill-opacity="1.000" d="M121 24H122V25H121Z"/><path fill="#283048" fill-opacity="1.000" d="M128 22H129V23H128Z"/><path fill="#284048" fill-opacity="1.000" d="M327 43H328V44H327Z"/><path fill="#284050" fill-opacity="1.000" d="M263 39H264V40H263Z"/><path fill="#284058" fill-opacity="1.000" d="M328 42H329V43H328Z"/><path fill="#284858" fill-opacity="1.000" d="M263 0H264V1H263ZM263 1H264V2H263ZM263 2H264V3H263ZM263 3H264V4H263ZM263 4H264V5H263ZM263 5H264V6H263ZM263 6H264V7H263ZM263 7H264V8H263ZM263 8H264V9H263ZM263 9H264V10H263ZM263 10H264V11H263ZM263 11H264V12H263ZM263 12H264V13H263ZM263 13H264V14H263ZM263 14H264V15H263ZM263 15H264V16H263ZM263 16H264V17H263ZM263 17H264V18H263ZM263 18H264V19H263ZM263 19H264V20H263ZM263 20H264V21H263ZM263 21H264V22H263ZM263 22H264V23H263ZM263 23H264V24H263ZM263 24H264V25H263ZM263 25H264V26H263ZM263 26H264V27H263ZM263 27H264V28H263ZM263 28H264V29H263ZM263 29H264V30H263ZM263 36H264V37H263ZM263 37H264V38H263ZM263 38H264V39H263Z"/><path fill="#284860" fill-opacity="1.000" d="M263 30H264V31H263ZM263 31H264V32H263ZM263 32H264V33H263ZM263 33H264V34H263ZM263 34H264V35H263ZM263 35H264V36H263ZM326 42H327V43H326Z"/><path fill="#284868" fill-opacity="1.000" d="M128 26H129V27H128Z"/><path fill="#285058" fill-opacity="1.000" d="M180 44H228V45H180ZM238 44H239V45H238Z"/><path fill="#285060" fill-opacity="1.000" d="M331 33H332V34H331ZM331 34H332V35H331ZM331 35H332V36H331ZM331 36H332V37H331ZM331 37H332V38H331ZM264 38H265V39H264ZM331 38H332V39H331ZM264 39H265V40H264ZM329 41H330V42H329ZM228 44H230V45H228ZM233 44H236V45H233Z"/><path fill="#285068" fill-opacity="1.000" d="M135 25H136V26H135ZM265 40H266V41H265ZM329 40H330V41H329ZM266 41H267V42H266ZM328 41H329V42H328Z"/><path fill="#285858" fill-opacity="1.000" d="M179 44H180V45H179Z"/><path fill="#285870" fill-opacity="1.000" d="M134 26H135V27H134ZM122 30H123V31H122Z"/><path fill="#286070" fill-opacity="1.000" d="M128 25H129V26H128ZM116 30H117V31H116Z"/><path fill="#286878" fill-opacity="1.000" d="M131 23H132V24H131Z"/><path fill="#286880" fill-opacity="1.000" d="M132 24H133V25H132ZM130 27H131V28H130ZM133 27H134V28H133ZM129 28H131V29H129ZM133 28H134V29H133Z"/><path fill="#287088" fill-opacity="1.000" d="M131 24H132V25H131ZM131 27H133V28H131Z"/><path fill="#28a0b0" fill-opacity="1.000" d="M118 23H119V24H118Z"/><path fill="#305060" fill-opacity="1.000" d="M331 39H332V40H331Z"/><path fill="#305068" fill-opacity="1.000" d="M267 42H268V43H267ZM327 42H328V43H327Z"/><path fill="#305860" fill-opacity="1.000" d="M236 44H237V45H236Z"/><path fill="#305868" fill-opacity="1.000" d="M393 28H394V29H393ZM393 29H394V30H393Z"/><path fill="#306070" fill-opacity="1.000" d="M393 35H394V36H393Z"/><path fill="#306078" fill-opacity="1.000" d="M131 22H132V23H131ZM129 27H130V28H129Z"/><path fill="#306880" fill-opacity="1.000" d="M133 25H135V26H133ZM133 26H134V27H133ZM133 29H134V30H133Z"/><path fill="#307080" fill-opacity="1.000" d="M129 29H130V30H129Z"/><path fill="#307088" fill-opacity="1.000" d="M129 25H130V26H129Z"/><path fill="#307090" fill-opacity="1.000" d="M122 29H123V30H122Z"/><path fill="#308088" fill-opacity="1.000" d="M395 30H396V31H395ZM398 30H399V31H398Z"/><path fill="#3098b0" fill-opacity="1.000" d="M118 29H119V30H118Z"/><path fill="#30d8f0" fill-opacity="1.000" d="M118 26H119V27H118Z"/><path fill="#30e8f8" fill-opacity="1.000" d="M119 25H120V26H119ZM119 26H120V27H119Z"/><path fill="#385868" fill-opacity="1.000" d="M400 27H401V28H400Z"/><path fill="#386880" fill-opacity="1.000" d="M129 26H130V27H129Z"/><path fill="#387888" fill-opacity="1.000" d="M396 30H398V31H396Z"/><path fill="#388088" fill-opacity="1.000" d="M399 30H400V31H399Z"/><path fill="#38a0b8" fill-opacity="1.000" d="M120 23H121V24H120Z"/><path fill="#38a8c8" fill-opacity="1.000" d="M116 26H117V27H116Z"/><path fill="#38d8e8" fill-opacity="1.000" d="M121 25H122V26H121Z"/><path fill="#38e0f0" fill-opacity="1.000" d="M119 27H120V28H119Z"/><path fill="#38e0f8" fill-opacity="1.000" d="M120 26H121V27H120ZM120 27H121V28H120Z"/><path fill="#38e8f8" fill-opacity="1.000" d="M118 25H119V26H118Z"/><path fill="#406878" fill-opacity="1.000" d="M399 26H400V27H399Z"/><path fill="#40a8c8" fill-opacity="1.000" d="M122 26H123V27H122Z"/><path fill="#40d8e8" fill-opacity="1.000" d="M118 24H119V25H118ZM120 24H121V25H120Z"/><path fill="#40e0f0" fill-opacity="1.000" d="M119 24H120V25H119ZM118 27H119V28H118ZM120 28H121V29H120Z"/><path fill="#40e8f8" fill-opacity="1.000" d="M120 25H121V26H120Z"/><path fill="#487888" fill-opacity="1.000" d="M394 29H395V30H394Z"/><path fill="#488888" fill-opacity="1.000" d="M174 40H175V41H174Z"/><path fill="#488890" fill-opacity="1.000" d="M176 42H177V43H176Z"/><path fill="#489098" fill-opacity="1.000" d="M394 35H396V36H394Z"/><path fill="#48d0e0" fill-opacity="1.000" d="M117 28H118V29H117Z"/><path fill="#48d8f0" fill-opacity="1.000" d="M118 28H120V29H118Z"/><path fill="#48e0f8" fill-opacity="1.000" d="M117 25H118V26H117ZM117 26H118V27H117ZM121 26H122V27H121Z"/><path fill="#508090" fill-opacity="1.000" d="M394 28H395V29H394ZM393 30H394V31H393Z"/><path fill="#508890" fill-opacity="1.000" d="M175 41H176V42H175Z"/><path fill="#509090" fill-opacity="1.000" d="M177 43H178V44H177Z"/><path fill="#509098" fill-opacity="1.000" d="M398 35H399V36H398Z"/><path fill="#5098a0" fill-opacity="1.000" d="M397 34H398V35H397ZM399 35H400V36H399Z"/><path fill="#50a0b0" fill-opacity="1.000" d="M396 32H397V33H396Z"/><path fill="#50b0c8" fill-opacity="1.000" d="M123 25H124V26H123Z"/><path fill="#50d0e0" fill-opacity="1.000" d="M119 23H120V24H119Z"/><path fill="#50d8e8" fill-opacity="1.000" d="M121 28H122V29H121Z"/><path fill="#50d8f0" fill-opacity="1.000" d="M122 25H123V26H122ZM121 27H122V28H121Z"/><path fill="#50e0ff" fill-opacity="1.000" d="M117 27H118V28H117Z"/><path fill="#5890a0" fill-opacity="1.000" d="M396 35H398V36H396ZM400 35H401V36H400Z"/><path fill="#5898a8" fill-opacity="1.000" d="M393 32H394V33H393Z"/><path fill="#58a8b0" fill-opacity="1.000" d="M394 30H395V31H394Z"/><path fill="#58a8b8" fill-opacity="1.000" d="M396 33H397V34H396Z"/><path fill="#58c8e0" fill-opacity="1.000" d="M116 25H117V26H116Z"/><path fill="#609098" fill-opacity="1.000" d="M397 26H398V27H397ZM399 27H400V28H399Z"/><path fill="#6098a0" fill-opacity="1.000" d="M396 26H397V27H396Z"/><path fill="#60a0a0" fill-opacity="1.000" d="M242 40H243V41H242ZM239 43H240V44H239Z"/><path fill="#60a0b0" fill-opacity="1.000" d="M115 25H116V26H115ZM393 33H394V34H393Z"/><path fill="#60d0e0" fill-opacity="1.000" d="M121 29H122V30H121Z"/><path fill="#6898a0" fill-opacity="1.000" d="M400 29H401V30H400Z"/><path fill="#68a0a8" fill-opacity="1.000" d="M393 31H394V32H393Z"/><path fill="#68a0b0" fill-opacity="1.000" d="M393 34H394V35H393Z"/><path fill="#68a8a8" fill-opacity="1.000" d="M240 42H241V43H240Z"/><path fill="#68a8b0" fill-opacity="1.000" d="M241 41H242V42H241Z"/><path fill="#68d8e8" fill-opacity="1.000" d="M117 29H118V30H117Z"/><path fill="#7098a0" fill-opacity="1.000" d="M400 28H401V29H400Z"/><path fill="#70a0b0" fill-opacity="1.000" d="M395 26H396V27H395Z"/><path fill="#70c0c0" fill-opacity="1.000" d="M239 42H240V43H239ZM232 43H234V44H232Z"/><path fill="#70d0e0" fill-opacity="1.000" d="M119 22H120V23H119Z"/><path fill="#78b0b8" fill-opacity="1.000" d="M394 27H395V28H394Z"/><path fill="#78c0c0" fill-opacity="1.000" d="M241 40H242V41H241ZM240 41H241V42H240ZM179 43H180V44H179ZM228 43H232V44H228ZM235 43H238V44H235Z"/><path fill="#78c0c8" fill-opacity="1.000" d="M180 43H228V44H180ZM234 43H235V44H234Z"/><path fill="#80b0c0" fill-opacity="1.000" d="M398 26H399V27H398Z"/><path fill="#80c0c8" fill-opacity="1.000" d="M400 30H401V31H400Z"/><path fill="#80c8d0" fill-opacity="1.000" d="M177 42H178V43H177Z"/><path fill="#88d0d0" fill-opacity="1.000" d="M175 40H176V41H175ZM178 43H179V44H178ZM238 43H239V44H238Z"/><path fill="#88d0d8" fill-opacity="1.000" d="M174 38H175V39H174Z"/><path fill="#88d8d8" fill-opacity="1.000" d="M174 34H175V35H174ZM174 35H175V36H174ZM174 36H175V37H174ZM174 37H175V38H174Z"/><path fill="#88d8e0" fill-opacity="1.000" d="M242 29H243V30H242ZM242 30H243V31H242ZM242 31H243V32H242ZM174 32H175V33H174ZM174 33H175V34H174ZM242 34H243V35H242ZM242 38H243V39H242Z"/><path fill="#88e8f0" fill-opacity="1.000" d="M395 33H396V34H395Z"/><path fill="#90d0d8" fill-opacity="1.000" d="M176 41H177V42H176Z"/><path fill="#90d0e0" fill-opacity="1.000" d="M174 0H175V1H174ZM174 1H175V2H174ZM174 2H175V3H174ZM174 3H175V4H174ZM174 4H175V5H174ZM174 5H175V6H174ZM174 6H175V7H174ZM174 7H175V8H174ZM174 8H175V9H174ZM174 9H175V10H174ZM174 10H175V11H174ZM174 11H175V12H174ZM174 12H175V13H174ZM174 13H175V14H174ZM174 14H175V15H174ZM174 15H175V16H174ZM174 16H175V17H174ZM174 17H175V18H174ZM174 18H175V19H174ZM174 19H175V20H174ZM174 20H175V21H174ZM174 21H175V22H174ZM174 22H175V23H174ZM174 23H175V24H174ZM174 24H175V25H174ZM174 25H175V26H174ZM174 26H175V27H174ZM174 27H175V28H174ZM174 28H175V29H174ZM174 29H175V30H174ZM174 30H175V31H174ZM174 31H175V32H174ZM397 31H398V32H397Z"/><path fill="#90d8e0" fill-opacity="1.000" d="M242 0H243V1H242ZM242 1H243V2H242ZM242 2H243V3H242ZM242 3H243V4H242ZM242 4H243V5H242ZM242 5H243V6H242ZM242 6H243V7H242ZM242 7H243V8H242ZM242 8H243V9H242ZM242 9H243V10H242ZM242 10H243V11H242ZM242 11H243V12H242ZM242 12H243V13H242ZM242 13H243V14H242ZM242 14H243V15H242ZM242 15H243V16H242ZM242 16H243V17H242ZM242 17H243V18H242ZM242 18H243V19H242ZM242 19H243V20H242ZM242 20H243V21H242ZM242 21H243V22H242ZM242 22H243V23H242ZM242 23H243V24H242ZM242 24H243V25H242ZM242 25H243V26H242ZM242 26H243V27H242ZM242 27H243V28H242ZM242 28H243V29H242ZM242 32H243V33H242ZM242 33H243V34H242ZM242 35H243V36H242ZM242 39H243V40H242Z"/><path fill="#90d8e8" fill-opacity="1.000" d="M400 32H401V33H400Z"/><path fill="#90e0e8" fill-opacity="1.000" d="M396 34H397V35H396Z"/><path fill="#90e8f0" fill-opacity="1.000" d="M394 33H395V34H394ZM398 33H399V34H398Z"/><path fill="#90f0f0" fill-opacity="1.000" d="M395 31H396V32H395ZM398 31H399V32H398ZM394 32H395V33H394Z"/><path fill="#90f0f8" fill-opacity="1.000" d="M398 32H399V33H398ZM394 34H396V35H394Z"/><path fill="#90f8f8" fill-opacity="1.000" d="M395 32H396V33H395Z"/><path fill="#98d0e0" fill-opacity="1.000" d="M242 36H243V37H242ZM242 37H243V38H242Z"/><path fill="#98d8e0" fill-opacity="1.000" d="M400 34H401V35H400ZM174 39H175V40H174Z"/><path fill="#98e0f0" fill-opacity="1.000" d="M396 31H397V32H396Z"/><path fill="#98e8f0" fill-opacity="1.000" d="M399 33H400V34H399Z"/><path fill="#98e8f8" fill-opacity="1.000" d="M398 34H399V35H398Z"/><path fill="#98f0f0" fill-opacity="1.000" d="M394 31H395V32H394ZM399 31H400V32H399Z"/><path fill="#98f0f8" fill-opacity="1.000" d="M399 32H400V33H399Z"/><path fill="#a0e8f0" fill-opacity="1.000" d="M400 31H401V32H400Z"/><path fill="#a0f0f8" fill-opacity="1.000" d="M399 34H400V35H399Z"/><path fill="#a8f0f8" fill-opacity="1.000" d="M400 33H401V34H400Z"/></svg>