<svg xmlns="http://www.w3.org/2000/svg" width="238" height="106" viewBox="0 0 238 106" shape-rendering="geometricPrecision"><path fill="#000008" fill-opacity="0.063" d="M228 38H229V39H228ZM18 43H19V44H18ZM19 44H20V45H19ZM201 63H202V64H201ZM221 99H222V100H221ZM20 100H21V101H20Z"/><path fill="#000010" fill-opacity="0.063" d="M201 65H202V66H201ZM228 91H229V92H228Z"/><path fill="#000808" fill-opacity="0.063" d="M217 100H218V101H217Z"/><path fill="#000810" fill-opacity="0.063" d="M25 11H26V12H25ZM118 11H119V12H118ZM204 12H205V13H204ZM227 12H228V13H227ZM120 13H121V14H120ZM203 13H204V14H203ZM228 13H229V14H228ZM17 18H18V19H17ZM16 19H17V20H16ZM17 38H18V39H17ZM18 40H19V41H18ZM227 40H228V41H227ZM19 41H20V42H19ZM225 42H226V43H225ZM17 44H18V45H17ZM18 45H19V46H18ZM25 46H26V47H25ZM220 46H221V47H220ZM113 62H114V63H113ZM208 62H209V63H208ZM25 63H26V64H25ZM118 63H119V64H118ZM203 63H204V64H203ZM209 63H210V64H209ZM227 63H228V64H227ZM200 64H201V65H200ZM204 64H206V65H204ZM120 65H121V66H120ZM18 69H19V70H18ZM229 69H230V70H229ZM17 70H18V71H17ZM16 73H17V74H16ZM230 85H232V86H230ZM229 86H230V87H229ZM232 86H233V87H232ZM230 88H232V89H230ZM229 89H230V90H229ZM229 92H230V93H229ZM18 94H19V95H18ZM227 94H228V95H227ZM17 95H18V96H17ZM19 95H20V96H19ZM18 96H19V97H18ZM20 96H21V97H20ZM20 97H22V98H20ZM222 98H223V99H222ZM20 99H22V100H20ZM23 99H24V100H23ZM25 99H26V100H25ZM216 99H217V100H216ZM220 99H221V100H220ZM22 100H23V101H22ZM219 100H220V101H219ZM21 101H22V102H21Z"/><path fill="#001010" fill-opacity="0.063" d="M229 64H230V65H229Z"/><path fill="#001018" fill-opacity="0.063" d="M226 62H227V63H226ZM225 63H226V64H225ZM228 63H229V64H228ZM229 87H230V88H229ZM17 91H18V92H17ZM24 100H25V101H24Z"/><path fill="#080810" fill-opacity="0.063" d="M232 87H233V88H232Z"/><path fill="#081010" fill-opacity="0.063" d="M19 98H20V99H19Z"/><path fill="#081018" fill-opacity="0.063" d="M21 98H22V99H21Z"/><path fill="#000008" fill-opacity="0.125" d="M202 64H203V65H202Z"/><path fill="#000010" fill-opacity="0.125" d="M201 15H202V16H201ZM203 65H204V66H203Z"/><path fill="#000810" fill-opacity="0.125" d="M26 11H34V12H26ZM113 11H114V12H113ZM116 11H118V12H116ZM205 12H206V13H205ZM207 12H225V13H207ZM228 14H229V15H228ZM122 15H201V16H122ZM228 15H229V16H228ZM228 16H229V17H228ZM228 17H229V18H228ZM18 18H19V19H18ZM228 18H229V19H228ZM228 19H229V20H228ZM17 20H18V21H17ZM228 20H229V21H228ZM17 21H18V22H17ZM228 21H229V22H228ZM17 22H18V23H17ZM228 22H229V23H228ZM17 23H18V24H17ZM228 23H229V24H228ZM17 24H18V25H17ZM228 24H229V25H228ZM17 25H18V26H17ZM228 25H229V26H228ZM17 26H18V27H17ZM228 26H229V27H228ZM17 27H18V28H17ZM228 27H229V28H228ZM17 28H18V29H17ZM228 28H229V29H228ZM17 29H18V30H17ZM228 29H229V30H228ZM17 30H18V31H17ZM228 30H229V31H228ZM17 31H18V32H17ZM228 31H229V32H228ZM17 32H18V33H17ZM228 32H229V33H228ZM17 33H18V34H17ZM228 33H229V34H228ZM17 34H18V35H17ZM228 34H229V35H228ZM17 35H18V36H17ZM228 35H229V36H228ZM17 36H18V37H17ZM228 36H229V37H228ZM17 37H18V38H17ZM228 37H229V38H228ZM26 46H220V47H26ZM26 63H28V64H26ZM31 63H32V64H31ZM33 63H112V64H33ZM116 63H117V64H116ZM207 63H208V64H207ZM209 64H210V65H209ZM225 64H226V65H225ZM228 65H229V66H228ZM128 67H129V68H128ZM141 67H142V68H141ZM145 67H153V68H145ZM161 67H194V68H161ZM228 67H229V68H228ZM17 76H18V77H17ZM17 78H18V79H17ZM17 79H18V80H17ZM17 80H18V81H17ZM17 81H18V82H17ZM17 82H18V83H17ZM17 83H18V84H17ZM17 84H18V85H17ZM17 85H18V86H17ZM228 87H229V88H228ZM17 88H18V89H17ZM17 90H18V91H17ZM228 93H229V94H228ZM19 94H20V95H19ZM20 95H21V96H20ZM22 97H23V98H22ZM222 97H223V98H222ZM23 98H24V99H23ZM26 98H29V99H26ZM208 98H210V99H208ZM213 98H217V99H213ZM218 98H219V99H218ZM218 99H219V100H218Z"/><path fill="#000818" fill-opacity="0.125" d="M210 64H219V65H210ZM127 67H128V68H127ZM17 86H18V87H17Z"/><path fill="#001010" fill-opacity="0.125" d="M34 11H113V12H34ZM114 11H116V12H114ZM206 12H207V13H206ZM226 12H227V13H226ZM28 63H29V64H28ZM30 63H31V64H30ZM32 63H33V64H32ZM115 63H116V64H115ZM228 66H229V67H228ZM131 67H137V68H131ZM139 67H141V68H139ZM142 67H145V68H142ZM194 67H200V68H194ZM17 71H18V72H17ZM228 71H229V72H228ZM228 72H229V73H228ZM228 73H229V74H228ZM228 74H229V75H228ZM228 75H229V76H228ZM228 76H229V77H228ZM228 77H229V78H228ZM228 78H229V79H228ZM228 79H229V80H228ZM228 80H229V81H228ZM228 81H229V82H228ZM228 82H229V83H228ZM228 83H229V84H228ZM228 84H229V85H228ZM228 85H229V86H228ZM29 98H35V99H29ZM36 98H37V99H36ZM38 98H39V99H38ZM40 98H41V99H40ZM42 98H43V99H42ZM44 98H45V99H44ZM46 98H47V99H46ZM48 98H49V99H48ZM50 98H51V99H50ZM52 98H53V99H52ZM54 98H55V99H54ZM56 98H57V99H56ZM58 98H59V99H58ZM60 98H61V99H60ZM62 98H63V99H62ZM64 98H65V99H64ZM66 98H67V99H66ZM68 98H69V99H68ZM70 98H71V99H70ZM72 98H73V99H72ZM74 98H75V99H74ZM76 98H77V99H76ZM78 98H79V99H78ZM80 98H81V99H80ZM82 98H83V99H82ZM84 98H85V99H84ZM86 98H87V99H86ZM88 98H89V99H88ZM90 98H91V99H90ZM92 98H93V99H92ZM94 98H95V99H94ZM96 98H97V99H96ZM98 98H99V99H98ZM100 98H101V99H100ZM102 98H103V99H102ZM104 98H105V99H104ZM106 98H107V99H106ZM108 98H109V99H108ZM110 98H111V99H110ZM112 98H113V99H112ZM114 98H115V99H114ZM116 98H117V99H116ZM118 98H119V99H118ZM120 98H121V99H120ZM122 98H123V99H122ZM124 98H125V99H124ZM126 98H127V99H126ZM128 98H129V99H128ZM130 98H131V99H130ZM132 98H133V99H132ZM134 98H135V99H134ZM136 98H137V99H136ZM138 98H139V99H138ZM140 98H141V99H140ZM142 98H143V99H142ZM144 98H145V99H144ZM146 98H147V99H146ZM148 98H149V99H148ZM150 98H151V99H150ZM152 98H153V99H152ZM154 98H155V99H154ZM156 98H157V99H156ZM158 98H159V99H158ZM160 98H161V99H160ZM162 98H163V99H162ZM164 98H165V99H164ZM166 98H167V99H166ZM168 98H169V99H168ZM170 98H171V99H170ZM172 98H173V99H172ZM174 98H175V99H174ZM176 98H177V99H176ZM178 98H179V99H178ZM180 98H181V99H180ZM182 98H183V99H182ZM184 98H185V99H184ZM186 98H187V99H186ZM188 98H189V99H188ZM190 98H191V99H190ZM192 98H193V99H192ZM194 98H195V99H194ZM196 98H197V99H196ZM198 98H199V99H198ZM200 98H201V99H200ZM202 98H203V99H202ZM204 98H205V99H204ZM206 98H207V99H206Z"/><path fill="#001018" fill-opacity="0.125" d="M29 63H30V64H29ZM117 63H118V64H117ZM219 64H225V65H219ZM202 65H203V66H202ZM201 66H202V67H201ZM122 67H127V68H122ZM129 67H131V68H129ZM137 67H139V68H137ZM153 67H161V68H153ZM17 75H18V76H17ZM17 77H18V78H17ZM228 86H229V87H228ZM17 87H18V88H17ZM17 89H18V90H17ZM25 98H26V99H25ZM35 98H36V99H35ZM37 98H38V99H37ZM39 98H40V99H39ZM41 98H42V99H41ZM43 98H44V99H43ZM45 98H46V99H45ZM47 98H48V99H47ZM49 98H50V99H49ZM51 98H52V99H51ZM53 98H54V99H53ZM55 98H56V99H55ZM57 98H58V99H57ZM59 98H60V99H59ZM61 98H62V99H61ZM63 98H64V99H63ZM65 98H66V99H65ZM67 98H68V99H67ZM69 98H70V99H69ZM71 98H72V99H71ZM73 98H74V99H73ZM75 98H76V99H75ZM77 98H78V99H77ZM79 98H80V99H79ZM81 98H82V99H81ZM83 98H84V99H83ZM85 98H86V99H85ZM87 98H88V99H87ZM89 98H90V99H89ZM91 98H92V99H91ZM93 98H94V99H93ZM95 98H96V99H95ZM97 98H98V99H97ZM99 98H100V99H99ZM101 98H102V99H101ZM103 98H104V99H103ZM105 98H106V99H105ZM107 98H108V99H107ZM109 98H110V99H109ZM111 98H112V99H111ZM113 98H114V99H113ZM115 98H116V99H115ZM117 98H118V99H117ZM119 98H120V99H119ZM121 98H122V99H121ZM123 98H124V99H123ZM125 98H126V99H125ZM127 98H128V99H127ZM129 98H130V99H129ZM131 98H132V99H131ZM133 98H134V99H133ZM135 98H136V99H135ZM137 98H138V99H137ZM139 98H140V99H139ZM141 98H142V99H141ZM143 98H144V99H143ZM145 98H146V99H145ZM147 98H148V99H147ZM149 98H150V99H149ZM151 98H152V99H151ZM153 98H154V99H153ZM155 98H156V99H155ZM157 98H158V99H157ZM159 98H160V99H159ZM161 98H162V99H161ZM163 98H164V99H163ZM165 98H166V99H165ZM167 98H168V99H167ZM169 98H170V99H169ZM171 98H172V99H171ZM173 98H174V99H173ZM175 98H176V99H175ZM177 98H178V99H177ZM179 98H180V99H179ZM181 98H182V99H181ZM183 98H184V99H183ZM185 98H186V99H185ZM187 98H188V99H187ZM189 98H190V99H189ZM191 98H192V99H191ZM193 98H194V99H193ZM195 98H196V99H195ZM197 98H198V99H197ZM199 98H200V99H199ZM201 98H202V99H201ZM203 98H204V99H203ZM205 98H206V99H205ZM207 98H208V99H207Z"/><path fill="#080810" fill-opacity="0.125" d="M210 98H213V99H210Z"/><path fill="#081010" fill-opacity="0.125" d="M225 12H226V13H225Z"/><path fill="#000008" fill-opacity="0.188" d="M227 64H228V65H227Z"/><path fill="#000010" fill-opacity="0.188" d="M228 88H229V89H228ZM217 98H218V99H217ZM219 98H220V99H219Z"/><path fill="#000810" fill-opacity="0.188" d="M22 14H23V15H22ZM120 14H121V15H120ZM203 14H204V15H203ZM21 15H22V16H21ZM121 15H122V16H121ZM20 16H21V17H20ZM19 17H20V18H19ZM18 39H19V40H18ZM226 41H227V42H226ZM223 43H224V44H223ZM222 44H223V45H222ZM221 45H222V46H221ZM112 63H113V64H112ZM114 63H115V64H114ZM24 64H25V65H24ZM119 64H120V65H119ZM204 65H205V66H204ZM120 66H121V67H120ZM21 67H22V68H21ZM20 68H21V69H20ZM228 68H229V69H228ZM228 70H229V71H228ZM17 72H18V73H17ZM17 74H18V75H17ZM228 90H229V91H228ZM19 93H20V94H19ZM225 94H226V95H225ZM24 98H25V99H24ZM220 98H221V99H220Z"/><path fill="#000818" fill-opacity="0.188" d="M224 95H225V96H224Z"/><path fill="#001010" fill-opacity="0.188" d="M206 64H207V65H206ZM226 64H227V65H226ZM23 65H24V66H23ZM200 67H201V68H200ZM19 69H20V70H19ZM18 92H19V93H18ZM223 96H224V97H223Z"/><path fill="#001018" fill-opacity="0.188" d="M22 66H23V67H22ZM121 67H122V68H121ZM227 91H228V92H227Z"/><path fill="#081010" fill-opacity="0.188" d="M202 15H203V16H202ZM227 39H228V40H227ZM224 42H225V43H224ZM22 43H23V44H22ZM23 44H24V45H23ZM24 45H25V46H24Z"/><path fill="#081018" fill-opacity="0.188" d="M24 12H25V13H24ZM119 12H120V13H119ZM23 13H24V14H23ZM20 41H21V42H20ZM21 42H22V43H21Z"/><path fill="#000010" fill-opacity="0.251" d="M227 92H228V93H227ZM22 96H23V97H22Z"/><path fill="#000810" fill-opacity="0.251" d="M18 19H19V20H18ZM208 64H209V65H208ZM203 66H204V67H203ZM21 95H22V96H21Z"/><path fill="#001010" fill-opacity="0.251" d="M226 93H227V94H226Z"/><path fill="#001018" fill-opacity="0.251" d="M221 97H222V98H221Z"/><path fill="#000008" fill-opacity="1.000" d="M115 14H116V15H115ZM115 15H116V16H115ZM208 15H209V16H208ZM205 16H206V17H205ZM24 17H25V18H24ZM119 17H120V18H119ZM204 17H205V18H204ZM22 18H23V19H22ZM24 18H25V19H24ZM201 18H202V19H201ZM206 19H207V20H206ZM118 20H119V21H118ZM19 21H20V22H19ZM21 21H22V22H21ZM24 21H25V22H24ZM116 21H117V22H116ZM207 21H208V22H207ZM20 38H21V39H20ZM225 38H226V39H225ZM23 39H24V40H23ZM217 39H219V40H217ZM222 39H223V40H222ZM22 40H23V41H22ZM220 41H221V42H220ZM218 43H219V44H218ZM219 44H220V45H219ZM23 71H24V72H23ZM21 72H22V73H21ZM24 72H25V73H24ZM22 73H23V74H22ZM24 75H25V76H24ZM21 76H22V77H21ZM230 86H231V87H230ZM231 87H232V88H231ZM24 88H25V89H24ZM23 89H24V90H23ZM217 90H218V91H217ZM220 91H221V92H220ZM223 91H224V92H223ZM20 98H21V99H20Z"/><path fill="#000010" fill-opacity="1.000" d="M35 15H36V16H35ZM37 15H38V16H37ZM39 15H40V16H39ZM41 15H42V16H41ZM43 15H44V16H43ZM45 15H46V16H45ZM47 15H48V16H47ZM49 15H50V16H49ZM51 15H52V16H51ZM53 15H54V16H53ZM55 15H56V16H55ZM57 15H58V16H57ZM59 15H60V16H59ZM61 15H62V16H61ZM63 15H64V16H63ZM65 15H66V16H65ZM67 15H68V16H67ZM69 15H70V16H69ZM71 15H72V16H71ZM73 15H74V16H73ZM75 15H76V16H75ZM77 15H78V16H77ZM79 15H80V16H79ZM81 15H82V16H81ZM83 15H84V16H83ZM85 15H86V16H85ZM87 15H88V16H87ZM89 15H90V16H89ZM91 15H92V16H91ZM93 15H94V16H93ZM95 15H96V16H95ZM97 15H98V16H97ZM99 15H100V16H99ZM101 15H102V16H101ZM103 15H104V16H103ZM105 15H106V16H105ZM107 15H108V16H107ZM109 15H110V16H109ZM111 15H112V16H111ZM113 15H115V16H113ZM221 15H222V16H221ZM223 15H224V16H223ZM32 16H113V17H32ZM114 16H115V17H114ZM117 16H119V17H117ZM209 16H225V17H209ZM31 17H113V18H31ZM116 17H118V18H116ZM205 17H206V18H205ZM208 17H221V18H208ZM27 18H114V19H27ZM115 18H116V19H115ZM117 18H118V19H117ZM120 18H121V19H120ZM131 18H132V19H131ZM133 18H134V19H133ZM135 18H136V19H135ZM145 18H146V19H145ZM161 18H162V19H161ZM163 18H164V19H163ZM165 18H166V19H165ZM167 18H168V19H167ZM169 18H170V19H169ZM171 18H172V19H171ZM173 18H174V19H173ZM175 18H176V19H175ZM177 18H178V19H177ZM179 18H180V19H179ZM181 18H182V19H181ZM183 18H184V19H183ZM185 18H186V19H185ZM187 18H188V19H187ZM189 18H190V19H189ZM191 18H201V19H191ZM206 18H207V19H206ZM209 18H224V19H209ZM21 19H22V20H21ZM23 19H24V20H23ZM27 19H113V20H27ZM114 19H116V20H114ZM117 19H119V20H117ZM120 19H121V20H120ZM131 19H132V20H131ZM133 19H134V20H133ZM135 19H136V20H135ZM137 19H145V20H137ZM151 19H160V20H151ZM161 19H162V20H161ZM163 19H164V20H163ZM165 19H166V20H165ZM167 19H168V20H167ZM169 19H170V20H169ZM171 19H172V20H171ZM173 19H174V20H173ZM175 19H176V20H175ZM177 19H178V20H177ZM179 19H180V20H179ZM181 19H182V20H181ZM183 19H184V20H183ZM185 19H186V20H185ZM187 19H188V20H187ZM189 19H190V20H189ZM191 19H192V20H191ZM201 19H202V20H201ZM203 19H206V20H203ZM208 19H225V20H208ZM21 20H22V21H21ZM23 20H24V21H23ZM25 20H113V21H25ZM114 20H116V21H114ZM121 20H123V21H121ZM129 20H137V21H129ZM145 20H153V21H145ZM161 20H204V21H161ZM208 20H224V21H208ZM22 21H23V22H22ZM25 21H115V22H25ZM119 21H120V22H119ZM121 21H123V22H121ZM128 21H161V22H128ZM202 21H204V22H202ZM205 21H206V22H205ZM209 21H224V22H209ZM21 22H22V23H21ZM23 22H224V23H23ZM21 23H22V24H21ZM23 23H27V24H23ZM29 23H224V24H29ZM21 24H22V25H21ZM23 24H27V25H23ZM29 24H224V25H29ZM21 25H22V26H21ZM23 25H27V26H23ZM29 25H224V26H29ZM21 26H22V27H21ZM23 26H27V27H23ZM29 26H224V27H29ZM21 27H22V28H21ZM23 27H27V28H23ZM29 27H224V28H29ZM21 28H22V29H21ZM23 28H27V29H23ZM29 28H224V29H29ZM21 29H22V30H21ZM23 29H27V30H23ZM29 29H224V30H29ZM21 30H22V31H21ZM23 30H27V31H23ZM29 30H224V31H29ZM21 31H22V32H21ZM23 31H27V32H23ZM29 31H224V32H29ZM21 32H22V33H21ZM23 32H27V33H23ZM29 32H224V33H29ZM21 33H22V34H21ZM23 33H27V34H23ZM29 33H224V34H29ZM21 34H22V35H21ZM23 34H27V35H23ZM29 34H224V35H29ZM21 35H22V36H21ZM23 35H27V36H23ZM29 35H224V36H29ZM21 36H22V37H21ZM23 36H27V37H23ZM29 36H224V37H29ZM21 37H22V38H21ZM23 37H224V38H23ZM21 38H22V39H21ZM24 38H30V39H24ZM33 38H217V39H33ZM219 38H220V39H219ZM221 38H222V39H221ZM223 38H225V39H223ZM31 39H217V40H31ZM220 39H221V40H220ZM224 39H225V40H224ZM25 40H218V41H25ZM219 40H220V41H219ZM223 40H224V41H223ZM24 41H25V42H24ZM26 41H29V42H26ZM218 41H219V42H218ZM221 41H222V42H221ZM24 42H25V43H24ZM26 42H30V43H26ZM31 42H32V43H31ZM33 42H210V43H33ZM219 42H220V43H219ZM32 43H33V44H32ZM217 44H218V45H217ZM28 66H29V67H28ZM33 67H113V68H33ZM114 67H116V68H114ZM207 67H208V68H207ZM24 68H25V69H24ZM30 68H33V69H30ZM113 68H114V69H113ZM118 68H119V69H118ZM205 68H206V69H205ZM208 68H209V69H208ZM210 68H223V69H210ZM225 68H226V69H225ZM29 69H31V70H29ZM33 69H113V70H33ZM114 69H115V70H114ZM116 69H118V70H116ZM119 69H120V70H119ZM205 69H206V70H205ZM209 69H211V70H209ZM212 69H213V70H212ZM214 69H215V70H214ZM216 69H217V70H216ZM220 69H225V70H220ZM25 70H117V71H25ZM208 70H224V71H208ZM22 71H23V72H22ZM25 71H224V72H25ZM22 72H23V73H22ZM25 72H224V73H25ZM20 73H21V74H20ZM25 73H224V74H25ZM19 74H20V75H19ZM22 74H23V75H22ZM24 74H224V75H24ZM21 75H22V76H21ZM25 75H224V76H25ZM23 76H24V77H23ZM25 76H224V77H25ZM23 77H224V78H23ZM23 78H224V79H23ZM23 79H224V80H23ZM23 80H224V81H23ZM23 81H224V82H23ZM23 82H224V83H23ZM23 83H224V84H23ZM23 84H224V85H23ZM23 85H27V86H23ZM28 85H29V86H28ZM31 85H210V86H31ZM211 85H224V86H211ZM20 86H21V87H20ZM23 86H24V87H23ZM25 86H27V87H25ZM33 86H209V87H33ZM217 86H218V87H217ZM221 86H222V87H221ZM224 86H226V87H224ZM22 87H23V88H22ZM25 87H27V88H25ZM33 87H209V88H33ZM213 87H217V88H213ZM218 87H220V88H218ZM22 88H23V89H22ZM25 88H26V89H25ZM27 88H31V89H27ZM33 88H34V89H33ZM35 88H36V89H35ZM37 88H38V89H37ZM39 88H40V89H39ZM41 88H42V89H41ZM43 88H44V89H43ZM45 88H46V89H45ZM47 88H48V89H47ZM49 88H50V89H49ZM51 88H52V89H51ZM53 88H54V89H53ZM55 88H56V89H55ZM57 88H58V89H57ZM59 88H60V89H59ZM61 88H62V89H61ZM63 88H64V89H63ZM65 88H66V89H65ZM67 88H68V89H67ZM69 88H70V89H69ZM71 88H72V89H71ZM73 88H74V89H73ZM75 88H76V89H75ZM77 88H78V89H77ZM79 88H80V89H79ZM81 88H82V89H81ZM83 88H84V89H83ZM85 88H86V89H85ZM87 88H88V89H87ZM89 88H90V89H89ZM91 88H92V89H91ZM93 88H94V89H93ZM95 88H96V89H95ZM97 88H98V89H97ZM99 88H100V89H99ZM101 88H102V89H101ZM103 88H104V89H103ZM105 88H106V89H105ZM107 88H108V89H107ZM109 88H110V89H109ZM111 88H112V89H111ZM113 88H114V89H113ZM115 88H116V89H115ZM117 88H118V89H117ZM119 88H120V89H119ZM121 88H122V89H121ZM123 88H124V89H123ZM125 88H126V89H125ZM127 88H128V89H127ZM129 88H130V89H129ZM131 88H132V89H131ZM133 88H134V89H133ZM135 88H136V89H135ZM137 88H138V89H137ZM139 88H140V89H139ZM141 88H142V89H141ZM143 88H144V89H143ZM145 88H146V89H145ZM147 88H148V89H147ZM149 88H150V89H149ZM151 88H152V89H151ZM153 88H154V89H153ZM155 88H156V89H155ZM157 88H158V89H157ZM159 88H160V89H159ZM161 88H162V89H161ZM163 88H164V89H163ZM165 88H166V89H165ZM167 88H168V89H167ZM169 88H170V89H169ZM171 88H172V89H171ZM173 88H174V89H173ZM175 88H176V89H175ZM177 88H178V89H177ZM179 88H180V89H179ZM181 88H182V89H181ZM183 88H184V89H183ZM185 88H186V89H185ZM187 88H188V89H187ZM189 88H190V89H189ZM191 88H192V89H191ZM193 88H194V89H193ZM195 88H196V89H195ZM197 88H198V89H197ZM199 88H200V89H199ZM201 88H202V89H201ZM203 88H204V89H203ZM205 88H206V89H205ZM207 88H217V89H207ZM218 88H220V89H218ZM222 88H224V89H222ZM225 88H226V89H225ZM19 89H20V90H19ZM30 89H33V90H30ZM209 89H210V90H209ZM216 89H217V90H216ZM220 89H224V90H220ZM23 90H24V91H23ZM32 90H33V91H32ZM209 90H216V91H209ZM220 90H221V91H220ZM223 90H224V91H223ZM24 91H27V92H24ZM32 91H34V92H32ZM219 91H220V92H219ZM26 92H208V93H26ZM222 92H223V93H222ZM24 93H25V94H24ZM29 93H30V94H29ZM31 93H209V94H31ZM217 93H218V94H217ZM24 94H25V95H24ZM217 94H218V95H217ZM219 94H220V95H219ZM209 95H215V96H209ZM217 95H219V96H217Z"/><path fill="#000810" fill-opacity="1.000" d="M25 14H115V15H25ZM116 14H119V15H116ZM224 14H226V15H224ZM25 15H35V16H25ZM36 15H37V16H36ZM38 15H39V16H38ZM40 15H41V16H40ZM42 15H43V16H42ZM44 15H45V16H44ZM46 15H47V16H46ZM48 15H49V16H48ZM50 15H51V16H50ZM52 15H53V16H52ZM54 15H55V16H54ZM56 15H57V16H56ZM58 15H59V16H58ZM60 15H61V16H60ZM62 15H63V16H62ZM64 15H65V16H64ZM66 15H67V16H66ZM68 15H69V16H68ZM70 15H71V16H70ZM72 15H73V16H72ZM74 15H75V16H74ZM76 15H77V16H76ZM78 15H79V16H78ZM80 15H81V16H80ZM82 15H83V16H82ZM84 15H85V16H84ZM86 15H87V16H86ZM88 15H89V16H88ZM90 15H91V16H90ZM92 15H93V16H92ZM94 15H95V16H94ZM96 15H97V16H96ZM98 15H99V16H98ZM100 15H101V16H100ZM102 15H103V16H102ZM104 15H105V16H104ZM106 15H107V16H106ZM108 15H109V16H108ZM110 15H111V16H110ZM112 15H113V16H112ZM116 15H119V16H116ZM206 15H208V16H206ZM209 15H221V16H209ZM222 15H223V16H222ZM224 15H226V16H224ZM23 16H32V17H23ZM113 16H114V17H113ZM115 16H117V17H115ZM206 16H209V17H206ZM225 16H226V17H225ZM22 17H24V18H22ZM25 17H31V18H25ZM113 17H114V18H113ZM115 17H116V18H115ZM118 17H119V18H118ZM121 17H137V18H121ZM140 17H145V18H140ZM206 17H208V18H206ZM224 17H226V18H224ZM25 18H27V19H25ZM114 18H115V19H114ZM116 18H117V19H116ZM119 18H120V19H119ZM121 18H131V19H121ZM132 18H133V19H132ZM134 18H135V19H134ZM136 18H145V19H136ZM146 18H161V19H146ZM162 18H163V19H162ZM164 18H165V19H164ZM166 18H167V19H166ZM168 18H169V19H168ZM170 18H171V19H170ZM172 18H173V19H172ZM174 18H175V19H174ZM176 18H177V19H176ZM178 18H179V19H178ZM180 18H181V19H180ZM182 18H183V19H182ZM184 18H185V19H184ZM186 18H187V19H186ZM188 18H189V19H188ZM190 18H191V19H190ZM202 18H205V19H202ZM207 18H209V19H207ZM224 18H226V19H224ZM20 19H21V20H20ZM22 19H23V20H22ZM24 19H27V20H24ZM113 19H114V20H113ZM121 19H131V20H121ZM132 19H133V20H132ZM134 19H135V20H134ZM136 19H137V20H136ZM145 19H151V20H145ZM160 19H161V20H160ZM162 19H163V20H162ZM164 19H165V20H164ZM166 19H167V20H166ZM168 19H169V20H168ZM170 19H171V20H170ZM172 19H173V20H172ZM174 19H175V20H174ZM176 19H177V20H176ZM178 19H179V20H178ZM180 19H181V20H180ZM182 19H183V20H182ZM184 19H185V20H184ZM186 19H187V20H186ZM188 19H189V20H188ZM190 19H191V20H190ZM192 19H201V20H192ZM207 19H208V20H207ZM225 19H226V20H225ZM20 20H21V21H20ZM22 20H23V21H22ZM24 20H25V21H24ZM117 20H118V21H117ZM119 20H121V21H119ZM123 20H129V21H123ZM138 20H139V21H138ZM140 20H141V21H140ZM142 20H143V21H142ZM144 20H145V21H144ZM154 20H155V21H154ZM156 20H157V21H156ZM158 20H159V21H158ZM160 20H161V21H160ZM204 20H206V21H204ZM224 20H226V21H224ZM20 21H21V22H20ZM118 21H119V22H118ZM120 21H121V22H120ZM123 21H128V22H123ZM193 21H201V22H193ZM206 21H207V22H206ZM224 21H226V22H224ZM19 22H21V23H19ZM224 22H226V23H224ZM19 23H21V24H19ZM27 23H29V24H27ZM224 23H226V24H224ZM19 24H21V25H19ZM27 24H29V25H27ZM224 24H226V25H224ZM19 25H21V26H19ZM27 25H29V26H27ZM224 25H226V26H224ZM19 26H21V27H19ZM27 26H29V27H27ZM224 26H226V27H224ZM19 27H21V28H19ZM27 27H29V28H27ZM224 27H226V28H224ZM19 28H21V29H19ZM27 28H29V29H27ZM224 28H226V29H224ZM19 29H21V30H19ZM27 29H29V30H27ZM224 29H226V30H224ZM19 30H21V31H19ZM27 30H29V31H27ZM224 30H226V31H224ZM19 31H21V32H19ZM27 31H29V32H27ZM224 31H226V32H224ZM19 32H21V33H19ZM27 32H29V33H27ZM224 32H226V33H224ZM19 33H21V34H19ZM27 33H29V34H27ZM224 33H226V34H224ZM19 34H21V35H19ZM27 34H29V35H27ZM224 34H226V35H224ZM19 35H21V36H19ZM27 35H29V36H27ZM224 35H226V36H224ZM19 36H21V37H19ZM27 36H29V37H27ZM224 36H226V37H224ZM19 37H21V38H19ZM22 37H23V38H22ZM224 37H226V38H224ZM22 38H23V39H22ZM218 38H219V39H218ZM220 38H221V39H220ZM21 39H23V40H21ZM25 39H27V40H25ZM219 39H220V40H219ZM24 40H25V41H24ZM221 40H223V41H221ZM23 41H24V42H23ZM25 41H26V42H25ZM29 41H31V42H29ZM32 41H218V42H32ZM219 41H220V42H219ZM25 42H26V43H25ZM30 42H31V43H30ZM32 42H33V43H32ZM210 42H219V43H210ZM220 42H222V43H220ZM25 43H32V44H25ZM33 43H218V44H33ZM219 43H220V44H219ZM25 44H217V45H25ZM26 66H28V67H26ZM29 66H114V67H29ZM115 66H116V67H115ZM117 66H118V67H117ZM25 67H33V68H25ZM113 67H114V68H113ZM116 67H118V68H116ZM202 67H203V68H202ZM205 67H207V68H205ZM208 67H226V68H208ZM25 68H30V69H25ZM34 68H35V69H34ZM36 68H37V69H36ZM38 68H39V69H38ZM40 68H41V69H40ZM42 68H43V69H42ZM44 68H45V69H44ZM46 68H47V69H46ZM48 68H49V69H48ZM50 68H51V69H50ZM52 68H53V69H52ZM54 68H55V69H54ZM56 68H57V69H56ZM58 68H59V69H58ZM60 68H61V69H60ZM62 68H63V69H62ZM64 68H65V69H64ZM66 68H67V69H66ZM68 68H69V69H68ZM70 68H71V69H70ZM72 68H73V69H72ZM74 68H75V69H74ZM76 68H77V69H76ZM78 68H79V69H78ZM80 68H81V69H80ZM82 68H83V69H82ZM84 68H85V69H84ZM86 68H87V69H86ZM88 68H89V69H88ZM90 68H91V69H90ZM92 68H93V69H92ZM94 68H95V69H94ZM96 68H97V69H96ZM98 68H99V69H98ZM100 68H101V69H100ZM102 68H103V69H102ZM104 68H105V69H104ZM106 68H107V69H106ZM108 68H109V69H108ZM110 68H111V69H110ZM112 68H113V69H112ZM115 68H116V69H115ZM117 68H118V69H117ZM206 68H207V69H206ZM209 68H210V69H209ZM223 68H225V69H223ZM23 69H29V70H23ZM115 69H116V70H115ZM120 69H124V70H120ZM206 69H207V70H206ZM208 69H209V70H208ZM225 69H226V70H225ZM22 70H25V71H22ZM117 70H208V71H117ZM224 70H226V71H224ZM21 71H22V72H21ZM224 71H226V72H224ZM224 72H226V73H224ZM19 73H20V74H19ZM224 73H226V74H224ZM21 74H22V75H21ZM224 74H226V75H224ZM19 75H21V76H19ZM224 75H226V76H224ZM19 76H20V77H19ZM22 76H23V77H22ZM224 76H226V77H224ZM19 77H23V78H19ZM224 77H226V78H224ZM19 78H23V79H19ZM224 78H226V79H224ZM19 79H23V80H19ZM224 79H226V80H224ZM19 80H23V81H19ZM224 80H226V81H224ZM19 81H23V82H19ZM224 81H226V82H224ZM19 82H23V83H19ZM224 82H226V83H224ZM19 83H23V84H19ZM224 83H226V84H224ZM19 84H23V85H19ZM224 84H226V85H224ZM19 85H23V86H19ZM27 85H28V86H27ZM29 85H31V86H29ZM210 85H211V86H210ZM224 85H226V86H224ZM21 86H23V87H21ZM24 86H25V87H24ZM27 86H33V87H27ZM209 86H217V87H209ZM218 86H221V87H218ZM222 86H224V87H222ZM19 87H20V88H19ZM21 87H22V88H21ZM23 87H25V88H23ZM27 87H33V88H27ZM209 87H213V88H209ZM217 87H218V88H217ZM220 87H225V88H220ZM20 88H22V89H20ZM31 88H33V89H31ZM34 88H35V89H34ZM36 88H37V89H36ZM38 88H39V89H38ZM40 88H41V89H40ZM42 88H43V89H42ZM44 88H45V89H44ZM46 88H47V89H46ZM48 88H49V89H48ZM50 88H51V89H50ZM52 88H53V89H52ZM54 88H55V89H54ZM56 88H57V89H56ZM58 88H59V89H58ZM60 88H61V89H60ZM62 88H63V89H62ZM64 88H65V89H64ZM66 88H67V89H66ZM68 88H69V89H68ZM70 88H71V89H70ZM72 88H73V89H72ZM74 88H75V89H74ZM76 88H77V89H76ZM78 88H79V89H78ZM80 88H81V89H80ZM82 88H83V89H82ZM84 88H85V89H84ZM86 88H87V89H86ZM88 88H89V89H88ZM90 88H91V89H90ZM92 88H93V89H92ZM94 88H95V89H94ZM96 88H97V89H96ZM98 88H99V89H98ZM100 88H101V89H100ZM102 88H103V89H102ZM104 88H105V89H104ZM106 88H107V89H106ZM108 88H109V89H108ZM110 88H111V89H110ZM112 88H113V89H112ZM114 88H115V89H114ZM116 88H117V89H116ZM118 88H119V89H118ZM120 88H121V89H120ZM122 88H123V89H122ZM124 88H125V89H124ZM126 88H127V89H126ZM128 88H129V89H128ZM130 88H131V89H130ZM132 88H133V89H132ZM134 88H135V89H134ZM136 88H137V89H136ZM138 88H139V89H138ZM140 88H141V89H140ZM142 88H143V89H142ZM144 88H145V89H144ZM146 88H147V89H146ZM148 88H149V89H148ZM150 88H151V89H150ZM152 88H153V89H152ZM154 88H155V89H154ZM156 88H157V89H156ZM158 88H159V89H158ZM160 88H161V89H160ZM162 88H163V89H162ZM164 88H165V89H164ZM166 88H167V89H166ZM168 88H169V89H168ZM170 88H171V89H170ZM172 88H173V89H172ZM174 88H175V89H174ZM176 88H177V89H176ZM178 88H179V89H178ZM180 88H181V89H180ZM182 88H183V89H182ZM184 88H185V89H184ZM186 88H187V89H186ZM188 88H189V89H188ZM190 88H191V89H190ZM192 88H193V89H192ZM194 88H195V89H194ZM196 88H197V89H196ZM198 88H199V89H198ZM200 88H201V89H200ZM202 88H203V89H202ZM204 88H205V89H204ZM206 88H207V89H206ZM220 88H221V89H220ZM224 88H225V89H224ZM20 89H21V90H20ZM22 89H23V90H22ZM24 89H25V90H24ZM33 89H209V90H33ZM224 89H226V90H224ZM20 90H23V91H20ZM24 90H25V91H24ZM33 90H209V91H33ZM216 90H217V91H216ZM218 90H220V91H218ZM221 90H223V91H221ZM224 90H226V91H224ZM21 91H24V92H21ZM34 91H219V92H34ZM221 91H223V92H221ZM224 91H225V92H224ZM22 92H26V93H22ZM208 92H222V93H208ZM25 93H29V94H25ZM30 93H31V94H30ZM209 93H217V94H209ZM218 93H223V94H218ZM25 94H32V95H25ZM33 94H34V95H33ZM215 94H217V95H215ZM218 94H219V95H218ZM220 94H221V95H220ZM26 95H209V96H26ZM215 95H217V96H215ZM27 96H30V97H27ZM31 96H34V97H31ZM208 96H217V97H208ZM218 96H220V97H218Z"/><path fill="#000818" fill-opacity="1.000" d="M119 16H120V17H119ZM137 17H138V18H137ZM139 17H140V18H139ZM220 43H221V44H220ZM118 69H119V70H118ZM207 69H208V70H207ZM19 86H20V87H19ZM20 87H21V88H20ZM21 89H22V90H21ZM32 94H33V95H32ZM221 94H222V95H221ZM220 95H221V96H220Z"/><path fill="#001010" fill-opacity="1.000" d="M24 15H25V16H24ZM30 96H31V97H30ZM34 96H208V97H34Z"/><path fill="#001018" fill-opacity="1.000" d="M138 17H139V18H138ZM113 63H114V64H113ZM226 63H227V64H226ZM25 66H26V67H25ZM114 66H115V67H114ZM116 66H117V67H116ZM202 66H203V67H202ZM118 67H119V68H118ZM201 67H202V68H201ZM23 68H24V69H23ZM119 68H120V69H119ZM204 68H205V69H204ZM207 68H208V69H207ZM22 69H23V70H22ZM124 69H126V70H124ZM127 69H129V70H127ZM131 69H134V70H131ZM203 69H205V70H203ZM18 70H19V71H18ZM20 72H21V73H20ZM17 73H18V74H17ZM20 74H21V75H20ZM20 76H21V77H20ZM225 87H226V88H225ZM19 88H20V89H19ZM228 89H229V90H228ZM223 92H224V93H223ZM226 92H227V93H226ZM23 93H24V94H23ZM225 93H226V94H225ZM25 95H26V96H25ZM223 95H224V96H223ZM26 96H27V97H26ZM217 96H218V97H217Z"/><path fill="#001020" fill-opacity="1.000" d="M126 69H127V70H126ZM129 69H131V70H129ZM134 69H135V70H134ZM19 90H20V91H19Z"/><path fill="#001820" fill-opacity="1.000" d="M113 64H114V65H113ZM135 69H136V70H135ZM18 91H19V92H18ZM222 96H223V97H222Z"/><path fill="#002020" fill-opacity="1.000" d="M34 64H35V65H34ZM36 64H37V65H36ZM38 64H39V65H38ZM40 64H41V65H40ZM42 64H43V65H42ZM44 64H45V65H44ZM46 64H47V65H46ZM48 64H49V65H48ZM50 64H51V65H50ZM52 64H53V65H52ZM54 64H55V65H54ZM56 64H57V65H56ZM58 64H59V65H58ZM60 64H61V65H60ZM62 64H63V65H62ZM64 64H65V65H64ZM66 64H67V65H66ZM68 64H69V65H68ZM70 64H71V65H70ZM72 64H73V65H72ZM74 64H75V65H74ZM76 64H77V65H76ZM78 64H79V65H78ZM80 64H81V65H80ZM82 64H83V65H82ZM84 64H85V65H84ZM86 64H87V65H86ZM88 64H89V65H88ZM90 64H91V65H90ZM92 64H93V65H92ZM94 64H95V65H94ZM96 64H97V65H96ZM98 64H99V65H98ZM100 64H101V65H100ZM102 64H103V65H102ZM104 64H105V65H104ZM106 64H107V65H106ZM108 64H109V65H108ZM110 64H111V65H110Z"/><path fill="#002028" fill-opacity="1.000" d="M35 64H36V65H35ZM37 64H38V65H37ZM39 64H40V65H39ZM41 64H42V65H41ZM43 64H44V65H43ZM45 64H46V65H45ZM47 64H48V65H47ZM49 64H50V65H49ZM51 64H52V65H51ZM53 64H54V65H53ZM55 64H56V65H55ZM57 64H58V65H57ZM59 64H60V65H59ZM61 64H62V65H61ZM63 64H64V65H63ZM65 64H66V65H65ZM67 64H68V65H67ZM69 64H70V65H69ZM71 64H72V65H71ZM73 64H74V65H73ZM75 64H76V65H75ZM77 64H78V65H77ZM79 64H80V65H79ZM81 64H82V65H81ZM83 64H84V65H83ZM85 64H86V65H85ZM87 64H88V65H87ZM89 64H90V65H89ZM91 64H92V65H91ZM93 64H94V65H93ZM95 64H96V65H95ZM97 64H98V65H97ZM99 64H100V65H99ZM101 64H102V65H101ZM103 64H104V65H103ZM105 64H106V65H105ZM107 64H108V65H107ZM109 64H110V65H109ZM111 64H112V65H111Z"/><path fill="#080010" fill-opacity="1.000" d="M30 38H33V39H30ZM27 39H31V40H27ZM31 69H32V70H31ZM211 69H212V70H211ZM213 69H214V70H213ZM215 69H216V70H215ZM217 69H218V70H217ZM219 69H220V70H219ZM26 88H27V89H26ZM25 89H30V90H25ZM210 89H216V90H210ZM217 89H218V90H217ZM25 90H32V91H25ZM27 91H32V92H27ZM34 94H215V95H34Z"/><path fill="#080810" fill-opacity="1.000" d="M114 17H115V18H114ZM221 17H224V18H221ZM23 18H24V19H23ZM118 18H119V19H118ZM119 19H120V20H119ZM113 20H114V21H113ZM116 20H117V21H116ZM137 20H138V21H137ZM139 20H140V21H139ZM141 20H142V21H141ZM143 20H144V21H143ZM153 20H154V21H153ZM155 20H156V21H155ZM157 20H158V21H157ZM159 20H160V21H159ZM207 20H208V21H207ZM23 21H24V22H23ZM115 21H116V22H115ZM117 21H118V22H117ZM161 21H193V22H161ZM204 21H205V22H204ZM208 21H209V22H208ZM22 22H23V23H22ZM22 23H23V24H22ZM22 24H23V25H22ZM22 25H23V26H22ZM22 26H23V27H22ZM22 27H23V28H22ZM22 28H23V29H22ZM22 29H23V30H22ZM22 30H23V31H22ZM22 31H23V32H22ZM22 32H23V33H22ZM22 33H23V34H22ZM22 34H23V35H22ZM22 35H23V36H22ZM22 36H23V37H22ZM217 38H218V39H217ZM222 38H223V39H222ZM24 39H25V40H24ZM221 39H222V40H221ZM31 41H32V42H31ZM33 68H34V69H33ZM35 68H36V69H35ZM37 68H38V69H37ZM39 68H40V69H39ZM41 68H42V69H41ZM43 68H44V69H43ZM45 68H46V69H45ZM47 68H48V69H47ZM49 68H50V69H49ZM51 68H52V69H51ZM53 68H54V69H53ZM55 68H56V69H55ZM57 68H58V69H57ZM59 68H60V69H59ZM61 68H62V69H61ZM63 68H64V69H63ZM65 68H66V69H65ZM67 68H68V69H67ZM69 68H70V69H69ZM71 68H72V69H71ZM73 68H74V69H73ZM75 68H76V69H75ZM77 68H78V69H77ZM79 68H80V69H79ZM81 68H82V69H81ZM83 68H84V69H83ZM85 68H86V69H85ZM87 68H88V69H87ZM89 68H90V69H89ZM91 68H92V69H91ZM93 68H94V69H93ZM95 68H96V69H95ZM97 68H98V69H97ZM99 68H100V69H99ZM101 68H102V69H101ZM103 68H104V69H103ZM105 68H106V69H105ZM107 68H108V69H107ZM109 68H110V69H109ZM111 68H112V69H111ZM32 69H33V70H32ZM113 69H114V70H113ZM218 69H219V70H218ZM24 71H25V72H24ZM23 73H25V74H23ZM23 74H24V75H23ZM23 75H24V76H23ZM24 76H25V77H24ZM217 88H218V89H217ZM221 88H222V89H221ZM218 89H220V90H218Z"/><path fill="#080818" fill-opacity="1.000" d="M221 14H222V15H221ZM223 14H224V15H223ZM116 19H117V20H116ZM206 20H207V21H206ZM201 21H202V22H201ZM23 38H24V39H23ZM223 39H224V40H223ZM218 40H219V41H218ZM220 40H221V41H220ZM222 41H223V42H222ZM114 68H115V69H114Z"/><path fill="#081010" fill-opacity="1.000" d="M205 15H206V16H205Z"/><path fill="#081018" fill-opacity="1.000" d="M116 12H117V13H116ZM24 13H25V14H24ZM204 13H205V14H204ZM227 13H228V14H227ZM206 14H221V15H206ZM222 14H223V15H222ZM227 14H228V15H227ZM227 15H228V16H227ZM204 16H205V17H204ZM227 16H228V17H227ZM120 17H121V18H120ZM145 17H161V18H145ZM202 17H204V18H202ZM227 17H228V18H227ZM21 18H22V19H21ZM205 18H206V19H205ZM227 18H228V19H227ZM17 19H18V20H17ZM202 19H203V20H202ZM227 19H228V20H227ZM19 20H20V21H19ZM227 20H228V21H227ZM227 21H228V22H227ZM227 22H228V23H227ZM227 23H228V24H227ZM227 24H228V25H227ZM227 25H228V26H227ZM227 26H228V27H227ZM227 27H228V28H227ZM227 28H228V29H227ZM227 29H228V30H227ZM227 30H228V31H227ZM227 31H228V32H227ZM227 32H228V33H227ZM227 33H228V34H227ZM227 34H228V35H227ZM227 35H228V36H227ZM227 36H228V37H227ZM227 37H228V38H227ZM227 38H228V39H227ZM19 40H20V41H19ZM23 40H24V41H23ZM225 41H226V42H225ZM18 44H19V45H18ZM218 44H219V45H218ZM220 44H221V45H220ZM208 63H209V64H208ZM203 64H204V65H203ZM207 64H208V65H207ZM228 64H229V65H228ZM116 68H117V69H116ZM228 69H229V70H228ZM21 73H22V74H21ZM22 75H23V76H22ZM231 86H232V87H231ZM230 87H231V88H230ZM23 88H24V89H23ZM228 92H229V93H228ZM22 93H23V94H22ZM227 93H228V94H227ZM20 94H22V95H20ZM224 94H225V95H224ZM18 95H19V96H18ZM219 95H220V96H219ZM21 96H22V97H21ZM23 96H24V97H23ZM23 97H24V98H23ZM24 99H25V100H24ZM21 100H22V101H21Z"/><path fill="#081020" fill-opacity="1.000" d="M162 17H163V18H162ZM164 17H165V18H164ZM166 17H167V18H166ZM168 17H169V18H168ZM170 17H171V18H170ZM172 17H173V18H172ZM174 17H175V18H174ZM176 17H177V18H176ZM178 17H179V18H178ZM180 17H181V18H180ZM182 17H183V18H182ZM184 17H185V18H184ZM186 17H187V18H186ZM188 17H189V18H188ZM190 17H191V18H190ZM21 40H22V41H21ZM23 42H24V43H23ZM222 42H223V43H222ZM227 65H228V66H227ZM118 66H119V67H118ZM24 67H25V68H24ZM227 68H228V69H227ZM20 71H21V72H20ZM19 72H20V73H19ZM20 91H21V92H20ZM23 94H24V95H23ZM25 96H26V97H25Z"/><path fill="#081820" fill-opacity="1.000" d="M26 64H33V65H26ZM115 64H116V65H115ZM117 64H119V65H117ZM222 66H225V67H222ZM20 69H21V70H20ZM136 69H145V70H136ZM227 69H228V70H227ZM19 70H20V71H19ZM227 70H228V71H227ZM18 71H19V72H18ZM227 71H228V72H227ZM227 72H228V73H227ZM227 73H228V74H227ZM227 74H228V75H227ZM227 75H228V76H227ZM227 76H228V77H227ZM227 77H228V78H227ZM227 78H228V79H227ZM227 79H228V80H227ZM227 80H228V81H227ZM227 81H228V82H227ZM227 82H228V83H227ZM227 83H228V84H227ZM227 84H228V85H227ZM227 85H228V86H227ZM227 86H228V87H227ZM227 87H228V88H227ZM227 88H228V89H227ZM22 95H23V96H22ZM24 95H25V96H24ZM24 97H25V98H24Z"/><path fill="#081828" fill-opacity="1.000" d="M145 69H146V70H145Z"/><path fill="#082020" fill-opacity="1.000" d="M33 64H34V65H33ZM112 64H113V65H112ZM116 64H117V65H116ZM19 92H20V93H19Z"/><path fill="#082028" fill-opacity="1.000" d="M146 69H148V70H146Z"/><path fill="#101018" fill-opacity="1.000" d="M27 12H29V13H27ZM226 40H227V41H226ZM23 72H24V73H23ZM217 99H218V100H217ZM219 99H220V100H219Z"/><path fill="#101020" fill-opacity="1.000" d="M29 12H30V13H29ZM32 12H33V13H32ZM21 16H22V17H21ZM161 17H162V18H161ZM163 17H164V18H163ZM165 17H166V18H165ZM167 17H168V18H167ZM169 17H170V18H169ZM171 17H172V18H171ZM173 17H174V18H173ZM175 17H176V18H175ZM177 17H178V18H177ZM179 17H180V18H179ZM181 17H182V18H181ZM183 17H184V18H183ZM185 17H186V18H185ZM187 17H188V18H187ZM189 17H190V18H189ZM191 17H201V18H191ZM22 41H23V42H22ZM201 64H202V65H201Z"/><path fill="#101820" fill-opacity="1.000" d="M25 12H27V13H25ZM30 12H32V13H30ZM33 12H116V13H33ZM117 12H119V13H117ZM119 13H120V14H119ZM23 14H24V15H23ZM205 14H206V15H205ZM22 15H23V16H22ZM20 17H21V18H20ZM201 17H202V18H201ZM19 18H20V19H19ZM19 38H20V39H19ZM20 39H21V40H20ZM223 41H224V42H223ZM24 43H25V44H24ZM221 43H222V44H221ZM25 64H26V65H25ZM206 66H207V67H206ZM227 66H228V67H227ZM227 67H228V68H227ZM21 70H22V71H21ZM227 89H228V90H227ZM21 92H22V93H21ZM20 93H21V94H20ZM221 98H222V99H221Z"/><path fill="#101828" fill-opacity="1.000" d="M225 66H226V67H225Z"/><path fill="#102028" fill-opacity="1.000" d="M114 64H115V65H114ZM23 66H24V67H23ZM207 66H222V67H207ZM22 67H23V68H22ZM203 67H204V68H203ZM21 68H22V69H21ZM148 69H156V70H148ZM227 90H228V91H227ZM221 95H222V96H221Z"/><path fill="#102030" fill-opacity="1.000" d="M156 69H157V70H156Z"/><path fill="#102830" fill-opacity="1.000" d="M157 69H200V70H157ZM220 96H221V97H220Z"/><path fill="#182028" fill-opacity="1.000" d="M28 13H31V14H28ZM113 13H116V14H113ZM205 13H206V14H205ZM226 13H227V14H226ZM119 15H121V16H119ZM203 15H204V16H203ZM225 39H226V40H225ZM224 40H225V41H224ZM223 93H224V94H223Z"/><path fill="#182030" fill-opacity="1.000" d="M33 13H113V14H33Z"/><path fill="#182830" fill-opacity="1.000" d="M119 65H120V66H119ZM200 69H203V70H200ZM224 92H225V93H224Z"/><path fill="#202028" fill-opacity="1.000" d="M31 13H33V14H31Z"/><path fill="#202030" fill-opacity="1.000" d="M27 13H28V14H27ZM204 15H205V16H204ZM222 94H223V95H222Z"/><path fill="#202828" fill-opacity="1.000" d="M226 39H227V40H226Z"/><path fill="#202830" fill-opacity="1.000" d="M25 13H27V14H25ZM116 13H119V14H116ZM206 13H225V14H206ZM204 14H205V15H204ZM226 14H227V15H226ZM226 15H227V16H226ZM120 16H121V17H120ZM144 16H203V17H144ZM226 16H227V17H226ZM226 17H227V18H226ZM20 18H21V19H20ZM226 18H227V19H226ZM226 19H227V20H226ZM226 20H227V21H226ZM226 21H227V22H226ZM226 22H227V23H226ZM226 23H227V24H226ZM226 24H227V25H226ZM226 25H227V26H226ZM226 26H227V27H226ZM226 27H227V28H226ZM226 28H227V29H226ZM226 29H227V30H226ZM226 30H227V31H226ZM226 31H227V32H226ZM226 32H227V33H226ZM226 33H227V34H226ZM226 34H227V35H226ZM226 35H227V36H226ZM226 36H227V37H226ZM226 37H227V38H226ZM225 40H226V41H225ZM224 41H225V42H224ZM218 45H219V46H218ZM220 45H221V46H220ZM225 91H226V92H225Z"/><path fill="#203030" fill-opacity="1.000" d="M225 13H226V14H225ZM23 15H24V16H23ZM24 65H25V66H24Z"/><path fill="#203038" fill-opacity="1.000" d="M140 16H144V17H140ZM18 38H19V39H18ZM119 67H120V68H119Z"/><path fill="#203840" fill-opacity="1.000" d="M161 68H201V69H161Z"/><path fill="#283030" fill-opacity="1.000" d="M226 38H227V39H226Z"/><path fill="#283038" fill-opacity="1.000" d="M24 14H25V15H24ZM22 16H23V17H22ZM121 16H140V17H121ZM203 16H204V17H203ZM21 17H22V18H21ZM19 19H20V20H19ZM18 20H19V21H18ZM18 21H19V22H18ZM18 22H19V23H18ZM18 23H19V24H18ZM18 24H19V25H18ZM18 25H19V26H18ZM18 26H19V27H18ZM18 27H19V28H18ZM18 28H19V29H18ZM18 29H19V30H18ZM18 30H19V31H18ZM18 31H19V32H18ZM18 32H19V33H18ZM18 33H19V34H18ZM18 34H19V35H18ZM18 35H19V36H18ZM18 36H19V37H18ZM18 37H19V38H18ZM21 41H22V42H21ZM22 42H23V43H22ZM223 42H224V43H223ZM23 43H24V44H23ZM222 43H223V44H222ZM24 44H25V45H24ZM221 44H222V45H221ZM25 45H218V46H25Z"/><path fill="#283040" fill-opacity="1.000" d="M19 39H20V40H19ZM205 65H206V66H205Z"/><path fill="#284048" fill-opacity="1.000" d="M151 68H161V69H151ZM201 68H203V69H201ZM226 89H227V90H226Z"/><path fill="#284850" fill-opacity="1.000" d="M34 65H112V66H34Z"/><path fill="#303038" fill-opacity="1.000" d="M119 14H120V15H119ZM219 45H220V46H219Z"/><path fill="#303840" fill-opacity="1.000" d="M20 40H21V41H20ZM114 65H115V66H114ZM204 66H205V67H204ZM120 67H121V68H120Z"/><path fill="#304048" fill-opacity="1.000" d="M117 65H118V66H117ZM206 65H217V66H206ZM226 87H227V88H226Z"/><path fill="#304050" fill-opacity="1.000" d="M28 65H29V66H28ZM224 65H225V66H224ZM150 68H151V69H150Z"/><path fill="#304848" fill-opacity="1.000" d="M33 65H34V66H33Z"/><path fill="#304850" fill-opacity="1.000" d="M27 65H28V66H27ZM29 65H31V66H29ZM32 65H33V66H32ZM112 65H113V66H112ZM217 65H224V66H217ZM139 68H150V69H139Z"/><path fill="#384050" fill-opacity="1.000" d="M205 66H206V67H205Z"/><path fill="#384850" fill-opacity="1.000" d="M26 65H27V66H26ZM31 65H32V66H31ZM113 65H114V66H113ZM115 65H117V66H115ZM225 65H227V66H225ZM226 66H227V67H226ZM129 68H135V69H129ZM137 68H139V69H137ZM226 68H227V69H226ZM226 69H227V70H226ZM226 70H227V71H226ZM226 71H227V72H226ZM226 72H227V73H226ZM226 73H227V74H226ZM226 74H227V75H226ZM226 75H227V76H226ZM226 76H227V77H226ZM226 77H227V78H226ZM226 78H227V79H226ZM226 79H227V80H226ZM226 80H227V81H226ZM226 81H227V82H226ZM226 82H227V83H226ZM226 83H227V84H226ZM226 84H227V85H226ZM226 85H227V86H226ZM226 90H227V91H226Z"/><path fill="#384858" fill-opacity="1.000" d="M135 68H136V69H135Z"/><path fill="#385058" fill-opacity="1.000" d="M128 68H129V69H128ZM136 68H137V69H136ZM226 86H227V87H226Z"/><path fill="#385060" fill-opacity="1.000" d="M127 68H128V69H127Z"/><path fill="#385858" fill-opacity="1.000" d="M34 97H35V98H34ZM36 97H37V98H36ZM38 97H39V98H38ZM40 97H41V98H40ZM42 97H43V98H42ZM44 97H45V98H44ZM46 97H47V98H46ZM48 97H49V98H48ZM50 97H51V98H50ZM52 97H53V98H52ZM54 97H55V98H54ZM56 97H57V98H56ZM58 97H59V98H58ZM60 97H61V98H60ZM62 97H63V98H62ZM64 97H65V98H64ZM66 97H67V98H66ZM68 97H69V98H68ZM70 97H71V98H70ZM72 97H73V98H72ZM74 97H75V98H74ZM76 97H77V98H76ZM78 97H79V98H78ZM80 97H81V98H80ZM82 97H83V98H82ZM84 97H85V98H84ZM86 97H87V98H86ZM88 97H89V98H88ZM90 97H91V98H90ZM92 97H93V98H92ZM94 97H95V98H94ZM96 97H97V98H96ZM98 97H99V98H98ZM100 97H101V98H100ZM102 97H103V98H102ZM104 97H105V98H104ZM106 97H107V98H106ZM108 97H109V98H108ZM110 97H111V98H110ZM112 97H113V98H112ZM114 97H115V98H114ZM116 97H117V98H116ZM118 97H119V98H118ZM120 97H121V98H120ZM122 97H123V98H122ZM124 97H125V98H124ZM126 97H127V98H126ZM128 97H129V98H128ZM130 97H131V98H130ZM132 97H133V98H132ZM134 97H135V98H134ZM136 97H137V98H136ZM138 97H139V98H138ZM140 97H141V98H140ZM142 97H143V98H142ZM144 97H145V98H144ZM146 97H147V98H146ZM148 97H149V98H148ZM150 97H151V98H150ZM152 97H153V98H152ZM154 97H155V98H154ZM156 97H157V98H156ZM158 97H159V98H158ZM160 97H161V98H160ZM162 97H163V98H162ZM164 97H165V98H164ZM166 97H167V98H166ZM168 97H169V98H168ZM170 97H171V98H170ZM172 97H173V98H172ZM174 97H175V98H174ZM176 97H177V98H176ZM178 97H179V98H178ZM180 97H181V98H180ZM182 97H183V98H182ZM184 97H185V98H184ZM186 97H187V98H186ZM188 97H189V98H188ZM190 97H191V98H190ZM192 97H193V98H192ZM194 97H195V98H194ZM196 97H197V98H196ZM198 97H199V98H198ZM200 97H201V98H200ZM202 97H203V98H202ZM204 97H205V98H204ZM206 97H207V98H206Z"/><path fill="#385860" fill-opacity="1.000" d="M35 97H36V98H35ZM37 97H38V98H37ZM39 97H40V98H39ZM41 97H42V98H41ZM43 97H44V98H43ZM45 97H46V98H45ZM47 97H48V98H47ZM49 97H50V98H49ZM51 97H52V98H51ZM53 97H54V98H53ZM55 97H56V98H55ZM57 97H58V98H57ZM59 97H60V98H59ZM61 97H62V98H61ZM63 97H64V98H63ZM65 97H66V98H65ZM67 97H68V98H67ZM69 97H70V98H69ZM71 97H72V98H71ZM73 97H74V98H73ZM75 97H76V98H75ZM77 97H78V98H77ZM79 97H80V98H79ZM81 97H82V98H81ZM83 97H84V98H83ZM85 97H86V98H85ZM87 97H88V98H87ZM89 97H90V98H89ZM91 97H92V98H91ZM93 97H94V98H93ZM95 97H96V98H95ZM97 97H98V98H97ZM99 97H100V98H99ZM101 97H102V98H101ZM103 97H104V98H103ZM105 97H106V98H105ZM107 97H108V98H107ZM109 97H110V98H109ZM111 97H112V98H111ZM113 97H114V98H113ZM115 97H116V98H115ZM117 97H118V98H117ZM119 97H120V98H119ZM121 97H122V98H121ZM123 97H124V98H123ZM125 97H126V98H125ZM127 97H128V98H127ZM129 97H130V98H129ZM131 97H132V98H131ZM133 97H134V98H133ZM135 97H136V98H135ZM137 97H138V98H137ZM139 97H140V98H139ZM141 97H142V98H141ZM143 97H144V98H143ZM145 97H146V98H145ZM147 97H148V98H147ZM149 97H150V98H149ZM151 97H152V98H151ZM153 97H154V98H153ZM155 97H156V98H155ZM157 97H158V98H157ZM159 97H160V98H159ZM161 97H162V98H161ZM163 97H164V98H163ZM165 97H166V98H165ZM167 97H168V98H167ZM169 97H170V98H169ZM171 97H172V98H171ZM173 97H174V98H173ZM175 97H176V98H175ZM177 97H178V98H177ZM179 97H180V98H179ZM181 97H182V98H181ZM183 97H184V98H183ZM185 97H186V98H185ZM187 97H188V98H187ZM189 97H190V98H189ZM191 97H192V98H191ZM193 97H194V98H193ZM195 97H196V98H195ZM197 97H198V98H197ZM199 97H200V98H199ZM201 97H202V98H201ZM203 97H204V98H203ZM205 97H206V98H205ZM207 97H208V98H207Z"/><path fill="#404858" fill-opacity="1.000" d="M226 67H227V68H226Z"/><path fill="#405058" fill-opacity="1.000" d="M25 65H26V66H25ZM24 66H25V67H24ZM119 66H120V67H119ZM18 73H19V74H18ZM226 91H227V92H226ZM27 97H33V98H27ZM209 97H217V98H209ZM220 97H221V98H220Z"/><path fill="#405060" fill-opacity="1.000" d="M121 68H127V69H121ZM18 88H19V89H18Z"/><path fill="#405858" fill-opacity="1.000" d="M33 97H34V98H33ZM208 97H209V98H208Z"/><path fill="#405860" fill-opacity="1.000" d="M18 72H19V73H18ZM18 75H19V76H18ZM18 76H19V77H18ZM18 77H19V78H18ZM18 78H19V79H18ZM18 79H19V80H18ZM18 80H19V81H18ZM18 81H19V82H18ZM18 82H19V83H18ZM18 83H19V84H18ZM18 84H19V85H18ZM18 85H19V86H18ZM226 88H227V89H226ZM221 96H222V97H221ZM217 97H218V98H217ZM219 97H220V98H219Z"/><path fill="#485058" fill-opacity="1.000" d="M223 94H224V95H223Z"/><path fill="#485060" fill-opacity="1.000" d="M204 67H205V68H204ZM120 68H121V69H120ZM20 70H21V71H20ZM222 95H223V96H222ZM26 97H27V98H26Z"/><path fill="#485860" fill-opacity="1.000" d="M23 67H24V68H23ZM19 71H20V72H19ZM18 86H19V87H18ZM18 87H19V88H18ZM18 89H19V90H18ZM225 92H226V93H225ZM224 93H225V94H224ZM24 96H25V97H24ZM218 97H219V98H218Z"/><path fill="#486068" fill-opacity="1.000" d="M18 74H19V75H18ZM18 90H19V91H18Z"/><path fill="#505860" fill-opacity="1.000" d="M21 69H22V70H21ZM21 93H22V94H21ZM22 94H23V95H22ZM25 97H26V98H25Z"/><path fill="#506060" fill-opacity="1.000" d="M118 65H119V66H118ZM22 68H23V69H22ZM20 92H21V93H20Z"/><path fill="#506068" fill-opacity="1.000" d="M203 68H204V69H203ZM19 91H20V92H19Z"/><path fill="#586070" fill-opacity="1.000" d="M23 95H24V96H23Z"/></svg>