<svg xmlns="http://www.w3.org/2000/svg" width="120" height="84" viewBox="0 0 120 84" shape-rendering="geometricPrecision"><path fill="#000008" fill-opacity="0.063" d="M105 6H106V7H105ZM119 6H120V7H119ZM25 7H26V8H25ZM107 7H108V8H107ZM119 8H120V9H119ZM83 40H84V41H83ZM10 43H11V44H10ZM48 43H49V44H48ZM12 44H13V45H12ZM34 58H35V59H34ZM76 58H77V59H76ZM14 63H15V64H14Z"/><path fill="#000010" fill-opacity="0.063" d="M97 6H98V7H97Z"/><path fill="#000800" fill-opacity="0.063" d="M9 44H10V45H9ZM83 45H84V46H83Z"/><path fill="#000808" fill-opacity="0.063" d="M21 6H22V7H21ZM27 6H28V7H27ZM22 7H23V8H22ZM26 7H27V8H26ZM117 7H118V8H117ZM24 8H25V9H24ZM106 9H107V10H106ZM109 9H110V10H109ZM52 40H53V41H52ZM83 43H84V44H83ZM82 44H83V45H82ZM84 44H85V45H84ZM103 60H104V61H103Z"/><path fill="#000810" fill-opacity="0.063" d="M22 5H23V6H22ZM106 5H107V6H106ZM54 6H55V7H54ZM81 6H82V7H81ZM106 7H107V8H106ZM57 8H58V9H57ZM78 8H79V9H78ZM28 9H30V10H28ZM107 9H108V10H107ZM119 10H120V11H119ZM15 11H16V12H15ZM13 13H14V14H13ZM57 34H58V35H57ZM78 34H79V35H78ZM7 36H8V37H7ZM84 41H85V42H84ZM11 43H12V44H11ZM86 44H87V45H86ZM98 55H99V56H98ZM99 56H100V57H99ZM48 57H49V58H48ZM55 57H56V58H55ZM87 57H88V58H87ZM98 57H99V58H98ZM18 61H19V62H18ZM24 61H32V62H24ZM104 61H112V62H104ZM116 61H117V62H116ZM15 62H16V63H15ZM15 64H16V65H15ZM10 70H11V71H10Z"/><path fill="#001008" fill-opacity="0.063" d="M23 6H24V7H23Z"/><path fill="#001010" fill-opacity="0.063" d="M33 7H34V8H33ZM56 7H57V8H56ZM17 10H18V11H17ZM7 33H8V34H7ZM97 56H98V57H97ZM35 57H36V58H35ZM57 57H58V58H57ZM77 57H78V58H77ZM79 57H80V58H79ZM37 58H47V59H37ZM89 58H96V59H89ZM59 59H60V60H59ZM36 62H37V63H36ZM19 68H20V69H19Z"/><path fill="#001018" fill-opacity="0.063" d="M8 19H9V20H8ZM10 40H11V41H10ZM13 43H14V44H13ZM100 58H101V59H100ZM102 59H103V60H102ZM40 60H47V61H40ZM89 60H96V61H89ZM48 61H49V62H48ZM55 61H56V62H55ZM87 61H88V62H87ZM99 61H100V62H99ZM40 62H41V63H40ZM84 62H85V63H84ZM95 62H96V63H95ZM100 62H101V63H100ZM25 63H32V64H25ZM39 63H40V64H39ZM96 63H97V64H96ZM105 63H111V64H105ZM39 64H40V65H39ZM96 64H97V65H96ZM25 65H33V66H25ZM36 65H38V66H36ZM40 65H41V66H40ZM95 65H96V66H95ZM98 65H100V66H98ZM104 65H111V66H104ZM37 66H38V67H37ZM39 66H40V67H39ZM96 66H97V67H96ZM25 67H31V68H25ZM39 67H40V68H39ZM96 67H97V68H96ZM105 67H111V68H105ZM24 68H25V69H24ZM32 68H33V69H32ZM40 68H41V69H40ZM95 68H96V69H95ZM103 68H104V69H103ZM111 68H112V69H111ZM18 69H19V70H18ZM20 69H21V70H20ZM33 69H34V70H33ZM37 69H40V70H37ZM96 69H98V70H96ZM102 69H103V70H102ZM16 70H17V71H16ZM19 70H20V71H19ZM22 70H23V71H22ZM34 70H37V71H34ZM99 70H102V71H99ZM113 70H114V71H113ZM116 70H117V71H116ZM119 70H120V71H119ZM16 71H17V72H16ZM16 72H17V73H16ZM16 75H17V76H16ZM16 76H17V77H16ZM84 77H85V78H84ZM55 78H56V79H55ZM83 78H84V79H83ZM86 80H88V81H86ZM55 81H56V82H55ZM80 81H81V82H80ZM85 81H86V82H85ZM88 81H89V82H88Z"/><path fill="#080008" fill-opacity="0.063" d="M118 9H119V10H118Z"/><path fill="#080010" fill-opacity="0.063" d="M26 8H27V9H26Z"/><path fill="#080808" fill-opacity="0.063" d="M118 8H119V9H118ZM11 44H12V45H11ZM10 45H11V46H10Z"/><path fill="#080810" fill-opacity="0.063" d="M29 8H30V9H29ZM108 8H109V9H108ZM25 9H27V10H25ZM85 43H86V44H85Z"/><path fill="#081010" fill-opacity="0.063" d="M79 7H80V8H79ZM106 8H107V9H106Z"/><path fill="#081018" fill-opacity="0.063" d="M101 6H102V7H101ZM107 6H108V7H107ZM118 6H119V7H118ZM51 41H52V42H51ZM97 57H98V58H97Z"/><path fill="#000008" fill-opacity="0.125" d="M28 7H29V8H28Z"/><path fill="#000010" fill-opacity="0.125" d="M87 43H88V44H87Z"/><path fill="#000808" fill-opacity="0.125" d="M116 10H117V11H116Z"/><path fill="#000810" fill-opacity="0.125" d="M57 9H58V10H57ZM18 10H20V11H18ZM21 10H22V11H21ZM23 10H25V11H23ZM57 10H58V11H57ZM111 10H112V11H111ZM113 10H115V11H113ZM57 11H58V12H57ZM78 11H79V12H78ZM57 12H58V13H57ZM78 12H79V13H78ZM57 13H58V14H57ZM78 13H79V14H78ZM57 14H58V15H57ZM78 14H79V15H78ZM57 15H58V16H57ZM78 15H79V16H78ZM57 16H58V17H57ZM78 16H79V17H78ZM57 17H58V18H57ZM78 17H79V18H78ZM57 18H58V19H57ZM78 18H79V19H78ZM57 19H58V20H57ZM78 19H79V20H78ZM8 20H9V21H8ZM57 20H58V21H57ZM78 20H79V21H78ZM57 21H58V22H57ZM78 21H79V22H78ZM57 22H58V23H57ZM78 22H79V23H78ZM57 23H58V24H57ZM78 23H79V24H78ZM57 24H58V25H57ZM78 24H79V25H78ZM57 25H58V26H57ZM78 25H79V26H78ZM57 26H58V27H57ZM78 26H79V27H78ZM57 27H58V28H57ZM78 27H79V28H78ZM57 28H58V29H57ZM78 28H79V29H78ZM57 29H58V30H57ZM78 29H79V30H78ZM57 30H58V31H57ZM57 31H58V32H57ZM13 42H14V43H13ZM19 42H20V43H19ZM49 42H50V43H49ZM49 57H51V58H49ZM53 57H55V58H53ZM80 57H83V58H80ZM85 57H87V58H85ZM59 60H60V61H59ZM76 60H77V61H76ZM19 61H24V62H19ZM59 61H60V62H59ZM112 61H116V62H112ZM59 62H60V63H59ZM59 63H60V64H59ZM59 64H60V65H59ZM59 65H60V66H59ZM59 66H60V67H59ZM59 67H60V68H59ZM59 68H60V69H59ZM59 69H60V70H59ZM59 70H60V71H59ZM10 71H11V72H10ZM59 71H60V72H59ZM10 72H11V73H10ZM59 72H60V73H59ZM59 73H60V74H59ZM59 74H60V75H59ZM59 75H60V76H59ZM59 76H60V77H59ZM59 77H60V78H59ZM10 78H11V79H10ZM10 79H11V80H10ZM59 80H60V81H59ZM76 80H77V81H76ZM59 81H60V82H59ZM76 81H77V82H76ZM76 82H77V83H76ZM76 83H77V84H76ZM79 83H80V84H79Z"/><path fill="#000818" fill-opacity="0.125" d="M83 7H86V8H83ZM22 10H23V11H22ZM8 31H9V32H8ZM8 37H9V38H8ZM16 42H17V43H16ZM22 42H24V43H22Z"/><path fill="#001010" fill-opacity="0.125" d="M34 7H36V8H34ZM37 7H38V8H37ZM39 7H40V8H39ZM49 7H50V8H49ZM52 7H53V8H52ZM87 7H88V8H87ZM78 10H79V11H78ZM115 10H116V11H115ZM8 26H9V27H8ZM8 27H9V28H8ZM8 28H9V29H8ZM8 29H9V30H8ZM78 30H79V31H78ZM78 31H79V32H78ZM12 42H13V43H12ZM24 42H41V43H24ZM89 42H120V43H89ZM51 57H53V58H51ZM83 57H85V58H83ZM96 58H97V59H96ZM99 58H100V59H99ZM56 61H57V62H56ZM76 61H77V62H76ZM76 62H77V63H76ZM16 63H17V64H16ZM76 63H77V64H76ZM76 64H77V65H76ZM76 65H77V66H76ZM76 66H77V67H76ZM76 67H77V68H76ZM76 68H77V69H76ZM76 69H77V70H76ZM76 70H77V71H76ZM76 71H77V72H76ZM76 72H77V73H76ZM10 73H11V74H10ZM76 73H77V74H76ZM10 74H11V75H10ZM76 74H77V75H76ZM10 75H11V76H10ZM76 75H77V76H76ZM10 76H11V77H10ZM76 76H77V77H76ZM10 77H11V78H10ZM76 77H77V78H76ZM59 78H60V79H59ZM76 78H77V79H76ZM59 79H60V80H59ZM76 79H77V80H76ZM10 80H11V81H10ZM10 81H11V82H10ZM10 82H11V83H10ZM59 82H60V83H59ZM10 83H11V84H10ZM56 83H57V84H56ZM59 83H60V84H59Z"/><path fill="#001018" fill-opacity="0.125" d="M36 7H37V8H36ZM38 7H39V8H38ZM40 7H49V8H40ZM50 7H52V8H50ZM86 7H87V8H86ZM88 7H96V8H88ZM99 7H100V8H99ZM102 7H103V8H102ZM78 9H79V10H78ZM20 10H21V11H20ZM112 10H113V11H112ZM8 21H9V22H8ZM8 22H9V23H8ZM8 23H9V24H8ZM8 24H9V25H8ZM8 25H9V26H8ZM8 30H9V31H8ZM78 32H79V33H78ZM78 33H79V34H78ZM14 42H16V43H14ZM17 42H19V43H17ZM41 42H47V43H41ZM39 60H40V61H39ZM96 60H97V61H96ZM49 61H55V62H49ZM84 61H87V62H84ZM96 61H97V62H96ZM98 61H99V62H98ZM56 62H57V63H56ZM98 62H99V63H98ZM32 63H34V64H32ZM35 63H37V64H35ZM38 63H39V64H38ZM56 63H57V64H56ZM84 63H85V64H84ZM97 63H98V64H97ZM99 63H101V64H99ZM104 63H105V64H104ZM37 64H39V65H37ZM56 64H57V65H56ZM84 64H85V65H84ZM97 64H99V65H97ZM56 65H57V66H56ZM84 65H85V66H84ZM103 65H104V66H103ZM35 66H37V67H35ZM38 66H39V67H38ZM56 66H57V67H56ZM84 66H85V67H84ZM97 66H101V67H97ZM19 67H20V68H19ZM24 67H25V68H24ZM31 67H32V68H31ZM56 67H57V68H56ZM84 67H85V68H84ZM104 67H105V68H104ZM111 67H112V68H111ZM18 68H19V69H18ZM33 68H34V69H33ZM56 68H57V69H56ZM84 68H85V69H84ZM102 68H103V69H102ZM23 69H24V70H23ZM56 69H57V70H56ZM84 69H85V70H84ZM112 69H113V70H112ZM56 70H57V71H56ZM84 70H85V71H84ZM56 71H57V72H56ZM84 71H85V72H84ZM56 72H57V73H56ZM84 72H85V73H84ZM56 73H57V74H56ZM84 73H85V74H84ZM56 74H57V75H56ZM84 74H85V75H84ZM56 75H57V76H56ZM84 75H85V76H84ZM56 76H57V77H56ZM84 76H85V77H84ZM81 78H83V79H81ZM14 79H15V80H14ZM14 80H15V81H14ZM14 81H15V82H14ZM14 82H15V83H14ZM85 82H86V83H85ZM88 82H89V83H88ZM14 83H15V84H14ZM85 83H86V84H85ZM88 83H89V84H88Z"/><path fill="#080810" fill-opacity="0.125" d="M27 8H28V9H27ZM20 42H21V43H20Z"/><path fill="#080818" fill-opacity="0.125" d="M21 42H22V43H21Z"/><path fill="#081010" fill-opacity="0.125" d="M57 32H58V33H57ZM57 33H58V34H57Z"/><path fill="#081018" fill-opacity="0.125" d="M58 58H59V59H58ZM76 59H77V60H76Z"/><path fill="#000008" fill-opacity="0.188" d="M14 66H15V67H14Z"/><path fill="#000010" fill-opacity="0.188" d="M27 10H28V11H27ZM108 10H109V11H108ZM50 41H51V42H50Z"/><path fill="#000808" fill-opacity="0.188" d="M117 10H118V11H117ZM15 65H16V66H15ZM11 69H12V70H11Z"/><path fill="#000810" fill-opacity="0.188" d="M98 7H99V8H98ZM16 11H17V12H16ZM13 14H14V15H13ZM9 18H10V19H9ZM8 35H9V36H8ZM54 37H55V38H54ZM81 37H82V38H81ZM82 38H83V39H82ZM85 41H86V42H85ZM98 58H99V59H98ZM101 59H102V60H101ZM38 60H39V61H38ZM97 60H98V61H97ZM17 62H18V63H17ZM16 64H17V65H16ZM119 64H120V65H119ZM13 67H14V68H13Z"/><path fill="#000818" fill-opacity="0.188" d="M12 15H13V16H12ZM83 39H84V40H83Z"/><path fill="#001010" fill-opacity="0.188" d="M96 7H97V8H96ZM32 8H33V9H32ZM103 8H104V9H103ZM107 10H108V11H107ZM119 11H120V12H119ZM10 17H11V18H10ZM56 35H57V36H56ZM55 36H56V37H55ZM53 38H54V39H53ZM10 39H11V40H10ZM88 42H89V43H88ZM36 58H37V59H36ZM47 58H48V59H47ZM88 58H89V59H88ZM34 59H35V60H34ZM33 60H34V61H33ZM98 60H99V61H98ZM32 61H33V62H32ZM39 61H40V62H39ZM34 63H35V64H34ZM101 63H102V64H101ZM32 66H33V67H32ZM103 66H104V67H103ZM12 68H13V69H12ZM34 68H36V69H34ZM100 68H102V69H100ZM17 69H18V70H17ZM15 77H16V78H15ZM56 79H57V80H56ZM79 79H80V80H79ZM56 80H57V81H56Z"/><path fill="#001018" fill-opacity="0.188" d="M53 7H54V8H53ZM55 7H56V8H55ZM80 7H81V8H80ZM82 7H83V8H82ZM100 7H101V8H100ZM31 9H32V10H31ZM104 9H105V10H104ZM25 10H26V11H25ZM28 10H29V11H28ZM110 10H111V11H110ZM14 12H15V13H14ZM11 16H12V17H11ZM8 32H9V33H8ZM8 34H9V35H8ZM79 35H80V36H79ZM80 36H81V37H80ZM9 38H10V39H9ZM52 39H53V40H52ZM11 41H12V42H11ZM47 42H48V43H47ZM47 60H48V61H47ZM88 60H89V61H88ZM80 61H84V62H80ZM100 61H101V62H100ZM103 61H104V62H103ZM35 62H36V63H35ZM117 62H118V63H117ZM24 63H25V64H24ZM111 63H112V64H111ZM118 63H119V64H118ZM33 64H34V65H33ZM103 64H104V65H103ZM24 65H25V66H24ZM35 65H36V66H35ZM100 65H101V66H100ZM111 65H112V66H111ZM33 66H35V67H33ZM101 66H103V67H101ZM18 67H19V68H18ZM38 67H39V68H38ZM97 67H98V68H97ZM20 68H21V69H20ZM36 68H38V69H36ZM21 69H22V70H21ZM98 69H99V70H98ZM114 69H116V70H114ZM117 69H119V70H117ZM15 70H16V71H15ZM15 73H16V74H15ZM15 74H16V75H15ZM56 77H57V78H56ZM14 78H15V79H14ZM80 78H81V79H80ZM79 80H80V81H79ZM56 82H57V83H56ZM79 82H80V83H79Z"/><path fill="#000810" fill-opacity="0.251" d="M86 42H87V43H86Z"/><path fill="#001010" fill-opacity="0.251" d="M37 60H38V61H37ZM56 60H57V61H56ZM36 61H37V62H36ZM23 64H24V65H23ZM112 64H113V65H112ZM112 67H113V68H112ZM119 68H120V69H119ZM15 69H16V70H15Z"/><path fill="#001018" fill-opacity="0.251" d="M30 10H31V11H30ZM105 10H106V11H105ZM56 58H57V59H56ZM79 61H80V62H79ZM37 62H38V63H37ZM102 63H103V64H102ZM19 66H20V67H19ZM23 67H24V68H23ZM99 68H100V69H99Z"/><path fill="#081018" fill-opacity="0.251" d="M78 58H79V59H78Z"/><path fill="#000000" fill-opacity="1.000" d="M118 7H119V8H118Z"/><path fill="#000808" fill-opacity="1.000" d="M113 68H114V69H113Z"/><path fill="#000810" fill-opacity="1.000" d="M16 68H17V69H16ZM22 68H23V69H22Z"/><path fill="#001010" fill-opacity="1.000" d="M115 65H116V66H115ZM22 66H23V67H22ZM113 66H115V67H113ZM117 67H118V68H117ZM14 75H15V76H14Z"/><path fill="#001018" fill-opacity="1.000" d="M54 7H55V8H54ZM97 7H98V8H97ZM101 7H102V8H101ZM106 10H107V11H106ZM109 10H110V11H109ZM8 36H9V37H8ZM11 40H12V41H11ZM51 40H52V41H51ZM12 41H13V42H12ZM12 43H13V44H12ZM48 60H50V61H48ZM54 60H56V61H54ZM81 60H82V61H81ZM86 60H88V61H86ZM102 60H103V61H102ZM38 62H40V63H38ZM79 62H84V63H79ZM96 62H98V63H96ZM21 63H23V64H21ZM37 63H38V64H37ZM79 63H84V64H79ZM98 63H99V64H98ZM103 63H104V64H103ZM113 63H115V64H113ZM19 64H22V65H19ZM79 64H84V65H79ZM102 64H103V65H102ZM114 64H115V65H114ZM116 64H117V65H116ZM20 65H21V66H20ZM22 65H23V66H22ZM33 65H35V66H33ZM38 65H39V66H38ZM79 65H84V66H79ZM97 65H98V66H97ZM101 65H103V66H101ZM113 65H114V66H113ZM17 66H19V67H17ZM20 66H22V67H20ZM23 66H32V67H23ZM79 66H84V67H79ZM104 66H112V67H104ZM115 66H119V67H115ZM20 67H22V68H20ZM37 67H38V68H37ZM79 67H84V68H79ZM98 67H99V68H98ZM100 67H101V68H100ZM114 67H117V68H114ZM21 68H22V69H21ZM23 68H24V69H23ZM79 68H84V69H79ZM98 68H99V69H98ZM112 68H113V69H112ZM115 68H118V69H115ZM34 69H37V70H34ZM79 69H84V70H79ZM99 69H102V70H99ZM116 69H117V70H116ZM79 70H84V71H79ZM14 71H16V72H14ZM79 71H84V72H79ZM12 72H16V73H12ZM79 72H84V73H79ZM13 73H14V74H13ZM79 73H84V74H79ZM13 74H14V75H13ZM79 74H84V75H79ZM13 75H14V76H13ZM79 75H84V76H79ZM13 76H16V77H13ZM79 76H84V77H79ZM13 77H14V78H13ZM79 77H84V78H79ZM13 78H14V79H13ZM86 81H88V82H86ZM86 82H88V83H86ZM13 83H14V84H13ZM86 83H88V84H86Z"/><path fill="#001020" fill-opacity="1.000" d="M81 7H82V8H81ZM29 10H30V11H29ZM49 41H50V42H49ZM86 41H87V42H86Z"/><path fill="#001818" fill-opacity="1.000" d="M15 12H16V13H15ZM50 60H54V61H50ZM83 60H86V61H83ZM112 63H113V64H112ZM34 64H37V65H34ZM115 64H116V65H115ZM23 65H24V66H23ZM39 65H40V66H39ZM112 65H113V66H112ZM114 65H115V66H114ZM117 65H118V66H117ZM112 66H113V67H112ZM33 67H37V68H33ZM19 69H20V70H19ZM14 73H15V74H14ZM14 74H15V75H14ZM15 75H16V76H15ZM56 78H57V79H56ZM79 78H80V79H79Z"/><path fill="#001820" fill-opacity="1.000" d="M14 13H15V14H14ZM12 16H13V17H12ZM9 19H10V20H9ZM8 33H9V34H8ZM56 34H57V35H56ZM84 40H85V41H84ZM87 41H88V42H87ZM23 63H24V64H23ZM21 65H22V66H21Z"/><path fill="#002020" fill-opacity="1.000" d="M11 17H12V18H11ZM10 18H11V19H10ZM80 35H81V36H80ZM13 41H14V42H13ZM24 41H40V42H24ZM88 41H120V42H88Z"/><path fill="#002028" fill-opacity="1.000" d="M118 11H119V12H118ZM119 12H120V13H119ZM15 13H16V14H15ZM13 15H14V16H13ZM53 37H54V38H53ZM51 39H52V40H51ZM15 41H24V42H15ZM40 41H49V42H40Z"/><path fill="#002828" fill-opacity="1.000" d="M16 12H17V13H16ZM14 14H15V15H14ZM55 35H56V36H55ZM54 36H55V37H54ZM52 38H53V39H52Z"/><path fill="#002830" fill-opacity="1.000" d="M104 10H105V11H104ZM84 39H85V40H84ZM14 41H15V42H14Z"/><path fill="#003038" fill-opacity="1.000" d="M31 10H32V11H31Z"/><path fill="#081018" fill-opacity="1.000" d="M106 6H107V7H106ZM26 10H27V11H26ZM118 10H119V11H118ZM87 42H88V43H87ZM86 43H87V44H86ZM98 56H99V57H98ZM48 58H49V59H48ZM50 58H51V59H50ZM54 58H56V59H54ZM57 58H58V59H57ZM77 58H78V59H77ZM79 58H83V59H79ZM86 58H88V59H86ZM97 58H98V59H97ZM79 60H81V61H79ZM82 60H83V61H82ZM35 61H36V62H35ZM18 62H19V63H18ZM15 63H16V64H15ZM17 63H18V64H17ZM99 64H100V65H99ZM99 67H100V68H99ZM101 67H102V68H101ZM17 68H18V69H17ZM38 68H39V69H38ZM114 68H115V69H114ZM118 68H119V69H118ZM16 69H17V70H16ZM14 70H15V71H14ZM13 71H14V72H13ZM13 79H14V80H13ZM13 80H14V81H13ZM13 81H14V82H13ZM13 82H14V83H13Z"/><path fill="#081020" fill-opacity="1.000" d="M48 42H49V43H48Z"/><path fill="#081810" fill-opacity="1.000" d="M22 6H23V7H22Z"/><path fill="#081818" fill-opacity="1.000" d="M35 58H36V59H35ZM49 58H50V59H49ZM51 58H54V59H51ZM83 58H86V59H83ZM36 60H37V61H36ZM37 61H39V62H37ZM100 64H102V65H100ZM96 65H97V66H96ZM16 67H17V68H16ZM102 67H104V68H102ZM119 67H120V68H119ZM39 68H40V69H39ZM96 68H98V69H96ZM119 69H120V70H119ZM14 77H15V78H14ZM56 81H57V82H56Z"/><path fill="#081820" fill-opacity="1.000" d="M99 60H100V61H99ZM97 61H98V62H97ZM102 61H103V62H102ZM18 63H19V64H18ZM20 63H21V64H20ZM115 63H116V64H115ZM117 63H118V64H117ZM22 64H23V65H22ZM113 64H114V65H113ZM18 65H20V66H18ZM116 65H117V66H116ZM17 67H18V68H17ZM32 67H33V68H32ZM118 67H119V68H118ZM14 69H15V70H14ZM22 69H23V70H22ZM113 69H114V70H113ZM13 70H14V71H13ZM12 73H13V74H12ZM12 76H13V77H12ZM12 78H13V79H12ZM12 79H13V80H12ZM12 80H13V81H12ZM78 80H79V81H78ZM12 81H13V82H12ZM78 81H80V82H78ZM12 82H13V83H12ZM12 83H13V84H12Z"/><path fill="#082020" fill-opacity="1.000" d="M22 67H23V68H22ZM113 67H114V68H113Z"/><path fill="#082028" fill-opacity="1.000" d="M79 34H80V35H79Z"/><path fill="#082030" fill-opacity="1.000" d="M82 37H83V38H82Z"/><path fill="#082828" fill-opacity="1.000" d="M17 11H18V12H17Z"/><path fill="#082830" fill-opacity="1.000" d="M83 38H84V39H83ZM50 40H51V41H50Z"/><path fill="#101010" fill-opacity="1.000" d="M27 7H28V8H27ZM10 44H11V45H10Z"/><path fill="#101018" fill-opacity="1.000" d="M119 7H120V8H119ZM25 8H26V9H25ZM28 8H29V9H28ZM107 8H108V9H107Z"/><path fill="#101818" fill-opacity="1.000" d="M83 44H84V45H83Z"/><path fill="#101820" fill-opacity="1.000" d="M78 60H79V61H78ZM78 62H79V63H78ZM13 68H14V69H13ZM15 68H16V69H15ZM11 70H12V71H11ZM12 75H13V76H12ZM12 77H13V78H12ZM78 79H79V80H78ZM57 81H58V82H57Z"/><path fill="#102020" fill-opacity="1.000" d="M56 8H57V9H56ZM33 61H34V62H33ZM78 61H79V62H78ZM34 62H35V63H34ZM101 62H102V63H101ZM78 63H79V64H78ZM78 64H79V65H78ZM78 65H79V66H78ZM78 66H79V67H78ZM78 67H79V68H78ZM78 68H79V69H78ZM12 69H13V70H12ZM78 69H79V70H78ZM78 70H79V71H78ZM78 71H79V72H78ZM78 72H79V73H78ZM78 73H79V74H78ZM12 74H13V75H12ZM78 74H79V75H78ZM78 75H79V76H78ZM78 76H79V77H78ZM78 77H79V78H78ZM78 78H79V79H78ZM57 79H58V80H57ZM57 80H58V81H57ZM57 82H58V83H57ZM78 82H79V83H78Z"/><path fill="#102028" fill-opacity="1.000" d="M79 8H80V9H79ZM57 60H58V61H57ZM19 62H20V63H19ZM57 62H58V63H57ZM116 62H117V63H116ZM57 63H58V64H57ZM17 64H18V65H17ZM57 64H58V65H57ZM118 64H119V65H118ZM16 65H17V66H16ZM57 65H58V66H57ZM119 65H120V66H119ZM57 66H58V67H57ZM57 67H58V68H57ZM57 68H58V69H57ZM57 69H58V70H57ZM57 70H58V71H57ZM12 71H13V72H12ZM57 71H58V72H57ZM57 72H58V73H57ZM57 73H58V74H57ZM57 74H58V75H57ZM57 75H58V76H57ZM57 76H58V77H57ZM57 77H58V78H57ZM57 78H58V79H57Z"/><path fill="#103030" fill-opacity="1.000" d="M56 33H57V34H56ZM81 36H82V37H81Z"/><path fill="#103038" fill-opacity="1.000" d="M85 40H86V41H85Z"/><path fill="#103838" fill-opacity="1.000" d="M56 15H57V16H56ZM56 16H57V17H56ZM56 17H57V18H56ZM56 18H57V19H56ZM56 19H57V20H56ZM56 20H57V21H56ZM56 21H57V22H56ZM56 22H57V23H56ZM56 23H57V24H56ZM56 24H57V25H56ZM56 25H57V26H56ZM56 26H57V27H56ZM56 27H57V28H56ZM56 28H57V29H56Z"/><path fill="#182028" fill-opacity="1.000" d="M101 60H102V61H101ZM14 67H15V68H14Z"/><path fill="#182828" fill-opacity="1.000" d="M35 60H36V61H35ZM58 60H59V61H58ZM57 61H58V62H57ZM58 78H59V79H58ZM57 83H58V84H57ZM78 83H79V84H78Z"/><path fill="#182830" fill-opacity="1.000" d="M34 60H35V61H34ZM15 66H16V67H15Z"/><path fill="#183030" fill-opacity="1.000" d="M56 9H57V10H56Z"/><path fill="#183038" fill-opacity="1.000" d="M56 12H57V13H56ZM56 13H57V14H56ZM56 31H57V32H56Z"/><path fill="#183838" fill-opacity="1.000" d="M56 10H57V11H56ZM56 14H57V15H56ZM56 29H57V30H56ZM56 30H57V31H56Z"/><path fill="#183840" fill-opacity="1.000" d="M56 11H57V12H56ZM56 32H57V33H56Z"/><path fill="#184040" fill-opacity="1.000" d="M79 33H80V34H79Z"/><path fill="#184848" fill-opacity="1.000" d="M79 30H80V31H79ZM79 31H80V32H79Z"/><path fill="#185050" fill-opacity="1.000" d="M103 9H104V10H103Z"/><path fill="#202830" fill-opacity="1.000" d="M58 59H59V60H58ZM77 60H78V61H77ZM11 71H12V72H11ZM77 78H78V79H77ZM58 81H59V82H58Z"/><path fill="#203030" fill-opacity="1.000" d="M100 60H101V61H100ZM58 61H59V62H58ZM33 62H34V63H33ZM58 62H59V63H58ZM77 62H78V63H77ZM102 62H103V63H102ZM58 63H59V64H58ZM77 63H78V64H77ZM58 64H59V65H58ZM77 64H78V65H77ZM58 65H59V66H58ZM77 65H78V66H77ZM58 66H59V67H58ZM77 66H78V67H77ZM58 67H59V68H58ZM77 67H78V68H77ZM58 68H59V69H58ZM77 68H78V69H77ZM58 69H59V70H58ZM77 69H78V70H77ZM58 70H59V71H58ZM77 70H78V71H77ZM58 71H59V72H58ZM77 71H78V72H77ZM58 72H59V73H58ZM77 72H78V73H77ZM58 73H59V74H58ZM77 73H78V74H77ZM11 74H12V75H11ZM58 74H59V75H58ZM77 74H78V75H77ZM58 75H59V76H58ZM77 75H78V76H77ZM58 76H59V77H58ZM77 76H78V77H77ZM11 77H12V78H11ZM58 77H59V78H58ZM77 77H78V78H77ZM58 79H59V80H58ZM77 79H78V80H77ZM58 80H59V81H58ZM77 81H78V82H77ZM58 82H59V83H58ZM77 82H78V83H77ZM58 83H59V84H58ZM77 83H78V84H77Z"/><path fill="#203038" fill-opacity="1.000" d="M48 59H56V60H48ZM80 59H88V60H80ZM77 61H78V62H77ZM15 67H16V68H15ZM11 75H12V76H11ZM77 80H78V81H77ZM11 83H12V84H11Z"/><path fill="#203838" fill-opacity="1.000" d="M118 65H119V66H118Z"/><path fill="#204040" fill-opacity="1.000" d="M79 9H80V10H79Z"/><path fill="#204048" fill-opacity="1.000" d="M79 12H80V13H79ZM79 13H80V14H79ZM79 14H80V15H79ZM79 15H80V16H79ZM79 16H80V17H79ZM79 17H80V18H79ZM79 18H80V19H79ZM79 19H80V20H79ZM79 20H80V21H79ZM79 21H80V22H79ZM79 22H80V23H79ZM79 23H80V24H79ZM79 24H80V25H79ZM79 25H80V26H79ZM79 26H80V27H79ZM79 27H80V28H79ZM79 28H80V29H79ZM79 29H80V30H79Z"/><path fill="#204848" fill-opacity="1.000" d="M79 10H80V11H79ZM79 11H80V12H79ZM79 32H80V33H79Z"/><path fill="#204850" fill-opacity="1.000" d="M102 8H103V9H102Z"/><path fill="#283038" fill-opacity="1.000" d="M38 59H39V60H38ZM77 59H80V60H77ZM89 59H96V60H89ZM17 65H18V66H17ZM11 73H12V74H11ZM11 76H12V77H11ZM11 78H12V79H11ZM11 79H12V80H11ZM11 80H12V81H11ZM11 81H12V82H11ZM11 82H12V83H11Z"/><path fill="#283838" fill-opacity="1.000" d="M35 59H36V60H35ZM40 59H48V60H40ZM56 59H58V60H56ZM88 59H89V60H88ZM113 62H114V63H113ZM13 69H14V70H13Z"/><path fill="#283840" fill-opacity="1.000" d="M39 59H40V60H39ZM96 59H101V60H96ZM34 61H35V62H34ZM101 61H102V62H101ZM21 62H32V63H21ZM104 62H113V63H104ZM114 62H115V63H114ZM19 63H20V64H19ZM116 63H117V64H116ZM16 66H17V67H16ZM11 72H12V73H11Z"/><path fill="#285058" fill-opacity="1.000" d="M32 9H33V10H32ZM106 11H107V12H106Z"/><path fill="#285860" fill-opacity="1.000" d="M29 11H30V12H29Z"/><path fill="#303840" fill-opacity="1.000" d="M36 59H37V60H36ZM32 62H33V63H32ZM119 66H120V67H119ZM14 68H15V69H14ZM12 70H13V71H12Z"/><path fill="#304040" fill-opacity="1.000" d="M37 59H38V60H37ZM103 62H104V63H103ZM115 62H116V63H115ZM117 64H118V65H117Z"/><path fill="#304048" fill-opacity="1.000" d="M20 62H21V63H20ZM18 64H19V65H18Z"/><path fill="#304850" fill-opacity="1.000" d="M33 8H34V9H33Z"/><path fill="#305858" fill-opacity="1.000" d="M34 8H35V9H34Z"/><path fill="#305860" fill-opacity="1.000" d="M101 8H102V9H101ZM22 11H23V12H22Z"/><path fill="#306060" fill-opacity="1.000" d="M20 11H21V12H20ZM25 11H26V12H25ZM108 11H110V12H108ZM113 11H114V12H113Z"/><path fill="#306068" fill-opacity="1.000" d="M111 11H112V12H111Z"/><path fill="#306070" fill-opacity="1.000" d="M30 11H31V12H30Z"/><path fill="#385860" fill-opacity="1.000" d="M27 11H28V12H27ZM115 11H116V12H115Z"/><path fill="#386060" fill-opacity="1.000" d="M26 11H27V12H26ZM110 11H111V12H110Z"/><path fill="#386068" fill-opacity="1.000" d="M23 11H25V12H23ZM105 11H106V12H105ZM112 11H113V12H112Z"/><path fill="#386870" fill-opacity="1.000" d="M21 11H22V12H21Z"/><path fill="#406060" fill-opacity="1.000" d="M117 11H118V12H117Z"/><path fill="#406068" fill-opacity="1.000" d="M18 11H19V12H18Z"/><path fill="#406868" fill-opacity="1.000" d="M35 8H36V9H35ZM116 11H117V12H116Z"/><path fill="#406870" fill-opacity="1.000" d="M100 8H101V9H100ZM19 11H20V12H19ZM28 11H29V12H28ZM107 11H108V12H107ZM114 11H115V12H114Z"/><path fill="#407070" fill-opacity="1.000" d="M37 8H38V9H37ZM98 8H100V9H98Z"/><path fill="#407078" fill-opacity="1.000" d="M36 8H37V9H36Z"/><path fill="#487878" fill-opacity="1.000" d="M38 8H39V9H38Z"/><path fill="#487880" fill-opacity="1.000" d="M39 8H48V9H39ZM49 8H53V9H49ZM83 8H86V9H83ZM88 8H98V9H88ZM12 40H13V41H12Z"/><path fill="#488080" fill-opacity="1.000" d="M48 8H49V9H48ZM82 8H83V9H82ZM86 8H88V9H86Z"/><path fill="#507880" fill-opacity="1.000" d="M53 8H54V9H53Z"/><path fill="#508080" fill-opacity="1.000" d="M11 39H12V40H11Z"/><path fill="#508088" fill-opacity="1.000" d="M54 8H55V9H54ZM81 8H82V9H81ZM10 38H11V39H10Z"/><path fill="#587880" fill-opacity="1.000" d="M55 8H56V9H55Z"/><path fill="#588080" fill-opacity="1.000" d="M80 8H81V9H80Z"/><path fill="#688890" fill-opacity="1.000" d="M9 37H10V38H9Z"/><path fill="#78f0f0" fill-opacity="1.000" d="M38 11H39V12H38Z"/><path fill="#80c0c0" fill-opacity="1.000" d="M10 19H11V20H10Z"/><path fill="#80e8e8" fill-opacity="1.000" d="M53 33H54V34H53Z"/><path fill="#80e8f0" fill-opacity="1.000" d="M102 12H103V13H102Z"/><path fill="#80f0e8" fill-opacity="1.000" d="M11 32H12V33H11ZM82 33H83V34H82ZM51 35H52V36H51Z"/><path fill="#80f0f0" fill-opacity="1.000" d="M35 11H37V12H35ZM96 11H97V12H96ZM99 11H100V12H99ZM15 19H16V20H15ZM14 20H15V21H14ZM50 30H51V31H50ZM11 31H12V32H11ZM48 32H49V33H48ZM51 32H52V33H51ZM12 33H13V34H12ZM51 33H52V34H51ZM84 33H85V34H84ZM12 34H13V35H12ZM49 34H51V35H49ZM85 34H87V35H85ZM11 35H12V36H11ZM13 35H14V36H13ZM84 35H85V36H84ZM86 37H87V38H86Z"/><path fill="#80f0f8" fill-opacity="1.000" d="M43 12H49V13H43ZM83 12H84V13H83ZM89 12H91V13H89ZM98 12H99V13H98ZM48 13H50V14H48ZM96 13H97V14H96ZM98 13H99V14H98ZM49 14H50V15H49ZM49 15H50V16H49ZM49 16H50V17H49ZM49 17H50V18H49ZM49 18H50V19H49ZM49 19H50V20H49ZM49 20H50V21H49ZM14 21H15V22H14ZM49 21H50V22H49ZM49 22H50V23H49ZM49 23H50V24H49ZM49 24H50V25H49ZM49 25H50V26H49ZM12 26H13V27H12ZM49 26H50V27H49ZM12 27H13V28H12ZM49 27H50V28H49ZM12 28H13V29H12ZM49 28H50V29H49ZM12 29H13V30H12ZM84 32H85V33H84ZM15 35H16V36H15ZM48 35H49V36H48Z"/><path fill="#80f8e8" fill-opacity="1.000" d="M25 13H26V14H25Z"/><path fill="#80f8f0" fill-opacity="1.000" d="M87 11H88V12H87ZM24 13H25V14H24ZM12 21H14V22H12ZM11 23H12V24H11ZM11 24H12V25H11ZM17 27H18V28H17ZM17 28H18V29H17Z"/><path fill="#80f8f8" fill-opacity="1.000" d="M37 11H38V12H37ZM39 11H40V12H39ZM82 11H84V12H82ZM86 11H87V12H86ZM82 12H83V13H82ZM91 12H96V13H91ZM17 15H21V16H17ZM87 15H88V16H87ZM17 16H18V17H17ZM20 16H22V17H20ZM87 16H88V17H87ZM20 17H22V18H20ZM87 17H88V18H87ZM20 18H24V19H20ZM87 18H88V19H87ZM20 19H24V20H20ZM87 19H88V20H87ZM20 20H23V21H20ZM87 20H88V21H87ZM20 21H22V22H20ZM87 21H88V22H87ZM12 22H14V23H12ZM20 22H21V23H20ZM87 22H88V23H87ZM12 23H13V24H12ZM87 23H88V24H87ZM12 24H13V25H12ZM17 24H18V25H17ZM87 24H88V25H87ZM12 25H13V26H12ZM16 25H18V26H16ZM87 25H88V26H87ZM16 26H18V27H16ZM87 26H88V27H87ZM16 27H17V28H16ZM23 27H24V28H23ZM87 27H88V28H87ZM16 28H17V29H16ZM22 28H25V29H22ZM87 28H88V29H87ZM16 29H18V30H16ZM22 29H25V30H22ZM40 29H41V30H40ZM47 29H50V30H47ZM87 29H88V30H87ZM119 29H120V30H119ZM22 30H26V31H22ZM27 30H28V31H27ZM29 30H30V31H29ZM31 30H32V31H31ZM33 30H34V31H33ZM35 30H36V31H35ZM37 30H38V31H37ZM39 30H42V31H39ZM46 30H50V31H46ZM87 30H90V31H87ZM91 30H92V31H91ZM93 30H94V31H93ZM95 30H96V31H95ZM97 30H98V31H97ZM99 30H100V31H99ZM101 30H102V31H101ZM103 30H104V31H103ZM105 30H106V31H105ZM107 30H108V31H107ZM109 30H110V31H109ZM111 30H112V31H111ZM113 30H114V31H113ZM115 30H116V31H115ZM117 30H118V31H117ZM119 30H120V31H119ZM21 31H24V32H21ZM39 31H42V32H39ZM47 31H50V32H47ZM12 32H13V33H12ZM16 32H19V33H16ZM20 32H24V33H20ZM49 32H51V33H49ZM16 33H19V34H16ZM50 33H51V34H50ZM83 33H84V34H83ZM16 34H18V35H16ZM43 34H44V35H43ZM16 35H18V36H16ZM43 35H46V36H43ZM16 36H19V37H16ZM43 36H46V37H43ZM86 36H88V37H86ZM16 37H20V38H16ZM44 37H47V38H44ZM87 37H88V38H87ZM45 38H48V39H45Z"/><path fill="#80f8ff" fill-opacity="1.000" d="M13 23H14V24H13Z"/><path fill="#88e8f0" fill-opacity="1.000" d="M54 32H55V33H54Z"/><path fill="#88f0e8" fill-opacity="1.000" d="M13 19H14V20H13Z"/><path fill="#88f0f0" fill-opacity="1.000" d="M36 10H37V11H36ZM84 10H85V11H84ZM87 10H88V11H87ZM81 11H82V12H81ZM33 12H34V13H33ZM52 12H53V13H52ZM81 12H82V13H81ZM21 13H22V14H21ZM26 13H28V14H26ZM30 13H31V14H30ZM81 13H82V14H81ZM109 13H110V14H109ZM111 13H112V14H111ZM113 13H114V14H113ZM17 14H18V15H17ZM24 14H25V15H24ZM27 14H28V15H27ZM16 15H17V16H16ZM22 15H23V16H22ZM22 16H24V17H22ZM15 17H16V18H15ZM15 18H16V19H15ZM12 20H13V21H12ZM20 26H21V27H20ZM19 27H21V28H19ZM19 28H21V29H19ZM18 29H21V30H18ZM82 31H83V32H82ZM87 32H88V33H87ZM25 33H39V34H25ZM89 33H119V34H89ZM85 36H86V37H85ZM14 37H15V38H14ZM41 37H42V38H41ZM48 38H49V39H48ZM46 39H47V40H46Z"/><path fill="#88f0f8" fill-opacity="1.000" d="M49 11H53V12H49ZM97 11H99V12H97ZM100 11H101V12H100ZM34 12H35V13H34ZM40 12H43V13H40ZM49 12H52V13H49ZM84 12H85V13H84ZM86 12H89V13H86ZM101 12H102V13H101ZM33 13H34V14H33ZM35 13H38V14H35ZM39 13H41V14H39ZM52 13H53V14H52ZM87 13H88V14H87ZM100 13H102V14H100ZM108 13H109V14H108ZM28 14H41V15H28ZM42 14H47V15H42ZM50 14H51V15H50ZM52 14H53V15H52ZM83 14H86V15H83ZM87 14H91V15H87ZM98 14H119V15H98ZM24 15H40V16H24ZM42 15H48V16H42ZM52 15H53V16H52ZM82 15H86V16H82ZM88 15H119V16H88ZM16 16H17V17H16ZM24 16H40V17H24ZM42 16H48V17H42ZM52 16H53V17H52ZM82 16H86V17H82ZM88 16H120V17H88ZM16 17H17V18H16ZM18 17H20V18H18ZM24 17H40V18H24ZM42 17H48V18H42ZM52 17H53V18H52ZM82 17H86V18H82ZM88 17H120V18H88ZM16 18H20V19H16ZM24 18H40V19H24ZM42 18H48V19H42ZM52 18H53V19H52ZM82 18H86V19H82ZM88 18H120V19H88ZM16 19H20V20H16ZM25 19H40V20H25ZM42 19H48V20H42ZM52 19H53V20H52ZM82 19H86V20H82ZM88 19H120V20H88ZM16 20H20V21H16ZM24 20H40V21H24ZM42 20H48V21H42ZM52 20H53V21H52ZM82 20H86V21H82ZM88 20H120V21H88ZM15 21H20V22H15ZM23 21H40V22H23ZM42 21H48V22H42ZM52 21H53V22H52ZM82 21H86V22H82ZM88 21H120V22H88ZM14 22H20V23H14ZM22 22H40V23H22ZM42 22H48V23H42ZM52 22H53V23H52ZM82 22H86V23H82ZM88 22H120V23H88ZM16 23H17V24H16ZM18 23H19V24H18ZM21 23H40V24H21ZM42 23H48V24H42ZM52 23H53V24H52ZM82 23H86V24H82ZM88 23H120V24H88ZM16 24H17V25H16ZM21 24H23V25H21ZM24 24H40V25H24ZM42 24H48V25H42ZM52 24H53V25H52ZM82 24H86V25H82ZM88 24H120V25H88ZM15 25H16V26H15ZM21 25H40V26H21ZM42 25H48V26H42ZM52 25H53V26H52ZM82 25H86V26H82ZM88 25H120V26H88ZM15 26H16V27H15ZM21 26H40V27H21ZM42 26H48V27H42ZM52 26H53V27H52ZM82 26H86V27H82ZM88 26H120V27H88ZM15 27H16V28H15ZM21 27H22V28H21ZM25 27H40V28H25ZM42 27H48V28H42ZM52 27H53V28H52ZM82 27H86V28H82ZM88 27H119V28H88ZM15 28H16V29H15ZM25 28H40V29H25ZM42 28H48V29H42ZM52 28H53V29H52ZM82 28H86V29H82ZM88 28H119V29H88ZM14 29H16V30H14ZM26 29H27V30H26ZM28 29H29V30H28ZM30 29H31V30H30ZM32 29H33V30H32ZM34 29H35V30H34ZM36 29H37V30H36ZM38 29H39V30H38ZM42 29H47V30H42ZM52 29H53V30H52ZM83 29H86V30H83ZM90 29H91V30H90ZM92 29H93V30H92ZM94 29H95V30H94ZM96 29H97V30H96ZM98 29H99V30H98ZM100 29H101V30H100ZM102 29H103V30H102ZM104 29H105V30H104ZM106 29H107V30H106ZM108 29H109V30H108ZM110 29H111V30H110ZM112 29H113V30H112ZM114 29H115V30H114ZM116 29H117V30H116ZM118 29H119V30H118ZM12 30H13V31H12ZM16 30H21V31H16ZM26 30H27V31H26ZM28 30H29V31H28ZM30 30H31V31H30ZM32 30H33V31H32ZM34 30H35V31H34ZM36 30H37V31H36ZM38 30H39V31H38ZM42 30H46V31H42ZM83 30H84V31H83ZM85 30H86V31H85ZM90 30H91V31H90ZM92 30H93V31H92ZM94 30H95V31H94ZM96 30H97V31H96ZM98 30H99V31H98ZM100 30H101V31H100ZM102 30H103V31H102ZM104 30H105V31H104ZM106 30H107V31H106ZM108 30H109V31H108ZM110 30H111V31H110ZM112 30H113V31H112ZM114 30H115V31H114ZM116 30H117V31H116ZM118 30H119V31H118ZM13 31H14V32H13ZM16 31H17V32H16ZM18 31H20V32H18ZM42 31H44V32H42ZM45 31H46V32H45ZM51 31H53V32H51ZM83 31H84V32H83ZM86 31H87V32H86ZM13 32H14V33H13ZM15 32H16V33H15ZM25 32H39V33H25ZM41 32H44V33H41ZM46 32H48V33H46ZM88 32H120V33H88ZM24 33H25V34H24ZM39 33H48V34H39ZM87 33H89V34H87ZM119 33H120V34H119ZM14 34H15V35H14ZM19 34H22V35H19ZM23 34H25V35H23ZM40 34H42V35H40ZM44 34H49V35H44ZM119 34H120V35H119ZM14 35H15V36H14ZM19 35H21V36H19ZM24 35H25V36H24ZM26 35H27V36H26ZM28 35H29V36H28ZM30 35H31V36H30ZM32 35H33V36H32ZM34 35H35V36H34ZM36 35H37V36H36ZM38 35H42V36H38ZM46 35H48V36H46ZM49 35H50V36H49ZM90 35H91V36H90ZM92 35H93V36H92ZM94 35H95V36H94ZM96 35H97V36H96ZM98 35H99V36H98ZM100 35H101V36H100ZM102 35H103V36H102ZM104 35H105V36H104ZM106 35H107V36H106ZM108 35H109V36H108ZM110 35H111V36H110ZM112 35H113V36H112ZM114 35H115V36H114ZM116 35H117V36H116ZM118 35H119V36H118ZM13 36H14V37H13ZM20 36H21V37H20ZM23 36H40V37H23ZM41 36H43V37H41ZM46 36H48V37H46ZM88 36H120V37H88ZM20 37H41V38H20ZM42 37H43V38H42ZM48 37H49V38H48ZM89 37H120V38H89Z"/><path fill="#88f0ff" fill-opacity="1.000" d="M37 12H39V13H37ZM14 23H16V24H14ZM14 24H16V25H14ZM14 25H15V26H14ZM14 26H15V27H14ZM14 27H15V28H14ZM14 28H15V29H14ZM15 33H16V34H15Z"/><path fill="#88f8f0" fill-opacity="1.000" d="M37 10H38V11H37ZM39 10H40V11H39ZM82 10H84V11H82ZM86 10H87V11H86ZM22 13H24V14H22ZM21 14H22V15H21ZM25 14H27V15H25ZM11 22H12V23H11ZM11 25H12V26H11ZM18 25H20V26H18ZM11 26H12V27H11ZM18 26H20V27H18ZM11 27H12V28H11ZM18 27H19V28H18ZM11 28H12V29H11ZM18 28H19V29H18ZM11 29H12V30H11ZM11 34H12V35H11ZM52 34H53V35H52ZM18 38H20V39H18ZM40 38H43V39H40Z"/><path fill="#88f8f8" fill-opacity="1.000" d="M40 11H49V12H40ZM84 11H86V12H84ZM88 11H96V12H88ZM35 12H36V13H35ZM96 12H97V13H96ZM99 12H100V13H99ZM41 13H48V14H41ZM50 13H52V14H50ZM82 13H83V14H82ZM88 13H96V14H88ZM97 13H98V14H97ZM102 13H103V14H102ZM18 14H21V15H18ZM41 14H42V15H41ZM47 14H49V15H47ZM51 14H52V15H51ZM82 14H83V15H82ZM86 14H87V15H86ZM91 14H98V15H91ZM21 15H22V16H21ZM40 15H42V16H40ZM48 15H49V16H48ZM50 15H52V16H50ZM86 15H87V16H86ZM18 16H20V17H18ZM40 16H42V17H40ZM48 16H49V17H48ZM50 16H52V17H50ZM86 16H87V17H86ZM17 17H18V18H17ZM22 17H24V18H22ZM40 17H42V18H40ZM48 17H49V18H48ZM50 17H52V18H50ZM86 17H87V18H86ZM40 18H42V19H40ZM48 18H49V19H48ZM50 18H52V19H50ZM86 18H87V19H86ZM24 19H25V20H24ZM40 19H42V20H40ZM48 19H49V20H48ZM50 19H52V20H50ZM86 19H87V20H86ZM23 20H24V21H23ZM40 20H42V21H40ZM48 20H49V21H48ZM50 20H52V21H50ZM86 20H87V21H86ZM22 21H23V22H22ZM40 21H42V22H40ZM48 21H49V22H48ZM50 21H52V22H50ZM86 21H87V22H86ZM21 22H22V23H21ZM40 22H42V23H40ZM48 22H49V23H48ZM50 22H52V23H50ZM86 22H87V23H86ZM17 23H18V24H17ZM19 23H21V24H19ZM40 23H42V24H40ZM48 23H49V24H48ZM50 23H52V24H50ZM86 23H87V24H86ZM18 24H21V25H18ZM40 24H42V25H40ZM48 24H49V25H48ZM50 24H52V25H50ZM86 24H87V25H86ZM20 25H21V26H20ZM40 25H42V26H40ZM48 25H49V26H48ZM50 25H52V26H50ZM86 25H87V26H86ZM40 26H42V27H40ZM48 26H49V27H48ZM50 26H52V27H50ZM86 26H87V27H86ZM22 27H23V28H22ZM24 27H25V28H24ZM40 27H42V28H40ZM48 27H49V28H48ZM50 27H52V28H50ZM86 27H87V28H86ZM119 27H120V28H119ZM21 28H22V29H21ZM40 28H42V29H40ZM48 28H49V29H48ZM50 28H52V29H50ZM86 28H87V29H86ZM119 28H120V29H119ZM21 29H22V30H21ZM25 29H26V30H25ZM27 29H28V30H27ZM29 29H30V30H29ZM31 29H32V30H31ZM33 29H34V30H33ZM35 29H36V30H35ZM37 29H38V30H37ZM39 29H40V30H39ZM41 29H42V30H41ZM50 29H52V30H50ZM86 29H87V30H86ZM88 29H90V30H88ZM91 29H92V30H91ZM93 29H94V30H93ZM95 29H96V30H95ZM97 29H98V30H97ZM99 29H100V30H99ZM101 29H102V30H101ZM103 29H104V30H103ZM105 29H106V30H105ZM107 29H108V30H107ZM109 29H110V30H109ZM111 29H112V30H111ZM113 29H114V30H113ZM115 29H116V30H115ZM117 29H118V30H117ZM21 30H22V31H21ZM84 30H85V31H84ZM86 30H87V31H86ZM12 31H13V32H12ZM17 31H18V32H17ZM20 31H21V32H20ZM24 31H39V32H24ZM46 31H47V32H46ZM84 31H86V32H84ZM87 31H120V32H87ZM19 32H20V33H19ZM24 32H25V33H24ZM39 32H41V33H39ZM85 32H86V33H85ZM19 33H24V34H19ZM48 33H49V34H48ZM52 33H53V34H52ZM85 33H86V34H85ZM13 34H14V35H13ZM18 34H19V35H18ZM25 34H40V35H25ZM42 34H43V35H42ZM83 34H84V35H83ZM88 34H119V35H88ZM12 35H13V36H12ZM18 35H19V36H18ZM25 35H26V36H25ZM27 35H28V36H27ZM29 35H30V36H29ZM31 35H32V36H31ZM33 35H34V36H33ZM35 35H36V36H35ZM37 35H38V36H37ZM42 35H43V36H42ZM86 35H90V36H86ZM91 35H92V36H91ZM93 35H94V36H93ZM95 35H96V36H95ZM97 35H98V36H97ZM99 35H100V36H99ZM101 35H102V36H101ZM103 35H104V36H103ZM105 35H106V36H105ZM107 35H108V36H107ZM109 35H110V36H109ZM111 35H112V36H111ZM113 35H114V36H113ZM115 35H116V36H115ZM117 35H118V36H117ZM119 35H120V36H119ZM14 36H16V37H14ZM19 36H20V37H19ZM15 37H16V38H15ZM43 37H44V38H43ZM47 37H48V38H47ZM88 37H89V38H88ZM16 38H18V39H16ZM20 38H40V39H20ZM43 38H45V39H43ZM87 38H120V39H87Z"/><path fill="#88f8ff" fill-opacity="1.000" d="M36 12H37V13H36ZM97 12H98V13H97ZM34 13H35V14H34ZM83 13H84V14H83ZM99 13H100V14H99ZM13 24H14V25H13ZM13 25H14V26H13ZM13 26H14V27H13ZM13 27H14V28H13ZM13 28H14V29H13ZM13 29H14V30H13ZM50 31H51V32H50ZM13 33H15V34H13ZM15 34H16V35H15Z"/><path fill="#88fff8" fill-opacity="1.000" d="M11 30H12V31H11ZM11 33H12V34H11ZM51 34H52V35H51Z"/><path fill="#88ffff" fill-opacity="1.000" d="M83 32H84V33H83ZM49 33H50V34H49Z"/><path fill="#90b0b8" fill-opacity="1.000" d="M9 20H10V21H9Z"/><path fill="#90c0c0" fill-opacity="1.000" d="M12 17H13V18H12Z"/><path fill="#90c8c8" fill-opacity="1.000" d="M11 18H12V19H11Z"/><path fill="#90c8d0" fill-opacity="1.000" d="M81 35H82V36H81Z"/><path fill="#90d0d0" fill-opacity="1.000" d="M55 34H56V35H55ZM54 35H55V36H54Z"/><path fill="#90d0d8" fill-opacity="1.000" d="M31 11H32V12H31ZM104 11H105V12H104Z"/><path fill="#90d8e0" fill-opacity="1.000" d="M119 13H120V14H119ZM15 14H16V15H15Z"/><path fill="#90e8e0" fill-opacity="1.000" d="M10 21H11V22H10Z"/><path fill="#90e8e8" fill-opacity="1.000" d="M21 12H22V13H21ZM11 20H12V21H11ZM81 32H82V33H81ZM52 35H53V36H52Z"/><path fill="#90e8f0" fill-opacity="1.000" d="M101 10H102V11H101Z"/><path fill="#90e8f8" fill-opacity="1.000" d="M53 30H54V31H53Z"/><path fill="#90f0e8" fill-opacity="1.000" d="M34 10H35V11H34ZM10 27H11V28H10ZM10 29H11V30H10ZM10 35H11V36H10ZM83 35H84V36H83Z"/><path fill="#90f0f0" fill-opacity="1.000" d="M40 10H51V11H40ZM52 10H53V11H52ZM81 10H82V11H81ZM85 10H86V11H85ZM88 10H97V11H88ZM99 10H100V11H99ZM28 13H30V14H28ZM114 13H115V14H114ZM116 13H118V14H116ZM16 14H17V15H16ZM22 14H24V15H22ZM81 14H82V15H81ZM119 14H120V15H119ZM15 15H16V16H15ZM23 15H24V16H23ZM54 15H55V16H54ZM81 15H82V16H81ZM119 15H120V16H119ZM54 16H55V17H54ZM81 16H82V17H81ZM54 17H55V18H54ZM81 17H82V18H81ZM14 18H15V19H14ZM54 18H55V19H54ZM81 18H82V19H81ZM54 19H55V20H54ZM81 19H82V20H81ZM54 20H55V21H54ZM81 20H82V21H81ZM54 21H55V22H54ZM81 21H82V22H81ZM54 22H55V23H54ZM81 22H82V23H81ZM10 23H11V24H10ZM54 23H55V24H54ZM81 23H82V24H81ZM10 24H11V25H10ZM54 24H55V25H54ZM81 24H82V25H81ZM10 25H11V26H10ZM54 25H55V26H54ZM81 25H82V26H81ZM10 26H11V27H10ZM54 26H55V27H54ZM81 26H82V27H81ZM54 27H55V28H54ZM81 27H82V28H81ZM54 28H55V29H54ZM81 28H82V29H81ZM81 29H82V30H81ZM10 30H11V31H10ZM10 31H11V32H10ZM10 32H11V33H10ZM54 33H55V34H54ZM10 34H11V35H10ZM11 36H12V37H11ZM50 36H51V37H50ZM84 36H85V37H84ZM12 37H14V38H12ZM49 37H50V38H49ZM14 38H15V39H14ZM49 38H50V39H49ZM86 38H87V39H86ZM16 39H46V40H16ZM47 39H48V40H47ZM88 39H120V40H88Z"/><path fill="#90f0f8" fill-opacity="1.000" d="M98 10H99V11H98ZM53 11H55V12H53ZM102 11H103V12H102ZM32 12H33V13H32ZM53 12H55V13H53ZM85 12H86V13H85ZM103 12H104V13H103ZM32 13H33V14H32ZM53 13H55V14H53ZM85 13H87V14H85ZM104 13H107V14H104ZM110 13H111V14H110ZM53 14H55V15H53ZM53 15H54V16H53ZM53 16H54V17H53ZM53 17H54V18H53ZM53 18H54V19H53ZM53 19H54V20H53ZM53 20H54V21H53ZM53 21H54V22H53ZM53 22H54V23H53ZM53 23H54V24H53ZM23 24H24V25H23ZM53 24H54V25H53ZM53 25H54V26H53ZM53 26H54V27H53ZM53 27H54V28H53ZM53 28H54V29H53ZM53 29H55V30H53ZM82 29H83V30H82ZM14 30H15V31H14ZM52 30H53V31H52ZM82 30H83V31H82ZM44 31H45V32H44ZM53 31H55V32H53ZM44 32H46V33H44ZM22 34H23V35H22ZM21 35H24V36H21ZM21 36H23V37H21ZM40 36H41V37H40ZM49 36H50V37H49Z"/><path fill="#90f0ff" fill-opacity="1.000" d="M84 13H85V14H84ZM15 30H16V31H15ZM14 31H16V32H14ZM14 32H15V33H14Z"/><path fill="#90f8f0" fill-opacity="1.000" d="M34 11H35V12H34ZM19 13H20V14H19Z"/><path fill="#90f8f8" fill-opacity="1.000" d="M97 10H98V11H97ZM101 11H102V12H101ZM20 13H21V14H20ZM31 13H32V14H31ZM103 13H104V14H103ZM107 13H108V14H107ZM112 13H113V14H112ZM115 13H116V14H115ZM14 19H15V20H14ZM13 30H14V31H13ZM51 30H52V31H51ZM82 32H83V33H82ZM86 32H87V33H86ZM50 35H51V36H50ZM15 38H16V39H15Z"/><path fill="#90f8ff" fill-opacity="1.000" d="M39 12H40V13H39ZM100 12H101V13H100ZM52 32H54V33H52ZM86 33H87V34H86ZM87 34H88V35H87ZM48 36H49V37H48Z"/><path fill="#90fff8" fill-opacity="1.000" d="M38 10H39V11H38ZM11 21H12V22H11ZM12 36H13V37H12Z"/><path fill="#90ffff" fill-opacity="1.000" d="M13 20H14V21H13ZM15 20H16V21H15ZM84 34H85V35H84ZM85 35H86V36H85Z"/><path fill="#98c8d0" fill-opacity="1.000" d="M53 36H54V37H53Z"/><path fill="#98d0d0" fill-opacity="1.000" d="M9 30H10V31H9ZM9 33H10V34H9Z"/><path fill="#98d0d8" fill-opacity="1.000" d="M14 15H15V16H14ZM9 34H10V35H9Z"/><path fill="#98d8d8" fill-opacity="1.000" d="M16 13H17V14H16ZM9 24H10V25H9ZM9 25H10V26H9Z"/><path fill="#98e0e0" fill-opacity="1.000" d="M103 10H104V11H103ZM19 12H20V13H19ZM55 33H56V34H55Z"/><path fill="#98e0e8" fill-opacity="1.000" d="M55 12H56V13H55ZM55 13H56V14H55ZM55 14H56V15H55ZM55 15H56V16H55ZM55 16H56V17H55ZM55 17H56V18H55ZM55 18H56V19H55ZM55 19H56V20H55ZM55 20H56V21H55ZM55 21H56V22H55ZM55 22H56V23H55ZM55 23H56V24H55ZM55 24H56V25H55ZM55 25H56V26H55ZM55 26H56V27H55ZM55 27H56V28H55ZM55 28H56V29H55ZM55 29H56V30H55ZM55 30H56V31H55ZM80 30H81V31H80ZM55 31H56V32H55Z"/><path fill="#98e8e8" fill-opacity="1.000" d="M33 10H34V11H33ZM55 11H56V12H55ZM80 11H81V12H80ZM80 12H81V13H80ZM114 12H115V13H114ZM80 13H81V14H80ZM80 14H81V15H80ZM80 15H81V16H80ZM80 16H81V17H80ZM80 17H81V18H80ZM80 18H81V19H80ZM80 19H81V20H80ZM80 20H81V21H80ZM80 21H81V22H80ZM80 22H81V23H80ZM80 23H81V24H80ZM80 24H81V25H80ZM80 25H81V26H80ZM80 26H81V27H80ZM80 27H81V28H80ZM80 28H81V29H80ZM80 29H81V30H80ZM11 37H12V38H11Z"/><path fill="#98e8f0" fill-opacity="1.000" d="M15 39H16V40H15Z"/><path fill="#98f0e8" fill-opacity="1.000" d="M10 28H11V29H10Z"/><path fill="#98f0f0" fill-opacity="1.000" d="M51 10H52V11H51ZM53 10H55V11H53ZM102 10H103V11H102ZM103 11H104V12H103ZM23 12H24V13H23ZM31 12H32V13H31ZM112 12H113V13H112ZM17 13H19V14H17ZM118 13H119V14H118ZM14 17H15V18H14ZM13 18H14V19H13ZM12 19H13V20H12ZM10 22H11V23H10ZM81 31H82V32H81ZM13 38H14V39H13ZM48 39H49V40H48ZM87 39H88V40H87Z"/><path fill="#98f0f8" fill-opacity="1.000" d="M100 10H101V11H100ZM104 12H105V13H104ZM15 16H16V17H15ZM85 37H86V38H85Z"/><path fill="#98f0ff" fill-opacity="1.000" d="M54 30H55V31H54Z"/><path fill="#98f8f0" fill-opacity="1.000" d="M10 33H11V34H10ZM82 34H83V35H82Z"/><path fill="#98f8f8" fill-opacity="1.000" d="M35 10H36V11H35ZM33 11H34V12H33ZM53 34H54V35H53Z"/><path fill="#98f8ff" fill-opacity="1.000" d="M38 13H39V14H38Z"/><path fill="#a0c8d0" fill-opacity="1.000" d="M13 16H14V17H13ZM9 36H10V37H9Z"/><path fill="#a0d0d0" fill-opacity="1.000" d="M9 27H10V28H9ZM9 28H10V29H9ZM80 34H81V35H80Z"/><path fill="#a0d0d8" fill-opacity="1.000" d="M9 22H10V23H9ZM9 23H10V24H9ZM9 29H10V30H9ZM82 36H83V37H82ZM52 37H53V38H52ZM49 40H50V41H49Z"/><path fill="#a0d8d8" fill-opacity="1.000" d="M9 26H10V27H9ZM9 32H10V33H9ZM51 38H52V39H51Z"/><path fill="#a0d8e0" fill-opacity="1.000" d="M9 31H10V32H9ZM83 37H84V38H83ZM84 38H85V39H84ZM85 39H86V40H85ZM15 40H16V41H15Z"/><path fill="#a0e0e0" fill-opacity="1.000" d="M55 10H56V11H55ZM118 12H119V13H118ZM11 38H12V39H11ZM50 39H51V40H50ZM16 40H43V41H16ZM44 40H46V41H44ZM47 40H48V41H47ZM88 40H120V41H88Z"/><path fill="#a0e0e8" fill-opacity="1.000" d="M100 9H101V10H100ZM102 9H103V10H102ZM32 10H33V11H32ZM46 40H47V41H46Z"/><path fill="#a0e8e8" fill-opacity="1.000" d="M35 9H36V10H35ZM38 9H39V10H38ZM97 9H98V10H97ZM80 10H81V11H80ZM80 31H81V32H80ZM80 32H81V33H80ZM51 37H52V38H51ZM13 39H14V40H13Z"/><path fill="#a0e8f0" fill-opacity="1.000" d="M116 12H117V13H116ZM14 16H15V17H14ZM55 32H56V33H55ZM84 37H85V38H84Z"/><path fill="#a0f0e8" fill-opacity="1.000" d="M27 12H28V13H27ZM12 18H13V19H12Z"/><path fill="#a0f0f0" fill-opacity="1.000" d="M37 9H38V10H37ZM39 9H40V10H39ZM86 9H88V10H86ZM32 11H33V12H32ZM28 12H29V13H28ZM11 19H12V20H11ZM81 33H82V34H81ZM81 34H82V35H81ZM53 35H54V36H53ZM82 35H83V36H82ZM10 36H11V37H10ZM51 36H52V37H51ZM50 37H51V38H50ZM12 38H13V39H12ZM50 38H51V39H50ZM14 39H15V40H14ZM49 39H50V40H49ZM86 39H87V40H86Z"/><path fill="#a0f0f8" fill-opacity="1.000" d="M82 9H84V10H82ZM30 12H31V13H30ZM105 12H106V13H105ZM107 12H109V13H107ZM110 12H111V13H110Z"/><path fill="#a0f8f0" fill-opacity="1.000" d="M24 12H26V13H24ZM54 34H55V35H54Z"/><path fill="#a0f8f8" fill-opacity="1.000" d="M22 12H23V13H22Z"/><path fill="#a0f8ff" fill-opacity="1.000" d="M81 30H82V31H81Z"/><path fill="#a8d0e0" fill-opacity="1.000" d="M86 40H87V41H86Z"/><path fill="#a8d8d8" fill-opacity="1.000" d="M9 21H10V22H9Z"/><path fill="#a8e0e0" fill-opacity="1.000" d="M33 9H34V10H33ZM14 40H15V41H14ZM43 40H44V41H43ZM48 40H49V41H48Z"/><path fill="#a8e0e8" fill-opacity="1.000" d="M17 12H18V13H17ZM10 37H11V38H10ZM12 39H13V40H12ZM13 40H14V41H13ZM87 40H88V41H87Z"/><path fill="#a8e8e8" fill-opacity="1.000" d="M80 33H81V34H80Z"/><path fill="#a8f0f0" fill-opacity="1.000" d="M40 9H53V10H40ZM81 9H82V10H81ZM85 9H86V10H85ZM88 9H97V10H88ZM18 12H19V13H18ZM10 20H11V21H10Z"/><path fill="#a8f0f8" fill-opacity="1.000" d="M84 9H85V10H84ZM109 12H110V13H109ZM83 36H84V37H83ZM85 38H86V39H85Z"/><path fill="#a8f8f0" fill-opacity="1.000" d="M36 9H37V10H36Z"/><path fill="#a8f8f8" fill-opacity="1.000" d="M20 12H21V13H20ZM115 12H116V13H115Z"/><path fill="#a8f8ff" fill-opacity="1.000" d="M106 12H107V13H106ZM111 12H112V13H111ZM113 12H114V13H113Z"/><path fill="#a8fff8" fill-opacity="1.000" d="M26 12H27V13H26Z"/><path fill="#b0e0e8" fill-opacity="1.000" d="M9 35H10V36H9Z"/><path fill="#b0f0f0" fill-opacity="1.000" d="M53 9H54V10H53ZM80 9H81V10H80ZM13 17H14V18H13ZM52 36H53V37H52Z"/><path fill="#b0f0f8" fill-opacity="1.000" d="M54 9H55V10H54ZM98 9H99V10H98ZM117 12H118V13H117Z"/><path fill="#b0f8f8" fill-opacity="1.000" d="M99 9H100V10H99ZM101 9H102V10H101Z"/><path fill="#b0f8ff" fill-opacity="1.000" d="M29 12H30V13H29Z"/><path fill="#b8e8e8" fill-opacity="1.000" d="M55 9H56V10H55Z"/><path fill="#b8f8f8" fill-opacity="1.000" d="M34 9H35V10H34Z"/></svg>