<svg xmlns="http://www.w3.org/2000/svg" width="780" height="76" viewBox="0 0 780 76" shape-rendering="geometricPrecision"><path fill="#000808" fill-opacity="0.063" d="M224 2H225V3H224ZM311 2H312V3H311ZM545 2H546V3H545ZM551 2H552V3H551ZM220 3H221V4H220ZM316 3H317V4H316ZM466 3H467V4H466ZM468 3H469V4H468ZM332 9H333V10H332ZM170 31H171V32H170ZM172 31H173V32H172ZM251 31H252V32H251ZM169 33H170V34H169ZM159 38H160V39H159Z"/><path fill="#000810" fill-opacity="0.063" d="M546 1H547V2H546ZM550 1H551V2H550ZM554 1H555V2H554ZM118 2H119V3H118ZM226 2H227V3H226ZM117 3H118V4H117ZM119 3H120V4H119ZM213 3H214V4H213ZM216 3H217V4H216ZM226 3H227V4H226ZM310 3H311V4H310ZM318 3H319V4H318ZM323 3H324V4H323ZM468 4H469V5H468ZM470 4H471V5H470ZM561 4H562V5H561ZM563 4H564V5H563ZM328 5H329V6H328ZM127 7H141V8H127ZM331 8H332V9H331ZM171 29H172V30H171ZM247 29H248V30H247ZM274 29H275V30H274ZM368 29H369V30H368ZM390 29H391V30H390ZM393 29H394V30H393ZM467 29H468V30H467ZM592 29H593V30H592ZM170 30H171V31H170ZM343 30H344V31H343ZM345 30H346V31H345ZM389 30H390V31H389ZM168 31H169V32H168ZM245 31H246V32H245ZM269 31H270V32H269ZM272 31H273V32H272ZM365 31H366V32H365ZM371 31H372V32H371ZM395 31H396V32H395ZM165 32H166V33H165ZM169 32H170V33H169ZM245 32H246V33H245ZM275 32H277V33H275ZM341 32H342V33H341ZM345 32H346V33H345ZM349 32H350V33H349ZM366 32H367V33H366ZM390 32H391V33H390ZM394 32H395V33H394ZM396 32H397V33H396ZM465 32H466V33H465ZM467 32H468V33H467ZM592 32H593V33H592ZM596 32H597V33H596ZM172 33H173V34H172ZM242 33H243V34H242ZM246 33H247V34H246ZM270 33H271V34H270ZM343 33H344V34H343ZM345 33H346V34H345ZM348 33H349V34H348ZM367 33H368V34H367ZM370 33H371V34H370ZM397 33H398V34H397ZM464 33H465V34H464ZM466 33H467V34H466ZM469 33H470V34H469ZM597 33H598V34H597ZM245 34H246V35H245ZM276 34H277V35H276ZM344 34H345V35H344ZM392 34H393V35H392ZM394 34H395V35H394ZM465 34H468V35H465ZM499 34H500V35H499ZM596 34H597V35H596ZM341 35H342V36H341ZM345 35H346V36H345ZM373 35H374V36H373ZM569 35H570V36H569ZM598 35H599V36H598ZM374 36H375V37H374ZM568 36H569V37H568ZM381 38H382V39H381ZM157 40H158V41H157ZM160 40H161V41H160ZM381 40H382V41H381ZM158 41H159V42H158ZM160 41H161V42H160ZM158 42H159V43H158ZM161 42H162V43H161Z"/><path fill="#000818" fill-opacity="0.063" d="M318 1H319V2H318ZM121 2H122V3H121ZM459 2H460V3H459ZM660 2H661V3H660ZM456 3H457V4H456ZM326 4H327V5H326ZM454 4H455V5H454ZM451 5H452V6H451ZM471 38H472V39H471Z"/><path fill="#001010" fill-opacity="0.063" d="M309 2H310V3H309ZM467 2H468V3H467ZM223 3H224V4H223ZM215 4H216V5H215ZM221 4H223V5H221ZM228 4H229V5H228ZM562 5H563V6H562ZM172 30H173V31H172ZM466 30H467V31H466ZM171 31H172V32H171ZM242 31H243V32H242ZM244 31H245V32H244ZM276 31H277V32H276ZM467 31H468V32H467ZM593 31H594V32H593ZM171 32H172V33H171ZM173 32H174V33H173ZM243 32H244V33H243ZM253 33H254V34H253ZM275 33H276V34H275ZM393 33H394V34H393ZM595 33H596V34H595ZM169 34H171V35H169ZM342 34H343V35H342ZM350 34H351V35H350ZM369 34H370V35H369ZM597 34H598V35H597ZM342 36H343V37H342ZM278 37H279V38H278ZM502 37H503V38H502ZM277 38H278V39H277ZM161 39H162V40H161ZM162 40H163V41H162ZM161 41H162V42H161ZM377 42H378V43H377ZM385 44H386V45H385ZM159 45H160V46H159Z"/><path fill="#001018" fill-opacity="0.063" d="M119 0H120V1H119ZM227 0H228V1H227ZM321 2H322V3H321ZM558 2H559V3H558ZM243 30H244V31H243ZM396 34H397V35H396ZM469 36H470V37H469ZM246 38H247V39H246ZM501 38H502V39H501ZM375 40H376V41H375ZM388 40H389V41H388Z"/><path fill="#001020" fill-opacity="0.063" d="M317 0H318V1H317ZM462 0H463V1H462ZM553 0H554V1H553ZM662 0H663V1H662ZM461 1H462V2H461Z"/><path fill="#080808" fill-opacity="0.063" d="M230 2H231V3H230ZM232 2H233V3H232ZM229 3H230V4H229ZM231 3H232V4H231ZM546 3H551V4H546ZM141 8H142V9H141Z"/><path fill="#080810" fill-opacity="0.063" d="M231 1H232V2H231ZM547 1H550V2H547ZM227 2H229V3H227ZM469 5H470V6H469ZM332 7H333V8H332ZM126 8H127V9H126ZM333 8H334V9H333ZM127 9H141V10H127ZM248 30H249V31H248ZM270 30H271V31H270ZM367 30H368V31H367ZM370 30H371V31H370ZM392 30H393V31H392ZM468 30H470V31H468ZM591 30H592V31H591ZM166 31H167V32H166ZM249 31H250V32H249ZM271 31H272V32H271ZM346 31H347V32H346ZM468 31H469V32H468ZM470 31H471V32H470ZM591 31H592V32H591ZM469 32H470V33H469ZM277 33H278V34H277ZM382 37H383V38H382Z"/><path fill="#080818" fill-opacity="0.063" d="M562 3H563V4H562ZM243 35H244V36H243Z"/><path fill="#081010" fill-opacity="0.063" d="M317 2H318V3H317ZM225 3H226V4H225ZM469 3H470V4H469ZM118 4H119V5H118ZM214 4H215V5H214ZM227 4H228V5H227ZM317 4H318V5H317ZM467 4H468V5H467ZM366 30H367V31H366ZM369 30H370V31H369ZM593 30H594V31H593ZM347 31H348V32H347ZM466 31H467V32H466ZM344 32H345V33H344ZM346 32H347V33H346ZM370 32H371V33H370ZM243 33H244V34H243ZM342 33H343V34H342ZM347 33H348V34H347ZM349 33H350V34H349ZM368 34H369V35H368ZM160 39H161V40H160ZM384 39H385V40H384ZM382 41H383V42H382ZM158 44H159V45H158Z"/><path fill="#081018" fill-opacity="0.063" d="M310 1H311V2H310ZM241 32H242V33H241ZM270 32H271V33H270ZM273 32H274V33H273ZM395 33H396V34H395ZM244 34H245V35H244ZM348 34H349V35H348ZM463 34H464V35H463ZM468 34H469V35H468ZM168 35H169V36H168ZM343 35H344V36H343Z"/><path fill="#101018" fill-opacity="0.063" d="M169 30H170V31H169ZM248 31H249V32H248ZM348 31H349V32H348Z"/><path fill="#000010" fill-opacity="0.125" d="M244 35H245V36H244Z"/><path fill="#000808" fill-opacity="0.125" d="M369 31H370V32H369ZM167 32H168V33H167ZM367 35H368V36H367ZM370 35H371V36H370Z"/><path fill="#000810" fill-opacity="0.125" d="M555 1H557V2H555ZM458 2H459V3H458ZM273 30H274V31H273ZM392 31H393V32H392ZM368 32H369V33H368ZM166 33H167V34H166ZM167 34H168V35H167ZM171 34H172V35H171ZM173 34H238V35H173ZM470 34H471V35H470ZM472 34H474V35H472ZM347 35H348V36H347ZM350 35H353V36H350ZM368 35H369V36H368ZM372 35H373V36H372ZM393 35H394V36H393ZM570 35H571V36H570ZM572 35H576V36H572ZM580 35H593V36H580ZM594 35H596V36H594ZM468 36H469V37H468ZM373 38H374V39H373ZM246 39H248V40H246ZM254 39H257V40H254ZM261 39H266V40H261ZM268 39H272V40H268ZM277 39H278V40H277ZM279 39H295V40H279ZM296 39H297V40H296ZM298 39H299V40H298ZM300 39H301V40H300ZM302 39H303V40H302ZM304 39H305V40H304ZM306 39H307V40H306ZM308 39H309V40H308ZM310 39H311V40H310ZM312 39H313V40H312ZM314 39H315V40H314ZM316 39H317V40H316ZM318 39H319V40H318ZM320 39H321V40H320ZM322 39H323V40H322ZM324 39H325V40H324ZM326 39H327V40H326ZM328 39H329V40H328ZM330 39H331V40H330ZM332 39H333V40H332ZM373 39H374V40H373ZM478 39H494V40H478ZM503 39H565V40H503ZM159 41H160V42H159ZM159 43H160V44H159ZM160 44H161V45H160ZM377 44H378V45H377ZM160 45H161V46H160ZM377 45H378V46H377ZM160 46H161V47H160ZM377 46H378V47H377ZM160 47H161V48H160ZM377 47H378V48H377ZM160 48H161V49H160ZM377 48H378V49H377ZM160 49H161V50H160ZM377 49H378V50H377ZM160 50H161V51H160ZM377 50H378V51H377ZM160 51H161V52H160ZM377 51H378V52H377ZM160 52H161V53H160ZM377 52H378V53H377ZM160 53H161V54H160ZM377 53H378V54H377ZM160 54H161V55H160ZM377 54H378V55H377ZM160 55H161V56H160ZM377 55H378V56H377ZM160 56H161V57H160ZM377 56H378V57H377ZM160 57H161V58H160ZM377 57H378V58H377ZM160 58H161V59H160ZM377 58H378V59H377ZM160 59H161V60H160ZM377 59H378V60H377ZM160 60H161V61H160ZM377 60H378V61H377ZM160 61H161V62H160ZM377 61H378V62H377ZM160 62H161V63H160ZM377 62H378V63H377ZM160 63H161V64H160ZM377 63H378V64H377ZM160 64H161V65H160ZM377 64H378V65H377ZM160 65H161V66H160ZM377 65H378V66H377ZM160 66H161V67H160ZM377 66H378V67H377ZM160 67H161V68H160ZM377 67H378V68H377ZM160 68H161V69H160ZM377 68H378V69H377ZM160 69H161V70H160ZM377 69H378V70H377ZM377 70H378V71H377ZM160 71H161V72H160ZM377 71H378V72H377ZM160 72H161V73H160ZM377 72H378V73H377ZM160 73H161V74H160ZM377 73H378V74H377ZM160 74H161V75H160ZM377 74H378V75H377ZM160 75H161V76H160ZM377 75H378V76H377Z"/><path fill="#000818" fill-opacity="0.125" d="M122 2H123V3H122ZM324 3H325V4H324ZM453 4H454V5H453ZM450 5H451V6H450ZM497 38H499V39H497ZM471 39H478V40H471ZM496 39H503V40H496Z"/><path fill="#001008" fill-opacity="0.125" d="M252 32H253V33H252Z"/><path fill="#001010" fill-opacity="0.125" d="M250 33H251V34H250ZM172 34H173V35H172ZM238 34H239V35H238ZM246 34H247V35H246ZM474 34H477V35H474ZM478 34H494V35H478ZM496 34H497V35H496ZM348 35H349V36H348ZM353 35H366V36H353ZM369 35H370V36H369ZM576 35H580V36H576ZM593 35H594V36H593ZM247 38H254V39H247ZM256 38H263V39H256ZM266 38H270V39H266ZM273 38H277V39H273ZM478 38H493V39H478ZM248 39H254V40H248ZM257 39H258V40H257ZM260 39H261V40H260ZM266 39H268V40H266ZM272 39H277V40H272ZM278 39H279V40H278ZM295 39H296V40H295ZM297 39H298V40H297ZM299 39H300V40H299ZM301 39H302V40H301ZM303 39H304V40H303ZM305 39H306V40H305ZM307 39H308V40H307ZM309 39H310V40H309ZM311 39H312V40H311ZM313 39H314V40H313ZM315 39H316V40H315ZM317 39H318V40H317ZM319 39H320V40H319ZM321 39H322V40H321ZM323 39H324V40H323ZM325 39H326V40H325ZM327 39H328V40H327ZM329 39H330V40H329ZM331 39H332V40H331ZM333 39H341V40H333ZM565 39H566V40H565ZM377 43H378V44H377ZM160 70H161V71H160Z"/><path fill="#001018" fill-opacity="0.125" d="M224 1H225V2H224ZM226 1H227V2H226ZM123 2H126V3H123ZM127 2H128V3H127ZM129 2H130V3H129ZM131 2H132V3H131ZM133 2H179V3H133ZM182 2H213V3H182ZM216 2H221V3H216ZM575 2H576V3H575ZM577 2H578V3H577ZM579 2H580V3H579ZM581 2H582V3H581ZM583 2H584V3H583ZM585 2H586V3H585ZM587 2H588V3H587ZM589 2H590V3H589ZM591 2H592V3H591ZM593 2H594V3H593ZM595 2H598V3H595ZM599 2H600V3H599ZM601 2H602V3H601ZM603 2H604V3H603ZM605 2H606V3H605ZM607 2H608V3H607ZM609 2H610V3H609ZM611 2H612V3H611ZM613 2H614V3H613ZM615 2H616V3H615ZM617 2H618V3H617ZM619 2H654V3H619ZM657 2H660V3H657ZM329 5H333V6H329ZM334 5H352V6H334ZM353 5H354V6H353ZM355 5H356V6H355ZM357 5H390V6H357ZM393 5H394V6H393ZM399 5H402V6H399ZM405 5H406V6H405ZM407 5H414V6H407ZM415 5H418V6H415ZM419 5H430V6H419ZM431 5H438V6H431ZM439 5H446V6H439ZM447 5H450V6H447ZM253 34H269V35H253ZM272 34H273V35H272ZM274 34H276V35H274ZM471 34H472V35H471ZM477 34H478V35H477ZM494 34H496V35H494ZM497 34H499V35H497ZM346 35H347V36H346ZM366 35H367V36H366ZM396 35H397V36H396ZM463 35H464V36H463ZM468 35H470V36H468ZM571 35H572V36H571ZM596 35H597V36H596ZM501 36H502V37H501ZM597 36H598V37H597ZM244 37H245V38H244ZM597 37H598V38H597ZM254 38H256V39H254ZM263 38H266V39H263ZM270 38H273V39H270ZM472 38H478V39H472ZM493 38H497V39H493ZM499 38H501V39H499ZM597 38H598V39H597ZM494 39H495V40H494ZM597 39H598V40H597ZM374 40H375V41H374ZM597 40H598V41H597ZM597 41H598V42H597ZM597 42H598V43H597ZM160 43H161V44H160ZM597 43H598V44H597ZM597 44H598V45H597ZM597 45H598V46H597ZM597 46H598V47H597ZM597 47H598V48H597ZM597 48H598V49H597ZM597 49H598V50H597ZM597 50H598V51H597ZM597 51H598V52H597ZM597 52H598V53H597ZM597 53H598V54H597ZM597 54H598V55H597ZM597 55H598V56H597ZM597 56H598V57H597ZM597 57H598V58H597ZM597 58H598V59H597ZM597 59H598V60H597ZM597 60H598V61H597ZM597 61H598V62H597ZM597 62H598V63H597ZM597 63H598V64H597ZM597 64H598V65H597ZM597 65H598V66H597ZM597 66H598V67H597ZM597 67H598V68H597ZM597 68H598V69H597ZM597 69H598V70H597ZM597 70H598V71H597ZM597 71H598V72H597ZM597 72H598V73H597ZM597 73H598V74H597ZM597 74H598V75H597ZM597 75H598V76H597Z"/><path fill="#001020" fill-opacity="0.125" d="M319 1H320V2H319ZM126 2H127V3H126ZM128 2H129V3H128ZM130 2H131V3H130ZM132 2H133V3H132ZM179 2H182V3H179ZM559 2H575V3H559ZM576 2H577V3H576ZM578 2H579V3H578ZM580 2H581V3H580ZM582 2H583V3H582ZM584 2H585V3H584ZM586 2H587V3H586ZM588 2H589V3H588ZM590 2H591V3H590ZM592 2H593V3H592ZM594 2H595V3H594ZM598 2H599V3H598ZM600 2H601V3H600ZM602 2H603V3H602ZM604 2H605V3H604ZM606 2H607V3H606ZM608 2H609V3H608ZM610 2H611V3H610ZM612 2H613V3H612ZM614 2H615V3H614ZM616 2H617V3H616ZM618 2H619V3H618ZM654 2H657V3H654ZM352 5H353V6H352ZM354 5H355V6H354ZM356 5H357V6H356ZM390 5H391V6H390ZM392 5H393V6H392ZM402 5H403V6H402ZM404 5H405V6H404ZM406 5H407V6H406ZM414 5H415V6H414ZM418 5H419V6H418ZM430 5H431V6H430ZM438 5H439V6H438ZM244 36H245V37H244ZM277 36H278V37H277ZM495 39H496V40H495Z"/><path fill="#001818" fill-opacity="0.125" d="M391 5H392V6H391ZM395 5H396V6H395ZM397 5H398V6H397ZM403 5H404V6H403Z"/><path fill="#001820" fill-opacity="0.125" d="M333 5H334V6H333ZM394 5H395V6H394ZM396 5H397V6H396ZM398 5H399V6H398ZM446 5H447V6H446ZM273 34H274V35H273ZM399 35H461V36H399Z"/><path fill="#080810" fill-opacity="0.125" d="M394 30H395V31H394ZM342 31H343V32H342ZM344 31H345V32H344ZM367 31H368V32H367ZM168 32H169V33H168ZM242 34H243V35H242Z"/><path fill="#081010" fill-opacity="0.125" d="M275 30H276V31H275ZM391 30H392V31H391ZM390 31H391V32H390ZM393 31H394V32H393ZM250 32H251V33H250ZM343 32H344V33H343ZM369 32H370V33H369ZM392 32H393V33H392ZM371 35H372V36H371ZM383 38H384V39H383ZM158 39H159V40H158ZM259 39H260V40H259ZM159 40H160V41H159ZM383 40H384V41H383Z"/><path fill="#081018" fill-opacity="0.125" d="M246 30H247V31H246ZM391 33H392V34H391ZM462 35H463V36H462ZM258 39H259V40H258Z"/><path fill="#081020" fill-opacity="0.125" d="M397 35H399V36H397ZM461 35H462V36H461ZM385 46H386V47H385ZM385 47H386V48H385ZM385 48H386V49H385ZM385 49H386V50H385ZM385 50H386V51H385ZM385 51H386V52H385ZM385 52H386V53H385ZM385 53H386V54H385ZM385 54H386V55H385ZM385 55H386V56H385ZM385 56H386V57H385ZM385 57H386V58H385ZM385 58H386V59H385ZM385 59H386V60H385ZM385 60H386V61H385ZM385 61H386V62H385ZM385 62H386V63H385ZM385 63H386V64H385ZM385 64H386V65H385ZM385 65H386V66H385ZM385 66H386V67H385ZM385 67H386V68H385ZM385 68H386V69H385ZM385 69H386V70H385ZM385 70H386V71H385ZM385 71H386V72H385ZM385 72H386V73H385ZM385 73H386V74H385ZM385 74H386V75H385ZM385 75H386V76H385Z"/><path fill="#081820" fill-opacity="0.125" d="M385 45H386V46H385Z"/><path fill="#100810" fill-opacity="0.125" d="M247 32H248V33H247Z"/><path fill="#101010" fill-opacity="0.125" d="M247 31H248V32H247Z"/><path fill="#101018" fill-opacity="0.125" d="M240 33H241V34H240Z"/><path fill="#000010" fill-opacity="0.188" d="M469 38H470V39H469Z"/><path fill="#000810" fill-opacity="0.188" d="M239 34H240V35H239ZM349 35H350V36H349ZM243 36H244V37H243ZM344 36H345V37H344ZM392 36H393V37H392ZM343 37H344V38H343ZM391 37H392V38H391ZM342 38H343V39H342ZM567 38H568V39H567ZM389 39H390V40H389ZM566 39H567V40H566ZM161 43H162V44H161ZM386 43H387V44H386Z"/><path fill="#000818" fill-opacity="0.188" d="M120 1H121V2H120ZM460 1H461V2H460ZM327 4H328V5H327ZM452 4H453V5H452ZM470 39H471V40H470Z"/><path fill="#001010" fill-opacity="0.188" d="M222 2H223V3H222ZM247 34H248V35H247ZM341 39H342V40H341Z"/><path fill="#001018" fill-opacity="0.188" d="M223 1H224V2H223ZM225 1H226V2H225ZM557 1H558V2H557ZM213 2H214V3H213ZM221 2H222V3H221ZM322 2H323V3H322ZM325 3H326V4H325ZM455 3H456V4H455ZM250 34H251V35H250ZM269 34H270V35H269ZM271 34H272V35H271ZM276 35H277V36H276ZM395 35H396V36H395ZM464 35H466V36H464ZM167 37H168V38H167ZM245 37H246V38H245ZM468 37H469V38H468ZM470 37H471V38H470ZM568 37H569V38H568ZM166 38H167V39H166ZM244 38H245V39H244ZM390 38H391V39H390ZM165 39H166V40H165ZM245 39H246V40H245ZM164 40H165V41H164ZM373 40H374V41H373ZM163 41H164V42H163ZM162 42H163V43H162ZM387 42H388V43H387Z"/><path fill="#001020" fill-opacity="0.188" d="M320 1H321V2H320ZM661 1H662V2H661ZM388 41H389V42H388Z"/><path fill="#001820" fill-opacity="0.188" d="M457 2H458V3H457ZM500 35H501V36H500Z"/><path fill="#081010" fill-opacity="0.188" d="M382 39H383V40H382Z"/><path fill="#081018" fill-opacity="0.188" d="M274 31H275V32H274ZM169 35H170V36H169ZM168 36H169V37H168ZM373 37H374V38H373ZM376 41H377V42H376Z"/><path fill="#101018" fill-opacity="0.188" d="M242 35H243V36H242Z"/><path fill="#000808" fill-opacity="0.251" d="M248 33H249V34H248Z"/><path fill="#001010" fill-opacity="0.251" d="M251 33H252V34H251Z"/><path fill="#001018" fill-opacity="0.251" d="M215 2H216V3H215ZM249 34H250V35H249Z"/><path fill="#001020" fill-opacity="0.251" d="M252 34H253V35H252Z"/><path fill="#080810" fill-opacity="0.251" d="M241 34H242V35H241Z"/><path fill="#000000" fill-opacity="1.000" d="M169 31H170V32H169ZM249 32H250V33H249Z"/><path fill="#000008" fill-opacity="1.000" d="M214 3H215V4H214ZM467 3H468V4H467ZM469 4H470V5H469ZM247 30H248V31H247ZM274 30H275V31H274ZM368 30H369V31H368ZM246 31H247V32H246ZM270 31H271V32H270ZM345 31H346V32H345ZM366 31H367V32H366ZM368 31H369V32H368ZM391 31H392V32H391ZM469 31H470V32H469ZM172 32H173V33H172ZM246 32H247V33H246ZM342 32H343V33H342ZM347 32H349V33H347ZM241 33H242V34H241ZM276 33H277V34H276ZM344 33H345V34H344ZM392 33H393V34H392ZM396 33H397V34H396ZM168 34H169V35H168ZM240 34H241V35H240ZM243 34H244V35H243ZM464 34H465V35H464ZM469 34H470V35H469ZM467 35H468V36H467ZM373 36H374V37H373ZM383 39H384V40H383ZM161 40H162V41H161ZM160 42H161V43H160ZM159 44H160V45H159Z"/><path fill="#000808" fill-opacity="1.000" d="M225 2H226V3H225ZM310 2H311V3H310ZM550 2H551V3H550ZM118 3H119V4H118ZM215 3H216V4H215ZM221 3H223V4H221ZM227 3H229V4H227ZM317 3H318V4H317ZM562 4H563V5H562ZM171 30H172V31H171ZM390 30H391V31H390ZM393 30H394V31H393ZM467 30H468V31H467ZM592 30H593V31H592ZM243 31H244V32H243ZM273 31H274V32H273ZM275 31H276V32H275ZM343 31H344V32H343ZM370 31H371V32H370ZM394 31H395V32H394ZM592 31H593V32H592ZM166 32H167V33H166ZM251 32H252V33H251ZM391 32H392V33H391ZM466 32H467V33H466ZM167 33H168V34H167ZM249 33H250V34H249ZM368 33H370V34H368ZM596 33H597V34H596ZM349 34H350V35H349ZM342 35H343V36H342ZM597 35H598V36H597ZM382 38H383V39H382ZM159 39H160V40H159ZM158 40H159V41H158ZM382 40H383V41H382Z"/><path fill="#000818" fill-opacity="1.000" d="M571 42H572V43H571Z"/><path fill="#001008" fill-opacity="1.000" d="M252 33H253V34H252Z"/><path fill="#001018" fill-opacity="1.000" d="M171 37H172V38H171ZM347 38H348V39H347ZM394 38H395V39H394ZM345 39H347V40H345ZM393 39H394V40H393ZM571 39H572V40H571ZM572 40H573V41H572ZM347 41H348V42H347ZM391 41H392V42H391ZM568 41H569V42H568ZM170 42H171V43H170ZM390 42H391V43H390ZM242 43H243V44H242ZM347 43H348V44H347ZM349 43H350V44H349ZM395 43H396V44H395ZM568 43H569V44H568ZM243 44H244V45H243ZM345 44H346V45H345ZM572 44H573V45H572ZM163 45H164V46H163ZM172 45H173V46H172ZM241 45H242V46H241ZM244 45H245V46H244Z"/><path fill="#001020" fill-opacity="1.000" d="M173 37H174V38H173ZM169 38H171V39H169ZM173 38H174V39H173ZM349 38H350V39H349ZM396 38H397V39H396ZM572 38H573V39H572ZM168 39H169V40H168ZM237 39H239V40H237ZM241 39H242V40H241ZM348 39H349V40H348ZM397 39H398V40H397ZM461 39H464V40H461ZM466 39H467V40H466ZM169 40H170V41H169ZM171 40H173V41H171ZM239 40H240V41H239ZM344 40H345V41H344ZM348 40H349V41H348ZM392 40H393V41H392ZM394 40H396V41H394ZM466 40H467V41H466ZM569 40H571V41H569ZM166 41H167V42H166ZM171 41H172V42H171ZM173 41H174V42H173ZM237 41H238V42H237ZM241 41H242V42H241ZM244 41H245V42H244ZM262 41H264V42H262ZM345 41H346V42H345ZM348 41H350V42H348ZM366 41H367V42H366ZM368 41H369V42H368ZM394 41H395V42H394ZM396 41H397V42H396ZM430 41H461V42H430ZM467 41H468V42H467ZM571 41H572V42H571ZM575 41H590V42H575ZM172 42H174V43H172ZM238 42H239V43H238ZM241 42H242V43H241ZM346 42H347V43H346ZM366 42H367V43H366ZM393 42H394V43H393ZM396 42H398V43H396ZM468 42H469V43H468ZM573 42H575V43H573ZM589 42H590V43H589ZM165 43H167V44H165ZM169 43H170V44H169ZM171 43H173V44H171ZM206 43H214V44H206ZM241 43H242V44H241ZM245 43H247V44H245ZM254 43H256V44H254ZM258 43H261V44H258ZM262 43H272V44H262ZM273 43H277V44H273ZM343 43H346V44H343ZM365 43H366V44H365ZM389 43H390V44H389ZM391 43H393V44H391ZM397 43H399V44H397ZM430 43H438V44H430ZM446 43H454V44H446ZM462 43H463V44H462ZM464 43H466V44H464ZM468 43H474V44H468ZM493 43H494V44H493ZM569 43H571V44H569ZM575 43H590V44H575ZM164 44H166V45H164ZM170 44H172V45H170ZM173 44H174V45H173ZM238 44H239V45H238ZM240 44H241V45H240ZM244 44H245V45H244ZM342 44H343V45H342ZM348 44H349V45H348ZM368 44H369V45H368ZM393 44H395V45H393ZM398 44H406V45H398ZM566 44H567V45H566ZM169 45H170V46H169ZM239 45H240V46H239ZM256 45H259V46H256ZM262 45H264V46H262ZM266 45H268V46H266ZM294 45H302V46H294ZM334 45H343V46H334ZM344 45H345V46H344ZM346 45H348V46H346ZM349 45H350V46H349ZM368 45H369V46H368ZM390 45H391V46H390ZM395 45H397V46H395ZM398 45H414V46H398ZM422 45H446V46H422ZM454 45H464V46H454ZM469 45H472V46H469ZM494 45H496V46H494ZM497 45H498V46H497ZM499 45H500V46H499ZM502 45H504V46H502ZM510 45H512V46H510ZM513 45H514V46H513ZM515 45H516V46H515ZM517 45H518V46H517ZM519 45H520V46H519ZM521 45H522V46H521ZM523 45H524V46H523ZM525 45H526V46H525ZM527 45H528V46H527ZM529 45H530V46H529ZM531 45H532V46H531ZM533 45H534V46H533ZM535 45H536V46H535ZM537 45H538V46H537ZM539 45H540V46H539ZM541 45H542V46H541ZM543 45H544V46H543ZM545 45H546V46H545ZM547 45H548V46H547ZM549 45H550V46H549ZM551 45H552V46H551ZM553 45H554V46H553ZM555 45H556V46H555ZM557 45H558V46H557ZM567 45H568V46H567ZM569 45H571V46H569ZM573 45H574V46H573ZM164 46H165V47H164ZM369 46H370V47H369ZM542 46H543V47H542ZM544 46H545V47H544ZM546 46H547V47H546ZM548 46H549V47H548ZM550 46H551V47H550ZM552 46H553V47H552ZM554 46H555V47H554ZM556 46H557V47H556ZM164 47H165V48H164ZM369 47H370V48H369ZM392 47H394V48H392ZM398 47H422V48H398ZM502 47H508V48H502ZM510 47H526V48H510ZM529 47H534V48H529ZM164 48H165V49H164ZM369 48H370V49H369ZM164 49H165V50H164ZM190 49H214V50H190ZM262 49H294V50H262ZM369 49H370V50H369ZM390 49H398V50H390ZM518 49H534V50H518ZM164 50H165V51H164ZM369 50H370V51H369ZM164 51H165V52H164ZM214 51H262V52H214ZM277 51H286V52H277ZM369 51H370V52H369ZM392 51H396V52H392ZM398 51H406V52H398ZM518 51H534V52H518ZM164 52H165V53H164ZM369 52H370V53H369ZM164 53H165V54H164ZM369 53H370V54H369ZM164 54H165V55H164ZM186 54H190V55H186ZM369 54H370V55H369ZM164 55H165V56H164ZM369 55H370V56H369ZM164 56H165V57H164ZM174 56H182V57H174ZM187 56H190V57H187ZM206 56H214V57H206ZM262 56H270V57H262ZM286 56H292V57H286ZM294 56H318V57H294ZM369 56H370V57H369ZM369 57H370V58H369ZM369 58H370V59H369ZM392 58H446V59H392ZM478 58H534V59H478ZM369 59H370V60H369ZM291 60H294V61H291ZM309 60H310V61H309ZM369 60H370V61H369ZM392 60H406V61H392ZM420 60H430V61H420ZM446 60H478V61H446ZM494 60H505V61H494ZM510 60H534V61H510ZM369 61H370V62H369ZM164 62H165V63H164ZM316 62H318V63H316ZM329 62H334V63H329ZM369 62H370V63H369ZM550 62H558V63H550ZM369 63H370V64H369ZM316 64H318V65H316ZM328 64H334V65H328ZM369 64H370V65H369ZM550 64H558V65H550ZM369 65H370V66H369ZM328 66H334V67H328ZM369 66H370V67H369ZM550 66H558V67H550ZM369 67H370V68H369ZM318 68H334V69H318ZM369 68H370V69H369ZM542 68H558V69H542ZM369 69H370V70H369ZM317 70H318V71H317ZM369 70H370V71H369ZM392 70H398V71H392ZM446 70H470V71H446ZM486 70H494V71H486ZM502 70H510V71H502ZM526 70H542V71H526ZM369 71H370V72H369ZM369 72H370V73H369ZM392 72H414V73H392ZM422 72H430V73H422ZM438 72H446V73H438ZM470 72H486V73H470ZM494 72H502V73H494ZM510 72H542V73H510ZM550 72H558V73H550ZM369 73H370V74H369ZM369 74H370V75H369ZM534 74H558V75H534ZM369 75H370V76H369Z"/><path fill="#001028" fill-opacity="1.000" d="M250 43H253V44H250Z"/><path fill="#001818" fill-opacity="1.000" d="M239 37H240V38H239ZM465 37H466V38H465Z"/><path fill="#001820" fill-opacity="1.000" d="M120 0H121V1H120ZM121 1H122V2H121ZM222 1H223V2H222ZM214 2H215V3H214ZM323 2H324V3H323ZM454 3H455V4H454ZM328 4H329V5H328ZM248 34H249V35H248ZM251 34H252V35H251ZM270 34H271V35H270ZM275 35H276V36H275ZM174 37H238V38H174ZM240 37H241V38H240ZM395 37H465V38H395ZM171 38H172V39H171ZM174 38H242V39H174ZM350 38H367V39H350ZM368 38H371V39H368ZM395 38H396V39H395ZM398 38H462V39H398ZM463 38H464V39H463ZM573 38H596V39H573ZM171 39H237V40H171ZM242 39H243V40H242ZM350 39H367V40H350ZM368 39H369V40H368ZM395 39H396V40H395ZM398 39H461V40H398ZM569 39H570V40H569ZM574 39H596V40H574ZM170 40H171V41H170ZM174 40H206V41H174ZM350 40H371V41H350ZM397 40H430V41H397ZM462 40H464V41H462ZM573 40H596V41H573ZM168 41H170V42H168ZM174 41H237V42H174ZM247 41H250V42H247ZM251 41H262V42H251ZM264 41H265V42H264ZM346 41H347V42H346ZM350 41H366V42H350ZM369 41H371V42H369ZM393 41H394V42H393ZM398 41H406V42H398ZM414 41H430V42H414ZM461 41H467V42H461ZM468 41H469V42H468ZM470 41H486V42H470ZM567 41H568V42H567ZM569 41H571V42H569ZM572 41H575V42H572ZM590 41H596V42H590ZM167 42H169V43H167ZM174 42H206V43H174ZM237 42H238V43H237ZM239 42H240V43H239ZM276 42H281V43H276ZM286 42H288V43H286ZM289 42H290V43H289ZM291 42H292V43H291ZM293 42H294V43H293ZM295 42H296V43H295ZM297 42H298V43H297ZM299 42H300V43H299ZM301 42H302V43H301ZM303 42H304V43H303ZM305 42H306V43H305ZM307 42H308V43H307ZM309 42H310V43H309ZM311 42H312V43H311ZM313 42H314V43H313ZM315 42H316V43H315ZM317 42H318V43H317ZM319 42H320V43H319ZM321 42H322V43H321ZM323 42H324V43H323ZM325 42H326V43H325ZM327 42H328V43H327ZM329 42H330V43H329ZM331 42H332V43H331ZM337 42H338V43H337ZM339 42H340V43H339ZM341 42H344V43H341ZM350 42H366V43H350ZM368 42H371V43H368ZM392 42H393V43H392ZM398 42H430V43H398ZM461 42H463V43H461ZM464 42H465V43H464ZM469 42H470V43H469ZM494 42H568V43H494ZM590 42H596V43H590ZM168 43H169V44H168ZM174 43H206V44H174ZM214 43H238V44H214ZM239 43H240V44H239ZM247 43H248V44H247ZM277 43H282V44H277ZM285 43H342V44H285ZM350 43H365V44H350ZM370 43H371V44H370ZM399 43H430V44H399ZM438 43H446V44H438ZM454 43H462V44H454ZM463 43H464V44H463ZM466 43H468V44H466ZM474 43H478V44H474ZM494 43H567V44H494ZM572 43H575V44H572ZM590 43H596V44H590ZM168 44H169V45H168ZM174 44H182V45H174ZM190 44H198V45H190ZM254 44H255V45H254ZM262 44H263V45H262ZM266 44H268V45H266ZM301 44H335V45H301ZM347 44H348V45H347ZM350 44H366V45H350ZM370 44H371V45H370ZM388 44H392V45H388ZM491 44H494V45H491ZM503 44H511V45H503ZM557 44H566V45H557ZM567 44H568V45H567ZM571 44H572V45H571ZM573 44H596V45H573ZM165 45H169V46H165ZM174 45H238V46H174ZM242 45H243V46H242ZM251 45H254V46H251ZM255 45H256V46H255ZM259 45H262V46H259ZM264 45H266V46H264ZM268 45H277V46H268ZM283 45H294V46H283ZM302 45H334V46H302ZM343 45H344V46H343ZM350 45H366V46H350ZM369 45H371V46H369ZM387 45H389V46H387ZM391 45H392V46H391ZM393 45H395V46H393ZM472 45H494V46H472ZM504 45H510V46H504ZM558 45H566V46H558ZM574 45H596V46H574ZM165 46H181V47H165ZM294 46H368V47H294ZM370 46H371V47H370ZM387 46H396V47H387ZM529 46H530V47H529ZM531 46H532V47H531ZM533 46H534V47H533ZM535 46H536V47H535ZM537 46H538V47H537ZM539 46H540V47H539ZM541 46H542V47H541ZM543 46H544V47H543ZM545 46H546V47H545ZM547 46H548V47H547ZM549 46H550V47H549ZM551 46H552V47H551ZM553 46H554V47H553ZM555 46H556V47H555ZM557 46H596V47H557ZM165 47H168V48H165ZM170 47H180V48H170ZM182 47H368V48H182ZM370 47H371V48H370ZM387 47H388V48H387ZM389 47H392V48H389ZM394 47H398V48H394ZM422 47H502V48H422ZM508 47H510V48H508ZM526 47H529V48H526ZM534 47H596V48H534ZM165 48H168V49H165ZM170 48H179V49H170ZM182 48H190V49H182ZM294 48H368V49H294ZM370 48H371V49H370ZM387 48H388V49H387ZM389 48H390V49H389ZM534 48H596V49H534ZM165 49H168V50H165ZM170 49H178V50H170ZM182 49H190V50H182ZM214 49H262V50H214ZM294 49H368V50H294ZM370 49H371V50H370ZM387 49H388V50H387ZM389 49H390V50H389ZM398 49H518V50H398ZM534 49H596V50H534ZM165 50H168V51H165ZM170 50H178V51H170ZM182 50H190V51H182ZM294 50H368V51H294ZM370 50H371V51H370ZM387 50H388V51H387ZM389 50H390V51H389ZM534 50H596V51H534ZM165 51H168V52H165ZM170 51H177V52H170ZM190 51H214V52H190ZM262 51H277V52H262ZM286 51H368V52H286ZM370 51H371V52H370ZM387 51H388V52H387ZM389 51H392V52H389ZM396 51H398V52H396ZM406 51H518V52H406ZM534 51H596V52H534ZM165 52H168V53H165ZM170 52H176V53H170ZM294 52H368V53H294ZM370 52H371V53H370ZM387 52H388V53H387ZM389 52H392V53H389ZM534 52H596V53H534ZM165 53H168V54H165ZM170 53H175V54H170ZM190 53H198V54H190ZM286 53H368V54H286ZM370 53H371V54H370ZM387 53H388V54H387ZM389 53H596V54H389ZM165 54H186V55H165ZM190 54H368V55H190ZM370 54H371V55H370ZM387 54H388V55H387ZM389 54H392V55H389ZM534 54H550V55H534ZM592 54H596V55H592ZM165 55H166V56H165ZM318 55H368V56H318ZM370 55H371V56H370ZM387 55H388V56H387ZM389 55H414V56H389ZM422 55H430V56H422ZM510 55H534V56H510ZM542 55H590V56H542ZM592 55H596V56H592ZM166 56H174V57H166ZM182 56H187V57H182ZM190 56H206V57H190ZM214 56H262V57H214ZM270 56H286V57H270ZM292 56H294V57H292ZM318 56H368V57H318ZM370 56H371V57H370ZM387 56H388V57H387ZM389 56H419V57H389ZM422 56H430V57H422ZM446 56H478V57H446ZM510 56H534V57H510ZM542 56H596V57H542ZM164 57H165V58H164ZM326 57H368V58H326ZM370 57H371V58H370ZM387 57H388V58H387ZM389 57H390V58H389ZM534 57H558V58H534ZM590 57H596V58H590ZM164 58H165V59H164ZM166 58H318V59H166ZM326 58H368V59H326ZM370 58H371V59H370ZM387 58H388V59H387ZM389 58H392V59H389ZM446 58H478V59H446ZM534 58H558V59H534ZM590 58H596V59H590ZM164 59H165V60H164ZM318 59H368V60H318ZM370 59H371V60H370ZM387 59H388V60H387ZM389 59H390V60H389ZM534 59H596V60H534ZM164 60H165V61H164ZM166 60H291V61H166ZM294 60H309V61H294ZM310 60H368V61H310ZM370 60H371V61H370ZM387 60H388V61H387ZM389 60H392V61H389ZM406 60H420V61H406ZM430 60H446V61H430ZM478 60H494V61H478ZM505 60H510V61H505ZM550 60H596V61H550ZM164 61H165V62H164ZM326 61H368V62H326ZM370 61H371V62H370ZM387 61H388V62H387ZM389 61H390V62H389ZM558 61H596V62H558ZM165 62H316V63H165ZM318 62H329V63H318ZM334 62H368V63H334ZM370 62H371V63H370ZM387 62H389V63H387ZM390 62H550V63H390ZM558 62H596V63H558ZM164 63H165V64H164ZM334 63H368V64H334ZM370 63H371V64H370ZM387 63H389V64H387ZM558 63H596V64H558ZM164 64H165V65H164ZM166 64H316V65H166ZM318 64H328V65H318ZM334 64H368V65H334ZM370 64H371V65H370ZM387 64H388V65H387ZM390 64H550V65H390ZM558 64H596V65H558ZM164 65H165V66H164ZM334 65H368V66H334ZM370 65H371V66H370ZM387 65H388V66H387ZM558 65H596V66H558ZM164 66H165V67H164ZM166 66H328V67H166ZM334 66H368V67H334ZM370 66H371V67H370ZM390 66H550V67H390ZM558 66H596V67H558ZM164 67H165V68H164ZM334 67H368V68H334ZM370 67H371V68H370ZM558 67H596V68H558ZM164 68H165V69H164ZM166 68H318V69H166ZM334 68H368V69H334ZM370 68H371V69H370ZM390 68H542V69H390ZM558 68H596V69H558ZM334 69H368V70H334ZM370 69H371V70H370ZM558 69H596V70H558ZM164 70H317V71H164ZM318 70H368V71H318ZM370 70H371V71H370ZM387 70H389V71H387ZM390 70H392V71H390ZM398 70H446V71H398ZM470 70H486V71H470ZM494 70H502V71H494ZM510 70H526V71H510ZM542 70H596V71H542ZM164 71H165V72H164ZM334 71H368V72H334ZM370 71H371V72H370ZM387 71H389V72H387ZM558 71H596V72H558ZM164 72H165V73H164ZM166 72H168V73H166ZM170 72H190V73H170ZM222 72H230V73H222ZM246 72H254V73H246ZM278 72H326V73H278ZM334 72H368V73H334ZM370 72H371V73H370ZM387 72H389V73H387ZM390 72H392V73H390ZM414 72H422V73H414ZM430 72H438V73H430ZM446 72H470V73H446ZM486 72H494V73H486ZM502 72H510V73H502ZM542 72H550V73H542ZM558 72H596V73H558ZM164 73H165V74H164ZM326 73H368V74H326ZM370 73H371V74H370ZM387 73H389V74H387ZM558 73H596V74H558ZM164 74H165V75H164ZM326 74H368V75H326ZM370 74H371V75H370ZM387 74H389V75H387ZM390 74H534V75H390ZM558 74H596V75H558ZM164 75H165V76H164ZM166 75H168V76H166ZM170 75H190V76H170ZM222 75H254V76H222ZM278 75H326V76H278ZM334 75H368V76H334ZM370 75H371V76H370ZM387 75H389V76H387ZM558 75H596V76H558Z"/><path fill="#001828" fill-opacity="1.000" d="M226 0H227V1H226ZM318 0H319V1H318ZM573 39H574V40H573ZM461 40H462V41H461ZM465 40H466V41H465ZM406 41H414V42H406ZM486 41H490V42H486ZM493 41H494V42H493ZM247 42H252V43H247ZM281 42H286V43H281ZM463 42H464V43H463ZM465 42H466V43H465ZM467 42H468V43H467ZM476 42H477V43H476ZM248 43H250V44H248ZM282 43H285V44H282ZM571 43H572V44H571ZM270 44H271V45H270ZM294 44H301V45H294ZM335 44H338V45H335ZM476 44H477V45H476ZM392 45H393V46H392ZM388 47H389V48H388ZM388 48H389V49H388ZM388 49H389V50H388ZM388 50H389V51H388ZM388 51H389V52H388ZM388 52H389V53H388ZM388 53H389V54H388ZM388 54H389V55H388ZM388 55H389V56H388ZM165 56H166V57H165ZM388 56H389V57H388ZM165 57H166V58H165ZM388 57H389V58H388ZM165 58H166V59H165ZM388 58H389V59H388ZM388 59H389V60H388ZM388 60H389V61H388ZM388 61H389V62H388ZM389 62H390V63H389ZM165 63H166V64H165ZM389 63H390V64H389ZM388 64H390V65H388ZM388 65H390V66H388ZM388 66H390V67H388ZM388 67H390V68H388ZM388 68H390V69H388ZM164 69H165V70H164ZM388 69H390V70H388ZM389 70H390V71H389ZM165 71H166V72H165ZM389 71H390V72H389ZM165 72H166V73H165ZM389 72H390V73H389ZM172 73H174V74H172ZM389 73H390V74H389ZM172 74H174V75H172ZM389 74H390V75H389ZM165 75H166V76H165ZM389 75H390V76H389Z"/><path fill="#002020" fill-opacity="1.000" d="M238 37H239V38H238ZM507 41H508V42H507Z"/><path fill="#002028" fill-opacity="1.000" d="M554 0H555V1H554ZM558 1H559V2H558ZM276 36H277V37H276ZM490 41H493V42H490ZM494 41H498V42H494Z"/><path fill="#002030" fill-opacity="1.000" d="M321 1H322V2H321ZM459 1H460V2H459Z"/><path fill="#002830" fill-opacity="1.000" d="M326 3H327V4H326ZM245 36H246V37H245Z"/><path fill="#003038" fill-opacity="1.000" d="M559 1H560V2H559Z"/><path fill="#080008" fill-opacity="1.000" d="M248 32H249V33H248Z"/><path fill="#080808" fill-opacity="1.000" d="M231 2H232V3H231ZM546 2H550V3H546ZM127 8H141V9H127ZM332 8H333V9H332Z"/><path fill="#081020" fill-opacity="1.000" d="M465 38H466V39H465ZM465 39H466V40H465ZM239 41H241V42H239ZM242 41H243V42H242ZM243 42H245V43H243ZM575 42H589V43H575ZM366 43H367V44H366ZM478 43H486V44H478ZM487 43H493V44H487ZM366 44H367V45H366ZM248 45H251V46H248ZM277 45H283V46H277ZM366 45H368V46H366ZM464 45H469V46H464ZM496 45H497V46H496ZM498 45H499V46H498ZM512 45H513V46H512ZM514 45H515V46H514ZM516 45H517V46H516ZM518 45H519V46H518ZM520 45H521V46H520ZM522 45H523V46H522ZM524 45H525V46H524ZM526 45H527V46H526ZM528 45H529V46H528ZM530 45H531V46H530ZM532 45H533V46H532ZM534 45H535V46H534ZM536 45H537V46H536ZM538 45H539V46H538ZM540 45H541V46H540ZM542 45H543V46H542ZM544 45H545V46H544ZM546 45H547V46H546ZM548 45H549V46H548ZM550 45H551V46H550ZM552 45H553V46H552ZM554 45H555V46H554ZM556 45H557V46H556Z"/><path fill="#081028" fill-opacity="1.000" d="M253 43H254V44H253Z"/><path fill="#081820" fill-opacity="1.000" d="M393 36H394V37H393ZM569 36H570V37H569ZM170 37H171V38H170ZM172 37H173V38H172ZM346 38H347V39H346ZM367 38H368V39H367ZM391 38H392V39H391ZM462 38H463V39H462ZM464 38H465V39H464ZM466 38H467V39H466ZM570 38H572V39H570ZM169 39H171V40H169ZM240 39H241V40H240ZM342 39H343V40H342ZM347 39H348V40H347ZM349 39H350V40H349ZM367 39H368V40H367ZM369 39H371V40H369ZM390 39H391V40H390ZM464 39H465V40H464ZM167 40H169V41H167ZM206 40H230V41H206ZM241 40H242V41H241ZM345 40H346V41H345ZM349 40H350V41H349ZM389 40H390V41H389ZM167 41H168V42H167ZM243 41H244V42H243ZM245 41H247V42H245ZM250 41H251V42H250ZM343 41H345V42H343ZM367 41H368V42H367ZM165 42H167V43H165ZM230 42H237V43H230ZM257 42H261V43H257ZM262 42H266V43H262ZM267 42H272V43H267ZM273 42H274V43H273ZM275 42H276V43H275ZM288 42H289V43H288ZM290 42H291V43H290ZM292 42H293V43H292ZM294 42H295V43H294ZM296 42H297V43H296ZM298 42H299V43H298ZM300 42H301V43H300ZM302 42H303V43H302ZM304 42H305V43H304ZM306 42H307V43H306ZM308 42H309V43H308ZM310 42H311V43H310ZM312 42H313V43H312ZM314 42H315V43H314ZM316 42H317V43H316ZM318 42H319V43H318ZM320 42H321V43H320ZM322 42H323V43H322ZM324 42H325V43H324ZM326 42H327V43H326ZM328 42H329V43H328ZM330 42H331V43H330ZM332 42H337V43H332ZM338 42H339V43H338ZM340 42H341V43H340ZM344 42H345V43H344ZM349 42H350V43H349ZM395 42H396V43H395ZM454 42H461V43H454ZM470 42H474V43H470ZM164 43H165V44H164ZM167 43H168V44H167ZM256 43H258V44H256ZM261 43H262V44H261ZM368 43H369V44H368ZM390 43H391V44H390ZM394 43H395V44H394ZM166 44H168V45H166ZM182 44H190V45H182ZM198 44H230V45H198ZM246 44H254V45H246ZM255 44H262V45H255ZM263 44H266V45H263ZM268 44H269V45H268ZM273 44H277V45H273ZM278 44H286V45H278ZM346 44H347V45H346ZM396 44H398V45H396ZM406 44H454V45H406ZM470 44H472V45H470ZM479 44H480V45H479ZM481 44H482V45H481ZM483 44H484V45H483ZM485 44H491V45H485ZM495 44H503V45H495ZM511 44H557V45H511ZM568 44H570V45H568ZM164 45H165V46H164ZM170 45H172V46H170ZM173 45H174V46H173ZM238 45H239V46H238ZM245 45H248V46H245ZM254 45H255V46H254ZM389 45H390V46H389ZM397 45H398V46H397ZM414 45H422V46H414ZM446 45H454V46H446ZM500 45H502V46H500ZM566 45H567V46H566ZM568 45H569V46H568ZM571 45H573V46H571ZM163 46H164V47H163ZM181 46H222V47H181ZM230 46H238V47H230ZM247 46H294V47H247ZM368 46H369V47H368ZM398 46H446V47H398ZM478 46H529V47H478ZM530 46H531V47H530ZM532 46H533V47H532ZM534 46H535V47H534ZM536 46H537V47H536ZM538 46H539V47H538ZM540 46H541V47H540ZM163 47H164V48H163ZM168 47H170V48H168ZM180 47H182V48H180ZM368 47H369V48H368ZM163 48H164V49H163ZM168 48H170V49H168ZM179 48H182V49H179ZM190 48H198V49H190ZM222 48H230V49H222ZM238 48H262V49H238ZM274 48H294V49H274ZM368 48H369V49H368ZM390 48H396V49H390ZM406 48H414V49H406ZM502 48H507V49H502ZM510 48H534V49H510ZM163 49H164V50H163ZM168 49H170V50H168ZM178 49H182V50H178ZM368 49H369V50H368ZM163 50H164V51H163ZM168 50H170V51H168ZM178 50H182V51H178ZM278 50H286V51H278ZM368 50H369V51H368ZM390 50H394V51H390ZM398 50H414V51H398ZM510 50H526V51H510ZM527 50H534V51H527ZM163 51H164V52H163ZM168 51H170V52H168ZM177 51H190V52H177ZM368 51H369V52H368ZM163 52H164V53H163ZM168 52H170V53H168ZM176 52H198V53H176ZM214 52H262V53H214ZM276 52H294V53H276ZM368 52H369V53H368ZM392 52H396V53H392ZM398 52H406V53H398ZM518 52H534V53H518ZM163 53H164V54H163ZM168 53H170V54H168ZM175 53H190V54H175ZM198 53H286V54H198ZM368 53H369V54H368ZM163 54H164V55H163ZM368 54H369V55H368ZM392 54H396V55H392ZM398 54H534V55H398ZM550 54H592V55H550ZM163 55H164V56H163ZM168 55H170V56H168ZM174 55H182V56H174ZM185 55H190V56H185ZM286 55H293V56H286ZM294 55H302V56H294ZM305 55H318V56H305ZM368 55H369V56H368ZM414 55H422V56H414ZM430 55H510V56H430ZM534 55H542V56H534ZM590 55H592V56H590ZM163 56H164V57H163ZM368 56H369V57H368ZM419 56H422V57H419ZM430 56H446V57H430ZM478 56H510V57H478ZM534 56H542V57H534ZM163 57H164V58H163ZM166 57H172V58H166ZM308 57H310V58H308ZM318 57H326V58H318ZM368 57H369V58H368ZM392 57H394V58H392ZM414 57H420V58H414ZM558 57H590V58H558ZM163 58H164V59H163ZM318 58H326V59H318ZM368 58H369V59H368ZM558 58H590V59H558ZM163 59H164V60H163ZM168 59H170V60H168ZM174 59H182V60H174ZM290 59H302V60H290ZM304 59H318V60H304ZM368 59H369V60H368ZM392 59H394V60H392ZM163 60H164V61H163ZM368 60H369V61H368ZM534 60H550V61H534ZM163 61H164V62H163ZM168 61H170V62H168ZM310 61H326V62H310ZM368 61H369V62H368ZM392 61H394V62H392ZM534 61H558V62H534ZM163 62H164V63H163ZM368 62H369V63H368ZM163 63H164V64H163ZM168 63H170V64H168ZM315 63H318V64H315ZM327 63H334V64H327ZM368 63H369V64H368ZM392 63H394V64H392ZM550 63H558V64H550ZM163 64H164V65H163ZM368 64H369V65H368ZM163 65H164V66H163ZM168 65H170V66H168ZM316 65H334V66H316ZM368 65H369V66H368ZM392 65H394V66H392ZM542 65H558V66H542ZM163 66H164V67H163ZM368 66H369V67H368ZM387 66H388V67H387ZM163 67H164V68H163ZM168 67H170V68H168ZM318 67H334V68H318ZM368 67H369V68H368ZM387 67H388V68H387ZM392 67H394V68H392ZM542 67H558V68H542ZM163 68H164V69H163ZM368 68H369V69H368ZM387 68H388V69H387ZM168 69H170V70H168ZM318 69H334V70H318ZM368 69H369V70H368ZM387 69H388V70H387ZM392 69H394V70H392ZM542 69H558V70H542ZM163 70H164V71H163ZM368 70H369V71H368ZM163 71H164V72H163ZM166 71H172V72H166ZM301 71H302V72H301ZM314 71H334V72H314ZM368 71H369V72H368ZM392 71H394V72H392ZM542 71H558V72H542ZM163 72H164V73H163ZM168 72H170V73H168ZM190 72H222V73H190ZM230 72H246V73H230ZM254 72H278V73H254ZM326 72H334V73H326ZM368 72H369V73H368ZM166 73H172V74H166ZM174 73H326V74H174ZM368 73H369V74H368ZM392 73H394V74H392ZM166 74H172V75H166ZM174 74H326V75H174ZM368 74H369V75H368ZM163 75H164V76H163ZM168 75H170V76H168ZM190 75H222V76H190ZM254 75H278V76H254ZM326 75H334V76H326ZM368 75H369V76H368ZM390 75H396V76H390ZM398 75H406V76H398ZM414 75H422V76H414ZM430 75H438V76H430ZM446 75H478V76H446ZM486 75H494V76H486ZM502 75H510V76H502ZM518 75H542V76H518ZM550 75H558V76H550Z"/><path fill="#081828" fill-opacity="1.000" d="M660 1H661V2H660ZM397 38H398V39H397ZM239 39H240V40H239ZM394 39H395V40H394ZM396 39H397V40H396ZM572 39H573V40H572ZM173 40H174V41H173ZM230 40H239V41H230ZM242 40H244V41H242ZM346 40H347V41H346ZM396 40H397V41H396ZM430 40H461V41H430ZM467 40H468V41H467ZM170 41H171V42H170ZM172 41H173V42H172ZM238 41H239V42H238ZM392 41H393V42H392ZM395 41H396V42H395ZM397 41H398V42H397ZM560 41H561V42H560ZM169 42H170V43H169ZM206 42H230V43H206ZM240 42H241V43H240ZM242 42H243V43H242ZM245 42H247V43H245ZM252 42H257V43H252ZM261 42H262V43H261ZM266 42H267V43H266ZM272 42H273V43H272ZM274 42H275V43H274ZM345 42H346V43H345ZM348 42H349V43H348ZM367 42H368V43H367ZM394 42H395V43H394ZM430 42H454V43H430ZM474 42H476V43H474ZM477 42H494V43H477ZM569 42H571V43H569ZM173 43H174V44H173ZM240 43H241V44H240ZM244 43H245V44H244ZM272 43H273V44H272ZM342 43H343V44H342ZM346 43H347V44H346ZM367 43H368V44H367ZM369 43H370V44H369ZM396 43H397V44H396ZM486 43H487V44H486ZM567 43H568V44H567ZM169 44H170V45H169ZM230 44H238V45H230ZM242 44H243V45H242ZM245 44H246V45H245ZM269 44H270V45H269ZM271 44H273V45H271ZM277 44H278V45H277ZM286 44H294V45H286ZM338 44H342V45H338ZM343 44H344V45H343ZM349 44H350V45H349ZM367 44H368V45H367ZM369 44H370V45H369ZM392 44H393V45H392ZM395 44H396V45H395ZM454 44H470V45H454ZM472 44H476V45H472ZM477 44H479V45H477ZM480 44H481V45H480ZM482 44H483V45H482ZM484 44H485V45H484ZM494 44H495V45H494ZM570 44H571V45H570ZM240 45H241V46H240ZM345 45H346V46H345ZM348 45H349V46H348ZM222 46H230V47H222ZM238 46H247V47H238ZM396 46H398V47H396ZM446 46H478V47H446ZM198 48H222V49H198ZM230 48H238V49H230ZM262 48H274V49H262ZM396 48H406V49H396ZM414 48H502V49H414ZM507 48H510V49H507ZM190 50H278V51H190ZM286 50H294V51H286ZM394 50H398V51H394ZM414 50H510V51H414ZM526 50H527V51H526ZM198 52H214V53H198ZM262 52H276V53H262ZM396 52H398V53H396ZM406 52H518V53H406ZM396 54H398V55H396ZM166 55H168V56H166ZM170 55H174V56H170ZM182 55H185V56H182ZM190 55H286V56H190ZM293 55H294V56H293ZM302 55H305V56H302ZM172 57H308V58H172ZM310 57H318V58H310ZM390 57H392V58H390ZM394 57H414V58H394ZM420 57H534V58H420ZM165 59H168V60H165ZM170 59H174V60H170ZM182 59H290V60H182ZM302 59H304V60H302ZM390 59H392V60H390ZM394 59H534V60H394ZM165 60H166V61H165ZM165 61H168V62H165ZM170 61H310V62H170ZM390 61H392V62H390ZM394 61H534V62H394ZM166 63H168V64H166ZM170 63H315V64H170ZM318 63H327V64H318ZM390 63H392V64H390ZM394 63H550V64H394ZM165 64H166V65H165ZM165 65H168V66H165ZM170 65H316V66H170ZM390 65H392V66H390ZM394 65H542V66H394ZM165 66H166V67H165ZM165 67H168V68H165ZM170 67H318V68H170ZM390 67H392V68H390ZM394 67H542V68H394ZM165 68H166V69H165ZM163 69H164V70H163ZM165 69H168V70H165ZM170 69H318V70H170ZM390 69H392V70H390ZM394 69H542V70H394ZM172 71H301V72H172ZM302 71H314V72H302ZM390 71H392V72H390ZM394 71H446V72H394ZM470 71H486V72H470ZM494 71H542V72H494ZM163 73H164V74H163ZM165 73H166V74H165ZM390 73H392V74H390ZM394 73H558V74H394ZM163 74H164V75H163ZM165 74H166V75H165ZM396 75H398V76H396ZM406 75H414V76H406ZM422 75H430V76H422ZM438 75H446V76H438ZM478 75H486V76H478ZM494 75H502V76H494ZM510 75H518V76H510ZM542 75H550V76H542Z"/><path fill="#082020" fill-opacity="1.000" d="M348 38H349V39H348ZM509 41H510V42H509ZM511 41H512V42H511ZM513 41H514V42H513ZM515 41H516V42H515ZM517 41H518V42H517ZM519 41H520V42H519ZM521 41H522V42H521ZM523 41H524V42H523ZM525 41H526V42H525ZM527 41H528V42H527ZM529 41H530V42H529ZM531 41H532V42H531ZM533 41H534V42H533ZM535 41H536V42H535ZM537 41H538V42H537ZM539 41H540V42H539ZM541 41H542V42H541ZM543 41H544V42H543ZM545 41H546V42H545ZM547 41H548V42H547ZM549 41H550V42H549ZM551 41H552V42H551ZM553 41H554V42H553ZM555 41H556V42H555ZM557 41H558V42H557ZM559 41H560V42H559ZM561 41H562V42H561ZM238 43H239V44H238Z"/><path fill="#082028" fill-opacity="1.000" d="M467 36H468V37H467ZM172 38H173V39H172ZM570 39H571V40H570ZM347 40H348V41H347ZM393 40H394V41H393ZM464 40H465V41H464ZM571 40H572V41H571ZM265 41H266V42H265ZM469 41H470V42H469ZM498 41H507V42H498ZM508 41H509V42H508ZM510 41H511V42H510ZM512 41H513V42H512ZM514 41H515V42H514ZM516 41H517V42H516ZM518 41H519V42H518ZM520 41H521V42H520ZM522 41H523V42H522ZM524 41H525V42H524ZM526 41H527V42H526ZM528 41H529V42H528ZM530 41H531V42H530ZM532 41H533V42H532ZM534 41H535V42H534ZM536 41H537V42H536ZM538 41H539V42H538ZM540 41H541V42H540ZM542 41H543V42H542ZM544 41H545V42H544ZM546 41H547V42H546ZM548 41H549V42H548ZM550 41H551V42H550ZM552 41H553V42H552ZM554 41H555V42H554ZM556 41H557V42H556ZM558 41H559V42H558ZM562 41H567V42H562ZM347 42H348V43H347ZM391 42H392V43H391ZM466 42H467V43H466ZM572 42H573V43H572ZM348 43H349V44H348ZM239 44H240V45H239ZM241 44H242V45H241ZM344 44H345V45H344ZM243 45H244V46H243ZM446 71H470V72H446ZM486 71H494V72H486Z"/><path fill="#082030" fill-opacity="1.000" d="M393 43H394V44H393Z"/><path fill="#082828" fill-opacity="1.000" d="M500 36H501V37H500ZM466 37H467V38H466Z"/><path fill="#082830" fill-opacity="1.000" d="M470 36H471V37H470Z"/><path fill="#082838" fill-opacity="1.000" d="M451 4H452V5H451Z"/><path fill="#083040" fill-opacity="1.000" d="M221 1H222V2H221Z"/><path fill="#083840" fill-opacity="1.000" d="M456 2H457V3H456Z"/><path fill="#101818" fill-opacity="1.000" d="M168 33H169V34H168ZM159 42H160V43H159Z"/><path fill="#101820" fill-opacity="1.000" d="M394 35H395V36H394ZM572 36H573V37H572Z"/><path fill="#102020" fill-opacity="1.000" d="M466 35H467V36H466ZM376 44H377V45H376Z"/><path fill="#102028" fill-opacity="1.000" d="M570 36H572V37H570ZM573 36H590V37H573ZM595 36H596V37H595ZM241 37H242V38H241ZM392 37H393V38H392ZM394 37H395V38H394ZM567 39H568V40H567ZM391 40H392V41H391ZM270 41H272V42H270ZM374 41H375V42H374ZM171 42H172V43H171ZM376 42H377V43H376ZM568 42H569V43H568ZM376 43H377V44H376ZM163 44H164V45H163ZM376 45H377V46H376ZM376 46H377V47H376ZM376 47H377V48H376ZM376 48H377V49H376ZM376 49H377V50H376ZM376 50H377V51H376ZM376 51H377V52H376ZM376 52H377V53H376ZM376 53H377V54H376ZM376 54H377V55H376ZM376 55H377V56H376ZM376 56H377V57H376ZM376 57H377V58H376ZM376 58H377V59H376ZM376 59H377V60H376ZM376 60H377V61H376ZM376 61H377V62H376ZM376 62H377V63H376ZM376 63H377V64H376ZM376 64H377V65H376ZM376 65H377V66H376ZM376 66H377V67H376ZM376 67H377V68H376ZM376 68H377V69H376ZM376 69H377V70H376ZM376 70H377V71H376ZM376 71H377V72H376ZM376 72H377V73H376ZM376 73H377V74H376ZM376 74H377V75H376ZM376 75H377V76H376Z"/><path fill="#102030" fill-opacity="1.000" d="M661 0H662V1H661ZM590 36H591V37H590ZM592 36H594V37H592ZM392 39H393V40H392ZM240 40H241V41H240ZM568 40H569V41H568ZM266 41H267V42H266ZM269 41H270V42H269ZM272 41H273V42H272ZM170 43H171V44H170ZM243 43H244V44H243ZM172 44H173V45H172Z"/><path fill="#102038" fill-opacity="1.000" d="M121 0H122V1H121Z"/><path fill="#102830" fill-opacity="1.000" d="M499 35H500V36H499ZM591 36H592V37H591ZM594 36H595V37H594ZM277 37H278V38H277ZM267 41H269V42H267ZM373 41H374V42H373ZM389 42H390V43H389ZM388 43H389V44H388ZM387 44H388V45H387Z"/><path fill="#102838" fill-opacity="1.000" d="M660 0H661V1H660ZM122 1H123V2H122ZM659 1H660V2H659Z"/><path fill="#102840" fill-opacity="1.000" d="M655 1H656V2H655Z"/><path fill="#103030" fill-opacity="1.000" d="M501 37H502V38H501Z"/><path fill="#103040" fill-opacity="1.000" d="M124 0H125V1H124ZM225 0H226V1H225ZM126 1H134V2H126ZM646 1H655V2H646Z"/><path fill="#103048" fill-opacity="1.000" d="M123 0H124V1H123ZM125 0H126V1H125ZM134 0H136V1H134ZM639 0H658V1H639ZM135 1H136V2H135ZM137 1H138V2H137Z"/><path fill="#103050" fill-opacity="1.000" d="M126 0H134V1H126ZM136 0H142V1H136ZM638 0H639V1H638Z"/><path fill="#103848" fill-opacity="1.000" d="M143 1H145V2H143Z"/><path fill="#103850" fill-opacity="1.000" d="M142 0H153V1H142ZM626 0H638V1H626Z"/><path fill="#104048" fill-opacity="1.000" d="M220 1H221V2H220Z"/><path fill="#104050" fill-opacity="1.000" d="M153 0H156V1H153Z"/><path fill="#104058" fill-opacity="1.000" d="M156 0H161V1H156ZM622 0H623V1H622ZM624 0H626V1H624Z"/><path fill="#182030" fill-opacity="1.000" d="M467 39H468V40H467ZM469 39H470V40H469Z"/><path fill="#182830" fill-opacity="1.000" d="M171 35H173V36H171ZM343 38H344V39H343ZM393 38H394V39H393ZM568 38H569V39H568ZM273 41H274V42H273ZM375 41H376V42H375ZM390 41H391V42H390ZM162 45H163V46H162ZM162 46H163V47H162ZM162 47H163V48H162ZM162 48H163V49H162ZM162 49H163V50H162ZM162 50H163V51H162ZM162 51H163V52H162ZM162 52H163V53H162ZM162 53H163V54H162ZM162 54H163V55H162ZM162 55H163V56H162ZM162 56H163V57H162ZM162 57H163V58H162ZM162 58H163V59H162ZM162 59H163V60H162ZM162 60H163V61H162ZM162 61H163V62H162ZM162 62H163V63H162ZM162 63H163V64H162ZM162 64H163V65H162ZM162 65H163V66H162ZM162 66H163V67H162ZM162 67H163V68H162ZM162 68H163V69H162ZM162 69H163V70H162ZM162 70H163V71H162ZM162 71H163V72H162ZM162 72H163V73H162ZM162 73H163V74H162ZM162 74H163V75H162ZM162 75H163V76H162Z"/><path fill="#182840" fill-opacity="1.000" d="M656 1H657V2H656Z"/><path fill="#183030" fill-opacity="1.000" d="M237 35H240V36H237ZM470 35H471V36H470Z"/><path fill="#183038" fill-opacity="1.000" d="M498 35H499V36H498ZM575 37H576V38H575ZM581 37H591V38H581ZM592 37H594V38H592ZM468 40H469V41H468Z"/><path fill="#183040" fill-opacity="1.000" d="M122 0H123V1H122ZM555 0H556V1H555ZM659 0H660V1H659ZM123 1H124V2H123ZM657 1H659V2H657Z"/><path fill="#183048" fill-opacity="1.000" d="M658 0H659V1H658ZM124 1H126V2H124ZM134 1H135V2H134ZM136 1H137V2H136ZM138 1H142V2H138ZM638 1H646V2H638Z"/><path fill="#183838" fill-opacity="1.000" d="M473 35H474V36H473ZM471 37H472V38H471Z"/><path fill="#183840" fill-opacity="1.000" d="M474 35H475V36H474ZM476 35H498V36H476Z"/><path fill="#183848" fill-opacity="1.000" d="M461 0H462V1H461ZM142 1H143V2H142ZM145 1H154V2H145ZM633 1H634V2H633ZM635 1H638V2H635Z"/><path fill="#183850" fill-opacity="1.000" d="M622 1H623V2H622ZM624 1H633V2H624ZM634 1H635V2H634Z"/><path fill="#184040" fill-opacity="1.000" d="M475 35H476V36H475ZM499 36H500V37H499Z"/><path fill="#184048" fill-opacity="1.000" d="M329 4H330V5H329ZM476 37H477V38H476ZM494 37H495V38H494ZM497 37H498V38H497Z"/><path fill="#184050" fill-opacity="1.000" d="M154 1H166V2H154ZM619 1H622V2H619ZM623 1H624V2H623Z"/><path fill="#184058" fill-opacity="1.000" d="M161 0H169V1H161ZM614 0H622V1H614ZM623 0H624V1H623Z"/><path fill="#184060" fill-opacity="1.000" d="M612 0H613V1H612Z"/><path fill="#184848" fill-opacity="1.000" d="M476 36H477V37H476ZM494 36H496V37H494Z"/><path fill="#184850" fill-opacity="1.000" d="M560 1H561V2H560ZM477 36H494V37H477Z"/><path fill="#184860" fill-opacity="1.000" d="M169 0H178V1H169ZM609 0H610V1H609ZM611 0H612V1H611ZM613 0H614V1H613Z"/><path fill="#202830" fill-opacity="1.000" d="M170 35H171V36H170ZM174 35H175V36H174ZM176 35H177V36H176ZM178 35H179V36H178ZM180 35H181V36H180ZM182 35H183V36H182ZM184 35H185V36H184ZM186 35H187V36H186ZM188 35H189V36H188ZM190 35H191V36H190ZM192 35H193V36H192ZM194 35H195V36H194ZM196 35H197V36H196ZM198 35H199V36H198ZM200 35H201V36H200ZM202 35H203V36H202ZM204 35H205V36H204ZM206 35H207V36H206ZM208 35H209V36H208ZM210 35H211V36H210ZM212 35H213V36H212ZM214 35H215V36H214ZM216 35H217V36H216ZM218 35H219V36H218ZM220 35H221V36H220ZM222 35H223V36H222ZM224 35H225V36H224ZM226 35H227V36H226ZM228 35H229V36H228ZM230 35H231V36H230ZM232 35H233V36H232ZM234 35H235V36H234ZM236 35H237V36H236ZM569 37H570V38H569Z"/><path fill="#203030" fill-opacity="1.000" d="M173 35H174V36H173ZM175 35H176V36H175ZM177 35H178V36H177ZM179 35H180V36H179ZM181 35H182V36H181ZM183 35H184V36H183ZM185 35H186V36H185ZM187 35H188V36H187ZM189 35H190V36H189ZM191 35H192V36H191ZM193 35H194V36H193ZM195 35H196V36H195ZM197 35H198V36H197ZM199 35H200V36H199ZM201 35H202V36H201ZM203 35H204V36H203ZM205 35H206V36H205ZM207 35H208V36H207ZM209 35H210V36H209ZM211 35H212V36H211ZM213 35H214V36H213ZM215 35H216V36H215ZM217 35H218V36H217ZM219 35H220V36H219ZM221 35H222V36H221ZM223 35H224V36H223ZM225 35H226V36H225ZM227 35H228V36H227ZM229 35H230V36H229ZM231 35H232V36H231ZM233 35H234V36H233ZM235 35H236V36H235Z"/><path fill="#203038" fill-opacity="1.000" d="M240 35H241V36H240ZM596 36H597V37H596ZM571 37H573V38H571ZM574 37H575V38H574ZM580 37H581V38H580ZM595 37H596V38H595ZM468 38H469V39H468ZM274 41H275V42H274Z"/><path fill="#203040" fill-opacity="1.000" d="M243 37H244V38H243ZM573 37H574V38H573ZM576 37H577V38H576ZM591 37H592V38H591ZM594 37H595V38H594ZM467 38H468V39H467ZM468 39H469V40H468ZM285 41H288V42H285ZM289 41H290V42H289ZM291 41H292V42H291ZM293 41H294V42H293ZM295 41H296V42H295ZM297 41H298V42H297ZM299 41H300V42H299ZM301 41H302V42H301ZM303 41H304V42H303ZM305 41H306V42H305ZM307 41H308V42H307ZM309 41H310V42H309ZM311 41H312V42H311ZM313 41H314V42H313ZM315 41H316V42H315ZM317 41H318V42H317ZM319 41H320V42H319ZM321 41H322V42H321ZM323 41H324V42H323ZM325 41H326V42H325ZM327 41H328V42H327ZM329 41H330V42H329ZM331 41H332V42H331ZM337 41H338V42H337ZM339 41H340V42H339ZM341 41H343V42H341Z"/><path fill="#203838" fill-opacity="1.000" d="M577 37H578V38H577ZM579 37H580V38H579ZM277 41H278V42H277Z"/><path fill="#203840" fill-opacity="1.000" d="M471 35H473V36H471ZM578 37H579V38H578ZM469 40H470V41H469ZM505 40H507V41H505ZM509 40H510V41H509ZM275 41H277V42H275ZM278 41H285V42H278ZM373 42H374V43H373Z"/><path fill="#204040" fill-opacity="1.000" d="M463 36H464V37H463ZM471 36H472V37H471ZM507 40H509V41H507ZM374 44H376V45H374Z"/><path fill="#204048" fill-opacity="1.000" d="M473 37H474V38H473ZM500 37H501V38H500ZM373 45H375V46H373ZM373 46H375V47H373ZM373 47H375V48H373ZM373 48H375V49H373ZM373 49H375V50H373ZM373 50H375V51H373ZM373 51H375V52H373ZM373 52H375V53H373ZM373 53H375V54H373ZM373 54H375V55H373ZM373 55H375V56H373ZM373 56H375V57H373ZM373 57H375V58H373ZM373 58H375V59H373ZM373 59H375V60H373ZM373 60H375V61H373ZM373 61H375V62H373ZM373 62H375V63H373ZM373 63H375V64H373ZM373 64H375V65H373ZM373 65H375V66H373ZM373 66H375V67H373ZM373 67H375V68H373ZM373 68H375V69H373ZM373 69H375V70H373ZM373 70H375V71H373ZM373 71H375V72H373ZM373 72H375V73H373ZM373 73H375V74H373ZM373 74H375V75H373ZM373 75H375V76H373Z"/><path fill="#204050" fill-opacity="1.000" d="M319 0H320V1H319ZM166 1H174V2H166ZM613 1H619V2H613ZM478 37H493V38H478Z"/><path fill="#204058" fill-opacity="1.000" d="M606 1H613V2H606Z"/><path fill="#204848" fill-opacity="1.000" d="M473 36H476V37H473ZM497 36H499V37H497ZM472 37H473V38H472ZM474 37H476V38H474ZM496 37H497V38H496ZM498 37H499V38H498Z"/><path fill="#204850" fill-opacity="1.000" d="M324 2H325V3H324ZM472 36H473V37H472ZM496 36H497V37H496ZM477 37H478V38H477ZM493 37H494V38H493ZM495 37H496V38H495Z"/><path fill="#204858" fill-opacity="1.000" d="M174 1H182V2H174ZM599 1H606V2H599Z"/><path fill="#204860" fill-opacity="1.000" d="M603 0H609V1H603ZM610 0H611V1H610ZM598 1H599V2H598Z"/><path fill="#205060" fill-opacity="1.000" d="M178 0H186V1H178ZM597 0H603V1H597ZM219 1H220V2H219Z"/><path fill="#205068" fill-opacity="1.000" d="M186 0H196V1H186ZM587 0H597V1H587Z"/><path fill="#205868" fill-opacity="1.000" d="M196 0H198V1H196ZM585 0H587V1H585Z"/><path fill="#205870" fill-opacity="1.000" d="M198 0H202V1H198ZM205 0H206V1H205ZM582 0H585V1H582Z"/><path fill="#206070" fill-opacity="1.000" d="M207 0H208V1H207Z"/><path fill="#282830" fill-opacity="1.000" d="M241 35H242V36H241Z"/><path fill="#283038" fill-opacity="1.000" d="M372 36H373V37H372Z"/><path fill="#283040" fill-opacity="1.000" d="M345 38H346V39H345ZM288 41H289V42H288ZM290 41H291V42H290ZM292 41H293V42H292ZM294 41H295V42H294ZM296 41H297V42H296ZM298 41H299V42H298ZM300 41H301V42H300ZM302 41H303V42H302ZM304 41H305V42H304ZM306 41H307V42H306ZM308 41H309V42H308ZM310 41H311V42H310ZM312 41H313V42H312ZM314 41H315V42H314ZM316 41H317V42H316ZM318 41H319V42H318ZM320 41H321V42H320ZM322 41H323V42H322ZM324 41H325V42H324ZM326 41H327V42H326ZM328 41H329V42H328ZM330 41H331V42H330ZM332 41H337V42H332ZM338 41H339V42H338ZM340 41H341V42H340Z"/><path fill="#283840" fill-opacity="1.000" d="M570 37H571V38H570ZM392 38H393V39H392ZM502 40H505V41H502ZM510 40H567V41H510Z"/><path fill="#283848" fill-opacity="1.000" d="M569 38H570V39H569ZM568 39H569V40H568ZM500 40H502V41H500ZM386 46H387V47H386ZM386 47H387V48H386ZM386 48H387V49H386ZM386 49H387V50H386ZM386 50H387V51H386ZM386 51H387V52H386ZM386 52H387V53H386ZM386 53H387V54H386ZM386 62H387V63H386ZM386 63H387V64H386ZM386 64H387V65H386ZM386 65H387V66H386ZM386 66H387V67H386ZM386 67H387V68H386ZM386 68H387V69H386ZM386 70H387V71H386ZM386 71H387V72H386ZM386 72H387V73H386ZM386 73H387V74H386ZM386 74H387V75H386ZM386 75H387V76H386Z"/><path fill="#284040" fill-opacity="1.000" d="M374 42H376V43H374ZM386 45H387V46H386ZM375 46H376V47H375ZM375 47H376V48H375ZM375 48H376V49H375ZM375 49H376V50H375ZM375 50H376V51H375ZM375 51H376V52H375ZM375 52H376V53H375ZM375 53H376V54H375ZM375 54H376V55H375ZM375 55H376V56H375ZM375 56H376V57H375ZM375 57H376V58H375ZM375 58H376V59H375ZM375 59H376V60H375ZM375 60H376V61H375ZM375 61H376V62H375ZM375 62H376V63H375ZM375 63H376V64H375ZM375 64H376V65H375ZM375 65H376V66H375ZM375 66H376V67H375ZM375 67H376V68H375ZM375 68H376V69H375ZM375 69H376V70H375ZM375 70H376V71H375ZM375 71H376V72H375ZM375 72H376V73H375ZM375 73H376V74H375ZM375 74H376V75H375ZM375 75H376V76H375Z"/><path fill="#284048" fill-opacity="1.000" d="M396 36H398V37H396ZM462 36H463V37H462ZM465 36H466V37H465ZM467 37H468V38H467ZM489 40H500V41H489ZM373 43H376V44H373ZM373 44H374V45H373ZM375 45H376V46H375ZM386 54H387V55H386ZM386 55H387V56H386ZM386 56H387V57H386ZM386 57H387V58H386ZM386 58H387V59H386ZM386 59H387V60H386ZM386 60H387V61H386ZM386 61H387V62H386ZM386 69H387V70H386Z"/><path fill="#284050" fill-opacity="1.000" d="M224 0H225V1H224Z"/><path fill="#284848" fill-opacity="1.000" d="M466 36H467V37H466ZM486 40H489V41H486Z"/><path fill="#284850" fill-opacity="1.000" d="M499 37H500V38H499ZM478 40H486V41H478Z"/><path fill="#285060" fill-opacity="1.000" d="M182 1H200V2H182ZM585 1H598V2H585Z"/><path fill="#285068" fill-opacity="1.000" d="M582 1H583V2H582ZM584 1H585V2H584Z"/><path fill="#285860" fill-opacity="1.000" d="M561 1H562V2H561ZM453 3H454V4H453Z"/><path fill="#285868" fill-opacity="1.000" d="M200 1H202V2H200ZM203 1H204V2H203ZM206 1H208V2H206ZM581 1H582V2H581ZM583 1H584V2H583Z"/><path fill="#285870" fill-opacity="1.000" d="M202 0H205V1H202ZM577 0H582V1H577Z"/><path fill="#286060" fill-opacity="1.000" d="M327 3H328V4H327Z"/><path fill="#286070" fill-opacity="1.000" d="M206 0H207V1H206ZM208 0H213V1H208ZM214 0H218V1H214ZM563 0H566V1H563ZM569 0H577V1H569Z"/><path fill="#286078" fill-opacity="1.000" d="M213 0H214V1H213Z"/><path fill="#286870" fill-opacity="1.000" d="M562 0H563V1H562ZM568 0H569V1H568Z"/><path fill="#303840" fill-opacity="1.000" d="M345 36H346V37H345Z"/><path fill="#304048" fill-opacity="1.000" d="M395 36H396V37H395ZM398 36H462V37H398ZM393 37H394V38H393ZM596 37H597V38H596ZM596 38H597V39H596ZM596 39H597V40H596ZM390 40H391V41H390ZM596 40H597V41H596ZM389 41H390V42H389ZM596 41H597V42H596ZM388 42H389V43H388ZM596 42H597V43H596ZM596 43H597V44H596ZM386 44H387V45H386ZM596 44H597V45H596ZM596 45H597V46H596ZM596 46H597V47H596Z"/><path fill="#304050" fill-opacity="1.000" d="M394 36H395V37H394ZM470 40H478V41H470ZM596 47H597V48H596ZM596 48H597V49H596ZM596 49H597V50H596ZM596 50H597V51H596ZM596 51H597V52H596ZM596 52H597V53H596ZM596 53H597V54H596ZM596 54H597V55H596ZM596 55H597V56H596ZM596 56H597V57H596ZM596 57H597V58H596ZM596 58H597V59H596ZM596 59H597V60H596ZM596 60H597V61H596ZM596 61H597V62H596ZM596 62H597V63H596ZM596 63H597V64H596ZM596 64H597V65H596ZM596 65H597V66H596ZM596 66H597V67H596ZM596 67H597V68H596ZM596 68H597V69H596ZM596 69H597V70H596ZM596 70H597V71H596ZM596 71H597V72H596ZM596 72H597V73H596ZM596 73H597V74H596ZM596 74H597V75H596ZM596 75H597V76H596Z"/><path fill="#304848" fill-opacity="1.000" d="M464 36H465V37H464Z"/><path fill="#304850" fill-opacity="1.000" d="M391 39H392V40H391ZM567 40H568V41H567Z"/><path fill="#304858" fill-opacity="1.000" d="M556 0H557V1H556Z"/><path fill="#305868" fill-opacity="1.000" d="M202 1H203V2H202ZM204 1H206V2H204ZM208 1H211V2H208ZM214 1H215V2H214ZM573 1H581V2H573Z"/><path fill="#306068" fill-opacity="1.000" d="M211 1H214V2H211ZM215 1H216V2H215ZM218 1H219V2H218ZM322 1H323V2H322ZM458 1H459V2H458ZM566 1H573V2H566Z"/><path fill="#306070" fill-opacity="1.000" d="M221 0H222V1H221ZM216 1H218V2H216ZM565 1H566V2H565Z"/><path fill="#306870" fill-opacity="1.000" d="M561 0H562V1H561ZM566 0H568V1H566Z"/><path fill="#306878" fill-opacity="1.000" d="M218 0H221V1H218ZM559 0H561V1H559Z"/><path fill="#384850" fill-opacity="1.000" d="M346 36H349V37H346ZM242 38H243V39H242ZM387 43H388V44H387Z"/><path fill="#385868" fill-opacity="1.000" d="M223 0H224V1H223Z"/><path fill="#386068" fill-opacity="1.000" d="M557 0H558V1H557Z"/><path fill="#386070" fill-opacity="1.000" d="M222 0H223V1H222Z"/><path fill="#386870" fill-opacity="1.000" d="M558 0H559V1H558ZM562 1H565V2H562Z"/><path fill="#404850" fill-opacity="1.000" d="M344 37H345V38H344ZM344 39H345V40H344Z"/><path fill="#405050" fill-opacity="1.000" d="M349 36H350V37H349Z"/><path fill="#407078" fill-opacity="1.000" d="M455 2H456V3H455Z"/><path fill="#407878" fill-opacity="1.000" d="M246 37H247V38H246Z"/><path fill="#485860" fill-opacity="1.000" d="M350 36H353V37H350ZM356 36H358V37H356ZM367 36H368V37H367Z"/><path fill="#486060" fill-opacity="1.000" d="M353 36H354V37H353ZM355 36H356V37H355ZM359 36H360V37H359ZM361 36H362V37H361ZM363 36H364V37H363ZM365 36H367V37H365Z"/><path fill="#487078" fill-opacity="1.000" d="M450 4H451V5H450Z"/><path fill="#505860" fill-opacity="1.000" d="M358 36H359V37H358ZM360 36H361V37H360ZM362 36H363V37H362ZM364 36H365V37H364Z"/><path fill="#506060" fill-opacity="1.000" d="M354 36H355V37H354ZM368 36H369V37H368Z"/><path fill="#506870" fill-opacity="1.000" d="M245 35H246V36H245Z"/><path fill="#507880" fill-opacity="1.000" d="M330 4H331V5H330Z"/><path fill="#507888" fill-opacity="1.000" d="M460 0H461V1H460Z"/><path fill="#508088" fill-opacity="1.000" d="M325 2H326V3H325Z"/><path fill="#508090" fill-opacity="1.000" d="M320 0H321V1H320Z"/><path fill="#586068" fill-opacity="1.000" d="M370 36H371V37H370Z"/><path fill="#587080" fill-opacity="1.000" d="M371 46H372V47H371ZM371 47H372V48H371ZM371 48H372V49H371ZM371 49H372V50H371ZM371 50H372V51H371ZM371 51H372V52H371ZM371 52H372V53H371ZM371 53H372V54H371ZM371 54H372V55H371ZM371 55H372V56H371ZM371 56H372V57H371ZM371 57H372V58H371ZM371 58H372V59H371ZM371 59H372V60H371ZM371 60H372V61H371ZM371 61H372V62H371ZM371 62H372V63H371ZM371 63H372V64H371ZM371 64H372V65H371ZM371 65H372V66H371ZM371 66H372V67H371ZM371 67H372V68H371ZM371 68H372V69H371ZM371 69H372V70H371ZM371 70H372V71H371ZM371 71H372V72H371ZM371 72H372V73H371ZM371 73H372V74H371ZM371 74H372V75H371ZM371 75H372V76H371Z"/><path fill="#589098" fill-opacity="1.000" d="M452 3H453V4H452Z"/><path fill="#58b0b8" fill-opacity="1.000" d="M326 0H327V1H326Z"/><path fill="#58b0c0" fill-opacity="1.000" d="M332 0H333V1H332Z"/><path fill="#58b8c0" fill-opacity="1.000" d="M454 0H455V1H454Z"/><path fill="#606870" fill-opacity="1.000" d="M371 36H372V37H371ZM372 37H373V38H372Z"/><path fill="#607070" fill-opacity="1.000" d="M369 36H370V37H369Z"/><path fill="#607078" fill-opacity="1.000" d="M371 38H373V39H371ZM244 39H245V40H244ZM371 39H373V40H371ZM343 40H344V41H343ZM371 40H373V41H371Z"/><path fill="#607080" fill-opacity="1.000" d="M371 41H372V42H371Z"/><path fill="#607880" fill-opacity="1.000" d="M371 42H372V43H371ZM371 43H372V44H371ZM371 44H372V45H371ZM371 45H372V46H371Z"/><path fill="#6090a0" fill-opacity="1.000" d="M328 3H329V4H328Z"/><path fill="#6098a0" fill-opacity="1.000" d="M323 1H324V2H323ZM457 1H458V2H457ZM333 4H334V5H333Z"/><path fill="#60a0a8" fill-opacity="1.000" d="M447 4H448V5H447Z"/><path fill="#60a8b0" fill-opacity="1.000" d="M325 1H326V2H325Z"/><path fill="#60b0b8" fill-opacity="1.000" d="M323 0H326V1H323ZM327 1H330V2H327Z"/><path fill="#60b8c0" fill-opacity="1.000" d="M327 0H329V1H327ZM331 0H332V1H331ZM330 1H333V2H330ZM334 1H336V2H334ZM334 2H336V3H334Z"/><path fill="#60b8c8" fill-opacity="1.000" d="M329 0H331V1H329ZM334 0H336V1H334ZM333 1H334V2H333Z"/><path fill="#60c0c0" fill-opacity="1.000" d="M336 2H337V3H336ZM451 2H452V3H451Z"/><path fill="#60c0c8" fill-opacity="1.000" d="M333 0H334V1H333ZM446 0H449V1H446ZM450 0H454V1H450ZM450 1H452V2H450Z"/><path fill="#687880" fill-opacity="1.000" d="M169 37H170V38H169Z"/><path fill="#688080" fill-opacity="1.000" d="M368 37H369V38H368Z"/><path fill="#688088" fill-opacity="1.000" d="M366 37H367V38H366ZM372 41H373V42H372Z"/><path fill="#689098" fill-opacity="1.000" d="M274 35H275V36H274Z"/><path fill="#68a0a8" fill-opacity="1.000" d="M331 4H333V5H331ZM334 4H343V5H334Z"/><path fill="#68a8b0" fill-opacity="1.000" d="M454 2H455V3H454ZM446 4H447V5H446Z"/><path fill="#68b0b8" fill-opacity="1.000" d="M457 0H458V1H457ZM326 1H327V2H326ZM456 1H457V2H456Z"/><path fill="#68b0c0" fill-opacity="1.000" d="M329 2H330V3H329ZM331 2H333V3H331Z"/><path fill="#68b8c0" fill-opacity="1.000" d="M455 1H456V2H455ZM330 2H331V3H330ZM333 2H334V3H333ZM334 3H337V4H334ZM449 3H450V4H449Z"/><path fill="#68c0c0" fill-opacity="1.000" d="M453 1H454V2H453ZM337 2H339V3H337ZM450 2H451V3H450ZM452 2H453V3H452Z"/><path fill="#68c0c8" fill-opacity="1.000" d="M336 0H344V1H336ZM455 0H457V1H455ZM336 1H345V2H336ZM447 1H448V2H447ZM449 1H450V2H449ZM452 1H453V2H452ZM339 2H345V3H339ZM445 2H446V3H445ZM447 2H450V3H447Z"/><path fill="#68c0d0" fill-opacity="1.000" d="M344 0H345V1H344Z"/><path fill="#68c8c8" fill-opacity="1.000" d="M345 2H346V3H345ZM444 2H445V3H444Z"/><path fill="#68c8d0" fill-opacity="1.000" d="M345 0H353V1H345ZM441 0H446V1H441ZM449 0H450V1H449ZM345 1H353V2H345ZM441 1H447V2H441ZM448 1H449V2H448ZM346 2H353V3H346ZM441 2H442V3H441Z"/><path fill="#68d0d0" fill-opacity="1.000" d="M353 0H354V1H353ZM353 1H354V2H353Z"/><path fill="#708088" fill-opacity="1.000" d="M357 37H366V38H357ZM369 37H371V38H369Z"/><path fill="#708090" fill-opacity="1.000" d="M356 37H357V38H356Z"/><path fill="#708888" fill-opacity="1.000" d="M367 37H368V38H367Z"/><path fill="#708890" fill-opacity="1.000" d="M167 39H168V40H167ZM372 42H373V43H372ZM372 44H373V45H372Z"/><path fill="#709090" fill-opacity="1.000" d="M372 43H373V44H372ZM372 45H373V46H372Z"/><path fill="#709098" fill-opacity="1.000" d="M372 46H373V47H372ZM372 47H373V48H372ZM372 48H373V49H372ZM372 49H373V50H372ZM372 50H373V51H372ZM372 51H373V52H372ZM372 52H373V53H372ZM372 53H373V54H372ZM372 54H373V55H372ZM372 55H373V56H372ZM372 56H373V57H372ZM372 57H373V58H372ZM372 58H373V59H372ZM372 59H373V60H372ZM372 60H373V61H372ZM372 61H373V62H372ZM372 62H373V63H372ZM372 63H373V64H372ZM372 64H373V65H372ZM372 65H373V66H372ZM372 66H373V67H372ZM372 67H373V68H372ZM372 68H373V69H372ZM372 69H373V70H372ZM372 70H373V71H372ZM372 71H373V72H372ZM372 72H373V73H372ZM372 73H373V74H372ZM372 74H373V75H372ZM372 75H373V76H372Z"/><path fill="#70a0a8" fill-opacity="1.000" d="M343 4H346V5H343Z"/><path fill="#70a0b0" fill-opacity="1.000" d="M449 4H450V5H449Z"/><path fill="#70a8b0" fill-opacity="1.000" d="M321 0H322V1H321ZM326 2H327V3H326ZM346 4H358V5H346ZM436 4H446V5H436ZM448 4H449V5H448Z"/><path fill="#70a8b8" fill-opacity="1.000" d="M459 0H460V1H459Z"/><path fill="#70b0b0" fill-opacity="1.000" d="M358 4H360V5H358ZM431 4H436V5H431Z"/><path fill="#70b0b8" fill-opacity="1.000" d="M322 0H323V1H322ZM458 0H459V1H458ZM324 1H325V2H324ZM327 2H328V3H327ZM329 3H330V4H329ZM331 3H333V4H331Z"/><path fill="#70b0c0" fill-opacity="1.000" d="M330 3H331V4H330Z"/><path fill="#70b8c0" fill-opacity="1.000" d="M328 2H329V3H328ZM453 2H454V3H453ZM333 3H334V4H333ZM337 3H340V4H337ZM450 3H451V4H450Z"/><path fill="#70c0c0" fill-opacity="1.000" d="M340 3H344V4H340Z"/><path fill="#70c0c8" fill-opacity="1.000" d="M446 2H447V3H446ZM344 3H348V4H344ZM444 3H447V4H444ZM448 3H449V4H448Z"/><path fill="#70c8c8" fill-opacity="1.000" d="M454 1H455V2H454ZM348 3H353V4H348Z"/><path fill="#70c8d0" fill-opacity="1.000" d="M438 0H441V1H438ZM439 1H441V2H439ZM439 2H441V3H439ZM442 2H444V3H442Z"/><path fill="#70d0d0" fill-opacity="1.000" d="M354 0H355V1H354ZM354 1H357V2H354ZM436 1H439V2H436ZM353 2H361V3H353ZM432 2H439V3H432Z"/><path fill="#70d0d8" fill-opacity="1.000" d="M355 0H365V1H355ZM427 0H438V1H427ZM357 1H366V2H357ZM429 1H436V2H429ZM361 2H364V3H361ZM428 2H432V3H428Z"/><path fill="#70d8d8" fill-opacity="1.000" d="M428 1H429V2H428ZM365 2H366V3H365Z"/><path fill="#70d8e0" fill-opacity="1.000" d="M365 0H371V1H365ZM424 0H427V1H424ZM367 1H369V2H367ZM366 2H368V3H366Z"/><path fill="#788088" fill-opacity="1.000" d="M242 36H243V37H242ZM161 44H162V45H161Z"/><path fill="#788090" fill-opacity="1.000" d="M168 38H169V39H168ZM166 40H167V41H166Z"/><path fill="#788890" fill-opacity="1.000" d="M347 37H348V38H347ZM349 37H351V38H349ZM355 37H356V38H355ZM165 41H166V42H165ZM162 43H163V44H162Z"/><path fill="#78b0b8" fill-opacity="1.000" d="M360 4H366V5H360ZM424 4H431V5H424Z"/><path fill="#78b0c0" fill-opacity="1.000" d="M366 4H369V5H366Z"/><path fill="#78b8c0" fill-opacity="1.000" d="M369 4H370V5H369ZM422 4H424V5H422Z"/><path fill="#78c0c0" fill-opacity="1.000" d="M451 3H452V4H451ZM248 35H251V36H248Z"/><path fill="#78c0c8" fill-opacity="1.000" d="M442 3H444V4H442ZM447 3H448V4H447ZM270 35H271V36H270Z"/><path fill="#78c8c8" fill-opacity="1.000" d="M440 3H442V4H440Z"/><path fill="#78c8d0" fill-opacity="1.000" d="M353 3H358V4H353ZM435 3H440V4H435Z"/><path fill="#78d0d0" fill-opacity="1.000" d="M358 3H361V4H358ZM431 3H435V4H431Z"/><path fill="#78d0d8" fill-opacity="1.000" d="M364 2H365V3H364ZM427 2H428V3H427Z"/><path fill="#78d8d8" fill-opacity="1.000" d="M424 2H427V3H424Z"/><path fill="#78d8e0" fill-opacity="1.000" d="M371 0H372V1H371ZM422 0H424V1H422ZM366 1H367V2H366ZM369 1H370V2H369ZM422 1H428V2H422ZM368 2H372V3H368ZM421 2H424V3H421Z"/><path fill="#78e0e0" fill-opacity="1.000" d="M372 0H376V1H372ZM416 0H422V1H416ZM370 1H374V2H370ZM417 1H422V2H417ZM372 2H377V3H372ZM412 2H414V3H412ZM415 2H421V3H415Z"/><path fill="#78e0e8" fill-opacity="1.000" d="M376 0H379V1H376ZM414 0H416V1H414ZM374 1H377V2H374ZM415 1H417V2H415Z"/><path fill="#809090" fill-opacity="1.000" d="M163 42H164V43H163Z"/><path fill="#809098" fill-opacity="1.000" d="M346 37H347V38H346ZM348 37H349V38H348ZM351 37H355V38H351ZM243 39H244V40H243ZM164 42H165V43H164Z"/><path fill="#80b8c0" fill-opacity="1.000" d="M370 4H374V5H370ZM375 4H376V5H375ZM415 4H422V5H415ZM247 35H248V36H247ZM273 35H274V36H273Z"/><path fill="#80b8c8" fill-opacity="1.000" d="M374 4H375V5H374ZM376 4H377V5H376ZM378 4H379V5H378ZM252 35H253V36H252Z"/><path fill="#80c0c0" fill-opacity="1.000" d="M377 4H378V5H377ZM383 4H385V5H383ZM411 4H415V5H411ZM254 35H270V36H254Z"/><path fill="#80c0c8" fill-opacity="1.000" d="M379 4H383V5H379ZM385 4H389V5H385ZM405 4H411V5H405ZM251 35H252V36H251ZM271 35H273V36H271Z"/><path fill="#80c8c8" fill-opacity="1.000" d="M389 4H390V5H389ZM394 4H395V5H394ZM401 4H402V5H401ZM404 4H405V5H404Z"/><path fill="#80d0d0" fill-opacity="1.000" d="M361 3H363V4H361ZM428 3H431V4H428Z"/><path fill="#80d0d8" fill-opacity="1.000" d="M363 3H369V4H363ZM424 3H428V4H424Z"/><path fill="#80d8d8" fill-opacity="1.000" d="M369 3H370V4H369ZM420 3H424V4H420Z"/><path fill="#80d8e0" fill-opacity="1.000" d="M370 3H374V4H370ZM417 3H418V4H417ZM419 3H420V4H419Z"/><path fill="#80e0e0" fill-opacity="1.000" d="M377 2H378V3H377ZM414 2H415V3H414ZM375 3H376V4H375ZM416 3H417V4H416Z"/><path fill="#80e0e8" fill-opacity="1.000" d="M379 0H384V1H379ZM412 0H414V1H412ZM377 1H381V2H377ZM414 1H415V2H414ZM378 2H382V3H378ZM411 2H412V3H411Z"/><path fill="#80e8e8" fill-opacity="1.000" d="M384 0H386V1H384ZM408 0H412V1H408ZM381 1H386V2H381ZM408 1H414V2H408ZM382 2H389V3H382ZM405 2H411V3H405Z"/><path fill="#80e8f0" fill-opacity="1.000" d="M386 0H390V1H386ZM405 0H408V1H405ZM386 1H390V2H386ZM406 1H408V2H406Z"/><path fill="#80f0f0" fill-opacity="1.000" d="M390 0H396V1H390ZM400 0H405V1H400ZM390 1H393V2H390ZM401 1H406V2H401ZM389 2H395V3H389ZM400 2H405V3H400Z"/><path fill="#8898a0" fill-opacity="1.000" d="M164 41H165V42H164Z"/><path fill="#88b8c0" fill-opacity="1.000" d="M275 36H276V37H275Z"/><path fill="#88c0c8" fill-opacity="1.000" d="M253 35H254V36H253Z"/><path fill="#88c8c8" fill-opacity="1.000" d="M390 4H394V5H390ZM402 4H404V5H402Z"/><path fill="#88c8d0" fill-opacity="1.000" d="M395 4H401V5H395Z"/><path fill="#88d8e0" fill-opacity="1.000" d="M374 3H375V4H374ZM376 3H377V4H376ZM418 3H419V4H418Z"/><path fill="#88e0e0" fill-opacity="1.000" d="M377 3H380V4H377ZM382 3H385V4H382ZM410 3H416V4H410Z"/><path fill="#88e0e8" fill-opacity="1.000" d="M380 3H382V4H380ZM409 3H410V4H409Z"/><path fill="#88e8e8" fill-opacity="1.000" d="M385 3H387V4H385ZM407 3H409V4H407Z"/><path fill="#88f0f0" fill-opacity="1.000" d="M393 1H395V2H393ZM400 1H401V2H400ZM395 2H400V3H395Z"/><path fill="#88f0f8" fill-opacity="1.000" d="M396 0H400V1H396ZM395 1H396V2H395ZM399 1H400V2H399Z"/><path fill="#88f8f8" fill-opacity="1.000" d="M396 1H399V2H396Z"/><path fill="#9098a0" fill-opacity="1.000" d="M165 40H166V41H165Z"/><path fill="#90a0a0" fill-opacity="1.000" d="M162 44H163V45H162Z"/><path fill="#90a0a8" fill-opacity="1.000" d="M167 38H168V39H167ZM163 43H164V44H163Z"/><path fill="#90c0c0" fill-opacity="1.000" d="M246 35H247V36H246Z"/><path fill="#90d0d8" fill-opacity="1.000" d="M246 36H247V37H246Z"/><path fill="#90e8e8" fill-opacity="1.000" d="M387 3H392V4H387ZM403 3H407V4H403Z"/><path fill="#90f0e8" fill-opacity="1.000" d="M249 37H251V38H249Z"/><path fill="#90f0f0" fill-opacity="1.000" d="M392 3H403V4H392ZM248 36H249V37H248ZM251 36H252V37H251ZM255 36H273V37H255Z"/><path fill="#90f8f0" fill-opacity="1.000" d="M249 36H250V37H249Z"/><path fill="#90f8f8" fill-opacity="1.000" d="M250 36H251V37H250Z"/><path fill="#98a0b0" fill-opacity="1.000" d="M166 39H167V40H166Z"/><path fill="#98a8b0" fill-opacity="1.000" d="M281 40H287V41H281ZM335 40H336V41H335ZM337 40H338V41H337ZM339 40H342V41H339Z"/><path fill="#98b0b0" fill-opacity="1.000" d="M277 40H281V41H277Z"/><path fill="#98c0c0" fill-opacity="1.000" d="M276 37H277V38H276Z"/><path fill="#98e0e0" fill-opacity="1.000" d="M273 37H274V38H273Z"/><path fill="#98e8e8" fill-opacity="1.000" d="M247 37H248V38H247Z"/><path fill="#98e8f0" fill-opacity="1.000" d="M252 36H253V37H252ZM251 37H252V38H251ZM253 37H255V38H253Z"/><path fill="#98f0f0" fill-opacity="1.000" d="M254 36H255V37H254ZM248 37H249V38H248ZM255 37H272V38H255Z"/><path fill="#98f0f8" fill-opacity="1.000" d="M253 36H254V37H253Z"/><path fill="#a0a8b0" fill-opacity="1.000" d="M287 40H335V41H287ZM336 40H337V41H336ZM338 40H339V41H338Z"/><path fill="#a0b0b0" fill-opacity="1.000" d="M371 37H372V38H371Z"/><path fill="#a0b0b8" fill-opacity="1.000" d="M169 36H170V37H169ZM168 37H169V38H168ZM276 40H277V41H276Z"/><path fill="#a0b8b8" fill-opacity="1.000" d="M275 40H276V41H275Z"/><path fill="#a0c0c0" fill-opacity="1.000" d="M238 36H239V37H238Z"/><path fill="#a0f0f0" fill-opacity="1.000" d="M247 36H248V37H247ZM272 37H273V38H272Z"/><path fill="#a0f0f8" fill-opacity="1.000" d="M252 37H253V38H252Z"/><path fill="#a8b8c0" fill-opacity="1.000" d="M173 36H174V37H173ZM175 36H176V37H175ZM177 36H178V37H177ZM179 36H180V37H179ZM181 36H182V37H181ZM183 36H184V37H183ZM185 36H186V37H185ZM187 36H188V37H187ZM189 36H190V37H189ZM191 36H192V37H191ZM193 36H194V37H193ZM195 36H196V37H195ZM197 36H198V37H197ZM199 36H200V37H199ZM201 36H202V37H201ZM203 36H204V37H203ZM205 36H206V37H205ZM207 36H208V37H207ZM209 36H210V37H209ZM211 36H212V37H211ZM213 36H214V37H213ZM215 36H216V37H215ZM217 36H218V37H217ZM219 36H220V37H219ZM221 36H222V37H221ZM223 36H224V37H223ZM225 36H226V37H225ZM227 36H228V37H227ZM229 36H230V37H229ZM231 36H232V37H231ZM233 36H234V37H233ZM235 36H236V37H235ZM240 36H241V37H240ZM269 40H270V41H269ZM272 40H275V41H272ZM161 45H162V46H161Z"/><path fill="#a8c0c0" fill-opacity="1.000" d="M237 36H238V37H237ZM239 36H240V37H239ZM271 40H272V41H271Z"/><path fill="#a8e0e8" fill-opacity="1.000" d="M274 36H275V37H274Z"/><path fill="#a8e8e8" fill-opacity="1.000" d="M274 37H275V38H274Z"/><path fill="#a8f8f8" fill-opacity="1.000" d="M273 36H274V37H273Z"/><path fill="#b0b8c0" fill-opacity="1.000" d="M174 36H175V37H174ZM176 36H177V37H176ZM178 36H179V37H178ZM180 36H181V37H180ZM182 36H183V37H182ZM184 36H185V37H184ZM186 36H187V37H186ZM188 36H189V37H188ZM190 36H191V37H190ZM192 36H193V37H192ZM194 36H195V37H194ZM196 36H197V37H196ZM198 36H199V37H198ZM200 36H201V37H200ZM202 36H203V37H202ZM204 36H205V37H204ZM206 36H207V37H206ZM208 36H209V37H208ZM210 36H211V37H210ZM212 36H213V37H212ZM214 36H215V37H214ZM216 36H217V37H216ZM218 36H219V37H218ZM220 36H221V37H220ZM222 36H223V37H222ZM224 36H225V37H224ZM226 36H227V37H226ZM228 36H229V37H228ZM230 36H231V37H230ZM232 36H233V37H232ZM234 36H235V37H234ZM236 36H237V37H236ZM161 47H162V48H161ZM161 48H162V49H161ZM161 49H162V50H161ZM161 50H162V51H161ZM161 51H162V52H161ZM161 52H162V53H161ZM161 53H162V54H161ZM161 54H162V55H161ZM161 55H162V56H161ZM161 56H162V57H161ZM161 57H162V58H161ZM161 58H162V59H161ZM161 59H162V60H161ZM161 60H162V61H161ZM161 61H162V62H161ZM161 62H162V63H161ZM161 63H162V64H161ZM161 64H162V65H161ZM161 65H162V66H161ZM161 66H162V67H161ZM161 69H162V70H161ZM161 70H162V71H161ZM161 71H162V72H161ZM161 72H162V73H161ZM161 73H162V74H161ZM161 74H162V75H161ZM161 75H162V76H161Z"/><path fill="#b0c0c0" fill-opacity="1.000" d="M161 46H162V47H161Z"/><path fill="#b0c0c8" fill-opacity="1.000" d="M170 36H173V37H170ZM243 38H244V39H243ZM268 40H269V41H268ZM270 40H271V41H270ZM342 40H343V41H342ZM161 67H162V68H161ZM161 68H162V69H161Z"/><path fill="#b0c8d0" fill-opacity="1.000" d="M267 40H268V41H267Z"/><path fill="#b0d0d0" fill-opacity="1.000" d="M253 40H254V41H253Z"/><path fill="#b8c0c8" fill-opacity="1.000" d="M343 39H344V40H343Z"/><path fill="#b8c0d0" fill-opacity="1.000" d="M241 36H242V37H241Z"/><path fill="#b8c8d0" fill-opacity="1.000" d="M242 37H243V38H242ZM345 37H346V38H345ZM344 38H345V39H344ZM244 40H249V41H244ZM254 40H257V41H254ZM261 40H262V41H261ZM264 40H267V41H264Z"/><path fill="#b8d0d0" fill-opacity="1.000" d="M252 40H253V41H252ZM263 40H264V41H263Z"/><path fill="#b8d0d8" fill-opacity="1.000" d="M257 40H258V41H257ZM260 40H261V41H260Z"/><path fill="#b8e8e8" fill-opacity="1.000" d="M275 37H276V38H275Z"/><path fill="#c0d0d0" fill-opacity="1.000" d="M249 40H250V41H249Z"/><path fill="#c0d0d8" fill-opacity="1.000" d="M250 40H251V41H250ZM259 40H260V41H259ZM262 40H263V41H262Z"/><path fill="#c0d0e0" fill-opacity="1.000" d="M258 40H259V41H258Z"/><path fill="#c0d8d0" fill-opacity="1.000" d="M251 40H252V41H251Z"/></svg>