<svg xmlns="http://www.w3.org/2000/svg" width="600" height="76" viewBox="0 0 600 76" shape-rendering="geometricPrecision"><path fill="#000008" fill-opacity="0.063" d="M164 6H165V7H164ZM146 8H147V9H146ZM145 10H147V11H145ZM152 10H153V11H152ZM171 10H172V11H171ZM162 52H163V53H162ZM478 52H479V53H478ZM476 53H477V54H476ZM471 54H472V55H471ZM480 56H481V57H480ZM569 60H570V61H569ZM575 60H576V61H575ZM123 61H124V62H123ZM515 61H516V62H515ZM172 65H173V66H172ZM133 69H134V70H133ZM511 69H512V70H511ZM124 70H125V71H124ZM359 71H360V72H359ZM93 72H94V73H93ZM111 72H112V73H111ZM125 72H126V73H125ZM445 72H446V73H445ZM444 73H445V74H444ZM512 73H513V74H512ZM35 74H36V75H35ZM53 74H54V75H53ZM445 74H446V75H445ZM481 74H482V75H481ZM36 75H37V76H36Z"/><path fill="#000010" fill-opacity="0.063" d="M173 2H174V3H173ZM143 3H144V4H143ZM156 5H157V6H156ZM36 7H37V8H36ZM152 8H153V9H152ZM163 53H164V54H163ZM164 55H165V56H164ZM488 61H489V62H488ZM574 61H575V62H574ZM571 62H572V63H571ZM486 63H487V64H486ZM485 72H486V73H485ZM364 73H365V74H364ZM167 74H168V75H167ZM173 74H174V75H173ZM478 74H479V75H478ZM166 75H167V76H166ZM479 75H480V76H479Z"/><path fill="#000018" fill-opacity="0.063" d="M479 54H480V55H479Z"/><path fill="#000800" fill-opacity="0.063" d="M474 54H475V55H474ZM484 55H485V56H484ZM471 56H472V57H471ZM172 62H173V63H172Z"/><path fill="#000808" fill-opacity="0.063" d="M159 2H160V3H159ZM158 3H159V4H158ZM159 4H160V5H159ZM174 5H175V6H174ZM201 8H202V9H201ZM148 9H149V10H148ZM153 51H154V52H153ZM475 51H476V52H475ZM402 52H403V53H402ZM364 53H365V54H364ZM401 53H402V54H401ZM473 53H474V54H473ZM151 55H152V56H151ZM482 55H483V56H482ZM150 56H151V57H150ZM475 56H476V57H475ZM76 57H77V58H76ZM93 57H94V58H93ZM473 57H474V58H473ZM75 58H76V59H75ZM485 58H486V59H485ZM131 60H132V61H131ZM141 61H142V62H141ZM483 61H484V62H483ZM509 61H510V62H509ZM133 62H134V63H133ZM173 62H174V63H173ZM517 63H518V64H517ZM143 64H144V65H143ZM144 65H146V66H144ZM144 66H145V67H144ZM486 68H487V69H486ZM111 69H112V70H111ZM467 69H468V70H467ZM486 70H487V71H486ZM358 72H359V73H358ZM514 72H515V73H514ZM178 73H179V74H178ZM177 74H178V75H177ZM483 74H484V75H483ZM74 75H75V76H74ZM153 75H154V76H153ZM473 75H474V76H473Z"/><path fill="#000810" fill-opacity="0.063" d="M98 2H99V3H98ZM89 3H90V4H89ZM96 3H97V4H96ZM237 3H238V4H237ZM13 4H14V5H13ZM58 4H60V5H58ZM67 4H68V5H67ZM86 4H87V5H86ZM93 4H95V5H93ZM144 4H145V5H144ZM37 5H38V6H37ZM62 5H64V6H62ZM89 5H91V6H89ZM206 5H207V6H206ZM37 6H38V7H37ZM65 6H67V7H65ZM84 6H86V7H84ZM153 6H154V7H153ZM180 6H181V7H180ZM38 7H39V8H38ZM70 7H80V8H70ZM206 7H207V8H206ZM37 8H38V9H37ZM167 8H168V9H167ZM172 8H173V9H172ZM200 8H201V9H200ZM150 9H152V10H150ZM197 9H198V10H197ZM143 10H144V11H143ZM198 10H199V11H198ZM144 11H145V12H144ZM363 52H364V53H363ZM472 52H473V53H472ZM477 52H478V53H477ZM362 53H363V54H362ZM469 53H470V54H469ZM479 53H480V54H479ZM41 54H42V55H41ZM151 54H152V55H151ZM154 54H155V55H154ZM165 54H166V55H165ZM363 54H364V55H363ZM40 55H41V56H40ZM53 55H54V56H53ZM166 55H167V56H166ZM360 55H361V56H360ZM470 55H471V56H470ZM477 55H478V56H477ZM480 55H481V56H480ZM54 56H55V57H54ZM361 56H362V57H361ZM402 56H403V57H402ZM404 56H405V57H404ZM481 56H482V57H481ZM486 56H487V57H486ZM149 57H150V58H149ZM166 57H167V58H166ZM486 57H487V58H486ZM484 59H485V60H484ZM488 59H489V60H488ZM570 59H571V60H570ZM109 60H111V61H109ZM124 60H126V61H124ZM128 60H129V61H128ZM487 60H488V61H487ZM571 60H572V61H571ZM570 61H571V62H570ZM572 61H573V62H572ZM576 61H577V62H576ZM101 62H102V63H101ZM112 62H113V63H112ZM487 62H488V63H487ZM174 63H175V64H174ZM513 63H514V64H513ZM570 63H571V64H570ZM577 63H578V64H577ZM516 64H518V65H516ZM568 64H569V65H568ZM133 65H134V66H133ZM488 65H489V66H488ZM516 65H517V66H516ZM518 65H519V66H518ZM567 65H568V66H567ZM580 65H581V66H580ZM139 66H140V67H139ZM141 66H142V67H141ZM516 66H518V67H516ZM581 66H582V67H581ZM112 67H113V68H112ZM145 67H146V68H145ZM171 67H172V68H171ZM122 68H123V69H122ZM54 69H55V70H54ZM101 69H102V70H101ZM169 69H170V70H169ZM581 69H582V70H581ZM110 70H111V71H110ZM125 70H126V71H125ZM127 70H129V71H127ZM146 70H147V71H146ZM443 70H444V71H443ZM466 70H467V71H466ZM510 70H511V71H510ZM512 70H513V71H512ZM105 71H106V72H105ZM107 71H108V72H107ZM511 71H512V72H511ZM514 71H516V72H514ZM53 72H54V73H53ZM123 72H124V73H123ZM150 72H151V73H150ZM170 72H171V73H170ZM439 72H440V73H439ZM511 72H512V73H511ZM567 72H568V73H567ZM54 73H55V74H54ZM94 73H95V74H94ZM122 73H123V74H122ZM446 73H447V74H446ZM513 73H514V74H513ZM515 73H516V74H515ZM123 74H124V75H123ZM125 74H126V75H125ZM476 74H477V75H476ZM480 74H481V75H480ZM485 74H486V75H485ZM514 74H515V75H514ZM567 74H568V75H567ZM123 75H124V76H123ZM125 75H126V76H125ZM172 75H173V76H172ZM180 75H181V76H180ZM484 75H485V76H484ZM568 75H569V76H568ZM570 75H571V76H570Z"/><path fill="#000818" fill-opacity="0.063" d="M154 5H155V6H154ZM170 9H171V10H170ZM476 51H477V52H476ZM476 54H477V55H476ZM140 63H142V64H140ZM138 65H139V66H138ZM145 70H146V71H145ZM362 72H363V73H362ZM169 73H170V74H169Z"/><path fill="#001000" fill-opacity="0.063" d="M143 67H144V68H143Z"/><path fill="#001008" fill-opacity="0.063" d="M162 5H163V6H162ZM172 5H173V6H172ZM132 6H133V7H132ZM172 6H174V7H172ZM472 55H473V56H472ZM485 55H486V56H485ZM74 59H75V60H74ZM73 60H74V61H73ZM142 66H143V67H142ZM89 73H90V74H89ZM86 75H87V76H86Z"/><path fill="#001010" fill-opacity="0.063" d="M37 0H38V1H37ZM141 0H142V1H141ZM37 1H38V2H37ZM191 1H192V2H191ZM37 2H38V3H37ZM125 2H126V3H125ZM136 2H137V3H136ZM37 3H38V4H37ZM62 3H64V4H62ZM88 3H89V4H88ZM126 3H127V4H126ZM240 3H241V4H240ZM238 4H240V5H238ZM15 6H16V7H15ZM87 6H88V7H87ZM188 6H189V7H188ZM154 52H155V53H154ZM44 54H45V55H44ZM399 54H400V55H399ZM79 55H80V56H79ZM91 55H92V56H91ZM476 55H477V56H476ZM360 57H361V58H360ZM103 60H104V61H103ZM106 60H107V61H106ZM142 60H143V61H142ZM489 60H490V61H489ZM35 61H36V62H35ZM112 65H113V66H112ZM102 70H103V71H102ZM109 70H110V71H109ZM463 70H464V71H463ZM169 71H170V72H169ZM91 72H92V73H91ZM106 72H107V73H106ZM52 73H53V74H52ZM72 73H73V74H72ZM49 74H50V75H49ZM47 75H48V76H47Z"/><path fill="#001018" fill-opacity="0.063" d="M156 1H157V2H156ZM172 9H173V10H172ZM365 54H366V55H365ZM470 54H471V55H470ZM360 59H361V60H360ZM514 64H515V65H514ZM515 65H516V66H515ZM567 67H568V68H567ZM360 70H361V71H360ZM363 72H364V73H363Z"/><path fill="#080010" fill-opacity="0.063" d="M207 9H208V10H207ZM93 74H94V75H93ZM70 75H71V76H70Z"/><path fill="#080808" fill-opacity="0.063" d="M174 0H175V1H174ZM110 2H111V3H110ZM207 3H208V4H207ZM165 7H166V8H165ZM166 8H167V9H166ZM173 64H174V65H173Z"/><path fill="#080810" fill-opacity="0.063" d="M158 0H159V1H158ZM100 1H101V2H100ZM156 3H157V4H156ZM174 3H175V4H174ZM191 3H192V4H191ZM83 4H86V5H83ZM120 4H121V5H120ZM78 5H80V6H78ZM113 5H114V6H113ZM119 5H120V6H119ZM179 5H180V6H179ZM194 6H195V7H194ZM195 7H196V8H195ZM147 8H148V9H147ZM207 8H208V9H207ZM144 9H145V10H144ZM205 10H206V11H205ZM471 51H472V52H471ZM156 52H157V53H156ZM358 55H359V56H358ZM485 66H486V67H485ZM170 68H171V69H170ZM112 71H113V72H112ZM113 72H114V73H113ZM92 73H93V74H92ZM112 73H113V74H112ZM361 73H362V74H361ZM71 74H72V75H71ZM72 75H73V76H72Z"/><path fill="#080818" fill-opacity="0.063" d="M178 1H179V2H178ZM198 8H199V9H198ZM199 9H200V10H199ZM206 10H207V11H206ZM163 55H164V56H163ZM144 68H145V69H144ZM144 69H145V70H144ZM174 75H175V76H174Z"/><path fill="#081010" fill-opacity="0.063" d="M55 0H56V1H55ZM101 0H102V1H101ZM125 0H126V1H125ZM56 1H57V2H56ZM121 1H122V2H121ZM54 2H56V3H54ZM58 2H61V3H58ZM92 2H95V3H92ZM57 3H58V4H57ZM61 3H62V4H61ZM90 3H92V4H90ZM95 3H96V4H95ZM60 4H62V5H60ZM65 4H67V5H65ZM92 4H93V5H92ZM64 5H65V6H64ZM70 5H78V6H70ZM80 5H81V6H80ZM82 5H83V6H82ZM129 5H130V6H129ZM67 6H68V7H67ZM83 6H84V7H83ZM86 6H87V7H86ZM155 6H156V7H155ZM80 7H81V8H80ZM197 7H198V8H197ZM147 10H148V11H147ZM151 53H152V54H151ZM359 54H360V55H359ZM359 56H360V57H359ZM127 60H128V61H127ZM143 61H144V62H143ZM142 62H143V63H142ZM145 64H146V65H145ZM122 65H123V66H122ZM93 70H94V71H93ZM130 70H131V71H130ZM132 70H133V71H132ZM468 72H469V73H468ZM126 73H127V74H126ZM469 73H470V74H469ZM169 74H170V75H169ZM168 75H169V76H168ZM170 75H171V76H170Z"/><path fill="#081018" fill-opacity="0.063" d="M52 0H53V1H52ZM95 2H96V3H95ZM64 4H65V5H64ZM91 4H92V5H91ZM68 5H69V6H68ZM69 6H70V7H69ZM81 6H82V7H81ZM153 9H154V10H153ZM580 72H581V73H580ZM151 73H152V74H151ZM152 74H153V75H152Z"/><path fill="#100810" fill-opacity="0.063" d="M145 9H146V10H145Z"/><path fill="#101010" fill-opacity="0.063" d="M359 73H360V74H359Z"/><path fill="#101018" fill-opacity="0.063" d="M405 55H406V56H405Z"/><path fill="#000008" fill-opacity="0.125" d="M155 4H156V5H155ZM195 4H196V5H195ZM36 6H37V7H36ZM152 7H153V8H152ZM402 54H403V55H402ZM403 55H404V56H403ZM165 56H166V57H165ZM481 60H482V61H481ZM132 61H133V62H132ZM493 62H494V63H493ZM514 62H515V63H514ZM487 64H488V65H487ZM168 71H169V72H168ZM468 71H469V72H468ZM360 72H361V73H360ZM124 74H125V75H124Z"/><path fill="#000010" fill-opacity="0.125" d="M170 8H171V9H170ZM153 54H154V55H153ZM517 71H518V72H517ZM168 72H169V73H168ZM484 73H485V74H484Z"/><path fill="#000018" fill-opacity="0.125" d="M147 69H148V70H147Z"/><path fill="#000800" fill-opacity="0.125" d="M84 55H85V56H84ZM92 59H93V60H92Z"/><path fill="#000808" fill-opacity="0.125" d="M207 0H208V1H207ZM182 6H183V7H182ZM157 52H158V53H157ZM159 52H161V53H159ZM46 55H47V56H46ZM483 56H484V57H483ZM129 61H130V62H129ZM35 66H36V67H35ZM486 69H487V70H486ZM131 70H132V71H131ZM35 72H36V73H35ZM124 73H125V74H124ZM471 73H472V74H471ZM476 73H477V74H476ZM483 73H484V74H483ZM73 74H74V75H73Z"/><path fill="#000810" fill-opacity="0.125" d="M13 0H14V1H13ZM237 0H238V1H237ZM240 0H241V1H240ZM13 1H14V2H13ZM237 1H238V2H237ZM240 1H241V2H240ZM13 2H14V3H13ZM237 2H238V3H237ZM13 3H14V4H13ZM16 6H18V7H16ZM19 6H21V7H19ZM22 6H23V7H22ZM26 6H30V7H26ZM31 6H34V7H31ZM35 6H36V7H35ZM181 6H182V7H181ZM187 6H188V7H187ZM149 8H150V9H149ZM403 53H404V54H403ZM398 54H399V55H398ZM47 55H49V56H47ZM153 55H154V56H153ZM54 57H55V58H54ZM481 57H482V58H481ZM54 58H55V59H54ZM150 58H151V59H150ZM54 59H55V60H54ZM54 60H55V61H54ZM483 60H484V61H483ZM54 61H55V62H54ZM105 61H106V62H105ZM108 61H109V62H108ZM111 61H112V62H111ZM35 62H36V63H35ZM54 62H55V63H54ZM488 62H490V63H488ZM492 62H493V63H492ZM494 62H503V63H494ZM504 62H506V63H504ZM507 62H508V63H507ZM510 62H511V63H510ZM575 62H576V63H575ZM54 63H55V64H54ZM123 63H124V64H123ZM54 64H55V65H54ZM360 64H361V65H360ZM35 65H36V66H35ZM54 65H55V66H54ZM360 65H361V66H360ZM490 65H502V66H490ZM503 65H505V66H503ZM506 65H508V66H506ZM54 66H55V67H54ZM112 66H113V67H112ZM122 66H123V67H122ZM133 66H134V67H133ZM360 66H361V67H360ZM54 67H55V68H54ZM122 67H123V68H122ZM133 67H134V68H133ZM54 68H55V69H54ZM101 68H102V69H101ZM133 68H134V69H133ZM445 69H446V70H445ZM103 70H104V71H103ZM361 71H362V72H361ZM512 71H513V72H512ZM518 71H566V72H518ZM366 72H368V73H366ZM370 72H438V73H370ZM513 72H514V73H513ZM477 73H478V74H477ZM165 74H166V75H165ZM38 75H44V76H38ZM46 75H47V76H46ZM177 75H178V76H177Z"/><path fill="#000818" fill-opacity="0.125" d="M151 8H152V9H151ZM470 52H471V53H470ZM477 53H478V54H477ZM478 54H479V55H478ZM478 55H479V56H478ZM139 64H140V65H139ZM142 64H143V65H142ZM140 66H141V67H140ZM520 68H521V69H520ZM522 68H523V69H522ZM524 68H525V69H524ZM526 68H527V69H526ZM528 68H529V69H528ZM530 68H531V69H530ZM532 68H533V69H532ZM534 68H535V69H534ZM536 68H537V69H536ZM538 68H539V69H538ZM540 68H541V69H540ZM542 68H543V69H542ZM544 68H545V69H544ZM546 68H547V69H546ZM548 68H549V69H548ZM550 68H551V69H550ZM552 68H553V69H552ZM554 68H555V69H554ZM556 68H557V69H556ZM558 68H559V69H558ZM560 68H561V69H560ZM562 68H563V69H562ZM564 68H565V69H564ZM580 71H581V72H580ZM474 74H475V75H474ZM475 75H476V76H475Z"/><path fill="#001000" fill-opacity="0.125" d="M474 52H475V53H474ZM179 74H180V75H179Z"/><path fill="#001008" fill-opacity="0.125" d="M133 5H134V6H133ZM475 53H476V54H475ZM83 55H84V56H83ZM89 55H90V56H89ZM92 60H93V61H92ZM73 61H74V62H73ZM92 61H93V62H92ZM73 62H74V63H73ZM92 62H93V63H92ZM73 63H74V64H73ZM92 63H93V64H92ZM73 64H74V65H73ZM92 64H93V65H92ZM92 65H93V66H92ZM92 66H93V67H92ZM92 67H93V68H92ZM73 68H74V69H73ZM92 68H93V69H92ZM73 69H74V70H73ZM73 70H74V71H73ZM73 71H74V72H73ZM90 72H91V73H90ZM75 75H80V76H75ZM82 75H86V76H82Z"/><path fill="#001010" fill-opacity="0.125" d="M136 0H137V1H136ZM136 1H137V2H136ZM240 2H241V3H240ZM160 3H161V4H160ZM37 4H38V5H37ZM130 5H131V6H130ZM18 6H19V7H18ZM21 6H22V7H21ZM23 6H26V7H23ZM30 6H31V7H30ZM183 6H184V7H183ZM370 54H398V55H370ZM49 55H50V56H49ZM51 55H52V56H51ZM80 55H83V56H80ZM85 55H89V56H85ZM90 55H91V56H90ZM92 56H93V57H92ZM469 57H470V58H469ZM471 57H473V58H471ZM360 60H361V61H360ZM102 61H103V62H102ZM360 61H361V62H360ZM360 62H361V63H360ZM574 62H575V63H574ZM35 63H36V64H35ZM101 63H102V64H101ZM360 63H361V64H360ZM35 64H36V65H35ZM101 64H102V65H101ZM73 65H74V66H73ZM101 65H102V66H101ZM73 66H74V67H73ZM101 66H102V67H101ZM35 67H36V68H35ZM73 67H74V68H73ZM101 67H102V68H101ZM360 67H361V68H360ZM35 68H36V69H35ZM360 68H361V69H360ZM468 68H469V69H468ZM35 69H36V70H35ZM360 69H361V70H360ZM446 69H462V70H446ZM35 70H36V71H35ZM105 70H106V71H105ZM107 70H108V71H107ZM35 71H36V72H35ZM362 71H363V72H362ZM368 72H370V73H368ZM438 72H439V73H438ZM35 73H36V74H35ZM44 75H46V76H44ZM80 75H82V76H80Z"/><path fill="#001018" fill-opacity="0.125" d="M156 0H157V1H156ZM154 4H155V5H154ZM169 7H170V8H169ZM366 54H370V55H366ZM401 56H402V57H401ZM404 57H469V58H404ZM470 57H471V58H470ZM484 58H485V59H484ZM490 62H492V63H490ZM506 62H507V63H506ZM470 65H471V66H470ZM489 65H490V66H489ZM502 65H503V66H502ZM505 65H506V66H505ZM508 65H509V66H508ZM517 68H520V69H517ZM521 68H522V69H521ZM523 68H524V69H523ZM525 68H526V69H525ZM527 68H528V69H527ZM529 68H530V69H529ZM531 68H532V69H531ZM533 68H534V69H533ZM535 68H536V69H535ZM537 68H538V69H537ZM539 68H540V69H539ZM541 68H542V69H541ZM543 68H544V69H543ZM545 68H546V69H545ZM547 68H548V69H547ZM549 68H550V69H549ZM551 68H552V69H551ZM553 68H554V69H553ZM555 68H556V69H555ZM557 68H558V69H557ZM559 68H560V69H559ZM561 68H562V69H561ZM563 68H564V69H563ZM565 68H567V69H565ZM512 69H513V70H512ZM104 70H105V71H104ZM516 71H517V72H516ZM37 75H38V76H37Z"/><path fill="#080008" fill-opacity="0.125" d="M198 7H199V8H198ZM468 70H469V71H468Z"/><path fill="#080010" fill-opacity="0.125" d="M204 9H205V10H204Z"/><path fill="#080808" fill-opacity="0.125" d="M110 0H111V1H110ZM195 1H196V2H195ZM207 1H208V2H207ZM207 2H208V3H207ZM172 3H173V4H172ZM480 57H481V58H480ZM470 73H471V74H470Z"/><path fill="#080810" fill-opacity="0.125" d="M195 0H196V1H195ZM191 2H192V3H191ZM195 2H196V3H195ZM120 3H121V4H120ZM118 5H119V6H118ZM195 5H196V6H195ZM184 6H187V7H184ZM203 8H204V9H203ZM404 54H405V55H404ZM468 69H469V70H468ZM478 73H479V74H478Z"/><path fill="#080818" fill-opacity="0.125" d="M471 53H472V54H471Z"/><path fill="#081008" fill-opacity="0.125" d="M152 52H153V53H152Z"/><path fill="#081010" fill-opacity="0.125" d="M121 0H122V1H121ZM53 1H54V2H53ZM96 1H97V2H96ZM179 3H180V4H179ZM195 3H196V4H195ZM87 4H88V5H87ZM173 4H174V5H173ZM179 4H180V5H179ZM88 5H89V6H88ZM116 5H118V6H116ZM158 52H159V53H158ZM161 52H162V53H161ZM153 53H154V54H153ZM50 55H51V56H50ZM52 55H53V56H52ZM151 56H152V57H151ZM164 56H165V57H164ZM123 62H124V63H123ZM483 62H484V63H483ZM516 62H517V63H516ZM483 63H484V64H483ZM92 71H93V72H92ZM472 73H475V74H472Z"/><path fill="#081018" fill-opacity="0.125" d="M97 2H98V3H97ZM34 6H35V7H34ZM503 62H504V63H503ZM566 71H567V72H566Z"/><path fill="#100808" fill-opacity="0.125" d="M110 1H111V2H110Z"/><path fill="#100810" fill-opacity="0.125" d="M114 5H116V6H114Z"/><path fill="#000008" fill-opacity="0.188" d="M171 5H172V6H171ZM168 7H169V8H168ZM43 55H44V56H43ZM146 63H147V64H146ZM515 63H516V64H515ZM484 65H485V66H484ZM146 66H147V67H146ZM513 70H514V71H513ZM152 73H153V74H152Z"/><path fill="#000010" fill-opacity="0.188" d="M483 64H484V65H483ZM516 68H517V69H516Z"/><path fill="#000800" fill-opacity="0.188" d="M163 5H164V6H163ZM473 60H474V61H473Z"/><path fill="#000808" fill-opacity="0.188" d="M205 6H206V7H205ZM155 53H156V54H155ZM42 55H43V56H42ZM400 55H401V56H400ZM78 56H79V57H78ZM152 56H153V57H152ZM166 58H167V59H166ZM481 58H482V59H481ZM150 59H151V60H150ZM481 59H482V60H481ZM471 62H472V63H471ZM508 62H509V63H508ZM111 64H112V65H111ZM53 70H54V71H53ZM475 73H476V74H475ZM479 73H480V74H479ZM164 74H165V75H164Z"/><path fill="#000810" fill-opacity="0.188" d="M153 4H154V5H153ZM152 5H153V6H152ZM147 6H148V7H147ZM148 7H149V8H148ZM45 55H46V56H45ZM483 57H484V58H483ZM38 58H39V59H38ZM37 59H38V60H37ZM167 59H168V60H167ZM482 60H483V61H482ZM104 61H105V62H104ZM472 61H473V62H472ZM126 62H127V63H126ZM129 62H130V63H129ZM573 62H574V63H573ZM126 63H127V64H126ZM132 63H133V64H132ZM576 63H577V64H576ZM123 64H124V65H123ZM126 64H127V65H126ZM569 64H570V65H569ZM578 64H579V65H578ZM126 65H127V66H126ZM142 65H143V66H142ZM513 65H514V66H513ZM126 66H127V67H126ZM468 67H469V68H468ZM511 67H512V68H511ZM580 67H581V68H580ZM126 68H127V69H126ZM512 68H513V69H512ZM567 68H568V69H567ZM108 69H109V70H108ZM123 69H124V70H123ZM126 69H127V70H126ZM462 69H463V70H462ZM580 70H581V71H580ZM52 71H53V72H52ZM440 71H441V72H440ZM567 71H568V72H567ZM365 72H366V73H365ZM50 73H51V74H50ZM578 74H579V75H578ZM571 75H572V76H571ZM577 75H578V76H577Z"/><path fill="#000818" fill-opacity="0.188" d="M143 2H144V3H143ZM146 5H147V6H146ZM151 5H152V6H151ZM470 64H471V65H470Z"/><path fill="#001000" fill-opacity="0.188" d="M475 57H476V58H475Z"/><path fill="#001008" fill-opacity="0.188" d="M160 2H161V3H160ZM161 4H162V5H161ZM131 5H132V6H131ZM484 57H485V58H484ZM92 58H93V59H92ZM474 59H475V60H474ZM73 72H74V73H73ZM88 73H89V74H88ZM87 74H88V75H87Z"/><path fill="#001010" fill-opacity="0.188" d="M190 0H191V1H190ZM142 1H143V2H142ZM155 2H156V3H155ZM135 3H136V4H135ZM134 4H135V5H134ZM189 5H190V6H189ZM40 56H41V57H40ZM363 56H364V57H363ZM77 57H78V58H77ZM474 58H475V59H474ZM473 59H474V60H473ZM36 60H37V61H36ZM472 60H473V61H472ZM472 62H473V63H472ZM108 63H109V64H108ZM111 63H112V64H111ZM471 63H472V64H471ZM511 63H512V64H511ZM471 64H472V65H471ZM509 65H510V66H509ZM510 66H511V67H510ZM92 69H93V70H92ZM464 69H466V70H464ZM106 70H107V71H106ZM51 72H52V73H51Z"/><path fill="#001018" fill-opacity="0.188" d="M35 0H36V1H35ZM35 1H36V2H35ZM35 2H36V3H35ZM145 4H146V5H145ZM14 5H15V6H14ZM364 55H365V56H364ZM403 57H404V58H403ZM107 61H108V62H107ZM105 62H106V63H105ZM108 62H109V63H108ZM512 64H513V65H512ZM579 65H580V66H579ZM111 68H112V69H111ZM467 68H468V69H467ZM580 68H581V69H580ZM444 69H445V70H444ZM441 70H442V71H441ZM514 70H515V71H514ZM363 71H364V72H363ZM579 73H580V74H579Z"/><path fill="#001808" fill-opacity="0.188" d="M127 3H128V4H127Z"/><path fill="#001810" fill-opacity="0.188" d="M75 59H76V60H75Z"/><path fill="#080800" fill-opacity="0.188" d="M159 1H160V2H159ZM173 1H174V2H173ZM163 56H164V57H163ZM149 70H150V71H149Z"/><path fill="#080808" fill-opacity="0.188" d="M111 3H112V4H111ZM206 4H207V5H206ZM199 7H200V8H199ZM154 55H155V56H154ZM153 56H154V57H153ZM169 61H170V62H169ZM147 62H148V63H147ZM170 62H171V63H170ZM485 67H486V68H485ZM169 68H170V69H169ZM150 71H151V72H150ZM485 71H486V72H485ZM154 75H155V76H154Z"/><path fill="#080810" fill-opacity="0.188" d="M97 0H98V1H97ZM112 4H113V5H112ZM478 56H479V57H478ZM149 60H150V61H149ZM168 60H169V61H168ZM171 66H172V67H171ZM148 69H149V70H148ZM163 75H164V76H163Z"/><path fill="#080818" fill-opacity="0.188" d="M146 67H147V68H146Z"/><path fill="#081008" fill-opacity="0.188" d="M171 4H172V5H171ZM165 6H166V7H165ZM477 56H478V57H477ZM172 64H173V65H172Z"/><path fill="#081010" fill-opacity="0.188" d="M54 0H55V1H54ZM99 1H100V2H99ZM179 2H180V3H179ZM190 4H191V5H190ZM39 57H40V58H39ZM126 61H127V62H126ZM130 61H131V62H130ZM129 63H130V64H129ZM129 64H130V65H129ZM126 67H127V68H126ZM168 70H169V71H168ZM167 73H168V74H167ZM480 73H481V74H480ZM482 73H483V74H482ZM48 74H49V75H48Z"/><path fill="#081018" fill-opacity="0.188" d="M179 0H180V1H179ZM571 63H572V64H571ZM132 64H133V65H132Z"/><path fill="#081810" fill-opacity="0.188" d="M128 4H129V5H128Z"/><path fill="#100810" fill-opacity="0.188" d="M120 2H121V3H120ZM148 61H149V62H148Z"/><path fill="#101010" fill-opacity="0.188" d="M172 2H173V3H172Z"/><path fill="#000008" fill-opacity="0.251" d="M171 7H172V8H171ZM129 69H130V70H129Z"/><path fill="#000010" fill-opacity="0.251" d="M569 74H570V75H569Z"/><path fill="#000808" fill-opacity="0.251" d="M151 58H152V59H151ZM165 73H166V74H165Z"/><path fill="#000810" fill-opacity="0.251" d="M151 6H152V7H151ZM515 67H516V68H515ZM568 73H569V74H568Z"/><path fill="#001008" fill-opacity="0.251" d="M169 6H170V7H169ZM90 71H91V72H90Z"/><path fill="#001010" fill-opacity="0.251" d="M154 2H155V3H154ZM35 3H36V4H35ZM108 64H109V65H108ZM470 66H471V67H470ZM469 67H470V68H469ZM108 68H109V69H108ZM442 69H443V70H442Z"/><path fill="#001018" fill-opacity="0.251" d="M16 0H17V1H16ZM362 57H363V58H362ZM401 57H402V58H401ZM361 58H362V59H361ZM105 63H106V64H105ZM469 65H470V66H469ZM514 66H515V67H514ZM568 66H569V67H568Z"/><path fill="#001808" fill-opacity="0.251" d="M126 1H127V2H126Z"/><path fill="#080008" fill-opacity="0.251" d="M196 6H197V7H196Z"/><path fill="#080010" fill-opacity="0.251" d="M205 8H206V9H205Z"/><path fill="#080800" fill-opacity="0.251" d="M171 63H172V64H171Z"/><path fill="#080808" fill-opacity="0.251" d="M479 57H480V58H479ZM481 61H482V62H481Z"/><path fill="#080810" fill-opacity="0.251" d="M147 68H148V69H147Z"/><path fill="#081008" fill-opacity="0.251" d="M202 7H203V8H202Z"/><path fill="#081010" fill-opacity="0.251" d="M204 7H205V8H204Z"/><path fill="#081018" fill-opacity="0.251" d="M162 54H163V55H162ZM129 65H130V66H129Z"/><path fill="#000000" fill-opacity="1.000" d="M170 6H171V7H170ZM147 9H148V10H147ZM152 53H153V54H152ZM162 55H163V56H162ZM151 57H152V58H151ZM165 58H166V59H165ZM149 61H150V62H149ZM169 62H170V63H169ZM170 66H171V67H170ZM169 67H170V68H169ZM92 70H93V71H92ZM166 71H167V72H166ZM167 72H168V73H167ZM469 72H470V73H469ZM166 73H167V74H166ZM481 73H482V74H481ZM162 75H163V76H162ZM169 75H170V76H169Z"/><path fill="#000008" fill-opacity="1.000" d="M359 55H360V56H359Z"/><path fill="#000010" fill-opacity="1.000" d="M572 72H573V73H572ZM576 72H577V73H576Z"/><path fill="#000020" fill-opacity="1.000" d="M483 59H484V60H483ZM146 69H147V70H146Z"/><path fill="#000800" fill-opacity="1.000" d="M155 3H156V4H155ZM161 3H162V4H161ZM170 5H171V6H170ZM173 5H174V6H173ZM168 6H169V7H168ZM167 7H168V8H167ZM203 7H204V8H203ZM153 52H154V53H153ZM475 52H476V53H475ZM156 53H157V54H156ZM161 53H162V54H161ZM156 54H157V55H156ZM161 54H162V55H161ZM476 56H477V57H476ZM484 56H485V57H484ZM478 57H479V58H478ZM485 57H486V58H485ZM479 58H480V59H479ZM167 60H168V61H167ZM142 61H143V62H142ZM482 62H483V63H482ZM172 63H173V64H172ZM143 66H144V67H143ZM147 67H148V68H147ZM168 68H169V69H168ZM167 69H168V70H167ZM167 70H168V71H167ZM91 71H92V72H91ZM151 72H152V73H151ZM470 72H471V73H470ZM472 72H473V73H472ZM475 72H476V73H475ZM482 72H484V73H482ZM153 74H154V75H153Z"/><path fill="#000808" fill-opacity="1.000" d="M150 7H151V8H150Z"/><path fill="#000810" fill-opacity="1.000" d="M23 3H24V4H23ZM572 65H574V66H572ZM575 65H576V66H575ZM571 66H572V67H571ZM573 66H574V67H573ZM570 67H571V68H570ZM572 67H573V68H572ZM570 68H572V69H570ZM569 69H570V70H569ZM576 69H577V70H576ZM578 69H579V70H578ZM571 70H572V71H571ZM578 70H579V71H578ZM570 71H571V72H570ZM572 71H573V72H572ZM577 71H578V72H577ZM571 72H572V73H571ZM575 73H576V74H575Z"/><path fill="#000818" fill-opacity="1.000" d="M575 67H576V68H575ZM577 68H578V69H577ZM576 70H578V71H576ZM576 71H577V72H576ZM573 72H574V73H573ZM575 72H576V73H575ZM574 73H575V74H574Z"/><path fill="#000820" fill-opacity="1.000" d="M470 53H471V54H470ZM482 58H484V59H482ZM482 59H483V60H482ZM140 64H142V65H140ZM139 65H142V66H139Z"/><path fill="#001000" fill-opacity="1.000" d="M162 4H163V5H162ZM159 53H160V54H159ZM485 56H486V57H485ZM475 58H476V59H475ZM475 59H476V60H475ZM74 60H75V61H74ZM473 62H474V63H473ZM472 63H473V64H472ZM472 64H473V65H472ZM470 67H471V68H470ZM469 68H470V69H469ZM178 74H179V75H178ZM178 75H180V76H178Z"/><path fill="#001008" fill-opacity="1.000" d="M132 5H133V6H132Z"/><path fill="#001010" fill-opacity="1.000" d="M47 58H48V59H47ZM51 58H52V59H51ZM576 66H578V67H576ZM576 67H577V68H576Z"/><path fill="#001018" fill-opacity="1.000" d="M16 1H17V2H16ZM16 2H17V3H16ZM16 3H18V4H16ZM19 3H20V4H19ZM24 3H25V4H24ZM26 3H30V4H26ZM33 3H34V4H33ZM149 7H150V8H149ZM399 55H400V56H399ZM473 58H474V59H473ZM574 65H575V66H574ZM576 65H577V66H576ZM469 66H470V67H469ZM515 66H516V67H515ZM572 66H573V67H572ZM574 66H576V67H574ZM108 67H109V68H108ZM571 67H572V68H571ZM577 67H578V68H577ZM576 68H577V69H576ZM578 68H579V69H578ZM570 69H572V70H570ZM577 69H578V70H577ZM361 70H362V71H361ZM570 70H571V71H570ZM106 71H107V72H106ZM575 71H576V72H575ZM568 72H569V73H568ZM574 72H575V73H574ZM577 72H578V73H577ZM573 73H574V74H573Z"/><path fill="#001020" fill-opacity="1.000" d="M153 0H154V1H153ZM155 1H156V2H155ZM151 2H152V3H151ZM144 3H145V4H144ZM153 3H154V4H153ZM150 8H151V9H150ZM171 8H172V9H171ZM171 9H172V10H171ZM402 57H403V58H402ZM573 67H574V68H573ZM571 71H572V72H571ZM572 73H573V74H572ZM475 74H476V75H475ZM474 75H475V76H474Z"/><path fill="#001028" fill-opacity="1.000" d="M146 2H147V3H146ZM148 4H150V5H148Z"/><path fill="#001810" fill-opacity="1.000" d="M126 0H127V1H126ZM126 2H127V3H126ZM135 2H136V3H135ZM133 4H134V5H133ZM92 57H93V58H92ZM91 70H92V71H91ZM86 74H87V75H86Z"/><path fill="#001818" fill-opacity="1.000" d="M154 3H155V4H154ZM361 57H362V58H361ZM108 65H109V66H108ZM111 65H112V66H111ZM108 66H109V67H108ZM111 66H112V67H111ZM111 67H112V68H111ZM463 69H464V70H463ZM89 72H90V73H89Z"/><path fill="#001820" fill-opacity="1.000" d="M34 3H35V4H34ZM150 3H151V4H150ZM152 4H153V5H152ZM150 6H151V7H150ZM400 56H401V57H400ZM470 63H471V64H470ZM570 66H571V67H570ZM443 69H444V70H443ZM570 72H571V73H570ZM571 73H572V74H571ZM576 73H577V74H576Z"/><path fill="#001828" fill-opacity="1.000" d="M144 0H145V1H144ZM152 1H153V2H152Z"/><path fill="#001830" fill-opacity="1.000" d="M145 1H146V2H145ZM147 3H148V4H147Z"/><path fill="#002010" fill-opacity="1.000" d="M127 2H128V3H127ZM128 3H129V4H128ZM134 3H135V4H134ZM130 4H133V5H130Z"/><path fill="#002018" fill-opacity="1.000" d="M135 1H136V2H135Z"/><path fill="#002020" fill-opacity="1.000" d="M239 3H240V4H239ZM105 64H106V65H105ZM105 69H106V70H105Z"/><path fill="#002028" fill-opacity="1.000" d="M362 70H363V71H362Z"/><path fill="#002818" fill-opacity="1.000" d="M134 2H135V3H134Z"/><path fill="#002838" fill-opacity="1.000" d="M145 0H146V1H145Z"/><path fill="#003010" fill-opacity="1.000" d="M129 3H130V4H129ZM132 3H133V4H132Z"/><path fill="#003018" fill-opacity="1.000" d="M127 0H128V1H127ZM127 1H128V2H127ZM134 1H135V2H134ZM133 3H134V4H133Z"/><path fill="#003818" fill-opacity="1.000" d="M128 2H129V3H128ZM131 3H132V4H131Z"/><path fill="#003820" fill-opacity="1.000" d="M134 0H135V1H134Z"/><path fill="#003848" fill-opacity="1.000" d="M146 1H147V2H146Z"/><path fill="#003850" fill-opacity="1.000" d="M147 2H148V3H147ZM148 3H149V4H148Z"/><path fill="#004020" fill-opacity="1.000" d="M133 2H134V3H133ZM130 3H131V4H130Z"/><path fill="#004050" fill-opacity="1.000" d="M152 0H153V1H152Z"/><path fill="#004860" fill-opacity="1.000" d="M149 3H150V4H149Z"/><path fill="#005068" fill-opacity="1.000" d="M151 1H152V2H151Z"/><path fill="#005830" fill-opacity="1.000" d="M128 1H129V2H128Z"/><path fill="#080000" fill-opacity="1.000" d="M171 0H172V1H171ZM196 5H197V6H196ZM205 5H206V6H205Z"/><path fill="#080800" fill-opacity="1.000" d="M159 0H160V1H159ZM162 0H163V1H162ZM164 2H165V3H164ZM171 3H172V4H171ZM167 4H168V5H167ZM170 4H171V5H170ZM201 7H202V8H201ZM154 56H155V57H154ZM164 57H165V58H164ZM166 59H167V60H166ZM480 59H481V60H480ZM148 62H149V63H148ZM146 64H147V65H146ZM171 64H172V65H171ZM146 65H147V66H146ZM485 68H486V69H485ZM469 69H470V70H469ZM485 69H486V70H485ZM165 72H166V73H165ZM473 72H475V73H473ZM479 72H481V73H479ZM164 73H165V74H164ZM154 74H155V75H154ZM155 75H156V76H155ZM161 75H162V76H161Z"/><path fill="#080808" fill-opacity="1.000" d="M204 6H205V7H204Z"/><path fill="#080818" fill-opacity="1.000" d="M198 9H199V10H198ZM173 75H174V76H173Z"/><path fill="#080820" fill-opacity="1.000" d="M173 3H174V4H173ZM471 52H472V53H471ZM479 55H480V56H479ZM145 68H147V69H145ZM145 69H146V70H145Z"/><path fill="#081000" fill-opacity="1.000" d="M160 1H161V2H160ZM161 2H162V3H161ZM165 3H166V4H165ZM163 4H164V5H163ZM169 5H170V6H169ZM166 7H167V8H166ZM157 53H159V54H157ZM160 53H161V54H160ZM160 54H161V55H160ZM152 57H154V58H152ZM476 57H477V58H476ZM152 58H153V59H152ZM480 58H481V59H480ZM151 59H152V60H151ZM474 60H475V61H474ZM168 61H169V62H168ZM481 62H482V63H481ZM147 63H148V64H147ZM170 63H171V64H170ZM482 63H483V64H482ZM170 64H171V65H170ZM482 64H483V65H482ZM170 65H171V66H170ZM471 65H472V66H471ZM471 66H472V67H471ZM166 70H167V71H166ZM470 71H471V72H470ZM484 71H485V72H484ZM477 72H479V73H477ZM163 73H164V74H163Z"/><path fill="#081008" fill-opacity="1.000" d="M173 63H174V64H173ZM163 74H164V75H163Z"/><path fill="#081010" fill-opacity="1.000" d="M49 59H50V60H49ZM40 61H41V62H40ZM47 68H48V69H47ZM50 68H51V69H50ZM48 69H49V70H48Z"/><path fill="#081018" fill-opacity="1.000" d="M98 0H99V1H98ZM100 0H101V1H100ZM97 1H99V2H97ZM179 1H180V2H179ZM22 2H23V3H22ZM96 2H97V3H96ZM18 3H19V4H18ZM20 3H22V4H20ZM30 3H33V4H30ZM58 3H61V4H58ZM92 3H93V4H92ZM94 3H95V4H94ZM63 4H64V5H63ZM88 4H89V5H88ZM65 5H68V6H65ZM87 5H88V6H87ZM155 5H156V6H155ZM180 5H181V6H180ZM188 5H189V6H188ZM79 6H81V7H79ZM152 6H153V7H152ZM37 7H38V8H37ZM170 7H171V8H170ZM152 9H153V10H152ZM476 52H477V53H476ZM363 53H364V54H363ZM402 53H403V54H402ZM41 55H42V56H41ZM44 55H45V56H44ZM152 55H153V56H152ZM479 56H480V57H479ZM482 56H483V57H482ZM150 57H151V58H150ZM488 60H489V61H488ZM570 60H571V61H570ZM125 61H126V62H125ZM132 62H133V63H132ZM515 62H516V63H515ZM514 63H515V64H514ZM516 63H517V64H516ZM511 64H512V65H511ZM517 65H518V66H517ZM568 65H569V66H568ZM129 67H130V68H129ZM466 69H467V70H466ZM513 69H514V70H513ZM511 70H512V71H511ZM513 71H514V72H513ZM364 72H365V73H364ZM512 72H513V73H512ZM49 73H50V74H49ZM53 73H54V74H53ZM123 73H124V74H123ZM166 74H167V75H166ZM479 74H480V75H479ZM484 74H485V75H484ZM124 75H125V76H124Z"/><path fill="#081020" fill-opacity="1.000" d="M19 0H20V1H19ZM23 0H24V1H23ZM26 0H27V1H26ZM29 0H30V1H29ZM33 0H34V1H33ZM25 1H26V2H25ZM28 1H29V2H28ZM33 1H34V2H33ZM19 2H20V3H19ZM25 2H27V3H25ZM28 2H29V3H28ZM33 2H34V3H33ZM478 53H479V54H478ZM152 54H153V55H152ZM477 54H478V55H477ZM482 57H483V58H482ZM580 66H581V67H580ZM574 67H575V68H574ZM169 72H170V73H169ZM568 74H569V75H568Z"/><path fill="#081808" fill-opacity="1.000" d="M473 61H474V62H473Z"/><path fill="#081810" fill-opacity="1.000" d="M129 4H130V5H129ZM171 6H172V7H171ZM474 53H475V54H474ZM44 60H45V61H44ZM41 64H43V65H41ZM47 64H48V65H47ZM45 65H46V66H45ZM47 65H48V66H47ZM43 66H46V67H43ZM47 66H48V67H47ZM42 67H44V68H42ZM47 67H48V68H47ZM42 68H46V69H42ZM49 68H50V69H49ZM46 69H47V70H46ZM47 70H48V71H47Z"/><path fill="#081818" fill-opacity="1.000" d="M159 3H160V4H159ZM182 5H184V6H182ZM471 55H472V56H471ZM41 58H44V59H41ZM45 58H46V59H45ZM48 58H49V59H48ZM50 58H51V59H50ZM40 59H41V60H40ZM42 59H43V60H42ZM44 59H45V60H44ZM46 59H48V60H46ZM50 59H51V60H50ZM40 60H41V61H40ZM47 60H48V61H47ZM49 60H52V61H49ZM39 61H40V62H39ZM50 61H52V62H50ZM37 62H40V63H37ZM43 62H44V63H43ZM47 62H48V63H47ZM50 62H52V63H50ZM111 62H112V63H111ZM37 63H39V64H37ZM42 63H44V64H42ZM47 63H48V64H47ZM50 63H52V64H50ZM37 64H39V65H37ZM50 64H52V65H50ZM37 65H42V66H37ZM50 65H52V66H50ZM50 66H52V67H50ZM37 67H38V68H37ZM39 67H41V68H39ZM50 67H52V68H50ZM37 68H42V69H37ZM37 69H38V70H37ZM42 69H46V70H42ZM38 70H47V71H38ZM49 70H50V71H49ZM37 71H38V72H37ZM40 71H46V72H40ZM47 71H49V72H47ZM38 72H47V73H38Z"/><path fill="#081820" fill-opacity="1.000" d="M17 0H19V1H17ZM34 0H35V1H34ZM17 1H20V2H17ZM34 1H35V2H34ZM17 2H19V3H17ZM34 2H35V3H34ZM25 3H26V4H25ZM509 62H510V63H509ZM572 62H573V63H572ZM513 66H514V67H513ZM514 67H515V68H514ZM569 70H570V71H569ZM578 71H579V72H578ZM37 72H38V73H37ZM576 75H577V76H576Z"/><path fill="#082018" fill-opacity="1.000" d="M135 0H136V1H135ZM76 58H77V59H76ZM73 73H74V74H73ZM74 74H75V75H74ZM76 74H77V75H76ZM84 74H86V75H84Z"/><path fill="#082020" fill-opacity="1.000" d="M102 62H103V63H102ZM104 62H105V63H104ZM80 74H82V75H80Z"/><path fill="#082028" fill-opacity="1.000" d="M361 59H362V60H361Z"/><path fill="#082818" fill-opacity="1.000" d="M75 74H76V75H75Z"/><path fill="#082828" fill-opacity="1.000" d="M361 69H362V70H361Z"/><path fill="#082830" fill-opacity="1.000" d="M363 57H364V58H363ZM362 58H363V59H362Z"/><path fill="#083030" fill-opacity="1.000" d="M239 0H240V1H239ZM364 56H365V57H364Z"/><path fill="#083038" fill-opacity="1.000" d="M468 66H469V67H468Z"/><path fill="#085058" fill-opacity="1.000" d="M150 2H151V3H150Z"/><path fill="#086038" fill-opacity="1.000" d="M133 1H134V2H133Z"/><path fill="#086840" fill-opacity="1.000" d="M128 0H129V1H128Z"/><path fill="#088048" fill-opacity="1.000" d="M129 1H130V2H129Z"/><path fill="#100000" fill-opacity="1.000" d="M206 1H207V2H206ZM206 3H207V4H206ZM203 6H204V7H203Z"/><path fill="#100008" fill-opacity="1.000" d="M197 6H198V7H197Z"/><path fill="#100018" fill-opacity="1.000" d="M206 8H207V9H206ZM206 9H207V10H206Z"/><path fill="#100800" fill-opacity="1.000" d="M163 1H164V2H163ZM170 1H171V2H170ZM168 3H169V4H168ZM200 7H201V8H200Z"/><path fill="#100808" fill-opacity="1.000" d="M206 0H207V1H206ZM111 2H112V3H111ZM113 4H114V5H113ZM118 4H119V5H118Z"/><path fill="#100810" fill-opacity="1.000" d="M119 4H120V5H119ZM204 8H205V9H204ZM71 75H72V76H71Z"/><path fill="#100818" fill-opacity="1.000" d="M185 5H187V6H185ZM205 9H206V10H205Z"/><path fill="#101000" fill-opacity="1.000" d="M162 3H163V4H162ZM166 4H167V5H166ZM155 55H156V56H155ZM162 56H163V57H162ZM163 57H164V58H163ZM150 60H151V61H150ZM480 60H481V61H480ZM483 65H484V66H483ZM483 66H485V67H483ZM484 67H485V68H484ZM148 68H149V69H148ZM149 69H150V70H149ZM150 70H151V71H150ZM151 71H152V72H151ZM165 71H166V72H165ZM469 71H470V72H469ZM152 72H153V73H152ZM164 72H165V73H164ZM471 72H472V73H471ZM476 72H477V73H476ZM153 73H154V74H153ZM162 74H163V75H162Z"/><path fill="#101008" fill-opacity="1.000" d="M155 54H156V55H155ZM171 65H172V66H171ZM168 69H169V70H168Z"/><path fill="#101010" fill-opacity="1.000" d="M146 9H147V10H146ZM165 57H166V58H165ZM166 72H167V73H166Z"/><path fill="#101018" fill-opacity="1.000" d="M53 0H54V1H53ZM99 0H100V1H99ZM54 1H56V2H54ZM93 3H94V4H93ZM190 3H191V4H190ZM62 4H63V5H62ZM89 4H91V5H89ZM83 5H87V6H83ZM184 5H185V6H184ZM70 6H79V7H70ZM195 6H196V7H195ZM144 10H145V11H144ZM403 54H404V55H403ZM404 55H405V56H404ZM127 61H128V62H127ZM482 61H483V62H482ZM575 61H576V62H575ZM143 65H144V66H143ZM132 69H133V70H132ZM167 71H168V72H167ZM112 72H113V73H112ZM359 72H360V73H359ZM361 72H362V73H361ZM484 72H485V73H484ZM93 73H94V74H93ZM125 73H126V74H125ZM445 73H446V74H445ZM514 73H515V74H514Z"/><path fill="#101020" fill-opacity="1.000" d="M20 0H23V1H20ZM25 0H26V1H25ZM30 0H33V1H30ZM21 1H24V2H21ZM31 1H33V2H31ZM20 2H22V3H20ZM30 2H32V3H30ZM187 5H188V6H187ZM165 55H166V56H165Z"/><path fill="#101800" fill-opacity="1.000" d="M161 55H162V56H161ZM164 58H165V59H164ZM165 59H166V60H165ZM479 59H480V60H479ZM166 60H167V61H166ZM167 61H168V62H167ZM480 61H481V62H480ZM168 62H169V63H168ZM483 71H484V72H483ZM481 72H482V73H481Z"/><path fill="#101810" fill-opacity="1.000" d="M43 64H44V65H43ZM45 64H47V65H45ZM42 65H43V66H42ZM44 65H45V66H44ZM46 65H47V66H46ZM46 66H47V67H46ZM44 67H45V68H44ZM46 67H47V68H46ZM170 67H171V68H170Z"/><path fill="#101818" fill-opacity="1.000" d="M180 0H181V1H180ZM190 1H191V2H190ZM190 2H191V3H190ZM44 58H45V59H44ZM49 58H50V59H49ZM41 59H42V60H41ZM45 59H46V60H45ZM41 60H44V61H41ZM45 60H47V61H45ZM48 60H49V61H48ZM41 61H50V62H41ZM40 62H43V63H40ZM44 62H47V63H44ZM48 62H50V63H48ZM39 63H42V64H39ZM44 63H47V64H44ZM48 63H50V64H48ZM39 64H41V65H39ZM44 64H45V65H44ZM48 64H50V65H48ZM43 65H44V66H43ZM48 65H50V66H48ZM38 66H43V67H38ZM48 66H50V67H48ZM129 66H130V67H129ZM38 67H39V68H38ZM41 67H42V68H41ZM48 67H50V68H48ZM129 68H130V69H129ZM38 69H42V70H38ZM51 69H52V70H51ZM48 70H49V71H48ZM50 70H51V71H50ZM38 71H40V72H38Z"/><path fill="#101820" fill-opacity="1.000" d="M27 0H29V1H27ZM20 1H21V2H20ZM24 1H25V2H24ZM26 1H28V2H26ZM29 1H31V2H29ZM180 1H181V2H180ZM23 2H25V3H23ZM27 2H28V3H27ZM29 2H30V3H29ZM32 2H33V3H32ZM22 3H23V4H22ZM180 4H181V5H180ZM181 5H182V6H181ZM151 7H152V8H151ZM162 53H163V54H162ZM128 61H129V62H128ZM130 62H131V63H130ZM487 63H488V64H487ZM512 65H513V66H512ZM515 68H516V69H515ZM569 68H570V69H569ZM127 69H128V70H127ZM130 69H131V70H130Z"/><path fill="#101828" fill-opacity="1.000" d="M24 0H25V1H24Z"/><path fill="#102018" fill-opacity="1.000" d="M45 67H46V68H45ZM46 68H47V69H46ZM48 68H49V69H48ZM49 69H50V70H49ZM46 71H47V72H46ZM77 74H80V75H77ZM82 74H84V75H82Z"/><path fill="#102020" fill-opacity="1.000" d="M189 0H190V1H189ZM46 58H47V59H46ZM43 59H44V60H43ZM48 59H49V60H48ZM51 59H52V60H51ZM39 60H40V61H39ZM52 60H53V61H52ZM38 61H39V62H38ZM52 62H53V63H52ZM52 63H53V64H52ZM510 63H511V64H510ZM52 64H53V65H52ZM52 65H53V66H52ZM37 66H38V67H37ZM52 66H53V67H52ZM52 67H53V68H52ZM51 68H53V69H51ZM47 69H48V70H47ZM50 69H51V70H50ZM37 70H38V71H37ZM49 71H50V72H49ZM47 72H48V73H47ZM37 74H38V75H37Z"/><path fill="#102028" fill-opacity="1.000" d="M16 5H18V6H16ZM19 5H20V6H19ZM21 5H23V6H21ZM28 5H30V6H28ZM31 5H34V6H31ZM35 5H36V6H35ZM52 61H53V62H52ZM110 61H111V62H110ZM572 63H573V64H572ZM578 67H579V68H578ZM573 71H574V72H573Z"/><path fill="#102030" fill-opacity="1.000" d="M181 4H182V5H181Z"/><path fill="#102828" fill-opacity="1.000" d="M23 5H28V6H23ZM30 5H31V6H30ZM104 69H105V70H104Z"/><path fill="#102830" fill-opacity="1.000" d="M34 5H35V6H34ZM36 5H37V6H36ZM102 63H103V64H102ZM439 71H440V72H439ZM574 71H575V72H574Z"/><path fill="#103030" fill-opacity="1.000" d="M239 2H240V3H239ZM365 55H366V56H365Z"/><path fill="#103838" fill-opacity="1.000" d="M239 1H240V2H239Z"/><path fill="#103840" fill-opacity="1.000" d="M142 0H143V1H142ZM400 57H401V58H400Z"/><path fill="#104050" fill-opacity="1.000" d="M145 3H146V4H145Z"/><path fill="#106038" fill-opacity="1.000" d="M129 2H130V3H129ZM132 2H133V3H132Z"/><path fill="#107040" fill-opacity="1.000" d="M133 0H134V1H133ZM130 2H132V3H130Z"/><path fill="#108048" fill-opacity="1.000" d="M132 1H133V2H132Z"/><path fill="#109858" fill-opacity="1.000" d="M129 0H130V1H129Z"/><path fill="#180000" fill-opacity="1.000" d="M196 0H197V1H196ZM206 2H207V3H206ZM198 6H199V7H198Z"/><path fill="#180808" fill-opacity="1.000" d="M119 3H120V4H119ZM117 4H118V5H117Z"/><path fill="#180810" fill-opacity="1.000" d="M120 1H121V2H120Z"/><path fill="#181000" fill-opacity="1.000" d="M169 2H170V3H169Z"/><path fill="#181800" fill-opacity="1.000" d="M169 63H170V64H169ZM470 68H471V69H470ZM484 68H485V69H484ZM156 75H157V76H156Z"/><path fill="#182000" fill-opacity="1.000" d="M474 61H475V62H474ZM147 66H148V67H147ZM148 67H149V68H148ZM149 68H150V69H149ZM152 71H153V72H152ZM471 71H473V72H471ZM153 72H154V73H153ZM154 73H155V74H154Z"/><path fill="#182010" fill-opacity="1.000" d="M164 5H165V6H164Z"/><path fill="#182020" fill-opacity="1.000" d="M189 4H190V5H189ZM52 58H53V59H52ZM52 59H53V60H52ZM109 61H110V62H109Z"/><path fill="#182028" fill-opacity="1.000" d="M180 2H181V3H180ZM48 72H49V73H48ZM50 72H51V73H50ZM38 74H40V75H38Z"/><path fill="#182030" fill-opacity="1.000" d="M184 4H185V5H184ZM20 5H21V6H20Z"/><path fill="#182828" fill-opacity="1.000" d="M36 74H37V75H36ZM40 74H48V75H40Z"/><path fill="#182830" fill-opacity="1.000" d="M14 0H15V1H14ZM14 1H15V2H14ZM14 2H15V3H14ZM14 3H15V4H14ZM14 4H15V5H14ZM18 5H19V6H18ZM571 65H572V66H571ZM572 68H573V69H572ZM102 69H103V70H102ZM580 69H581V70H580Z"/><path fill="#183028" fill-opacity="1.000" d="M79 56H80V57H79ZM87 73H88V74H87Z"/><path fill="#183030" fill-opacity="1.000" d="M183 4H184V5H183Z"/><path fill="#183038" fill-opacity="1.000" d="M103 69H104V70H103Z"/><path fill="#183838" fill-opacity="1.000" d="M471 61H472V62H471ZM104 63H105V64H104ZM106 69H108V70H106Z"/><path fill="#183840" fill-opacity="1.000" d="M102 64H103V65H102Z"/><path fill="#184040" fill-opacity="1.000" d="M105 67H106V68H105Z"/><path fill="#184048" fill-opacity="1.000" d="M147 5H148V6H147Z"/><path fill="#184050" fill-opacity="1.000" d="M146 4H147V5H146Z"/><path fill="#184838" fill-opacity="1.000" d="M84 72H85V73H84Z"/><path fill="#184848" fill-opacity="1.000" d="M105 65H106V66H105ZM105 66H106V67H105Z"/><path fill="#18b870" fill-opacity="1.000" d="M131 0H132V1H131Z"/><path fill="#200000" fill-opacity="1.000" d="M205 0H206V1H205ZM196 3H197V4H196Z"/><path fill="#200008" fill-opacity="1.000" d="M111 0H112V1H111Z"/><path fill="#200808" fill-opacity="1.000" d="M111 1H112V2H111ZM196 1H197V2H196ZM114 4H117V5H114Z"/><path fill="#200810" fill-opacity="1.000" d="M120 0H121V1H120ZM112 3H113V4H112Z"/><path fill="#202000" fill-opacity="1.000" d="M150 69H151V70H150ZM151 70H152V71H151ZM155 74H156V75H155Z"/><path fill="#202010" fill-opacity="1.000" d="M469 70H470V71H469ZM485 70H486V71H485Z"/><path fill="#202028" fill-opacity="1.000" d="M131 69H132V70H131Z"/><path fill="#202030" fill-opacity="1.000" d="M180 3H181V4H180ZM185 4H186V5H185Z"/><path fill="#202800" fill-opacity="1.000" d="M473 71H474V72H473ZM480 71H482V72H480Z"/><path fill="#202830" fill-opacity="1.000" d="M189 3H190V4H189ZM188 4H189V5H188ZM131 61H132V62H131ZM570 64H571V65H570ZM123 65H124V66H123ZM125 69H126V70H125ZM128 69H129V70H128Z"/><path fill="#203000" fill-opacity="1.000" d="M147 64H148V65H147ZM482 71H483V72H482Z"/><path fill="#203030" fill-opacity="1.000" d="M181 0H182V1H181ZM189 1H190V2H189ZM15 5H16V6H15ZM53 56H54V57H53ZM38 60H39V61H38ZM37 61H38V62H37ZM515 70H516V71H515Z"/><path fill="#203038" fill-opacity="1.000" d="M182 4H183V5H182ZM572 70H573V71H572Z"/><path fill="#203838" fill-opacity="1.000" d="M77 58H78V59H77Z"/><path fill="#203840" fill-opacity="1.000" d="M106 61H107V62H106ZM364 71H365V72H364ZM438 71H439V72H438Z"/><path fill="#204030" fill-opacity="1.000" d="M76 62H77V63H76ZM77 67H78V68H77Z"/><path fill="#204038" fill-opacity="1.000" d="M81 56H83V57H81ZM86 56H88V57H86ZM80 58H81V59H80ZM76 59H77V60H76ZM74 61H75V62H74ZM86 69H87V70H86ZM88 70H89V71H88ZM86 71H87V72H86ZM88 72H89V73H88Z"/><path fill="#204040" fill-opacity="1.000" d="M105 68H106V69H105ZM109 69H111V70H109ZM366 71H372V72H366ZM375 71H438V72H375Z"/><path fill="#204048" fill-opacity="1.000" d="M148 6H149V7H148ZM372 71H375V72H372Z"/><path fill="#204050" fill-opacity="1.000" d="M143 1H144V2H143Z"/><path fill="#204830" fill-opacity="1.000" d="M89 69H90V70H89Z"/><path fill="#204838" fill-opacity="1.000" d="M81 58H85V59H81ZM86 58H90V59H86ZM79 59H81V60H79ZM82 59H88V60H82ZM89 59H91V60H89ZM77 61H78V62H77ZM77 62H78V63H77ZM76 63H77V64H76ZM77 64H78V65H77ZM87 64H88V65H87ZM89 64H90V65H89ZM76 65H78V66H76ZM87 65H89V66H87ZM76 66H77V67H76ZM87 66H89V67H87ZM86 67H89V68H86ZM76 68H77V69H76ZM86 68H90V69H86ZM76 69H77V70H76ZM87 69H88V70H87ZM76 70H77V71H76ZM76 71H78V72H76ZM77 72H80V73H77ZM82 72H84V73H82ZM85 72H86V73H85Z"/><path fill="#204840" fill-opacity="1.000" d="M78 60H82V61H78ZM84 60H86V61H84ZM88 60H91V61H88ZM78 61H82V62H78ZM85 61H86V62H85ZM88 61H91V62H88ZM78 62H82V63H78ZM85 62H86V63H85ZM88 62H90V63H88ZM78 63H82V64H78ZM85 63H86V64H85ZM87 63H90V64H87ZM78 64H82V65H78ZM84 64H87V65H84ZM88 64H89V65H88ZM78 65H82V66H78ZM84 65H87V66H84ZM78 66H82V67H78ZM84 66H87V67H84ZM78 67H82V68H78ZM84 67H86V68H84ZM85 68H86V69H85ZM85 69H86V70H85ZM78 70H82V71H78ZM84 70H86V71H84ZM78 71H82V72H78ZM83 71H84V72H83ZM80 72H82V73H80Z"/><path fill="#204850" fill-opacity="1.000" d="M144 2H145V3H144ZM104 64H105V65H104Z"/><path fill="#205038" fill-opacity="1.000" d="M85 58H86V59H85ZM75 63H76V64H75ZM90 63H91V64H90ZM90 64H91V65H90ZM89 65H91V66H89ZM89 66H91V67H89ZM89 67H91V68H89ZM90 68H91V69H90Z"/><path fill="#205040" fill-opacity="1.000" d="M88 59H89V60H88ZM90 62H91V63H90ZM75 64H77V65H75ZM75 66H76V67H75ZM84 71H86V72H84ZM76 72H77V73H76Z"/><path fill="#205068" fill-opacity="1.000" d="M153 2H154V3H153Z"/><path fill="#20b068" fill-opacity="1.000" d="M130 1H131V2H130Z"/><path fill="#20b070" fill-opacity="1.000" d="M131 1H132V2H131Z"/><path fill="#20c878" fill-opacity="1.000" d="M130 0H131V1H130Z"/><path fill="#280008" fill-opacity="1.000" d="M196 2H197V3H196ZM113 3H114V4H113Z"/><path fill="#280808" fill-opacity="1.000" d="M118 3H119V4H118Z"/><path fill="#280810" fill-opacity="1.000" d="M119 2H120V3H119ZM196 4H197V5H196Z"/><path fill="#282000" fill-opacity="1.000" d="M158 61H159V62H158ZM158 62H159V63H158ZM158 63H159V64H158ZM158 64H159V65H158ZM158 65H159V66H158ZM158 66H159V67H158Z"/><path fill="#282030" fill-opacity="1.000" d="M186 4H187V5H186Z"/><path fill="#282800" fill-opacity="1.000" d="M158 69H159V70H158Z"/><path fill="#282838" fill-opacity="1.000" d="M187 4H188V5H187Z"/><path fill="#283000" fill-opacity="1.000" d="M476 58H477V59H476ZM474 71H475V72H474Z"/><path fill="#283010" fill-opacity="1.000" d="M477 57H478V58H477Z"/><path fill="#283030" fill-opacity="1.000" d="M130 63H131V64H130ZM132 67H133V68H132ZM51 71H52V72H51Z"/><path fill="#283038" fill-opacity="1.000" d="M43 57H44V58H43ZM507 64H508V65H507ZM132 65H133V66H132ZM123 66H124V67H123ZM132 66H133V67H132ZM123 67H124V68H123ZM123 68H124V69H123ZM132 68H133V69H132Z"/><path fill="#283040" fill-opacity="1.000" d="M517 70H518V71H517ZM566 70H568V71H566Z"/><path fill="#283838" fill-opacity="1.000" d="M15 3H16V4H15ZM91 56H92V57H91ZM44 57H45V58H44ZM47 57H48V58H47ZM39 59H40V60H39Z"/><path fill="#283840" fill-opacity="1.000" d="M15 0H16V1H15ZM15 1H16V2H15ZM15 2H16V3H15ZM189 2H190V3H189ZM575 63H576V64H575ZM569 65H570V66H569ZM518 70H566V71H518Z"/><path fill="#284038" fill-opacity="1.000" d="M83 56H85V57H83ZM88 56H91V57H88Z"/><path fill="#284040" fill-opacity="1.000" d="M32 4H33V5H32ZM80 56H81V57H80ZM82 68H84V69H82Z"/><path fill="#284048" fill-opacity="1.000" d="M26 4H28V5H26ZM365 71H366V72H365Z"/><path fill="#284838" fill-opacity="1.000" d="M85 56H86V57H85ZM77 68H78V69H77ZM77 69H78V70H77ZM87 70H88V71H87Z"/><path fill="#284840" fill-opacity="1.000" d="M90 58H91V59H90ZM78 59H79V60H78ZM77 60H78V61H77ZM82 60H84V61H82ZM86 60H88V61H86ZM82 61H85V62H82ZM86 61H88V62H86ZM82 62H85V63H82ZM86 62H88V63H86ZM82 63H85V64H82ZM86 63H87V64H86ZM82 64H84V65H82ZM82 65H84V66H82ZM82 66H84V67H82ZM82 67H84V68H82ZM78 68H82V69H78ZM84 68H85V69H84ZM78 69H82V70H78ZM83 69H85V70H83ZM82 70H84V71H82ZM82 71H83V72H82ZM86 72H87V73H86Z"/><path fill="#284850" fill-opacity="1.000" d="M361 60H362V61H361Z"/><path fill="#285038" fill-opacity="1.000" d="M77 63H78V64H77ZM77 70H78V71H77Z"/><path fill="#285040" fill-opacity="1.000" d="M81 59H82V60H81ZM76 61H77V62H76ZM77 66H78V67H77ZM75 67H77V68H75ZM75 69H76V70H75ZM88 69H89V70H88ZM75 70H76V71H75Z"/><path fill="#285050" fill-opacity="1.000" d="M361 61H362V62H361ZM361 62H362V63H361Z"/><path fill="#285060" fill-opacity="1.000" d="M155 0H156V1H155Z"/><path fill="#285840" fill-opacity="1.000" d="M75 65H76V66H75ZM75 71H76V72H75Z"/><path fill="#285848" fill-opacity="1.000" d="M75 72H76V73H75Z"/><path fill="#285870" fill-opacity="1.000" d="M152 3H153V4H152Z"/><path fill="#28b070" fill-opacity="1.000" d="M132 0H133V1H132Z"/><path fill="#300008" fill-opacity="1.000" d="M205 1H206V2H205ZM205 3H206V4H205Z"/><path fill="#300810" fill-opacity="1.000" d="M112 2H113V3H112ZM197 5H198V6H197Z"/><path fill="#301818" fill-opacity="1.000" d="M205 4H206V5H205Z"/><path fill="#303000" fill-opacity="1.000" d="M163 0H164V1H163Z"/><path fill="#303800" fill-opacity="1.000" d="M154 57H155V58H154ZM475 71H476V72H475ZM479 71H480V72H479Z"/><path fill="#303810" fill-opacity="1.000" d="M478 58H479V59H478Z"/><path fill="#303838" fill-opacity="1.000" d="M45 57H47V58H45ZM48 57H50V58H48Z"/><path fill="#303840" fill-opacity="1.000" d="M51 57H52V58H51ZM103 61H104V62H103ZM124 61H125V62H124ZM493 64H494V65H493ZM504 64H505V65H504ZM516 70H517V71H516Z"/><path fill="#304040" fill-opacity="1.000" d="M17 4H18V5H17ZM52 56H53V57H52ZM50 57H51V58H50ZM40 58H41V59H40ZM579 66H580V67H579Z"/><path fill="#304048" fill-opacity="1.000" d="M16 4H17V5H16ZM19 4H20V5H19ZM21 4H26V5H21ZM28 4H31V5H28ZM33 4H35V5H33ZM489 64H492V65H489ZM494 64H503V65H494ZM570 74H571V75H570ZM573 74H575V75H573ZM572 75H573V76H572Z"/><path fill="#304058" fill-opacity="1.000" d="M185 3H186V4H185Z"/><path fill="#304840" fill-opacity="1.000" d="M82 69H83V70H82Z"/><path fill="#304848" fill-opacity="1.000" d="M181 1H182V2H181ZM35 4H36V5H35Z"/><path fill="#304850" fill-opacity="1.000" d="M188 0H189V1H188ZM31 4H32V5H31ZM361 63H362V64H361ZM361 64H362V65H361ZM361 65H362V66H361ZM361 66H362V67H361ZM361 67H362V68H361ZM569 73H570V74H569Z"/><path fill="#304860" fill-opacity="1.000" d="M184 3H185V4H184Z"/><path fill="#305040" fill-opacity="1.000" d="M79 58H80V59H79ZM75 68H76V69H75ZM86 70H87V71H86ZM87 71H88V72H87ZM89 71H90V72H89Z"/><path fill="#305050" fill-opacity="1.000" d="M107 62H108V63H107ZM361 68H362V69H361ZM440 70H441V71H440Z"/><path fill="#305058" fill-opacity="1.000" d="M149 6H150V7H149ZM399 56H400V57H399Z"/><path fill="#305060" fill-opacity="1.000" d="M151 4H152V5H151Z"/><path fill="#305848" fill-opacity="1.000" d="M75 60H76V61H75ZM75 62H76V63H75ZM74 72H75V73H74Z"/><path fill="#305868" fill-opacity="1.000" d="M154 1H155V2H154Z"/><path fill="#306050" fill-opacity="1.000" d="M90 69H91V70H90Z"/><path fill="#306060" fill-opacity="1.000" d="M151 3H152V4H151Z"/><path fill="#306068" fill-opacity="1.000" d="M469 64H470V65H469Z"/><path fill="#306070" fill-opacity="1.000" d="M154 0H155V1H154ZM153 1H154V2H153Z"/><path fill="#306880" fill-opacity="1.000" d="M152 2H153V3H152Z"/><path fill="#380010" fill-opacity="1.000" d="M119 1H120V2H119Z"/><path fill="#380808" fill-opacity="1.000" d="M205 2H206V3H205ZM117 3H118V4H117Z"/><path fill="#381018" fill-opacity="1.000" d="M204 5H205V6H204Z"/><path fill="#381818" fill-opacity="1.000" d="M199 6H200V7H199Z"/><path fill="#383000" fill-opacity="1.000" d="M170 0H171V1H170Z"/><path fill="#383800" fill-opacity="1.000" d="M165 2H166V3H165ZM155 56H156V57H155ZM151 60H152V61H151Z"/><path fill="#384000" fill-opacity="1.000" d="M156 55H157V56H156ZM153 58H154V59H153ZM152 59H153V60H152ZM148 63H149V64H148ZM481 63H482V64H481ZM477 71H478V72H477Z"/><path fill="#384040" fill-opacity="1.000" d="M44 56H45V57H44ZM49 56H50V57H49ZM42 57H43V58H42ZM127 62H128V63H127ZM130 64H131V65H130Z"/><path fill="#384048" fill-opacity="1.000" d="M41 56H43V57H41ZM52 57H53V58H52ZM488 64H489V65H488ZM503 64H504V65H503ZM505 64H506V65H505ZM508 64H509V65H508ZM53 69H54V70H53ZM124 69H125V70H124Z"/><path fill="#384050" fill-opacity="1.000" d="M20 4H21V5H20ZM492 64H493V65H492ZM506 64H507V65H506ZM579 72H580V73H579Z"/><path fill="#384848" fill-opacity="1.000" d="M50 56H51V57H50ZM41 57H42V58H41ZM52 70H53V71H52Z"/><path fill="#384850" fill-opacity="1.000" d="M18 4H19V5H18Z"/><path fill="#385048" fill-opacity="1.000" d="M78 57H79V58H78Z"/><path fill="#385058" fill-opacity="1.000" d="M36 1H37V2H36Z"/><path fill="#385848" fill-opacity="1.000" d="M82 57H83V58H82ZM85 57H86V58H85ZM74 63H75V64H74Z"/><path fill="#385850" fill-opacity="1.000" d="M74 67H75V68H74ZM74 73H75V74H74Z"/><path fill="#385868" fill-opacity="1.000" d="M150 5H151V6H150Z"/><path fill="#385870" fill-opacity="1.000" d="M150 4H151V5H150ZM149 5H150V6H149Z"/><path fill="#386050" fill-opacity="1.000" d="M83 57H85V58H83ZM87 57H89V58H87ZM75 61H76V62H75ZM74 64H75V65H74ZM74 66H75V67H74ZM74 70H75V71H74ZM74 71H75V72H74Z"/><path fill="#386058" fill-opacity="1.000" d="M74 65H75V66H74Z"/><path fill="#400008" fill-opacity="1.000" d="M115 3H116V4H115Z"/><path fill="#400010" fill-opacity="1.000" d="M112 1H113V2H112ZM114 3H115V4H114Z"/><path fill="#402020" fill-opacity="1.000" d="M202 6H203V7H202Z"/><path fill="#403800" fill-opacity="1.000" d="M166 3H167V4H166ZM150 61H151V62H150Z"/><path fill="#404000" fill-opacity="1.000" d="M476 71H477V72H476ZM478 71H479V72H478Z"/><path fill="#404010" fill-opacity="1.000" d="M157 54H158V55H157Z"/><path fill="#404020" fill-opacity="1.000" d="M160 0H161V1H160Z"/><path fill="#404800" fill-opacity="1.000" d="M149 62H150V63H149Z"/><path fill="#404828" fill-opacity="1.000" d="M164 4H165V5H164Z"/><path fill="#404830" fill-opacity="1.000" d="M165 5H166V6H165Z"/><path fill="#404848" fill-opacity="1.000" d="M45 56H47V57H45ZM48 56H49V57H48ZM51 56H52V57H51Z"/><path fill="#404850" fill-opacity="1.000" d="M127 63H128V64H127ZM569 71H570V72H569Z"/><path fill="#404860" fill-opacity="1.000" d="M186 3H187V4H186Z"/><path fill="#405008" fill-opacity="1.000" d="M473 63H474V64H473Z"/><path fill="#405050" fill-opacity="1.000" d="M43 56H44V57H43ZM47 56H48V57H47Z"/><path fill="#405058" fill-opacity="1.000" d="M36 0H37V1H36ZM36 2H37V3H36ZM36 3H37V4H36ZM15 4H16V5H15ZM573 63H575V64H573ZM569 67H570V68H569ZM575 75H576V76H575Z"/><path fill="#405060" fill-opacity="1.000" d="M575 74H576V75H575Z"/><path fill="#405850" fill-opacity="1.000" d="M89 57H91V58H89ZM74 69H75V70H74Z"/><path fill="#405858" fill-opacity="1.000" d="M36 4H37V5H36Z"/><path fill="#405860" fill-opacity="1.000" d="M472 59H473V60H472ZM575 68H576V69H575Z"/><path fill="#406050" fill-opacity="1.000" d="M81 57H82V58H81ZM86 57H87V58H86ZM74 62H75V63H74ZM74 68H75V69H74Z"/><path fill="#406058" fill-opacity="1.000" d="M79 57H80V58H79ZM78 58H79V59H78ZM76 60H77V61H76ZM91 69H92V70H91ZM89 70H90V71H89ZM88 71H89V72H88Z"/><path fill="#406070" fill-opacity="1.000" d="M183 3H184V4H183Z"/><path fill="#406858" fill-opacity="1.000" d="M75 73H77V74H75Z"/><path fill="#406868" fill-opacity="1.000" d="M441 69H442V70H441Z"/><path fill="#406878" fill-opacity="1.000" d="M144 1H145V2H144Z"/><path fill="#407060" fill-opacity="1.000" d="M84 73H85V74H84Z"/><path fill="#480010" fill-opacity="1.000" d="M112 0H113V1H112ZM119 0H120V1H119ZM113 2H114V3H113Z"/><path fill="#480810" fill-opacity="1.000" d="M118 2H119V3H118ZM116 3H117V4H116Z"/><path fill="#484000" fill-opacity="1.000" d="M164 1H165V2H164ZM169 1H170V2H169ZM167 3H168V4H167ZM477 63H478V64H477Z"/><path fill="#485040" fill-opacity="1.000" d="M166 6H167V7H166Z"/><path fill="#485058" fill-opacity="1.000" d="M574 64H575V65H574ZM130 65H131V66H130Z"/><path fill="#485858" fill-opacity="1.000" d="M44 73H47V74H44Z"/><path fill="#485860" fill-opacity="1.000" d="M181 2H182V3H181Z"/><path fill="#486058" fill-opacity="1.000" d="M80 57H81V58H80Z"/><path fill="#486860" fill-opacity="1.000" d="M90 70H91V71H90ZM77 73H84V74H77ZM85 73H86V74H85Z"/><path fill="#487060" fill-opacity="1.000" d="M91 60H92V61H91ZM91 61H92V62H91ZM91 62H92V63H91ZM91 63H92V64H91ZM91 64H92V65H91ZM91 65H92V66H91ZM91 66H92V67H91ZM91 67H92V68H91ZM91 68H92V69H91Z"/><path fill="#487070" fill-opacity="1.000" d="M107 63H108V64H107Z"/><path fill="#487888" fill-opacity="1.000" d="M145 2H146V3H145ZM146 3H147V4H146ZM147 4H148V5H147Z"/><path fill="#502828" fill-opacity="1.000" d="M200 6H201V7H200Z"/><path fill="#503028" fill-opacity="1.000" d="M201 6H202V7H201Z"/><path fill="#504008" fill-opacity="1.000" d="M168 2H169V3H168Z"/><path fill="#505028" fill-opacity="1.000" d="M162 2H163V3H162Z"/><path fill="#505030" fill-opacity="1.000" d="M161 1H162V2H161Z"/><path fill="#505848" fill-opacity="1.000" d="M173 0H174V1H173Z"/><path fill="#505858" fill-opacity="1.000" d="M128 62H129V63H128ZM38 73H44V74H38ZM47 73H48V74H47Z"/><path fill="#505860" fill-opacity="1.000" d="M127 64H128V65H127ZM577 64H578V65H577ZM130 66H131V67H130ZM130 67H131V68H130ZM130 68H131V69H130ZM37 73H38V74H37Z"/><path fill="#506060" fill-opacity="1.000" d="M91 57H92V58H91Z"/><path fill="#506068" fill-opacity="1.000" d="M573 64H574V65H573ZM568 67H569V68H568ZM573 75H574V76H573Z"/><path fill="#506070" fill-opacity="1.000" d="M572 69H573V70H572ZM577 73H578V74H577Z"/><path fill="#506868" fill-opacity="1.000" d="M87 72H88V73H87Z"/><path fill="#506870" fill-opacity="1.000" d="M575 70H576V71H575Z"/><path fill="#507060" fill-opacity="1.000" d="M91 58H92V59H91ZM77 59H78V60H77Z"/><path fill="#507068" fill-opacity="1.000" d="M91 59H92V60H91Z"/><path fill="#507078" fill-opacity="1.000" d="M182 0H183V1H182Z"/><path fill="#507888" fill-opacity="1.000" d="M148 5H149V6H148Z"/><path fill="#508080" fill-opacity="1.000" d="M107 64H108V65H107ZM104 66H105V67H104Z"/><path fill="#508088" fill-opacity="1.000" d="M143 0H144V1H143Z"/><path fill="#50d8f0" fill-opacity="1.000" d="M149 0H150V1H149Z"/><path fill="#581010" fill-opacity="1.000" d="M198 5H199V6H198Z"/><path fill="#582828" fill-opacity="1.000" d="M197 0H198V1H197Z"/><path fill="#585000" fill-opacity="1.000" d="M477 64H478V65H477Z"/><path fill="#585800" fill-opacity="1.000" d="M159 61H160V62H159Z"/><path fill="#585830" fill-opacity="1.000" d="M163 3H164V4H163Z"/><path fill="#586038" fill-opacity="1.000" d="M168 5H169V6H168Z"/><path fill="#586050" fill-opacity="1.000" d="M167 6H168V7H167Z"/><path fill="#586060" fill-opacity="1.000" d="M53 57H54V58H53ZM53 59H54V60H53ZM52 69H53V70H52Z"/><path fill="#586068" fill-opacity="1.000" d="M128 63H129V64H128ZM128 64H129V65H128ZM577 74H578V75H577Z"/><path fill="#586868" fill-opacity="1.000" d="M53 60H54V61H53ZM36 61H37V62H36ZM53 61H54V62H53ZM53 62H54V63H53ZM36 63H37V64H36ZM53 63H54V64H53ZM53 64H54V65H53ZM53 65H54V66H53ZM36 66H37V67H36ZM53 66H54V67H53ZM53 67H54V68H53Z"/><path fill="#586870" fill-opacity="1.000" d="M568 71H569V72H568ZM572 74H573V75H572Z"/><path fill="#586878" fill-opacity="1.000" d="M181 3H182V4H181Z"/><path fill="#587078" fill-opacity="1.000" d="M188 1H189V2H188ZM102 68H103V69H102Z"/><path fill="#587870" fill-opacity="1.000" d="M86 73H87V74H86Z"/><path fill="#587878" fill-opacity="1.000" d="M398 55H399V56H398Z"/><path fill="#587880" fill-opacity="1.000" d="M102 65H103V66H102ZM102 66H103V67H102ZM102 67H103V68H102Z"/><path fill="#588080" fill-opacity="1.000" d="M104 67H105V68H104Z"/><path fill="#588088" fill-opacity="1.000" d="M104 65H105V66H104Z"/><path fill="#58c0d0" fill-opacity="1.000" d="M147 1H148V2H147Z"/><path fill="#58e0f0" fill-opacity="1.000" d="M148 0H149V1H148Z"/><path fill="#601820" fill-opacity="1.000" d="M203 5H204V6H203Z"/><path fill="#606038" fill-opacity="1.000" d="M170 3H171V4H170ZM169 4H170V5H169Z"/><path fill="#606040" fill-opacity="1.000" d="M171 2H172V3H171Z"/><path fill="#606050" fill-opacity="1.000" d="M172 1H173V2H172Z"/><path fill="#606068" fill-opacity="1.000" d="M125 62H126V63H125Z"/><path fill="#606818" fill-opacity="1.000" d="M472 65H473V66H472Z"/><path fill="#606828" fill-opacity="1.000" d="M482 65H483V66H482Z"/><path fill="#606868" fill-opacity="1.000" d="M53 68H54V69H53Z"/><path fill="#606870" fill-opacity="1.000" d="M53 58H54V59H53ZM36 69H37V70H36ZM51 70H52V71H51Z"/><path fill="#607038" fill-opacity="1.000" d="M147 65H148V66H147Z"/><path fill="#607070" fill-opacity="1.000" d="M39 58H40V59H39ZM37 60H38V61H37ZM36 70H37V71H36Z"/><path fill="#607078" fill-opacity="1.000" d="M36 65H37V66H36ZM578 65H579V66H578ZM511 66H512V67H511ZM513 68H514V69H513ZM574 75H575V76H574Z"/><path fill="#607878" fill-opacity="1.000" d="M238 3H239V4H238Z"/><path fill="#607880" fill-opacity="1.000" d="M104 68H105V69H104Z"/><path fill="#608080" fill-opacity="1.000" d="M467 67H468V68H467Z"/><path fill="#608890" fill-opacity="1.000" d="M470 62H471V63H470Z"/><path fill="#60b8c0" fill-opacity="1.000" d="M185 0H186V1H185Z"/><path fill="#60c0d8" fill-opacity="1.000" d="M148 2H149V3H148Z"/><path fill="#60d8f0" fill-opacity="1.000" d="M148 1H149V2H148Z"/><path fill="#60e0f0" fill-opacity="1.000" d="M149 1H150V2H149Z"/><path fill="#680818" fill-opacity="1.000" d="M113 1H114V2H113ZM114 2H115V3H114Z"/><path fill="#686000" fill-opacity="1.000" d="M477 65H478V66H477Z"/><path fill="#686008" fill-opacity="1.000" d="M159 62H160V63H159Z"/><path fill="#687020" fill-opacity="1.000" d="M479 60H480V61H479Z"/><path fill="#687030" fill-opacity="1.000" d="M475 60H476V61H475Z"/><path fill="#687070" fill-opacity="1.000" d="M40 57H41V58H40Z"/><path fill="#687078" fill-opacity="1.000" d="M38 59H39V60H38ZM131 62H132V63H131ZM36 64H37V65H36ZM575 64H576V65H575ZM127 67H128V68H127ZM36 68H37V69H36ZM36 72H37V73H36Z"/><path fill="#687878" fill-opacity="1.000" d="M36 67H37V68H36ZM36 71H37V72H36Z"/><path fill="#687880" fill-opacity="1.000" d="M510 65H511V66H510ZM577 65H578V66H577ZM512 67H513V68H512ZM514 69H515V70H514ZM578 73H579V74H578Z"/><path fill="#688080" fill-opacity="1.000" d="M109 62H110V63H109Z"/><path fill="#688088" fill-opacity="1.000" d="M578 72H579V73H578Z"/><path fill="#68c8d8" fill-opacity="1.000" d="M146 0H147V1H146Z"/><path fill="#68c8e0" fill-opacity="1.000" d="M149 2H150V3H149Z"/><path fill="#68d0f0" fill-opacity="1.000" d="M150 0H151V1H150Z"/><path fill="#68d8e8" fill-opacity="1.000" d="M147 0H148V1H147Z"/><path fill="#700810" fill-opacity="1.000" d="M203 3H204V4H203Z"/><path fill="#701010" fill-opacity="1.000" d="M198 3H199V4H198Z"/><path fill="#701018" fill-opacity="1.000" d="M117 2H118V3H117Z"/><path fill="#701020" fill-opacity="1.000" d="M118 1H119V2H118Z"/><path fill="#703030" fill-opacity="1.000" d="M204 0H205V1H204Z"/><path fill="#706818" fill-opacity="1.000" d="M159 63H160V64H159Z"/><path fill="#707820" fill-opacity="1.000" d="M483 67H484V68H483Z"/><path fill="#707878" fill-opacity="1.000" d="M127 66H128V67H127Z"/><path fill="#707880" fill-opacity="1.000" d="M125 63H126V64H125ZM131 64H132V65H131ZM509 64H510V65H509ZM127 65H128V66H127ZM127 68H128V69H127ZM48 73H49V74H48Z"/><path fill="#707888" fill-opacity="1.000" d="M187 3H188V4H187Z"/><path fill="#708080" fill-opacity="1.000" d="M36 62H37V63H36ZM110 62H111V63H110ZM509 63H510V64H509ZM50 71H51V72H50ZM49 72H50V73H49ZM36 73H37V74H36Z"/><path fill="#708088" fill-opacity="1.000" d="M572 64H573V65H572ZM578 66H579V67H578Z"/><path fill="#708890" fill-opacity="1.000" d="M466 68H467V69H466Z"/><path fill="#709898" fill-opacity="1.000" d="M450 68H454V69H450Z"/><path fill="#7098a0" fill-opacity="1.000" d="M443 68H450V69H443ZM461 68H462V69H461ZM463 68H464V69H463Z"/><path fill="#7098a8" fill-opacity="1.000" d="M185 2H186V3H185Z"/><path fill="#70c0c8" fill-opacity="1.000" d="M184 0H185V1H184Z"/><path fill="#70c8e8" fill-opacity="1.000" d="M151 0H152V1H151Z"/><path fill="#70d0f0" fill-opacity="1.000" d="M150 1H151V2H150Z"/><path fill="#787830" fill-opacity="1.000" d="M471 67H472V68H471Z"/><path fill="#787858" fill-opacity="1.000" d="M169 3H170V4H169Z"/><path fill="#787860" fill-opacity="1.000" d="M167 5H168V6H167Z"/><path fill="#788020" fill-opacity="1.000" d="M164 71H165V72H164Z"/><path fill="#788038" fill-opacity="1.000" d="M169 66H170V67H169Z"/><path fill="#788040" fill-opacity="1.000" d="M484 69H485V70H484Z"/><path fill="#788080" fill-opacity="1.000" d="M128 65H129V66H128ZM131 68H132V69H131Z"/><path fill="#788088" fill-opacity="1.000" d="M488 63H489V64H488ZM128 66H129V67H128ZM131 66H132V67H131ZM131 67H132V68H131ZM128 68H129V69H128Z"/><path fill="#788890" fill-opacity="1.000" d="M579 69H580V70H579Z"/><path fill="#789898" fill-opacity="1.000" d="M464 68H466V69H464Z"/><path fill="#7898a0" fill-opacity="1.000" d="M454 68H461V69H454Z"/><path fill="#78a0a0" fill-opacity="1.000" d="M462 68H463V69H462Z"/><path fill="#78a8a8" fill-opacity="1.000" d="M442 68H443V69H442Z"/><path fill="#801010" fill-opacity="1.000" d="M199 3H200V4H199Z"/><path fill="#801028" fill-opacity="1.000" d="M113 0H114V1H113ZM118 0H119V1H118ZM115 2H116V3H115Z"/><path fill="#804050" fill-opacity="1.000" d="M197 4H198V5H197Z"/><path fill="#804848" fill-opacity="1.000" d="M197 1H198V2H197ZM204 4H205V5H204Z"/><path fill="#807020" fill-opacity="1.000" d="M159 64H160V65H159Z"/><path fill="#807820" fill-opacity="1.000" d="M159 65H160V66H159Z"/><path fill="#808000" fill-opacity="1.000" d="M159 66H160V67H159Z"/><path fill="#808030" fill-opacity="1.000" d="M168 67H169V68H168Z"/><path fill="#808038" fill-opacity="1.000" d="M162 73H163V74H162Z"/><path fill="#808040" fill-opacity="1.000" d="M160 75H161V76H160Z"/><path fill="#808048" fill-opacity="1.000" d="M170 2H171V3H170ZM168 4H169V5H168Z"/><path fill="#808060" fill-opacity="1.000" d="M171 1H172V2H171Z"/><path fill="#808068" fill-opacity="1.000" d="M166 5H167V6H166Z"/><path fill="#808088" fill-opacity="1.000" d="M131 63H132V64H131ZM128 67H129V68H128Z"/><path fill="#808828" fill-opacity="1.000" d="M166 69H167V70H166ZM165 70H166V71H165Z"/><path fill="#808838" fill-opacity="1.000" d="M163 72H164V73H163Z"/><path fill="#808848" fill-opacity="1.000" d="M470 69H471V70H470Z"/><path fill="#808868" fill-opacity="1.000" d="M172 0H173V1H172ZM164 3H165V4H164Z"/><path fill="#808888" fill-opacity="1.000" d="M131 65H132V66H131Z"/><path fill="#808890" fill-opacity="1.000" d="M490 63H492V64H490ZM502 63H503V64H502ZM505 63H507V64H505ZM125 64H126V65H125ZM568 68H569V69H568Z"/><path fill="#809098" fill-opacity="1.000" d="M494 63H502V64H494ZM508 63H509V64H508ZM579 67H580V68H579ZM570 73H571V74H570Z"/><path fill="#809898" fill-opacity="1.000" d="M109 63H110V64H109Z"/><path fill="#8098a0" fill-opacity="1.000" d="M472 58H473V59H472Z"/><path fill="#80a0a0" fill-opacity="1.000" d="M238 2H239V3H238Z"/><path fill="#80a8a8" fill-opacity="1.000" d="M238 0H239V1H238Z"/><path fill="#80b0b8" fill-opacity="1.000" d="M468 65H469V66H468Z"/><path fill="#80b8b8" fill-opacity="1.000" d="M107 66H108V67H107Z"/><path fill="#80c0d0" fill-opacity="1.000" d="M186 0H187V1H186Z"/><path fill="#80c8d8" fill-opacity="1.000" d="M184 1H185V2H184Z"/><path fill="#881010" fill-opacity="1.000" d="M202 3H203V4H202Z"/><path fill="#881828" fill-opacity="1.000" d="M116 2H117V3H116Z"/><path fill="#882830" fill-opacity="1.000" d="M199 5H200V6H199Z"/><path fill="#884048" fill-opacity="1.000" d="M197 3H198V4H197Z"/><path fill="#888800" fill-opacity="1.000" d="M477 68H478V69H477Z"/><path fill="#888860" fill-opacity="1.000" d="M162 1H163V2H162Z"/><path fill="#889008" fill-opacity="1.000" d="M477 62H478V63H477Z"/><path fill="#889030" fill-opacity="1.000" d="M167 68H168V69H167Z"/><path fill="#889040" fill-opacity="1.000" d="M161 74H162V75H161Z"/><path fill="#889098" fill-opacity="1.000" d="M489 63H490V64H489ZM492 63H494V64H492ZM503 63H505V64H503ZM507 63H508V64H507ZM568 70H569V71H568Z"/><path fill="#889838" fill-opacity="1.000" d="M159 54H160V55H159Z"/><path fill="#8898a0" fill-opacity="1.000" d="M579 68H580V69H579ZM579 71H580V72H579Z"/><path fill="#88a0a8" fill-opacity="1.000" d="M110 63H111V64H110Z"/><path fill="#88a8b0" fill-opacity="1.000" d="M182 3H183V4H182ZM109 64H110V65H109Z"/><path fill="#88b8b8" fill-opacity="1.000" d="M404 58H405V59H404ZM107 65H108V66H107ZM107 67H108V68H107Z"/><path fill="#88b8c0" fill-opacity="1.000" d="M401 58H404V59H401ZM405 58H406V59H405Z"/><path fill="#88c0c0" fill-opacity="1.000" d="M391 55H392V56H391Z"/><path fill="#88c0d0" fill-opacity="1.000" d="M186 1H187V2H186Z"/><path fill="#900820" fill-opacity="1.000" d="M114 1H115V2H114Z"/><path fill="#903838" fill-opacity="1.000" d="M198 2H199V3H198Z"/><path fill="#904048" fill-opacity="1.000" d="M204 1H205V2H204ZM204 3H205V4H204Z"/><path fill="#904850" fill-opacity="1.000" d="M197 2H198V3H197Z"/><path fill="#908858" fill-opacity="1.000" d="M163 2H164V3H163Z"/><path fill="#909000" fill-opacity="1.000" d="M159 69H160V70H159Z"/><path fill="#909038" fill-opacity="1.000" d="M169 64H170V65H169Z"/><path fill="#909068" fill-opacity="1.000" d="M161 0H162V1H161Z"/><path fill="#909070" fill-opacity="1.000" d="M165 4H166V5H165Z"/><path fill="#9098a0" fill-opacity="1.000" d="M571 64H572V65H571ZM579 70H580V71H579Z"/><path fill="#9098a8" fill-opacity="1.000" d="M568 69H569V70H568Z"/><path fill="#90a0a0" fill-opacity="1.000" d="M510 64H511V65H510Z"/><path fill="#90a0a8" fill-opacity="1.000" d="M576 64H577V65H576ZM570 65H571V66H570ZM512 66H513V67H512ZM569 66H570V67H569ZM571 74H572V75H571ZM576 74H577V75H576Z"/><path fill="#90a0b0" fill-opacity="1.000" d="M566 69H567V70H566Z"/><path fill="#90b0b0" fill-opacity="1.000" d="M238 1H239V2H238Z"/><path fill="#90b0b8" fill-opacity="1.000" d="M470 58H471V59H470Z"/><path fill="#90b8b0" fill-opacity="1.000" d="M107 68H108V69H107Z"/><path fill="#90b8b8" fill-opacity="1.000" d="M395 55H397V56H395Z"/><path fill="#90b8c0" fill-opacity="1.000" d="M367 55H390V56H367ZM394 55H395V56H394ZM406 58H470V59H406Z"/><path fill="#90c0c0" fill-opacity="1.000" d="M390 55H391V56H390ZM392 55H394V56H392ZM363 70H364V71H363Z"/><path fill="#90c0c8" fill-opacity="1.000" d="M183 1H184V2H183Z"/><path fill="#983038" fill-opacity="1.000" d="M203 2H204V3H203Z"/><path fill="#984040" fill-opacity="1.000" d="M202 5H203V6H202Z"/><path fill="#98a030" fill-opacity="1.000" d="M163 58H164V59H163Z"/><path fill="#98a038" fill-opacity="1.000" d="M167 62H168V63H167ZM474 62H475V63H474Z"/><path fill="#98a040" fill-opacity="1.000" d="M164 59H165V60H164Z"/><path fill="#98a048" fill-opacity="1.000" d="M166 61H167V62H166Z"/><path fill="#98a050" fill-opacity="1.000" d="M480 62H481V63H480Z"/><path fill="#98a0a8" fill-opacity="1.000" d="M513 67H514V68H513Z"/><path fill="#98a0b0" fill-opacity="1.000" d="M517 69H518V70H517Z"/><path fill="#98a8b0" fill-opacity="1.000" d="M511 65H512V66H511ZM516 69H517V70H516ZM518 69H566V70H518ZM569 72H570V73H569Z"/><path fill="#98b0b8" fill-opacity="1.000" d="M575 69H576V70H575Z"/><path fill="#98b8b8" fill-opacity="1.000" d="M397 55H398V56H397ZM110 64H111V65H110Z"/><path fill="#98b8c0" fill-opacity="1.000" d="M366 55H367V56H366ZM471 60H472V61H471Z"/><path fill="#98c0d0" fill-opacity="1.000" d="M184 2H185V3H184Z"/><path fill="#98e0e8" fill-opacity="1.000" d="M185 1H186V2H185Z"/><path fill="#a00820" fill-opacity="1.000" d="M117 1H118V2H117Z"/><path fill="#a04040" fill-opacity="1.000" d="M198 0H199V1H198Z"/><path fill="#a05058" fill-opacity="1.000" d="M204 2H205V3H204Z"/><path fill="#a0a020" fill-opacity="1.000" d="M158 68H159V69H158Z"/><path fill="#a0a838" fill-opacity="1.000" d="M165 60H166V61H165Z"/><path fill="#a0a840" fill-opacity="1.000" d="M161 56H162V57H161Z"/><path fill="#a0a848" fill-opacity="1.000" d="M158 54H159V55H158ZM160 55H161V56H160ZM162 57H163V58H162Z"/><path fill="#a0a850" fill-opacity="1.000" d="M168 63H169V64H168Z"/><path fill="#a0a858" fill-opacity="1.000" d="M478 59H479V60H478Z"/><path fill="#a0a8a8" fill-opacity="1.000" d="M124 62H125V63H124Z"/><path fill="#a0a8b0" fill-opacity="1.000" d="M514 68H515V69H514Z"/><path fill="#a0b050" fill-opacity="1.000" d="M476 59H477V60H476Z"/><path fill="#a0b0b8" fill-opacity="1.000" d="M567 69H568V70H567Z"/><path fill="#a0b8b8" fill-opacity="1.000" d="M188 2H189V3H188ZM188 3H189V4H188Z"/><path fill="#a0b8c8" fill-opacity="1.000" d="M471 58H472V59H471Z"/><path fill="#a0c0c0" fill-opacity="1.000" d="M106 62H107V63H106Z"/><path fill="#a0c0c8" fill-opacity="1.000" d="M182 1H183V2H182Z"/><path fill="#a0d0d8" fill-opacity="1.000" d="M364 57H365V58H364Z"/><path fill="#a0d0e0" fill-opacity="1.000" d="M187 0H188V1H187Z"/><path fill="#a81030" fill-opacity="1.000" d="M114 0H115V1H114Z"/><path fill="#a82028" fill-opacity="1.000" d="M201 4H202V5H201Z"/><path fill="#a84048" fill-opacity="1.000" d="M198 4H199V5H198ZM200 5H201V6H200Z"/><path fill="#a84848" fill-opacity="1.000" d="M198 1H199V2H198ZM203 4H204V5H203ZM201 5H202V6H201Z"/><path fill="#a8b848" fill-opacity="1.000" d="M149 67H150V68H149Z"/><path fill="#a8b8c0" fill-opacity="1.000" d="M515 69H516V70H515Z"/><path fill="#a8c0c8" fill-opacity="1.000" d="M573 68H574V69H573Z"/><path fill="#a8d0d0" fill-opacity="1.000" d="M106 63H107V64H106Z"/><path fill="#a8d0d8" fill-opacity="1.000" d="M365 56H366V57H365Z"/><path fill="#a8d8d8" fill-opacity="1.000" d="M469 63H470V64H469ZM106 64H107V65H106ZM362 69H363V70H362Z"/><path fill="#a8d8e0" fill-opacity="1.000" d="M183 0H184V1H183Z"/><path fill="#a8e0e8" fill-opacity="1.000" d="M400 58H401V59H400Z"/><path fill="#b04038" fill-opacity="1.000" d="M199 0H200V1H199Z"/><path fill="#b04040" fill-opacity="1.000" d="M203 1H204V2H203ZM199 2H200V3H199Z"/><path fill="#b04048" fill-opacity="1.000" d="M203 0H204V1H203Z"/><path fill="#b0b030" fill-opacity="1.000" d="M157 62H158V63H157Z"/><path fill="#b0b040" fill-opacity="1.000" d="M151 69H152V70H151Z"/><path fill="#b0b050" fill-opacity="1.000" d="M155 73H156V74H155Z"/><path fill="#b0b828" fill-opacity="1.000" d="M157 61H158V62H157Z"/><path fill="#b0b840" fill-opacity="1.000" d="M150 68H151V69H150Z"/><path fill="#b0b850" fill-opacity="1.000" d="M157 55H158V56H157ZM152 70H153V71H152ZM153 71H154V72H153ZM154 72H155V73H154Z"/><path fill="#b0b858" fill-opacity="1.000" d="M482 66H483V67H482Z"/><path fill="#b0c040" fill-opacity="1.000" d="M472 66H473V67H472ZM483 68H484V69H483Z"/><path fill="#b0c058" fill-opacity="1.000" d="M148 66H149V67H148Z"/><path fill="#b0c850" fill-opacity="1.000" d="M148 64H149V65H148Z"/><path fill="#b0d0e0" fill-opacity="1.000" d="M186 2H187V3H186Z"/><path fill="#b0d8d8" fill-opacity="1.000" d="M363 58H364V59H363Z"/><path fill="#b0d8e0" fill-opacity="1.000" d="M362 59H363V60H362Z"/><path fill="#b0d8e8" fill-opacity="1.000" d="M187 1H188V2H187Z"/><path fill="#b0e0e8" fill-opacity="1.000" d="M183 2H184V3H183Z"/><path fill="#b0e8e8" fill-opacity="1.000" d="M467 66H468V67H467Z"/><path fill="#b0f0f8" fill-opacity="1.000" d="M466 61H467V62H466Z"/><path fill="#b0f8f8" fill-opacity="1.000" d="M365 68H366V69H365Z"/><path fill="#b0f8ff" fill-opacity="1.000" d="M463 63H464V64H463Z"/><path fill="#b0fff8" fill-opacity="1.000" d="M367 68H368V69H367Z"/><path fill="#b0ffff" fill-opacity="1.000" d="M369 58H370V59H369ZM367 59H370V60H367ZM373 60H374V61H373ZM373 61H374V62H373ZM446 61H449V62H446ZM373 62H374V63H373ZM449 64H450V65H449ZM461 64H463V65H461ZM461 65H463V66H461ZM438 66H440V67H438ZM368 67H370V68H368ZM438 67H439V68H438ZM368 68H370V69H368ZM373 68H376V69H373ZM377 68H378V69H377ZM379 68H380V69H379ZM381 68H382V69H381ZM383 68H384V69H383ZM385 68H386V69H385ZM387 68H388V69H387ZM389 68H390V69H389ZM391 68H392V69H391ZM393 68H394V69H393ZM395 68H396V69H395ZM397 68H398V69H397ZM399 68H400V69H399ZM401 68H402V69H401ZM403 68H404V69H403ZM405 68H406V69H405ZM407 68H408V69H407ZM409 68H410V69H409ZM411 68H412V69H411ZM413 68H414V69H413ZM415 68H416V69H415ZM417 68H418V69H417ZM419 68H420V69H419ZM421 68H422V69H421ZM423 68H424V69H423ZM425 68H426V69H425ZM427 68H428V69H427ZM429 68H430V69H429ZM431 68H432V69H431ZM433 68H434V69H433ZM435 68H436V69H435Z"/><path fill="#b81030" fill-opacity="1.000" d="M115 1H117V2H115Z"/><path fill="#b83038" fill-opacity="1.000" d="M200 4H201V5H200Z"/><path fill="#b83830" fill-opacity="1.000" d="M200 0H201V1H200ZM200 2H201V3H200Z"/><path fill="#b83838" fill-opacity="1.000" d="M200 3H201V4H200Z"/><path fill="#b83840" fill-opacity="1.000" d="M201 3H202V4H201Z"/><path fill="#b84040" fill-opacity="1.000" d="M199 1H200V2H199ZM202 2H203V3H202ZM202 4H203V5H202Z"/><path fill="#b8b830" fill-opacity="1.000" d="M157 63H158V64H157Z"/><path fill="#b8b840" fill-opacity="1.000" d="M158 60H159V61H158Z"/><path fill="#b8b850" fill-opacity="1.000" d="M156 74H157V75H156Z"/><path fill="#b8b858" fill-opacity="1.000" d="M475 61H476V62H475ZM157 75H158V76H157Z"/><path fill="#b8c048" fill-opacity="1.000" d="M150 62H151V63H150Z"/><path fill="#b8c050" fill-opacity="1.000" d="M156 56H157V57H156ZM153 59H154V60H153ZM479 61H480V62H479ZM149 63H150V64H149Z"/><path fill="#b8c058" fill-opacity="1.000" d="M471 68H472V69H471Z"/><path fill="#b8c060" fill-opacity="1.000" d="M155 57H156V58H155ZM473 64H474V65H473ZM169 65H170V66H169Z"/><path fill="#b8c080" fill-opacity="1.000" d="M470 70H471V71H470Z"/><path fill="#b8c090" fill-opacity="1.000" d="M484 70H485V71H484Z"/><path fill="#b8c850" fill-opacity="1.000" d="M481 64H482V65H481Z"/><path fill="#b8c868" fill-opacity="1.000" d="M483 70H484V71H483Z"/><path fill="#b8d0d0" fill-opacity="1.000" d="M573 70H574V71H573Z"/><path fill="#b8d0d8" fill-opacity="1.000" d="M573 69H575V70H573Z"/><path fill="#b8e0e0" fill-opacity="1.000" d="M109 65H110V66H109Z"/><path fill="#b8e0e8" fill-opacity="1.000" d="M109 66H110V67H109Z"/><path fill="#b8e8f0" fill-opacity="1.000" d="M103 65H104V66H103Z"/><path fill="#b8f0f0" fill-opacity="1.000" d="M365 58H366V59H365ZM106 65H107V66H106Z"/><path fill="#b8f0f8" fill-opacity="1.000" d="M364 59H365V60H364ZM467 62H468V63H467ZM364 69H365V70H364Z"/><path fill="#b8f8f8" fill-opacity="1.000" d="M390 56H393V57H390ZM399 59H400V60H399ZM401 59H402V60H401ZM403 59H404V60H403ZM465 60H466V61H465ZM467 60H468V61H467ZM468 61H469V62H468ZM465 65H466V66H465ZM463 66H465V67H463ZM363 68H364V69H363ZM439 68H440V69H439Z"/><path fill="#b8f8ff" fill-opacity="1.000" d="M368 57H370V58H368ZM366 58H367V59H366ZM374 58H398V59H374ZM374 59H390V60H374ZM392 59H397V60H392ZM363 60H365V61H363ZM370 60H372V61H370ZM376 60H377V61H376ZM378 60H379V61H378ZM380 60H381V61H380ZM382 60H383V61H382ZM384 60H385V61H384ZM386 60H387V61H386ZM388 60H394V61H388ZM401 60H407V61H401ZM408 60H409V61H408ZM410 60H411V61H410ZM412 60H413V61H412ZM414 60H415V61H414ZM416 60H417V61H416ZM418 60H419V61H418ZM420 60H421V61H420ZM422 60H423V61H422ZM424 60H425V61H424ZM426 60H427V61H426ZM428 60H429V61H428ZM430 60H431V61H430ZM432 60H433V61H432ZM434 60H435V61H434ZM436 60H437V61H436ZM438 60H439V61H438ZM440 60H441V61H440ZM442 60H443V61H442ZM450 60H451V61H450ZM454 60H455V61H454ZM457 60H463V61H457ZM464 60H465V61H464ZM371 61H372V62H371ZM442 61H443V62H442ZM451 61H452V62H451ZM453 61H454V62H453ZM458 61H462V62H458ZM463 61H464V62H463ZM370 62H372V63H370ZM439 62H445V63H439ZM450 62H455V63H450ZM456 62H462V63H456ZM463 62H464V63H463ZM465 62H466V63H465ZM363 63H365V64H363ZM366 63H367V64H366ZM370 63H372V64H370ZM438 63H446V64H438ZM451 63H454V64H451ZM456 63H461V64H456ZM464 63H465V64H464ZM364 64H368V65H364ZM369 64H370V65H369ZM372 64H438V65H372ZM440 64H447V65H440ZM465 64H467V65H465ZM365 65H368V66H365ZM369 65H370V66H369ZM372 65H438V66H372ZM441 65H447V66H441ZM464 65H465V66H464ZM364 66H365V67H364ZM372 66H373V67H372ZM375 66H437V67H375ZM442 66H443V67H442ZM446 66H449V67H446ZM454 66H459V67H454ZM364 67H365V68H364ZM370 67H372V68H370ZM441 67H442V68H441ZM370 68H372V69H370ZM372 69H375V70H372Z"/><path fill="#b8fff8" fill-opacity="1.000" d="M407 60H408V61H407ZM409 60H410V61H409ZM411 60H412V61H411ZM413 60H414V61H413ZM415 60H416V61H415ZM417 60H418V61H417ZM419 60H420V61H419ZM421 60H422V61H421ZM423 60H424V61H423ZM425 60H426V61H425ZM427 60H428V61H427ZM429 60H430V61H429ZM431 60H432V61H431ZM433 60H434V61H433ZM435 60H436V61H435ZM437 60H438V61H437ZM439 60H440V61H439ZM441 60H442V61H441ZM443 60H444V61H443ZM445 60H446V61H445ZM455 60H456V61H455ZM449 66H454V67H449ZM367 69H370V70H367ZM375 69H437V70H375Z"/><path fill="#b8ffff" fill-opacity="1.000" d="M374 57H395V58H374ZM367 58H369V59H367ZM370 58H374V59H370ZM366 59H367V60H366ZM370 59H374V60H370ZM397 59H399V60H397ZM400 59H401V60H400ZM365 60H370V61H365ZM372 60H373V61H372ZM374 60H376V61H374ZM377 60H378V61H377ZM379 60H380V61H379ZM381 60H382V61H381ZM383 60H384V61H383ZM385 60H386V61H385ZM387 60H388V61H387ZM394 60H401V61H394ZM444 60H445V61H444ZM446 60H450V61H446ZM456 60H457V61H456ZM463 60H464V61H463ZM363 61H370V62H363ZM372 61H373V62H372ZM374 61H442V62H374ZM443 61H446V62H443ZM449 61H451V62H449ZM454 61H458V62H454ZM462 61H463V62H462ZM465 61H466V62H465ZM363 62H370V63H363ZM372 62H373V63H372ZM374 62H439V63H374ZM445 62H450V63H445ZM455 62H456V63H455ZM462 62H463V63H462ZM464 62H465V63H464ZM365 63H366V64H365ZM367 63H370V64H367ZM372 63H438V64H372ZM446 63H451V64H446ZM454 63H456V64H454ZM461 63H463V64H461ZM368 64H369V65H368ZM438 64H440V65H438ZM447 64H449V65H447ZM450 64H461V65H450ZM463 64H465V65H463ZM368 65H369V66H368ZM438 65H441V66H438ZM447 65H461V66H447ZM463 65H464V66H463ZM365 66H370V67H365ZM373 66H375V67H373ZM437 66H438V67H437ZM440 66H442V67H440ZM459 66H463V67H459ZM365 67H368V68H365ZM372 67H438V68H372ZM439 67H441V68H439ZM364 68H365V69H364ZM366 68H367V69H366ZM372 68H373V69H372ZM376 68H377V69H376ZM378 68H379V69H378ZM380 68H381V69H380ZM382 68H383V69H382ZM384 68H385V69H384ZM386 68H387V69H386ZM388 68H389V69H388ZM390 68H391V69H390ZM392 68H393V69H392ZM394 68H395V69H394ZM396 68H397V69H396ZM398 68H399V69H398ZM400 68H401V69H400ZM402 68H403V69H402ZM404 68H405V69H404ZM406 68H407V69H406ZM408 68H409V69H408ZM410 68H411V69H410ZM412 68H413V69H412ZM414 68H415V69H414ZM416 68H417V69H416ZM418 68H419V69H418ZM420 68H421V69H420ZM422 68H423V69H422ZM424 68H425V69H424ZM426 68H427V69H426ZM428 68H429V69H428ZM430 68H431V69H430ZM432 68H433V69H432ZM434 68H435V69H434ZM436 68H439V69H436Z"/><path fill="#c01038" fill-opacity="1.000" d="M117 0H118V1H117Z"/><path fill="#c03838" fill-opacity="1.000" d="M201 1H202V2H201Z"/><path fill="#c03840" fill-opacity="1.000" d="M201 0H202V1H201ZM202 1H203V2H202Z"/><path fill="#c04038" fill-opacity="1.000" d="M200 1H201V2H200Z"/><path fill="#c04040" fill-opacity="1.000" d="M201 2H202V3H201Z"/><path fill="#c04048" fill-opacity="1.000" d="M202 0H203V1H202ZM199 4H200V5H199Z"/><path fill="#c0c030" fill-opacity="1.000" d="M157 64H158V65H157Z"/><path fill="#c0c038" fill-opacity="1.000" d="M159 60H160V61H159Z"/><path fill="#c0c040" fill-opacity="1.000" d="M158 67H159V68H158ZM159 68H160V69H159Z"/><path fill="#c0c058" fill-opacity="1.000" d="M151 61H152V62H151Z"/><path fill="#c0c828" fill-opacity="1.000" d="M157 60H158V61H157Z"/><path fill="#c0c830" fill-opacity="1.000" d="M157 65H158V66H157Z"/><path fill="#c0c848" fill-opacity="1.000" d="M152 60H153V61H152Z"/><path fill="#c0c850" fill-opacity="1.000" d="M162 72H163V73H162Z"/><path fill="#c0c858" fill-opacity="1.000" d="M471 69H472V70H471ZM478 70H479V71H478Z"/><path fill="#c0c870" fill-opacity="1.000" d="M471 70H472V71H471Z"/><path fill="#c0c888" fill-opacity="1.000" d="M477 58H478V59H477Z"/><path fill="#c0c8d0" fill-opacity="1.000" d="M125 65H126V66H125ZM125 66H126V67H125ZM125 67H126V68H125ZM125 68H126V69H125Z"/><path fill="#c0d018" fill-opacity="1.000" d="M160 57H161V58H160ZM154 60H155V61H154ZM150 64H151V65H150ZM480 65H481V66H480ZM150 66H151V67H150ZM479 66H480V67H479Z"/><path fill="#c0d020" fill-opacity="1.000" d="M157 70H158V71H157ZM160 73H161V74H160Z"/><path fill="#c0d030" fill-opacity="1.000" d="M479 63H480V64H479Z"/><path fill="#c0d038" fill-opacity="1.000" d="M149 66H150V67H149ZM481 69H482V70H481Z"/><path fill="#c0d040" fill-opacity="1.000" d="M158 55H159V56H158ZM474 63H475V64H474Z"/><path fill="#c0d050" fill-opacity="1.000" d="M154 58H155V59H154ZM159 75H160V76H159Z"/><path fill="#c0d058" fill-opacity="1.000" d="M482 70H483V71H482Z"/><path fill="#c0d068" fill-opacity="1.000" d="M477 59H478V60H477Z"/><path fill="#c0d0d8" fill-opacity="1.000" d="M574 68H575V69H574Z"/><path fill="#c0d0e0" fill-opacity="1.000" d="M574 70H575V71H574Z"/><path fill="#c0d820" fill-opacity="1.000" d="M481 67H482V68H481Z"/><path fill="#c0d838" fill-opacity="1.000" d="M482 69H483V70H482Z"/><path fill="#c0d848" fill-opacity="1.000" d="M159 55H160V56H159Z"/><path fill="#c0d850" fill-opacity="1.000" d="M148 65H149V66H148Z"/><path fill="#c0d8e0" fill-opacity="1.000" d="M103 62H104V63H103Z"/><path fill="#c0d8e8" fill-opacity="1.000" d="M187 2H188V3H187Z"/><path fill="#c0e0e0" fill-opacity="1.000" d="M109 67H110V68H109ZM109 68H110V69H109Z"/><path fill="#c0e8e8" fill-opacity="1.000" d="M110 65H111V66H110ZM110 66H111V67H110ZM110 67H111V68H110Z"/><path fill="#c0e8f0" fill-opacity="1.000" d="M399 57H400V58H399ZM103 64H104V65H103ZM103 66H104V67H103ZM103 67H104V68H103Z"/><path fill="#c0f0f0" fill-opacity="1.000" d="M470 61H471V62H470ZM106 66H107V67H106ZM106 67H107V68H106ZM106 68H107V69H106ZM365 70H366V71H365Z"/><path fill="#c0f0f8" fill-opacity="1.000" d="M366 56H367V57H366ZM398 57H399V58H398ZM469 61H470V62H469ZM466 66H467V67H466ZM465 67H466V68H465Z"/><path fill="#c0f8f8" fill-opacity="1.000" d="M367 56H390V57H367ZM393 56H397V57H393ZM366 57H367V58H366ZM373 57H374V58H373ZM404 59H405V60H404ZM406 59H470V60H406ZM468 64H469V65H468ZM363 67H364V68H363ZM444 67H463V68H444ZM464 67H465V68H464ZM362 68H363V69H362ZM440 68H441V69H440ZM366 69H367V70H366ZM370 69H372V70H370ZM437 69H440V70H437ZM368 70H369V71H368Z"/><path fill="#c0f8ff" fill-opacity="1.000" d="M367 57H368V58H367ZM370 57H373V58H370ZM396 57H398V58H396ZM398 58H400V59H398ZM390 59H392V60H390ZM405 59H406V60H405ZM451 60H454V61H451ZM469 60H470V61H469ZM362 61H363V62H362ZM370 61H371V62H370ZM452 61H453V62H452ZM362 62H363V63H362ZM468 62H469V63H468ZM362 63H363V64H362ZM466 63H467V64H466ZM468 63H469V64H468ZM363 64H364V65H363ZM370 64H372V65H370ZM467 64H468V65H467ZM363 65H365V66H363ZM370 65H372V66H370ZM467 65H468V66H467ZM363 66H364V67H363ZM370 66H372V67H370ZM443 66H446V67H443ZM442 67H444V68H442Z"/><path fill="#c0ffff" fill-opacity="1.000" d="M395 57H396V58H395ZM365 59H366V60H365ZM402 59H403V60H402ZM466 60H467V61H466ZM468 60H469V61H468ZM464 61H465V62H464ZM467 61H468V62H467ZM466 62H467V63H466ZM465 63H466V64H465ZM467 63H468V64H467ZM466 65H467V66H466ZM465 66H466V67H465Z"/><path fill="#c8c828" fill-opacity="1.000" d="M160 64H161V65H160ZM477 67H478V68H477Z"/><path fill="#c8c830" fill-opacity="1.000" d="M157 66H158V67H157Z"/><path fill="#c8c858" fill-opacity="1.000" d="M476 70H477V71H476Z"/><path fill="#c8d000" fill-opacity="1.000" d="M155 64H156V65H155ZM159 72H160V73H159Z"/><path fill="#c8d008" fill-opacity="1.000" d="M151 65H152V66H151Z"/><path fill="#c8d010" fill-opacity="1.000" d="M155 61H156V62H155ZM162 62H163V63H162ZM474 66H475V67H474ZM162 68H163V69H162ZM163 69H164V70H163ZM161 70H162V71H161ZM160 71H161V72H160Z"/><path fill="#c8d018" fill-opacity="1.000" d="M157 57H158V58H157Z"/><path fill="#c8d020" fill-opacity="1.000" d="M163 60H164V61H163ZM160 61H161V62H160ZM156 62H157V63H156ZM151 63H152V64H151ZM167 65H168V66H167ZM164 69H165V70H164ZM157 73H158V74H157Z"/><path fill="#c8d028" fill-opacity="1.000" d="M152 62H153V63H152ZM157 69H158V70H157ZM156 72H157V73H156Z"/><path fill="#c8d030" fill-opacity="1.000" d="M152 61H153V62H152ZM157 68H158V69H157ZM474 69H475V70H474ZM479 69H480V70H479ZM158 70H159V71H158Z"/><path fill="#c8d038" fill-opacity="1.000" d="M165 61H166V62H165ZM154 71H155V72H154Z"/><path fill="#c8d040" fill-opacity="1.000" d="M477 60H478V61H477ZM165 69H166V70H165ZM472 69H473V70H472ZM153 70H154V71H153ZM155 72H156V73H155Z"/><path fill="#c8d048" fill-opacity="1.000" d="M168 64H169V65H168ZM166 68H167V69H166ZM161 73H162V74H161Z"/><path fill="#c8d050" fill-opacity="1.000" d="M476 60H477V61H476ZM478 60H479V61H478ZM473 65H474V66H473ZM160 74H161V75H160ZM158 75H159V76H158Z"/><path fill="#c8d058" fill-opacity="1.000" d="M168 66H169V67H168Z"/><path fill="#c8d060" fill-opacity="1.000" d="M473 70H474V71H473Z"/><path fill="#c8d068" fill-opacity="1.000" d="M472 70H473V71H472Z"/><path fill="#c8d0d0" fill-opacity="1.000" d="M124 63H125V64H124Z"/><path fill="#c8d800" fill-opacity="1.000" d="M153 64H154V65H153Z"/><path fill="#c8d808" fill-opacity="1.000" d="M154 62H155V63H154ZM158 72H159V73H158Z"/><path fill="#c8d810" fill-opacity="1.000" d="M155 59H156V60H155ZM164 62H165V63H164ZM166 64H167V65H166Z"/><path fill="#c8d818" fill-opacity="1.000" d="M158 57H159V58H158ZM154 70H155V71H154ZM157 72H158V73H157Z"/><path fill="#c8d820" fill-opacity="1.000" d="M158 56H159V57H158ZM480 68H481V69H480ZM155 71H156V72H155ZM158 74H159V75H158Z"/><path fill="#c8d828" fill-opacity="1.000" d="M159 56H160V57H159ZM481 68H482V69H481ZM153 69H154V70H153ZM162 71H163V72H162ZM159 74H160V75H159Z"/><path fill="#c8d830" fill-opacity="1.000" d="M155 58H156V59H155ZM153 60H154V61H153ZM149 64H150V65H149ZM479 64H480V65H479ZM473 69H474V70H473Z"/><path fill="#c8d838" fill-opacity="1.000" d="M162 58H163V59H162ZM480 64H481V65H480ZM482 68H483V69H482ZM480 69H481V70H480Z"/><path fill="#c8d840" fill-opacity="1.000" d="M160 56H161V57H160ZM161 57H162V58H161ZM166 62H167V63H166ZM167 63H168V64H167ZM152 69H153V70H152Z"/><path fill="#c8d848" fill-opacity="1.000" d="M479 62H480V63H479ZM163 71H164V72H163Z"/><path fill="#c8d850" fill-opacity="1.000" d="M482 67H483V68H482Z"/><path fill="#c8d858" fill-opacity="1.000" d="M483 69H484V70H483Z"/><path fill="#c8d868" fill-opacity="1.000" d="M481 70H482V71H481Z"/><path fill="#c8e020" fill-opacity="1.000" d="M162 59H163V60H162Z"/><path fill="#c8e028" fill-opacity="1.000" d="M149 65H150V66H149Z"/><path fill="#c8e030" fill-opacity="1.000" d="M481 66H482V67H481Z"/><path fill="#c8e8f0" fill-opacity="1.000" d="M182 2H183V3H182ZM103 63H104V64H103ZM103 68H104V69H103Z"/><path fill="#c8f0f0" fill-opacity="1.000" d="M110 68H111V69H110ZM438 70H439V71H438Z"/><path fill="#c8f0f8" fill-opacity="1.000" d="M397 56H398V57H397ZM470 60H471V61H470ZM364 70H365V71H364ZM370 70H372V71H370Z"/><path fill="#c8f8f8" fill-opacity="1.000" d="M362 60H363V61H362ZM362 66H363V67H362ZM362 67H363V68H362ZM440 69H441V70H440ZM366 70H368V71H366ZM369 70H370V71H369ZM372 70H438V71H372Z"/><path fill="#c8f8ff" fill-opacity="1.000" d="M363 59H364V60H363ZM469 62H470V63H469ZM362 64H363V65H362ZM362 65H363V66H362ZM441 68H442V69H441Z"/><path fill="#c8ffff" fill-opacity="1.000" d="M463 67H464V68H463ZM363 69H364V70H363ZM365 69H366V70H365Z"/><path fill="#d01038" fill-opacity="1.000" d="M116 0H117V1H116Z"/><path fill="#d01840" fill-opacity="1.000" d="M115 0H116V1H115Z"/><path fill="#d0d010" fill-opacity="1.000" d="M163 64H164V65H163ZM163 67H164V68H163Z"/><path fill="#d0d018" fill-opacity="1.000" d="M159 58H160V59H159ZM161 67H162V68H161Z"/><path fill="#d0d020" fill-opacity="1.000" d="M157 59H158V60H157ZM475 65H476V66H475ZM151 67H152V68H151ZM475 67H476V68H475ZM160 69H161V70H160Z"/><path fill="#d0d028" fill-opacity="1.000" d="M475 64H476V65H475ZM160 67H161V68H160ZM166 67H167V68H166ZM160 68H161V69H160Z"/><path fill="#d0d030" fill-opacity="1.000" d="M475 63H476V64H475ZM160 66H161V67H160Z"/><path fill="#d0d038" fill-opacity="1.000" d="M157 67H158V68H157Z"/><path fill="#d0d040" fill-opacity="1.000" d="M478 64H479V65H478ZM477 66H478V67H477ZM157 74H158V75H157Z"/><path fill="#d0d048" fill-opacity="1.000" d="M476 61H477V62H476ZM159 67H160V68H159ZM164 70H165V71H164Z"/><path fill="#d0d058" fill-opacity="1.000" d="M476 62H477V63H476ZM476 63H477V64H476Z"/><path fill="#d0d060" fill-opacity="1.000" d="M474 70H476V71H474Z"/><path fill="#d0d0d8" fill-opacity="1.000" d="M124 64H125V65H124Z"/><path fill="#d0d808" fill-opacity="1.000" d="M161 60H162V61H161ZM154 65H155V66H154Z"/><path fill="#d0d810" fill-opacity="1.000" d="M161 59H162V60H161ZM161 62H162V63H161ZM153 63H154V64H153ZM161 63H162V64H161ZM164 63H165V64H164ZM164 64H166V65H164ZM155 65H156V66H155ZM162 65H165V66H162ZM153 66H154V67H153ZM164 68H165V69H164Z"/><path fill="#d0d818" fill-opacity="1.000" d="M157 58H159V59H157ZM160 58H161V59H160ZM160 59H161V60H160ZM162 60H163V61H162ZM153 61H154V62H153ZM162 63H164V64H162ZM161 65H162V66H161ZM165 65H166V66H165ZM155 66H156V67H155ZM161 66H163V67H161ZM166 66H167V67H166ZM153 67H155V68H153ZM164 67H165V68H164ZM473 67H474V68H473ZM153 68H154V69H153ZM161 68H162V69H161ZM474 68H475V69H474ZM479 68H480V69H479ZM155 69H156V70H155Z"/><path fill="#d0d820" fill-opacity="1.000" d="M156 58H157V59H156ZM156 59H157V60H156ZM160 60H161V61H160ZM163 61H165V62H163ZM152 63H153V64H152ZM166 63H167V64H166ZM156 65H157V66H156ZM474 65H475V66H474ZM156 66H157V67H156ZM475 66H476V67H475ZM152 67H153V68H152ZM155 67H156V68H155ZM165 67H166V68H165ZM155 68H156V69H155ZM165 68H166V69H165ZM475 68H476V69H475ZM478 68H479V69H478ZM154 69H155V70H154ZM156 69H157V70H156ZM156 70H157V71H156ZM160 70H161V71H160ZM157 71H158V72H157ZM159 71H160V72H159ZM161 71H162V72H161Z"/><path fill="#d0d828" fill-opacity="1.000" d="M156 60H157V61H156ZM156 61H157V62H156ZM156 63H157V64H156ZM156 67H157V68H156ZM152 68H153V69H152ZM156 68H157V69H156ZM163 70H164V71H163Z"/><path fill="#d0d830" fill-opacity="1.000" d="M154 59H155V60H154ZM159 59H160V60H159ZM160 63H161V64H160ZM167 64H168V65H167ZM167 66H168V67H167ZM472 68H473V69H472ZM476 68H477V69H476ZM478 69H479V70H478ZM159 70H160V71H159ZM161 72H162V73H161Z"/><path fill="#d0d838" fill-opacity="1.000" d="M156 57H157V58H156ZM478 62H479V63H478ZM478 63H479V64H478ZM150 67H151V68H150ZM151 68H152V69H151ZM475 69H476V70H475Z"/><path fill="#d0d840" fill-opacity="1.000" d="M163 59H164V60H163ZM477 61H479V62H477ZM151 62H152V63H151ZM472 67H473V68H472ZM476 69H478V70H476Z"/><path fill="#d0d848" fill-opacity="1.000" d="M164 60H165V61H164ZM168 65H169V66H168ZM156 73H157V74H156Z"/><path fill="#d0d850" fill-opacity="1.000" d="M167 67H168V68H167Z"/><path fill="#d0d860" fill-opacity="1.000" d="M480 63H481V64H480Z"/><path fill="#d0d868" fill-opacity="1.000" d="M479 70H481V71H479Z"/><path fill="#d0e000" fill-opacity="1.000" d="M153 65H154V66H153Z"/><path fill="#d0e008" fill-opacity="1.000" d="M154 63H155V64H154ZM152 65H153V66H152Z"/><path fill="#d0e010" fill-opacity="1.000" d="M161 61H162V62H161ZM155 63H156V64H155ZM165 63H166V64H165ZM152 66H153V67H152Z"/><path fill="#d0e018" fill-opacity="1.000" d="M154 61H155V62H154ZM162 61H163V62H162ZM155 62H156V63H155ZM161 64H162V65H161ZM166 65H167V66H166ZM154 66H155V67H154ZM480 66H481V67H480ZM474 67H475V68H474ZM480 67H481V68H480ZM473 68H474V69H473ZM162 69H163V70H162ZM155 70H156V71H155ZM162 70H163V71H162ZM158 73H160V74H158Z"/><path fill="#d0e020" fill-opacity="1.000" d="M155 60H156V61H155ZM153 62H154V63H153ZM163 62H164V63H163ZM165 62H166V63H165ZM151 64H152V65H151ZM479 67H480V68H479ZM154 68H155V69H154ZM161 69H162V70H161ZM156 71H157V72H156Z"/><path fill="#d0e028" fill-opacity="1.000" d="M161 58H162V59H161Z"/><path fill="#d0e030" fill-opacity="1.000" d="M473 66H474V67H473Z"/><path fill="#d0e038" fill-opacity="1.000" d="M474 64H475V65H474Z"/><path fill="#d0e040" fill-opacity="1.000" d="M157 56H158V57H157ZM150 63H151V64H150Z"/><path fill="#d0e050" fill-opacity="1.000" d="M481 65H482V66H481Z"/><path fill="#d0f0ff" fill-opacity="1.000" d="M470 59H471V60H470Z"/><path fill="#d0f8f8" fill-opacity="1.000" d="M398 56H399V57H398ZM466 67H467V68H466ZM439 70H440V71H439Z"/><path fill="#d0ffff" fill-opacity="1.000" d="M365 57H366V58H365ZM364 58H365V59H364Z"/><path fill="#d8d030" fill-opacity="1.000" d="M158 59H159V60H158Z"/><path fill="#d8d050" fill-opacity="1.000" d="M476 65H477V66H476Z"/><path fill="#d8d060" fill-opacity="1.000" d="M476 64H477V65H476Z"/><path fill="#d8d078" fill-opacity="1.000" d="M166 2H167V3H166Z"/><path fill="#d8d818" fill-opacity="1.000" d="M163 66H165V67H163Z"/><path fill="#d8d820" fill-opacity="1.000" d="M165 66H166V67H165Z"/><path fill="#d8d828" fill-opacity="1.000" d="M478 67H479V68H478Z"/><path fill="#d8d830" fill-opacity="1.000" d="M478 66H479V67H478Z"/><path fill="#d8d838" fill-opacity="1.000" d="M160 65H161V66H160ZM476 67H477V68H476Z"/><path fill="#d8d840" fill-opacity="1.000" d="M478 65H479V66H478Z"/><path fill="#d8d848" fill-opacity="1.000" d="M476 66H477V67H476Z"/><path fill="#d8d868" fill-opacity="1.000" d="M477 70H478V71H477Z"/><path fill="#d8e008" fill-opacity="1.000" d="M154 64H155V65H154Z"/><path fill="#d8e010" fill-opacity="1.000" d="M152 64H153V65H152Z"/><path fill="#d8e018" fill-opacity="1.000" d="M162 64H163V65H162ZM151 66H152V67H151ZM163 68H164V69H163Z"/><path fill="#d8e020" fill-opacity="1.000" d="M159 57H160V58H159ZM156 64H157V65H156ZM162 67H163V68H162Z"/><path fill="#d8e028" fill-opacity="1.000" d="M150 65H151V66H150ZM158 71H159V72H158Z"/><path fill="#d8e030" fill-opacity="1.000" d="M160 62H161V63H160ZM479 65H480V66H479Z"/><path fill="#d8e058" fill-opacity="1.000" d="M475 62H476V63H475Z"/><path fill="#d8e820" fill-opacity="1.000" d="M160 72H161V73H160Z"/><path fill="#d8f0ff" fill-opacity="1.000" d="M471 59H472V60H471Z"/><path fill="#e0d078" fill-opacity="1.000" d="M165 1H166V2H165Z"/><path fill="#e0d088" fill-opacity="1.000" d="M164 0H165V1H164Z"/><path fill="#e0e070" fill-opacity="1.000" d="M168 1H169V2H168Z"/><path fill="#e8d880" fill-opacity="1.000" d="M167 2H168V3H167Z"/><path fill="#e8e080" fill-opacity="1.000" d="M169 0H170V1H169Z"/><path fill="#e8f0f8" fill-opacity="1.000" d="M124 66H125V67H124ZM124 67H125V68H124ZM124 68H125V69H124Z"/><path fill="#f0e060" fill-opacity="1.000" d="M166 0H167V1H166Z"/><path fill="#f0e868" fill-opacity="1.000" d="M168 0H169V1H168Z"/><path fill="#f0f0f8" fill-opacity="1.000" d="M124 65H125V66H124Z"/><path fill="#f8e080" fill-opacity="1.000" d="M165 0H166V1H165Z"/><path fill="#f8f060" fill-opacity="1.000" d="M167 0H168V1H167Z"/><path fill="#f8f070" fill-opacity="1.000" d="M167 1H168V2H167Z"/><path fill="#fff078" fill-opacity="1.000" d="M166 1H167V2H166Z"/></svg>