<svg xmlns="http://www.w3.org/2000/svg" width="400" height="178" viewBox="0 0 400 178" shape-rendering="geometricPrecision"><path fill="#000008" fill-opacity="0.063" d="M103 87H104V88H103ZM395 89H396V90H395Z"/><path fill="#000010" fill-opacity="0.063" d="M28 83H29V84H28ZM399 87H400V88H399ZM257 88H258V89H257ZM398 88H399V89H398ZM32 89H33V90H32Z"/><path fill="#000808" fill-opacity="0.063" d="M170 70H171V71H170ZM249 77H250V78H249ZM105 78H106V79H105ZM175 79H176V80H175ZM175 87H176V88H175ZM179 87H180V88H179ZM104 88H105V89H104ZM33 90H34V91H33ZM396 90H397V91H396Z"/><path fill="#000810" fill-opacity="0.063" d="M32 70H33V71H32ZM98 70H99V71H98ZM100 70H101V71H100ZM172 70H173V71H172ZM183 70H184V71H183ZM185 70H186V71H185ZM394 70H395V71H394ZM396 70H397V71H396ZM250 72H251V73H250ZM324 72H325V73H324ZM326 72H327V73H326ZM30 76H31V77H30ZM176 76H177V77H176ZM178 76H179V77H178ZM250 76H251V77H250ZM398 76H399V77H398ZM101 77H102V78H101ZM108 78H109V79H108ZM110 78H111V79H110ZM168 78H169V79H168ZM170 78H171V79H170ZM172 78H173V79H172ZM243 78H244V79H243ZM322 78H323V79H322ZM328 78H329V79H328ZM331 78H332V79H331ZM336 78H338V79H336ZM389 78H391V79H389ZM394 78H395V79H394ZM29 79H30V80H29ZM103 79H104V80H103ZM179 79H180V80H179ZM253 79H254V80H253ZM397 79H398V80H397ZM252 80H253V81H252ZM251 81H252V82H251ZM101 87H102V88H101ZM102 88H103V89H102ZM256 88H257V89H256ZM331 88H332V89H331ZM34 89H35V90H34ZM397 90H398V91H397ZM250 91H251V92H250ZM252 91H253V92H252ZM251 92H252V93H251Z"/><path fill="#000818" fill-opacity="0.063" d="M31 87H32V88H31ZM330 88H331V89H330ZM336 88H338V89H336Z"/><path fill="#001008" fill-opacity="0.063" d="M326 86H327V87H326ZM176 88H177V89H176ZM177 89H178V90H177Z"/><path fill="#001010" fill-opacity="0.063" d="M31 77H32V78H31ZM105 77H106V78H105ZM101 79H102V80H101ZM104 79H105V80H104ZM248 79H249V80H248ZM327 79H328V80H327ZM28 80H29V81H28ZM178 80H179V81H178ZM102 86H103V87H102ZM249 87H250V88H249ZM253 87H254V88H253ZM328 87H329V88H328ZM178 88H179V89H178ZM103 89H104V90H103Z"/><path fill="#001018" fill-opacity="0.063" d="M214 0H215V1H214ZM155 1H156V2H155ZM213 1H214V2H213ZM156 2H157V3H156ZM211 2H212V3H211ZM158 3H159V4H158ZM209 3H210V4H209ZM160 4H161V5H160ZM161 5H162V6H161ZM165 7H166V8H165ZM167 8H168V9H167ZM203 8H204V9H203ZM197 9H198V10H197ZM170 10H171V11H170ZM192 11H193V12H192ZM196 11H197V12H196ZM173 12H174V13H173ZM189 12H190V13H189ZM31 79H32V80H31ZM250 80H251V81H250ZM399 84H400V85H399ZM323 87H324V88H323Z"/><path fill="#080010" fill-opacity="0.063" d="M326 90H327V91H326Z"/><path fill="#080808" fill-opacity="0.063" d="M326 88H327V89H326ZM327 89H328V90H327Z"/><path fill="#080810" fill-opacity="0.063" d="M174 70H175V71H174ZM180 70H181V71H180ZM252 72H253V73H252ZM252 76H253V77H252ZM324 76H325V77H324ZM326 76H327V77H326ZM253 77H254V78H253ZM181 78H182V79H181ZM28 86H29V87H28ZM29 87H30V88H29ZM105 87H106V88H105ZM108 88H110V89H108ZM251 90H252V91H251Z"/><path fill="#080818" fill-opacity="0.063" d="M399 86H400V87H399ZM395 88H396V89H395Z"/><path fill="#081010" fill-opacity="0.063" d="M242 70H243V71H242ZM248 70H249V71H248ZM254 70H255V71H254ZM328 70H329V71H328ZM30 72H31V73H30ZM102 72H103V73H102ZM104 72H105V73H104ZM176 72H177V73H176ZM178 72H179V73H178ZM102 76H103V77H102ZM104 76H105V77H104ZM323 77H324V78H323ZM397 77H398V78H397ZM255 78H256V79H255Z"/><path fill="#081018" fill-opacity="0.063" d="M162 6H163V7H162ZM194 12H196V13H194ZM105 71H106V72H105ZM323 71H324V72H323ZM398 72H399V73H398ZM175 77H176V78H175ZM179 77H180V78H179ZM243 88H244V89H243ZM398 89H399V90H398Z"/><path fill="#100810" fill-opacity="0.063" d="M325 89H326V90H325Z"/><path fill="#000008" fill-opacity="0.125" d="M185 77H186V78H185ZM396 88H397V89H396Z"/><path fill="#000010" fill-opacity="0.125" d="M327 77H328V78H327Z"/><path fill="#000808" fill-opacity="0.125" d="M30 75H31V76H30ZM322 77H323V78H322ZM331 77H333V78H331ZM180 87H181V88H180ZM185 87H186V88H185Z"/><path fill="#000810" fill-opacity="0.125" d="M99 70H100V71H99ZM30 73H31V74H30ZM102 73H103V74H102ZM104 73H105V74H104ZM176 73H177V74H176ZM178 73H179V74H178ZM324 73H325V74H324ZM326 73H327V74H326ZM398 73H399V74H398ZM30 74H31V75H30ZM102 74H103V75H102ZM104 74H105V75H104ZM250 74H251V75H250ZM252 74H253V75H252ZM324 74H325V75H324ZM326 74H327V75H326ZM398 74H399V75H398ZM102 75H103V76H102ZM104 75H105V76H104ZM176 75H177V76H176ZM250 75H251V76H250ZM324 75H325V76H324ZM326 75H327V76H326ZM398 75H399V76H398ZM33 77H98V78H33ZM99 77H100V78H99ZM110 77H113V78H110ZM114 77H162V78H114ZM164 77H165V78H164ZM168 77H170V78H168ZM180 77H183V78H180ZM186 77H187V78H186ZM189 77H191V78H189ZM194 77H244V78H194ZM245 77H246V78H245ZM258 77H322V78H258ZM335 77H386V78H335ZM388 77H390V78H388ZM393 77H394V78H393ZM109 78H110V79H109ZM169 78H170V79H169ZM329 78H331V79H329ZM183 79H184V80H183ZM323 79H324V80H323ZM102 80H103V81H102ZM325 85H326V86H325ZM97 87H98V88H97ZM100 87H101V88H100ZM106 87H107V88H106ZM161 87H169V88H161ZM170 87H172V88H170ZM188 87H190V88H188ZM192 87H194V88H192ZM388 87H391V88H388Z"/><path fill="#000818" fill-opacity="0.125" d="M325 83H326V84H325ZM98 87H100V88H98ZM111 87H112V88H111ZM169 87H170V88H169ZM245 87H246V88H245ZM247 87H248V88H247ZM391 87H394V88H391ZM33 88H34V89H33Z"/><path fill="#001008" fill-opacity="0.125" d="M247 77H249V78H247ZM333 77H334V78H333ZM252 86H253V87H252ZM181 87H182V88H181Z"/><path fill="#001010" fill-opacity="0.125" d="M162 77H164V78H162ZM187 77H189V78H187ZM246 77H247V78H246ZM334 77H335V78H334ZM394 77H396V78H394ZM98 79H100V80H98ZM163 79H167V80H163ZM174 79H175V80H174ZM184 79H185V80H184ZM186 79H191V80H186ZM247 79H248V80H247ZM254 79H256V80H254ZM257 79H258V80H257ZM334 79H335V80H334ZM385 79H388V80H385ZM35 87H97V88H35ZM113 87H161V88H113ZM174 87H175V88H174ZM182 87H185V88H182ZM186 87H188V88H186ZM190 87H192V88H190ZM194 87H242V88H194ZM254 87H255V88H254ZM259 87H322V88H259ZM339 87H388V88H339Z"/><path fill="#001018" fill-opacity="0.125" d="M155 0H156V1H155ZM199 8H203V9H199ZM191 11H192V12H191ZM193 11H194V12H193ZM174 12H189V13H174ZM32 79H98V80H32ZM100 79H101V80H100ZM112 79H163V80H112ZM185 79H186V80H185ZM191 79H242V80H191ZM245 79H247V80H245ZM256 79H257V80H256ZM258 79H321V80H258ZM333 79H334V80H333ZM339 79H385V80H339ZM392 79H393V80H392ZM396 79H397V80H396ZM252 81H253V82H252ZM252 82H253V83H252ZM325 84H326V85H325ZM102 85H103V86H102ZM112 87H113V88H112ZM172 87H174V88H172ZM248 87H249V88H248ZM322 87H323V88H322ZM333 87H335V88H333Z"/><path fill="#080808" fill-opacity="0.125" d="M176 87H177V88H176Z"/><path fill="#080810" fill-opacity="0.125" d="M171 70H172V71H171ZM184 70H185V71H184ZM250 73H251V74H250ZM252 73H253V74H252ZM176 74H177V75H176ZM178 74H179V75H178ZM178 75H179V76H178ZM252 75H253V76H252ZM100 77H101V78H100ZM106 77H110V78H106ZM113 77H114V78H113ZM165 77H168V78H165ZM170 77H175V78H170ZM184 77H185V78H184ZM191 77H194V78H191ZM244 77H245V78H244ZM330 77H331V78H330ZM386 77H388V78H386ZM390 77H393V78H390Z"/><path fill="#080818" fill-opacity="0.125" d="M183 77H184V78H183ZM246 87H247V88H246ZM397 88H398V89H397Z"/><path fill="#081010" fill-opacity="0.125" d="M34 71H97V72H34ZM114 71H169V72H114ZM175 71H176V72H175ZM179 71H180V72H179ZM187 71H241V72H187ZM246 71H247V72H246ZM249 71H250V72H249ZM253 71H254V72H253ZM256 71H323V72H256ZM327 71H328V72H327ZM338 71H386V72H338ZM32 77H33V78H32ZM98 77H99V78H98ZM257 77H258V78H257ZM396 77H397V78H396Z"/><path fill="#081018" fill-opacity="0.125" d="M163 6H164V7H163ZM31 71H32V72H31ZM106 71H114V72H106ZM244 71H246V72H244ZM330 71H338V72H330ZM386 71H393V72H386ZM397 71H398V72H397Z"/><path fill="#100808" fill-opacity="0.125" d="M178 87H179V88H178Z"/><path fill="#000008" fill-opacity="0.188" d="M256 77H257V78H256Z"/><path fill="#000808" fill-opacity="0.188" d="M254 77H255V78H254Z"/><path fill="#000810" fill-opacity="0.188" d="M329 77H330V78H329ZM398 80H399V81H398ZM29 81H30V82H29ZM103 81H104V82H103ZM177 81H178V82H177ZM29 82H30V83H29ZM325 82H326V83H325ZM29 85H30V86H29ZM103 85H104V86H103ZM251 85H252V86H251ZM104 86H105V87H104ZM324 86H325V87H324ZM34 87H35V88H34ZM242 87H243V88H242ZM258 87H259V88H258ZM338 87H339V88H338ZM397 87H398V88H397Z"/><path fill="#000818" fill-opacity="0.188" d="M399 81H400V82H399ZM251 82H252V83H251ZM399 83H400V84H399ZM251 84H252V85H251ZM32 87H33V88H32ZM107 87H108V88H107ZM110 87H111V88H110ZM244 87H245V88H244ZM329 87H330V88H329ZM332 87H333V88H332ZM335 87H336V88H335ZM394 87H395V88H394Z"/><path fill="#001008" fill-opacity="0.188" d="M176 80H177V81H176ZM326 80H327V81H326Z"/><path fill="#001010" fill-opacity="0.188" d="M106 79H107V80H106ZM167 79H168V80H167ZM180 79H181V80H180ZM328 79H329V80H328ZM388 79H389V80H388ZM249 80H250V81H249ZM324 80H325V81H324ZM325 81H326V82H325ZM326 83H327V84H326ZM326 84H327V85H326ZM250 86H251V87H250Z"/><path fill="#001018" fill-opacity="0.188" d="M212 1H213V2H212ZM157 2H158V3H157ZM210 2H211V3H210ZM159 3H160V4H159ZM208 3H209V4H208ZM161 4H162V5H161ZM207 4H208V5H207ZM206 5H207V6H206ZM164 6H165V7H164ZM205 6H206V7H205ZM166 7H167V8H166ZM204 7H205V8H204ZM168 8H169V9H168ZM198 8H199V9H198ZM169 9H170V10H169ZM196 9H197V10H196ZM171 10H172V11H171ZM172 11H173V12H172ZM190 11H191V12H190ZM107 79H108V80H107ZM111 79H112V80H111ZM173 79H174V80H173ZM182 79H183V80H182ZM242 79H243V80H242ZM244 79H245V80H244ZM321 79H322V80H321ZM332 79H333V80H332ZM335 79H336V80H335ZM338 79H339V80H338ZM391 79H392V80H391ZM393 79H394V80H393ZM395 79H396V80H395ZM102 81H103V82H102ZM178 81H179V82H178ZM252 83H253V84H252ZM29 84H30V85H29ZM252 84H253V85H252ZM255 87H256V88H255ZM396 87H397V88H396Z"/><path fill="#001810" fill-opacity="0.188" d="M327 86H328V87H327Z"/><path fill="#081010" fill-opacity="0.188" d="M97 71H98V72H97ZM101 71H102V72H101ZM169 71H170V72H169ZM181 71H183V72H181ZM186 71H187V72H186ZM241 71H242V72H241ZM243 71H244V72H243ZM255 71H256V72H255ZM329 71H330V72H329Z"/><path fill="#081018" fill-opacity="0.188" d="M33 71H34V72H33ZM247 71H248V72H247ZM393 71H394V72H393Z"/><path fill="#000008" fill-opacity="0.251" d="M176 86H177V87H176ZM178 86H179V87H178Z"/><path fill="#000808" fill-opacity="0.251" d="M104 80H105V81H104Z"/><path fill="#000810" fill-opacity="0.251" d="M30 80H31V81H30ZM30 86H31V87H30Z"/><path fill="#000818" fill-opacity="0.251" d="M103 82H104V83H103Z"/><path fill="#001010" fill-opacity="0.251" d="M171 79H172V80H171Z"/><path fill="#001018" fill-opacity="0.251" d="M193 10H194V11H193ZM195 10H196V11H195ZM102 84H103V85H102ZM398 85H399V86H398Z"/><path fill="#081010" fill-opacity="0.251" d="M173 71H174V72H173Z"/><path fill="#081018" fill-opacity="0.251" d="M395 71H396V72H395Z"/><path fill="#000000" fill-opacity="1.000" d="M255 77H256V78H255ZM103 88H104V89H103ZM326 89H327V90H326Z"/><path fill="#000800" fill-opacity="1.000" d="M177 88H178V89H177Z"/><path fill="#000818" fill-opacity="1.000" d="M177 85H178V86H177Z"/><path fill="#000820" fill-opacity="1.000" d="M177 82H178V83H177ZM330 87H332V88H330ZM395 87H396V88H395Z"/><path fill="#001010" fill-opacity="1.000" d="M104 84H105V85H104Z"/><path fill="#001018" fill-opacity="1.000" d="M156 0H157V1H156ZM156 1H159V2H156ZM158 2H160V3H158ZM160 3H162V4H160ZM168 7H171V8H168ZM172 7H173V8H172ZM198 7H200V8H198ZM170 8H172V9H170ZM194 8H196V9H194ZM170 9H173V10H170ZM176 9H178V10H176ZM193 9H196V10H193ZM172 10H182V11H172ZM189 10H190V11H189ZM173 11H190V12H173ZM108 79H111V80H108ZM330 79H332V80H330ZM336 79H338V80H336ZM394 79H395V80H394ZM29 80H30V81H29ZM103 80H104V81H103ZM324 82H325V83H324ZM102 83H103V84H102ZM104 83H105V84H104ZM324 84H325V85H324ZM250 85H251V86H250ZM398 86H399V87H398Z"/><path fill="#001020" fill-opacity="1.000" d="M176 82H177V83H176ZM250 82H251V83H250ZM399 82H400V83H399ZM29 83H30V84H29ZM103 83H104V84H103ZM176 83H177V84H176ZM251 83H252V84H251ZM176 84H178V85H176ZM33 87H34V88H33ZM243 87H244V88H243Z"/><path fill="#001028" fill-opacity="1.000" d="M177 83H179V84H177ZM178 84H179V85H178Z"/><path fill="#001810" fill-opacity="1.000" d="M168 79H170V80H168ZM389 79H391V80H389ZM105 80H106V81H105ZM179 80H182V81H179ZM327 80H328V81H327ZM326 85H327V86H326Z"/><path fill="#001818" fill-opacity="1.000" d="M105 79H106V80H105ZM170 79H171V80H170ZM172 79H173V80H172ZM181 79H182V80H181ZM322 79H323V80H322ZM329 79H330V80H329ZM32 80H34V81H32ZM101 80H102V81H101ZM106 80H107V81H106ZM162 80H163V81H162ZM173 80H174V81H173ZM182 80H183V81H182ZM253 80H254V81H253ZM322 80H323V81H322ZM395 80H397V81H395ZM326 81H327V82H326ZM30 82H31V83H30ZM326 82H327V83H326ZM398 82H399V83H398ZM398 84H399V85H398ZM105 86H106V87H105Z"/><path fill="#001820" fill-opacity="1.000" d="M160 1H161V2H160ZM171 6H172V7H171ZM173 7H175V8H173ZM178 7H180V8H178ZM176 8H178V9H176ZM178 9H184V10H178ZM243 79H244V80H243ZM31 80H32V81H31ZM100 80H101V81H100ZM242 80H243V81H242ZM30 81H31V82H30ZM176 81H177V82H176ZM250 81H251V82H250ZM324 81H325V82H324ZM398 81H399V82H398ZM102 82H103V83H102ZM104 82H105V83H104ZM178 82H179V83H178ZM30 83H31V84H30ZM250 83H251V84H250ZM398 83H399V84H398ZM30 84H31V85H30ZM103 84H104V85H103ZM250 84H251V85H250ZM30 85H31V86H30ZM252 85H253V86H252ZM324 85H325V86H324ZM249 86H250V87H249Z"/><path fill="#001828" fill-opacity="1.000" d="M178 85H179V86H178Z"/><path fill="#002018" fill-opacity="1.000" d="M34 80H97V81H34ZM113 80H162V81H113ZM163 80H170V81H163ZM171 80H173V81H171ZM174 80H176V81H174ZM185 80H192V81H185ZM194 80H241V81H194ZM244 80H245V81H244ZM259 80H322V81H259ZM334 80H335V81H334ZM339 80H390V81H339ZM179 86H180V87H179ZM253 86H254V87H253Z"/><path fill="#002020" fill-opacity="1.000" d="M97 80H98V81H97ZM99 80H100V81H99ZM107 80H113V81H107ZM183 80H185V81H183ZM192 80H194V81H192ZM241 80H242V81H241ZM243 80H244V81H243ZM245 80H249V81H245ZM254 80H259V81H254ZM323 80H324V81H323ZM328 80H334V81H328ZM335 80H339V81H335ZM390 80H395V81H390ZM397 80H398V81H397ZM104 81H105V82H104ZM104 85H105V86H104ZM101 86H102V87H101ZM175 86H176V87H175Z"/><path fill="#002028" fill-opacity="1.000" d="M324 83H325V84H324ZM176 85H177V86H176ZM31 86H33V87H31ZM395 86H396V87H395Z"/><path fill="#002030" fill-opacity="1.000" d="M256 86H258V87H256ZM336 86H338V87H336Z"/><path fill="#002820" fill-opacity="1.000" d="M170 80H171V81H170ZM174 86H175V87H174Z"/><path fill="#002828" fill-opacity="1.000" d="M98 80H99V81H98ZM33 86H34V87H33ZM100 86H101V87H100ZM106 86H107V87H106ZM172 86H174V87H172ZM188 86H190V87H188ZM192 86H194V87H192ZM255 86H256V87H255ZM396 86H398V87H396Z"/><path fill="#002830" fill-opacity="1.000" d="M99 86H100V87H99ZM107 86H109V87H107ZM166 86H170V87H166ZM171 86H172V87H171ZM242 86H243V87H242ZM244 86H245V87H244ZM246 86H248V87H246ZM258 86H259V87H258ZM322 86H324V87H322ZM329 86H330V87H329ZM332 86H333V87H332ZM338 86H339V87H338ZM388 86H395V87H388Z"/><path fill="#002838" fill-opacity="1.000" d="M109 86H111V87H109ZM330 86H332V87H330Z"/><path fill="#003020" fill-opacity="1.000" d="M180 86H182V87H180Z"/><path fill="#003028" fill-opacity="1.000" d="M34 86H97V87H34ZM114 86H162V87H114ZM182 86H188V87H182ZM190 86H192V87H190ZM194 86H242V87H194ZM259 86H322V87H259ZM339 86H386V87H339Z"/><path fill="#003030" fill-opacity="1.000" d="M97 86H98V87H97ZM111 86H114V87H111ZM162 86H166V87H162ZM243 86H244V87H243ZM245 86H246V87H245ZM248 86H249V87H248ZM254 86H255V87H254ZM328 86H329V87H328ZM333 86H336V87H333ZM386 86H388V87H386Z"/><path fill="#003038" fill-opacity="1.000" d="M98 86H99V87H98ZM170 86H171V87H170Z"/><path fill="#080018" fill-opacity="1.000" d="M108 87H110V88H108ZM336 87H338V88H336Z"/><path fill="#081018" fill-opacity="1.000" d="M157 0H159V1H157ZM210 0H214V1H210ZM159 1H160V2H159ZM209 1H212V2H209ZM160 2H161V3H160ZM206 2H210V3H206ZM162 3H163V4H162ZM206 3H208V4H206ZM162 4H165V5H162ZM202 4H207V5H202ZM162 5H166V6H162ZM202 5H206V6H202ZM165 6H170V7H165ZM198 6H205V7H198ZM167 7H168V8H167ZM171 7H172V8H171ZM200 7H204V8H200ZM169 8H170V9H169ZM172 8H174V9H172ZM191 8H194V9H191ZM196 8H198V9H196ZM173 9H176V10H173ZM188 9H193V10H188ZM182 10H189V11H182ZM190 10H193V11H190ZM194 10H195V11H194ZM194 11H196V12H194ZM32 71H33V72H32ZM100 71H101V72H100ZM242 71H243V72H242ZM248 71H249V72H248ZM328 71H329V72H328ZM394 71H395V72H394ZM328 77H329V78H328ZM29 86H30V87H29ZM398 87H399V88H398ZM251 91H252V92H251Z"/><path fill="#081020" fill-opacity="1.000" d="M208 0H209V1H208ZM207 1H209V2H207ZM205 2H206V3H205ZM202 3H206V4H202ZM199 4H202V5H199ZM198 5H202V6H198ZM196 6H198V7H196ZM191 7H198V8H191Z"/><path fill="#081818" fill-opacity="1.000" d="M165 4H166V5H165Z"/><path fill="#081820" fill-opacity="1.000" d="M159 0H166V1H159ZM201 0H208V1H201ZM209 0H210V1H209ZM161 1H168V2H161ZM198 1H207V2H198ZM161 2H171V3H161ZM196 2H205V3H196ZM163 3H173V4H163ZM193 3H202V4H193ZM166 4H175V5H166ZM189 4H199V5H189ZM166 5H198V6H166ZM170 6H171V7H170ZM172 6H196V7H172ZM175 7H178V8H175ZM180 7H191V8H180ZM174 8H176V9H174ZM178 8H191V9H178ZM184 9H188V10H184Z"/><path fill="#082020" fill-opacity="1.000" d="M166 0H168V1H166ZM171 2H173V3H171ZM173 3H177V4H173ZM175 4H189V5H175Z"/><path fill="#082028" fill-opacity="1.000" d="M168 0H171V1H168ZM192 0H201V1H192ZM168 1H174V2H168ZM188 1H198V2H188ZM173 2H196V3H173ZM177 3H193V4H177Z"/><path fill="#082030" fill-opacity="1.000" d="M171 0H173V1H171ZM188 0H189V1H188ZM190 0H192V1H190ZM174 1H177V2H174ZM178 1H188V2H178Z"/><path fill="#082830" fill-opacity="1.000" d="M173 0H188V1H173ZM189 0H190V1H189ZM177 1H178V2H177Z"/><path fill="#100018" fill-opacity="1.000" d="M256 87H257V88H256Z"/><path fill="#100808" fill-opacity="1.000" d="M177 87H178V88H177Z"/><path fill="#100810" fill-opacity="1.000" d="M177 86H178V87H177ZM396 89H397V90H396Z"/><path fill="#100818" fill-opacity="1.000" d="M257 87H258V88H257ZM397 89H398V90H397Z"/><path fill="#101018" fill-opacity="1.000" d="M98 71H100V72H98ZM170 71H173V72H170ZM174 71H175V72H174ZM180 71H181V72H180ZM183 71H186V72H183ZM254 71H255V72H254ZM396 71H397V72H396ZM33 89H34V90H33Z"/><path fill="#101820" fill-opacity="1.000" d="M327 72H328V73H327ZM327 76H328V77H327Z"/><path fill="#107060" fill-opacity="1.000" d="M327 84H328V85H327Z"/><path fill="#181820" fill-opacity="1.000" d="M179 76H180V77H179ZM253 76H254V77H253Z"/><path fill="#182020" fill-opacity="1.000" d="M179 72H180V73H179ZM253 72H254V73H253ZM179 73H180V74H179ZM327 73H328V74H327ZM327 74H328V75H327ZM31 76H32V77H31ZM101 76H102V77H101ZM105 76H106V77H105Z"/><path fill="#182028" fill-opacity="1.000" d="M105 72H106V73H105ZM253 73H254V74H253ZM253 74H254V75H253ZM327 75H328V76H327Z"/><path fill="#182828" fill-opacity="1.000" d="M323 76H324V77H323ZM397 76H398V77H397Z"/><path fill="#185050" fill-opacity="1.000" d="M327 81H328V82H327Z"/><path fill="#187868" fill-opacity="1.000" d="M327 83H328V84H327Z"/><path fill="#188080" fill-opacity="1.000" d="M253 83H254V84H253Z"/><path fill="#18ffe0" fill-opacity="1.000" d="M244 84H245V85H244ZM335 84H336V85H335Z"/><path fill="#18ffe8" fill-opacity="1.000" d="M336 84H337V85H336Z"/><path fill="#18fff0" fill-opacity="1.000" d="M330 84H331V85H330Z"/><path fill="#202028" fill-opacity="1.000" d="M105 73H106V74H105ZM179 74H180V75H179ZM105 75H106V76H105ZM179 75H180V76H179ZM253 75H254V76H253Z"/><path fill="#202030" fill-opacity="1.000" d="M175 76H176V77H175Z"/><path fill="#202828" fill-opacity="1.000" d="M249 76H250V77H249Z"/><path fill="#202830" fill-opacity="1.000" d="M31 72H32V73H31ZM101 72H102V73H101ZM175 72H176V73H175ZM31 73H32V74H31ZM101 73H102V74H101ZM31 74H32V75H31ZM101 74H102V75H101ZM105 74H106V75H105ZM31 75H32V76H31ZM101 75H102V76H101ZM33 76H34V77H33ZM98 76H99V77H98ZM174 76H175V77H174ZM243 76H244V77H243Z"/><path fill="#203028" fill-opacity="1.000" d="M248 76H249V77H248Z"/><path fill="#203030" fill-opacity="1.000" d="M34 76H98V77H34ZM115 76H164V77H115ZM182 76H183V77H182ZM187 76H190V77H187ZM195 76H242V77H195ZM246 76H248V77H246ZM259 76H322V77H259ZM333 76H335V77H333ZM339 76H385V77H339ZM395 76H396V77H395Z"/><path fill="#207068" fill-opacity="1.000" d="M327 82H328V83H327Z"/><path fill="#208080" fill-opacity="1.000" d="M253 84H254V85H253Z"/><path fill="#20a8a0" fill-opacity="1.000" d="M101 83H102V84H101Z"/><path fill="#20b0a0" fill-opacity="1.000" d="M101 84H102V85H101Z"/><path fill="#20f0d8" fill-opacity="1.000" d="M395 83H396V84H395Z"/><path fill="#20f8e0" fill-opacity="1.000" d="M255 83H256V84H255ZM99 84H100V85H99ZM173 84H174V85H173Z"/><path fill="#20f8e8" fill-opacity="1.000" d="M172 83H173V84H172ZM246 83H247V84H246ZM172 84H173V85H172Z"/><path fill="#20f8f0" fill-opacity="1.000" d="M184 83H185V84H184ZM185 84H186V85H185Z"/><path fill="#20ffe0" fill-opacity="1.000" d="M33 83H34V84H33ZM244 83H245V84H244ZM334 83H335V84H334ZM107 84H108V85H107ZM256 84H257V85H256ZM334 84H335V85H334Z"/><path fill="#20ffe8" fill-opacity="1.000" d="M34 83H35V84H34ZM107 83H108V84H107ZM114 83H115V84H114ZM182 83H184V84H182ZM245 83H246V84H245ZM257 83H258V84H257ZM329 83H330V84H329ZM335 83H337V84H335ZM108 84H109V85H108ZM110 84H111V85H110ZM163 84H164V85H163ZM181 84H182V85H181ZM243 84H244V85H243ZM245 84H247V85H245ZM255 84H256V85H255ZM329 84H330V85H329ZM392 84H393V85H392Z"/><path fill="#20fff0" fill-opacity="1.000" d="M35 83H98V84H35ZM108 83H111V84H108ZM115 83H170V84H115ZM186 83H188V84H186ZM191 83H242V84H191ZM258 83H321V84H258ZM330 83H332V84H330ZM337 83H386V84H337ZM389 83H393V84H389ZM97 84H99V85H97ZM109 84H110V85H109ZM161 84H163V85H161ZM164 84H170V85H164ZM182 84H183V85H182ZM186 84H188V85H186ZM193 84H194V85H193ZM257 84H259V85H257ZM331 84H332V85H331ZM337 84H339V85H337ZM385 84H392V85H385Z"/><path fill="#282830" fill-opacity="1.000" d="M175 73H176V74H175ZM175 74H176V75H175ZM175 75H176V76H175ZM99 76H100V77H99ZM106 76H110V77H106ZM113 76H114V77H113ZM164 76H171V77H164ZM184 76H186V77H184ZM191 76H193V77H191ZM245 76H246V77H245ZM257 76H258V77H257ZM328 76H331V77H328ZM336 76H338V77H336ZM386 76H388V77H386ZM389 76H390V77H389ZM392 76H393V77H392Z"/><path fill="#282838" fill-opacity="1.000" d="M171 76H172V77H171ZM173 76H174V77H173ZM193 76H194V77H193ZM244 76H245V77H244Z"/><path fill="#283030" fill-opacity="1.000" d="M397 72H398V73H397ZM249 73H250V74H249ZM323 73H324V74H323ZM249 74H250V75H249ZM249 75H250V76H249ZM32 76H33V77H32ZM100 76H101V77H100ZM110 76H113V77H110ZM114 76H115V77H114ZM180 76H181V77H180ZM183 76H184V77H183ZM186 76H187V77H186ZM190 76H191V77H190ZM194 76H195V77H194ZM242 76H243V77H242ZM254 76H255V77H254ZM256 76H257V77H256ZM258 76H259V77H258ZM322 76H323V77H322ZM331 76H333V77H331ZM335 76H336V77H335ZM338 76H339V77H338ZM385 76H386V77H385ZM388 76H389V77H388ZM393 76H395V77H393ZM396 76H397V77H396Z"/><path fill="#283038" fill-opacity="1.000" d="M100 72H101V73H100ZM249 72H250V73H249ZM323 72H324V73H323ZM328 72H329V73H328ZM397 73H398V74H397ZM33 74H34V75H33ZM323 74H324V75H323ZM397 74H398V75H397ZM323 75H324V76H323ZM397 75H398V76H397ZM181 76H182V77H181Z"/><path fill="#286868" fill-opacity="1.000" d="M253 81H254V82H253Z"/><path fill="#287060" fill-opacity="1.000" d="M327 85H328V86H327Z"/><path fill="#288078" fill-opacity="1.000" d="M253 85H254V86H253Z"/><path fill="#288080" fill-opacity="1.000" d="M253 82H254V83H253Z"/><path fill="#289090" fill-opacity="1.000" d="M179 83H180V84H179Z"/><path fill="#289098" fill-opacity="1.000" d="M179 84H180V85H179Z"/><path fill="#28b8b0" fill-opacity="1.000" d="M175 83H176V84H175Z"/><path fill="#28c0a8" fill-opacity="1.000" d="M175 84H176V85H175Z"/><path fill="#28c0b0" fill-opacity="1.000" d="M249 84H250V85H249Z"/><path fill="#28f8d8" fill-opacity="1.000" d="M395 84H396V85H395Z"/><path fill="#28f8e8" fill-opacity="1.000" d="M99 83H100V84H99ZM322 84H323V85H322Z"/><path fill="#28f8f0" fill-opacity="1.000" d="M170 84H171V85H170ZM190 84H191V85H190Z"/><path fill="#28ffd8" fill-opacity="1.000" d="M396 84H397V85H396Z"/><path fill="#28ffe0" fill-opacity="1.000" d="M396 83H397V84H396ZM33 84H34V85H33ZM112 84H113V85H112Z"/><path fill="#28ffe8" fill-opacity="1.000" d="M111 83H114V84H111ZM173 83H174V84H173ZM181 83H182V84H181ZM242 83H244V84H242ZM393 83H394V84H393ZM111 84H112V85H111ZM113 84H114V85H113ZM332 84H334V85H332ZM393 84H394V85H393Z"/><path fill="#28fff0" fill-opacity="1.000" d="M98 83H99V84H98ZM170 83H172V84H170ZM185 83H186V84H185ZM188 83H191V84H188ZM256 83H257V84H256ZM321 83H322V84H321ZM386 83H389V84H386ZM34 84H97V85H34ZM114 84H161V85H114ZM183 84H185V85H183ZM191 84H193V85H191ZM194 84H243V85H194ZM247 84H248V85H247ZM259 84H322V85H259ZM339 84H385V85H339Z"/><path fill="#302830" fill-opacity="1.000" d="M390 76H392V77H390Z"/><path fill="#302838" fill-opacity="1.000" d="M172 76H173V77H172Z"/><path fill="#303030" fill-opacity="1.000" d="M255 76H256V77H255Z"/><path fill="#303038" fill-opacity="1.000" d="M32 72H33V73H32ZM98 72H99V73H98ZM170 72H172V73H170ZM173 72H174V73H173ZM180 72H181V73H180ZM184 72H186V73H184ZM254 72H255V73H254ZM248 73H249V74H248ZM257 73H258V74H257ZM328 73H329V74H328ZM32 74H33V75H32ZM98 74H99V75H98ZM173 74H174V75H173ZM182 74H184V75H182ZM248 74H249V75H248ZM394 74H396V75H394ZM173 75H174V76H173ZM182 75H183V76H182ZM185 75H186V76H185ZM254 75H256V76H254ZM328 75H329V76H328Z"/><path fill="#303838" fill-opacity="1.000" d="M34 72H98V73H34ZM99 72H100V73H99ZM114 72H170V73H114ZM172 72H173V73H172ZM174 72H175V73H174ZM181 72H184V73H181ZM186 72H242V73H186ZM258 72H322V73H258ZM338 72H386V73H338ZM394 72H397V73H394ZM34 73H98V74H34ZM114 73H172V74H114ZM173 73H174V74H173ZM180 73H181V74H180ZM185 73H242V74H185ZM243 73H244V74H243ZM246 73H247V74H246ZM254 73H255V74H254ZM258 73H322V74H258ZM338 73H386V74H338ZM34 74H98V75H34ZM114 74H173V75H114ZM174 74H175V75H174ZM180 74H182V75H180ZM184 74H242V75H184ZM246 74H247V75H246ZM258 74H322V75H258ZM328 74H329V75H328ZM338 74H386V75H338ZM35 75H36V76H35ZM37 75H38V76H37ZM39 75H40V76H39ZM41 75H42V76H41ZM43 75H44V76H43ZM45 75H46V76H45ZM47 75H48V76H47ZM49 75H50V76H49ZM51 75H52V76H51ZM53 75H54V76H53ZM55 75H56V76H55ZM57 75H58V76H57ZM59 75H60V76H59ZM61 75H62V76H61ZM63 75H64V76H63ZM65 75H66V76H65ZM67 75H68V76H67ZM69 75H70V76H69ZM71 75H72V76H71ZM73 75H74V76H73ZM75 75H76V76H75ZM77 75H78V76H77ZM79 75H80V76H79ZM81 75H82V76H81ZM83 75H84V76H83ZM85 75H86V76H85ZM87 75H88V76H87ZM89 75H90V76H89ZM91 75H92V76H91ZM93 75H94V76H93ZM95 75H96V76H95ZM97 75H99V76H97ZM107 75H114V76H107ZM115 75H116V76H115ZM117 75H118V76H117ZM119 75H120V76H119ZM121 75H122V76H121ZM123 75H124V76H123ZM125 75H126V76H125ZM127 75H128V76H127ZM129 75H130V76H129ZM131 75H132V76H131ZM133 75H134V76H133ZM135 75H136V76H135ZM137 75H138V76H137ZM139 75H140V76H139ZM141 75H142V76H141ZM143 75H144V76H143ZM145 75H146V76H145ZM147 75H148V76H147ZM149 75H150V76H149ZM151 75H152V76H151ZM153 75H154V76H153ZM155 75H156V76H155ZM157 75H158V76H157ZM159 75H160V76H159ZM165 75H170V76H165ZM186 75H192V76H186ZM195 75H196V76H195ZM197 75H198V76H197ZM199 75H200V76H199ZM201 75H202V76H201ZM203 75H204V76H203ZM205 75H206V76H205ZM207 75H208V76H207ZM209 75H210V76H209ZM211 75H212V76H211ZM213 75H214V76H213ZM215 75H216V76H215ZM217 75H218V76H217ZM219 75H220V76H219ZM221 75H222V76H221ZM223 75H224V76H223ZM225 75H226V76H225ZM227 75H228V76H227ZM229 75H230V76H229ZM231 75H232V76H231ZM233 75H234V76H233ZM235 75H236V76H235ZM237 75H238V76H237ZM239 75H240V76H239ZM245 75H247V76H245ZM248 75H249V76H248ZM256 75H257V76H256ZM259 75H260V76H259ZM261 75H262V76H261ZM263 75H264V76H263ZM265 75H266V76H265ZM267 75H268V76H267ZM269 75H270V76H269ZM271 75H272V76H271ZM273 75H274V76H273ZM275 75H276V76H275ZM277 75H278V76H277ZM279 75H280V76H279ZM281 75H282V76H281ZM283 75H284V76H283ZM285 75H286V76H285ZM287 75H288V76H287ZM289 75H290V76H289ZM291 75H292V76H291ZM293 75H294V76H293ZM295 75H296V76H295ZM297 75H298V76H297ZM299 75H300V76H299ZM301 75H302V76H301ZM303 75H304V76H303ZM305 75H306V76H305ZM307 75H308V76H307ZM309 75H310V76H309ZM311 75H312V76H311ZM313 75H314V76H313ZM315 75H316V76H315ZM317 75H318V76H317ZM319 75H320V76H319ZM321 75H323V76H321ZM330 75H335V76H330ZM339 75H340V76H339ZM341 75H342V76H341ZM343 75H344V76H343ZM345 75H346V76H345ZM347 75H348V76H347ZM349 75H350V76H349ZM351 75H352V76H351ZM353 75H354V76H353ZM355 75H356V76H355ZM357 75H358V76H357ZM359 75H360V76H359ZM361 75H362V76H361ZM363 75H364V76H363ZM365 75H366V76H365ZM367 75H368V76H367ZM369 75H370V76H369ZM371 75H372V76H371ZM373 75H374V76H373ZM375 75H376V76H375ZM377 75H378V76H377ZM379 75H380V76H379ZM381 75H382V76H381ZM383 75H384V76H383ZM393 75H394V76H393ZM395 75H397V76H395Z"/><path fill="#303840" fill-opacity="1.000" d="M33 72H34V73H33ZM106 72H114V73H106ZM242 72H249V73H242ZM255 72H258V73H255ZM322 72H323V73H322ZM329 72H338V73H329ZM386 72H394V73H386ZM32 73H34V74H32ZM98 73H101V74H98ZM106 73H114V74H106ZM172 73H173V74H172ZM182 73H185V74H182ZM242 73H243V74H242ZM244 73H246V74H244ZM247 73H248V74H247ZM255 73H257V74H255ZM322 73H323V74H322ZM329 73H338V74H329ZM386 73H397V74H386ZM99 74H101V75H99ZM106 74H114V75H106ZM242 74H246V75H242ZM247 74H248V75H247ZM254 74H258V75H254ZM322 74H323V75H322ZM329 74H338V75H329ZM386 74H394V75H386ZM396 74H397V75H396ZM32 75H35V76H32ZM36 75H37V76H36ZM38 75H39V76H38ZM40 75H41V76H40ZM42 75H43V76H42ZM44 75H45V76H44ZM46 75H47V76H46ZM48 75H49V76H48ZM50 75H51V76H50ZM52 75H53V76H52ZM54 75H55V76H54ZM56 75H57V76H56ZM58 75H59V76H58ZM60 75H61V76H60ZM62 75H63V76H62ZM64 75H65V76H64ZM66 75H67V76H66ZM68 75H69V76H68ZM70 75H71V76H70ZM72 75H73V76H72ZM74 75H75V76H74ZM76 75H77V76H76ZM78 75H79V76H78ZM80 75H81V76H80ZM82 75H83V76H82ZM84 75H85V76H84ZM86 75H87V76H86ZM88 75H89V76H88ZM90 75H91V76H90ZM92 75H93V76H92ZM94 75H95V76H94ZM96 75H97V76H96ZM99 75H101V76H99ZM106 75H107V76H106ZM114 75H115V76H114ZM116 75H117V76H116ZM118 75H119V76H118ZM120 75H121V76H120ZM122 75H123V76H122ZM124 75H125V76H124ZM126 75H127V76H126ZM128 75H129V76H128ZM130 75H131V76H130ZM132 75H133V76H132ZM134 75H135V76H134ZM136 75H137V76H136ZM138 75H139V76H138ZM140 75H141V76H140ZM142 75H143V76H142ZM144 75H145V76H144ZM146 75H147V76H146ZM148 75H149V76H148ZM150 75H151V76H150ZM152 75H153V76H152ZM154 75H155V76H154ZM156 75H157V76H156ZM158 75H159V76H158ZM160 75H165V76H160ZM170 75H172V76H170ZM174 75H175V76H174ZM180 75H182V76H180ZM183 75H185V76H183ZM192 75H195V76H192ZM196 75H197V76H196ZM198 75H199V76H198ZM200 75H201V76H200ZM202 75H203V76H202ZM204 75H205V76H204ZM206 75H207V76H206ZM208 75H209V76H208ZM210 75H211V76H210ZM212 75H213V76H212ZM214 75H215V76H214ZM216 75H217V76H216ZM218 75H219V76H218ZM220 75H221V76H220ZM222 75H223V76H222ZM224 75H225V76H224ZM226 75H227V76H226ZM228 75H229V76H228ZM230 75H231V76H230ZM232 75H233V76H232ZM234 75H235V76H234ZM236 75H237V76H236ZM238 75H239V76H238ZM240 75H245V76H240ZM247 75H248V76H247ZM257 75H259V76H257ZM260 75H261V76H260ZM262 75H263V76H262ZM264 75H265V76H264ZM266 75H267V76H266ZM268 75H269V76H268ZM270 75H271V76H270ZM272 75H273V76H272ZM274 75H275V76H274ZM276 75H277V76H276ZM278 75H279V76H278ZM280 75H281V76H280ZM282 75H283V76H282ZM284 75H285V76H284ZM286 75H287V76H286ZM288 75H289V76H288ZM290 75H291V76H290ZM292 75H293V76H292ZM294 75H295V76H294ZM296 75H297V76H296ZM298 75H299V76H298ZM300 75H301V76H300ZM302 75H303V76H302ZM304 75H305V76H304ZM306 75H307V76H306ZM308 75H309V76H308ZM310 75H311V76H310ZM312 75H313V76H312ZM314 75H315V76H314ZM316 75H317V76H316ZM318 75H319V76H318ZM320 75H321V76H320ZM329 75H330V76H329ZM335 75H339V76H335ZM340 75H341V76H340ZM342 75H343V76H342ZM344 75H345V76H344ZM346 75H347V76H346ZM348 75H349V76H348ZM350 75H351V76H350ZM352 75H353V76H352ZM354 75H355V76H354ZM356 75H357V76H356ZM358 75H359V76H358ZM360 75H361V76H360ZM362 75H363V76H362ZM364 75H365V76H364ZM366 75H367V76H366ZM368 75H369V76H368ZM370 75H371V76H370ZM372 75H373V76H372ZM374 75H375V76H374ZM376 75H377V76H376ZM378 75H379V76H378ZM380 75H381V76H380ZM382 75H383V76H382ZM384 75H393V76H384ZM394 75H395V76H394Z"/><path fill="#307070" fill-opacity="1.000" d="M179 81H180V82H179Z"/><path fill="#308088" fill-opacity="1.000" d="M179 85H180V86H179Z"/><path fill="#308888" fill-opacity="1.000" d="M179 82H180V83H179Z"/><path fill="#309890" fill-opacity="1.000" d="M105 84H106V85H105Z"/><path fill="#309898" fill-opacity="1.000" d="M105 83H106V84H105Z"/><path fill="#30a090" fill-opacity="1.000" d="M101 85H102V86H101Z"/><path fill="#30a0a0" fill-opacity="1.000" d="M101 82H102V83H101Z"/><path fill="#30a8a0" fill-opacity="1.000" d="M31 83H32V84H31ZM31 84H32V85H31Z"/><path fill="#30c0b8" fill-opacity="1.000" d="M249 83H250V84H249Z"/><path fill="#30f0e0" fill-opacity="1.000" d="M182 82H183V83H182ZM185 82H186V83H185Z"/><path fill="#30f8d8" fill-opacity="1.000" d="M33 82H34V83H33Z"/><path fill="#30f8e8" fill-opacity="1.000" d="M164 82H166V83H164ZM186 82H188V83H186ZM191 82H194V83H191ZM322 83H323V84H322ZM332 83H334V84H332ZM248 84H249V85H248Z"/><path fill="#30f8f0" fill-opacity="1.000" d="M168 82H170V83H168ZM188 84H190V85H188Z"/><path fill="#30ffe0" fill-opacity="1.000" d="M174 84H175V85H174Z"/><path fill="#30ffe8" fill-opacity="1.000" d="M394 83H395V84H394ZM394 84H395V85H394Z"/><path fill="#30fff0" fill-opacity="1.000" d="M247 83H248V84H247ZM171 84H172V85H171Z"/><path fill="#383840" fill-opacity="1.000" d="M174 73H175V74H174ZM181 73H182V74H181ZM172 75H173V76H172Z"/><path fill="#387878" fill-opacity="1.000" d="M105 81H106V82H105Z"/><path fill="#388080" fill-opacity="1.000" d="M101 81H102V82H101Z"/><path fill="#388880" fill-opacity="1.000" d="M31 81H32V82H31ZM175 81H176V82H175Z"/><path fill="#389090" fill-opacity="1.000" d="M105 82H106V83H105Z"/><path fill="#38b0a0" fill-opacity="1.000" d="M175 85H176V86H175Z"/><path fill="#38b0a8" fill-opacity="1.000" d="M175 82H176V83H175Z"/><path fill="#38b8b0" fill-opacity="1.000" d="M249 82H250V83H249Z"/><path fill="#38d0c8" fill-opacity="1.000" d="M323 83H324V84H323Z"/><path fill="#38e8c8" fill-opacity="1.000" d="M397 83H398V84H397Z"/><path fill="#38f0d8" fill-opacity="1.000" d="M396 82H397V83H396ZM328 83H329V84H328Z"/><path fill="#38f0e0" fill-opacity="1.000" d="M172 82H173V83H172ZM255 82H256V83H255ZM257 82H258V83H257Z"/><path fill="#38f0e8" fill-opacity="1.000" d="M171 82H172V83H171ZM246 82H247V83H246ZM256 82H257V83H256Z"/><path fill="#38f0f0" fill-opacity="1.000" d="M331 82H332V83H331Z"/><path fill="#38f8d8" fill-opacity="1.000" d="M32 83H33V84H32ZM32 84H33V85H32Z"/><path fill="#38f8e0" fill-opacity="1.000" d="M34 82H35V83H34ZM107 82H108V83H107ZM112 82H114V83H112ZM181 82H182V83H181ZM244 82H245V83H244ZM329 82H330V83H329ZM334 82H336V83H334ZM100 83H101V84H100ZM106 83H107V84H106ZM174 83H175V84H174ZM100 84H101V85H100ZM106 84H107V85H106Z"/><path fill="#38f8e8" fill-opacity="1.000" d="M35 82H99V83H35ZM108 82H109V83H108ZM110 82H112V83H110ZM114 82H164V83H114ZM166 82H168V83H166ZM170 82H171V83H170ZM183 82H185V83H183ZM188 82H189V83H188ZM190 82H191V83H190ZM194 82H242V83H194ZM245 82H246V83H245ZM258 82H322V83H258ZM336 82H386V83H336ZM389 82H394V83H389Z"/><path fill="#38f8f0" fill-opacity="1.000" d="M109 82H110V83H109ZM330 82H331V83H330ZM248 83H249V84H248Z"/><path fill="#409088" fill-opacity="1.000" d="M105 85H106V86H105Z"/><path fill="#40a8a0" fill-opacity="1.000" d="M31 82H32V83H31Z"/><path fill="#40c0b8" fill-opacity="1.000" d="M394 81H395V82H394Z"/><path fill="#40c8c0" fill-opacity="1.000" d="M98 81H99V82H98ZM171 81H172V82H171ZM244 81H245V82H244ZM391 81H393V82H391Z"/><path fill="#40c8c8" fill-opacity="1.000" d="M108 81H110V82H108Z"/><path fill="#40d0c0" fill-opacity="1.000" d="M165 81H166V82H165ZM168 81H171V82H168ZM186 81H188V82H186ZM190 81H194V82H190ZM245 81H246V82H245ZM390 81H391V82H390Z"/><path fill="#40d8d0" fill-opacity="1.000" d="M323 84H324V85H323Z"/><path fill="#40e8d0" fill-opacity="1.000" d="M397 84H398V85H397ZM396 85H397V86H396Z"/><path fill="#40e8e0" fill-opacity="1.000" d="M248 82H249V83H248Z"/><path fill="#40f0d8" fill-opacity="1.000" d="M244 85H245V86H244Z"/><path fill="#40f0e0" fill-opacity="1.000" d="M173 82H174V83H173ZM180 83H181V84H180ZM254 83H255V84H254ZM98 85H99V86H98ZM107 85H109V86H107ZM162 85H166V86H162ZM246 85H247V86H246ZM334 85H337V86H334ZM386 85H392V86H386Z"/><path fill="#40f0e8" fill-opacity="1.000" d="M99 82H100V83H99ZM242 82H243V83H242ZM247 82H248V83H247ZM332 82H334V83H332ZM386 82H389V83H386ZM180 84H181V85H180ZM330 85H332V86H330Z"/><path fill="#40f8e0" fill-opacity="1.000" d="M395 82H396V83H395ZM254 84H255V85H254ZM328 84H329V85H328ZM245 85H246V86H245Z"/><path fill="#40f8e8" fill-opacity="1.000" d="M189 82H190V83H189ZM243 82H244V83H243ZM394 82H395V83H394Z"/><path fill="#48a0a0" fill-opacity="1.000" d="M249 81H250V82H249ZM31 85H32V86H31Z"/><path fill="#48a8a8" fill-opacity="1.000" d="M323 81H324V82H323Z"/><path fill="#48c0b8" fill-opacity="1.000" d="M249 85H250V86H249ZM323 85H324V86H323Z"/><path fill="#48c8b8" fill-opacity="1.000" d="M182 81H183V82H182Z"/><path fill="#48c8c0" fill-opacity="1.000" d="M34 81H98V82H34ZM107 81H108V82H107ZM111 81H162V82H111ZM164 81H165V82H164ZM166 81H168V82H166ZM183 81H184V82H183ZM188 81H190V82H188ZM194 81H242V82H194ZM255 81H256V82H255ZM258 81H322V82H258ZM329 81H330V82H329ZM334 81H337V82H334ZM338 81H386V82H338ZM388 81H390V82H388ZM393 81H394V82H393ZM323 82H324V83H323Z"/><path fill="#48c8c8" fill-opacity="1.000" d="M110 81H111V82H110ZM330 81H332V82H330ZM337 81H338V82H337Z"/><path fill="#48d0c0" fill-opacity="1.000" d="M184 81H185V82H184Z"/><path fill="#48d0c8" fill-opacity="1.000" d="M185 81H186V82H185ZM256 81H257V82H256Z"/><path fill="#48d8c8" fill-opacity="1.000" d="M397 82H398V83H397Z"/><path fill="#48e8d8" fill-opacity="1.000" d="M180 82H181V83H180Z"/><path fill="#48e8e0" fill-opacity="1.000" d="M170 85H171V86H170Z"/><path fill="#48f0d8" fill-opacity="1.000" d="M174 85H175V86H174Z"/><path fill="#48f0e0" fill-opacity="1.000" d="M174 82H175V83H174ZM33 85H35V86H33ZM99 85H100V86H99ZM110 85H115V86H110ZM166 85H170V86H166ZM171 85H173V86H171ZM242 85H244V86H242ZM247 85H248V86H247ZM256 85H258V86H256ZM332 85H334V86H332ZM392 85H394V86H392Z"/><path fill="#48f0e8" fill-opacity="1.000" d="M322 82H323V83H322ZM35 85H98V86H35ZM109 85H110V86H109ZM115 85H162V86H115ZM182 85H185V86H182ZM186 85H188V86H186ZM191 85H242V86H191ZM258 85H322V86H258ZM337 85H386V86H337Z"/><path fill="#48f0f0" fill-opacity="1.000" d="M185 85H186V86H185Z"/><path fill="#48f8e0" fill-opacity="1.000" d="M181 85H182V86H181ZM329 85H330V86H329Z"/><path fill="#48f8e8" fill-opacity="1.000" d="M255 85H256V86H255Z"/><path fill="#50b0a8" fill-opacity="1.000" d="M397 81H398V82H397Z"/><path fill="#50c0b8" fill-opacity="1.000" d="M32 81H33V82H32ZM174 81H175V82H174ZM254 81H255V82H254Z"/><path fill="#50c0c0" fill-opacity="1.000" d="M248 81H249V82H248Z"/><path fill="#50c8c0" fill-opacity="1.000" d="M99 81H100V82H99ZM162 81H164V82H162ZM172 81H174V82H172ZM242 81H244V82H242ZM247 81H248V82H247ZM322 81H323V82H322ZM332 81H334V82H332ZM386 81H388V82H386ZM396 81H397V82H396Z"/><path fill="#50c8c8" fill-opacity="1.000" d="M246 81H247V82H246Z"/><path fill="#50d0c0" fill-opacity="1.000" d="M33 81H34V82H33ZM181 81H182V82H181ZM397 85H398V86H397Z"/><path fill="#50d0c8" fill-opacity="1.000" d="M257 81H258V82H257Z"/><path fill="#50e0d0" fill-opacity="1.000" d="M180 85H181V86H180ZM328 85H329V86H328Z"/><path fill="#50e0d8" fill-opacity="1.000" d="M254 85H255V86H254Z"/><path fill="#50e8e0" fill-opacity="1.000" d="M254 82H255V83H254ZM248 85H249V86H248ZM394 85H395V86H394Z"/><path fill="#50e8e8" fill-opacity="1.000" d="M188 85H191V86H188Z"/><path fill="#50f0d8" fill-opacity="1.000" d="M32 82H33V83H32Z"/><path fill="#50f0e0" fill-opacity="1.000" d="M100 82H101V83H100ZM106 82H107V83H106ZM100 85H101V86H100ZM173 85H174V86H173Z"/><path fill="#50f0e8" fill-opacity="1.000" d="M322 85H323V86H322Z"/><path fill="#58c0b8" fill-opacity="1.000" d="M100 81H101V82H100ZM106 81H107V82H106ZM180 81H181V82H180ZM328 81H329V82H328Z"/><path fill="#58d0c0" fill-opacity="1.000" d="M395 81H396V82H395Z"/><path fill="#58e8d8" fill-opacity="1.000" d="M32 85H33V86H32ZM106 85H107V86H106Z"/><path fill="#58f0e0" fill-opacity="1.000" d="M328 82H329V83H328Z"/><path fill="#58f8e8" fill-opacity="1.000" d="M395 85H396V86H395Z"/></svg>